{
  "header": {
    "PPQ": 480,
    "timeSignature": [
      3,
      4
    ],
    "bpm": 94.99984166693055,
    "name": ""
  },
  "tempo": [
    {
      "absoluteTime": 0,
      "seconds": 0,
      "bpm": 94.99984166693055
    },
    {
      "absoluteTime": 27840,
      "seconds": 36.631640000000004,
      "bpm": 103.99983360026624
    },
    {
      "absoluteTime": 42240,
      "seconds": 55.57904000000048,
      "bpm": 94.99984166693055
    },
    {
      "absoluteTime": 43680,
      "seconds": 57.47378000000048,
      "bpm": 79.99978666723555
    },
    {
      "absoluteTime": 45120,
      "seconds": 59.36852000000048,
      "bpm": 89.9999550000225
    },
    {
      "absoluteTime": 46560,
      "seconds": 61.26326000000048,
      "bpm": 103.99983360026624
    },
    {
      "absoluteTime": 69120,
      "seconds": 90.94752000000061,
      "bpm": 89.9999550000225
    },
    {
      "absoluteTime": 70560,
      "seconds": 92.8422600000006,
      "bpm": 103.99983360026624
    }
  ],
  "timeSignature": [
    {
      "absoluteTime": 0,
      "seconds": 0,
      "numerator": 3,
      "denominator": 2,
      "click": 24,
      "notesQ": 8
    },
    {
      "absoluteTime": 7200,
      "seconds": 9.473700000000001,
      "numerator": 5,
      "denominator": 2,
      "click": 24,
      "notesQ": 8
    },
    {
      "absoluteTime": 9600,
      "seconds": 12.6316,
      "numerator": 3,
      "denominator": 2,
      "click": 24,
      "notesQ": 8
    },
    {
      "absoluteTime": 13920,
      "seconds": 18.315820000000002,
      "numerator": 5,
      "denominator": 2,
      "click": 24,
      "notesQ": 8
    },
    {
      "absoluteTime": 16320,
      "seconds": 21.47372,
      "numerator": 3,
      "denominator": 2,
      "click": 24,
      "notesQ": 8
    },
    {
      "absoluteTime": 65280,
      "seconds": 85.89488000000061,
      "numerator": 5,
      "denominator": 2,
      "click": 24,
      "notesQ": 8
    },
    {
      "absoluteTime": 67680,
      "seconds": 89.05278000000061,
      "numerator": 3,
      "denominator": 2,
      "click": 24,
      "notesQ": 8
    }
  ],
  "startTime": 0,
  "duration": 90.9448884166668,
  "tracks": [
    {
      "startTime": 20.84214,
      "duration": 90.85146720833394,
      "length": 107,
      "notes": [
        {
          "name": "G#5",
          "midi": 80,
          "time": 20.84214,
          "velocity": 0.5039370078740157,
          "duration": 0.3144742083333334
        },
        {
          "name": "D#6",
          "midi": 87,
          "time": 21.15793,
          "velocity": 0.5039370078740157,
          "duration": 0.29868470833333305
        },
        {
          "name": "D#6",
          "midi": 87,
          "time": 21.47372,
          "velocity": 0.5039370078740157,
          "duration": 0.3144742083333334
        },
        {
          "name": "F#5",
          "midi": 78,
          "time": 21.78951,
          "velocity": 0.5039370078740157,
          "duration": 0.29868470833333305
        },
        {
          "name": "G#5",
          "midi": 80,
          "time": 22.1053,
          "velocity": 0.5039370078740157,
          "duration": 0.07105274999999978
        },
        {
          "name": "A#5",
          "midi": 82,
          "time": 22.18293170833333,
          "velocity": 0.5039370078740157,
          "duration": 0.07105274999999978
        },
        {
          "name": "G#5",
          "midi": 80,
          "time": 22.263195,
          "velocity": 0.5039370078740157,
          "duration": 1.047370166666667
        },
        {
          "name": "D#6",
          "midi": 87,
          "time": 23.36846,
          "velocity": 0.5039370078740157,
          "duration": 0.3144742083333334
        },
        {
          "name": "A#5",
          "midi": 82,
          "time": 23.68425,
          "velocity": 0.5039370078740157,
          "duration": 0.3144742083333334
        },
        {
          "name": "B5",
          "midi": 83,
          "time": 24.00004,
          "velocity": 0.5039370078740157,
          "duration": 0.6302642083333332
        },
        {
          "name": "C#6",
          "midi": 85,
          "time": 24.631619999999998,
          "velocity": 0.5039370078740157,
          "duration": 0.5986852083333325
        },
        {
          "name": "D#6",
          "midi": 87,
          "time": 25.263199999999998,
          "velocity": 0.5039370078740157,
          "duration": 0.3144742083333334
        },
        {
          "name": "G#5",
          "midi": 80,
          "time": 25.578989999999997,
          "velocity": 0.5039370078740157,
          "duration": 0.29868470833333305
        },
        {
          "name": "G#6",
          "midi": 92,
          "time": 25.894779999999997,
          "velocity": 0.5039370078740157,
          "duration": 0.07236854166666618
        },
        {
          "name": "A#6",
          "midi": 94,
          "time": 25.97241170833333,
          "velocity": 0.5039370078740157,
          "duration": 0.07236854166666618
        },
        {
          "name": "G#6",
          "midi": 92,
          "time": 26.051359208333327,
          "velocity": 0.5039370078740157,
          "duration": 0.7473696666666676
        },
        {
          "name": "F#6",
          "midi": 90,
          "time": 26.842149999999993,
          "velocity": 0.5039370078740157,
          "duration": 0.29868470833333305
        },
        {
          "name": "D#6",
          "midi": 87,
          "time": 27.157939999999993,
          "velocity": 0.5039370078740157,
          "duration": 0.06184220833333498
        },
        {
          "name": "F#6",
          "midi": 90,
          "time": 27.221097999999994,
          "velocity": 0.5039370078740157,
          "duration": 0.06184220833333498
        },
        {
          "name": "D#6",
          "midi": 87,
          "time": 27.28688758333333,
          "velocity": 0.5039370078740157,
          "duration": 0.5986852083333325
        },
        {
          "name": "F4",
          "midi": 65,
          "time": 28.421099999999996,
          "velocity": 0.5039370078740157,
          "duration": 0.3144742083333334
        },
        {
          "name": "F5",
          "midi": 77,
          "time": 28.736889999999995,
          "velocity": 0.5039370078740157,
          "duration": 0.3144742083333334
        },
        {
          "name": "D#5",
          "midi": 75,
          "time": 29.052679999999995,
          "velocity": 0.5039370078740157,
          "duration": 1.198686208333335
        },
        {
          "name": "G#4",
          "midi": 68,
          "time": 32.21058,
          "velocity": 0.7559055118110236,
          "duration": 0.29868470833333305
        },
        {
          "name": "F5",
          "midi": 77,
          "time": 32.52637,
          "velocity": 0.7559055118110236,
          "duration": 0.598685208333336
        },
        {
          "name": "D#5",
          "midi": 75,
          "time": 33.15795,
          "velocity": 0.7559055118110236,
          "duration": 2.6986887083333357
        },
        {
          "name": "E5",
          "midi": 76,
          "time": 36.631640000000004,
          "velocity": 0.7559055118110236,
          "duration": 0.898685708333332
        },
        {
          "name": "F#5",
          "midi": 78,
          "time": 37.579010000000004,
          "velocity": 0.7559055118110236,
          "duration": 0.29868470833333305
        },
        {
          "name": "G5",
          "midi": 79,
          "time": 37.894800000000004,
          "velocity": 0.7559055118110236,
          "duration": 0.598685208333336
        },
        {
          "name": "E5",
          "midi": 76,
          "time": 38.52638,
          "velocity": 0.7559055118110236,
          "duration": 0.598685208333336
        },
        {
          "name": "D5",
          "midi": 74,
          "time": 39.15796,
          "velocity": 0.7559055118110236,
          "duration": 0.598685208333336
        },
        {
          "name": "C5",
          "midi": 72,
          "time": 39.78954,
          "velocity": 0.7559055118110236,
          "duration": 0.598685208333336
        },
        {
          "name": "D5",
          "midi": 74,
          "time": 40.42112,
          "velocity": 0.7559055118110236,
          "duration": 1.1986862083333065
        },
        {
          "name": "E5",
          "midi": 76,
          "time": 41.68427999999997,
          "velocity": 0.6771653543307087,
          "duration": 1.7986872083333196
        },
        {
          "name": "C4",
          "midi": 60,
          "time": 43.57901999999996,
          "velocity": 0.6299212598425197,
          "duration": 0.29868470833333305
        },
        {
          "name": "G4",
          "midi": 67,
          "time": 43.89480999999996,
          "velocity": 0.6299212598425197,
          "duration": 0.29868470833333305
        },
        {
          "name": "F#4",
          "midi": 66,
          "time": 44.21059999999996,
          "velocity": 0.6299212598425197,
          "duration": 0.898685708333332
        },
        {
          "name": "C#4",
          "midi": 61,
          "time": 45.157969999999956,
          "velocity": 0.6299212598425197,
          "duration": 0.29868470833333305
        },
        {
          "name": "F4",
          "midi": 65,
          "time": 45.473759999999956,
          "velocity": 0.6299212598425197,
          "duration": 0.29868470833333305
        },
        {
          "name": "F#4",
          "midi": 66,
          "time": 45.789549999999956,
          "velocity": 0.6299212598425197,
          "duration": 0.29868470833333305
        },
        {
          "name": "G#4",
          "midi": 68,
          "time": 46.105339999999956,
          "velocity": 0.6299212598425197,
          "duration": 0.898685708333332
        },
        {
          "name": "F4",
          "midi": 65,
          "time": 47.052709999999955,
          "velocity": 0.6299212598425197,
          "duration": 0.29868470833333305
        },
        {
          "name": "G#4",
          "midi": 68,
          "time": 47.368499999999955,
          "velocity": 0.6299212598425197,
          "duration": 0.29868470833333305
        },
        {
          "name": "C#5",
          "midi": 73,
          "time": 47.684289999999955,
          "velocity": 0.6299212598425197,
          "duration": 0.29868470833333305
        },
        {
          "name": "D#5",
          "midi": 75,
          "time": 48.000079999999954,
          "velocity": 0.6299212598425197,
          "duration": 0.19868454166666538
        },
        {
          "name": "G#4",
          "midi": 68,
          "time": 48.21060666666662,
          "velocity": 0.6299212598425197,
          "duration": 0.19868454166666538
        },
        {
          "name": "A#4",
          "midi": 70,
          "time": 48.42113333333329,
          "velocity": 0.6377952755905512,
          "duration": 0.1986845416666725
        },
        {
          "name": "C#5",
          "midi": 73,
          "time": 48.63165999999996,
          "velocity": 0.6456692913385826,
          "duration": 0.598685208333336
        },
        {
          "name": "F5",
          "midi": 77,
          "time": 49.26323999999996,
          "velocity": 0.6692913385826772,
          "duration": 0.598685208333336
        },
        {
          "name": "F#5",
          "midi": 78,
          "time": 49.89481999999996,
          "velocity": 0.6929133858267716,
          "duration": 1.198686208333342
        },
        {
          "name": "F5",
          "midi": 77,
          "time": 51.15797999999997,
          "velocity": 0.7322834645669292,
          "duration": 0.29868470833334015
        },
        {
          "name": "F#5",
          "midi": 78,
          "time": 51.47376999999997,
          "velocity": 0.7401574803149606,
          "duration": 0.29868470833333305
        },
        {
          "name": "G#5",
          "midi": 80,
          "time": 51.78955999999997,
          "velocity": 0.7559055118110236,
          "duration": 2.9986892083333316
        },
        {
          "name": "F#5",
          "midi": 78,
          "time": 54.94745999999997,
          "velocity": 0.905511811023622,
          "duration": 0.20921087499998237
        },
        {
          "name": "G#5",
          "midi": 80,
          "time": 55.15798666666662,
          "velocity": 0.905511811023622,
          "duration": 0.20921087500025948
        },
        {
          "name": "B5",
          "midi": 83,
          "time": 55.36851333333355,
          "velocity": 0.905511811023622,
          "duration": 0.20921087500025948
        },
        {
          "name": "A#5",
          "midi": 82,
          "time": 55.57904000000048,
          "velocity": 0.905511811023622,
          "duration": 1.8934242083333288
        },
        {
          "name": "A#5",
          "midi": 82,
          "time": 57.47378000000048,
          "velocity": 0.9763779527559056,
          "duration": 1.8934242083333288
        },
        {
          "name": "G5",
          "midi": 79,
          "time": 61.26326000000048,
          "velocity": 0.8818897637795275,
          "duration": 0.29868470833333305
        },
        {
          "name": "C5",
          "midi": 72,
          "time": 61.57905000000048,
          "velocity": 0.8818897637795275,
          "duration": 0.29868470833333305
        },
        {
          "name": "A#5",
          "midi": 82,
          "time": 61.89484000000048,
          "velocity": 0.8818897637795275,
          "duration": 0.06973695833332982
        },
        {
          "name": "C6",
          "midi": 84,
          "time": 61.96589275000048,
          "velocity": 0.8818897637795275,
          "duration": 0.898685708333332
        },
        {
          "name": "A#5",
          "midi": 82,
          "time": 62.84221000000048,
          "velocity": 0.8818897637795275,
          "duration": 0.29868470833333305
        },
        {
          "name": "G5",
          "midi": 79,
          "time": 63.15800000000048,
          "velocity": 0.8818897637795275,
          "duration": 1.7986872083333267
        },
        {
          "name": "G5",
          "midi": 79,
          "time": 65.05274000000047,
          "velocity": 0.8818897637795275,
          "duration": 0.29868470833334015
        },
        {
          "name": "A#4",
          "midi": 70,
          "time": 65.36853000000048,
          "velocity": 0.8818897637795275,
          "duration": 0.29868470833334015
        },
        {
          "name": "C5",
          "midi": 72,
          "time": 65.68432000000048,
          "velocity": 0.8818897637795275,
          "duration": 1.1986862083333278
        },
        {
          "name": "G5",
          "midi": 79,
          "time": 66.94748000000048,
          "velocity": 0.8818897637795275,
          "duration": 0.29868470833334015
        },
        {
          "name": "C#5",
          "midi": 73,
          "time": 67.26327000000049,
          "velocity": 0.8818897637795275,
          "duration": 0.29868470833334015
        },
        {
          "name": "D#5",
          "midi": 75,
          "time": 67.5790600000005,
          "velocity": 0.8818897637795275,
          "duration": 0.598685208333336
        },
        {
          "name": "F5",
          "midi": 77,
          "time": 68.2106400000005,
          "velocity": 0.8818897637795275,
          "duration": 0.598685208333336
        },
        {
          "name": "G5",
          "midi": 79,
          "time": 68.8422200000005,
          "velocity": 0.8818897637795275,
          "duration": 0.29868470833334015
        },
        {
          "name": "C5",
          "midi": 72,
          "time": 69.1580100000005,
          "velocity": 0.8818897637795275,
          "duration": 0.29868470833334015
        },
        {
          "name": "D6",
          "midi": 86,
          "time": 69.47380000000051,
          "velocity": 0.8818897637795275,
          "duration": 0.06973695833333693
        },
        {
          "name": "D#6",
          "midi": 87,
          "time": 69.54485275000052,
          "velocity": 0.8818897637795275,
          "duration": 0.898685708333332
        },
        {
          "name": "D6",
          "midi": 86,
          "time": 70.42117000000052,
          "velocity": 0.8818897637795275,
          "duration": 0.29868470833332594
        },
        {
          "name": "G5",
          "midi": 79,
          "time": 70.73696000000051,
          "velocity": 0.8818897637795275,
          "duration": 2.6986887083333357
        },
        {
          "name": "A5",
          "midi": 81,
          "time": 73.57907000000051,
          "velocity": 0.8818897637795275,
          "duration": 0.29868470833334015
        },
        {
          "name": "A#5",
          "midi": 82,
          "time": 73.89486000000052,
          "velocity": 0.8818897637795275,
          "duration": 0.898685708333332
        },
        {
          "name": "C6",
          "midi": 84,
          "time": 74.84223000000051,
          "velocity": 0.8818897637795275,
          "duration": 1.498686708333338
        },
        {
          "name": "D5",
          "midi": 74,
          "time": 76.42118000000052,
          "velocity": 0.6299212598425197,
          "duration": 0.31447420833333695
        },
        {
          "name": "A#4",
          "midi": 70,
          "time": 76.73697000000053,
          "velocity": 0.6299212598425197,
          "duration": 0.29868470833334015
        },
        {
          "name": "C5",
          "midi": 72,
          "time": 77.05276000000053,
          "velocity": 0.6299212598425197,
          "duration": 1.1986862083333278
        },
        {
          "name": "D5",
          "midi": 74,
          "time": 78.31592000000053,
          "velocity": 0.6299212598425197,
          "duration": 0.31447420833333695
        },
        {
          "name": "A4",
          "midi": 69,
          "time": 78.63171000000054,
          "velocity": 0.6299212598425197,
          "duration": 0.29868470833334015
        },
        {
          "name": "C5",
          "midi": 72,
          "time": 78.94750000000055,
          "velocity": 0.6299212598425197,
          "duration": 0.598685208333336
        },
        {
          "name": "F5",
          "midi": 77,
          "time": 79.57908000000054,
          "velocity": 0.6299212598425197,
          "duration": 0.31447420833333695
        },
        {
          "name": "D5",
          "midi": 74,
          "time": 79.89487000000055,
          "velocity": 0.6299212598425197,
          "duration": 0.29868470833334015
        },
        {
          "name": "C5",
          "midi": 72,
          "time": 80.21066000000056,
          "velocity": 0.6299212598425197,
          "duration": 0.29868470833334015
        },
        {
          "name": "G5",
          "midi": 79,
          "time": 80.52645000000057,
          "velocity": 0.6299212598425197,
          "duration": 0.29868470833334015
        },
        {
          "name": "G5",
          "midi": 79,
          "time": 80.84224000000057,
          "velocity": 0.6299212598425197,
          "duration": 0.29868470833334015
        },
        {
          "name": "G5",
          "midi": 79,
          "time": 81.15803000000058,
          "velocity": 0.6299212598425197,
          "duration": 0.29868470833334015
        },
        {
          "name": "C6",
          "midi": 84,
          "time": 81.47382000000059,
          "velocity": 0.6299212598425197,
          "duration": 0.1565792083333264
        },
        {
          "name": "D6",
          "midi": 86,
          "time": 81.63171500000058,
          "velocity": 0.6299212598425197,
          "duration": 0.1565792083333264
        },
        {
          "name": "D#6",
          "midi": 87,
          "time": 81.78961000000058,
          "velocity": 0.6299212598425197,
          "duration": 0.1565792083333264
        },
        {
          "name": "F6",
          "midi": 89,
          "time": 81.94750500000058,
          "velocity": 0.6299212598425197,
          "duration": 0.1486844583333351
        },
        {
          "name": "F6",
          "midi": 89,
          "time": 82.10540000000057,
          "velocity": 0.6299212598425197,
          "duration": 0.29868470833334015
        },
        {
          "name": "C6",
          "midi": 84,
          "time": 82.42119000000058,
          "velocity": 0.6299212598425197,
          "duration": 0.598685208333336
        },
        {
          "name": "C5",
          "midi": 72,
          "time": 83.36856000000058,
          "velocity": 0.6299212598425197,
          "duration": 0.31447420833333695
        },
        {
          "name": "D5",
          "midi": 74,
          "time": 83.68435000000059,
          "velocity": 0.6299212598425197,
          "duration": 0.31447420833333695
        },
        {
          "name": "D#5",
          "midi": 75,
          "time": 84.0001400000006,
          "velocity": 0.6299212598425197,
          "duration": 0.9460542083333365
        },
        {
          "name": "F5",
          "midi": 77,
          "time": 84.9475100000006,
          "velocity": 0.6299212598425197,
          "duration": 0.31447420833333695
        },
        {
          "name": "G5",
          "midi": 79,
          "time": 85.26330000000061,
          "velocity": 0.6299212598425197,
          "duration": 0.6302642083333296
        },
        {
          "name": "F5",
          "midi": 77,
          "time": 85.89488000000061,
          "velocity": 0.6299212598425197,
          "duration": 0.6302642083333296
        },
        {
          "name": "C#6",
          "midi": 85,
          "time": 86.52646000000061,
          "velocity": 0.6299212598425197,
          "duration": 0.06842116666666698
        },
        {
          "name": "D6",
          "midi": 86,
          "time": 86.59619695833395,
          "velocity": 0.6299212598425197,
          "duration": 1.1986862083333278
        },
        {
          "name": "C6",
          "midi": 84,
          "time": 89.05278000000061,
          "velocity": 0.25984251968503935,
          "duration": 1.7986872083333338
        }
      ],
      "controlChanges": {
        "2": [
          {
            "number": 2,
            "time": 20.84214,
            "value": 0.5039370078740157
          },
          {
            "number": 2,
            "time": 21.78951,
            "value": 0.5039370078740157
          },
          {
            "number": 2,
            "time": 23.68425,
            "value": 0.5039370078740157
          },
          {
            "number": 2,
            "time": 25.578989999999997,
            "value": 0.5039370078740157
          },
          {
            "number": 2,
            "time": 28.421099999999996,
            "value": 0.5039370078740157
          },
          {
            "number": 2,
            "time": 32.21058,
            "value": 0.7559055118110236
          },
          {
            "number": 2,
            "time": 33.15795,
            "value": 0.7559055118110236
          },
          {
            "number": 2,
            "time": 37.579010000000004,
            "value": 0.7559055118110236
          },
          {
            "number": 2,
            "time": 40.53954125,
            "value": 0.7480314960629921
          },
          {
            "number": 2,
            "time": 40.6579625,
            "value": 0.7401574803149606
          },
          {
            "number": 2,
            "time": 40.776383749999994,
            "value": 0.7322834645669292
          },
          {
            "number": 2,
            "time": 40.89480499999999,
            "value": 0.7244094488188977
          },
          {
            "number": 2,
            "time": 41.01322624999999,
            "value": 0.7165354330708661
          },
          {
            "number": 2,
            "time": 41.131647499999985,
            "value": 0.7086614173228346
          },
          {
            "number": 2,
            "time": 41.25006874999998,
            "value": 0.7007874015748031
          },
          {
            "number": 2,
            "time": 41.36848999999998,
            "value": 0.6929133858267716
          },
          {
            "number": 2,
            "time": 41.48691124999998,
            "value": 0.6850393700787402
          },
          {
            "number": 2,
            "time": 41.605332499999975,
            "value": 0.6771653543307087
          },
          {
            "number": 2,
            "time": 41.72375374999997,
            "value": 0.6692913385826772
          },
          {
            "number": 2,
            "time": 41.84217499999997,
            "value": 0.6614173228346457
          },
          {
            "number": 2,
            "time": 41.960596249999966,
            "value": 0.6535433070866141
          },
          {
            "number": 2,
            "time": 42.07901749999996,
            "value": 0.6456692913385826
          },
          {
            "number": 2,
            "time": 42.19743874999996,
            "value": 0.6377952755905512
          },
          {
            "number": 2,
            "time": 42.31585999999996,
            "value": 0.6299212598425197
          },
          {
            "number": 2,
            "time": 48.236922499999956,
            "value": 0.6377952755905512
          },
          {
            "number": 2,
            "time": 48.47376499999996,
            "value": 0.6456692913385826
          },
          {
            "number": 2,
            "time": 48.71060749999996,
            "value": 0.6535433070866141
          },
          {
            "number": 2,
            "time": 48.94744999999996,
            "value": 0.6614173228346457
          },
          {
            "number": 2,
            "time": 49.18429249999996,
            "value": 0.6692913385826772
          },
          {
            "number": 2,
            "time": 49.421134999999964,
            "value": 0.6771653543307087
          },
          {
            "number": 2,
            "time": 49.657977499999966,
            "value": 0.6850393700787402
          },
          {
            "number": 2,
            "time": 49.89481999999996,
            "value": 0.6929133858267716
          },
          {
            "number": 2,
            "time": 50.13166249999996,
            "value": 0.7007874015748031
          },
          {
            "number": 2,
            "time": 50.36850499999996,
            "value": 0.7086614173228346
          },
          {
            "number": 2,
            "time": 50.605347499999965,
            "value": 0.7165354330708661
          },
          {
            "number": 2,
            "time": 50.84218999999997,
            "value": 0.7244094488188977
          },
          {
            "number": 2,
            "time": 51.07903249999997,
            "value": 0.7322834645669292
          },
          {
            "number": 2,
            "time": 51.31587499999997,
            "value": 0.7401574803149606
          },
          {
            "number": 2,
            "time": 51.55271749999997,
            "value": 0.7480314960629921
          },
          {
            "number": 2,
            "time": 51.78955999999997,
            "value": 0.7559055118110236
          },
          {
            "number": 2,
            "time": 53.68429999999997,
            "value": 0.7559055118110236
          },
          {
            "number": 2,
            "time": 54.94745999999997,
            "value": 0.905511811023622
          },
          {
            "number": 2,
            "time": 54.950091583333304,
            "value": 0.8976377952755905
          },
          {
            "number": 2,
            "time": 54.9579863333333,
            "value": 0.889763779527559
          },
          {
            "number": 2,
            "time": 54.9658810833333,
            "value": 0.8818897637795275
          },
          {
            "number": 2,
            "time": 54.97509162499997,
            "value": 0.8740157480314961
          },
          {
            "number": 2,
            "time": 54.98298637499997,
            "value": 0.8661417322834646
          },
          {
            "number": 2,
            "time": 54.990881124999966,
            "value": 0.8582677165354331
          },
          {
            "number": 2,
            "time": 54.998775874999964,
            "value": 0.8503937007874016
          },
          {
            "number": 2,
            "time": 55.00798641666663,
            "value": 0.84251968503937
          },
          {
            "number": 2,
            "time": 55.01588116666663,
            "value": 0.8346456692913385
          },
          {
            "number": 2,
            "time": 55.02377591666663,
            "value": 0.8267716535433071
          },
          {
            "number": 2,
            "time": 55.03167066666663,
            "value": 0.8188976377952756
          },
          {
            "number": 2,
            "time": 55.040881208333296,
            "value": 0.8110236220472441
          },
          {
            "number": 2,
            "time": 55.048775958333295,
            "value": 0.8031496062992126
          },
          {
            "number": 2,
            "time": 55.05667070833329,
            "value": 0.7952755905511811
          },
          {
            "number": 2,
            "time": 55.06456545833329,
            "value": 0.7874015748031497
          },
          {
            "number": 2,
            "time": 55.07377599999996,
            "value": 0.7795275590551181
          },
          {
            "number": 2,
            "time": 55.08167074999996,
            "value": 0.7716535433070866
          },
          {
            "number": 2,
            "time": 55.089565499999956,
            "value": 0.7637795275590551
          },
          {
            "number": 2,
            "time": 55.097460249999955,
            "value": 0.7559055118110236
          },
          {
            "number": 2,
            "time": 55.15798666666662,
            "value": 1
          },
          {
            "number": 2,
            "time": 55.15798666666662,
            "value": 0.905511811023622
          },
          {
            "number": 2,
            "time": 55.15930245833329,
            "value": 1
          },
          {
            "number": 2,
            "time": 55.15930245833329,
            "value": 0.905511811023622
          },
          {
            "number": 2,
            "time": 55.16061824999996,
            "value": 1
          },
          {
            "number": 2,
            "time": 55.16061824999996,
            "value": 0.8976377952755905
          },
          {
            "number": 2,
            "time": 55.16193404166663,
            "value": 1
          },
          {
            "number": 2,
            "time": 55.16193404166663,
            "value": 0.8976377952755905
          },
          {
            "number": 2,
            "time": 55.1632498333333,
            "value": 1
          },
          {
            "number": 2,
            "time": 55.1632498333333,
            "value": 0.8976377952755905
          },
          {
            "number": 2,
            "time": 55.16456562499997,
            "value": 1
          },
          {
            "number": 2,
            "time": 55.16456562499997,
            "value": 0.8976377952755905
          },
          {
            "number": 2,
            "time": 55.16588141666664,
            "value": 1
          },
          {
            "number": 2,
            "time": 55.16588141666664,
            "value": 0.8976377952755905
          },
          {
            "number": 2,
            "time": 55.16719720833331,
            "value": 1
          },
          {
            "number": 2,
            "time": 55.16719720833331,
            "value": 0.8976377952755905
          },
          {
            "number": 2,
            "time": 55.16851299999998,
            "value": 1
          },
          {
            "number": 2,
            "time": 55.16851299999998,
            "value": 0.889763779527559
          },
          {
            "number": 2,
            "time": 55.16982879166665,
            "value": 1
          },
          {
            "number": 2,
            "time": 55.16982879166665,
            "value": 0.889763779527559
          },
          {
            "number": 2,
            "time": 55.17114458333332,
            "value": 1
          },
          {
            "number": 2,
            "time": 55.17114458333332,
            "value": 0.889763779527559
          },
          {
            "number": 2,
            "time": 55.17246037499999,
            "value": 1
          },
          {
            "number": 2,
            "time": 55.17246037499999,
            "value": 0.889763779527559
          },
          {
            "number": 2,
            "time": 55.17377616666666,
            "value": 1
          },
          {
            "number": 2,
            "time": 55.17377616666666,
            "value": 0.889763779527559
          },
          {
            "number": 2,
            "time": 55.17509195833333,
            "value": 1
          },
          {
            "number": 2,
            "time": 55.17509195833333,
            "value": 0.889763779527559
          },
          {
            "number": 2,
            "time": 55.17640775,
            "value": 1
          },
          {
            "number": 2,
            "time": 55.17640775,
            "value": 0.8818897637795275
          },
          {
            "number": 2,
            "time": 55.17772354166667,
            "value": 1
          },
          {
            "number": 2,
            "time": 55.17772354166667,
            "value": 0.8818897637795275
          },
          {
            "number": 2,
            "time": 55.17903933333334,
            "value": 1
          },
          {
            "number": 2,
            "time": 55.17903933333334,
            "value": 0.8818897637795275
          },
          {
            "number": 2,
            "time": 55.18035512500001,
            "value": 1
          },
          {
            "number": 2,
            "time": 55.18035512500001,
            "value": 0.8818897637795275
          },
          {
            "number": 2,
            "time": 55.18167091666668,
            "value": 1
          },
          {
            "number": 2,
            "time": 55.18167091666668,
            "value": 0.8818897637795275
          },
          {
            "number": 2,
            "time": 55.18298670833335,
            "value": 1
          },
          {
            "number": 2,
            "time": 55.18298670833335,
            "value": 0.8818897637795275
          },
          {
            "number": 2,
            "time": 55.18430250000002,
            "value": 1
          },
          {
            "number": 2,
            "time": 55.18430250000002,
            "value": 0.8818897637795275
          },
          {
            "number": 2,
            "time": 55.18561829166669,
            "value": 1
          },
          {
            "number": 2,
            "time": 55.18561829166669,
            "value": 0.8740157480314961
          },
          {
            "number": 2,
            "time": 55.18693408333336,
            "value": 1
          },
          {
            "number": 2,
            "time": 55.18693408333336,
            "value": 0.8740157480314961
          },
          {
            "number": 2,
            "time": 55.18824987500003,
            "value": 1
          },
          {
            "number": 2,
            "time": 55.18824987500003,
            "value": 0.8740157480314961
          },
          {
            "number": 2,
            "time": 55.1895656666667,
            "value": 1
          },
          {
            "number": 2,
            "time": 55.1895656666667,
            "value": 0.8740157480314961
          },
          {
            "number": 2,
            "time": 55.19088145833337,
            "value": 1
          },
          {
            "number": 2,
            "time": 55.19088145833337,
            "value": 0.8740157480314961
          },
          {
            "number": 2,
            "time": 55.19219725000004,
            "value": 1
          },
          {
            "number": 2,
            "time": 55.19219725000004,
            "value": 0.8740157480314961
          },
          {
            "number": 2,
            "time": 55.19351304166671,
            "value": 1
          },
          {
            "number": 2,
            "time": 55.19351304166671,
            "value": 0.8661417322834646
          },
          {
            "number": 2,
            "time": 55.19482883333338,
            "value": 1
          },
          {
            "number": 2,
            "time": 55.19482883333338,
            "value": 0.8661417322834646
          },
          {
            "number": 2,
            "time": 55.19614462500005,
            "value": 1
          },
          {
            "number": 2,
            "time": 55.19614462500005,
            "value": 0.8661417322834646
          },
          {
            "number": 2,
            "time": 55.19746041666672,
            "value": 1
          },
          {
            "number": 2,
            "time": 55.19746041666672,
            "value": 0.8661417322834646
          },
          {
            "number": 2,
            "time": 55.19877620833339,
            "value": 1
          },
          {
            "number": 2,
            "time": 55.19877620833339,
            "value": 0.8661417322834646
          },
          {
            "number": 2,
            "time": 55.20009200000006,
            "value": 1
          },
          {
            "number": 2,
            "time": 55.20009200000006,
            "value": 0.8661417322834646
          },
          {
            "number": 2,
            "time": 55.20140779166673,
            "value": 1
          },
          {
            "number": 2,
            "time": 55.20140779166673,
            "value": 0.8582677165354331
          },
          {
            "number": 2,
            "time": 55.2027235833334,
            "value": 1
          },
          {
            "number": 2,
            "time": 55.2027235833334,
            "value": 0.8582677165354331
          },
          {
            "number": 2,
            "time": 55.20403937500007,
            "value": 1
          },
          {
            "number": 2,
            "time": 55.20403937500007,
            "value": 0.8582677165354331
          },
          {
            "number": 2,
            "time": 55.20535516666674,
            "value": 1
          },
          {
            "number": 2,
            "time": 55.20535516666674,
            "value": 0.8582677165354331
          },
          {
            "number": 2,
            "time": 55.20667095833341,
            "value": 1
          },
          {
            "number": 2,
            "time": 55.20667095833341,
            "value": 0.8582677165354331
          },
          {
            "number": 2,
            "time": 55.20798675000008,
            "value": 1
          },
          {
            "number": 2,
            "time": 55.20798675000008,
            "value": 0.8582677165354331
          },
          {
            "number": 2,
            "time": 55.20930254166675,
            "value": 1
          },
          {
            "number": 2,
            "time": 55.20930254166675,
            "value": 0.8503937007874016
          },
          {
            "number": 2,
            "time": 55.21061833333342,
            "value": 1
          },
          {
            "number": 2,
            "time": 55.21061833333342,
            "value": 0.8503937007874016
          },
          {
            "number": 2,
            "time": 55.21193412500009,
            "value": 1
          },
          {
            "number": 2,
            "time": 55.21193412500009,
            "value": 0.8503937007874016
          },
          {
            "number": 2,
            "time": 55.21324991666676,
            "value": 1
          },
          {
            "number": 2,
            "time": 55.21324991666676,
            "value": 0.8503937007874016
          },
          {
            "number": 2,
            "time": 55.21456570833343,
            "value": 1
          },
          {
            "number": 2,
            "time": 55.21456570833343,
            "value": 0.8503937007874016
          },
          {
            "number": 2,
            "time": 55.2158815000001,
            "value": 1
          },
          {
            "number": 2,
            "time": 55.2158815000001,
            "value": 0.8503937007874016
          },
          {
            "number": 2,
            "time": 55.21719729166677,
            "value": 1
          },
          {
            "number": 2,
            "time": 55.21719729166677,
            "value": 0.8503937007874016
          },
          {
            "number": 2,
            "time": 55.21851308333344,
            "value": 1
          },
          {
            "number": 2,
            "time": 55.21851308333344,
            "value": 0.84251968503937
          },
          {
            "number": 2,
            "time": 55.21982887500011,
            "value": 1
          },
          {
            "number": 2,
            "time": 55.21982887500011,
            "value": 0.84251968503937
          },
          {
            "number": 2,
            "time": 55.22114466666678,
            "value": 1
          },
          {
            "number": 2,
            "time": 55.22114466666678,
            "value": 0.84251968503937
          },
          {
            "number": 2,
            "time": 55.22246045833345,
            "value": 1
          },
          {
            "number": 2,
            "time": 55.22246045833345,
            "value": 0.84251968503937
          },
          {
            "number": 2,
            "time": 55.22377625000012,
            "value": 1
          },
          {
            "number": 2,
            "time": 55.22377625000012,
            "value": 0.84251968503937
          },
          {
            "number": 2,
            "time": 55.22509204166679,
            "value": 1
          },
          {
            "number": 2,
            "time": 55.22509204166679,
            "value": 0.84251968503937
          },
          {
            "number": 2,
            "time": 55.22640783333346,
            "value": 1
          },
          {
            "number": 2,
            "time": 55.22640783333346,
            "value": 0.8346456692913385
          },
          {
            "number": 2,
            "time": 55.22772362500013,
            "value": 1
          },
          {
            "number": 2,
            "time": 55.22772362500013,
            "value": 0.8346456692913385
          },
          {
            "number": 2,
            "time": 55.2290394166668,
            "value": 1
          },
          {
            "number": 2,
            "time": 55.2290394166668,
            "value": 0.8346456692913385
          },
          {
            "number": 2,
            "time": 55.23035520833347,
            "value": 1
          },
          {
            "number": 2,
            "time": 55.23035520833347,
            "value": 0.8346456692913385
          },
          {
            "number": 2,
            "time": 55.23167100000014,
            "value": 1
          },
          {
            "number": 2,
            "time": 55.23167100000014,
            "value": 0.8346456692913385
          },
          {
            "number": 2,
            "time": 55.23298679166681,
            "value": 1
          },
          {
            "number": 2,
            "time": 55.23298679166681,
            "value": 0.8346456692913385
          },
          {
            "number": 2,
            "time": 55.23430258333348,
            "value": 1
          },
          {
            "number": 2,
            "time": 55.23430258333348,
            "value": 0.8267716535433071
          },
          {
            "number": 2,
            "time": 55.23561837500015,
            "value": 1
          },
          {
            "number": 2,
            "time": 55.23561837500015,
            "value": 0.8267716535433071
          },
          {
            "number": 2,
            "time": 55.23693416666682,
            "value": 1
          },
          {
            "number": 2,
            "time": 55.23693416666682,
            "value": 0.8267716535433071
          },
          {
            "number": 2,
            "time": 55.23824995833349,
            "value": 1
          },
          {
            "number": 2,
            "time": 55.23824995833349,
            "value": 0.8267716535433071
          },
          {
            "number": 2,
            "time": 55.23956575000016,
            "value": 1
          },
          {
            "number": 2,
            "time": 55.23956575000016,
            "value": 0.8267716535433071
          },
          {
            "number": 2,
            "time": 55.24088154166683,
            "value": 1
          },
          {
            "number": 2,
            "time": 55.24088154166683,
            "value": 0.8267716535433071
          },
          {
            "number": 2,
            "time": 55.2421973333335,
            "value": 1
          },
          {
            "number": 2,
            "time": 55.2421973333335,
            "value": 0.8188976377952756
          },
          {
            "number": 2,
            "time": 55.24351312500017,
            "value": 1
          },
          {
            "number": 2,
            "time": 55.24351312500017,
            "value": 0.8188976377952756
          },
          {
            "number": 2,
            "time": 55.24482891666684,
            "value": 1
          },
          {
            "number": 2,
            "time": 55.24482891666684,
            "value": 0.8188976377952756
          },
          {
            "number": 2,
            "time": 55.24614470833351,
            "value": 1
          },
          {
            "number": 2,
            "time": 55.24614470833351,
            "value": 0.8188976377952756
          },
          {
            "number": 2,
            "time": 55.24746050000018,
            "value": 1
          },
          {
            "number": 2,
            "time": 55.24746050000018,
            "value": 0.8188976377952756
          },
          {
            "number": 2,
            "time": 55.24877629166685,
            "value": 1
          },
          {
            "number": 2,
            "time": 55.24877629166685,
            "value": 0.8188976377952756
          },
          {
            "number": 2,
            "time": 55.25009208333352,
            "value": 1
          },
          {
            "number": 2,
            "time": 55.25009208333352,
            "value": 0.8188976377952756
          },
          {
            "number": 2,
            "time": 55.25140787500019,
            "value": 1
          },
          {
            "number": 2,
            "time": 55.25140787500019,
            "value": 0.8110236220472441
          },
          {
            "number": 2,
            "time": 55.25272366666686,
            "value": 1
          },
          {
            "number": 2,
            "time": 55.25272366666686,
            "value": 0.8110236220472441
          },
          {
            "number": 2,
            "time": 55.25403945833353,
            "value": 1
          },
          {
            "number": 2,
            "time": 55.25403945833353,
            "value": 0.8110236220472441
          },
          {
            "number": 2,
            "time": 55.2553552500002,
            "value": 1
          },
          {
            "number": 2,
            "time": 55.2553552500002,
            "value": 0.8110236220472441
          },
          {
            "number": 2,
            "time": 55.25667104166687,
            "value": 1
          },
          {
            "number": 2,
            "time": 55.25667104166687,
            "value": 0.8110236220472441
          },
          {
            "number": 2,
            "time": 55.25798683333354,
            "value": 1
          },
          {
            "number": 2,
            "time": 55.25798683333354,
            "value": 0.8110236220472441
          },
          {
            "number": 2,
            "time": 55.25930262500021,
            "value": 1
          },
          {
            "number": 2,
            "time": 55.25930262500021,
            "value": 0.8031496062992126
          },
          {
            "number": 2,
            "time": 55.26061841666688,
            "value": 1
          },
          {
            "number": 2,
            "time": 55.26061841666688,
            "value": 0.8031496062992126
          },
          {
            "number": 2,
            "time": 55.26193420833355,
            "value": 1
          },
          {
            "number": 2,
            "time": 55.26193420833355,
            "value": 0.8031496062992126
          },
          {
            "number": 2,
            "time": 55.26325000000022,
            "value": 1
          },
          {
            "number": 2,
            "time": 55.26325000000022,
            "value": 0.8031496062992126
          },
          {
            "number": 2,
            "time": 55.26719737500022,
            "value": 0.7952755905511811
          },
          {
            "number": 2,
            "time": 55.27509212500022,
            "value": 0.7874015748031497
          },
          {
            "number": 2,
            "time": 55.28430266666689,
            "value": 0.7795275590551181
          },
          {
            "number": 2,
            "time": 55.29219741666689,
            "value": 0.7716535433070866
          },
          {
            "number": 2,
            "time": 55.300092166666886,
            "value": 0.7637795275590551
          },
          {
            "number": 2,
            "time": 55.307986916666884,
            "value": 0.7559055118110236
          },
          {
            "number": 2,
            "time": 55.36851333333355,
            "value": 1
          },
          {
            "number": 2,
            "time": 55.36851333333355,
            "value": 0.905511811023622
          },
          {
            "number": 2,
            "time": 55.36982912500022,
            "value": 1
          },
          {
            "number": 2,
            "time": 55.36982912500022,
            "value": 0.905511811023622
          },
          {
            "number": 2,
            "time": 55.37114491666689,
            "value": 1
          },
          {
            "number": 2,
            "time": 55.37114491666689,
            "value": 0.8976377952755905
          },
          {
            "number": 2,
            "time": 55.37246070833356,
            "value": 1
          },
          {
            "number": 2,
            "time": 55.37246070833356,
            "value": 0.8976377952755905
          },
          {
            "number": 2,
            "time": 55.37377650000023,
            "value": 1
          },
          {
            "number": 2,
            "time": 55.37377650000023,
            "value": 0.8976377952755905
          },
          {
            "number": 2,
            "time": 55.3750922916669,
            "value": 1
          },
          {
            "number": 2,
            "time": 55.3750922916669,
            "value": 0.8976377952755905
          },
          {
            "number": 2,
            "time": 55.37640808333357,
            "value": 1
          },
          {
            "number": 2,
            "time": 55.37640808333357,
            "value": 0.8976377952755905
          },
          {
            "number": 2,
            "time": 55.37772387500024,
            "value": 1
          },
          {
            "number": 2,
            "time": 55.37772387500024,
            "value": 0.8976377952755905
          },
          {
            "number": 2,
            "time": 55.37903966666691,
            "value": 1
          },
          {
            "number": 2,
            "time": 55.37903966666691,
            "value": 0.889763779527559
          },
          {
            "number": 2,
            "time": 55.38035545833358,
            "value": 1
          },
          {
            "number": 2,
            "time": 55.38035545833358,
            "value": 0.889763779527559
          },
          {
            "number": 2,
            "time": 55.38167125000025,
            "value": 1
          },
          {
            "number": 2,
            "time": 55.38167125000025,
            "value": 0.889763779527559
          },
          {
            "number": 2,
            "time": 55.38298704166692,
            "value": 1
          },
          {
            "number": 2,
            "time": 55.38298704166692,
            "value": 0.889763779527559
          },
          {
            "number": 2,
            "time": 55.38430283333359,
            "value": 1
          },
          {
            "number": 2,
            "time": 55.38430283333359,
            "value": 0.889763779527559
          },
          {
            "number": 2,
            "time": 55.38561862500026,
            "value": 1
          },
          {
            "number": 2,
            "time": 55.38561862500026,
            "value": 0.889763779527559
          },
          {
            "number": 2,
            "time": 55.38693441666693,
            "value": 1
          },
          {
            "number": 2,
            "time": 55.38693441666693,
            "value": 0.8818897637795275
          },
          {
            "number": 2,
            "time": 55.3882502083336,
            "value": 1
          },
          {
            "number": 2,
            "time": 55.3882502083336,
            "value": 0.8818897637795275
          },
          {
            "number": 2,
            "time": 55.38956600000027,
            "value": 1
          },
          {
            "number": 2,
            "time": 55.38956600000027,
            "value": 0.8818897637795275
          },
          {
            "number": 2,
            "time": 55.39088179166694,
            "value": 1
          },
          {
            "number": 2,
            "time": 55.39088179166694,
            "value": 0.8818897637795275
          },
          {
            "number": 2,
            "time": 55.39219758333361,
            "value": 1
          },
          {
            "number": 2,
            "time": 55.39219758333361,
            "value": 0.8818897637795275
          },
          {
            "number": 2,
            "time": 55.39351337500028,
            "value": 1
          },
          {
            "number": 2,
            "time": 55.39351337500028,
            "value": 0.8818897637795275
          },
          {
            "number": 2,
            "time": 55.39482916666695,
            "value": 1
          },
          {
            "number": 2,
            "time": 55.39482916666695,
            "value": 0.8818897637795275
          },
          {
            "number": 2,
            "time": 55.39614495833362,
            "value": 1
          },
          {
            "number": 2,
            "time": 55.39614495833362,
            "value": 0.8740157480314961
          },
          {
            "number": 2,
            "time": 55.39746075000029,
            "value": 1
          },
          {
            "number": 2,
            "time": 55.39746075000029,
            "value": 0.8740157480314961
          },
          {
            "number": 2,
            "time": 55.39877654166696,
            "value": 1
          },
          {
            "number": 2,
            "time": 55.39877654166696,
            "value": 0.8740157480314961
          },
          {
            "number": 2,
            "time": 55.40009233333363,
            "value": 1
          },
          {
            "number": 2,
            "time": 55.40009233333363,
            "value": 0.8740157480314961
          },
          {
            "number": 2,
            "time": 55.4014081250003,
            "value": 1
          },
          {
            "number": 2,
            "time": 55.4014081250003,
            "value": 0.8740157480314961
          },
          {
            "number": 2,
            "time": 55.40272391666697,
            "value": 1
          },
          {
            "number": 2,
            "time": 55.40272391666697,
            "value": 0.8740157480314961
          },
          {
            "number": 2,
            "time": 55.40403970833364,
            "value": 1
          },
          {
            "number": 2,
            "time": 55.40403970833364,
            "value": 0.8661417322834646
          },
          {
            "number": 2,
            "time": 55.40535550000031,
            "value": 1
          },
          {
            "number": 2,
            "time": 55.40535550000031,
            "value": 0.8661417322834646
          },
          {
            "number": 2,
            "time": 55.40667129166698,
            "value": 1
          },
          {
            "number": 2,
            "time": 55.40667129166698,
            "value": 0.8661417322834646
          },
          {
            "number": 2,
            "time": 55.40798708333365,
            "value": 1
          },
          {
            "number": 2,
            "time": 55.40798708333365,
            "value": 0.8661417322834646
          },
          {
            "number": 2,
            "time": 55.40930287500032,
            "value": 1
          },
          {
            "number": 2,
            "time": 55.40930287500032,
            "value": 0.8661417322834646
          },
          {
            "number": 2,
            "time": 55.41061866666699,
            "value": 1
          },
          {
            "number": 2,
            "time": 55.41061866666699,
            "value": 0.8661417322834646
          },
          {
            "number": 2,
            "time": 55.41193445833366,
            "value": 1
          },
          {
            "number": 2,
            "time": 55.41193445833366,
            "value": 0.8582677165354331
          },
          {
            "number": 2,
            "time": 55.41325025000033,
            "value": 1
          },
          {
            "number": 2,
            "time": 55.41325025000033,
            "value": 0.8582677165354331
          },
          {
            "number": 2,
            "time": 55.414566041667,
            "value": 1
          },
          {
            "number": 2,
            "time": 55.414566041667,
            "value": 0.8582677165354331
          },
          {
            "number": 2,
            "time": 55.41588183333367,
            "value": 1
          },
          {
            "number": 2,
            "time": 55.41588183333367,
            "value": 0.8582677165354331
          },
          {
            "number": 2,
            "time": 55.41719762500034,
            "value": 1
          },
          {
            "number": 2,
            "time": 55.41719762500034,
            "value": 0.8582677165354331
          },
          {
            "number": 2,
            "time": 55.41851341666701,
            "value": 1
          },
          {
            "number": 2,
            "time": 55.41851341666701,
            "value": 0.8582677165354331
          },
          {
            "number": 2,
            "time": 55.41982920833368,
            "value": 1
          },
          {
            "number": 2,
            "time": 55.41982920833368,
            "value": 0.8503937007874016
          },
          {
            "number": 2,
            "time": 55.42114500000035,
            "value": 1
          },
          {
            "number": 2,
            "time": 55.42114500000035,
            "value": 0.8503937007874016
          },
          {
            "number": 2,
            "time": 55.42246079166702,
            "value": 1
          },
          {
            "number": 2,
            "time": 55.42246079166702,
            "value": 0.8503937007874016
          },
          {
            "number": 2,
            "time": 55.42377658333369,
            "value": 1
          },
          {
            "number": 2,
            "time": 55.42377658333369,
            "value": 0.8503937007874016
          },
          {
            "number": 2,
            "time": 55.42509237500036,
            "value": 1
          },
          {
            "number": 2,
            "time": 55.42509237500036,
            "value": 0.8503937007874016
          },
          {
            "number": 2,
            "time": 55.42640816666703,
            "value": 1
          },
          {
            "number": 2,
            "time": 55.42640816666703,
            "value": 0.8503937007874016
          },
          {
            "number": 2,
            "time": 55.4277239583337,
            "value": 1
          },
          {
            "number": 2,
            "time": 55.4277239583337,
            "value": 0.8503937007874016
          },
          {
            "number": 2,
            "time": 55.42903975000037,
            "value": 1
          },
          {
            "number": 2,
            "time": 55.42903975000037,
            "value": 0.84251968503937
          },
          {
            "number": 2,
            "time": 55.43035554166704,
            "value": 1
          },
          {
            "number": 2,
            "time": 55.43035554166704,
            "value": 0.84251968503937
          },
          {
            "number": 2,
            "time": 55.43167133333371,
            "value": 1
          },
          {
            "number": 2,
            "time": 55.43167133333371,
            "value": 0.84251968503937
          },
          {
            "number": 2,
            "time": 55.43298712500038,
            "value": 1
          },
          {
            "number": 2,
            "time": 55.43298712500038,
            "value": 0.84251968503937
          },
          {
            "number": 2,
            "time": 55.43430291666705,
            "value": 1
          },
          {
            "number": 2,
            "time": 55.43430291666705,
            "value": 0.84251968503937
          },
          {
            "number": 2,
            "time": 55.43561870833372,
            "value": 1
          },
          {
            "number": 2,
            "time": 55.43561870833372,
            "value": 0.84251968503937
          },
          {
            "number": 2,
            "time": 55.43693450000039,
            "value": 1
          },
          {
            "number": 2,
            "time": 55.43693450000039,
            "value": 0.8346456692913385
          },
          {
            "number": 2,
            "time": 55.43825029166706,
            "value": 1
          },
          {
            "number": 2,
            "time": 55.43825029166706,
            "value": 0.8346456692913385
          },
          {
            "number": 2,
            "time": 55.43956608333373,
            "value": 1
          },
          {
            "number": 2,
            "time": 55.43956608333373,
            "value": 0.8346456692913385
          },
          {
            "number": 2,
            "time": 55.4408818750004,
            "value": 1
          },
          {
            "number": 2,
            "time": 55.4408818750004,
            "value": 0.8346456692913385
          },
          {
            "number": 2,
            "time": 55.44219766666707,
            "value": 1
          },
          {
            "number": 2,
            "time": 55.44219766666707,
            "value": 0.8346456692913385
          },
          {
            "number": 2,
            "time": 55.44351345833374,
            "value": 1
          },
          {
            "number": 2,
            "time": 55.44351345833374,
            "value": 0.8346456692913385
          },
          {
            "number": 2,
            "time": 55.44482925000041,
            "value": 1
          },
          {
            "number": 2,
            "time": 55.44482925000041,
            "value": 0.8267716535433071
          },
          {
            "number": 2,
            "time": 55.44614504166708,
            "value": 1
          },
          {
            "number": 2,
            "time": 55.44614504166708,
            "value": 0.8267716535433071
          },
          {
            "number": 2,
            "time": 55.44746083333375,
            "value": 1
          },
          {
            "number": 2,
            "time": 55.44746083333375,
            "value": 0.8267716535433071
          },
          {
            "number": 2,
            "time": 55.44877662500042,
            "value": 1
          },
          {
            "number": 2,
            "time": 55.44877662500042,
            "value": 0.8267716535433071
          },
          {
            "number": 2,
            "time": 55.45009241666709,
            "value": 1
          },
          {
            "number": 2,
            "time": 55.45009241666709,
            "value": 0.8267716535433071
          },
          {
            "number": 2,
            "time": 55.45140820833376,
            "value": 1
          },
          {
            "number": 2,
            "time": 55.45140820833376,
            "value": 0.8267716535433071
          },
          {
            "number": 2,
            "time": 55.45272400000043,
            "value": 1
          },
          {
            "number": 2,
            "time": 55.45272400000043,
            "value": 0.8188976377952756
          },
          {
            "number": 2,
            "time": 55.4540397916671,
            "value": 1
          },
          {
            "number": 2,
            "time": 55.4540397916671,
            "value": 0.8188976377952756
          },
          {
            "number": 2,
            "time": 55.45535558333377,
            "value": 1
          },
          {
            "number": 2,
            "time": 55.45535558333377,
            "value": 0.8188976377952756
          },
          {
            "number": 2,
            "time": 55.45667137500044,
            "value": 1
          },
          {
            "number": 2,
            "time": 55.45667137500044,
            "value": 0.8188976377952756
          },
          {
            "number": 2,
            "time": 55.45798716666711,
            "value": 1
          },
          {
            "number": 2,
            "time": 55.45798716666711,
            "value": 0.8188976377952756
          },
          {
            "number": 2,
            "time": 55.45930295833378,
            "value": 1
          },
          {
            "number": 2,
            "time": 55.45930295833378,
            "value": 0.8188976377952756
          },
          {
            "number": 2,
            "time": 55.46061875000045,
            "value": 1
          },
          {
            "number": 2,
            "time": 55.46061875000045,
            "value": 0.8188976377952756
          },
          {
            "number": 2,
            "time": 55.46193454166712,
            "value": 1
          },
          {
            "number": 2,
            "time": 55.46193454166712,
            "value": 0.8110236220472441
          },
          {
            "number": 2,
            "time": 55.46325033333379,
            "value": 1
          },
          {
            "number": 2,
            "time": 55.46325033333379,
            "value": 0.8110236220472441
          },
          {
            "number": 2,
            "time": 55.46456612500046,
            "value": 1
          },
          {
            "number": 2,
            "time": 55.46456612500046,
            "value": 0.8110236220472441
          },
          {
            "number": 2,
            "time": 55.46588191666713,
            "value": 1
          },
          {
            "number": 2,
            "time": 55.46588191666713,
            "value": 0.8110236220472441
          },
          {
            "number": 2,
            "time": 55.4671977083338,
            "value": 1
          },
          {
            "number": 2,
            "time": 55.4671977083338,
            "value": 0.8110236220472441
          },
          {
            "number": 2,
            "time": 55.46851350000047,
            "value": 1
          },
          {
            "number": 2,
            "time": 55.46851350000047,
            "value": 0.8110236220472441
          },
          {
            "number": 2,
            "time": 55.46982929166714,
            "value": 1
          },
          {
            "number": 2,
            "time": 55.46982929166714,
            "value": 0.8031496062992126
          },
          {
            "number": 2,
            "time": 55.47114508333381,
            "value": 1
          },
          {
            "number": 2,
            "time": 55.47114508333381,
            "value": 0.8031496062992126
          },
          {
            "number": 2,
            "time": 55.47246087500048,
            "value": 1
          },
          {
            "number": 2,
            "time": 55.47246087500048,
            "value": 0.8031496062992126
          },
          {
            "number": 2,
            "time": 55.47377666666715,
            "value": 1
          },
          {
            "number": 2,
            "time": 55.47377666666715,
            "value": 0.8031496062992126
          },
          {
            "number": 2,
            "time": 55.47772404166715,
            "value": 0.7952755905511811
          },
          {
            "number": 2,
            "time": 55.48561879166715,
            "value": 0.7874015748031497
          },
          {
            "number": 2,
            "time": 55.49482933333382,
            "value": 0.7795275590551181
          },
          {
            "number": 2,
            "time": 55.50272408333382,
            "value": 0.7716535433070866
          },
          {
            "number": 2,
            "time": 55.510618833333815,
            "value": 0.7637795275590551
          },
          {
            "number": 2,
            "time": 55.518513583333814,
            "value": 0.7559055118110236
          },
          {
            "number": 2,
            "time": 55.57904000000048,
            "value": 0.905511811023622
          },
          {
            "number": 2,
            "time": 55.581671583333815,
            "value": 0.8976377952755905
          },
          {
            "number": 2,
            "time": 55.582987375000485,
            "value": 0.8976377952755905
          },
          {
            "number": 2,
            "time": 55.58956633333382,
            "value": 0.889763779527559
          },
          {
            "number": 2,
            "time": 55.59746108333382,
            "value": 0.8818897637795275
          },
          {
            "number": 2,
            "time": 55.60667162500049,
            "value": 0.8740157480314961
          },
          {
            "number": 2,
            "time": 55.614566375000486,
            "value": 0.8661417322834646
          },
          {
            "number": 2,
            "time": 55.622461125000484,
            "value": 0.8582677165354331
          },
          {
            "number": 2,
            "time": 55.63035587500048,
            "value": 0.8503937007874016
          },
          {
            "number": 2,
            "time": 55.63956641666715,
            "value": 0.84251968503937
          },
          {
            "number": 2,
            "time": 55.64746116666715,
            "value": 0.8346456692913385
          },
          {
            "number": 2,
            "time": 55.65535591666715,
            "value": 0.8267716535433071
          },
          {
            "number": 2,
            "time": 55.663250666667146,
            "value": 0.8188976377952756
          },
          {
            "number": 2,
            "time": 55.672461208333814,
            "value": 0.8110236220472441
          },
          {
            "number": 2,
            "time": 55.68035595833381,
            "value": 0.8031496062992126
          },
          {
            "number": 2,
            "time": 55.68825070833381,
            "value": 0.7952755905511811
          },
          {
            "number": 2,
            "time": 55.69614545833381,
            "value": 0.7874015748031497
          },
          {
            "number": 2,
            "time": 55.70535600000048,
            "value": 0.7795275590551181
          },
          {
            "number": 2,
            "time": 55.713250750000476,
            "value": 0.7716535433070866
          },
          {
            "number": 2,
            "time": 55.721145500000475,
            "value": 0.7637795275590551
          },
          {
            "number": 2,
            "time": 55.72904025000047,
            "value": 0.7559055118110236
          },
          {
            "number": 2,
            "time": 55.81588250000047,
            "value": 0.7637795275590551
          },
          {
            "number": 2,
            "time": 56.05272500000047,
            "value": 0.7716535433070866
          },
          {
            "number": 2,
            "time": 56.28956750000047,
            "value": 0.7795275590551181
          },
          {
            "number": 2,
            "time": 56.526410000000475,
            "value": 0.7874015748031497
          },
          {
            "number": 2,
            "time": 56.763252500000476,
            "value": 0.7952755905511811
          },
          {
            "number": 2,
            "time": 57.00009500000048,
            "value": 0.8031496062992126
          },
          {
            "number": 2,
            "time": 57.23693750000048,
            "value": 0.8110236220472441
          },
          {
            "number": 2,
            "time": 57.47378000000048,
            "value": 0.8188976377952756
          },
          {
            "number": 2,
            "time": 57.47378000000048,
            "value": 0.9763779527559056
          },
          {
            "number": 2,
            "time": 57.48035895833382,
            "value": 0.968503937007874
          },
          {
            "number": 2,
            "time": 57.488253708333815,
            "value": 0.9606299212598425
          },
          {
            "number": 2,
            "time": 57.49614845833381,
            "value": 0.952755905511811
          },
          {
            "number": 2,
            "time": 57.50272741666715,
            "value": 0.9448818897637795
          },
          {
            "number": 2,
            "time": 57.51062216666715,
            "value": 0.937007874015748
          },
          {
            "number": 2,
            "time": 57.518516916667146,
            "value": 0.9291338582677166
          },
          {
            "number": 2,
            "time": 57.526411666667144,
            "value": 0.9212598425196851
          },
          {
            "number": 2,
            "time": 57.53430641666714,
            "value": 0.9133858267716536
          },
          {
            "number": 2,
            "time": 57.54088537500048,
            "value": 0.905511811023622
          },
          {
            "number": 2,
            "time": 57.54878012500048,
            "value": 0.8976377952755905
          },
          {
            "number": 2,
            "time": 57.556674875000475,
            "value": 0.889763779527559
          },
          {
            "number": 2,
            "time": 57.56456962500047,
            "value": 0.8818897637795275
          },
          {
            "number": 2,
            "time": 57.57114858333381,
            "value": 0.8740157480314961
          },
          {
            "number": 2,
            "time": 57.57904333333381,
            "value": 0.8661417322834646
          },
          {
            "number": 2,
            "time": 57.586938083333806,
            "value": 0.8582677165354331
          },
          {
            "number": 2,
            "time": 57.594832833333804,
            "value": 0.8503937007874016
          },
          {
            "number": 2,
            "time": 57.60141179166714,
            "value": 0.84251968503937
          },
          {
            "number": 2,
            "time": 57.60930654166714,
            "value": 0.8346456692913385
          },
          {
            "number": 2,
            "time": 57.617201291667136,
            "value": 0.8267716535433071
          },
          {
            "number": 2,
            "time": 57.625096041667135,
            "value": 0.8188976377952756
          },
          {
            "number": 2,
            "time": 57.71062250000047,
            "value": 0.8267716535433071
          },
          {
            "number": 2,
            "time": 57.94746500000047,
            "value": 0.8346456692913385
          },
          {
            "number": 2,
            "time": 58.18430750000047,
            "value": 0.84251968503937
          },
          {
            "number": 2,
            "time": 58.42115000000047,
            "value": 0.8503937007874016
          },
          {
            "number": 2,
            "time": 58.657992500000475,
            "value": 0.8582677165354331
          },
          {
            "number": 2,
            "time": 58.89483500000048,
            "value": 0.8661417322834646
          },
          {
            "number": 2,
            "time": 59.13167750000048,
            "value": 0.8740157480314961
          },
          {
            "number": 2,
            "time": 61.26326000000048,
            "value": 0.8818897637795275
          },
          {
            "number": 2,
            "time": 61.57905000000048,
            "value": 0.8818897637795275
          },
          {
            "number": 2,
            "time": 65.05274000000047,
            "value": 0.8818897637795275
          },
          {
            "number": 2,
            "time": 65.36853000000048,
            "value": 0.8818897637795275
          },
          {
            "number": 2,
            "time": 67.26327000000049,
            "value": 0.8818897637795275
          },
          {
            "number": 2,
            "time": 69.1580100000005,
            "value": 0.8818897637795275
          },
          {
            "number": 2,
            "time": 72.6317000000005,
            "value": 0.8818897637795275
          },
          {
            "number": 2,
            "time": 73.57907000000051,
            "value": 0.8818897637795275
          },
          {
            "number": 2,
            "time": 74.84223000000051,
            "value": 0.8818897637795275
          },
          {
            "number": 2,
            "time": 76.42118000000052,
            "value": 0.6299212598425197
          },
          {
            "number": 2,
            "time": 76.73697000000053,
            "value": 0.6299212598425197
          },
          {
            "number": 2,
            "time": 89.05278000000061,
            "value": 0.25984251968503935
          }
        ],
        "7": [
          {
            "number": 7,
            "time": 0,
            "value": 0.8503937007874016
          }
        ],
        "10": [
          {
            "number": 10,
            "time": 0,
            "value": 0.5039370078740157
          }
        ],
        "91": [
          {
            "number": 91,
            "time": 0,
            "value": 1
          }
        ],
        "93": [
          {
            "number": 93,
            "time": 0,
            "value": 0
          }
        ],
        "121": [
          {
            "number": 121,
            "time": 0,
            "value": 0
          }
        ]
      },
      "id": 0,
      "name": "Dwarsfluit",
      "instrumentNumber": 73,
      "instrument": "flute",
      "instrumentFamily": "pipe",
      "channelNumber": 0,
      "isPercussion": false
    },
    {
      "startTime": 0,
      "duration": 90.9448884166668,
      "length": 263,
      "notes": [
        {
          "name": "D#6",
          "midi": 87,
          "time": 0,
          "velocity": 0.25984251968503935,
          "duration": 0.14868445833333332
        },
        {
          "name": "G6",
          "midi": 91,
          "time": 0,
          "velocity": 0.25984251968503935,
          "duration": 0.14868445833333332
        },
        {
          "name": "C6",
          "midi": 84,
          "time": 0.15789499999999998,
          "velocity": 0.25984251968503935,
          "duration": 0.14868445833333335
        },
        {
          "name": "F6",
          "midi": 89,
          "time": 0.15789499999999998,
          "velocity": 0.25984251968503935,
          "duration": 0.14868445833333335
        },
        {
          "name": "D#6",
          "midi": 87,
          "time": 0.31579,
          "velocity": 0.25984251968503935,
          "duration": 0.14868445833333332
        },
        {
          "name": "G6",
          "midi": 91,
          "time": 0.31579,
          "velocity": 0.25984251968503935,
          "duration": 0.14868445833333332
        },
        {
          "name": "C6",
          "midi": 84,
          "time": 0.473685,
          "velocity": 0.25984251968503935,
          "duration": 0.14868445833333332
        },
        {
          "name": "F6",
          "midi": 89,
          "time": 0.473685,
          "velocity": 0.25984251968503935,
          "duration": 0.14868445833333332
        },
        {
          "name": "D#6",
          "midi": 87,
          "time": 0.63158,
          "velocity": 0.2677165354330709,
          "duration": 0.14868445833333332
        },
        {
          "name": "G6",
          "midi": 91,
          "time": 0.63158,
          "velocity": 0.2677165354330709,
          "duration": 0.14868445833333332
        },
        {
          "name": "C6",
          "midi": 84,
          "time": 0.789475,
          "velocity": 0.2755905511811024,
          "duration": 0.14868445833333332
        },
        {
          "name": "F6",
          "midi": 89,
          "time": 0.789475,
          "velocity": 0.2755905511811024,
          "duration": 0.14868445833333332
        },
        {
          "name": "D#6",
          "midi": 87,
          "time": 0.94737,
          "velocity": 0.29133858267716534,
          "duration": 0.14868445833333332
        },
        {
          "name": "G6",
          "midi": 91,
          "time": 0.94737,
          "velocity": 0.29133858267716534,
          "duration": 0.14868445833333332
        },
        {
          "name": "C6",
          "midi": 84,
          "time": 1.105265,
          "velocity": 0.2992125984251969,
          "duration": 0.14868445833333332
        },
        {
          "name": "F6",
          "midi": 89,
          "time": 1.105265,
          "velocity": 0.2992125984251969,
          "duration": 0.14868445833333332
        },
        {
          "name": "D#6",
          "midi": 87,
          "time": 1.2631599999999998,
          "velocity": 0.31496062992125984,
          "duration": 0.14868445833333332
        },
        {
          "name": "G6",
          "midi": 91,
          "time": 1.2631599999999998,
          "velocity": 0.31496062992125984,
          "duration": 0.14868445833333332
        },
        {
          "name": "C6",
          "midi": 84,
          "time": 1.4210549999999997,
          "velocity": 0.3228346456692913,
          "duration": 0.14868445833333332
        },
        {
          "name": "F6",
          "midi": 89,
          "time": 1.4210549999999997,
          "velocity": 0.3228346456692913,
          "duration": 0.14868445833333332
        },
        {
          "name": "D#6",
          "midi": 87,
          "time": 1.5789499999999996,
          "velocity": 0.33858267716535434,
          "duration": 0.14868445833333332
        },
        {
          "name": "G6",
          "midi": 91,
          "time": 1.5789499999999996,
          "velocity": 0.33858267716535434,
          "duration": 0.14868445833333332
        },
        {
          "name": "A#6",
          "midi": 94,
          "time": 1.5789499999999996,
          "velocity": 0.33858267716535434,
          "duration": 0.14868445833333332
        },
        {
          "name": "C6",
          "midi": 84,
          "time": 1.7368449999999995,
          "velocity": 0.3464566929133858,
          "duration": 0.14868445833333332
        },
        {
          "name": "F6",
          "midi": 89,
          "time": 1.7368449999999995,
          "velocity": 0.3464566929133858,
          "duration": 0.14868445833333332
        },
        {
          "name": "G#6",
          "midi": 92,
          "time": 1.7368449999999995,
          "velocity": 0.3464566929133858,
          "duration": 0.14868445833333332
        },
        {
          "name": "D#6",
          "midi": 87,
          "time": 1.8947399999999994,
          "velocity": 0.36220472440944884,
          "duration": 0.14868445833333355
        },
        {
          "name": "G6",
          "midi": 91,
          "time": 1.8947399999999994,
          "velocity": 0.36220472440944884,
          "duration": 0.14868445833333355
        },
        {
          "name": "A#6",
          "midi": 94,
          "time": 1.8947399999999994,
          "velocity": 0.36220472440944884,
          "duration": 0.14868445833333355
        },
        {
          "name": "C6",
          "midi": 84,
          "time": 2.0526349999999995,
          "velocity": 0.3700787401574803,
          "duration": 0.14868445833333332
        },
        {
          "name": "F6",
          "midi": 89,
          "time": 2.0526349999999995,
          "velocity": 0.3700787401574803,
          "duration": 0.14868445833333332
        },
        {
          "name": "G#6",
          "midi": 92,
          "time": 2.0526349999999995,
          "velocity": 0.3700787401574803,
          "duration": 0.14868445833333332
        },
        {
          "name": "D#6",
          "midi": 87,
          "time": 2.2105299999999994,
          "velocity": 0.3858267716535433,
          "duration": 0.14868445833333332
        },
        {
          "name": "G6",
          "midi": 91,
          "time": 2.2105299999999994,
          "velocity": 0.3858267716535433,
          "duration": 0.14868445833333332
        },
        {
          "name": "A#6",
          "midi": 94,
          "time": 2.2105299999999994,
          "velocity": 0.3858267716535433,
          "duration": 0.14868445833333332
        },
        {
          "name": "C6",
          "midi": 84,
          "time": 2.3684249999999993,
          "velocity": 0.3937007874015748,
          "duration": 0.14868445833333332
        },
        {
          "name": "F6",
          "midi": 89,
          "time": 2.3684249999999993,
          "velocity": 0.3937007874015748,
          "duration": 0.14868445833333332
        },
        {
          "name": "G#6",
          "midi": 92,
          "time": 2.3684249999999993,
          "velocity": 0.3937007874015748,
          "duration": 0.14868445833333332
        },
        {
          "name": "D#6",
          "midi": 87,
          "time": 2.5263199999999992,
          "velocity": 0.4094488188976378,
          "duration": 0.14868445833333332
        },
        {
          "name": "G6",
          "midi": 91,
          "time": 2.5263199999999992,
          "velocity": 0.4094488188976378,
          "duration": 0.14868445833333332
        },
        {
          "name": "A#6",
          "midi": 94,
          "time": 2.5263199999999992,
          "velocity": 0.4094488188976378,
          "duration": 0.14868445833333332
        },
        {
          "name": "C6",
          "midi": 84,
          "time": 2.684214999999999,
          "velocity": 0.41732283464566927,
          "duration": 0.14868445833333332
        },
        {
          "name": "F6",
          "midi": 89,
          "time": 2.684214999999999,
          "velocity": 0.41732283464566927,
          "duration": 0.14868445833333332
        },
        {
          "name": "G#6",
          "midi": 92,
          "time": 2.684214999999999,
          "velocity": 0.41732283464566927,
          "duration": 0.14868445833333332
        },
        {
          "name": "D#6",
          "midi": 87,
          "time": 2.842109999999999,
          "velocity": 0.4330708661417323,
          "duration": 0.14868445833333332
        },
        {
          "name": "G6",
          "midi": 91,
          "time": 2.842109999999999,
          "velocity": 0.4330708661417323,
          "duration": 0.14868445833333332
        },
        {
          "name": "A#6",
          "midi": 94,
          "time": 2.842109999999999,
          "velocity": 0.4330708661417323,
          "duration": 0.14868445833333332
        },
        {
          "name": "C6",
          "midi": 84,
          "time": 3.000004999999999,
          "velocity": 0.4409448818897638,
          "duration": 0.14868445833333332
        },
        {
          "name": "F6",
          "midi": 89,
          "time": 3.000004999999999,
          "velocity": 0.4409448818897638,
          "duration": 0.14868445833333332
        },
        {
          "name": "G#6",
          "midi": 92,
          "time": 3.000004999999999,
          "velocity": 0.4409448818897638,
          "duration": 0.14868445833333332
        },
        {
          "name": "D#6",
          "midi": 87,
          "time": 3.157899999999999,
          "velocity": 0.4566929133858268,
          "duration": 0.14868445833333332
        },
        {
          "name": "G6",
          "midi": 91,
          "time": 3.157899999999999,
          "velocity": 0.4566929133858268,
          "duration": 0.14868445833333332
        },
        {
          "name": "A#6",
          "midi": 94,
          "time": 3.157899999999999,
          "velocity": 0.4566929133858268,
          "duration": 0.14868445833333332
        },
        {
          "name": "C6",
          "midi": 84,
          "time": 3.3157949999999987,
          "velocity": 0.4645669291338583,
          "duration": 0.14868445833333332
        },
        {
          "name": "F6",
          "midi": 89,
          "time": 3.3157949999999987,
          "velocity": 0.4645669291338583,
          "duration": 0.14868445833333332
        },
        {
          "name": "G#6",
          "midi": 92,
          "time": 3.3157949999999987,
          "velocity": 0.4645669291338583,
          "duration": 0.14868445833333332
        },
        {
          "name": "D#6",
          "midi": 87,
          "time": 3.4736899999999986,
          "velocity": 0.48031496062992124,
          "duration": 0.14868445833333332
        },
        {
          "name": "G6",
          "midi": 91,
          "time": 3.4736899999999986,
          "velocity": 0.48031496062992124,
          "duration": 0.14868445833333332
        },
        {
          "name": "A#6",
          "midi": 94,
          "time": 3.4736899999999986,
          "velocity": 0.48031496062992124,
          "duration": 0.14868445833333332
        },
        {
          "name": "C6",
          "midi": 84,
          "time": 3.6315849999999985,
          "velocity": 0.4881889763779528,
          "duration": 0.14868445833333332
        },
        {
          "name": "F6",
          "midi": 89,
          "time": 3.6315849999999985,
          "velocity": 0.4881889763779528,
          "duration": 0.14868445833333332
        },
        {
          "name": "G#6",
          "midi": 92,
          "time": 3.6315849999999985,
          "velocity": 0.4881889763779528,
          "duration": 0.14868445833333332
        },
        {
          "name": "C5",
          "midi": 72,
          "time": 3.7894799999999984,
          "velocity": 0.5039370078740157,
          "duration": 0.9460542083333339
        },
        {
          "name": "G5",
          "midi": 79,
          "time": 3.8539537916666653,
          "velocity": 0.5039370078740157,
          "duration": 0.8802646250000006
        },
        {
          "name": "C6",
          "midi": 84,
          "time": 3.9210591666666654,
          "velocity": 0.5039370078740157,
          "duration": 0.8131592500000004
        },
        {
          "name": "F5",
          "midi": 77,
          "time": 4.736849999999999,
          "velocity": 0.5039370078740157,
          "duration": 0.3144742083333334
        },
        {
          "name": "A#5",
          "midi": 82,
          "time": 4.736849999999999,
          "velocity": 0.5039370078740157,
          "duration": 0.3144742083333334
        },
        {
          "name": "D6",
          "midi": 86,
          "time": 4.736849999999999,
          "velocity": 0.5039370078740157,
          "duration": 0.3144742083333334
        },
        {
          "name": "G5",
          "midi": 79,
          "time": 5.0526399999999985,
          "velocity": 0.5039370078740157,
          "duration": 0.6302642083333332
        },
        {
          "name": "C6",
          "midi": 84,
          "time": 5.0526399999999985,
          "velocity": 0.5039370078740157,
          "duration": 0.6302642083333332
        },
        {
          "name": "D#6",
          "midi": 87,
          "time": 5.0526399999999985,
          "velocity": 0.5039370078740157,
          "duration": 0.6302642083333332
        },
        {
          "name": "F5",
          "midi": 77,
          "time": 5.684219999999998,
          "velocity": 0.5039370078740157,
          "duration": 0.6302642083333332
        },
        {
          "name": "G#5",
          "midi": 80,
          "time": 5.684219999999998,
          "velocity": 0.5039370078740157,
          "duration": 0.6302642083333332
        },
        {
          "name": "C6",
          "midi": 84,
          "time": 5.684219999999998,
          "velocity": 0.5039370078740157,
          "duration": 0.6302642083333332
        },
        {
          "name": "C5",
          "midi": 72,
          "time": 6.315799999999998,
          "velocity": 0.5039370078740157,
          "duration": 0.6302642083333332
        },
        {
          "name": "F5",
          "midi": 77,
          "time": 6.315799999999998,
          "velocity": 0.5039370078740157,
          "duration": 0.6302642083333332
        },
        {
          "name": "A#5",
          "midi": 82,
          "time": 6.315799999999998,
          "velocity": 0.5039370078740157,
          "duration": 0.6302642083333332
        },
        {
          "name": "C5",
          "midi": 72,
          "time": 6.947379999999997,
          "velocity": 0.5039370078740157,
          "duration": 0.680264291666667
        },
        {
          "name": "F5",
          "midi": 77,
          "time": 6.947379999999997,
          "velocity": 0.5039370078740157,
          "duration": 1.8934242083333341
        },
        {
          "name": "G#5",
          "midi": 80,
          "time": 6.947379999999997,
          "velocity": 0.5039370078740157,
          "duration": 1.8934242083333341
        },
        {
          "name": "G5",
          "midi": 79,
          "time": 8.842119999999998,
          "velocity": 0.5039370078740157,
          "duration": 0.6302642083333332
        },
        {
          "name": "F5",
          "midi": 77,
          "time": 9.473699999999997,
          "velocity": 0.5039370078740157,
          "duration": 2.9986892083333334
        },
        {
          "name": "C5",
          "midi": 72,
          "time": 12.631599999999997,
          "velocity": 0.5039370078740157,
          "duration": 0.946054208333333
        },
        {
          "name": "G#5",
          "midi": 80,
          "time": 12.696073791666663,
          "velocity": 0.5039370078740157,
          "duration": 0.8802646250000006
        },
        {
          "name": "C6",
          "midi": 84,
          "time": 12.763179166666664,
          "velocity": 0.5039370078740157,
          "duration": 0.81315925
        },
        {
          "name": "F5",
          "midi": 77,
          "time": 13.578969999999996,
          "velocity": 0.5039370078740157,
          "duration": 0.3144742083333334
        },
        {
          "name": "G#5",
          "midi": 80,
          "time": 13.578969999999996,
          "velocity": 0.5039370078740157,
          "duration": 0.3144742083333334
        },
        {
          "name": "C#6",
          "midi": 85,
          "time": 13.578969999999996,
          "velocity": 0.5039370078740157,
          "duration": 0.3144742083333334
        },
        {
          "name": "F5",
          "midi": 77,
          "time": 13.894759999999996,
          "velocity": 0.5039370078740157,
          "duration": 0.6302642083333332
        },
        {
          "name": "A#5",
          "midi": 82,
          "time": 13.894759999999996,
          "velocity": 0.5039370078740157,
          "duration": 0.6302642083333332
        },
        {
          "name": "D#6",
          "midi": 87,
          "time": 13.894759999999996,
          "velocity": 0.5039370078740157,
          "duration": 0.6302642083333332
        },
        {
          "name": "C5",
          "midi": 72,
          "time": 14.526339999999996,
          "velocity": 0.5039370078740157,
          "duration": 0.6302642083333332
        },
        {
          "name": "G5",
          "midi": 79,
          "time": 14.526339999999996,
          "velocity": 0.5039370078740157,
          "duration": 0.6302642083333332
        },
        {
          "name": "C6",
          "midi": 84,
          "time": 14.526339999999996,
          "velocity": 0.5039370078740157,
          "duration": 0.6302642083333332
        },
        {
          "name": "A#4",
          "midi": 70,
          "time": 15.157919999999995,
          "velocity": 0.5039370078740157,
          "duration": 0.6302642083333332
        },
        {
          "name": "F5",
          "midi": 77,
          "time": 15.157919999999995,
          "velocity": 0.5039370078740157,
          "duration": 0.6302642083333332
        },
        {
          "name": "A#5",
          "midi": 82,
          "time": 15.157919999999995,
          "velocity": 0.5039370078740157,
          "duration": 0.6302642083333332
        },
        {
          "name": "G#4",
          "midi": 68,
          "time": 15.789499999999995,
          "velocity": 0.5039370078740157,
          "duration": 0.630264208333335
        },
        {
          "name": "D#5",
          "midi": 75,
          "time": 15.789499999999995,
          "velocity": 0.5039370078740157,
          "duration": 0.630264208333335
        },
        {
          "name": "G#5",
          "midi": 80,
          "time": 15.789499999999995,
          "velocity": 0.5039370078740157,
          "duration": 0.630264208333335
        },
        {
          "name": "A#4",
          "midi": 70,
          "time": 16.421079999999996,
          "velocity": 0.5039370078740157,
          "duration": 1.2618442083333328
        },
        {
          "name": "A#5",
          "midi": 82,
          "time": 16.421079999999996,
          "velocity": 0.5039370078740157,
          "duration": 1.2618442083333328
        },
        {
          "name": "C5",
          "midi": 72,
          "time": 17.684239999999996,
          "velocity": 0.5039370078740157,
          "duration": 2.3986882083333327
        },
        {
          "name": "C6",
          "midi": 84,
          "time": 17.684239999999996,
          "velocity": 0.5039370078740157,
          "duration": 2.3986882083333327
        },
        {
          "name": "E3",
          "midi": 52,
          "time": 21.473719999999997,
          "velocity": 0.5039370078740157,
          "duration": 0.3144742083333334
        },
        {
          "name": "B3",
          "midi": 59,
          "time": 21.789509999999996,
          "velocity": 0.5039370078740157,
          "duration": 0.3144742083333334
        },
        {
          "name": "D#4",
          "midi": 63,
          "time": 22.105299999999996,
          "velocity": 0.5039370078740157,
          "duration": 0.3144742083333334
        },
        {
          "name": "A#4",
          "midi": 70,
          "time": 22.421089999999996,
          "velocity": 0.5039370078740157,
          "duration": 0.3144742083333334
        },
        {
          "name": "G#4",
          "midi": 68,
          "time": 22.736879999999996,
          "velocity": 0.5039370078740157,
          "duration": 0.3144742083333334
        },
        {
          "name": "D#5",
          "midi": 75,
          "time": 23.052669999999996,
          "velocity": 0.5039370078740157,
          "duration": 0.29868470833333305
        },
        {
          "name": "E3",
          "midi": 52,
          "time": 23.368459999999995,
          "velocity": 0.5039370078740157,
          "duration": 0.3144742083333334
        },
        {
          "name": "C#4",
          "midi": 61,
          "time": 23.684249999999995,
          "velocity": 0.5039370078740157,
          "duration": 0.3144742083333334
        },
        {
          "name": "F#4",
          "midi": 66,
          "time": 24.000039999999995,
          "velocity": 0.5039370078740157,
          "duration": 0.3144742083333334
        },
        {
          "name": "D#5",
          "midi": 75,
          "time": 24.315829999999995,
          "velocity": 0.5039370078740157,
          "duration": 0.3144742083333334
        },
        {
          "name": "C#5",
          "midi": 73,
          "time": 24.631619999999995,
          "velocity": 0.5039370078740157,
          "duration": 0.3144742083333334
        },
        {
          "name": "G#5",
          "midi": 80,
          "time": 24.947409999999994,
          "velocity": 0.5039370078740157,
          "duration": 0.29868470833333305
        },
        {
          "name": "D#3",
          "midi": 51,
          "time": 25.263199999999994,
          "velocity": 0.5039370078740157,
          "duration": 0.3144742083333334
        },
        {
          "name": "C#4",
          "midi": 61,
          "time": 25.578989999999994,
          "velocity": 0.5039370078740157,
          "duration": 0.3144742083333334
        },
        {
          "name": "F#4",
          "midi": 66,
          "time": 25.894779999999994,
          "velocity": 0.5039370078740157,
          "duration": 0.3144742083333334
        },
        {
          "name": "A#5",
          "midi": 82,
          "time": 26.210569999999993,
          "velocity": 0.5039370078740157,
          "duration": 0.898685708333332
        },
        {
          "name": "G#5",
          "midi": 80,
          "time": 27.157939999999993,
          "velocity": 0.5039370078740157,
          "duration": 0.3144742083333334
        },
        {
          "name": "F#5",
          "midi": 78,
          "time": 27.473729999999993,
          "velocity": 0.5039370078740157,
          "duration": 0.3144742083333334
        },
        {
          "name": "D#5",
          "midi": 75,
          "time": 27.789519999999992,
          "velocity": 0.5039370078740157,
          "duration": 0.3144742083333334
        },
        {
          "name": "A#4",
          "midi": 70,
          "time": 28.105309999999992,
          "velocity": 0.5039370078740157,
          "duration": 0.3144742083333334
        },
        {
          "name": "G#4",
          "midi": 68,
          "time": 28.421099999999992,
          "velocity": 0.5039370078740157,
          "duration": 0.3144742083333334
        },
        {
          "name": "F4",
          "midi": 65,
          "time": 28.736889999999992,
          "velocity": 0.5039370078740157,
          "duration": 0.29868470833333305
        },
        {
          "name": "D#4",
          "midi": 63,
          "time": 29.05267999999999,
          "velocity": 0.5039370078740157,
          "duration": 0.1315791666666648
        },
        {
          "name": "G#3",
          "midi": 56,
          "time": 30.31583999999999,
          "velocity": 0.6299212598425197,
          "duration": 1.4986867083333344
        },
        {
          "name": "F4",
          "midi": 65,
          "time": 30.63162999999999,
          "velocity": 0.6299212598425197,
          "duration": 0.29868470833333305
        },
        {
          "name": "D#4",
          "midi": 63,
          "time": 30.94741999999999,
          "velocity": 0.6299212598425197,
          "duration": 1.1986862083333314
        },
        {
          "name": "G#3",
          "midi": 56,
          "time": 32.210579999999986,
          "velocity": 0.7559055118110236,
          "duration": 0.29868470833333305
        },
        {
          "name": "F4",
          "midi": 65,
          "time": 32.526369999999986,
          "velocity": 0.7559055118110236,
          "duration": 0.598685208333336
        },
        {
          "name": "F#3",
          "midi": 54,
          "time": 32.842159999999986,
          "velocity": 0.7559055118110236,
          "duration": 3.5986902083333305
        },
        {
          "name": "G#3",
          "midi": 56,
          "time": 32.842159999999986,
          "velocity": 0.7559055118110236,
          "duration": 3.5986902083333305
        },
        {
          "name": "C#4",
          "midi": 61,
          "time": 32.842159999999986,
          "velocity": 0.7559055118110236,
          "duration": 3.5986902083333305
        },
        {
          "name": "D#4",
          "midi": 63,
          "time": 33.157949999999985,
          "velocity": 0.7559055118110236,
          "duration": 1.4986867083333308
        },
        {
          "name": "B4",
          "midi": 71,
          "time": 36.63163999999998,
          "velocity": 0.6299212598425197,
          "duration": 1.893424208333336
        },
        {
          "name": "E5",
          "midi": 76,
          "time": 36.70269274999998,
          "velocity": 0.6299212598425197,
          "duration": 1.8210556666666662
        },
        {
          "name": "B5",
          "midi": 83,
          "time": 36.77506129166665,
          "velocity": 0.6299212598425197,
          "duration": 1.7486871249999965
        },
        {
          "name": "E5",
          "midi": 76,
          "time": 38.52637999999999,
          "velocity": 0.6299212598425197,
          "duration": 0.598685208333336
        },
        {
          "name": "A5",
          "midi": 81,
          "time": 38.52637999999999,
          "velocity": 0.6299212598425197,
          "duration": 0.598685208333336
        },
        {
          "name": "D5",
          "midi": 74,
          "time": 39.15795999999999,
          "velocity": 0.6299212598425197,
          "duration": 0.598685208333336
        },
        {
          "name": "F#5",
          "midi": 78,
          "time": 39.15795999999999,
          "velocity": 0.6299212598425197,
          "duration": 0.598685208333336
        },
        {
          "name": "C5",
          "midi": 72,
          "time": 39.78953999999999,
          "velocity": 0.6299212598425197,
          "duration": 0.598685208333336
        },
        {
          "name": "E5",
          "midi": 76,
          "time": 39.78953999999999,
          "velocity": 0.6299212598425197,
          "duration": 0.598685208333336
        },
        {
          "name": "D5",
          "midi": 74,
          "time": 40.42111999999999,
          "velocity": 0.6299212598425197,
          "duration": 1.198686208333335
        },
        {
          "name": "E5",
          "midi": 76,
          "time": 41.68427999999999,
          "velocity": 0.6299212598425197,
          "duration": 0.598685208333336
        },
        {
          "name": "D5",
          "midi": 74,
          "time": 42.31585999999999,
          "velocity": 0.6299212598425197,
          "duration": 0.6302642083333367
        },
        {
          "name": "E5",
          "midi": 76,
          "time": 42.31585999999999,
          "velocity": 0.6299212598425197,
          "duration": 0.6302642083333367
        },
        {
          "name": "G5",
          "midi": 79,
          "time": 42.31585999999999,
          "velocity": 0.6299212598425197,
          "duration": 0.6302642083333367
        },
        {
          "name": "D6",
          "midi": 86,
          "time": 42.31585999999999,
          "velocity": 0.6299212598425197,
          "duration": 0.6302642083333367
        },
        {
          "name": "C5",
          "midi": 72,
          "time": 42.94743999999999,
          "velocity": 0.6299212598425197,
          "duration": 1.198686208333335
        },
        {
          "name": "C6",
          "midi": 84,
          "time": 42.94743999999999,
          "velocity": 0.6299212598425197,
          "duration": 1.198686208333335
        },
        {
          "name": "C#4",
          "midi": 61,
          "time": 44.21059999999999,
          "velocity": 0.5039370078740157,
          "duration": 1.2631599999999992
        },
        {
          "name": "F#4",
          "midi": 66,
          "time": 44.21059999999999,
          "velocity": 0.5039370078740157,
          "duration": 1.7986872083333338
        },
        {
          "name": "C#4",
          "midi": 61,
          "time": 46.10533999999999,
          "velocity": 0.5039370078740157,
          "duration": 0.898685708333332
        },
        {
          "name": "G#4",
          "midi": 68,
          "time": 46.10533999999999,
          "velocity": 0.5039370078740157,
          "duration": 0.898685708333332
        },
        {
          "name": "F#4",
          "midi": 66,
          "time": 47.05270999999999,
          "velocity": 0.5039370078740157,
          "duration": 0.29868470833333305
        },
        {
          "name": "G#4",
          "midi": 68,
          "time": 47.36849999999999,
          "velocity": 0.5039370078740157,
          "duration": 0.29868470833333305
        },
        {
          "name": "C#5",
          "midi": 73,
          "time": 47.68428999999999,
          "velocity": 0.5039370078740157,
          "duration": 0.29868470833333305
        },
        {
          "name": "D#5",
          "midi": 75,
          "time": 48.00007999999999,
          "velocity": 0.5039370078740157,
          "duration": 0.19868454166666538
        },
        {
          "name": "G#4",
          "midi": 68,
          "time": 48.210606666666656,
          "velocity": 0.5118110236220472,
          "duration": 0.19868454166666538
        },
        {
          "name": "A#4",
          "midi": 70,
          "time": 48.42113333333332,
          "velocity": 0.5275590551181102,
          "duration": 0.19868454166666538
        },
        {
          "name": "C#5",
          "midi": 73,
          "time": 48.63165999999999,
          "velocity": 0.5433070866141733,
          "duration": 0.598685208333336
        },
        {
          "name": "F5",
          "midi": 77,
          "time": 49.26323999999999,
          "velocity": 0.5826771653543307,
          "duration": 0.598685208333336
        },
        {
          "name": "C5",
          "midi": 72,
          "time": 49.89481999999999,
          "velocity": 0.6299212598425197,
          "duration": 1.7986872083333338
        },
        {
          "name": "D#5",
          "midi": 75,
          "time": 49.89481999999999,
          "velocity": 0.6299212598425197,
          "duration": 1.7986872083333338
        },
        {
          "name": "F#5",
          "midi": 78,
          "time": 49.89481999999999,
          "velocity": 0.6299212598425197,
          "duration": 1.7986872083333338
        },
        {
          "name": "D5",
          "midi": 74,
          "time": 51.78955999999999,
          "velocity": 0.7559055118110236,
          "duration": 2.9986892083333316
        },
        {
          "name": "F5",
          "midi": 77,
          "time": 51.78955999999999,
          "velocity": 0.7559055118110236,
          "duration": 2.9986892083333316
        },
        {
          "name": "G#5",
          "midi": 80,
          "time": 51.78955999999999,
          "velocity": 0.7559055118110236,
          "duration": 2.9986892083333316
        },
        {
          "name": "F#4",
          "midi": 66,
          "time": 54.947459999999985,
          "velocity": 0.7559055118110236,
          "duration": 0.19868454166666538
        },
        {
          "name": "F#5",
          "midi": 78,
          "time": 54.947459999999985,
          "velocity": 0.7559055118110236,
          "duration": 0.19868454166666538
        },
        {
          "name": "G#4",
          "midi": 68,
          "time": 55.15798666666665,
          "velocity": 0.7559055118110236,
          "duration": 0.19868454166666538
        },
        {
          "name": "G#5",
          "midi": 80,
          "time": 55.15798666666665,
          "velocity": 0.7559055118110236,
          "duration": 0.19868454166666538
        },
        {
          "name": "B4",
          "midi": 71,
          "time": 55.36851333333332,
          "velocity": 0.7559055118110236,
          "duration": 0.19868454166666538
        },
        {
          "name": "B5",
          "midi": 83,
          "time": 55.36851333333332,
          "velocity": 0.7559055118110236,
          "duration": 0.19868454166666538
        },
        {
          "name": "A#2",
          "midi": 46,
          "time": 55.579039999999985,
          "velocity": 0.905511811023622,
          "duration": 0.07763170833333533
        },
        {
          "name": "D#3",
          "midi": 51,
          "time": 55.579039999999985,
          "velocity": 0.905511811023622,
          "duration": 0.6302642083333367
        },
        {
          "name": "F3",
          "midi": 53,
          "time": 55.579039999999985,
          "velocity": 0.905511811023622,
          "duration": 0.6302642083333367
        },
        {
          "name": "A#3",
          "midi": 58,
          "time": 55.579039999999985,
          "velocity": 0.905511811023622,
          "duration": 0.6302642083333367
        },
        {
          "name": "A#3",
          "midi": 58,
          "time": 56.21061999999999,
          "velocity": 0.9212598425196851,
          "duration": 0.6302642083333367
        },
        {
          "name": "D#4",
          "midi": 63,
          "time": 56.21061999999999,
          "velocity": 0.9212598425196851,
          "duration": 0.6302642083333367
        },
        {
          "name": "F4",
          "midi": 65,
          "time": 56.21061999999999,
          "velocity": 0.9212598425196851,
          "duration": 0.6302642083333367
        },
        {
          "name": "A#4",
          "midi": 70,
          "time": 56.21061999999999,
          "velocity": 0.9212598425196851,
          "duration": 0.6302642083333367
        },
        {
          "name": "A#4",
          "midi": 70,
          "time": 56.8422,
          "velocity": 0.952755905511811,
          "duration": 0.6302642083333367
        },
        {
          "name": "D#5",
          "midi": 75,
          "time": 56.8422,
          "velocity": 0.952755905511811,
          "duration": 0.6302642083333367
        },
        {
          "name": "F5",
          "midi": 77,
          "time": 56.8422,
          "velocity": 0.952755905511811,
          "duration": 0.6302642083333367
        },
        {
          "name": "A#5",
          "midi": 82,
          "time": 56.8422,
          "velocity": 0.952755905511811,
          "duration": 0.6302642083333367
        },
        {
          "name": "A#2",
          "midi": 46,
          "time": 57.473780000000005,
          "velocity": 0.9763779527559056,
          "duration": 0.07763170833333533
        },
        {
          "name": "D3",
          "midi": 50,
          "time": 57.473780000000005,
          "velocity": 0.9763779527559056,
          "duration": 0.6302642083333367
        },
        {
          "name": "F3",
          "midi": 53,
          "time": 57.473780000000005,
          "velocity": 0.9763779527559056,
          "duration": 0.6302642083333367
        },
        {
          "name": "A#3",
          "midi": 58,
          "time": 57.473780000000005,
          "velocity": 0.9763779527559056,
          "duration": 0.6302642083333367
        },
        {
          "name": "A#3",
          "midi": 58,
          "time": 58.10536000000001,
          "velocity": 1,
          "duration": 0.6302642083333367
        },
        {
          "name": "D4",
          "midi": 62,
          "time": 58.10536000000001,
          "velocity": 1,
          "duration": 0.6302642083333367
        },
        {
          "name": "F4",
          "midi": 65,
          "time": 58.10536000000001,
          "velocity": 1,
          "duration": 0.6302642083333367
        },
        {
          "name": "A#4",
          "midi": 70,
          "time": 58.10536000000001,
          "velocity": 1,
          "duration": 0.6302642083333367
        },
        {
          "name": "A#4",
          "midi": 70,
          "time": 58.73694000000002,
          "velocity": 1,
          "duration": 0.6302642083333367
        },
        {
          "name": "D5",
          "midi": 74,
          "time": 58.73694000000002,
          "velocity": 1,
          "duration": 0.6302642083333367
        },
        {
          "name": "F5",
          "midi": 77,
          "time": 58.73694000000002,
          "velocity": 1,
          "duration": 0.6302642083333367
        },
        {
          "name": "A#5",
          "midi": 82,
          "time": 58.73694000000002,
          "velocity": 1,
          "duration": 0.6302642083333367
        },
        {
          "name": "G4",
          "midi": 67,
          "time": 61.263260000000024,
          "velocity": 0.8818897637795275,
          "duration": 0.29868470833333305
        },
        {
          "name": "C4",
          "midi": 60,
          "time": 61.579050000000024,
          "velocity": 0.8818897637795275,
          "duration": 0.29868470833333305
        },
        {
          "name": "G4",
          "midi": 67,
          "time": 61.89484000000002,
          "velocity": 0.8818897637795275,
          "duration": 0.898685708333332
        },
        {
          "name": "C5",
          "midi": 72,
          "time": 61.89484000000002,
          "velocity": 0.8818897637795275,
          "duration": 0.898685708333332
        },
        {
          "name": "A#4",
          "midi": 70,
          "time": 62.84221000000002,
          "velocity": 0.8818897637795275,
          "duration": 0.29868470833333305
        },
        {
          "name": "D#4",
          "midi": 63,
          "time": 63.15800000000002,
          "velocity": 0.8818897637795275,
          "duration": 1.578949999999999
        },
        {
          "name": "G4",
          "midi": 67,
          "time": 63.15800000000002,
          "velocity": 0.8818897637795275,
          "duration": 1.7986872083333267
        },
        {
          "name": "C5",
          "midi": 72,
          "time": 63.15800000000002,
          "velocity": 0.8818897637795275,
          "duration": 1.7986872083333267
        },
        {
          "name": "D#4",
          "midi": 63,
          "time": 65.05274000000001,
          "velocity": 0.8818897637795275,
          "duration": 0.29868470833334015
        },
        {
          "name": "G4",
          "midi": 67,
          "time": 65.05274000000001,
          "velocity": 0.8818897637795275,
          "duration": 0.29868470833334015
        },
        {
          "name": "C5",
          "midi": 72,
          "time": 65.05274000000001,
          "velocity": 0.8818897637795275,
          "duration": 0.29868470833334015
        },
        {
          "name": "A#3",
          "midi": 58,
          "time": 65.36853000000002,
          "velocity": 0.8818897637795275,
          "duration": 0.29868470833334015
        },
        {
          "name": "C4",
          "midi": 60,
          "time": 65.68432000000003,
          "velocity": 0.8818897637795275,
          "duration": 0.9473700000000065
        },
        {
          "name": "C#4",
          "midi": 61,
          "time": 66.94748000000004,
          "velocity": 0.8818897637795275,
          "duration": 0.598685208333336
        },
        {
          "name": "G4",
          "midi": 67,
          "time": 66.94748000000004,
          "velocity": 0.8818897637795275,
          "duration": 0.598685208333336
        },
        {
          "name": "D#4",
          "midi": 63,
          "time": 67.57906000000004,
          "velocity": 0.8818897637795275,
          "duration": 0.598685208333336
        },
        {
          "name": "C5",
          "midi": 72,
          "time": 67.57906000000004,
          "velocity": 0.8818897637795275,
          "duration": 0.598685208333336
        },
        {
          "name": "F4",
          "midi": 65,
          "time": 68.21064000000004,
          "velocity": 0.8818897637795275,
          "duration": 0.598685208333336
        },
        {
          "name": "C#5",
          "midi": 73,
          "time": 68.21064000000004,
          "velocity": 0.8818897637795275,
          "duration": 0.598685208333336
        },
        {
          "name": "D#4",
          "midi": 63,
          "time": 68.84222000000004,
          "velocity": 0.8818897637795275,
          "duration": 0.29868470833334015
        },
        {
          "name": "G4",
          "midi": 67,
          "time": 68.84222000000004,
          "velocity": 0.8818897637795275,
          "duration": 0.29868470833334015
        },
        {
          "name": "C4",
          "midi": 60,
          "time": 69.15801000000005,
          "velocity": 0.8818897637795275,
          "duration": 0.29868470833334015
        },
        {
          "name": "G4",
          "midi": 67,
          "time": 69.47380000000005,
          "velocity": 0.8818897637795275,
          "duration": 0.898685708333332
        },
        {
          "name": "C5",
          "midi": 72,
          "time": 69.47380000000005,
          "velocity": 0.8818897637795275,
          "duration": 0.898685708333332
        },
        {
          "name": "D#5",
          "midi": 75,
          "time": 69.47380000000005,
          "velocity": 0.8818897637795275,
          "duration": 0.898685708333332
        },
        {
          "name": "D5",
          "midi": 74,
          "time": 70.42117000000005,
          "velocity": 0.8818897637795275,
          "duration": 0.29868470833334015
        },
        {
          "name": "G4",
          "midi": 67,
          "time": 70.73696000000005,
          "velocity": 0.8818897637795275,
          "duration": 1.7986872083333338
        },
        {
          "name": "C5",
          "midi": 72,
          "time": 70.73696000000005,
          "velocity": 0.8818897637795275,
          "duration": 1.7986872083333338
        },
        {
          "name": "E5",
          "midi": 76,
          "time": 70.73696000000005,
          "velocity": 0.8818897637795275,
          "duration": 1.7986872083333338
        },
        {
          "name": "C4",
          "midi": 60,
          "time": 72.63170000000005,
          "velocity": 0.8818897637795275,
          "duration": 0.29868470833334015
        },
        {
          "name": "F4",
          "midi": 65,
          "time": 72.63170000000005,
          "velocity": 0.8818897637795275,
          "duration": 0.29868470833334015
        },
        {
          "name": "A4",
          "midi": 69,
          "time": 72.63170000000005,
          "velocity": 0.8818897637795275,
          "duration": 0.29868470833334015
        },
        {
          "name": "G4",
          "midi": 67,
          "time": 72.94749000000006,
          "velocity": 0.8818897637795275,
          "duration": 0.29868470833334015
        },
        {
          "name": "A#4",
          "midi": 70,
          "time": 72.94749000000006,
          "velocity": 0.8818897637795275,
          "duration": 0.29868470833334015
        },
        {
          "name": "F4",
          "midi": 65,
          "time": 73.26328000000007,
          "velocity": 0.8818897637795275,
          "duration": 1.1986862083333278
        },
        {
          "name": "A4",
          "midi": 69,
          "time": 73.26328000000007,
          "velocity": 0.8818897637795275,
          "duration": 1.1986862083333278
        },
        {
          "name": "C5",
          "midi": 72,
          "time": 73.26328000000007,
          "velocity": 0.8818897637795275,
          "duration": 1.1986862083333278
        },
        {
          "name": "C4",
          "midi": 60,
          "time": 74.52644000000006,
          "velocity": 0.8818897637795275,
          "duration": 0.3157900000000069
        },
        {
          "name": "F4",
          "midi": 65,
          "time": 74.59749275000007,
          "velocity": 0.8740157480314961,
          "duration": 1.8210556666666662
        },
        {
          "name": "G4",
          "midi": 67,
          "time": 74.66986129166673,
          "velocity": 0.8582677165354331,
          "duration": 0.803948708333337
        },
        {
          "name": "C5",
          "midi": 72,
          "time": 74.74354562500007,
          "velocity": 0.84251968503937,
          "duration": 1.0460543750000113
        },
        {
          "name": "D#4",
          "midi": 63,
          "time": 76.42118000000008,
          "velocity": 0.5039370078740157,
          "duration": 1.1986862083333278
        },
        {
          "name": "C4",
          "midi": 60,
          "time": 77.68434000000008,
          "velocity": 0.5039370078740157,
          "duration": 0.6289484166666739
        },
        {
          "name": "D#4",
          "midi": 63,
          "time": 77.68434000000008,
          "velocity": 0.5039370078740157,
          "duration": 0.29868470833334015
        },
        {
          "name": "A#3",
          "midi": 58,
          "time": 78.00013000000008,
          "velocity": 0.5039370078740157,
          "duration": 0.29868470833334015
        },
        {
          "name": "D4",
          "midi": 62,
          "time": 78.00013000000008,
          "velocity": 0.5039370078740157,
          "duration": 0.29868470833334015
        },
        {
          "name": "D4",
          "midi": 62,
          "time": 78.31592000000009,
          "velocity": 0.5039370078740157,
          "duration": 0.29868470833334015
        },
        {
          "name": "F4",
          "midi": 65,
          "time": 78.6317100000001,
          "velocity": 0.5039370078740157,
          "duration": 1.498686708333338
        },
        {
          "name": "D#4",
          "midi": 63,
          "time": 80.2106600000001,
          "velocity": 0.5039370078740157,
          "duration": 1.1986862083333278
        },
        {
          "name": "D#5",
          "midi": 75,
          "time": 81.4738200000001,
          "velocity": 0.5039370078740157,
          "duration": 0.598685208333336
        },
        {
          "name": "C4",
          "midi": 60,
          "time": 82.1054000000001,
          "velocity": 0.5039370078740157,
          "duration": 0.1434212916666695
        },
        {
          "name": "D#4",
          "midi": 63,
          "time": 82.17645275000011,
          "velocity": 0.5039370078740157,
          "duration": 1.8210556666666662
        },
        {
          "name": "F4",
          "midi": 65,
          "time": 82.24882129166677,
          "velocity": 0.5039370078740157,
          "duration": 1.7486871250000036
        },
        {
          "name": "G4",
          "midi": 67,
          "time": 84.00014000000012,
          "velocity": 0.5039370078740157,
          "duration": 0.9460542083333365
        },
        {
          "name": "C5",
          "midi": 72,
          "time": 84.07119275000012,
          "velocity": 0.5039370078740157,
          "duration": 0.8736856666666597
        },
        {
          "name": "G4",
          "midi": 67,
          "time": 84.94751000000012,
          "velocity": 0.5039370078740157,
          "duration": 0.898685708333332
        },
        {
          "name": "C5",
          "midi": 72,
          "time": 84.94751000000012,
          "velocity": 0.5039370078740157,
          "duration": 0.898685708333332
        },
        {
          "name": "F4",
          "midi": 65,
          "time": 85.89488000000011,
          "velocity": 0.5039370078740157,
          "duration": 1.893424208333343
        },
        {
          "name": "A#4",
          "midi": 70,
          "time": 85.96593275000012,
          "velocity": 0.5039370078740157,
          "duration": 1.8210556666666662
        },
        {
          "name": "C6",
          "midi": 84,
          "time": 89.05278000000013,
          "velocity": 0.5039370078740157,
          "duration": 1.893424208333343
        },
        {
          "name": "G5",
          "midi": 79,
          "time": 89.12383275000013,
          "velocity": 0.5039370078740157,
          "duration": 1.8210556666666662
        },
        {
          "name": "C5",
          "midi": 72,
          "time": 89.1962012916668,
          "velocity": 0.5039370078740157,
          "duration": 1.7486871250000036
        }
      ],
      "controlChanges": {
        "7": [
          {
            "number": 7,
            "time": 0,
            "value": 0.7874015748031497
          }
        ],
        "10": [
          {
            "number": 10,
            "time": 0,
            "value": 0.5039370078740157
          }
        ],
        "64": [
          {
            "number": 64,
            "time": 21.47635158333333,
            "value": 1
          },
          {
            "number": 64,
            "time": 23.36977579166666,
            "value": 0
          },
          {
            "number": 64,
            "time": 23.371091583333328,
            "value": 1
          },
          {
            "number": 64,
            "time": 25.26451579166666,
            "value": 0
          },
          {
            "number": 64,
            "time": 25.265831583333327,
            "value": 1
          },
          {
            "number": 64,
            "time": 27.15925579166666,
            "value": 0
          },
          {
            "number": 64,
            "time": 27.160571583333326,
            "value": 1
          },
          {
            "number": 64,
            "time": 29.053995791666658,
            "value": 0
          },
          {
            "number": 64,
            "time": 89.05541158333347,
            "value": 1
          },
          {
            "number": 64,
            "time": 92.84226000000014,
            "value": 0
          }
        ],
        "91": [
          {
            "number": 91,
            "time": 0,
            "value": 1
          }
        ],
        "93": [
          {
            "number": 93,
            "time": 0,
            "value": 0
          }
        ],
        "121": [
          {
            "number": 121,
            "time": 0,
            "value": 0
          }
        ]
      },
      "id": 1,
      "name": "Piano",
      "instrumentNumber": 0,
      "instrument": "acoustic grand piano",
      "instrumentFamily": "piano",
      "channelNumber": 3,
      "isPercussion": false
    },
    {
      "startTime": 0,
      "duration": 87.7869884166672,
      "length": 316,
      "notes": [
        {
          "name": "D#5",
          "midi": 75,
          "time": 0,
          "velocity": 0.25984251968503935,
          "duration": 0.14868445833333332
        },
        {
          "name": "G5",
          "midi": 79,
          "time": 0,
          "velocity": 0.25984251968503935,
          "duration": 0.14868445833333332
        },
        {
          "name": "C5",
          "midi": 72,
          "time": 0.15789499999999998,
          "velocity": 0.25984251968503935,
          "duration": 0.14868445833333335
        },
        {
          "name": "F5",
          "midi": 77,
          "time": 0.15789499999999998,
          "velocity": 0.25984251968503935,
          "duration": 0.14868445833333335
        },
        {
          "name": "D#5",
          "midi": 75,
          "time": 0.31579,
          "velocity": 0.25984251968503935,
          "duration": 0.14868445833333332
        },
        {
          "name": "G5",
          "midi": 79,
          "time": 0.31579,
          "velocity": 0.25984251968503935,
          "duration": 0.14868445833333332
        },
        {
          "name": "C5",
          "midi": 72,
          "time": 0.473685,
          "velocity": 0.25984251968503935,
          "duration": 0.14868445833333332
        },
        {
          "name": "F5",
          "midi": 77,
          "time": 0.473685,
          "velocity": 0.25984251968503935,
          "duration": 0.14868445833333332
        },
        {
          "name": "D#5",
          "midi": 75,
          "time": 0.63158,
          "velocity": 0.2677165354330709,
          "duration": 0.14868445833333332
        },
        {
          "name": "G5",
          "midi": 79,
          "time": 0.63158,
          "velocity": 0.2677165354330709,
          "duration": 0.14868445833333332
        },
        {
          "name": "C5",
          "midi": 72,
          "time": 0.789475,
          "velocity": 0.2755905511811024,
          "duration": 0.14868445833333332
        },
        {
          "name": "F5",
          "midi": 77,
          "time": 0.789475,
          "velocity": 0.2755905511811024,
          "duration": 0.14868445833333332
        },
        {
          "name": "D#5",
          "midi": 75,
          "time": 0.94737,
          "velocity": 0.29133858267716534,
          "duration": 0.14868445833333332
        },
        {
          "name": "G5",
          "midi": 79,
          "time": 0.94737,
          "velocity": 0.29133858267716534,
          "duration": 0.14868445833333332
        },
        {
          "name": "C5",
          "midi": 72,
          "time": 1.105265,
          "velocity": 0.2992125984251969,
          "duration": 0.14868445833333332
        },
        {
          "name": "F5",
          "midi": 77,
          "time": 1.105265,
          "velocity": 0.2992125984251969,
          "duration": 0.14868445833333332
        },
        {
          "name": "D#5",
          "midi": 75,
          "time": 1.2631599999999998,
          "velocity": 0.31496062992125984,
          "duration": 0.14868445833333332
        },
        {
          "name": "G5",
          "midi": 79,
          "time": 1.2631599999999998,
          "velocity": 0.31496062992125984,
          "duration": 0.14868445833333332
        },
        {
          "name": "C5",
          "midi": 72,
          "time": 1.4210549999999997,
          "velocity": 0.3228346456692913,
          "duration": 0.14868445833333332
        },
        {
          "name": "F5",
          "midi": 77,
          "time": 1.4210549999999997,
          "velocity": 0.3228346456692913,
          "duration": 0.14868445833333332
        },
        {
          "name": "D#5",
          "midi": 75,
          "time": 1.5789499999999996,
          "velocity": 0.33858267716535434,
          "duration": 0.14868445833333332
        },
        {
          "name": "G5",
          "midi": 79,
          "time": 1.5789499999999996,
          "velocity": 0.33858267716535434,
          "duration": 0.14868445833333332
        },
        {
          "name": "C5",
          "midi": 72,
          "time": 1.7368449999999995,
          "velocity": 0.3464566929133858,
          "duration": 0.14868445833333332
        },
        {
          "name": "F5",
          "midi": 77,
          "time": 1.7368449999999995,
          "velocity": 0.3464566929133858,
          "duration": 0.14868445833333332
        },
        {
          "name": "D#5",
          "midi": 75,
          "time": 1.8947399999999994,
          "velocity": 0.36220472440944884,
          "duration": 0.14868445833333355
        },
        {
          "name": "G5",
          "midi": 79,
          "time": 1.8947399999999994,
          "velocity": 0.36220472440944884,
          "duration": 0.14868445833333355
        },
        {
          "name": "C5",
          "midi": 72,
          "time": 2.0526349999999995,
          "velocity": 0.3700787401574803,
          "duration": 0.14868445833333332
        },
        {
          "name": "F5",
          "midi": 77,
          "time": 2.0526349999999995,
          "velocity": 0.3700787401574803,
          "duration": 0.14868445833333332
        },
        {
          "name": "D#5",
          "midi": 75,
          "time": 2.2105299999999994,
          "velocity": 0.3858267716535433,
          "duration": 0.14868445833333332
        },
        {
          "name": "G5",
          "midi": 79,
          "time": 2.2105299999999994,
          "velocity": 0.3858267716535433,
          "duration": 0.14868445833333332
        },
        {
          "name": "C5",
          "midi": 72,
          "time": 2.3684249999999993,
          "velocity": 0.3937007874015748,
          "duration": 0.14868445833333332
        },
        {
          "name": "F5",
          "midi": 77,
          "time": 2.3684249999999993,
          "velocity": 0.3937007874015748,
          "duration": 0.14868445833333332
        },
        {
          "name": "D#5",
          "midi": 75,
          "time": 2.5263199999999992,
          "velocity": 0.4094488188976378,
          "duration": 0.14868445833333332
        },
        {
          "name": "G5",
          "midi": 79,
          "time": 2.5263199999999992,
          "velocity": 0.4094488188976378,
          "duration": 0.14868445833333332
        },
        {
          "name": "C5",
          "midi": 72,
          "time": 2.684214999999999,
          "velocity": 0.41732283464566927,
          "duration": 0.14868445833333332
        },
        {
          "name": "F5",
          "midi": 77,
          "time": 2.684214999999999,
          "velocity": 0.41732283464566927,
          "duration": 0.14868445833333332
        },
        {
          "name": "D#5",
          "midi": 75,
          "time": 2.842109999999999,
          "velocity": 0.4330708661417323,
          "duration": 0.14868445833333332
        },
        {
          "name": "G5",
          "midi": 79,
          "time": 2.842109999999999,
          "velocity": 0.4330708661417323,
          "duration": 0.14868445833333332
        },
        {
          "name": "C5",
          "midi": 72,
          "time": 3.000004999999999,
          "velocity": 0.4409448818897638,
          "duration": 0.14868445833333332
        },
        {
          "name": "F5",
          "midi": 77,
          "time": 3.000004999999999,
          "velocity": 0.4409448818897638,
          "duration": 0.14868445833333332
        },
        {
          "name": "D#5",
          "midi": 75,
          "time": 3.157899999999999,
          "velocity": 0.4566929133858268,
          "duration": 0.14868445833333332
        },
        {
          "name": "G5",
          "midi": 79,
          "time": 3.157899999999999,
          "velocity": 0.4566929133858268,
          "duration": 0.14868445833333332
        },
        {
          "name": "C5",
          "midi": 72,
          "time": 3.3157949999999987,
          "velocity": 0.4645669291338583,
          "duration": 0.14868445833333332
        },
        {
          "name": "F5",
          "midi": 77,
          "time": 3.3157949999999987,
          "velocity": 0.4645669291338583,
          "duration": 0.14868445833333332
        },
        {
          "name": "D#5",
          "midi": 75,
          "time": 3.4736899999999986,
          "velocity": 0.48031496062992124,
          "duration": 0.14868445833333332
        },
        {
          "name": "G5",
          "midi": 79,
          "time": 3.4736899999999986,
          "velocity": 0.48031496062992124,
          "duration": 0.14868445833333332
        },
        {
          "name": "C5",
          "midi": 72,
          "time": 3.6315849999999985,
          "velocity": 0.4881889763779528,
          "duration": 0.14868445833333332
        },
        {
          "name": "F5",
          "midi": 77,
          "time": 3.6315849999999985,
          "velocity": 0.4881889763779528,
          "duration": 0.14868445833333332
        },
        {
          "name": "F4",
          "midi": 65,
          "time": 7.578959999999999,
          "velocity": 0.5039370078740157,
          "duration": 4.893429208333334
        },
        {
          "name": "G4",
          "midi": 67,
          "time": 7.601328458333332,
          "velocity": 0.5039370078740157,
          "duration": 4.869744958333334
        },
        {
          "name": "C5",
          "midi": 72,
          "time": 7.627644291666665,
          "velocity": 0.5039370078740157,
          "duration": 4.843429125000001
        },
        {
          "name": "C#3",
          "midi": 49,
          "time": 12.631599999999999,
          "velocity": 0.5039370078740157,
          "duration": 0.3144742083333334
        },
        {
          "name": "F3",
          "midi": 53,
          "time": 12.947389999999999,
          "velocity": 0.5039370078740157,
          "duration": 0.3144742083333334
        },
        {
          "name": "C4",
          "midi": 60,
          "time": 13.263179999999998,
          "velocity": 0.5039370078740157,
          "duration": 0.3144742083333334
        },
        {
          "name": "A#3",
          "midi": 58,
          "time": 13.578969999999998,
          "velocity": 0.5039370078740157,
          "duration": 0.3144742083333334
        },
        {
          "name": "D#4",
          "midi": 63,
          "time": 13.894759999999998,
          "velocity": 0.5039370078740157,
          "duration": 0.3144742083333334
        },
        {
          "name": "G4",
          "midi": 67,
          "time": 14.210549999999998,
          "velocity": 0.5039370078740157,
          "duration": 0.29868470833333305
        },
        {
          "name": "D#3",
          "midi": 51,
          "time": 14.526339999999998,
          "velocity": 0.5039370078740157,
          "duration": 0.3144742083333334
        },
        {
          "name": "G3",
          "midi": 55,
          "time": 14.842129999999997,
          "velocity": 0.5039370078740157,
          "duration": 0.3144742083333334
        },
        {
          "name": "G4",
          "midi": 67,
          "time": 15.157919999999997,
          "velocity": 0.5039370078740157,
          "duration": 0.3144742083333334
        },
        {
          "name": "A#3",
          "midi": 58,
          "time": 15.473709999999997,
          "velocity": 0.5039370078740157,
          "duration": 0.3144742083333334
        },
        {
          "name": "D#4",
          "midi": 63,
          "time": 15.789499999999997,
          "velocity": 0.5039370078740157,
          "duration": 0.3144742083333334
        },
        {
          "name": "A#4",
          "midi": 70,
          "time": 16.105289999999997,
          "velocity": 0.5039370078740157,
          "duration": 0.29868470833333305
        },
        {
          "name": "C#4",
          "midi": 61,
          "time": 16.421079999999996,
          "velocity": 0.5039370078740157,
          "duration": 1.2618442083333328
        },
        {
          "name": "D#3",
          "midi": 51,
          "time": 16.421079999999996,
          "velocity": 0.5039370078740157,
          "duration": 3.6934272083333326
        },
        {
          "name": "G#3",
          "midi": 56,
          "time": 16.421079999999996,
          "velocity": 0.5039370078740157,
          "duration": 3.6934272083333326
        },
        {
          "name": "C4",
          "midi": 60,
          "time": 17.684239999999996,
          "velocity": 0.5039370078740157,
          "duration": 2.3986882083333327
        },
        {
          "name": "E3",
          "midi": 52,
          "time": 29.052679999999995,
          "velocity": 0.5039370078740157,
          "duration": 1.2618442083333363
        },
        {
          "name": "G#3",
          "midi": 56,
          "time": 29.117153791666663,
          "velocity": 0.5039370078740157,
          "duration": 1.1960546250000021
        },
        {
          "name": "D#4",
          "midi": 63,
          "time": 29.184259166666664,
          "velocity": 0.5039370078740157,
          "duration": 1.1289492500000016
        },
        {
          "name": "F#4",
          "midi": 66,
          "time": 29.251364541666664,
          "velocity": 0.5039370078740157,
          "duration": 1.061843875000001
        },
        {
          "name": "F#2",
          "midi": 42,
          "time": 30.947419999999997,
          "velocity": 0.6299212598425197,
          "duration": 1.1986862083333314
        },
        {
          "name": "C#2",
          "midi": 37,
          "time": 32.84215999999999,
          "velocity": 0.7559055118110236,
          "duration": 3.5986902083333376
        },
        {
          "name": "C#3",
          "midi": 49,
          "time": 32.84215999999999,
          "velocity": 0.7559055118110236,
          "duration": 3.5986902083333376
        },
        {
          "name": "F2",
          "midi": 41,
          "time": 36.63164,
          "velocity": 0.6299212598425197,
          "duration": 0.598685208333336
        },
        {
          "name": "A3",
          "midi": 57,
          "time": 37.26322,
          "velocity": 0.6299212598425197,
          "duration": 0.598685208333336
        },
        {
          "name": "C4",
          "midi": 60,
          "time": 37.26322,
          "velocity": 0.6299212598425197,
          "duration": 0.598685208333336
        },
        {
          "name": "A3",
          "midi": 57,
          "time": 37.8948,
          "velocity": 0.6299212598425197,
          "duration": 0.598685208333336
        },
        {
          "name": "C4",
          "midi": 60,
          "time": 37.8948,
          "velocity": 0.6299212598425197,
          "duration": 0.598685208333336
        },
        {
          "name": "D4",
          "midi": 62,
          "time": 37.8948,
          "velocity": 0.6299212598425197,
          "duration": 0.598685208333336
        },
        {
          "name": "G2",
          "midi": 43,
          "time": 38.526379999999996,
          "velocity": 0.6299212598425197,
          "duration": 0.598685208333336
        },
        {
          "name": "A3",
          "midi": 57,
          "time": 39.157959999999996,
          "velocity": 0.6299212598425197,
          "duration": 0.598685208333336
        },
        {
          "name": "G3",
          "midi": 55,
          "time": 39.789539999999995,
          "velocity": 0.6299212598425197,
          "duration": 0.598685208333336
        },
        {
          "name": "C3",
          "midi": 48,
          "time": 40.421119999999995,
          "velocity": 0.6299212598425197,
          "duration": 0.598685208333336
        },
        {
          "name": "G3",
          "midi": 55,
          "time": 41.052699999999994,
          "velocity": 0.6299212598425197,
          "duration": 1.198686208333335
        },
        {
          "name": "D4",
          "midi": 62,
          "time": 41.052699999999994,
          "velocity": 0.6299212598425197,
          "duration": 1.198686208333335
        },
        {
          "name": "G4",
          "midi": 67,
          "time": 41.052699999999994,
          "velocity": 0.6299212598425197,
          "duration": 1.198686208333335
        },
        {
          "name": "C3",
          "midi": 48,
          "time": 42.315859999999994,
          "velocity": 0.6299212598425197,
          "duration": 0.598685208333336
        },
        {
          "name": "G3",
          "midi": 55,
          "time": 42.94743999999999,
          "velocity": 0.6299212598425197,
          "duration": 1.198686208333335
        },
        {
          "name": "E4",
          "midi": 64,
          "time": 42.94743999999999,
          "velocity": 0.6299212598425197,
          "duration": 1.198686208333335
        },
        {
          "name": "G4",
          "midi": 67,
          "time": 42.94743999999999,
          "velocity": 0.6299212598425197,
          "duration": 1.198686208333335
        },
        {
          "name": "B2",
          "midi": 47,
          "time": 44.21059999999999,
          "velocity": 0.5039370078740157,
          "duration": 0.29868470833333305
        },
        {
          "name": "D#3",
          "midi": 51,
          "time": 44.52638999999999,
          "velocity": 0.5039370078740157,
          "duration": 0.29868470833333305
        },
        {
          "name": "A#3",
          "midi": 58,
          "time": 44.84217999999999,
          "velocity": 0.5039370078740157,
          "duration": 0.29868470833333305
        },
        {
          "name": "F#3",
          "midi": 54,
          "time": 45.15796999999999,
          "velocity": 0.5039370078740157,
          "duration": 0.29868470833333305
        },
        {
          "name": "C#4",
          "midi": 61,
          "time": 45.47375999999999,
          "velocity": 0.5039370078740157,
          "duration": 0.5355272083333347
        },
        {
          "name": "A#3",
          "midi": 58,
          "time": 45.78954999999999,
          "velocity": 0.5039370078740157,
          "duration": 0.29868470833333305
        },
        {
          "name": "A#2",
          "midi": 46,
          "time": 46.10533999999999,
          "velocity": 0.5039370078740157,
          "duration": 0.29868470833333305
        },
        {
          "name": "C#3",
          "midi": 49,
          "time": 46.42112999999999,
          "velocity": 0.5039370078740157,
          "duration": 0.29868470833333305
        },
        {
          "name": "G#3",
          "midi": 56,
          "time": 46.73691999999999,
          "velocity": 0.5039370078740157,
          "duration": 0.29868470833333305
        },
        {
          "name": "F#3",
          "midi": 54,
          "time": 47.05270999999999,
          "velocity": 0.5039370078740157,
          "duration": 0.29868470833333305
        },
        {
          "name": "C#4",
          "midi": 61,
          "time": 47.36849999999999,
          "velocity": 0.5039370078740157,
          "duration": 0.29868470833333305
        },
        {
          "name": "A#3",
          "midi": 58,
          "time": 47.68428999999999,
          "velocity": 0.5039370078740157,
          "duration": 0.29868470833333305
        },
        {
          "name": "G#2",
          "midi": 44,
          "time": 48.00007999999999,
          "velocity": 0.5039370078740157,
          "duration": 0.29868470833333305
        },
        {
          "name": "D#3",
          "midi": 51,
          "time": 48.31586999999999,
          "velocity": 0.5196850393700787,
          "duration": 0.29868470833333305
        },
        {
          "name": "G#3",
          "midi": 56,
          "time": 48.63165999999999,
          "velocity": 0.5433070866141733,
          "duration": 0.29868470833333305
        },
        {
          "name": "F#3",
          "midi": 54,
          "time": 48.94744999999999,
          "velocity": 0.5669291338582677,
          "duration": 0.29868470833333305
        },
        {
          "name": "C#4",
          "midi": 61,
          "time": 49.26323999999999,
          "velocity": 0.5826771653543307,
          "duration": 0.29868470833333305
        },
        {
          "name": "G#3",
          "midi": 56,
          "time": 49.57902999999999,
          "velocity": 0.6062992125984252,
          "duration": 0.29868470833333305
        },
        {
          "name": "D1",
          "midi": 26,
          "time": 51.78955999999999,
          "velocity": 0.7559055118110236,
          "duration": 0.07236854166666262
        },
        {
          "name": "D2",
          "midi": 38,
          "time": 51.78955999999999,
          "velocity": 0.7559055118110236,
          "duration": 0.07236854166666262
        },
        {
          "name": "D3",
          "midi": 50,
          "time": 51.867191708333316,
          "velocity": 0.7559055118110236,
          "duration": 0.07236854166666973
        },
        {
          "name": "D1",
          "midi": 26,
          "time": 51.94613920833332,
          "velocity": 0.7559055118110236,
          "duration": 0.07236854166666973
        },
        {
          "name": "D2",
          "midi": 38,
          "time": 51.94613920833332,
          "velocity": 0.7559055118110236,
          "duration": 0.07236854166666973
        },
        {
          "name": "D3",
          "midi": 50,
          "time": 52.025086708333326,
          "velocity": 0.7559055118110236,
          "duration": 0.07236854166666973
        },
        {
          "name": "D1",
          "midi": 26,
          "time": 52.10403420833333,
          "velocity": 0.7559055118110236,
          "duration": 0.07236854166666973
        },
        {
          "name": "D2",
          "midi": 38,
          "time": 52.10403420833333,
          "velocity": 0.7559055118110236,
          "duration": 0.07236854166666973
        },
        {
          "name": "D3",
          "midi": 50,
          "time": 52.18166591666667,
          "velocity": 0.7559055118110236,
          "duration": 0.07236854166666973
        },
        {
          "name": "D1",
          "midi": 26,
          "time": 52.26061341666667,
          "velocity": 0.7559055118110236,
          "duration": 0.07236854166666973
        },
        {
          "name": "D2",
          "midi": 38,
          "time": 52.26061341666667,
          "velocity": 0.7559055118110236,
          "duration": 0.07236854166666973
        },
        {
          "name": "D3",
          "midi": 50,
          "time": 52.33956091666668,
          "velocity": 0.7559055118110236,
          "duration": 0.07236854166666973
        },
        {
          "name": "D1",
          "midi": 26,
          "time": 52.41850841666668,
          "velocity": 0.7559055118110236,
          "duration": 0.07236854166666973
        },
        {
          "name": "D2",
          "midi": 38,
          "time": 52.41850841666668,
          "velocity": 0.7559055118110236,
          "duration": 0.07236854166666973
        },
        {
          "name": "D3",
          "midi": 50,
          "time": 52.49614012500002,
          "velocity": 0.7559055118110236,
          "duration": 0.07236854166666973
        },
        {
          "name": "D1",
          "midi": 26,
          "time": 52.57508762500002,
          "velocity": 0.7559055118110236,
          "duration": 0.07236854166666973
        },
        {
          "name": "D2",
          "midi": 38,
          "time": 52.57508762500002,
          "velocity": 0.7559055118110236,
          "duration": 0.07236854166666973
        },
        {
          "name": "D3",
          "midi": 50,
          "time": 52.65403512500003,
          "velocity": 0.7559055118110236,
          "duration": 0.07236854166666973
        },
        {
          "name": "D1",
          "midi": 26,
          "time": 52.732982625000034,
          "velocity": 0.7559055118110236,
          "duration": 0.07236854166666973
        },
        {
          "name": "D2",
          "midi": 38,
          "time": 52.732982625000034,
          "velocity": 0.7559055118110236,
          "duration": 0.07236854166666973
        },
        {
          "name": "D3",
          "midi": 50,
          "time": 52.81061433333337,
          "velocity": 0.7559055118110236,
          "duration": 0.07236854166666973
        },
        {
          "name": "D1",
          "midi": 26,
          "time": 52.889561833333374,
          "velocity": 0.7559055118110236,
          "duration": 0.07236854166666973
        },
        {
          "name": "D2",
          "midi": 38,
          "time": 52.889561833333374,
          "velocity": 0.7559055118110236,
          "duration": 0.07236854166666973
        },
        {
          "name": "D3",
          "midi": 50,
          "time": 52.96850933333338,
          "velocity": 0.7559055118110236,
          "duration": 0.07236854166666973
        },
        {
          "name": "D1",
          "midi": 26,
          "time": 53.047456833333385,
          "velocity": 0.7559055118110236,
          "duration": 0.07236854166666973
        },
        {
          "name": "D2",
          "midi": 38,
          "time": 53.047456833333385,
          "velocity": 0.7559055118110236,
          "duration": 0.07236854166666973
        },
        {
          "name": "D3",
          "midi": 50,
          "time": 53.12508854166672,
          "velocity": 0.7559055118110236,
          "duration": 0.07236854166666973
        },
        {
          "name": "D1",
          "midi": 26,
          "time": 53.204036041666726,
          "velocity": 0.7559055118110236,
          "duration": 0.07236854166666973
        },
        {
          "name": "D2",
          "midi": 38,
          "time": 53.204036041666726,
          "velocity": 0.7559055118110236,
          "duration": 0.07236854166666973
        },
        {
          "name": "D3",
          "midi": 50,
          "time": 53.28298354166673,
          "velocity": 0.7559055118110236,
          "duration": 0.07236854166666973
        },
        {
          "name": "D1",
          "midi": 26,
          "time": 53.361931041666736,
          "velocity": 0.7559055118110236,
          "duration": 0.07236854166666973
        },
        {
          "name": "D2",
          "midi": 38,
          "time": 53.361931041666736,
          "velocity": 0.7559055118110236,
          "duration": 0.07236854166666973
        },
        {
          "name": "D3",
          "midi": 50,
          "time": 53.43956275000007,
          "velocity": 0.7559055118110236,
          "duration": 0.07236854166666973
        },
        {
          "name": "D1",
          "midi": 26,
          "time": 53.51851025000008,
          "velocity": 0.7559055118110236,
          "duration": 0.07236854166666973
        },
        {
          "name": "D2",
          "midi": 38,
          "time": 53.51851025000008,
          "velocity": 0.7559055118110236,
          "duration": 0.07236854166666973
        },
        {
          "name": "D3",
          "midi": 50,
          "time": 53.59745775000008,
          "velocity": 0.7559055118110236,
          "duration": 0.07236854166666973
        },
        {
          "name": "D1",
          "midi": 26,
          "time": 53.684300000000086,
          "velocity": 0.7559055118110236,
          "duration": 0.07236854166666973
        },
        {
          "name": "D2",
          "midi": 38,
          "time": 53.684300000000086,
          "velocity": 0.7559055118110236,
          "duration": 0.07236854166666973
        },
        {
          "name": "D3",
          "midi": 50,
          "time": 53.76193170833342,
          "velocity": 0.7559055118110236,
          "duration": 0.07236854166666973
        },
        {
          "name": "D1",
          "midi": 26,
          "time": 53.840879208333426,
          "velocity": 0.7559055118110236,
          "duration": 0.07236854166666973
        },
        {
          "name": "D2",
          "midi": 38,
          "time": 53.840879208333426,
          "velocity": 0.7559055118110236,
          "duration": 0.07236854166666973
        },
        {
          "name": "D3",
          "midi": 50,
          "time": 53.91982670833343,
          "velocity": 0.7559055118110236,
          "duration": 0.07236854166666973
        },
        {
          "name": "D1",
          "midi": 26,
          "time": 53.99877420833344,
          "velocity": 0.7559055118110236,
          "duration": 0.07236854166666973
        },
        {
          "name": "D2",
          "midi": 38,
          "time": 53.99877420833344,
          "velocity": 0.7559055118110236,
          "duration": 0.07236854166666973
        },
        {
          "name": "D3",
          "midi": 50,
          "time": 54.07640591666677,
          "velocity": 0.7559055118110236,
          "duration": 0.07236854166666973
        },
        {
          "name": "D1",
          "midi": 26,
          "time": 54.15535341666678,
          "velocity": 0.7559055118110236,
          "duration": 0.07236854166666973
        },
        {
          "name": "D2",
          "midi": 38,
          "time": 54.15535341666678,
          "velocity": 0.7559055118110236,
          "duration": 0.07236854166666973
        },
        {
          "name": "D3",
          "midi": 50,
          "time": 54.23430091666678,
          "velocity": 0.7559055118110236,
          "duration": 0.07236854166666973
        },
        {
          "name": "D1",
          "midi": 26,
          "time": 54.31324841666679,
          "velocity": 0.7559055118110236,
          "duration": 0.07236854166666973
        },
        {
          "name": "D2",
          "midi": 38,
          "time": 54.31324841666679,
          "velocity": 0.7559055118110236,
          "duration": 0.07236854166666973
        },
        {
          "name": "D3",
          "midi": 50,
          "time": 54.39088012500012,
          "velocity": 0.7559055118110236,
          "duration": 0.07236854166666973
        },
        {
          "name": "D1",
          "midi": 26,
          "time": 54.46982762500013,
          "velocity": 0.7559055118110236,
          "duration": 0.07236854166666973
        },
        {
          "name": "D2",
          "midi": 38,
          "time": 54.46982762500013,
          "velocity": 0.7559055118110236,
          "duration": 0.07236854166666973
        },
        {
          "name": "D3",
          "midi": 50,
          "time": 54.548775125000134,
          "velocity": 0.7559055118110236,
          "duration": 0.07236854166666973
        },
        {
          "name": "D1",
          "midi": 26,
          "time": 54.62772262500014,
          "velocity": 0.7559055118110236,
          "duration": 0.07236854166666973
        },
        {
          "name": "D2",
          "midi": 38,
          "time": 54.62772262500014,
          "velocity": 0.7559055118110236,
          "duration": 0.07236854166666973
        },
        {
          "name": "D3",
          "midi": 50,
          "time": 54.705354333333474,
          "velocity": 0.7559055118110236,
          "duration": 0.07236854166666973
        },
        {
          "name": "D1",
          "midi": 26,
          "time": 54.78430183333348,
          "velocity": 0.7559055118110236,
          "duration": 0.07236854166666973
        },
        {
          "name": "D2",
          "midi": 38,
          "time": 54.78430183333348,
          "velocity": 0.7559055118110236,
          "duration": 0.07236854166666973
        },
        {
          "name": "D3",
          "midi": 50,
          "time": 54.863249333333485,
          "velocity": 0.7559055118110236,
          "duration": 0.07236854166666973
        },
        {
          "name": "D1",
          "midi": 26,
          "time": 54.94219683333349,
          "velocity": 0.7559055118110236,
          "duration": 0.07236854166666973
        },
        {
          "name": "D2",
          "midi": 38,
          "time": 54.94219683333349,
          "velocity": 0.7559055118110236,
          "duration": 0.07236854166666973
        },
        {
          "name": "D3",
          "midi": 50,
          "time": 55.019828541666826,
          "velocity": 0.7559055118110236,
          "duration": 0.07236854166666973
        },
        {
          "name": "D1",
          "midi": 26,
          "time": 55.09877604166683,
          "velocity": 0.7559055118110236,
          "duration": 0.07236854166666973
        },
        {
          "name": "D2",
          "midi": 38,
          "time": 55.09877604166683,
          "velocity": 0.7559055118110236,
          "duration": 0.07236854166666973
        },
        {
          "name": "D3",
          "midi": 50,
          "time": 55.177723541666836,
          "velocity": 0.7559055118110236,
          "duration": 0.07236854166666973
        },
        {
          "name": "D1",
          "midi": 26,
          "time": 55.25667104166684,
          "velocity": 0.7559055118110236,
          "duration": 0.07236854166666973
        },
        {
          "name": "D2",
          "midi": 38,
          "time": 55.25667104166684,
          "velocity": 0.7559055118110236,
          "duration": 0.07236854166666973
        },
        {
          "name": "D3",
          "midi": 50,
          "time": 55.33430275000018,
          "velocity": 0.7559055118110236,
          "duration": 0.07236854166666973
        },
        {
          "name": "D1",
          "midi": 26,
          "time": 55.41325025000018,
          "velocity": 0.7559055118110236,
          "duration": 0.07236854166666973
        },
        {
          "name": "D2",
          "midi": 38,
          "time": 55.41325025000018,
          "velocity": 0.7559055118110236,
          "duration": 0.07236854166666973
        },
        {
          "name": "D3",
          "midi": 50,
          "time": 55.49219775000019,
          "velocity": 0.7559055118110236,
          "duration": 0.07236854166666973
        },
        {
          "name": "A#0",
          "midi": 22,
          "time": 55.57904000000019,
          "velocity": 0.7559055118110236,
          "duration": 0.07236854166666973
        },
        {
          "name": "A#1",
          "midi": 34,
          "time": 55.57904000000019,
          "velocity": 0.7559055118110236,
          "duration": 0.07236854166666973
        },
        {
          "name": "A#2",
          "midi": 46,
          "time": 55.656671708333526,
          "velocity": 0.7559055118110236,
          "duration": 0.15789500000000345
        },
        {
          "name": "A#0",
          "midi": 22,
          "time": 55.735619208333524,
          "velocity": 0.7559055118110236,
          "duration": 0.07236854166666973
        },
        {
          "name": "A#1",
          "midi": 34,
          "time": 55.735619208333524,
          "velocity": 0.7559055118110236,
          "duration": 0.07236854166666973
        },
        {
          "name": "A#2",
          "midi": 46,
          "time": 55.81456670833353,
          "velocity": 0.7559055118110236,
          "duration": 0.1565792083333335
        },
        {
          "name": "A#0",
          "midi": 22,
          "time": 55.89351420833353,
          "velocity": 0.7637795275590551,
          "duration": 0.07236854166666973
        },
        {
          "name": "A#1",
          "midi": 34,
          "time": 55.89351420833353,
          "velocity": 0.7637795275590551,
          "duration": 0.07236854166666973
        },
        {
          "name": "A#2",
          "midi": 46,
          "time": 55.97114591666686,
          "velocity": 0.7637795275590551,
          "duration": 0.15789500000000345
        },
        {
          "name": "A#0",
          "midi": 22,
          "time": 56.05009341666686,
          "velocity": 0.7637795275590551,
          "duration": 0.07236854166666973
        },
        {
          "name": "A#1",
          "midi": 34,
          "time": 56.05009341666686,
          "velocity": 0.7637795275590551,
          "duration": 0.07236854166666973
        },
        {
          "name": "A#2",
          "midi": 46,
          "time": 56.12904091666687,
          "velocity": 0.7716535433070866,
          "duration": 0.08026329166666812
        },
        {
          "name": "A#0",
          "midi": 22,
          "time": 56.207988416666865,
          "velocity": 0.7716535433070866,
          "duration": 0.07236854166666973
        },
        {
          "name": "A#1",
          "midi": 34,
          "time": 56.207988416666865,
          "velocity": 0.7716535433070866,
          "duration": 0.07236854166666973
        },
        {
          "name": "A#2",
          "midi": 46,
          "time": 56.2856201250002,
          "velocity": 0.7716535433070866,
          "duration": 0.07236854166666973
        },
        {
          "name": "A#0",
          "midi": 22,
          "time": 56.364567625000205,
          "velocity": 0.7795275590551181,
          "duration": 0.07236854166666973
        },
        {
          "name": "A#1",
          "midi": 34,
          "time": 56.364567625000205,
          "velocity": 0.7795275590551181,
          "duration": 0.07236854166666973
        },
        {
          "name": "A#2",
          "midi": 46,
          "time": 56.44351512500021,
          "velocity": 0.7795275590551181,
          "duration": 0.07236854166666973
        },
        {
          "name": "A#0",
          "midi": 22,
          "time": 56.522462625000216,
          "velocity": 0.7795275590551181,
          "duration": 0.07236854166666973
        },
        {
          "name": "A#1",
          "midi": 34,
          "time": 56.522462625000216,
          "velocity": 0.7795275590551181,
          "duration": 0.07236854166666973
        },
        {
          "name": "A#2",
          "midi": 46,
          "time": 56.60009433333355,
          "velocity": 0.7874015748031497,
          "duration": 0.07236854166666973
        },
        {
          "name": "A#0",
          "midi": 22,
          "time": 56.67904183333356,
          "velocity": 0.7874015748031497,
          "duration": 0.07236854166666973
        },
        {
          "name": "A#1",
          "midi": 34,
          "time": 56.67904183333356,
          "velocity": 0.7874015748031497,
          "duration": 0.07236854166666973
        },
        {
          "name": "A#2",
          "midi": 46,
          "time": 56.75798933333356,
          "velocity": 0.7874015748031497,
          "duration": 0.07236854166666973
        },
        {
          "name": "A#0",
          "midi": 22,
          "time": 56.83693683333357,
          "velocity": 0.7952755905511811,
          "duration": 0.07236854166666973
        },
        {
          "name": "A#1",
          "midi": 34,
          "time": 56.83693683333357,
          "velocity": 0.7952755905511811,
          "duration": 0.07236854166666973
        },
        {
          "name": "A#2",
          "midi": 46,
          "time": 56.9145685416669,
          "velocity": 0.7952755905511811,
          "duration": 0.07236854166666973
        },
        {
          "name": "A#0",
          "midi": 22,
          "time": 56.99351604166691,
          "velocity": 0.7952755905511811,
          "duration": 0.07236854166666973
        },
        {
          "name": "A#1",
          "midi": 34,
          "time": 56.99351604166691,
          "velocity": 0.7952755905511811,
          "duration": 0.07236854166666973
        },
        {
          "name": "A#2",
          "midi": 46,
          "time": 57.07246354166691,
          "velocity": 0.8031496062992126,
          "duration": 0.07236854166666973
        },
        {
          "name": "A#0",
          "midi": 22,
          "time": 57.15141104166692,
          "velocity": 0.8031496062992126,
          "duration": 0.07236854166666973
        },
        {
          "name": "A#1",
          "midi": 34,
          "time": 57.15141104166692,
          "velocity": 0.8031496062992126,
          "duration": 0.07236854166666973
        },
        {
          "name": "A#2",
          "midi": 46,
          "time": 57.229042750000254,
          "velocity": 0.8031496062992126,
          "duration": 0.07236854166666973
        },
        {
          "name": "A#0",
          "midi": 22,
          "time": 57.30799025000026,
          "velocity": 0.8110236220472441,
          "duration": 0.07236854166666973
        },
        {
          "name": "A#1",
          "midi": 34,
          "time": 57.30799025000026,
          "velocity": 0.8110236220472441,
          "duration": 0.07236854166666973
        },
        {
          "name": "A#2",
          "midi": 46,
          "time": 57.386937750000264,
          "velocity": 0.8110236220472441,
          "duration": 0.07236854166666973
        },
        {
          "name": "A#0",
          "midi": 22,
          "time": 57.47378000000027,
          "velocity": 0.8188976377952756,
          "duration": 0.07236854166666973
        },
        {
          "name": "A#1",
          "midi": 34,
          "time": 57.47378000000027,
          "velocity": 0.8188976377952756,
          "duration": 0.07236854166666973
        },
        {
          "name": "A#2",
          "midi": 46,
          "time": 57.5514117083336,
          "velocity": 0.8188976377952756,
          "duration": 0.15789500000000345
        },
        {
          "name": "A#0",
          "midi": 22,
          "time": 57.6303592083336,
          "velocity": 0.8188976377952756,
          "duration": 0.07236854166666973
        },
        {
          "name": "A#1",
          "midi": 34,
          "time": 57.6303592083336,
          "velocity": 0.8188976377952756,
          "duration": 0.07236854166666973
        },
        {
          "name": "A#2",
          "midi": 46,
          "time": 57.70930670833361,
          "velocity": 0.8188976377952756,
          "duration": 0.1565792083333335
        },
        {
          "name": "A#0",
          "midi": 22,
          "time": 57.788254208333605,
          "velocity": 0.8267716535433071,
          "duration": 0.07236854166666973
        },
        {
          "name": "A#1",
          "midi": 34,
          "time": 57.788254208333605,
          "velocity": 0.8267716535433071,
          "duration": 0.07236854166666973
        },
        {
          "name": "A#2",
          "midi": 46,
          "time": 57.86588591666694,
          "velocity": 0.8267716535433071,
          "duration": 0.15789500000000345
        },
        {
          "name": "A#0",
          "midi": 22,
          "time": 57.94483341666694,
          "velocity": 0.8267716535433071,
          "duration": 0.07236854166666973
        },
        {
          "name": "A#1",
          "midi": 34,
          "time": 57.94483341666694,
          "velocity": 0.8267716535433071,
          "duration": 0.07236854166666973
        },
        {
          "name": "A#2",
          "midi": 46,
          "time": 58.023780916666944,
          "velocity": 0.8346456692913385,
          "duration": 0.08026329166666812
        },
        {
          "name": "A#0",
          "midi": 22,
          "time": 58.10272841666694,
          "velocity": 0.8346456692913385,
          "duration": 0.07236854166666973
        },
        {
          "name": "A#1",
          "midi": 34,
          "time": 58.10272841666694,
          "velocity": 0.8346456692913385,
          "duration": 0.07236854166666973
        },
        {
          "name": "A#2",
          "midi": 46,
          "time": 58.18036012500028,
          "velocity": 0.8346456692913385,
          "duration": 0.07236854166666973
        },
        {
          "name": "A#0",
          "midi": 22,
          "time": 58.25930762500028,
          "velocity": 0.84251968503937,
          "duration": 0.07236854166666973
        },
        {
          "name": "A#1",
          "midi": 34,
          "time": 58.25930762500028,
          "velocity": 0.84251968503937,
          "duration": 0.07236854166666973
        },
        {
          "name": "A#2",
          "midi": 46,
          "time": 58.33825512500029,
          "velocity": 0.84251968503937,
          "duration": 0.07236854166666973
        },
        {
          "name": "A#0",
          "midi": 22,
          "time": 58.41720262500029,
          "velocity": 0.84251968503937,
          "duration": 0.07236854166666973
        },
        {
          "name": "A#1",
          "midi": 34,
          "time": 58.41720262500029,
          "velocity": 0.84251968503937,
          "duration": 0.07236854166666973
        },
        {
          "name": "A#2",
          "midi": 46,
          "time": 58.49483433333363,
          "velocity": 0.8503937007874016,
          "duration": 0.07236854166666973
        },
        {
          "name": "A#0",
          "midi": 22,
          "time": 58.57378183333363,
          "velocity": 0.8503937007874016,
          "duration": 0.07236854166666973
        },
        {
          "name": "A#1",
          "midi": 34,
          "time": 58.57378183333363,
          "velocity": 0.8503937007874016,
          "duration": 0.07236854166666973
        },
        {
          "name": "A#2",
          "midi": 46,
          "time": 58.65272933333364,
          "velocity": 0.8503937007874016,
          "duration": 0.07236854166666973
        },
        {
          "name": "A#0",
          "midi": 22,
          "time": 58.731676833333644,
          "velocity": 0.8582677165354331,
          "duration": 0.07236854166666973
        },
        {
          "name": "A#1",
          "midi": 34,
          "time": 58.731676833333644,
          "velocity": 0.8582677165354331,
          "duration": 0.07236854166666973
        },
        {
          "name": "A#2",
          "midi": 46,
          "time": 58.80930854166698,
          "velocity": 0.8582677165354331,
          "duration": 0.07236854166666973
        },
        {
          "name": "A#0",
          "midi": 22,
          "time": 58.888256041666985,
          "velocity": 0.8582677165354331,
          "duration": 0.07236854166666973
        },
        {
          "name": "A#1",
          "midi": 34,
          "time": 58.888256041666985,
          "velocity": 0.8582677165354331,
          "duration": 0.07236854166666973
        },
        {
          "name": "A#2",
          "midi": 46,
          "time": 58.96720354166699,
          "velocity": 0.8661417322834646,
          "duration": 0.07236854166666973
        },
        {
          "name": "A#0",
          "midi": 22,
          "time": 59.046151041666995,
          "velocity": 0.8661417322834646,
          "duration": 0.07236854166666973
        },
        {
          "name": "A#1",
          "midi": 34,
          "time": 59.046151041666995,
          "velocity": 0.8661417322834646,
          "duration": 0.07236854166666973
        },
        {
          "name": "A#2",
          "midi": 46,
          "time": 59.12378275000033,
          "velocity": 0.8661417322834646,
          "duration": 0.07236854166666973
        },
        {
          "name": "A#0",
          "midi": 22,
          "time": 59.202730250000336,
          "velocity": 0.8740157480314961,
          "duration": 0.07236854166666973
        },
        {
          "name": "A#1",
          "midi": 34,
          "time": 59.202730250000336,
          "velocity": 0.8740157480314961,
          "duration": 0.07236854166666973
        },
        {
          "name": "A#2",
          "midi": 46,
          "time": 59.28167775000034,
          "velocity": 0.8740157480314961,
          "duration": 0.07236854166666973
        },
        {
          "name": "C1",
          "midi": 24,
          "time": 61.26326000000034,
          "velocity": 1,
          "duration": 1.893424208333336
        },
        {
          "name": "C2",
          "midi": 36,
          "time": 61.26326000000034,
          "velocity": 1,
          "duration": 0.6315800000000067
        },
        {
          "name": "C2",
          "midi": 36,
          "time": 61.89484000000035,
          "velocity": 0.8818897637795275,
          "duration": 1.2618442083333292
        },
        {
          "name": "G2",
          "midi": 43,
          "time": 62.21063000000035,
          "velocity": 0.8818897637795275,
          "duration": 0.29868470833333305
        },
        {
          "name": "C3",
          "midi": 48,
          "time": 62.52642000000035,
          "velocity": 0.8818897637795275,
          "duration": 0.29868470833333305
        },
        {
          "name": "G3",
          "midi": 55,
          "time": 62.84221000000035,
          "velocity": 0.8818897637795275,
          "duration": 0.29868470833333305
        },
        {
          "name": "G#1",
          "midi": 32,
          "time": 63.15800000000035,
          "velocity": 0.8818897637795275,
          "duration": 1.7986872083333552
        },
        {
          "name": "G#2",
          "midi": 44,
          "time": 63.15800000000035,
          "velocity": 0.8818897637795275,
          "duration": 0.6315800000000067
        },
        {
          "name": "G#2",
          "midi": 44,
          "time": 63.789580000000356,
          "velocity": 0.8818897637795275,
          "duration": 1.1671072083333485
        },
        {
          "name": "D#3",
          "midi": 51,
          "time": 64.10537000000036,
          "velocity": 0.8818897637795275,
          "duration": 0.29868470833334015
        },
        {
          "name": "G#3",
          "midi": 56,
          "time": 64.42116000000037,
          "velocity": 0.8818897637795275,
          "duration": 0.29868470833334015
        },
        {
          "name": "D#4",
          "midi": 63,
          "time": 64.73695000000038,
          "velocity": 0.8818897637795275,
          "duration": 0.29868470833332594
        },
        {
          "name": "F2",
          "midi": 41,
          "time": 65.05274000000037,
          "velocity": 0.8818897637795275,
          "duration": 0.6315799999999996
        },
        {
          "name": "F3",
          "midi": 53,
          "time": 65.05274000000037,
          "velocity": 0.8818897637795275,
          "duration": 1.2631600000000134
        },
        {
          "name": "F2",
          "midi": 41,
          "time": 65.68432000000037,
          "velocity": 0.8818897637795275,
          "duration": 1.1671072083333485
        },
        {
          "name": "C3",
          "midi": 48,
          "time": 66.00011000000038,
          "velocity": 0.8818897637795275,
          "duration": 0.29868470833334015
        },
        {
          "name": "F3",
          "midi": 53,
          "time": 66.31590000000038,
          "velocity": 0.8818897637795275,
          "duration": 0.5355272083333347
        },
        {
          "name": "C4",
          "midi": 60,
          "time": 66.63169000000039,
          "velocity": 0.8818897637795275,
          "duration": 0.29868470833332594
        },
        {
          "name": "C#2",
          "midi": 37,
          "time": 66.94748000000038,
          "velocity": 0.8818897637795275,
          "duration": 0.6315799999999996
        },
        {
          "name": "C#3",
          "midi": 49,
          "time": 66.94748000000038,
          "velocity": 0.8818897637795275,
          "duration": 1.798687208333348
        },
        {
          "name": "C#2",
          "midi": 37,
          "time": 67.57906000000038,
          "velocity": 0.8818897637795275,
          "duration": 0.6315800000000138
        },
        {
          "name": "G#2",
          "midi": 44,
          "time": 67.89485000000039,
          "velocity": 0.8818897637795275,
          "duration": 0.29868470833334015
        },
        {
          "name": "C#2",
          "midi": 37,
          "time": 68.2106400000004,
          "velocity": 0.8818897637795275,
          "duration": 0.5355272083333347
        },
        {
          "name": "G2",
          "midi": 43,
          "time": 68.5264300000004,
          "velocity": 0.8818897637795275,
          "duration": 0.29868470833332594
        },
        {
          "name": "C1",
          "midi": 24,
          "time": 68.8422200000004,
          "velocity": 1,
          "duration": 1.8934242083333572
        },
        {
          "name": "C2",
          "midi": 36,
          "time": 68.8422200000004,
          "velocity": 1,
          "duration": 0.6315799999999996
        },
        {
          "name": "C2",
          "midi": 36,
          "time": 69.4738000000004,
          "velocity": 0.8818897637795275,
          "duration": 1.2618442083333576
        },
        {
          "name": "D#3",
          "midi": 51,
          "time": 69.7895900000004,
          "velocity": 0.8818897637795275,
          "duration": 0.29868470833334015
        },
        {
          "name": "C3",
          "midi": 48,
          "time": 70.10538000000041,
          "velocity": 0.8818897637795275,
          "duration": 0.29868470833334015
        },
        {
          "name": "G3",
          "midi": 55,
          "time": 70.42117000000042,
          "velocity": 0.8818897637795275,
          "duration": 0.29868470833334015
        },
        {
          "name": "A1",
          "midi": 33,
          "time": 70.73696000000042,
          "velocity": 0.8818897637795275,
          "duration": 0.6315799999999996
        },
        {
          "name": "A2",
          "midi": 45,
          "time": 70.73696000000042,
          "velocity": 0.8818897637795275,
          "duration": 1.2631600000000134
        },
        {
          "name": "A1",
          "midi": 33,
          "time": 71.36854000000042,
          "velocity": 0.8818897637795275,
          "duration": 1.1671072083333485
        },
        {
          "name": "E2",
          "midi": 40,
          "time": 71.68433000000043,
          "velocity": 0.8818897637795275,
          "duration": 0.29868470833334015
        },
        {
          "name": "A2",
          "midi": 45,
          "time": 72.00012000000044,
          "velocity": 0.8818897637795275,
          "duration": 0.5355272083333347
        },
        {
          "name": "E3",
          "midi": 52,
          "time": 72.31591000000044,
          "velocity": 0.8818897637795275,
          "duration": 0.29868470833332594
        },
        {
          "name": "F2",
          "midi": 41,
          "time": 72.63170000000044,
          "velocity": 0.8818897637795275,
          "duration": 0.8986857083333462
        },
        {
          "name": "C2",
          "midi": 36,
          "time": 73.57907000000044,
          "velocity": 0.8818897637795275,
          "duration": 0.29868470833334015
        },
        {
          "name": "F2",
          "midi": 41,
          "time": 73.89486000000045,
          "velocity": 0.8818897637795275,
          "duration": 0.598685208333336
        },
        {
          "name": "G2",
          "midi": 43,
          "time": 74.52644000000045,
          "velocity": 0.8818897637795275,
          "duration": 1.7986872083333623
        },
        {
          "name": "G2",
          "midi": 43,
          "time": 74.52644000000045,
          "velocity": 0.8818897637795275,
          "duration": 0
        },
        {
          "name": "D3",
          "midi": 50,
          "time": 74.52644000000045,
          "velocity": 0.8818897637795275,
          "duration": 1.7986872083333623
        },
        {
          "name": "C4",
          "midi": 60,
          "time": 74.84223000000046,
          "velocity": 0.8188976377952756,
          "duration": 1.5776342083333503
        },
        {
          "name": "D4",
          "midi": 62,
          "time": 75.15802000000046,
          "velocity": 0.7559055118110236,
          "duration": 0.29868470833334015
        },
        {
          "name": "G4",
          "midi": 67,
          "time": 75.47381000000047,
          "velocity": 0.6929133858267716,
          "duration": 0.9447384166666666
        },
        {
          "name": "C5",
          "midi": 72,
          "time": 75.78960000000048,
          "velocity": 0.6299212598425197,
          "duration": 0.6289484166666597
        },
        {
          "name": "G5",
          "midi": 79,
          "time": 76.10539000000048,
          "velocity": 0.5669291338582677,
          "duration": 0.29868470833332594
        },
        {
          "name": "G#2",
          "midi": 44,
          "time": 76.42118000000048,
          "velocity": 0.5039370078740157,
          "duration": 1.893424208333343
        },
        {
          "name": "C4",
          "midi": 60,
          "time": 76.49223275000048,
          "velocity": 0.5039370078740157,
          "duration": 1.1921072500000065
        },
        {
          "name": "A#2",
          "midi": 46,
          "time": 78.31592000000049,
          "velocity": 0.5039370078740157,
          "duration": 1.893424208333343
        },
        {
          "name": "C4",
          "midi": 60,
          "time": 78.3869727500005,
          "velocity": 0.5039370078740157,
          "duration": 1.8210556666666662
        },
        {
          "name": "G3",
          "midi": 55,
          "time": 80.2106600000005,
          "velocity": 0.5039370078740157,
          "duration": 1.893424208333343
        },
        {
          "name": "C4",
          "midi": 60,
          "time": 80.28171275000051,
          "velocity": 0.5039370078740157,
          "duration": 1.8210556666666662
        },
        {
          "name": "F3",
          "midi": 53,
          "time": 82.10540000000051,
          "velocity": 0.5039370078740157,
          "duration": 1.893424208333343
        },
        {
          "name": "A3",
          "midi": 57,
          "time": 82.17645275000052,
          "velocity": 0.5039370078740157,
          "duration": 1.8210556666666662
        },
        {
          "name": "C4",
          "midi": 60,
          "time": 82.24882129166718,
          "velocity": 0.5039370078740157,
          "duration": 1.7500029166666735
        },
        {
          "name": "G#2",
          "midi": 44,
          "time": 84.00014000000053,
          "velocity": 0.5039370078740157,
          "duration": 0.9460542083333365
        },
        {
          "name": "G3",
          "midi": 55,
          "time": 84.07119275000053,
          "velocity": 0.5039370078740157,
          "duration": 0.8736856666666597
        },
        {
          "name": "C4",
          "midi": 60,
          "time": 84.14487708333387,
          "velocity": 0.5039370078740157,
          "duration": 0.8000013333333271
        },
        {
          "name": "G3",
          "midi": 55,
          "time": 84.94751000000053,
          "velocity": 0.5039370078740157,
          "duration": 0.898685708333332
        },
        {
          "name": "C4",
          "midi": 60,
          "time": 84.94751000000053,
          "velocity": 0.5039370078740157,
          "duration": 0.898685708333332
        },
        {
          "name": "F3",
          "midi": 53,
          "time": 85.89488000000053,
          "velocity": 0.5039370078740157,
          "duration": 1.893424208333343
        },
        {
          "name": "A#3",
          "midi": 58,
          "time": 85.96593275000053,
          "velocity": 0.5039370078740157,
          "duration": 1.8210556666666662
        }
      ],
      "controlChanges": {
        "64": [
          {
            "number": 64,
            "time": 3.7921115833333316,
            "value": 1
          },
          {
            "number": 64,
            "time": 12.632915791666665,
            "value": 0
          },
          {
            "number": 64,
            "time": 12.634231583333332,
            "value": 1
          },
          {
            "number": 64,
            "time": 14.527655791666664,
            "value": 0
          },
          {
            "number": 64,
            "time": 14.52897158333333,
            "value": 1
          },
          {
            "number": 64,
            "time": 16.422395791666663,
            "value": 0
          },
          {
            "number": 64,
            "time": 16.42371158333333,
            "value": 1
          },
          {
            "number": 64,
            "time": 21.475035791666663,
            "value": 0
          },
          {
            "number": 64,
            "time": 29.055311583333328,
            "value": 1
          },
          {
            "number": 64,
            "time": 30.948735791666664,
            "value": 0
          },
          {
            "number": 64,
            "time": 30.95005158333333,
            "value": 1
          },
          {
            "number": 64,
            "time": 32.84347579166666,
            "value": 0
          },
          {
            "number": 64,
            "time": 32.84479158333333,
            "value": 1
          },
          {
            "number": 64,
            "time": 36.63295579166667,
            "value": 0
          },
          {
            "number": 64,
            "time": 51.79219158333332,
            "value": 1
          },
          {
            "number": 64,
            "time": 55.58035579166686,
            "value": 0
          },
          {
            "number": 64,
            "time": 55.58167158333353,
            "value": 1
          },
          {
            "number": 64,
            "time": 61.26457579166701,
            "value": 0
          },
          {
            "number": 64,
            "time": 61.26589158333368,
            "value": 1
          },
          {
            "number": 64,
            "time": 63.15931579166702,
            "value": 0
          },
          {
            "number": 64,
            "time": 63.16063158333369,
            "value": 1
          },
          {
            "number": 64,
            "time": 65.05405579166704,
            "value": 0
          },
          {
            "number": 64,
            "time": 65.05537158333371,
            "value": 1
          },
          {
            "number": 64,
            "time": 66.94879579166705,
            "value": 0
          },
          {
            "number": 64,
            "time": 66.95011158333372,
            "value": 1
          },
          {
            "number": 64,
            "time": 68.84353579166707,
            "value": 0
          },
          {
            "number": 64,
            "time": 68.84485158333374,
            "value": 1
          },
          {
            "number": 64,
            "time": 70.73827579166709,
            "value": 0
          },
          {
            "number": 64,
            "time": 70.73959158333376,
            "value": 1
          },
          {
            "number": 64,
            "time": 72.6330157916671,
            "value": 0
          },
          {
            "number": 64,
            "time": 72.63433158333378,
            "value": 1
          },
          {
            "number": 64,
            "time": 74.52775579166712,
            "value": 0
          },
          {
            "number": 64,
            "time": 74.52907158333379,
            "value": 1
          },
          {
            "number": 64,
            "time": 76.42249579166715,
            "value": 0
          },
          {
            "number": 64,
            "time": 76.42381158333382,
            "value": 1
          },
          {
            "number": 64,
            "time": 87.79093579166721,
            "value": 0
          }
        ]
      },
      "id": 2,
      "name": "Piano",
      "channelNumber": 3,
      "isPercussion": false
    }
  ]
}