{
  "header": {
    "PPQ": 480,
    "timeSignature": [
      4,
      4
    ],
    "bpm": 69.99998833333528,
    "name": ""
  },
  "tempo": [
    {
      "absoluteTime": 0,
      "seconds": 0,
      "bpm": 69.99998833333528
    },
    {
      "absoluteTime": 120240,
      "seconds": 214.7143214999999,
      "bpm": 65.99999340000066
    },
    {
      "absoluteTime": 120960,
      "seconds": 216.00003599999982,
      "bpm": 60
    }
  ],
  "timeSignature": [
    {
      "absoluteTime": 0,
      "seconds": 0,
      "numerator": 4,
      "denominator": 2,
      "click": 24,
      "notesQ": 8
    },
    {
      "absoluteTime": 88320,
      "seconds": 157.7143120000001,
      "numerator": 6,
      "denominator": 2,
      "click": 24,
      "notesQ": 8
    },
    {
      "absoluteTime": 91200,
      "seconds": 162.85717000000008,
      "numerator": 4,
      "denominator": 2,
      "click": 24,
      "notesQ": 8
    }
  ],
  "startTime": 0,
  "duration": 220.92682253541645,
  "tracks": [
    {
      "startTime": 0,
      "duration": 220.92682253541645,
      "length": 440,
      "notes": [
        {
          "name": "C#4",
          "midi": 61,
          "time": 0,
          "velocity": 0.5039370078740157,
          "duration": 0.857143
        },
        {
          "name": "F4",
          "midi": 65,
          "time": 0.064285725,
          "velocity": 0.5039370078740157,
          "duration": 3.3607148458333334
        },
        {
          "name": "A#4",
          "midi": 70,
          "time": 0.12857145,
          "velocity": 0.5039370078740157,
          "duration": 3.2964291208333334
        },
        {
          "name": "C#5",
          "midi": 73,
          "time": 0.19821431875,
          "velocity": 0.5039370078740157,
          "duration": 3.2267862520833335
        },
        {
          "name": "C#4",
          "midi": 61,
          "time": 0.857143,
          "velocity": 0.5039370078740157,
          "duration": 0.64285725
        },
        {
          "name": "C4",
          "midi": 60,
          "time": 1.2857145,
          "velocity": 0.5039370078740157,
          "duration": 0.2017857479166667
        },
        {
          "name": "C#4",
          "midi": 61,
          "time": 1.50000025,
          "velocity": 0.5039370078740157,
          "duration": 1.9267860354166666
        },
        {
          "name": "A#3",
          "midi": 58,
          "time": 2.1428575,
          "velocity": 0.5039370078740157,
          "duration": 0.4053572104166667
        },
        {
          "name": "A#3",
          "midi": 58,
          "time": 2.5714289999999997,
          "velocity": 0.5039370078740157,
          "duration": 0.8125001354166668
        },
        {
          "name": "A#3",
          "midi": 58,
          "time": 3.428572,
          "velocity": 0.5039370078740157,
          "duration": 0.3196429104166669
        },
        {
          "name": "C#4",
          "midi": 61,
          "time": 3.47142915,
          "velocity": 0.5039370078740157,
          "duration": 0.2750000458333335
        },
        {
          "name": "F4",
          "midi": 65,
          "time": 3.5142863,
          "velocity": 0.5039370078740157,
          "duration": 0.23214289583333336
        },
        {
          "name": "F4",
          "midi": 65,
          "time": 3.750000625,
          "velocity": 0.5039370078740157,
          "duration": 1.3214287916666665
        },
        {
          "name": "A#3",
          "midi": 58,
          "time": 5.5714295,
          "velocity": 0.5039370078740157,
          "duration": 0.20178574791666648
        },
        {
          "name": "A#3",
          "midi": 58,
          "time": 5.78571525,
          "velocity": 0.5039370078740157,
          "duration": 0.608928672916667
        },
        {
          "name": "F4",
          "midi": 65,
          "time": 6.4285725000000005,
          "velocity": 0.5039370078740157,
          "duration": 0.4053572104166667
        },
        {
          "name": "A#3",
          "midi": 58,
          "time": 6.857144000000001,
          "velocity": 0.5039370078740157,
          "duration": 1.7125002854166658
        },
        {
          "name": "D#4",
          "midi": 63,
          "time": 6.921429725000001,
          "velocity": 0.5039370078740157,
          "duration": 1.6464288458333325
        },
        {
          "name": "F#4",
          "midi": 66,
          "time": 6.9875011645833345,
          "velocity": 0.5039370078740157,
          "duration": 1.5803574062499992
        },
        {
          "name": "F4",
          "midi": 65,
          "time": 9.0000015,
          "velocity": 0.5039370078740157,
          "duration": 0.20178574791666648
        },
        {
          "name": "F4",
          "midi": 65,
          "time": 9.21428725,
          "velocity": 0.5039370078740157,
          "duration": 0.608928672916667
        },
        {
          "name": "F4",
          "midi": 65,
          "time": 9.8571445,
          "velocity": 0.5039370078740157,
          "duration": 0.8125001354166663
        },
        {
          "name": "A#4",
          "midi": 70,
          "time": 10.285716,
          "velocity": 0.5039370078740157,
          "duration": 1.6267859854166655
        },
        {
          "name": "A#3",
          "midi": 58,
          "time": 10.7142875,
          "velocity": 0.5039370078740157,
          "duration": 1.2196430604166668
        },
        {
          "name": "F#3",
          "midi": 54,
          "time": 12.000002,
          "velocity": 0.5039370078740157,
          "duration": 0.8125001354166663
        },
        {
          "name": "F3",
          "midi": 53,
          "time": 12.857145,
          "velocity": 0.5039370078740157,
          "duration": 0.8125001354166663
        },
        {
          "name": "C#4",
          "midi": 61,
          "time": 14.571430999999999,
          "velocity": 0.5039370078740157,
          "duration": 0.20178574791666648
        },
        {
          "name": "D#4",
          "midi": 63,
          "time": 14.785716749999999,
          "velocity": 0.5039370078740157,
          "duration": 0.20178574791666648
        },
        {
          "name": "C4",
          "midi": 60,
          "time": 15.000002499999999,
          "velocity": 0.5039370078740157,
          "duration": 0.40535721041666584
        },
        {
          "name": "C#4",
          "midi": 61,
          "time": 15.428573999999998,
          "velocity": 0.5039370078740157,
          "duration": 0.6089286729166652
        },
        {
          "name": "A#3",
          "midi": 58,
          "time": 16.071431249999996,
          "velocity": 0.5039370078740157,
          "duration": 0.20178574791666648
        },
        {
          "name": "F4",
          "midi": 65,
          "time": 16.285716999999995,
          "velocity": 0.5039370078740157,
          "duration": 0.6089286729166652
        },
        {
          "name": "C#4",
          "midi": 61,
          "time": 16.928574249999993,
          "velocity": 0.5039370078740157,
          "duration": 0.20178574791666648
        },
        {
          "name": "E4",
          "midi": 64,
          "time": 17.14285999999999,
          "velocity": 0.5039370078740157,
          "duration": 1.6267859854166673
        },
        {
          "name": "C#4",
          "midi": 61,
          "time": 19.285717499999993,
          "velocity": 0.5039370078740157,
          "duration": 0.4053572104166676
        },
        {
          "name": "C4",
          "midi": 60,
          "time": 19.714288999999994,
          "velocity": 0.5039370078740157,
          "duration": 0.4053572104166676
        },
        {
          "name": "A#3",
          "midi": 58,
          "time": 20.142860499999994,
          "velocity": 0.5039370078740157,
          "duration": 0.20178574791666648
        },
        {
          "name": "C#4",
          "midi": 61,
          "time": 20.357146249999992,
          "velocity": 0.5039370078740157,
          "duration": 1.8303574479166649
        },
        {
          "name": "D#4",
          "midi": 63,
          "time": 22.714289499999992,
          "velocity": 0.5039370078740157,
          "duration": 0.6089286729166652
        },
        {
          "name": "C#4",
          "midi": 61,
          "time": 23.35714674999999,
          "velocity": 0.5039370078740157,
          "duration": 0.4053572104166676
        },
        {
          "name": "C4",
          "midi": 60,
          "time": 23.78571824999999,
          "velocity": 0.5039370078740157,
          "duration": 1.4232145229166662
        },
        {
          "name": "A#3",
          "midi": 58,
          "time": 25.28571849999999,
          "velocity": 0.5039370078740157,
          "duration": 0.20178574791666648
        },
        {
          "name": "C4",
          "midi": 60,
          "time": 25.50000424999999,
          "velocity": 0.5039370078740157,
          "duration": 1.0160715979166675
        },
        {
          "name": "A#3",
          "midi": 58,
          "time": 27.00000449999999,
          "velocity": 0.5039370078740157,
          "duration": 0.4053572104166676
        },
        {
          "name": "F#4",
          "midi": 66,
          "time": 27.42857599999999,
          "velocity": 0.5039370078740157,
          "duration": 1.6267859854166673
        },
        {
          "name": "F4",
          "midi": 65,
          "time": 29.57143349999999,
          "velocity": 0.5039370078740157,
          "duration": 0.20178574791666648
        },
        {
          "name": "F4",
          "midi": 65,
          "time": 29.78571924999999,
          "velocity": 0.5039370078740157,
          "duration": 0.6089286729166652
        },
        {
          "name": "E4",
          "midi": 64,
          "time": 30.428576499999988,
          "velocity": 0.5039370078740157,
          "duration": 2.033928910416666
        },
        {
          "name": "C#4",
          "midi": 61,
          "time": 33.000005499999986,
          "velocity": 0.5039370078740157,
          "duration": 0.4053572104166676
        },
        {
          "name": "C4",
          "midi": 60,
          "time": 33.42857699999999,
          "velocity": 0.5039370078740157,
          "duration": 0.4053572104166676
        },
        {
          "name": "A#3",
          "midi": 58,
          "time": 33.857148499999994,
          "velocity": 0.5039370078740157,
          "duration": 0.4053572104166676
        },
        {
          "name": "F#3",
          "midi": 54,
          "time": 34.28572,
          "velocity": 0.5039370078740157,
          "duration": 0.8571429999999935
        },
        {
          "name": "A#3",
          "midi": 58,
          "time": 34.350005724999995,
          "velocity": 0.5039370078740157,
          "duration": 1.6464288458333272
        },
        {
          "name": "D#4",
          "midi": 63,
          "time": 34.41607716458333,
          "velocity": 0.5039370078740157,
          "duration": 1.5803574062499948
        },
        {
          "name": "C#4",
          "midi": 61,
          "time": 36.42857749999999,
          "velocity": 0.5039370078740157,
          "duration": 0.20178574791666648
        },
        {
          "name": "C#4",
          "midi": 61,
          "time": 36.64286324999999,
          "velocity": 0.5039370078740157,
          "duration": 0.6089286729166687
        },
        {
          "name": "C4",
          "midi": 60,
          "time": 37.28572049999999,
          "velocity": 0.5039370078740157,
          "duration": 2.0339289104166696
        },
        {
          "name": "A#3",
          "midi": 58,
          "time": 39.85714949999999,
          "velocity": 0.5039370078740157,
          "duration": 0.20178574791666648
        },
        {
          "name": "C#4",
          "midi": 61,
          "time": 40.07143524999999,
          "velocity": 0.5039370078740157,
          "duration": 0.6089286729166687
        },
        {
          "name": "C4",
          "midi": 60,
          "time": 40.71429249999999,
          "velocity": 0.5039370078740157,
          "duration": 0.4053572104166676
        },
        {
          "name": "F3",
          "midi": 53,
          "time": 41.142863999999996,
          "velocity": 0.5039370078740157,
          "duration": 2.4410718354166647
        },
        {
          "name": "A#3",
          "midi": 58,
          "time": 41.142863999999996,
          "velocity": 0.5039370078740157,
          "duration": 2.4410718354166647
        },
        {
          "name": "A#3",
          "midi": 58,
          "time": 43.71429299999999,
          "velocity": 0.5039370078740157,
          "duration": 0.8125001354166699
        },
        {
          "name": "D4",
          "midi": 62,
          "time": 43.71429299999999,
          "velocity": 0.5039370078740157,
          "duration": 0.8125001354166699
        },
        {
          "name": "C4",
          "midi": 60,
          "time": 44.57143599999999,
          "velocity": 0.5039370078740157,
          "duration": 1.219643060416665
        },
        {
          "name": "D#4",
          "midi": 63,
          "time": 44.57143599999999,
          "velocity": 0.5039370078740157,
          "duration": 1.6267859854166673
        },
        {
          "name": "A#3",
          "midi": 58,
          "time": 45.85715049999999,
          "velocity": 0.5039370078740157,
          "duration": 0.8125001354166699
        },
        {
          "name": "A#3",
          "midi": 58,
          "time": 46.71429349999999,
          "velocity": 0.5039370078740157,
          "duration": 0.20178574791666648
        },
        {
          "name": "C#4",
          "midi": 61,
          "time": 46.92857924999999,
          "velocity": 0.5039370078740157,
          "duration": 0.6089286729166687
        },
        {
          "name": "C4",
          "midi": 60,
          "time": 47.57143649999999,
          "velocity": 0.5039370078740157,
          "duration": 0.4053572104166676
        },
        {
          "name": "F3",
          "midi": 53,
          "time": 48.000007999999994,
          "velocity": 0.5039370078740157,
          "duration": 2.4410718354166647
        },
        {
          "name": "A#3",
          "midi": 58,
          "time": 48.000007999999994,
          "velocity": 0.5039370078740157,
          "duration": 2.4410718354166647
        },
        {
          "name": "A#3",
          "midi": 58,
          "time": 50.57143699999999,
          "velocity": 0.41732283464566927,
          "duration": 0.8125001354166699
        },
        {
          "name": "D4",
          "midi": 62,
          "time": 50.57143699999999,
          "velocity": 0.41732283464566927,
          "duration": 0.8125001354166699
        },
        {
          "name": "F#3",
          "midi": 54,
          "time": 51.42857999999999,
          "velocity": 0.3858267716535433,
          "duration": 0.855357285416666
        },
        {
          "name": "A#3",
          "midi": 58,
          "time": 51.49286572499999,
          "velocity": 0.3858267716535433,
          "duration": 0.7892858458333336
        },
        {
          "name": "D#4",
          "midi": 63,
          "time": 51.560722879166654,
          "velocity": 0.3858267716535433,
          "duration": 0.7214286916666666
        },
        {
          "name": "D#4",
          "midi": 63,
          "time": 52.28572299999999,
          "velocity": 0.3858267716535433,
          "duration": 0.20178574791666648
        },
        {
          "name": "F4",
          "midi": 65,
          "time": 52.50000874999999,
          "velocity": 0.3858267716535433,
          "duration": 0.20178574791666648
        },
        {
          "name": "F#4",
          "midi": 66,
          "time": 52.714294499999994,
          "velocity": 0.3858267716535433,
          "duration": 0.4053572104166676
        },
        {
          "name": "A#3",
          "midi": 58,
          "time": 53.142866,
          "velocity": 0.3858267716535433,
          "duration": 0.5410715187500017
        },
        {
          "name": "D4",
          "midi": 62,
          "time": 53.142866,
          "velocity": 0.3858267716535433,
          "duration": 0.5410715187500017
        },
        {
          "name": "F4",
          "midi": 65,
          "time": 53.71429466666667,
          "velocity": 0.3858267716535433,
          "duration": 0.5410715187500017
        },
        {
          "name": "D#4",
          "midi": 63,
          "time": 54.28572333333334,
          "velocity": 0.3858267716535433,
          "duration": 0.5410715187500017
        },
        {
          "name": "A#3",
          "midi": 58,
          "time": 54.857152000000006,
          "velocity": 0.3858267716535433,
          "duration": 0.855357285416666
        },
        {
          "name": "C#4",
          "midi": 61,
          "time": 54.921437725000004,
          "velocity": 0.3858267716535433,
          "duration": 0.7892858458333336
        },
        {
          "name": "G#4",
          "midi": 68,
          "time": 54.98929487916667,
          "velocity": 0.3858267716535433,
          "duration": 0.7214286916666666
        },
        {
          "name": "F#4",
          "midi": 66,
          "time": 55.71429500000001,
          "velocity": 0.3858267716535433,
          "duration": 0.20178574791666648
        },
        {
          "name": "F4",
          "midi": 65,
          "time": 55.92858075000001,
          "velocity": 0.3858267716535433,
          "duration": 0.20178574791666648
        },
        {
          "name": "F#4",
          "midi": 66,
          "time": 56.14286650000001,
          "velocity": 0.3858267716535433,
          "duration": 0.9482144437499969
        },
        {
          "name": "D#4",
          "midi": 63,
          "time": 56.57143800000001,
          "velocity": 0.3858267716535433,
          "duration": 0.5410715187500017
        },
        {
          "name": "F4",
          "midi": 65,
          "time": 57.14286666666668,
          "velocity": 0.4094488188976378,
          "duration": 0.5410715187500017
        },
        {
          "name": "D#4",
          "midi": 63,
          "time": 57.71429533333335,
          "velocity": 0.4330708661417323,
          "duration": 0.5410715187500017
        },
        {
          "name": "C4",
          "midi": 60,
          "time": 58.285724000000016,
          "velocity": 0.4566929133858268,
          "duration": 0.8125001354166699
        },
        {
          "name": "C#4",
          "midi": 61,
          "time": 59.14286700000002,
          "velocity": 0.49606299212598426,
          "duration": 0.8125001354166699
        },
        {
          "name": "D#4",
          "midi": 63,
          "time": 60.00001000000002,
          "velocity": 0.5275590551181102,
          "duration": 0.8125001354166699
        },
        {
          "name": "F4",
          "midi": 65,
          "time": 60.85715300000002,
          "velocity": 0.5669291338582677,
          "duration": 0.4053572104166676
        },
        {
          "name": "F4",
          "midi": 65,
          "time": 61.28572450000002,
          "velocity": 0.5826771653543307,
          "duration": 0.8125001354166699
        },
        {
          "name": "A#3",
          "midi": 58,
          "time": 62.14286750000002,
          "velocity": 0.6220472440944882,
          "duration": 0.8125001354166699
        },
        {
          "name": "A#4",
          "midi": 70,
          "time": 62.14286750000002,
          "velocity": 0.6220472440944882,
          "duration": 0.8125001354166699
        },
        {
          "name": "C4",
          "midi": 60,
          "time": 63.00001050000002,
          "velocity": 0.6614173228346457,
          "duration": 0.8125001354166699
        },
        {
          "name": "F4",
          "midi": 65,
          "time": 63.00001050000002,
          "velocity": 0.6614173228346457,
          "duration": 0.8125001354166699
        },
        {
          "name": "C5",
          "midi": 72,
          "time": 63.00001050000002,
          "velocity": 0.6614173228346457,
          "duration": 0.8125001354166699
        },
        {
          "name": "C#4",
          "midi": 61,
          "time": 63.857153500000024,
          "velocity": 0.6929133858267716,
          "duration": 0.8125001354166699
        },
        {
          "name": "C#5",
          "midi": 73,
          "time": 63.857153500000024,
          "velocity": 0.6929133858267716,
          "duration": 0.8125001354166699
        },
        {
          "name": "A#3",
          "midi": 58,
          "time": 64.71429650000003,
          "velocity": 0.7322834645669292,
          "duration": 0.8125001354166699
        },
        {
          "name": "A#4",
          "midi": 70,
          "time": 64.71429650000003,
          "velocity": 0.7322834645669292,
          "duration": 0.8125001354166699
        },
        {
          "name": "A#3",
          "midi": 58,
          "time": 66.00001100000003,
          "velocity": 0.7559055118110236,
          "duration": 0.4053572104166676
        },
        {
          "name": "C4",
          "midi": 60,
          "time": 66.42858250000003,
          "velocity": 0.7559055118110236,
          "duration": 0.4053572104166676
        },
        {
          "name": "C#4",
          "midi": 61,
          "time": 66.85715400000004,
          "velocity": 0.7559055118110236,
          "duration": 0.20178574791667359
        },
        {
          "name": "D#4",
          "midi": 63,
          "time": 67.07143975000004,
          "velocity": 0.7559055118110236,
          "duration": 0.4053572104166676
        },
        {
          "name": "C#4",
          "midi": 61,
          "time": 67.50001125000004,
          "velocity": 0.7559055118110236,
          "duration": 0.6089286729166616
        },
        {
          "name": "A#3",
          "midi": 58,
          "time": 68.14286850000003,
          "velocity": 0.7559055118110236,
          "duration": 0.20178574791667359
        },
        {
          "name": "F4",
          "midi": 65,
          "time": 68.35715425000004,
          "velocity": 0.7559055118110236,
          "duration": 1.8303574479166684
        },
        {
          "name": "A#3",
          "midi": 58,
          "time": 70.71429750000004,
          "velocity": 0.7559055118110236,
          "duration": 0.20178574791667359
        },
        {
          "name": "A#3",
          "midi": 58,
          "time": 70.92858325000005,
          "velocity": 0.7559055118110236,
          "duration": 0.6089286729166616
        },
        {
          "name": "F4",
          "midi": 65,
          "time": 71.57144050000004,
          "velocity": 0.7559055118110236,
          "duration": 0.20178574791667359
        },
        {
          "name": "F#4",
          "midi": 66,
          "time": 71.78572625000004,
          "velocity": 0.7559055118110236,
          "duration": 1.8303574479166684
        },
        {
          "name": "F4",
          "midi": 65,
          "time": 74.14286950000005,
          "velocity": 0.7559055118110236,
          "duration": 0.20178574791667359
        },
        {
          "name": "F4",
          "midi": 65,
          "time": 74.35715525000005,
          "velocity": 0.7559055118110236,
          "duration": 0.6089286729166616
        },
        {
          "name": "F4",
          "midi": 65,
          "time": 75.00001250000004,
          "velocity": 0.7559055118110236,
          "duration": 1.6267859854166602
        },
        {
          "name": "A#3",
          "midi": 58,
          "time": 76.71429850000003,
          "velocity": 0.7559055118110236,
          "duration": 0.4285715000000039
        },
        {
          "name": "A#3",
          "midi": 58,
          "time": 79.71429900000003,
          "velocity": 0.7559055118110236,
          "duration": 0.4053572104166676
        },
        {
          "name": "C4",
          "midi": 60,
          "time": 80.14287050000003,
          "velocity": 0.7559055118110236,
          "duration": 0.4053572104166676
        },
        {
          "name": "C#4",
          "midi": 61,
          "time": 80.57144200000003,
          "velocity": 0.7559055118110236,
          "duration": 0.20178574791667359
        },
        {
          "name": "D#4",
          "midi": 63,
          "time": 80.78572775000004,
          "velocity": 0.7559055118110236,
          "duration": 0.4053572104166676
        },
        {
          "name": "F4",
          "midi": 65,
          "time": 81.21429925000004,
          "velocity": 0.7559055118110236,
          "duration": 0.6089286729166616
        },
        {
          "name": "C#4",
          "midi": 61,
          "time": 81.85715650000003,
          "velocity": 0.7559055118110236,
          "duration": 0.20178574791667359
        },
        {
          "name": "E4",
          "midi": 64,
          "time": 82.07144225000003,
          "velocity": 0.7559055118110236,
          "duration": 1.8303574479166684
        },
        {
          "name": "C#4",
          "midi": 61,
          "time": 84.42858550000004,
          "velocity": 0.7559055118110236,
          "duration": 0.20178574791667359
        },
        {
          "name": "C4",
          "midi": 60,
          "time": 84.64287125000004,
          "velocity": 0.7559055118110236,
          "duration": 0.6089286729166616
        },
        {
          "name": "A#3",
          "midi": 58,
          "time": 85.28572850000003,
          "velocity": 0.7559055118110236,
          "duration": 0.4053572104166676
        },
        {
          "name": "C#4",
          "midi": 61,
          "time": 85.71430000000004,
          "velocity": 0.7559055118110236,
          "duration": 1.6267859854166602
        },
        {
          "name": "D#4",
          "midi": 63,
          "time": 87.85715750000003,
          "velocity": 0.7559055118110236,
          "duration": 0.4053572104166676
        },
        {
          "name": "C#4",
          "midi": 61,
          "time": 88.28572900000003,
          "velocity": 0.7559055118110236,
          "duration": 0.6089286729166616
        },
        {
          "name": "A#3",
          "midi": 58,
          "time": 88.92858625000002,
          "velocity": 0.7559055118110236,
          "duration": 0.20178574791667359
        },
        {
          "name": "C#4",
          "midi": 61,
          "time": 89.14287200000003,
          "velocity": 0.7559055118110236,
          "duration": 1.2196430604166721
        },
        {
          "name": "C4",
          "midi": 60,
          "time": 90.42858650000004,
          "velocity": 0.7559055118110236,
          "duration": 0.4053572104166676
        },
        {
          "name": "C4",
          "midi": 60,
          "time": 90.85715800000004,
          "velocity": 0.7559055118110236,
          "duration": 0.8125001354166699
        },
        {
          "name": "A#3",
          "midi": 58,
          "time": 92.14287250000004,
          "velocity": 0.7559055118110236,
          "duration": 0.4053572104166676
        },
        {
          "name": "B3",
          "midi": 59,
          "time": 92.57144400000004,
          "velocity": 0.7559055118110236,
          "duration": 1.7125002854166809
        },
        {
          "name": "D#4",
          "midi": 63,
          "time": 92.63572972500005,
          "velocity": 0.7559055118110236,
          "duration": 0.7928572750000029
        },
        {
          "name": "F#4",
          "midi": 66,
          "time": 92.70180116458339,
          "velocity": 0.7559055118110236,
          "duration": 1.5803574062500019
        },
        {
          "name": "F4",
          "midi": 65,
          "time": 94.71430150000006,
          "velocity": 0.7559055118110236,
          "duration": 0.20178574791667359
        },
        {
          "name": "F4",
          "midi": 65,
          "time": 94.92858725000006,
          "velocity": 0.7559055118110236,
          "duration": 0.6089286729166616
        },
        {
          "name": "E4",
          "midi": 64,
          "time": 95.57144450000006,
          "velocity": 0.7559055118110236,
          "duration": 2.0339289104166625
        },
        {
          "name": "C#4",
          "midi": 61,
          "time": 98.14287350000005,
          "velocity": 0.7559055118110236,
          "duration": 0.4053572104166676
        },
        {
          "name": "C4",
          "midi": 60,
          "time": 98.57144500000005,
          "velocity": 0.7559055118110236,
          "duration": 0.4053572104166676
        },
        {
          "name": "A#3",
          "midi": 58,
          "time": 99.00001650000006,
          "velocity": 0.7559055118110236,
          "duration": 0.4053572104166676
        },
        {
          "name": "D#4",
          "midi": 63,
          "time": 100.28573100000006,
          "velocity": 0.7559055118110236,
          "duration": 0.8125001354166699
        },
        {
          "name": "C#4",
          "midi": 61,
          "time": 101.57144550000005,
          "velocity": 0.7559055118110236,
          "duration": 0.20178574791667359
        },
        {
          "name": "C#4",
          "midi": 61,
          "time": 101.78573125000005,
          "velocity": 0.7559055118110236,
          "duration": 0.6089286729166616
        },
        {
          "name": "C4",
          "midi": 60,
          "time": 102.42858850000005,
          "velocity": 0.7559055118110236,
          "duration": 2.0339289104166625
        },
        {
          "name": "A#3",
          "midi": 58,
          "time": 105.00001750000004,
          "velocity": 0.7559055118110236,
          "duration": 0.20178574791667359
        },
        {
          "name": "C#4",
          "midi": 61,
          "time": 105.21430325000004,
          "velocity": 0.7559055118110236,
          "duration": 0.6089286729166616
        },
        {
          "name": "C4",
          "midi": 60,
          "time": 105.85716050000003,
          "velocity": 0.7559055118110236,
          "duration": 0.4053572104166676
        },
        {
          "name": "A#3",
          "midi": 58,
          "time": 106.28573200000004,
          "velocity": 0.7559055118110236,
          "duration": 0.4053572104166676
        },
        {
          "name": "A#3",
          "midi": 58,
          "time": 106.71430350000004,
          "velocity": 0.3858267716535433,
          "duration": 0.20178574791667359
        },
        {
          "name": "F4",
          "midi": 65,
          "time": 106.92858925000004,
          "velocity": 0.3858267716535433,
          "duration": 0.20178574791667359
        },
        {
          "name": "D#4",
          "midi": 63,
          "time": 107.14287500000005,
          "velocity": 0.3858267716535433,
          "duration": 0.20178574791667359
        },
        {
          "name": "F4",
          "midi": 65,
          "time": 107.35716075000005,
          "velocity": 0.3858267716535433,
          "duration": 0.20178574791667359
        },
        {
          "name": "A#3",
          "midi": 58,
          "time": 107.57144650000005,
          "velocity": 0.3858267716535433,
          "duration": 0.20178574791667359
        },
        {
          "name": "F4",
          "midi": 65,
          "time": 107.78573225000005,
          "velocity": 0.3858267716535433,
          "duration": 0.20178574791667359
        },
        {
          "name": "C#4",
          "midi": 61,
          "time": 108.00001800000005,
          "velocity": 0.3858267716535433,
          "duration": 0.20178574791667359
        },
        {
          "name": "F4",
          "midi": 65,
          "time": 108.21430375000006,
          "velocity": 0.3858267716535433,
          "duration": 0.20178574791667359
        },
        {
          "name": "A#3",
          "midi": 58,
          "time": 108.42858950000006,
          "velocity": 0.3858267716535433,
          "duration": 0.20178574791667359
        },
        {
          "name": "F4",
          "midi": 65,
          "time": 108.64287525000006,
          "velocity": 0.3858267716535433,
          "duration": 0.20178574791667359
        },
        {
          "name": "C4",
          "midi": 60,
          "time": 108.85716100000006,
          "velocity": 0.3858267716535433,
          "duration": 0.20178574791667359
        },
        {
          "name": "F4",
          "midi": 65,
          "time": 109.07144675000006,
          "velocity": 0.3858267716535433,
          "duration": 0.20178574791667359
        },
        {
          "name": "A#3",
          "midi": 58,
          "time": 109.28573250000007,
          "velocity": 0.3858267716535433,
          "duration": 0.4053572104166676
        },
        {
          "name": "C4",
          "midi": 60,
          "time": 109.71430400000007,
          "velocity": 0.6299212598425197,
          "duration": 1.283928785416677
        },
        {
          "name": "A#3",
          "midi": 58,
          "time": 110.14287550000007,
          "velocity": 0.3858267716535433,
          "duration": 0.20178574791667359
        },
        {
          "name": "F4",
          "midi": 65,
          "time": 110.35716125000008,
          "velocity": 0.3858267716535433,
          "duration": 0.20178574791667359
        },
        {
          "name": "D#4",
          "midi": 63,
          "time": 110.57144700000008,
          "velocity": 0.3858267716535433,
          "duration": 0.20178574791667359
        },
        {
          "name": "F4",
          "midi": 65,
          "time": 110.78573275000008,
          "velocity": 0.3858267716535433,
          "duration": 0.20178574791667359
        },
        {
          "name": "A#3",
          "midi": 58,
          "time": 111.00001850000008,
          "velocity": 0.6299212598425197,
          "duration": 0.8339287104166715
        },
        {
          "name": "A#3",
          "midi": 58,
          "time": 111.85716150000009,
          "velocity": 0.6299212598425197,
          "duration": 0.20178574791667359
        },
        {
          "name": "C#4",
          "midi": 61,
          "time": 112.07144725000009,
          "velocity": 0.6299212598425197,
          "duration": 0.20178574791667359
        },
        {
          "name": "C4",
          "midi": 60,
          "time": 112.28573300000009,
          "velocity": 0.6299212598425197,
          "duration": 0.4053572104166676
        },
        {
          "name": "A#3",
          "midi": 58,
          "time": 112.7143045000001,
          "velocity": 0.6299212598425197,
          "duration": 0.20178574791667359
        },
        {
          "name": "A#3",
          "midi": 58,
          "time": 112.9285902500001,
          "velocity": 0.6299212598425197,
          "duration": 0.6089286729166616
        },
        {
          "name": "A#3",
          "midi": 58,
          "time": 113.57144750000009,
          "velocity": 0.3858267716535433,
          "duration": 0.20178574791667359
        },
        {
          "name": "F4",
          "midi": 65,
          "time": 113.78573325000009,
          "velocity": 0.3858267716535433,
          "duration": 0.20178574791667359
        },
        {
          "name": "D#4",
          "midi": 63,
          "time": 114.0000190000001,
          "velocity": 0.3858267716535433,
          "duration": 0.20178574791667359
        },
        {
          "name": "F4",
          "midi": 65,
          "time": 114.2143047500001,
          "velocity": 0.3858267716535433,
          "duration": 0.20178574791667359
        },
        {
          "name": "A#3",
          "midi": 58,
          "time": 114.4285905000001,
          "velocity": 0.3858267716535433,
          "duration": 0.20178574791667359
        },
        {
          "name": "F4",
          "midi": 65,
          "time": 114.6428762500001,
          "velocity": 0.3858267716535433,
          "duration": 0.20178574791667359
        },
        {
          "name": "C#4",
          "midi": 61,
          "time": 114.8571620000001,
          "velocity": 0.3858267716535433,
          "duration": 0.20178574791667359
        },
        {
          "name": "F4",
          "midi": 65,
          "time": 115.0714477500001,
          "velocity": 0.3858267716535433,
          "duration": 0.20178574791667359
        },
        {
          "name": "A#3",
          "midi": 58,
          "time": 115.2857335000001,
          "velocity": 0.3858267716535433,
          "duration": 0.20178574791667359
        },
        {
          "name": "F4",
          "midi": 65,
          "time": 115.50001925000011,
          "velocity": 0.3858267716535433,
          "duration": 0.20178574791667359
        },
        {
          "name": "C4",
          "midi": 60,
          "time": 115.71430500000011,
          "velocity": 0.3858267716535433,
          "duration": 0.20178574791667359
        },
        {
          "name": "F4",
          "midi": 65,
          "time": 115.92859075000011,
          "velocity": 0.3858267716535433,
          "duration": 0.20178574791667359
        },
        {
          "name": "A#3",
          "midi": 58,
          "time": 116.14287650000011,
          "velocity": 0.3858267716535433,
          "duration": 0.4053572104166676
        },
        {
          "name": "A#3",
          "midi": 58,
          "time": 116.57144800000012,
          "velocity": 0.3858267716535433,
          "duration": 0.4053572104166676
        },
        {
          "name": "A#3",
          "midi": 58,
          "time": 117.00001950000012,
          "velocity": 0.3858267716535433,
          "duration": 0.20178574791667359
        },
        {
          "name": "F4",
          "midi": 65,
          "time": 117.21430525000012,
          "velocity": 0.3858267716535433,
          "duration": 0.20178574791667359
        },
        {
          "name": "D#4",
          "midi": 63,
          "time": 117.42859100000013,
          "velocity": 0.3858267716535433,
          "duration": 0.20178574791667359
        },
        {
          "name": "F4",
          "midi": 65,
          "time": 117.64287675000013,
          "velocity": 0.3858267716535433,
          "duration": 0.20178574791667359
        },
        {
          "name": "A#3",
          "midi": 58,
          "time": 117.85716250000013,
          "velocity": 0.3858267716535433,
          "duration": 0.20178574791667359
        },
        {
          "name": "F4",
          "midi": 65,
          "time": 118.07144825000013,
          "velocity": 0.3858267716535433,
          "duration": 0.20178574791667359
        },
        {
          "name": "C#4",
          "midi": 61,
          "time": 118.28573400000013,
          "velocity": 0.3858267716535433,
          "duration": 0.20178574791667359
        },
        {
          "name": "F4",
          "midi": 65,
          "time": 118.50001975000013,
          "velocity": 0.3858267716535433,
          "duration": 0.20178574791667359
        },
        {
          "name": "A#3",
          "midi": 58,
          "time": 118.71430550000014,
          "velocity": 0.3858267716535433,
          "duration": 0.20178574791667359
        },
        {
          "name": "F4",
          "midi": 65,
          "time": 118.92859125000014,
          "velocity": 0.3858267716535433,
          "duration": 0.20178574791667359
        },
        {
          "name": "C4",
          "midi": 60,
          "time": 119.14287700000014,
          "velocity": 0.3858267716535433,
          "duration": 0.20178574791667359
        },
        {
          "name": "F4",
          "midi": 65,
          "time": 119.35716275000014,
          "velocity": 0.3858267716535433,
          "duration": 0.20178574791667359
        },
        {
          "name": "A#3",
          "midi": 58,
          "time": 119.57144850000014,
          "velocity": 0.3858267716535433,
          "duration": 0.20178574791667359
        },
        {
          "name": "F4",
          "midi": 65,
          "time": 119.78573425000015,
          "velocity": 0.3858267716535433,
          "duration": 0.20178574791667359
        },
        {
          "name": "F4",
          "midi": 65,
          "time": 120.64287725000015,
          "velocity": 0.6299212598425197,
          "duration": 0.4053572104166676
        },
        {
          "name": "D#4",
          "midi": 63,
          "time": 121.07144875000016,
          "velocity": 0.6299212598425197,
          "duration": 0.20178574791667359
        },
        {
          "name": "F4",
          "midi": 65,
          "time": 121.28573450000016,
          "velocity": 0.6299212598425197,
          "duration": 0.20178574791667359
        },
        {
          "name": "D#4",
          "midi": 63,
          "time": 121.50002025000016,
          "velocity": 0.6299212598425197,
          "duration": 0.20178574791667359
        },
        {
          "name": "F4",
          "midi": 65,
          "time": 121.71430600000016,
          "velocity": 0.6299212598425197,
          "duration": 0.6089286729166616
        },
        {
          "name": "A#3",
          "midi": 58,
          "time": 122.35716325000016,
          "velocity": 0.6299212598425197,
          "duration": 0.20178574791667359
        },
        {
          "name": "A#3",
          "midi": 58,
          "time": 122.57144900000016,
          "velocity": 0.6299212598425197,
          "duration": 0.2696429020833335
        },
        {
          "name": "F4",
          "midi": 65,
          "time": 122.85716333333349,
          "velocity": 0.6299212598425197,
          "duration": 0.2696429020833335
        },
        {
          "name": "F4",
          "midi": 65,
          "time": 123.14287766666682,
          "velocity": 0.6299212598425197,
          "duration": 1.8982146020833284
        },
        {
          "name": "F4",
          "midi": 65,
          "time": 125.57144950000014,
          "velocity": 0.6299212598425197,
          "duration": 0.20178574791667359
        },
        {
          "name": "G#4",
          "midi": 68,
          "time": 125.78573525000014,
          "velocity": 0.6299212598425197,
          "duration": 0.4053572104166676
        },
        {
          "name": "A#4",
          "midi": 70,
          "time": 126.21430675000015,
          "velocity": 0.6299212598425197,
          "duration": 0.6089286729166616
        },
        {
          "name": "F#4",
          "midi": 66,
          "time": 126.85716400000014,
          "velocity": 0.6299212598425197,
          "duration": 0.8125001354166699
        },
        {
          "name": "F#4",
          "midi": 66,
          "time": 127.71430700000015,
          "velocity": 0.6299212598425197,
          "duration": 0.20178574791667359
        },
        {
          "name": "F4",
          "midi": 65,
          "time": 127.92859275000015,
          "velocity": 0.6299212598425197,
          "duration": 0.20178574791665937
        },
        {
          "name": "F#4",
          "midi": 66,
          "time": 128.14287850000014,
          "velocity": 0.6299212598425197,
          "duration": 0.4053572104166676
        },
        {
          "name": "F#4",
          "midi": 66,
          "time": 128.57145000000014,
          "velocity": 0.6299212598425197,
          "duration": 0.20178574791665937
        },
        {
          "name": "F4",
          "midi": 65,
          "time": 128.78573575000013,
          "velocity": 0.6299212598425197,
          "duration": 0.6089286729166759
        },
        {
          "name": "F4",
          "midi": 65,
          "time": 129.42859300000015,
          "velocity": 0.6299212598425197,
          "duration": 0.20178574791665937
        },
        {
          "name": "D#4",
          "midi": 63,
          "time": 129.64287875000014,
          "velocity": 0.6299212598425197,
          "duration": 0.20178574791665937
        },
        {
          "name": "F#4",
          "midi": 66,
          "time": 129.85716450000012,
          "velocity": 0.6299212598425197,
          "duration": 1.2196430604166721
        },
        {
          "name": "D#4",
          "midi": 63,
          "time": 131.14287900000014,
          "velocity": 0.6299212598425197,
          "duration": 0.20178574791665937
        },
        {
          "name": "F4",
          "midi": 65,
          "time": 131.35716475000012,
          "velocity": 0.6299212598425197,
          "duration": 0.20178574791665937
        },
        {
          "name": "F4",
          "midi": 65,
          "time": 131.5714505000001,
          "velocity": 0.6299212598425197,
          "duration": 0.8125001354166557
        },
        {
          "name": "A#3",
          "midi": 58,
          "time": 132.4285935000001,
          "velocity": 0.6299212598425197,
          "duration": 0.20178574791665937
        },
        {
          "name": "C4",
          "midi": 60,
          "time": 132.64287925000008,
          "velocity": 0.6299212598425197,
          "duration": 0.4053572104166676
        },
        {
          "name": "C4",
          "midi": 60,
          "time": 133.07145075000008,
          "velocity": 0.6299212598425197,
          "duration": 0.20178574791665937
        },
        {
          "name": "C4",
          "midi": 60,
          "time": 133.28573650000007,
          "velocity": 0.6299212598425197,
          "duration": 0.20178574791665937
        },
        {
          "name": "A#3",
          "midi": 58,
          "time": 133.50002225000006,
          "velocity": 0.6299212598425197,
          "duration": 1.016071597916664
        },
        {
          "name": "C#4",
          "midi": 61,
          "time": 134.57145100000005,
          "velocity": 0.6299212598425197,
          "duration": 0.20178574791665937
        },
        {
          "name": "D#4",
          "midi": 63,
          "time": 134.78573675000004,
          "velocity": 0.6299212598425197,
          "duration": 0.20178574791665937
        },
        {
          "name": "C4",
          "midi": 60,
          "time": 135.00002250000003,
          "velocity": 0.6299212598425197,
          "duration": 0.4053572104166676
        },
        {
          "name": "C#4",
          "midi": 61,
          "time": 135.42859400000003,
          "velocity": 0.6299212598425197,
          "duration": 0.6089286729166759
        },
        {
          "name": "C#4",
          "midi": 61,
          "time": 136.07145125000005,
          "velocity": 0.6299212598425197,
          "duration": 0.20178574791665937
        },
        {
          "name": "A#4",
          "midi": 70,
          "time": 136.28573700000004,
          "velocity": 0.6299212598425197,
          "duration": 0.5410715187499875
        },
        {
          "name": "F4",
          "midi": 65,
          "time": 136.8571656666667,
          "velocity": 0.6299212598425197,
          "duration": 0.6767858270833358
        },
        {
          "name": "E4",
          "midi": 64,
          "time": 137.57145150000005,
          "velocity": 0.6299212598425197,
          "duration": 1.2196430604166721
        },
        {
          "name": "C#4",
          "midi": 61,
          "time": 139.28573750000007,
          "velocity": 0.6299212598425197,
          "duration": 0.4053572104166676
        },
        {
          "name": "C4",
          "midi": 60,
          "time": 139.71430900000007,
          "velocity": 0.6299212598425197,
          "duration": 0.4053572104166676
        },
        {
          "name": "A#3",
          "midi": 58,
          "time": 140.14288050000008,
          "velocity": 0.6299212598425197,
          "duration": 0.4053572104166676
        },
        {
          "name": "C#4",
          "midi": 61,
          "time": 140.57145200000008,
          "velocity": 0.6299212598425197,
          "duration": 0.8125001354166557
        },
        {
          "name": "D#4",
          "midi": 63,
          "time": 141.64288075000007,
          "velocity": 0.6456692913385826,
          "duration": 0.20178574791665937
        },
        {
          "name": "C4",
          "midi": 60,
          "time": 141.85716650000006,
          "velocity": 0.6535433070866141,
          "duration": 0.20178574791665937
        },
        {
          "name": "C#4",
          "midi": 61,
          "time": 142.07145225000005,
          "velocity": 0.6535433070866141,
          "duration": 0.6089286729166759
        },
        {
          "name": "D#4",
          "midi": 63,
          "time": 142.71430950000007,
          "velocity": 0.6692913385826772,
          "duration": 0.6089286729166759
        },
        {
          "name": "F4",
          "midi": 65,
          "time": 143.3571667500001,
          "velocity": 0.6771653543307087,
          "duration": 0.6089286729166759
        },
        {
          "name": "C4",
          "midi": 60,
          "time": 144.0000240000001,
          "velocity": 0.6929133858267716,
          "duration": 1.2196430604166721
        },
        {
          "name": "F3",
          "midi": 53,
          "time": 145.28573850000012,
          "velocity": 0.7165354330708661,
          "duration": 0.20178574791665937
        },
        {
          "name": "F4",
          "midi": 65,
          "time": 145.28573850000012,
          "velocity": 0.7165354330708661,
          "duration": 0.20178574791665937
        },
        {
          "name": "A3",
          "midi": 57,
          "time": 145.5000242500001,
          "velocity": 0.7165354330708661,
          "duration": 1.4232145229166804
        },
        {
          "name": "A4",
          "midi": 69,
          "time": 145.5000242500001,
          "velocity": 0.7165354330708661,
          "duration": 1.4232145229166804
        },
        {
          "name": "A3",
          "midi": 57,
          "time": 147.00002450000014,
          "velocity": 0.7480314960629921,
          "duration": 0.20178574791665937
        },
        {
          "name": "A4",
          "midi": 69,
          "time": 147.00002450000014,
          "velocity": 0.7480314960629921,
          "duration": 0.20178574791665937
        },
        {
          "name": "A#3",
          "midi": 58,
          "time": 147.21431025000012,
          "velocity": 0.7559055118110236,
          "duration": 1.016071597916664
        },
        {
          "name": "A#4",
          "midi": 70,
          "time": 147.21431025000012,
          "velocity": 0.7559055118110236,
          "duration": 1.016071597916664
        },
        {
          "name": "A#3",
          "midi": 58,
          "time": 148.28573900000012,
          "velocity": 0.6299212598425197,
          "duration": 0.20178574791665937
        },
        {
          "name": "C4",
          "midi": 60,
          "time": 148.5000247500001,
          "velocity": 0.6299212598425197,
          "duration": 0.20178574791665937
        },
        {
          "name": "C#4",
          "midi": 61,
          "time": 148.7143105000001,
          "velocity": 0.6299212598425197,
          "duration": 0.8125001354166557
        },
        {
          "name": "C4",
          "midi": 60,
          "time": 149.57145350000008,
          "velocity": 0.6299212598425197,
          "duration": 0.6089286729166759
        },
        {
          "name": "A#3",
          "midi": 58,
          "time": 150.2143107500001,
          "velocity": 0.6299212598425197,
          "duration": 0.6089286729166759
        },
        {
          "name": "D#4",
          "midi": 63,
          "time": 150.85716800000012,
          "velocity": 0.6299212598425197,
          "duration": 0.4053572104166676
        },
        {
          "name": "C#4",
          "midi": 61,
          "time": 151.28573950000012,
          "velocity": 0.6299212598425197,
          "duration": 0.4053572104166676
        },
        {
          "name": "C#4",
          "midi": 61,
          "time": 151.71431100000012,
          "velocity": 0.6299212598425197,
          "duration": 0.20178574791665937
        },
        {
          "name": "C4",
          "midi": 60,
          "time": 151.9285967500001,
          "velocity": 0.6299212598425197,
          "duration": 0.20178574791665937
        },
        {
          "name": "C#4",
          "midi": 61,
          "time": 152.1428825000001,
          "velocity": 0.6299212598425197,
          "duration": 0.4053572104166676
        },
        {
          "name": "C4",
          "midi": 60,
          "time": 153.0000255000001,
          "velocity": 0.6299212598425197,
          "duration": 0.6089286729166759
        },
        {
          "name": "A#3",
          "midi": 58,
          "time": 153.64288275000013,
          "velocity": 0.6299212598425197,
          "duration": 0.6089286729166759
        },
        {
          "name": "A3",
          "midi": 57,
          "time": 154.28574000000015,
          "velocity": 0.6299212598425197,
          "duration": 0.8125001354166557
        },
        {
          "name": "A#3",
          "midi": 58,
          "time": 155.14288300000013,
          "velocity": 0.6456692913385826,
          "duration": 0.8125001354166557
        },
        {
          "name": "C4",
          "midi": 60,
          "time": 156.0000260000001,
          "velocity": 0.6692913385826772,
          "duration": 0.8125001354166557
        },
        {
          "name": "A#2",
          "midi": 46,
          "time": 156.85716900000008,
          "velocity": 0.6929133858267716,
          "duration": 0.4053572104166676
        },
        {
          "name": "A#3",
          "midi": 58,
          "time": 156.85716900000008,
          "velocity": 0.6929133858267716,
          "duration": 0.4053572104166676
        },
        {
          "name": "C3",
          "midi": 48,
          "time": 157.2857405000001,
          "velocity": 0.7086614173228346,
          "duration": 0.8125001354166841
        },
        {
          "name": "C4",
          "midi": 60,
          "time": 157.2857405000001,
          "velocity": 0.7086614173228346,
          "duration": 0.8125001354166841
        },
        {
          "name": "A#2",
          "midi": 46,
          "time": 158.1428835000001,
          "velocity": 0.7322834645669292,
          "duration": 0.8125001354166557
        },
        {
          "name": "A#3",
          "midi": 58,
          "time": 158.1428835000001,
          "velocity": 0.7322834645669292,
          "duration": 0.8125001354166557
        },
        {
          "name": "C#3",
          "midi": 49,
          "time": 159.00002650000008,
          "velocity": 0.7559055118110236,
          "duration": 2.848214760416653
        },
        {
          "name": "F3",
          "midi": 53,
          "time": 159.00002650000008,
          "velocity": 0.7559055118110236,
          "duration": 2.848214760416653
        },
        {
          "name": "C#4",
          "midi": 61,
          "time": 159.00002650000008,
          "velocity": 0.7559055118110236,
          "duration": 2.848214760416653
        },
        {
          "name": "C4",
          "midi": 60,
          "time": 162.00002700000007,
          "velocity": 0.7559055118110236,
          "duration": 0.4053572104166676
        },
        {
          "name": "A#3",
          "midi": 58,
          "time": 162.42859850000008,
          "velocity": 0.7559055118110236,
          "duration": 1.2196430604166721
        },
        {
          "name": "A#3",
          "midi": 58,
          "time": 163.7143130000001,
          "velocity": 0.7559055118110236,
          "duration": 0.4053572104166676
        },
        {
          "name": "A#4",
          "midi": 70,
          "time": 163.7143130000001,
          "velocity": 0.7559055118110236,
          "duration": 0.4053572104166676
        },
        {
          "name": "C4",
          "midi": 60,
          "time": 164.1428845000001,
          "velocity": 0.7559055118110236,
          "duration": 0.4053572104166676
        },
        {
          "name": "C5",
          "midi": 72,
          "time": 164.1428845000001,
          "velocity": 0.7559055118110236,
          "duration": 0.4053572104166676
        },
        {
          "name": "C#4",
          "midi": 61,
          "time": 164.5714560000001,
          "velocity": 0.7559055118110236,
          "duration": 0.20178574791665937
        },
        {
          "name": "C#5",
          "midi": 73,
          "time": 164.5714560000001,
          "velocity": 0.7559055118110236,
          "duration": 0.20178574791665937
        },
        {
          "name": "D#4",
          "midi": 63,
          "time": 164.78574175000008,
          "velocity": 0.7559055118110236,
          "duration": 0.4053572104166676
        },
        {
          "name": "D#5",
          "midi": 75,
          "time": 164.78574175000008,
          "velocity": 0.7559055118110236,
          "duration": 0.4053572104166676
        },
        {
          "name": "C#4",
          "midi": 61,
          "time": 165.2143132500001,
          "velocity": 0.7559055118110236,
          "duration": 0.6089286729166759
        },
        {
          "name": "C#5",
          "midi": 73,
          "time": 165.2143132500001,
          "velocity": 0.7559055118110236,
          "duration": 0.6089286729166759
        },
        {
          "name": "A#3",
          "midi": 58,
          "time": 165.8571705000001,
          "velocity": 0.7559055118110236,
          "duration": 0.20178574791665937
        },
        {
          "name": "A#4",
          "midi": 70,
          "time": 165.8571705000001,
          "velocity": 0.7559055118110236,
          "duration": 0.20178574791665937
        },
        {
          "name": "F4",
          "midi": 65,
          "time": 166.0714562500001,
          "velocity": 0.7559055118110236,
          "duration": 1.8303574479166684
        },
        {
          "name": "F5",
          "midi": 77,
          "time": 166.0714562500001,
          "velocity": 0.7559055118110236,
          "duration": 1.8303574479166684
        },
        {
          "name": "A#3",
          "midi": 58,
          "time": 168.4285995000001,
          "velocity": 0.7559055118110236,
          "duration": 0.20178574791665937
        },
        {
          "name": "A#4",
          "midi": 70,
          "time": 168.4285995000001,
          "velocity": 0.7559055118110236,
          "duration": 0.20178574791665937
        },
        {
          "name": "A#3",
          "midi": 58,
          "time": 168.6428852500001,
          "velocity": 0.7559055118110236,
          "duration": 0.6089286729166759
        },
        {
          "name": "A#4",
          "midi": 70,
          "time": 168.6428852500001,
          "velocity": 0.7559055118110236,
          "duration": 0.6089286729166759
        },
        {
          "name": "F4",
          "midi": 65,
          "time": 169.2857425000001,
          "velocity": 0.7559055118110236,
          "duration": 0.20178574791665937
        },
        {
          "name": "F5",
          "midi": 77,
          "time": 169.2857425000001,
          "velocity": 0.7559055118110236,
          "duration": 0.20178574791665937
        },
        {
          "name": "F#4",
          "midi": 66,
          "time": 169.5000282500001,
          "velocity": 0.7559055118110236,
          "duration": 1.8303574479166684
        },
        {
          "name": "F#5",
          "midi": 78,
          "time": 169.5000282500001,
          "velocity": 0.7559055118110236,
          "duration": 1.8303574479166684
        },
        {
          "name": "F4",
          "midi": 65,
          "time": 171.8571715000001,
          "velocity": 0.7559055118110236,
          "duration": 0.20178574791665937
        },
        {
          "name": "F5",
          "midi": 77,
          "time": 171.8571715000001,
          "velocity": 0.7559055118110236,
          "duration": 0.20178574791665937
        },
        {
          "name": "F4",
          "midi": 65,
          "time": 172.0714572500001,
          "velocity": 0.7559055118110236,
          "duration": 0.6089286729166759
        },
        {
          "name": "F5",
          "midi": 77,
          "time": 172.0714572500001,
          "velocity": 0.7559055118110236,
          "duration": 0.6089286729166759
        },
        {
          "name": "F4",
          "midi": 65,
          "time": 172.7143145000001,
          "velocity": 0.7559055118110236,
          "duration": 1.6267859854166602
        },
        {
          "name": "F5",
          "midi": 77,
          "time": 172.7143145000001,
          "velocity": 0.7559055118110236,
          "duration": 1.6267859854166602
        },
        {
          "name": "A#3",
          "midi": 58,
          "time": 174.4286005000001,
          "velocity": 0.7559055118110236,
          "duration": 0.4285715000000039
        },
        {
          "name": "A#4",
          "midi": 70,
          "time": 174.4286005000001,
          "velocity": 0.7559055118110236,
          "duration": 2.0339289104166767
        },
        {
          "name": "A#3",
          "midi": 58,
          "time": 177.4286010000001,
          "velocity": 0.7559055118110236,
          "duration": 0.4053572104166676
        },
        {
          "name": "A#4",
          "midi": 70,
          "time": 177.4286010000001,
          "velocity": 0.7559055118110236,
          "duration": 0.4053572104166676
        },
        {
          "name": "C4",
          "midi": 60,
          "time": 177.8571725000001,
          "velocity": 0.7559055118110236,
          "duration": 0.4053572104166676
        },
        {
          "name": "C5",
          "midi": 72,
          "time": 177.8571725000001,
          "velocity": 0.7559055118110236,
          "duration": 0.4053572104166676
        },
        {
          "name": "C#4",
          "midi": 61,
          "time": 178.2857440000001,
          "velocity": 0.7559055118110236,
          "duration": 0.20178574791665937
        },
        {
          "name": "C#5",
          "midi": 73,
          "time": 178.2857440000001,
          "velocity": 0.7559055118110236,
          "duration": 0.20178574791665937
        },
        {
          "name": "D#4",
          "midi": 63,
          "time": 178.5000297500001,
          "velocity": 0.7559055118110236,
          "duration": 0.4053572104166676
        },
        {
          "name": "D#5",
          "midi": 75,
          "time": 178.5000297500001,
          "velocity": 0.7559055118110236,
          "duration": 0.4053572104166676
        },
        {
          "name": "F4",
          "midi": 65,
          "time": 178.9286012500001,
          "velocity": 0.7559055118110236,
          "duration": 0.6089286729166759
        },
        {
          "name": "F5",
          "midi": 77,
          "time": 178.9286012500001,
          "velocity": 0.7559055118110236,
          "duration": 0.6089286729166759
        },
        {
          "name": "C#4",
          "midi": 61,
          "time": 179.57145850000012,
          "velocity": 0.7559055118110236,
          "duration": 0.20178574791665937
        },
        {
          "name": "C#5",
          "midi": 73,
          "time": 179.57145850000012,
          "velocity": 0.7559055118110236,
          "duration": 0.20178574791665937
        },
        {
          "name": "E4",
          "midi": 64,
          "time": 179.7857442500001,
          "velocity": 0.7559055118110236,
          "duration": 1.8303574479166684
        },
        {
          "name": "E5",
          "midi": 76,
          "time": 179.7857442500001,
          "velocity": 0.7559055118110236,
          "duration": 1.8303574479166684
        },
        {
          "name": "C#4",
          "midi": 61,
          "time": 182.1428875000001,
          "velocity": 0.7559055118110236,
          "duration": 0.20178574791665937
        },
        {
          "name": "C#5",
          "midi": 73,
          "time": 182.1428875000001,
          "velocity": 0.7559055118110236,
          "duration": 0.20178574791665937
        },
        {
          "name": "C4",
          "midi": 60,
          "time": 182.3571732500001,
          "velocity": 0.7559055118110236,
          "duration": 0.6089286729166759
        },
        {
          "name": "C5",
          "midi": 72,
          "time": 182.3571732500001,
          "velocity": 0.7559055118110236,
          "duration": 0.6089286729166759
        },
        {
          "name": "A#3",
          "midi": 58,
          "time": 183.00003050000012,
          "velocity": 0.7559055118110236,
          "duration": 0.4053572104166676
        },
        {
          "name": "A#4",
          "midi": 70,
          "time": 183.00003050000012,
          "velocity": 0.7559055118110236,
          "duration": 0.4053572104166676
        },
        {
          "name": "C#4",
          "midi": 61,
          "time": 183.42860200000013,
          "velocity": 0.7559055118110236,
          "duration": 1.6267859854166602
        },
        {
          "name": "C#5",
          "midi": 73,
          "time": 183.42860200000013,
          "velocity": 0.7559055118110236,
          "duration": 1.6267859854166602
        },
        {
          "name": "D#4",
          "midi": 63,
          "time": 185.57145950000012,
          "velocity": 0.7559055118110236,
          "duration": 0.20178574791665937
        },
        {
          "name": "D#5",
          "midi": 75,
          "time": 185.57145950000012,
          "velocity": 0.7559055118110236,
          "duration": 0.20178574791665937
        },
        {
          "name": "C#4",
          "midi": 61,
          "time": 185.7857452500001,
          "velocity": 0.7559055118110236,
          "duration": 0.6089286729166759
        },
        {
          "name": "C#5",
          "midi": 73,
          "time": 185.7857452500001,
          "velocity": 0.7559055118110236,
          "duration": 0.6089286729166759
        },
        {
          "name": "A#3",
          "midi": 58,
          "time": 186.42860250000012,
          "velocity": 0.7559055118110236,
          "duration": 0.4053572104166676
        },
        {
          "name": "A#4",
          "midi": 70,
          "time": 186.42860250000012,
          "velocity": 0.7559055118110236,
          "duration": 0.4053572104166676
        },
        {
          "name": "C#4",
          "midi": 61,
          "time": 186.85717400000013,
          "velocity": 0.7559055118110236,
          "duration": 1.2196430604166721
        },
        {
          "name": "C#5",
          "midi": 73,
          "time": 186.85717400000013,
          "velocity": 0.7559055118110236,
          "duration": 1.2196430604166721
        },
        {
          "name": "C4",
          "midi": 60,
          "time": 188.14288850000014,
          "velocity": 0.7559055118110236,
          "duration": 0.4053572104166676
        },
        {
          "name": "C5",
          "midi": 72,
          "time": 188.14288850000014,
          "velocity": 0.7559055118110236,
          "duration": 0.4053572104166676
        },
        {
          "name": "C4",
          "midi": 60,
          "time": 188.57146000000014,
          "velocity": 0.7559055118110236,
          "duration": 0.8125001354166557
        },
        {
          "name": "C5",
          "midi": 72,
          "time": 188.57146000000014,
          "velocity": 0.7559055118110236,
          "duration": 0.8125001354166557
        },
        {
          "name": "A#3",
          "midi": 58,
          "time": 189.85717450000013,
          "velocity": 0.7559055118110236,
          "duration": 0.4053572104166676
        },
        {
          "name": "A#4",
          "midi": 70,
          "time": 189.85717450000013,
          "velocity": 0.7559055118110236,
          "duration": 0.4053572104166676
        },
        {
          "name": "F#4",
          "midi": 66,
          "time": 190.28574600000013,
          "velocity": 0.7559055118110236,
          "duration": 1.6267859854166602
        },
        {
          "name": "F#5",
          "midi": 78,
          "time": 190.28574600000013,
          "velocity": 0.7559055118110236,
          "duration": 1.6267859854166602
        },
        {
          "name": "F4",
          "midi": 65,
          "time": 192.42860350000012,
          "velocity": 0.7559055118110236,
          "duration": 0.20178574791665937
        },
        {
          "name": "F5",
          "midi": 77,
          "time": 192.42860350000012,
          "velocity": 0.7559055118110236,
          "duration": 0.20178574791665937
        },
        {
          "name": "F4",
          "midi": 65,
          "time": 192.6428892500001,
          "velocity": 0.7559055118110236,
          "duration": 0.6089286729166759
        },
        {
          "name": "F5",
          "midi": 77,
          "time": 192.6428892500001,
          "velocity": 0.7559055118110236,
          "duration": 0.6089286729166759
        },
        {
          "name": "E4",
          "midi": 64,
          "time": 193.28574650000013,
          "velocity": 0.7559055118110236,
          "duration": 2.0339289104166767
        },
        {
          "name": "E5",
          "midi": 76,
          "time": 193.28574650000013,
          "velocity": 0.7559055118110236,
          "duration": 2.0339289104166767
        },
        {
          "name": "C#4",
          "midi": 61,
          "time": 195.85717550000015,
          "velocity": 0.7559055118110236,
          "duration": 0.4053572104166676
        },
        {
          "name": "C#5",
          "midi": 73,
          "time": 195.85717550000015,
          "velocity": 0.7559055118110236,
          "duration": 0.4053572104166676
        },
        {
          "name": "C4",
          "midi": 60,
          "time": 196.28574700000016,
          "velocity": 0.7559055118110236,
          "duration": 0.4053572104166676
        },
        {
          "name": "C5",
          "midi": 72,
          "time": 196.28574700000016,
          "velocity": 0.7559055118110236,
          "duration": 0.4053572104166676
        },
        {
          "name": "A#3",
          "midi": 58,
          "time": 196.71431850000016,
          "velocity": 0.7559055118110236,
          "duration": 0.4053572104166676
        },
        {
          "name": "A#4",
          "midi": 70,
          "time": 196.71431850000016,
          "velocity": 0.7559055118110236,
          "duration": 0.4053572104166676
        },
        {
          "name": "D#4",
          "midi": 63,
          "time": 197.57146150000017,
          "velocity": 0.7559055118110236,
          "duration": 1.2196430604166721
        },
        {
          "name": "D#5",
          "midi": 75,
          "time": 197.57146150000017,
          "velocity": 0.7559055118110236,
          "duration": 1.2196430604166721
        },
        {
          "name": "C#4",
          "midi": 61,
          "time": 199.28574750000018,
          "velocity": 0.7559055118110236,
          "duration": 0.20178574791665937
        },
        {
          "name": "C#5",
          "midi": 73,
          "time": 199.28574750000018,
          "velocity": 0.7559055118110236,
          "duration": 0.20178574791665937
        },
        {
          "name": "C#4",
          "midi": 61,
          "time": 199.50003325000017,
          "velocity": 0.7559055118110236,
          "duration": 0.6089286729166759
        },
        {
          "name": "C#5",
          "midi": 73,
          "time": 199.50003325000017,
          "velocity": 0.7559055118110236,
          "duration": 0.6089286729166759
        },
        {
          "name": "C4",
          "midi": 60,
          "time": 200.1428905000002,
          "velocity": 0.7559055118110236,
          "duration": 2.0339289104166767
        },
        {
          "name": "C5",
          "midi": 72,
          "time": 200.1428905000002,
          "velocity": 0.7559055118110236,
          "duration": 2.0339289104166767
        },
        {
          "name": "A#3",
          "midi": 58,
          "time": 202.71431950000022,
          "velocity": 0.5984251968503937,
          "duration": 0.20178574791665937
        },
        {
          "name": "A#4",
          "midi": 70,
          "time": 202.71431950000022,
          "velocity": 0.5984251968503937,
          "duration": 0.20178574791665937
        },
        {
          "name": "C#4",
          "midi": 61,
          "time": 202.9286052500002,
          "velocity": 0.5826771653543307,
          "duration": 0.6089286729166759
        },
        {
          "name": "C#5",
          "midi": 73,
          "time": 202.9286052500002,
          "velocity": 0.5826771653543307,
          "duration": 0.6089286729166759
        },
        {
          "name": "C4",
          "midi": 60,
          "time": 203.57146250000022,
          "velocity": 0.5354330708661418,
          "duration": 0.4053572104166676
        },
        {
          "name": "C5",
          "midi": 72,
          "time": 203.57146250000022,
          "velocity": 0.5354330708661418,
          "duration": 0.4053572104166676
        },
        {
          "name": "A#3",
          "midi": 58,
          "time": 204.00003400000023,
          "velocity": 0.5039370078740157,
          "duration": 0.4053572104166676
        },
        {
          "name": "A#4",
          "midi": 70,
          "time": 204.00003400000023,
          "velocity": 0.5039370078740157,
          "duration": 0.4053572104166676
        },
        {
          "name": "A#3",
          "midi": 58,
          "time": 204.42860550000023,
          "velocity": 0.3858267716535433,
          "duration": 0.20178574791665937
        },
        {
          "name": "F4",
          "midi": 65,
          "time": 204.64289125000022,
          "velocity": 0.3858267716535433,
          "duration": 0.20178574791665937
        },
        {
          "name": "D#4",
          "midi": 63,
          "time": 204.8571770000002,
          "velocity": 0.3858267716535433,
          "duration": 0.20178574791665937
        },
        {
          "name": "F4",
          "midi": 65,
          "time": 205.0714627500002,
          "velocity": 0.3858267716535433,
          "duration": 0.20178574791665937
        },
        {
          "name": "A#3",
          "midi": 58,
          "time": 205.28574850000018,
          "velocity": 0.3858267716535433,
          "duration": 0.20178574791665937
        },
        {
          "name": "F4",
          "midi": 65,
          "time": 205.50003425000017,
          "velocity": 0.3858267716535433,
          "duration": 0.20178574791665937
        },
        {
          "name": "C#4",
          "midi": 61,
          "time": 205.71432000000016,
          "velocity": 0.3858267716535433,
          "duration": 0.20178574791665937
        },
        {
          "name": "F4",
          "midi": 65,
          "time": 205.92860575000014,
          "velocity": 0.3858267716535433,
          "duration": 0.20178574791665937
        },
        {
          "name": "A#3",
          "midi": 58,
          "time": 206.14289150000013,
          "velocity": 0.3858267716535433,
          "duration": 0.20178574791665937
        },
        {
          "name": "F4",
          "midi": 65,
          "time": 206.35717725000012,
          "velocity": 0.3858267716535433,
          "duration": 0.20178574791665937
        },
        {
          "name": "C4",
          "midi": 60,
          "time": 206.5714630000001,
          "velocity": 0.3858267716535433,
          "duration": 0.20178574791665937
        },
        {
          "name": "F4",
          "midi": 65,
          "time": 206.7857487500001,
          "velocity": 0.3858267716535433,
          "duration": 0.20178574791665937
        },
        {
          "name": "A#3",
          "midi": 58,
          "time": 207.00003450000008,
          "velocity": 0.3858267716535433,
          "duration": 0.4053572104166676
        },
        {
          "name": "C4",
          "midi": 60,
          "time": 207.4286060000001,
          "velocity": 0.5039370078740157,
          "duration": 1.2839287854166344
        },
        {
          "name": "C5",
          "midi": 72,
          "time": 207.4286060000001,
          "velocity": 0.5039370078740157,
          "duration": 1.2839287854166344
        },
        {
          "name": "A#3",
          "midi": 58,
          "time": 207.8571775000001,
          "velocity": 0.3858267716535433,
          "duration": 0.20178574791665937
        },
        {
          "name": "F4",
          "midi": 65,
          "time": 208.07146325000008,
          "velocity": 0.3858267716535433,
          "duration": 0.20178574791665937
        },
        {
          "name": "D#4",
          "midi": 63,
          "time": 208.28574900000007,
          "velocity": 0.3858267716535433,
          "duration": 0.20178574791665937
        },
        {
          "name": "F4",
          "midi": 65,
          "time": 208.50003475000005,
          "velocity": 0.3858267716535433,
          "duration": 0.20178574791665937
        },
        {
          "name": "A#3",
          "midi": 58,
          "time": 208.71432050000004,
          "velocity": 0.5039370078740157,
          "duration": 0.8339287104166715
        },
        {
          "name": "A#4",
          "midi": 70,
          "time": 208.71432050000004,
          "velocity": 0.5039370078740157,
          "duration": 0.8339287104166715
        },
        {
          "name": "A#3",
          "midi": 58,
          "time": 209.57146350000005,
          "velocity": 0.5039370078740157,
          "duration": 0.20178574791665937
        },
        {
          "name": "A#4",
          "midi": 70,
          "time": 209.57146350000005,
          "velocity": 0.5039370078740157,
          "duration": 0.20178574791665937
        },
        {
          "name": "C#4",
          "midi": 61,
          "time": 209.78574925000004,
          "velocity": 0.5039370078740157,
          "duration": 0.6089286729166759
        },
        {
          "name": "C#5",
          "midi": 73,
          "time": 209.78574925000004,
          "velocity": 0.5039370078740157,
          "duration": 0.6089286729166759
        },
        {
          "name": "C4",
          "midi": 60,
          "time": 210.42860650000006,
          "velocity": 0.5039370078740157,
          "duration": 0.4053572104166676
        },
        {
          "name": "C5",
          "midi": 72,
          "time": 210.42860650000006,
          "velocity": 0.5039370078740157,
          "duration": 0.4053572104166676
        },
        {
          "name": "A#3",
          "midi": 58,
          "time": 210.85717800000006,
          "velocity": 0.5039370078740157,
          "duration": 0.4053572104166676
        },
        {
          "name": "A#4",
          "midi": 70,
          "time": 210.85717800000006,
          "velocity": 0.5039370078740157,
          "duration": 0.4053572104166676
        },
        {
          "name": "A#3",
          "midi": 58,
          "time": 211.28574950000007,
          "velocity": 0.3858267716535433,
          "duration": 0.20178574791665937
        },
        {
          "name": "F4",
          "midi": 65,
          "time": 211.50003525000005,
          "velocity": 0.3858267716535433,
          "duration": 0.20178574791665937
        },
        {
          "name": "D#4",
          "midi": 63,
          "time": 211.71432100000004,
          "velocity": 0.3858267716535433,
          "duration": 0.20178574791665937
        },
        {
          "name": "F4",
          "midi": 65,
          "time": 211.92860675000003,
          "velocity": 0.3858267716535433,
          "duration": 0.20178574791665937
        },
        {
          "name": "A#3",
          "midi": 58,
          "time": 212.14289250000002,
          "velocity": 0.3858267716535433,
          "duration": 0.20178574791665937
        },
        {
          "name": "F4",
          "midi": 65,
          "time": 212.35717825,
          "velocity": 0.3858267716535433,
          "duration": 0.20178574791665937
        },
        {
          "name": "C#4",
          "midi": 61,
          "time": 212.571464,
          "velocity": 0.3858267716535433,
          "duration": 0.20178574791665937
        },
        {
          "name": "F4",
          "midi": 65,
          "time": 212.78574974999998,
          "velocity": 0.3858267716535433,
          "duration": 0.20178574791665937
        },
        {
          "name": "A#3",
          "midi": 58,
          "time": 213.00003549999997,
          "velocity": 0.3858267716535433,
          "duration": 0.20178574791665937
        },
        {
          "name": "F4",
          "midi": 65,
          "time": 213.21432124999995,
          "velocity": 0.3858267716535433,
          "duration": 0.20178574791665937
        },
        {
          "name": "C4",
          "midi": 60,
          "time": 213.42860699999994,
          "velocity": 0.3858267716535433,
          "duration": 0.20178574791665937
        },
        {
          "name": "F4",
          "midi": 65,
          "time": 213.64289274999993,
          "velocity": 0.3858267716535433,
          "duration": 0.20178574791665937
        },
        {
          "name": "A#3",
          "midi": 58,
          "time": 213.85717849999992,
          "velocity": 0.3858267716535433,
          "duration": 0.20178574791665937
        },
        {
          "name": "F4",
          "midi": 65,
          "time": 214.0714642499999,
          "velocity": 0.3858267716535433,
          "duration": 0.20178574791665937
        },
        {
          "name": "A#3",
          "midi": 58,
          "time": 214.7143214999999,
          "velocity": 0.3858267716535433,
          "duration": 0.20178574791665937
        },
        {
          "name": "F4",
          "midi": 65,
          "time": 214.92860724999989,
          "velocity": 0.3858267716535433,
          "duration": 0.20178574791665937
        },
        {
          "name": "D#4",
          "midi": 63,
          "time": 215.14289299999987,
          "velocity": 0.3858267716535433,
          "duration": 0.20178574791665937
        },
        {
          "name": "F4",
          "midi": 65,
          "time": 215.35717874999986,
          "velocity": 0.3858267716535433,
          "duration": 0.20178574791665937
        },
        {
          "name": "A#3",
          "midi": 58,
          "time": 215.57146449999985,
          "velocity": 0.3858267716535433,
          "duration": 0.20178574791665937
        },
        {
          "name": "F4",
          "midi": 65,
          "time": 215.78575024999984,
          "velocity": 0.3858267716535433,
          "duration": 0.20178574791665937
        },
        {
          "name": "C#4",
          "midi": 61,
          "time": 216.00003599999982,
          "velocity": 0.3858267716535433,
          "duration": 0.20178574791665937
        },
        {
          "name": "F4",
          "midi": 65,
          "time": 216.2143217499998,
          "velocity": 0.3858267716535433,
          "duration": 0.20178574791665937
        },
        {
          "name": "A#3",
          "midi": 58,
          "time": 216.4286074999998,
          "velocity": 0.3858267716535433,
          "duration": 0.20178574791665937
        },
        {
          "name": "F4",
          "midi": 65,
          "time": 216.6428932499998,
          "velocity": 0.3858267716535433,
          "duration": 0.20178574791665937
        },
        {
          "name": "C4",
          "midi": 60,
          "time": 216.85717899999977,
          "velocity": 0.3858267716535433,
          "duration": 4.069643535416674
        }
      ],
      "controlChanges": {
        "7": [
          {
            "number": 7,
            "time": 0,
            "value": 0.7874015748031497
          }
        ],
        "10": [
          {
            "number": 10,
            "time": 0,
            "value": 0.5039370078740157
          }
        ],
        "91": [
          {
            "number": 91,
            "time": 0,
            "value": 0
          }
        ],
        "93": [
          {
            "number": 93,
            "time": 0,
            "value": 0
          }
        ],
        "121": [
          {
            "number": 121,
            "time": 0,
            "value": 0
          }
        ]
      },
      "id": 0,
      "name": "Piano",
      "instrumentNumber": 0,
      "instrument": "acoustic grand piano",
      "instrumentFamily": "piano",
      "channelNumber": 0,
      "isPercussion": false
    },
    {
      "startTime": 0,
      "duration": 217.6268219854168,
      "length": 491,
      "notes": [
        {
          "name": "A#1",
          "midi": 34,
          "time": 0,
          "velocity": 0.3858267716535433,
          "duration": 1.6267859854166666
        },
        {
          "name": "A#2",
          "midi": 46,
          "time": 0,
          "velocity": 0.3858267716535433,
          "duration": 1.6267859854166666
        },
        {
          "name": "F3",
          "midi": 53,
          "time": 1.714286,
          "velocity": 0.3858267716535433,
          "duration": 0.8125001354166668
        },
        {
          "name": "A#2",
          "midi": 46,
          "time": 2.571429,
          "velocity": 0.3858267716535433,
          "duration": 0.8125001354166668
        },
        {
          "name": "F#1",
          "midi": 30,
          "time": 3.4285720000000004,
          "velocity": 0.3858267716535433,
          "duration": 0.8125001354166668
        },
        {
          "name": "F#2",
          "midi": 42,
          "time": 3.4285720000000004,
          "velocity": 0.3858267716535433,
          "duration": 0.8125001354166668
        },
        {
          "name": "C#3",
          "midi": 49,
          "time": 4.285715000000001,
          "velocity": 0.3858267716535433,
          "duration": 0.8125001354166663
        },
        {
          "name": "F3",
          "midi": 53,
          "time": 5.142858,
          "velocity": 0.3858267716535433,
          "duration": 0.8125001354166663
        },
        {
          "name": "C#3",
          "midi": 49,
          "time": 6.000001,
          "velocity": 0.3858267716535433,
          "duration": 0.8125001354166663
        },
        {
          "name": "D#2",
          "midi": 39,
          "time": 6.857144,
          "velocity": 0.3858267716535433,
          "duration": 0.8125001354166672
        },
        {
          "name": "D#3",
          "midi": 51,
          "time": 6.857144,
          "velocity": 0.3858267716535433,
          "duration": 0.8125001354166672
        },
        {
          "name": "F#3",
          "midi": 54,
          "time": 7.714287000000001,
          "velocity": 0.3858267716535433,
          "duration": 0.8125001354166663
        },
        {
          "name": "A#3",
          "midi": 58,
          "time": 8.57143,
          "velocity": 0.3858267716535433,
          "duration": 0.8125001354166663
        },
        {
          "name": "F#3",
          "midi": 54,
          "time": 9.428572999999998,
          "velocity": 0.3858267716535433,
          "duration": 0.8125001354166663
        },
        {
          "name": "F#1",
          "midi": 30,
          "time": 10.285715999999997,
          "velocity": 0.3858267716535433,
          "duration": 0.8125001354166663
        },
        {
          "name": "F#2",
          "midi": 42,
          "time": 10.285715999999997,
          "velocity": 0.3858267716535433,
          "duration": 0.8125001354166663
        },
        {
          "name": "A#2",
          "midi": 46,
          "time": 11.142858999999996,
          "velocity": 0.3858267716535433,
          "duration": 0.8125001354166663
        },
        {
          "name": "C#3",
          "midi": 49,
          "time": 12.000001999999995,
          "velocity": 0.3858267716535433,
          "duration": 0.8125001354166663
        },
        {
          "name": "F1",
          "midi": 29,
          "time": 12.857144999999994,
          "velocity": 0.3858267716535433,
          "duration": 0.8125001354166663
        },
        {
          "name": "F2",
          "midi": 41,
          "time": 12.857144999999994,
          "velocity": 0.3858267716535433,
          "duration": 0.8125001354166663
        },
        {
          "name": "A#1",
          "midi": 34,
          "time": 13.714287999999993,
          "velocity": 0.3858267716535433,
          "duration": 1.6267859854166673
        },
        {
          "name": "A#2",
          "midi": 46,
          "time": 13.714287999999993,
          "velocity": 0.3858267716535433,
          "duration": 1.6267859854166673
        },
        {
          "name": "C#3",
          "midi": 49,
          "time": 13.714287999999993,
          "velocity": 0.3858267716535433,
          "duration": 1.7125002854166667
        },
        {
          "name": "F3",
          "midi": 53,
          "time": 13.778573724999994,
          "velocity": 0.3858267716535433,
          "duration": 1.6464288458333325
        },
        {
          "name": "F3",
          "midi": 53,
          "time": 15.428573999999992,
          "velocity": 0.3858267716535433,
          "duration": 0.8125001354166681
        },
        {
          "name": "C#3",
          "midi": 49,
          "time": 16.285716999999995,
          "velocity": 0.3858267716535433,
          "duration": 0.8125001354166663
        },
        {
          "name": "C2",
          "midi": 36,
          "time": 17.142859999999995,
          "velocity": 0.3858267716535433,
          "duration": 0.8125001354166699
        },
        {
          "name": "C3",
          "midi": 48,
          "time": 17.142859999999995,
          "velocity": 0.3858267716535433,
          "duration": 0.8125001354166699
        },
        {
          "name": "E3",
          "midi": 52,
          "time": 18.000003,
          "velocity": 0.3858267716535433,
          "duration": 0.8125001354166663
        },
        {
          "name": "G3",
          "midi": 55,
          "time": 18.857146,
          "velocity": 0.3858267716535433,
          "duration": 0.8125001354166663
        },
        {
          "name": "E3",
          "midi": 52,
          "time": 19.714289,
          "velocity": 0.3858267716535433,
          "duration": 0.8125001354166663
        },
        {
          "name": "F#1",
          "midi": 30,
          "time": 20.571432,
          "velocity": 0.3858267716535433,
          "duration": 0.8125001354166699
        },
        {
          "name": "F#2",
          "midi": 42,
          "time": 20.571432,
          "velocity": 0.3858267716535433,
          "duration": 0.8125001354166699
        },
        {
          "name": "C#3",
          "midi": 49,
          "time": 21.428575000000006,
          "velocity": 0.3858267716535433,
          "duration": 0.8125001354166663
        },
        {
          "name": "F#3",
          "midi": 54,
          "time": 22.285718000000006,
          "velocity": 0.3858267716535433,
          "duration": 0.8125001354166663
        },
        {
          "name": "C#3",
          "midi": 49,
          "time": 23.142861000000007,
          "velocity": 0.3858267716535433,
          "duration": 0.8125001354166663
        },
        {
          "name": "F1",
          "midi": 29,
          "time": 24.000004000000008,
          "velocity": 0.3858267716535433,
          "duration": 0.8125001354166699
        },
        {
          "name": "F2",
          "midi": 41,
          "time": 24.000004000000008,
          "velocity": 0.3858267716535433,
          "duration": 0.8125001354166699
        },
        {
          "name": "C3",
          "midi": 48,
          "time": 24.857147000000012,
          "velocity": 0.3858267716535433,
          "duration": 0.8125001354166663
        },
        {
          "name": "F3",
          "midi": 53,
          "time": 25.714290000000013,
          "velocity": 0.3858267716535433,
          "duration": 0.8125001354166663
        },
        {
          "name": "C3",
          "midi": 48,
          "time": 26.571433000000013,
          "velocity": 0.3858267716535433,
          "duration": 0.8125001354166663
        },
        {
          "name": "B1",
          "midi": 35,
          "time": 27.428576000000014,
          "velocity": 0.3858267716535433,
          "duration": 0.8125001354166699
        },
        {
          "name": "B2",
          "midi": 47,
          "time": 27.428576000000014,
          "velocity": 0.3858267716535433,
          "duration": 0.8125001354166699
        },
        {
          "name": "D#3",
          "midi": 51,
          "time": 28.285719000000018,
          "velocity": 0.3858267716535433,
          "duration": 0.8125001354166663
        },
        {
          "name": "F#3",
          "midi": 54,
          "time": 29.14286200000002,
          "velocity": 0.3858267716535433,
          "duration": 0.8125001354166663
        },
        {
          "name": "D#3",
          "midi": 51,
          "time": 30.00000500000002,
          "velocity": 0.3858267716535433,
          "duration": 0.8125001354166663
        },
        {
          "name": "C2",
          "midi": 36,
          "time": 30.85714800000002,
          "velocity": 0.3858267716535433,
          "duration": 0.8125001354166699
        },
        {
          "name": "C3",
          "midi": 48,
          "time": 30.85714800000002,
          "velocity": 0.3858267716535433,
          "duration": 0.8125001354166699
        },
        {
          "name": "E3",
          "midi": 52,
          "time": 31.714291000000024,
          "velocity": 0.3858267716535433,
          "duration": 0.8125001354166699
        },
        {
          "name": "G3",
          "midi": 55,
          "time": 32.571434000000025,
          "velocity": 0.3858267716535433,
          "duration": 0.8125001354166699
        },
        {
          "name": "E3",
          "midi": 52,
          "time": 33.428577000000026,
          "velocity": 0.3858267716535433,
          "duration": 0.8125001354166699
        },
        {
          "name": "D#2",
          "midi": 39,
          "time": 34.285720000000026,
          "velocity": 0.3858267716535433,
          "duration": 0.8125001354166699
        },
        {
          "name": "D#3",
          "midi": 51,
          "time": 34.285720000000026,
          "velocity": 0.3858267716535433,
          "duration": 0.8125001354166699
        },
        {
          "name": "F#3",
          "midi": 54,
          "time": 35.14286300000003,
          "velocity": 0.3858267716535433,
          "duration": 0.855357285416666
        },
        {
          "name": "A#3",
          "midi": 58,
          "time": 36.00000600000003,
          "velocity": 0.3858267716535433,
          "duration": 0.8125001354166699
        },
        {
          "name": "F#3",
          "midi": 54,
          "time": 36.85714900000003,
          "velocity": 0.3858267716535433,
          "duration": 0.8125001354166699
        },
        {
          "name": "F2",
          "midi": 41,
          "time": 37.71429200000003,
          "velocity": 0.3858267716535433,
          "duration": 0.8125001354166699
        },
        {
          "name": "F3",
          "midi": 53,
          "time": 37.71429200000003,
          "velocity": 0.3858267716535433,
          "duration": 0.8125001354166699
        },
        {
          "name": "A3",
          "midi": 57,
          "time": 38.57143500000003,
          "velocity": 0.3858267716535433,
          "duration": 0.8125001354166699
        },
        {
          "name": "C4",
          "midi": 60,
          "time": 39.42857800000003,
          "velocity": 0.3858267716535433,
          "duration": 0.8125001354166699
        },
        {
          "name": "A#1",
          "midi": 34,
          "time": 41.14286400000003,
          "velocity": 0.3858267716535433,
          "duration": 2.441071835416672
        },
        {
          "name": "A#2",
          "midi": 46,
          "time": 41.14286400000003,
          "velocity": 0.3858267716535433,
          "duration": 2.441071835416672
        },
        {
          "name": "D3",
          "midi": 50,
          "time": 43.71429300000003,
          "velocity": 0.3858267716535433,
          "duration": 0.8125001354166699
        },
        {
          "name": "D#2",
          "midi": 39,
          "time": 44.571436000000034,
          "velocity": 0.3858267716535433,
          "duration": 1.6267859854166673
        },
        {
          "name": "D#3",
          "midi": 51,
          "time": 44.571436000000034,
          "velocity": 0.3858267716535433,
          "duration": 1.6267859854166673
        },
        {
          "name": "F#2",
          "midi": 42,
          "time": 46.285722000000035,
          "velocity": 0.3858267716535433,
          "duration": 0.8125001354166699
        },
        {
          "name": "F#3",
          "midi": 54,
          "time": 46.285722000000035,
          "velocity": 0.3858267716535433,
          "duration": 0.8125001354166699
        },
        {
          "name": "F2",
          "midi": 41,
          "time": 47.142865000000036,
          "velocity": 0.3858267716535433,
          "duration": 0.8125001354166699
        },
        {
          "name": "F3",
          "midi": 53,
          "time": 47.142865000000036,
          "velocity": 0.3858267716535433,
          "duration": 0.8125001354166699
        },
        {
          "name": "A#1",
          "midi": 34,
          "time": 48.00000800000004,
          "velocity": 0.3858267716535433,
          "duration": 2.441071835416672
        },
        {
          "name": "A#2",
          "midi": 46,
          "time": 48.00000800000004,
          "velocity": 0.3858267716535433,
          "duration": 2.441071835416672
        },
        {
          "name": "D3",
          "midi": 50,
          "time": 50.57143700000004,
          "velocity": 0.3858267716535433,
          "duration": 0.8125001354166699
        },
        {
          "name": "D#3",
          "midi": 51,
          "time": 51.42858000000004,
          "velocity": 0.3858267716535433,
          "duration": 0.8125001354166699
        },
        {
          "name": "D#3",
          "midi": 51,
          "time": 52.28572300000004,
          "velocity": 0.3858267716535433,
          "duration": 0.8125001354166699
        },
        {
          "name": "D3",
          "midi": 50,
          "time": 53.14286600000004,
          "velocity": 0.3858267716535433,
          "duration": 0.8125001354166699
        },
        {
          "name": "F3",
          "midi": 53,
          "time": 53.14286600000004,
          "velocity": 0.3858267716535433,
          "duration": 0.8125001354166699
        },
        {
          "name": "D3",
          "midi": 50,
          "time": 54.00000900000004,
          "velocity": 0.3858267716535433,
          "duration": 0.8125001354166699
        },
        {
          "name": "C#3",
          "midi": 49,
          "time": 54.85715200000004,
          "velocity": 0.3858267716535433,
          "duration": 0.8125001354166699
        },
        {
          "name": "G#3",
          "midi": 56,
          "time": 54.85715200000004,
          "velocity": 0.3858267716535433,
          "duration": 0.8125001354166699
        },
        {
          "name": "C#3",
          "midi": 49,
          "time": 55.71429500000004,
          "velocity": 0.3858267716535433,
          "duration": 0.8125001354166699
        },
        {
          "name": "B2",
          "midi": 47,
          "time": 56.57143800000004,
          "velocity": 0.3858267716535433,
          "duration": 0.8125001354166699
        },
        {
          "name": "F#3",
          "midi": 54,
          "time": 56.57143800000004,
          "velocity": 0.3858267716535433,
          "duration": 0.8125001354166699
        },
        {
          "name": "B3",
          "midi": 59,
          "time": 56.57143800000004,
          "velocity": 0.3858267716535433,
          "duration": 0.8125001354166699
        },
        {
          "name": "B2",
          "midi": 47,
          "time": 57.428581000000044,
          "velocity": 0.4094488188976378,
          "duration": 0.8125001354166699
        },
        {
          "name": "F1",
          "midi": 29,
          "time": 58.285724000000044,
          "velocity": 0.4330708661417323,
          "duration": 0.4053572104166676
        },
        {
          "name": "F2",
          "midi": 41,
          "time": 58.285724000000044,
          "velocity": 0.4330708661417323,
          "duration": 0.4053572104166676
        },
        {
          "name": "C3",
          "midi": 48,
          "time": 58.71429550000005,
          "velocity": 0.4409448818897638,
          "duration": 0.4053572104166676
        },
        {
          "name": "F3",
          "midi": 53,
          "time": 59.14286700000005,
          "velocity": 0.4566929133858268,
          "duration": 0.4053572104166676
        },
        {
          "name": "C3",
          "midi": 48,
          "time": 59.571438500000056,
          "velocity": 0.4645669291338583,
          "duration": 0.4053572104166676
        },
        {
          "name": "F3",
          "midi": 53,
          "time": 60.00001000000006,
          "velocity": 0.48031496062992124,
          "duration": 0.4053572104166676
        },
        {
          "name": "C3",
          "midi": 48,
          "time": 60.428581500000064,
          "velocity": 0.4881889763779528,
          "duration": 0.4053572104166676
        },
        {
          "name": "F3",
          "midi": 53,
          "time": 60.85715300000007,
          "velocity": 0.5039370078740157,
          "duration": 0.4053572104166676
        },
        {
          "name": "C3",
          "midi": 48,
          "time": 61.28572450000007,
          "velocity": 0.5196850393700787,
          "duration": 0.4053572104166676
        },
        {
          "name": "F1",
          "midi": 29,
          "time": 61.714296000000076,
          "velocity": 0.5275590551181102,
          "duration": 0.8125001354166699
        },
        {
          "name": "F2",
          "midi": 41,
          "time": 61.714296000000076,
          "velocity": 0.5275590551181102,
          "duration": 0.8125001354166699
        },
        {
          "name": "F2",
          "midi": 41,
          "time": 62.571439000000076,
          "velocity": 0.5511811023622047,
          "duration": 0.8125001354166699
        },
        {
          "name": "F3",
          "midi": 53,
          "time": 62.571439000000076,
          "velocity": 0.5511811023622047,
          "duration": 0.8125001354166699
        },
        {
          "name": "C3",
          "midi": 48,
          "time": 63.42858200000008,
          "velocity": 0.5748031496062992,
          "duration": 0.8125001354166699
        },
        {
          "name": "F3",
          "midi": 53,
          "time": 63.42858200000008,
          "velocity": 0.5748031496062992,
          "duration": 0.8125001354166699
        },
        {
          "name": "F1",
          "midi": 29,
          "time": 64.28572500000008,
          "velocity": 0.5984251968503937,
          "duration": 0.8125001354166699
        },
        {
          "name": "F2",
          "midi": 41,
          "time": 64.28572500000008,
          "velocity": 0.5984251968503937,
          "duration": 0.8125001354166699
        },
        {
          "name": "A#1",
          "midi": 34,
          "time": 65.14286800000009,
          "velocity": 0.6299212598425197,
          "duration": 0.4053572104166676
        },
        {
          "name": "A#2",
          "midi": 46,
          "time": 65.14286800000009,
          "velocity": 0.6299212598425197,
          "duration": 0.4053572104166676
        },
        {
          "name": "C#3",
          "midi": 49,
          "time": 65.5714395000001,
          "velocity": 0.6299212598425197,
          "duration": 0.4053572104166676
        },
        {
          "name": "F3",
          "midi": 53,
          "time": 66.0000110000001,
          "velocity": 0.6299212598425197,
          "duration": 0.4053572104166676
        },
        {
          "name": "C#3",
          "midi": 49,
          "time": 66.4285825000001,
          "velocity": 0.6299212598425197,
          "duration": 0.4053572104166676
        },
        {
          "name": "A#3",
          "midi": 58,
          "time": 66.85715400000011,
          "velocity": 0.6299212598425197,
          "duration": 0.4053572104166676
        },
        {
          "name": "F3",
          "midi": 53,
          "time": 67.28572550000011,
          "velocity": 0.6299212598425197,
          "duration": 0.4053572104166676
        },
        {
          "name": "C#3",
          "midi": 49,
          "time": 67.71429700000012,
          "velocity": 0.6299212598425197,
          "duration": 0.4053572104166676
        },
        {
          "name": "A#2",
          "midi": 46,
          "time": 68.14286850000012,
          "velocity": 0.6299212598425197,
          "duration": 0.4053572104166676
        },
        {
          "name": "C#1",
          "midi": 25,
          "time": 68.57144000000012,
          "velocity": 0.6299212598425197,
          "duration": 0.4053572104166676
        },
        {
          "name": "C#2",
          "midi": 37,
          "time": 68.57144000000012,
          "velocity": 0.6299212598425197,
          "duration": 0.4053572104166676
        },
        {
          "name": "G#2",
          "midi": 44,
          "time": 69.00001150000013,
          "velocity": 0.6299212598425197,
          "duration": 0.4053572104166676
        },
        {
          "name": "C#3",
          "midi": 49,
          "time": 69.42858300000013,
          "velocity": 0.6299212598425197,
          "duration": 0.4053572104166676
        },
        {
          "name": "G#2",
          "midi": 44,
          "time": 69.85715450000014,
          "velocity": 0.6299212598425197,
          "duration": 0.4053572104166676
        },
        {
          "name": "D#3",
          "midi": 51,
          "time": 70.28572600000014,
          "velocity": 0.6299212598425197,
          "duration": 0.4053572104166676
        },
        {
          "name": "G#2",
          "midi": 44,
          "time": 70.71429750000014,
          "velocity": 0.6299212598425197,
          "duration": 0.4053572104166676
        },
        {
          "name": "C#3",
          "midi": 49,
          "time": 71.14286900000015,
          "velocity": 0.6299212598425197,
          "duration": 0.4053572104166676
        },
        {
          "name": "G#2",
          "midi": 44,
          "time": 71.57144050000015,
          "velocity": 0.6299212598425197,
          "duration": 0.4053572104166676
        },
        {
          "name": "D#1",
          "midi": 27,
          "time": 72.00001200000015,
          "velocity": 0.6299212598425197,
          "duration": 0.4053572104166676
        },
        {
          "name": "D#2",
          "midi": 39,
          "time": 72.00001200000015,
          "velocity": 0.6299212598425197,
          "duration": 0.4053572104166676
        },
        {
          "name": "A#2",
          "midi": 46,
          "time": 72.42858350000016,
          "velocity": 0.6299212598425197,
          "duration": 0.4053572104166676
        },
        {
          "name": "D#3",
          "midi": 51,
          "time": 72.85715500000016,
          "velocity": 0.6299212598425197,
          "duration": 0.4053572104166676
        },
        {
          "name": "A#2",
          "midi": 46,
          "time": 73.28572650000017,
          "velocity": 0.6299212598425197,
          "duration": 0.4053572104166676
        },
        {
          "name": "F3",
          "midi": 53,
          "time": 73.71429800000017,
          "velocity": 0.6299212598425197,
          "duration": 0.4053572104166676
        },
        {
          "name": "A#2",
          "midi": 46,
          "time": 74.14286950000017,
          "velocity": 0.6299212598425197,
          "duration": 0.4053572104166676
        },
        {
          "name": "D#3",
          "midi": 51,
          "time": 74.57144100000018,
          "velocity": 0.6299212598425197,
          "duration": 0.4053572104166676
        },
        {
          "name": "A#2",
          "midi": 46,
          "time": 75.00001250000018,
          "velocity": 0.6299212598425197,
          "duration": 0.4053572104166676
        },
        {
          "name": "F#1",
          "midi": 30,
          "time": 75.42858400000019,
          "velocity": 0.6299212598425197,
          "duration": 0.4053572104166676
        },
        {
          "name": "F#2",
          "midi": 42,
          "time": 75.42858400000019,
          "velocity": 0.6299212598425197,
          "duration": 0.4053572104166676
        },
        {
          "name": "C#3",
          "midi": 49,
          "time": 75.85715550000019,
          "velocity": 0.6299212598425197,
          "duration": 0.4053572104166676
        },
        {
          "name": "F#3",
          "midi": 54,
          "time": 76.2857270000002,
          "velocity": 0.6299212598425197,
          "duration": 0.4053572104166676
        },
        {
          "name": "C#3",
          "midi": 49,
          "time": 76.7142985000002,
          "velocity": 0.6299212598425197,
          "duration": 0.4053572104166676
        },
        {
          "name": "A#3",
          "midi": 58,
          "time": 77.1428700000002,
          "velocity": 0.6299212598425197,
          "duration": 1.6053574104166728
        },
        {
          "name": "C#3",
          "midi": 49,
          "time": 77.5714415000002,
          "velocity": 0.6299212598425197,
          "duration": 0.4053572104166676
        },
        {
          "name": "F1",
          "midi": 29,
          "time": 78.00001300000021,
          "velocity": 0.6299212598425197,
          "duration": 0.8125001354166699
        },
        {
          "name": "F2",
          "midi": 41,
          "time": 78.00001300000021,
          "velocity": 0.6299212598425197,
          "duration": 0.8125001354166699
        },
        {
          "name": "F#3",
          "midi": 54,
          "time": 78.00001300000021,
          "velocity": 0.6299212598425197,
          "duration": 0.4053572104166676
        },
        {
          "name": "F3",
          "midi": 53,
          "time": 78.42858450000021,
          "velocity": 0.6299212598425197,
          "duration": 1.2196430604166721
        },
        {
          "name": "A#1",
          "midi": 34,
          "time": 78.85715600000022,
          "velocity": 0.6299212598425197,
          "duration": 0.4053572104166676
        },
        {
          "name": "A#2",
          "midi": 46,
          "time": 78.85715600000022,
          "velocity": 0.6299212598425197,
          "duration": 0.4053572104166676
        },
        {
          "name": "C#3",
          "midi": 49,
          "time": 79.28572750000022,
          "velocity": 0.6299212598425197,
          "duration": 0.4053572104166676
        },
        {
          "name": "F3",
          "midi": 53,
          "time": 79.71429900000022,
          "velocity": 0.6299212598425197,
          "duration": 0.4053572104166676
        },
        {
          "name": "C#3",
          "midi": 49,
          "time": 80.14287050000023,
          "velocity": 0.6299212598425197,
          "duration": 0.4053572104166676
        },
        {
          "name": "A#3",
          "midi": 58,
          "time": 80.57144200000023,
          "velocity": 0.6299212598425197,
          "duration": 0.4053572104166676
        },
        {
          "name": "F3",
          "midi": 53,
          "time": 81.00001350000024,
          "velocity": 0.6299212598425197,
          "duration": 0.4053572104166676
        },
        {
          "name": "C#3",
          "midi": 49,
          "time": 81.42858500000024,
          "velocity": 0.6299212598425197,
          "duration": 0.4053572104166676
        },
        {
          "name": "A#2",
          "midi": 46,
          "time": 81.85715650000024,
          "velocity": 0.6299212598425197,
          "duration": 0.4053572104166676
        },
        {
          "name": "C2",
          "midi": 36,
          "time": 82.28572800000025,
          "velocity": 0.6299212598425197,
          "duration": 0.4053572104166676
        },
        {
          "name": "C3",
          "midi": 48,
          "time": 82.28572800000025,
          "velocity": 0.6299212598425197,
          "duration": 0.4053572104166676
        },
        {
          "name": "G2",
          "midi": 43,
          "time": 82.71429950000025,
          "velocity": 0.6299212598425197,
          "duration": 0.4053572104166676
        },
        {
          "name": "C3",
          "midi": 48,
          "time": 83.14287100000026,
          "velocity": 0.6299212598425197,
          "duration": 0.4053572104166676
        },
        {
          "name": "G2",
          "midi": 43,
          "time": 83.57144250000026,
          "velocity": 0.6299212598425197,
          "duration": 0.4053572104166676
        },
        {
          "name": "E3",
          "midi": 52,
          "time": 84.00001400000026,
          "velocity": 0.6299212598425197,
          "duration": 0.4053572104166676
        },
        {
          "name": "G2",
          "midi": 43,
          "time": 84.42858550000027,
          "velocity": 0.6299212598425197,
          "duration": 0.4053572104166676
        },
        {
          "name": "C3",
          "midi": 48,
          "time": 84.85715700000027,
          "velocity": 0.6299212598425197,
          "duration": 0.4053572104166676
        },
        {
          "name": "G2",
          "midi": 43,
          "time": 85.28572850000027,
          "velocity": 0.6299212598425197,
          "duration": 0.4053572104166676
        },
        {
          "name": "F#1",
          "midi": 30,
          "time": 85.71430000000028,
          "velocity": 0.6299212598425197,
          "duration": 0.4053572104166676
        },
        {
          "name": "F#2",
          "midi": 42,
          "time": 85.71430000000028,
          "velocity": 0.6299212598425197,
          "duration": 0.4053572104166676
        },
        {
          "name": "C#3",
          "midi": 49,
          "time": 86.14287150000028,
          "velocity": 0.6299212598425197,
          "duration": 0.4053572104166676
        },
        {
          "name": "F#3",
          "midi": 54,
          "time": 86.57144300000029,
          "velocity": 0.6299212598425197,
          "duration": 0.4053572104166676
        },
        {
          "name": "C#3",
          "midi": 49,
          "time": 87.00001450000029,
          "velocity": 0.6299212598425197,
          "duration": 0.4053572104166676
        },
        {
          "name": "G#3",
          "midi": 56,
          "time": 87.4285860000003,
          "velocity": 0.6299212598425197,
          "duration": 0.4053572104166676
        },
        {
          "name": "C#3",
          "midi": 49,
          "time": 87.8571575000003,
          "velocity": 0.6299212598425197,
          "duration": 0.4053572104166676
        },
        {
          "name": "F#3",
          "midi": 54,
          "time": 88.2857290000003,
          "velocity": 0.6299212598425197,
          "duration": 0.4053572104166676
        },
        {
          "name": "C#3",
          "midi": 49,
          "time": 88.7143005000003,
          "velocity": 0.6299212598425197,
          "duration": 0.4053572104166676
        },
        {
          "name": "F1",
          "midi": 29,
          "time": 89.14287200000031,
          "velocity": 0.6299212598425197,
          "duration": 0.4053572104166676
        },
        {
          "name": "F2",
          "midi": 41,
          "time": 89.14287200000031,
          "velocity": 0.6299212598425197,
          "duration": 0.4053572104166676
        },
        {
          "name": "C3",
          "midi": 48,
          "time": 89.57144350000031,
          "velocity": 0.6299212598425197,
          "duration": 0.4053572104166676
        },
        {
          "name": "F3",
          "midi": 53,
          "time": 90.00001500000032,
          "velocity": 0.6299212598425197,
          "duration": 0.4053572104166676
        },
        {
          "name": "C3",
          "midi": 48,
          "time": 90.42858650000032,
          "velocity": 0.6299212598425197,
          "duration": 0.4053572104166676
        },
        {
          "name": "A#3",
          "midi": 58,
          "time": 90.85715800000033,
          "velocity": 0.6299212598425197,
          "duration": 0.4053572104166676
        },
        {
          "name": "C3",
          "midi": 48,
          "time": 91.28572950000033,
          "velocity": 0.6299212598425197,
          "duration": 0.4053572104166676
        },
        {
          "name": "A3",
          "midi": 57,
          "time": 91.71430100000033,
          "velocity": 0.6299212598425197,
          "duration": 0.4053572104166676
        },
        {
          "name": "C3",
          "midi": 48,
          "time": 92.14287250000034,
          "velocity": 0.6299212598425197,
          "duration": 0.4053572104166676
        },
        {
          "name": "B1",
          "midi": 35,
          "time": 92.57144400000034,
          "velocity": 0.6299212598425197,
          "duration": 0.4053572104166676
        },
        {
          "name": "B2",
          "midi": 47,
          "time": 92.57144400000034,
          "velocity": 0.6299212598425197,
          "duration": 0.4053572104166676
        },
        {
          "name": "C#4",
          "midi": 61,
          "time": 93.00001550000034,
          "velocity": 0.6299212598425197,
          "duration": 0.4053572104166676
        },
        {
          "name": "F#3",
          "midi": 54,
          "time": 93.42858700000035,
          "velocity": 0.6299212598425197,
          "duration": 0.4053572104166676
        },
        {
          "name": "D#4",
          "midi": 63,
          "time": 93.42858700000035,
          "velocity": 0.6299212598425197,
          "duration": 0.8535715708333385
        },
        {
          "name": "C#4",
          "midi": 61,
          "time": 93.85715850000035,
          "velocity": 0.6299212598425197,
          "duration": 0.4053572104166676
        },
        {
          "name": "D#3",
          "midi": 51,
          "time": 94.28573000000036,
          "velocity": 0.6299212598425197,
          "duration": 0.8125001354166699
        },
        {
          "name": "B3",
          "midi": 59,
          "time": 94.28573000000036,
          "velocity": 0.6299212598425197,
          "duration": 0.8125001354166699
        },
        {
          "name": "B2",
          "midi": 47,
          "time": 95.14287300000036,
          "velocity": 0.6299212598425197,
          "duration": 0.8125001354166699
        },
        {
          "name": "C2",
          "midi": 36,
          "time": 96.00001600000037,
          "velocity": 0.6299212598425197,
          "duration": 0.4053572104166676
        },
        {
          "name": "C3",
          "midi": 48,
          "time": 96.00001600000037,
          "velocity": 0.6299212598425197,
          "duration": 0.4053572104166676
        },
        {
          "name": "G3",
          "midi": 55,
          "time": 96.42858750000038,
          "velocity": 0.6299212598425197,
          "duration": 0.4053572104166676
        },
        {
          "name": "C4",
          "midi": 60,
          "time": 96.85715900000038,
          "velocity": 0.6299212598425197,
          "duration": 0.4053572104166676
        },
        {
          "name": "G3",
          "midi": 55,
          "time": 97.28573050000038,
          "velocity": 0.6299212598425197,
          "duration": 0.4053572104166676
        },
        {
          "name": "E4",
          "midi": 64,
          "time": 97.71430200000039,
          "velocity": 0.6299212598425197,
          "duration": 0.4053572104166676
        },
        {
          "name": "G3",
          "midi": 55,
          "time": 98.14287350000039,
          "velocity": 0.6299212598425197,
          "duration": 0.4053572104166676
        },
        {
          "name": "E3",
          "midi": 52,
          "time": 98.5714450000004,
          "velocity": 0.6299212598425197,
          "duration": 0.4053572104166676
        },
        {
          "name": "C3",
          "midi": 48,
          "time": 99.0000165000004,
          "velocity": 0.6299212598425197,
          "duration": 0.4053572104166676
        },
        {
          "name": "D#1",
          "midi": 27,
          "time": 99.4285880000004,
          "velocity": 0.6299212598425197,
          "duration": 0.4053572104166676
        },
        {
          "name": "D#2",
          "midi": 39,
          "time": 99.4285880000004,
          "velocity": 0.6299212598425197,
          "duration": 0.4053572104166676
        },
        {
          "name": "A#2",
          "midi": 46,
          "time": 99.8571595000004,
          "velocity": 0.6299212598425197,
          "duration": 0.4053572104166676
        },
        {
          "name": "D#3",
          "midi": 51,
          "time": 100.28573100000041,
          "velocity": 0.6299212598425197,
          "duration": 0.4053572104166676
        },
        {
          "name": "A#2",
          "midi": 46,
          "time": 100.71430250000041,
          "velocity": 0.6299212598425197,
          "duration": 0.4053572104166676
        },
        {
          "name": "F#3",
          "midi": 54,
          "time": 101.14287400000042,
          "velocity": 0.6299212598425197,
          "duration": 0.4053572104166676
        },
        {
          "name": "A#2",
          "midi": 46,
          "time": 101.57144550000042,
          "velocity": 0.6299212598425197,
          "duration": 0.4053572104166676
        },
        {
          "name": "D#3",
          "midi": 51,
          "time": 102.00001700000043,
          "velocity": 0.6299212598425197,
          "duration": 0.4053572104166676
        },
        {
          "name": "A#2",
          "midi": 46,
          "time": 102.42858850000043,
          "velocity": 0.6299212598425197,
          "duration": 0.4053572104166676
        },
        {
          "name": "F1",
          "midi": 29,
          "time": 102.85716000000043,
          "velocity": 0.6299212598425197,
          "duration": 0.4053572104166676
        },
        {
          "name": "F2",
          "midi": 41,
          "time": 102.85716000000043,
          "velocity": 0.6299212598425197,
          "duration": 0.4053572104166676
        },
        {
          "name": "C3",
          "midi": 48,
          "time": 103.28573150000044,
          "velocity": 0.6299212598425197,
          "duration": 0.4053572104166676
        },
        {
          "name": "F3",
          "midi": 53,
          "time": 103.71430300000044,
          "velocity": 0.6299212598425197,
          "duration": 0.4053572104166676
        },
        {
          "name": "C3",
          "midi": 48,
          "time": 104.14287450000045,
          "velocity": 0.6299212598425197,
          "duration": 0.4053572104166676
        },
        {
          "name": "A3",
          "midi": 57,
          "time": 104.57144600000045,
          "velocity": 0.6299212598425197,
          "duration": 0.4053572104166676
        },
        {
          "name": "C3",
          "midi": 48,
          "time": 105.00001750000045,
          "velocity": 0.6299212598425197,
          "duration": 0.4053572104166676
        },
        {
          "name": "F3",
          "midi": 53,
          "time": 105.42858900000046,
          "velocity": 0.6299212598425197,
          "duration": 0.4053572104166676
        },
        {
          "name": "C3",
          "midi": 48,
          "time": 105.85716050000046,
          "velocity": 0.6299212598425197,
          "duration": 0.4053572104166676
        },
        {
          "name": "A#1",
          "midi": 34,
          "time": 106.28573200000046,
          "velocity": 0.6299212598425197,
          "duration": 1.6267859854166744
        },
        {
          "name": "A#2",
          "midi": 46,
          "time": 106.28573200000046,
          "velocity": 0.6299212598425197,
          "duration": 1.6267859854166744
        },
        {
          "name": "A#2",
          "midi": 46,
          "time": 108.00001800000047,
          "velocity": 0.3858267716535433,
          "duration": 1.6267859854166602
        },
        {
          "name": "F#1",
          "midi": 30,
          "time": 109.71430400000045,
          "velocity": 0.5039370078740157,
          "duration": 0.8125001354166699
        },
        {
          "name": "F#2",
          "midi": 42,
          "time": 109.71430400000045,
          "velocity": 0.5039370078740157,
          "duration": 0.8125001354166699
        },
        {
          "name": "D#1",
          "midi": 27,
          "time": 110.57144700000046,
          "velocity": 0.5039370078740157,
          "duration": 0.8125001354166699
        },
        {
          "name": "D#2",
          "midi": 39,
          "time": 110.57144700000046,
          "velocity": 0.5039370078740157,
          "duration": 0.8125001354166699
        },
        {
          "name": "F1",
          "midi": 29,
          "time": 111.42859000000047,
          "velocity": 0.5039370078740157,
          "duration": 1.6267859854166744
        },
        {
          "name": "F2",
          "midi": 41,
          "time": 111.42859000000047,
          "velocity": 0.5039370078740157,
          "duration": 1.6267859854166744
        },
        {
          "name": "A#1",
          "midi": 34,
          "time": 113.14287600000047,
          "velocity": 0.5039370078740157,
          "duration": 1.6267859854166744
        },
        {
          "name": "A#2",
          "midi": 46,
          "time": 113.14287600000047,
          "velocity": 0.5039370078740157,
          "duration": 1.6267859854166744
        },
        {
          "name": "A#2",
          "midi": 46,
          "time": 114.85716200000047,
          "velocity": 0.5039370078740157,
          "duration": 0.8125001354166699
        },
        {
          "name": "A#2",
          "midi": 46,
          "time": 115.71430500000048,
          "velocity": 0.5039370078740157,
          "duration": 0.8125001354166699
        },
        {
          "name": "F#2",
          "midi": 42,
          "time": 116.57144800000049,
          "velocity": 0.5039370078740157,
          "duration": 0.8125001354166699
        },
        {
          "name": "F#3",
          "midi": 54,
          "time": 116.57144800000049,
          "velocity": 0.5039370078740157,
          "duration": 0.8125001354166699
        },
        {
          "name": "D#2",
          "midi": 39,
          "time": 117.4285910000005,
          "velocity": 0.5039370078740157,
          "duration": 0.8125001354166699
        },
        {
          "name": "D#3",
          "midi": 51,
          "time": 117.4285910000005,
          "velocity": 0.5039370078740157,
          "duration": 0.8125001354166699
        },
        {
          "name": "F2",
          "midi": 41,
          "time": 118.2857340000005,
          "velocity": 0.5039370078740157,
          "duration": 0.8125001354166699
        },
        {
          "name": "F3",
          "midi": 53,
          "time": 118.2857340000005,
          "velocity": 0.5039370078740157,
          "duration": 0.8125001354166699
        },
        {
          "name": "F3",
          "midi": 53,
          "time": 119.14287700000051,
          "velocity": 0.5039370078740157,
          "duration": 0.8125001354166699
        },
        {
          "name": "A#1",
          "midi": 34,
          "time": 120.00002000000052,
          "velocity": 0.5039370078740157,
          "duration": 0.4053572104166676
        },
        {
          "name": "A#2",
          "midi": 46,
          "time": 120.00002000000052,
          "velocity": 0.5039370078740157,
          "duration": 0.4053572104166676
        },
        {
          "name": "A#2",
          "midi": 46,
          "time": 120.42859150000052,
          "velocity": 0.5039370078740157,
          "duration": 0.4053572104166676
        },
        {
          "name": "A#2",
          "midi": 46,
          "time": 120.85716300000053,
          "velocity": 0.5039370078740157,
          "duration": 0.4053572104166676
        },
        {
          "name": "A#1",
          "midi": 34,
          "time": 121.28573450000053,
          "velocity": 0.5039370078740157,
          "duration": 0.4053572104166676
        },
        {
          "name": "A#2",
          "midi": 46,
          "time": 121.28573450000053,
          "velocity": 0.5039370078740157,
          "duration": 0.4053572104166676
        },
        {
          "name": "A#2",
          "midi": 46,
          "time": 121.71430600000053,
          "velocity": 0.5039370078740157,
          "duration": 0.4053572104166676
        },
        {
          "name": "A#2",
          "midi": 46,
          "time": 122.14287750000054,
          "velocity": 0.5039370078740157,
          "duration": 0.4053572104166676
        },
        {
          "name": "A#1",
          "midi": 34,
          "time": 122.57144900000054,
          "velocity": 0.5039370078740157,
          "duration": 0.4053572104166676
        },
        {
          "name": "A#2",
          "midi": 46,
          "time": 122.57144900000054,
          "velocity": 0.5039370078740157,
          "duration": 0.4053572104166676
        },
        {
          "name": "A#2",
          "midi": 46,
          "time": 123.00002050000055,
          "velocity": 0.5039370078740157,
          "duration": 0.4053572104166676
        },
        {
          "name": "C#2",
          "midi": 37,
          "time": 123.42859200000055,
          "velocity": 0.5039370078740157,
          "duration": 0.4053572104166676
        },
        {
          "name": "C#3",
          "midi": 49,
          "time": 123.42859200000055,
          "velocity": 0.5039370078740157,
          "duration": 0.4053572104166676
        },
        {
          "name": "C#3",
          "midi": 49,
          "time": 123.85716350000055,
          "velocity": 0.5039370078740157,
          "duration": 0.4053572104166676
        },
        {
          "name": "C#3",
          "midi": 49,
          "time": 124.28573500000056,
          "velocity": 0.5039370078740157,
          "duration": 0.4053572104166676
        },
        {
          "name": "C#2",
          "midi": 37,
          "time": 124.71430650000056,
          "velocity": 0.5039370078740157,
          "duration": 0.4053572104166676
        },
        {
          "name": "C#3",
          "midi": 49,
          "time": 124.71430650000056,
          "velocity": 0.5039370078740157,
          "duration": 0.4053572104166676
        },
        {
          "name": "C#3",
          "midi": 49,
          "time": 125.14287800000056,
          "velocity": 0.5039370078740157,
          "duration": 0.4053572104166676
        },
        {
          "name": "C#3",
          "midi": 49,
          "time": 125.57144950000057,
          "velocity": 0.5039370078740157,
          "duration": 0.4053572104166676
        },
        {
          "name": "C#2",
          "midi": 37,
          "time": 126.00002100000057,
          "velocity": 0.5039370078740157,
          "duration": 0.4053572104166676
        },
        {
          "name": "C#3",
          "midi": 49,
          "time": 126.00002100000057,
          "velocity": 0.5039370078740157,
          "duration": 0.4053572104166676
        },
        {
          "name": "C#3",
          "midi": 49,
          "time": 126.42859250000058,
          "velocity": 0.5039370078740157,
          "duration": 0.4053572104166676
        },
        {
          "name": "D#2",
          "midi": 39,
          "time": 126.85716400000058,
          "velocity": 0.5039370078740157,
          "duration": 0.4053572104166676
        },
        {
          "name": "D#3",
          "midi": 51,
          "time": 126.85716400000058,
          "velocity": 0.5039370078740157,
          "duration": 0.4053572104166676
        },
        {
          "name": "D#3",
          "midi": 51,
          "time": 127.28573550000058,
          "velocity": 0.5039370078740157,
          "duration": 0.4053572104166676
        },
        {
          "name": "D#3",
          "midi": 51,
          "time": 127.71430700000059,
          "velocity": 0.5039370078740157,
          "duration": 0.4053572104166676
        },
        {
          "name": "D#2",
          "midi": 39,
          "time": 128.1428785000006,
          "velocity": 0.5039370078740157,
          "duration": 0.4053572104166676
        },
        {
          "name": "D#3",
          "midi": 51,
          "time": 128.1428785000006,
          "velocity": 0.5039370078740157,
          "duration": 0.4053572104166676
        },
        {
          "name": "C#3",
          "midi": 49,
          "time": 128.5714500000006,
          "velocity": 0.5039370078740157,
          "duration": 0.4053572104166676
        },
        {
          "name": "C#3",
          "midi": 49,
          "time": 129.0000215000006,
          "velocity": 0.5039370078740157,
          "duration": 0.4053572104166676
        },
        {
          "name": "D#2",
          "midi": 39,
          "time": 129.4285930000006,
          "velocity": 0.5039370078740157,
          "duration": 0.4053572104166676
        },
        {
          "name": "C3",
          "midi": 48,
          "time": 129.4285930000006,
          "velocity": 0.5039370078740157,
          "duration": 0.4053572104166676
        },
        {
          "name": "C3",
          "midi": 48,
          "time": 129.8571645000006,
          "velocity": 0.5039370078740157,
          "duration": 0.4053572104166676
        },
        {
          "name": "F#2",
          "midi": 42,
          "time": 130.2857360000006,
          "velocity": 0.5039370078740157,
          "duration": 0.4053572104166392
        },
        {
          "name": "C#3",
          "midi": 49,
          "time": 130.2857360000006,
          "velocity": 0.5039370078740157,
          "duration": 0.4053572104166392
        },
        {
          "name": "F#3",
          "midi": 54,
          "time": 130.2857360000006,
          "velocity": 0.5039370078740157,
          "duration": 0.4053572104166392
        },
        {
          "name": "F#3",
          "midi": 54,
          "time": 130.7143075000006,
          "velocity": 0.5039370078740157,
          "duration": 0.4053572104166676
        },
        {
          "name": "F#3",
          "midi": 54,
          "time": 131.1428790000006,
          "velocity": 0.5039370078740157,
          "duration": 0.4053572104166676
        },
        {
          "name": "F#2",
          "midi": 42,
          "time": 131.5714505000006,
          "velocity": 0.5039370078740157,
          "duration": 0.4053572104166676
        },
        {
          "name": "C#3",
          "midi": 49,
          "time": 131.5714505000006,
          "velocity": 0.5039370078740157,
          "duration": 0.4053572104166676
        },
        {
          "name": "F#3",
          "midi": 54,
          "time": 131.5714505000006,
          "velocity": 0.5039370078740157,
          "duration": 0.4053572104166676
        },
        {
          "name": "F#3",
          "midi": 54,
          "time": 132.0000220000006,
          "velocity": 0.5039370078740157,
          "duration": 0.4053572104166676
        },
        {
          "name": "F#3",
          "midi": 54,
          "time": 132.4285935000006,
          "velocity": 0.5039370078740157,
          "duration": 0.4053572104166676
        },
        {
          "name": "F2",
          "midi": 41,
          "time": 132.8571650000006,
          "velocity": 0.5039370078740157,
          "duration": 0.4053572104166392
        },
        {
          "name": "C3",
          "midi": 48,
          "time": 132.8571650000006,
          "velocity": 0.5039370078740157,
          "duration": 0.4053572104166392
        },
        {
          "name": "F3",
          "midi": 53,
          "time": 132.8571650000006,
          "velocity": 0.5039370078740157,
          "duration": 0.4053572104166392
        },
        {
          "name": "F2",
          "midi": 41,
          "time": 133.28573650000058,
          "velocity": 0.5039370078740157,
          "duration": 0.4053572104166676
        },
        {
          "name": "F3",
          "midi": 53,
          "time": 133.28573650000058,
          "velocity": 0.5039370078740157,
          "duration": 0.4053572104166676
        },
        {
          "name": "A#1",
          "midi": 34,
          "time": 133.71430800000059,
          "velocity": 0.5039370078740157,
          "duration": 0.4053572104166392
        },
        {
          "name": "A#2",
          "midi": 46,
          "time": 133.71430800000059,
          "velocity": 0.5039370078740157,
          "duration": 0.4053572104166392
        },
        {
          "name": "A#2",
          "midi": 46,
          "time": 134.14287950000056,
          "velocity": 0.5039370078740157,
          "duration": 0.4053572104166676
        },
        {
          "name": "A#2",
          "midi": 46,
          "time": 134.57145100000056,
          "velocity": 0.5039370078740157,
          "duration": 0.4053572104166676
        },
        {
          "name": "A#1",
          "midi": 34,
          "time": 135.00002250000057,
          "velocity": 0.5039370078740157,
          "duration": 0.4053572104166676
        },
        {
          "name": "A#2",
          "midi": 46,
          "time": 135.00002250000057,
          "velocity": 0.5039370078740157,
          "duration": 0.4053572104166676
        },
        {
          "name": "A#2",
          "midi": 46,
          "time": 135.42859400000057,
          "velocity": 0.5039370078740157,
          "duration": 0.4053572104166676
        },
        {
          "name": "A#2",
          "midi": 46,
          "time": 135.85716550000058,
          "velocity": 0.5039370078740157,
          "duration": 0.4053572104166676
        },
        {
          "name": "A#1",
          "midi": 34,
          "time": 136.28573700000058,
          "velocity": 0.5039370078740157,
          "duration": 0.4053572104166676
        },
        {
          "name": "A#2",
          "midi": 46,
          "time": 136.28573700000058,
          "velocity": 0.5039370078740157,
          "duration": 0.4053572104166676
        },
        {
          "name": "A#2",
          "midi": 46,
          "time": 136.71430850000058,
          "velocity": 0.5039370078740157,
          "duration": 0.4053572104166676
        },
        {
          "name": "C2",
          "midi": 36,
          "time": 137.1428800000006,
          "velocity": 0.5039370078740157,
          "duration": 0.4053572104166392
        },
        {
          "name": "C3",
          "midi": 48,
          "time": 137.1428800000006,
          "velocity": 0.5039370078740157,
          "duration": 0.4053572104166392
        },
        {
          "name": "C3",
          "midi": 48,
          "time": 137.57145150000056,
          "velocity": 0.5039370078740157,
          "duration": 0.4053572104166676
        },
        {
          "name": "C3",
          "midi": 48,
          "time": 138.00002300000057,
          "velocity": 0.5039370078740157,
          "duration": 0.4053572104166676
        },
        {
          "name": "C2",
          "midi": 36,
          "time": 138.42859450000057,
          "velocity": 0.5039370078740157,
          "duration": 0.4053572104166676
        },
        {
          "name": "C3",
          "midi": 48,
          "time": 138.42859450000057,
          "velocity": 0.5039370078740157,
          "duration": 0.4053572104166676
        },
        {
          "name": "C3",
          "midi": 48,
          "time": 138.85716600000057,
          "velocity": 0.5039370078740157,
          "duration": 0.4053572104166676
        },
        {
          "name": "C3",
          "midi": 48,
          "time": 139.28573750000058,
          "velocity": 0.5039370078740157,
          "duration": 0.4053572104166676
        },
        {
          "name": "C2",
          "midi": 36,
          "time": 139.71430900000058,
          "velocity": 0.5039370078740157,
          "duration": 0.4053572104166676
        },
        {
          "name": "C3",
          "midi": 48,
          "time": 139.71430900000058,
          "velocity": 0.5039370078740157,
          "duration": 0.4053572104166676
        },
        {
          "name": "C3",
          "midi": 48,
          "time": 140.1428805000006,
          "velocity": 0.5039370078740157,
          "duration": 0.4053572104166676
        },
        {
          "name": "F#1",
          "midi": 30,
          "time": 140.5714520000006,
          "velocity": 0.5039370078740157,
          "duration": 0.4053572104166392
        },
        {
          "name": "F#2",
          "midi": 42,
          "time": 140.5714520000006,
          "velocity": 0.5039370078740157,
          "duration": 0.4053572104166392
        },
        {
          "name": "F#2",
          "midi": 42,
          "time": 141.00002350000057,
          "velocity": 0.5196850393700787,
          "duration": 0.4053572104166676
        },
        {
          "name": "F#2",
          "midi": 42,
          "time": 141.42859500000057,
          "velocity": 0.5354330708661418,
          "duration": 0.4053572104166676
        },
        {
          "name": "F#1",
          "midi": 30,
          "time": 141.85716650000057,
          "velocity": 0.5511811023622047,
          "duration": 0.4053572104166676
        },
        {
          "name": "F#2",
          "midi": 42,
          "time": 141.85716650000057,
          "velocity": 0.5511811023622047,
          "duration": 0.4053572104166676
        },
        {
          "name": "F#2",
          "midi": 42,
          "time": 142.28573800000058,
          "velocity": 0.5669291338582677,
          "duration": 0.4053572104166676
        },
        {
          "name": "F#2",
          "midi": 42,
          "time": 142.71430950000058,
          "velocity": 0.5826771653543307,
          "duration": 0.4053572104166676
        },
        {
          "name": "F#1",
          "midi": 30,
          "time": 143.14288100000059,
          "velocity": 0.5984251968503937,
          "duration": 0.4053572104166676
        },
        {
          "name": "F#2",
          "midi": 42,
          "time": 143.14288100000059,
          "velocity": 0.5984251968503937,
          "duration": 0.4053572104166676
        },
        {
          "name": "F#2",
          "midi": 42,
          "time": 143.5714525000006,
          "velocity": 0.6141732283464567,
          "duration": 0.4053572104166676
        },
        {
          "name": "F1",
          "midi": 29,
          "time": 144.0000240000006,
          "velocity": 0.6299212598425197,
          "duration": 0.4053572104166392
        },
        {
          "name": "F2",
          "midi": 41,
          "time": 144.0000240000006,
          "velocity": 0.6299212598425197,
          "duration": 0.4053572104166392
        },
        {
          "name": "F1",
          "midi": 29,
          "time": 144.42859550000057,
          "velocity": 0.6456692913385826,
          "duration": 0.4053572104166676
        },
        {
          "name": "F1",
          "midi": 29,
          "time": 144.85716700000057,
          "velocity": 0.6614173228346457,
          "duration": 0.4053572104166676
        },
        {
          "name": "F2",
          "midi": 41,
          "time": 144.85716700000057,
          "velocity": 0.6614173228346457,
          "duration": 0.4053572104166676
        },
        {
          "name": "F1",
          "midi": 29,
          "time": 145.28573850000058,
          "velocity": 0.6771653543307087,
          "duration": 0.4053572104166676
        },
        {
          "name": "F1",
          "midi": 29,
          "time": 145.71431000000058,
          "velocity": 0.6929133858267716,
          "duration": 0.4053572104166676
        },
        {
          "name": "F2",
          "midi": 41,
          "time": 145.71431000000058,
          "velocity": 0.6929133858267716,
          "duration": 0.4053572104166676
        },
        {
          "name": "F1",
          "midi": 29,
          "time": 146.14288150000058,
          "velocity": 0.7086614173228346,
          "duration": 0.4053572104166676
        },
        {
          "name": "F1",
          "midi": 29,
          "time": 146.5714530000006,
          "velocity": 0.7244094488188977,
          "duration": 0.4053572104166676
        },
        {
          "name": "F2",
          "midi": 41,
          "time": 146.5714530000006,
          "velocity": 0.7244094488188977,
          "duration": 0.4053572104166676
        },
        {
          "name": "F1",
          "midi": 29,
          "time": 147.0000245000006,
          "velocity": 0.7401574803149606,
          "duration": 0.4053572104166676
        },
        {
          "name": "D#1",
          "midi": 27,
          "time": 147.4285960000006,
          "velocity": 0.5039370078740157,
          "duration": 0.4053572104166392
        },
        {
          "name": "D#2",
          "midi": 39,
          "time": 147.4285960000006,
          "velocity": 0.5039370078740157,
          "duration": 0.4053572104166392
        },
        {
          "name": "D#1",
          "midi": 27,
          "time": 147.85716750000057,
          "velocity": 0.5039370078740157,
          "duration": 0.4053572104166676
        },
        {
          "name": "D#1",
          "midi": 27,
          "time": 148.28573900000058,
          "velocity": 0.5039370078740157,
          "duration": 0.4053572104166676
        },
        {
          "name": "D#1",
          "midi": 27,
          "time": 148.71431050000058,
          "velocity": 0.5039370078740157,
          "duration": 0.4053572104166676
        },
        {
          "name": "D#2",
          "midi": 39,
          "time": 148.71431050000058,
          "velocity": 0.5039370078740157,
          "duration": 0.4053572104166676
        },
        {
          "name": "D#1",
          "midi": 27,
          "time": 149.14288200000058,
          "velocity": 0.5039370078740157,
          "duration": 0.4053572104166676
        },
        {
          "name": "D#1",
          "midi": 27,
          "time": 149.5714535000006,
          "velocity": 0.5039370078740157,
          "duration": 0.4053572104166676
        },
        {
          "name": "D#1",
          "midi": 27,
          "time": 150.0000250000006,
          "velocity": 0.5039370078740157,
          "duration": 0.4053572104166676
        },
        {
          "name": "D#2",
          "midi": 39,
          "time": 150.0000250000006,
          "velocity": 0.5039370078740157,
          "duration": 0.4053572104166676
        },
        {
          "name": "D#1",
          "midi": 27,
          "time": 150.4285965000006,
          "velocity": 0.5039370078740157,
          "duration": 0.4053572104166676
        },
        {
          "name": "F#1",
          "midi": 30,
          "time": 150.8571680000006,
          "velocity": 0.5039370078740157,
          "duration": 0.4053572104166392
        },
        {
          "name": "F#2",
          "midi": 42,
          "time": 150.8571680000006,
          "velocity": 0.5039370078740157,
          "duration": 0.4053572104166392
        },
        {
          "name": "F#1",
          "midi": 30,
          "time": 151.28573950000057,
          "velocity": 0.5039370078740157,
          "duration": 0.4053572104166676
        },
        {
          "name": "F#1",
          "midi": 30,
          "time": 151.71431100000058,
          "velocity": 0.5039370078740157,
          "duration": 0.4053572104166676
        },
        {
          "name": "F#1",
          "midi": 30,
          "time": 152.14288250000058,
          "velocity": 0.5039370078740157,
          "duration": 0.4053572104166676
        },
        {
          "name": "F#2",
          "midi": 42,
          "time": 152.14288250000058,
          "velocity": 0.5039370078740157,
          "duration": 0.4053572104166676
        },
        {
          "name": "F#1",
          "midi": 30,
          "time": 152.57145400000059,
          "velocity": 0.5039370078740157,
          "duration": 0.4053572104166676
        },
        {
          "name": "F#1",
          "midi": 30,
          "time": 153.0000255000006,
          "velocity": 0.5039370078740157,
          "duration": 0.4053572104166676
        },
        {
          "name": "F#1",
          "midi": 30,
          "time": 153.4285970000006,
          "velocity": 0.5039370078740157,
          "duration": 0.4053572104166676
        },
        {
          "name": "F#2",
          "midi": 42,
          "time": 153.4285970000006,
          "velocity": 0.5039370078740157,
          "duration": 0.4053572104166676
        },
        {
          "name": "F#1",
          "midi": 30,
          "time": 153.8571685000006,
          "velocity": 0.5039370078740157,
          "duration": 0.4053572104166676
        },
        {
          "name": "F1",
          "midi": 29,
          "time": 154.2857400000006,
          "velocity": 0.5039370078740157,
          "duration": 0.4053572104166392
        },
        {
          "name": "F2",
          "midi": 41,
          "time": 154.2857400000006,
          "velocity": 0.5039370078740157,
          "duration": 0.4053572104166392
        },
        {
          "name": "F1",
          "midi": 29,
          "time": 154.71431150000058,
          "velocity": 0.5196850393700787,
          "duration": 0.4053572104166676
        },
        {
          "name": "F1",
          "midi": 29,
          "time": 155.14288300000058,
          "velocity": 0.5433070866141733,
          "duration": 0.4053572104166676
        },
        {
          "name": "F2",
          "midi": 41,
          "time": 155.14288300000058,
          "velocity": 0.5433070866141733,
          "duration": 0.4053572104166676
        },
        {
          "name": "F1",
          "midi": 29,
          "time": 155.57145450000058,
          "velocity": 0.5669291338582677,
          "duration": 0.4053572104166676
        },
        {
          "name": "F1",
          "midi": 29,
          "time": 156.0000260000006,
          "velocity": 0.5905511811023622,
          "duration": 0.4053572104166676
        },
        {
          "name": "F2",
          "midi": 41,
          "time": 156.0000260000006,
          "velocity": 0.5905511811023622,
          "duration": 0.4053572104166676
        },
        {
          "name": "F1",
          "midi": 29,
          "time": 156.4285975000006,
          "velocity": 0.6141732283464567,
          "duration": 0.4053572104166676
        },
        {
          "name": "F1",
          "midi": 29,
          "time": 156.8571690000006,
          "velocity": 0.6377952755905512,
          "duration": 0.4053572104166676
        },
        {
          "name": "F2",
          "midi": 41,
          "time": 156.8571690000006,
          "velocity": 0.6377952755905512,
          "duration": 0.4053572104166676
        },
        {
          "name": "F1",
          "midi": 29,
          "time": 157.2857405000006,
          "velocity": 0.6614173228346457,
          "duration": 0.4053572104166676
        },
        {
          "name": "F1",
          "midi": 29,
          "time": 157.7143120000006,
          "velocity": 0.6850393700787402,
          "duration": 0.8125001354166272
        },
        {
          "name": "F2",
          "midi": 41,
          "time": 157.7143120000006,
          "velocity": 0.6850393700787402,
          "duration": 0.8125001354166272
        },
        {
          "name": "F1",
          "midi": 29,
          "time": 158.57145500000055,
          "velocity": 0.7322834645669292,
          "duration": 0.8125001354166557
        },
        {
          "name": "F2",
          "midi": 41,
          "time": 158.57145500000055,
          "velocity": 0.7322834645669292,
          "duration": 0.8125001354166557
        },
        {
          "name": "F1",
          "midi": 29,
          "time": 159.42859800000053,
          "velocity": 0.7559055118110236,
          "duration": 3.2553576854166693
        },
        {
          "name": "F2",
          "midi": 41,
          "time": 159.42859800000053,
          "velocity": 0.7559055118110236,
          "duration": 3.2553576854166693
        },
        {
          "name": "A#1",
          "midi": 34,
          "time": 162.85717000000054,
          "velocity": 0.6299212598425197,
          "duration": 0.4053572104166392
        },
        {
          "name": "A#2",
          "midi": 46,
          "time": 162.85717000000054,
          "velocity": 0.6299212598425197,
          "duration": 0.4053572104166392
        },
        {
          "name": "C#3",
          "midi": 49,
          "time": 163.2857415000005,
          "velocity": 0.6299212598425197,
          "duration": 0.4053572104166676
        },
        {
          "name": "F3",
          "midi": 53,
          "time": 163.71431300000052,
          "velocity": 0.6299212598425197,
          "duration": 0.4053572104166676
        },
        {
          "name": "C#3",
          "midi": 49,
          "time": 164.14288450000052,
          "velocity": 0.6299212598425197,
          "duration": 0.4053572104166676
        },
        {
          "name": "A#3",
          "midi": 58,
          "time": 164.57145600000052,
          "velocity": 0.6299212598425197,
          "duration": 0.4053572104166676
        },
        {
          "name": "F3",
          "midi": 53,
          "time": 165.00002750000053,
          "velocity": 0.6299212598425197,
          "duration": 0.4053572104166676
        },
        {
          "name": "C#3",
          "midi": 49,
          "time": 165.42859900000053,
          "velocity": 0.6299212598425197,
          "duration": 0.4053572104166676
        },
        {
          "name": "A#2",
          "midi": 46,
          "time": 165.85717050000054,
          "velocity": 0.6299212598425197,
          "duration": 0.4053572104166676
        },
        {
          "name": "C#1",
          "midi": 25,
          "time": 166.28574200000054,
          "velocity": 0.6299212598425197,
          "duration": 0.4053572104166392
        },
        {
          "name": "C#2",
          "midi": 37,
          "time": 166.28574200000054,
          "velocity": 0.6299212598425197,
          "duration": 0.4053572104166392
        },
        {
          "name": "G#2",
          "midi": 44,
          "time": 166.71431350000051,
          "velocity": 0.6299212598425197,
          "duration": 0.4053572104166676
        },
        {
          "name": "C#3",
          "midi": 49,
          "time": 167.14288500000052,
          "velocity": 0.6299212598425197,
          "duration": 0.4053572104166676
        },
        {
          "name": "G#2",
          "midi": 44,
          "time": 167.57145650000052,
          "velocity": 0.6299212598425197,
          "duration": 0.4053572104166676
        },
        {
          "name": "D#3",
          "midi": 51,
          "time": 168.00002800000053,
          "velocity": 0.6299212598425197,
          "duration": 0.4053572104166676
        },
        {
          "name": "G#2",
          "midi": 44,
          "time": 168.42859950000053,
          "velocity": 0.6299212598425197,
          "duration": 0.4053572104166676
        },
        {
          "name": "C#3",
          "midi": 49,
          "time": 168.85717100000053,
          "velocity": 0.6299212598425197,
          "duration": 0.4053572104166676
        },
        {
          "name": "G#2",
          "midi": 44,
          "time": 169.28574250000054,
          "velocity": 0.6299212598425197,
          "duration": 0.4053572104166676
        },
        {
          "name": "D#1",
          "midi": 27,
          "time": 169.71431400000054,
          "velocity": 0.6299212598425197,
          "duration": 0.4053572104166392
        },
        {
          "name": "D#2",
          "midi": 39,
          "time": 169.71431400000054,
          "velocity": 0.6299212598425197,
          "duration": 0.4053572104166392
        },
        {
          "name": "A#2",
          "midi": 46,
          "time": 170.14288550000052,
          "velocity": 0.6299212598425197,
          "duration": 0.4053572104166676
        },
        {
          "name": "D#3",
          "midi": 51,
          "time": 170.57145700000052,
          "velocity": 0.6299212598425197,
          "duration": 0.4053572104166676
        },
        {
          "name": "A#2",
          "midi": 46,
          "time": 171.00002850000052,
          "velocity": 0.6299212598425197,
          "duration": 0.4053572104166676
        },
        {
          "name": "F3",
          "midi": 53,
          "time": 171.42860000000053,
          "velocity": 0.6299212598425197,
          "duration": 0.4053572104166676
        },
        {
          "name": "A#2",
          "midi": 46,
          "time": 171.85717150000053,
          "velocity": 0.6299212598425197,
          "duration": 0.4053572104166676
        },
        {
          "name": "D#3",
          "midi": 51,
          "time": 172.28574300000054,
          "velocity": 0.6299212598425197,
          "duration": 0.4053572104166676
        },
        {
          "name": "A#2",
          "midi": 46,
          "time": 172.71431450000054,
          "velocity": 0.6299212598425197,
          "duration": 0.4053572104166676
        },
        {
          "name": "F#1",
          "midi": 30,
          "time": 173.14288600000054,
          "velocity": 0.6299212598425197,
          "duration": 0.4053572104166392
        },
        {
          "name": "F#2",
          "midi": 42,
          "time": 173.14288600000054,
          "velocity": 0.6299212598425197,
          "duration": 0.4053572104166392
        },
        {
          "name": "C#3",
          "midi": 49,
          "time": 173.57145750000052,
          "velocity": 0.6299212598425197,
          "duration": 0.4053572104166676
        },
        {
          "name": "F#3",
          "midi": 54,
          "time": 174.00002900000052,
          "velocity": 0.6299212598425197,
          "duration": 0.4053572104166676
        },
        {
          "name": "C#3",
          "midi": 49,
          "time": 174.42860050000053,
          "velocity": 0.6299212598425197,
          "duration": 0.4053572104166676
        },
        {
          "name": "A#3",
          "midi": 58,
          "time": 174.85717200000053,
          "velocity": 0.6299212598425197,
          "duration": 1.6053574104166444
        },
        {
          "name": "C#3",
          "midi": 49,
          "time": 175.28574350000054,
          "velocity": 0.6299212598425197,
          "duration": 0.4053572104166676
        },
        {
          "name": "F1",
          "midi": 29,
          "time": 175.71431500000054,
          "velocity": 0.6299212598425197,
          "duration": 0.8125001354166272
        },
        {
          "name": "F2",
          "midi": 41,
          "time": 175.71431500000054,
          "velocity": 0.6299212598425197,
          "duration": 0.8125001354166272
        },
        {
          "name": "F#3",
          "midi": 54,
          "time": 175.71431500000054,
          "velocity": 0.6299212598425197,
          "duration": 0.4053572104166392
        },
        {
          "name": "F3",
          "midi": 53,
          "time": 176.14288650000051,
          "velocity": 0.6299212598425197,
          "duration": 1.2196430604166153
        },
        {
          "name": "A#1",
          "midi": 34,
          "time": 176.5714580000005,
          "velocity": 0.6299212598425197,
          "duration": 0.4053572104166392
        },
        {
          "name": "A#2",
          "midi": 46,
          "time": 176.5714580000005,
          "velocity": 0.6299212598425197,
          "duration": 0.4053572104166392
        },
        {
          "name": "C#3",
          "midi": 49,
          "time": 177.00002950000047,
          "velocity": 0.6299212598425197,
          "duration": 0.4053572104166676
        },
        {
          "name": "F3",
          "midi": 53,
          "time": 177.42860100000047,
          "velocity": 0.6299212598425197,
          "duration": 0.4053572104166676
        },
        {
          "name": "C#3",
          "midi": 49,
          "time": 177.85717250000047,
          "velocity": 0.6299212598425197,
          "duration": 0.4053572104166676
        },
        {
          "name": "A#3",
          "midi": 58,
          "time": 178.28574400000048,
          "velocity": 0.6299212598425197,
          "duration": 0.4053572104166676
        },
        {
          "name": "F3",
          "midi": 53,
          "time": 178.71431550000048,
          "velocity": 0.6299212598425197,
          "duration": 0.4053572104166676
        },
        {
          "name": "C#3",
          "midi": 49,
          "time": 179.14288700000048,
          "velocity": 0.6299212598425197,
          "duration": 0.4053572104166676
        },
        {
          "name": "A#2",
          "midi": 46,
          "time": 179.5714585000005,
          "velocity": 0.6299212598425197,
          "duration": 0.4053572104166676
        },
        {
          "name": "C2",
          "midi": 36,
          "time": 180.0000300000005,
          "velocity": 0.6299212598425197,
          "duration": 0.4053572104166392
        },
        {
          "name": "C3",
          "midi": 48,
          "time": 180.0000300000005,
          "velocity": 0.6299212598425197,
          "duration": 0.4053572104166392
        },
        {
          "name": "G3",
          "midi": 55,
          "time": 180.42860150000047,
          "velocity": 0.6299212598425197,
          "duration": 0.4053572104166676
        },
        {
          "name": "C4",
          "midi": 60,
          "time": 180.85717300000047,
          "velocity": 0.6299212598425197,
          "duration": 0.4053572104166676
        },
        {
          "name": "G3",
          "midi": 55,
          "time": 181.28574450000048,
          "velocity": 0.6299212598425197,
          "duration": 0.4053572104166676
        },
        {
          "name": "E4",
          "midi": 64,
          "time": 181.71431600000048,
          "velocity": 0.6299212598425197,
          "duration": 0.4053572104166676
        },
        {
          "name": "C4",
          "midi": 60,
          "time": 182.14288750000048,
          "velocity": 0.6299212598425197,
          "duration": 0.21428574999998773
        },
        {
          "name": "G3",
          "midi": 55,
          "time": 182.57145900000046,
          "velocity": 0.6299212598425197,
          "duration": 0.4053572104166676
        },
        {
          "name": "E3",
          "midi": 52,
          "time": 183.00003050000046,
          "velocity": 0.6299212598425197,
          "duration": 0.4053572104166676
        },
        {
          "name": "F#1",
          "midi": 30,
          "time": 183.42860200000047,
          "velocity": 0.6299212598425197,
          "duration": 0.4053572104166392
        },
        {
          "name": "F#2",
          "midi": 42,
          "time": 183.42860200000047,
          "velocity": 0.6299212598425197,
          "duration": 0.4053572104166392
        },
        {
          "name": "C#3",
          "midi": 49,
          "time": 183.85717350000044,
          "velocity": 0.6299212598425197,
          "duration": 0.4053572104166676
        },
        {
          "name": "F#3",
          "midi": 54,
          "time": 184.28574500000045,
          "velocity": 0.6299212598425197,
          "duration": 0.4053572104166676
        },
        {
          "name": "C#3",
          "midi": 49,
          "time": 184.71431650000045,
          "velocity": 0.6299212598425197,
          "duration": 0.4053572104166676
        },
        {
          "name": "G#3",
          "midi": 56,
          "time": 185.14288800000045,
          "velocity": 0.6299212598425197,
          "duration": 0.4053572104166676
        },
        {
          "name": "C#3",
          "midi": 49,
          "time": 185.57145950000046,
          "velocity": 0.6299212598425197,
          "duration": 0.4053572104166676
        },
        {
          "name": "F#3",
          "midi": 54,
          "time": 186.00003100000046,
          "velocity": 0.6299212598425197,
          "duration": 0.4053572104166676
        },
        {
          "name": "C#3",
          "midi": 49,
          "time": 186.42860250000047,
          "velocity": 0.6299212598425197,
          "duration": 0.4053572104166676
        },
        {
          "name": "F1",
          "midi": 29,
          "time": 186.85717400000047,
          "velocity": 0.6299212598425197,
          "duration": 0.4053572104166392
        },
        {
          "name": "F2",
          "midi": 41,
          "time": 186.85717400000047,
          "velocity": 0.6299212598425197,
          "duration": 0.4053572104166392
        },
        {
          "name": "C3",
          "midi": 48,
          "time": 187.28574550000044,
          "velocity": 0.6299212598425197,
          "duration": 0.4053572104166676
        },
        {
          "name": "F3",
          "midi": 53,
          "time": 187.71431700000045,
          "velocity": 0.6299212598425197,
          "duration": 0.4053572104166676
        },
        {
          "name": "C3",
          "midi": 48,
          "time": 188.14288850000045,
          "velocity": 0.6299212598425197,
          "duration": 0.4053572104166676
        },
        {
          "name": "A#3",
          "midi": 58,
          "time": 188.57146000000046,
          "velocity": 0.6299212598425197,
          "duration": 0.4053572104166676
        },
        {
          "name": "C3",
          "midi": 48,
          "time": 189.00003150000046,
          "velocity": 0.6299212598425197,
          "duration": 0.4053572104166676
        },
        {
          "name": "A3",
          "midi": 57,
          "time": 189.42860300000046,
          "velocity": 0.6299212598425197,
          "duration": 0.4053572104166676
        },
        {
          "name": "C3",
          "midi": 48,
          "time": 189.85717450000047,
          "velocity": 0.6299212598425197,
          "duration": 0.4053572104166676
        },
        {
          "name": "B1",
          "midi": 35,
          "time": 190.28574600000047,
          "velocity": 0.6299212598425197,
          "duration": 0.4053572104166392
        },
        {
          "name": "B2",
          "midi": 47,
          "time": 190.28574600000047,
          "velocity": 0.6299212598425197,
          "duration": 0.4053572104166392
        },
        {
          "name": "F#3",
          "midi": 54,
          "time": 190.71431750000045,
          "velocity": 0.6299212598425197,
          "duration": 0.4053572104166676
        },
        {
          "name": "D#4",
          "midi": 63,
          "time": 191.14288900000045,
          "velocity": 0.6299212598425197,
          "duration": 0.4053572104166676
        },
        {
          "name": "C#4",
          "midi": 61,
          "time": 191.57146050000046,
          "velocity": 0.6299212598425197,
          "duration": 0.4053572104166676
        },
        {
          "name": "B3",
          "midi": 59,
          "time": 192.00003200000046,
          "velocity": 0.6299212598425197,
          "duration": 0.4053572104166676
        },
        {
          "name": "F#3",
          "midi": 54,
          "time": 192.42860350000046,
          "velocity": 0.6299212598425197,
          "duration": 0.4053572104166676
        },
        {
          "name": "D#3",
          "midi": 51,
          "time": 192.85717500000047,
          "velocity": 0.6299212598425197,
          "duration": 0.4053572104166676
        },
        {
          "name": "B2",
          "midi": 47,
          "time": 193.28574650000047,
          "velocity": 0.6299212598425197,
          "duration": 0.4053572104166676
        },
        {
          "name": "C2",
          "midi": 36,
          "time": 193.71431800000047,
          "velocity": 0.6299212598425197,
          "duration": 0.4053572104166392
        },
        {
          "name": "C3",
          "midi": 48,
          "time": 193.71431800000047,
          "velocity": 0.6299212598425197,
          "duration": 0.4053572104166392
        },
        {
          "name": "G2",
          "midi": 43,
          "time": 194.14288950000045,
          "velocity": 0.6299212598425197,
          "duration": 0.4053572104166676
        },
        {
          "name": "E3",
          "midi": 52,
          "time": 194.57146100000045,
          "velocity": 0.6299212598425197,
          "duration": 0.4053572104166676
        },
        {
          "name": "G2",
          "midi": 43,
          "time": 195.00003250000046,
          "velocity": 0.6299212598425197,
          "duration": 0.4053572104166676
        },
        {
          "name": "C3",
          "midi": 48,
          "time": 195.42860400000046,
          "velocity": 0.6299212598425197,
          "duration": 0.4053572104166676
        },
        {
          "name": "G2",
          "midi": 43,
          "time": 195.85717550000047,
          "velocity": 0.6299212598425197,
          "duration": 0.4053572104166676
        },
        {
          "name": "C2",
          "midi": 36,
          "time": 196.28574700000047,
          "velocity": 0.6299212598425197,
          "duration": 0.4053572104166676
        },
        {
          "name": "G2",
          "midi": 43,
          "time": 196.71431850000047,
          "velocity": 0.6299212598425197,
          "duration": 0.4053572104166676
        },
        {
          "name": "D#1",
          "midi": 27,
          "time": 197.14289000000048,
          "velocity": 0.6299212598425197,
          "duration": 0.4053572104166392
        },
        {
          "name": "D#2",
          "midi": 39,
          "time": 197.14289000000048,
          "velocity": 0.6299212598425197,
          "duration": 0.4053572104166392
        },
        {
          "name": "A#2",
          "midi": 46,
          "time": 197.57146150000045,
          "velocity": 0.6299212598425197,
          "duration": 0.4053572104166676
        },
        {
          "name": "D#3",
          "midi": 51,
          "time": 198.00003300000046,
          "velocity": 0.6299212598425197,
          "duration": 0.4053572104166676
        },
        {
          "name": "A#2",
          "midi": 46,
          "time": 198.42860450000046,
          "velocity": 0.6299212598425197,
          "duration": 0.4053572104166676
        },
        {
          "name": "F#3",
          "midi": 54,
          "time": 198.85717600000046,
          "velocity": 0.6299212598425197,
          "duration": 0.4053572104166676
        },
        {
          "name": "A#2",
          "midi": 46,
          "time": 199.28574750000047,
          "velocity": 0.6299212598425197,
          "duration": 0.4053572104166676
        },
        {
          "name": "D#3",
          "midi": 51,
          "time": 199.71431900000047,
          "velocity": 0.6299212598425197,
          "duration": 0.4053572104166676
        },
        {
          "name": "A#2",
          "midi": 46,
          "time": 200.14289050000048,
          "velocity": 0.6299212598425197,
          "duration": 0.4053572104166676
        },
        {
          "name": "F1",
          "midi": 29,
          "time": 200.57146200000048,
          "velocity": 0.6299212598425197,
          "duration": 0.4053572104166392
        },
        {
          "name": "F2",
          "midi": 41,
          "time": 200.57146200000048,
          "velocity": 0.6299212598425197,
          "duration": 0.4053572104166392
        },
        {
          "name": "C3",
          "midi": 48,
          "time": 201.00003350000046,
          "velocity": 0.6141732283464567,
          "duration": 0.4053572104166676
        },
        {
          "name": "F3",
          "midi": 53,
          "time": 201.42860500000046,
          "velocity": 0.5984251968503937,
          "duration": 0.4053572104166676
        },
        {
          "name": "C3",
          "midi": 48,
          "time": 201.85717650000046,
          "velocity": 0.5826771653543307,
          "duration": 0.4053572104166676
        },
        {
          "name": "A3",
          "midi": 57,
          "time": 202.28574800000047,
          "velocity": 0.5669291338582677,
          "duration": 0.4053572104166676
        },
        {
          "name": "C3",
          "midi": 48,
          "time": 202.71431950000047,
          "velocity": 0.5511811023622047,
          "duration": 0.4053572104166676
        },
        {
          "name": "F3",
          "midi": 53,
          "time": 203.14289100000047,
          "velocity": 0.5354330708661418,
          "duration": 0.4053572104166676
        },
        {
          "name": "C3",
          "midi": 48,
          "time": 203.57146250000048,
          "velocity": 0.5196850393700787,
          "duration": 0.4053572104166676
        },
        {
          "name": "A#1",
          "midi": 34,
          "time": 204.00003400000048,
          "velocity": 0.5039370078740157,
          "duration": 3.255357685416641
        },
        {
          "name": "A#2",
          "midi": 46,
          "time": 204.00003400000048,
          "velocity": 0.5039370078740157,
          "duration": 3.255357685416641
        },
        {
          "name": "F#2",
          "midi": 42,
          "time": 207.42860600000046,
          "velocity": 0.5039370078740157,
          "duration": 0.8125001354166272
        },
        {
          "name": "F#3",
          "midi": 54,
          "time": 207.42860600000046,
          "velocity": 0.5039370078740157,
          "duration": 0.8125001354166272
        },
        {
          "name": "D#2",
          "midi": 39,
          "time": 208.2857490000004,
          "velocity": 0.5039370078740157,
          "duration": 0.8125001354166272
        },
        {
          "name": "D#3",
          "midi": 51,
          "time": 208.2857490000004,
          "velocity": 0.5039370078740157,
          "duration": 0.8125001354166272
        },
        {
          "name": "F2",
          "midi": 41,
          "time": 209.14289200000036,
          "velocity": 0.5039370078740157,
          "duration": 1.6267859854166318
        },
        {
          "name": "F3",
          "midi": 53,
          "time": 209.14289200000036,
          "velocity": 0.5039370078740157,
          "duration": 1.6267859854166318
        },
        {
          "name": "A#1",
          "midi": 34,
          "time": 210.85717800000032,
          "velocity": 0.5039370078740157,
          "duration": 1.6267859854166318
        },
        {
          "name": "A#2",
          "midi": 46,
          "time": 210.85717800000032,
          "velocity": 0.5039370078740157,
          "duration": 1.6267859854166318
        },
        {
          "name": "A#2",
          "midi": 46,
          "time": 212.57146400000028,
          "velocity": 0.48031496062992124,
          "duration": 1.6267859854166602
        },
        {
          "name": "F#2",
          "midi": 42,
          "time": 214.28575000000026,
          "velocity": 0.4409448818897638,
          "duration": 0.8125001354166272
        },
        {
          "name": "F#3",
          "midi": 54,
          "time": 214.28575000000026,
          "velocity": 0.4409448818897638,
          "duration": 0.8125001354166272
        },
        {
          "name": "D#2",
          "midi": 39,
          "time": 215.1428930000002,
          "velocity": 0.4251968503937008,
          "duration": 0.8125001354166272
        },
        {
          "name": "D#3",
          "midi": 51,
          "time": 215.1428930000002,
          "velocity": 0.4251968503937008,
          "duration": 0.8125001354166272
        },
        {
          "name": "F2",
          "midi": 41,
          "time": 216.00003600000016,
          "velocity": 0.4015748031496063,
          "duration": 1.6267859854166318
        },
        {
          "name": "F3",
          "midi": 53,
          "time": 216.00003600000016,
          "velocity": 0.4015748031496063,
          "duration": 1.6267859854166318
        }
      ],
      "controlChanges": {
        "64": [
          {
            "number": 64,
            "time": 0.0035714291666666667,
            "value": 1
          },
          {
            "number": 64,
            "time": 3.4303577145833337,
            "value": 0
          },
          {
            "number": 64,
            "time": 3.432143429166667,
            "value": 1
          },
          {
            "number": 64,
            "time": 6.858929714583334,
            "value": 0
          },
          {
            "number": 64,
            "time": 6.860715429166667,
            "value": 1
          },
          {
            "number": 64,
            "time": 10.28750171458333,
            "value": 0
          },
          {
            "number": 64,
            "time": 10.289287429166663,
            "value": 1
          },
          {
            "number": 64,
            "time": 12.858930714583327,
            "value": 0
          },
          {
            "number": 64,
            "time": 13.71785942916666,
            "value": 1
          },
          {
            "number": 64,
            "time": 17.14464571458333,
            "value": 0
          },
          {
            "number": 64,
            "time": 17.146431429166665,
            "value": 1
          },
          {
            "number": 64,
            "time": 20.573217714583336,
            "value": 0
          },
          {
            "number": 64,
            "time": 20.57500342916667,
            "value": 1
          },
          {
            "number": 64,
            "time": 24.001789714583342,
            "value": 0
          },
          {
            "number": 64,
            "time": 24.003575429166677,
            "value": 1
          },
          {
            "number": 64,
            "time": 27.43036171458335,
            "value": 0
          },
          {
            "number": 64,
            "time": 27.432147429166683,
            "value": 1
          },
          {
            "number": 64,
            "time": 30.858933714583355,
            "value": 0
          },
          {
            "number": 64,
            "time": 30.86071942916669,
            "value": 1
          },
          {
            "number": 64,
            "time": 34.28750571458336,
            "value": 0
          },
          {
            "number": 64,
            "time": 34.289291429166695,
            "value": 1
          },
          {
            "number": 64,
            "time": 37.71607771458336,
            "value": 0
          },
          {
            "number": 64,
            "time": 37.7178634291667,
            "value": 1
          },
          {
            "number": 64,
            "time": 41.144649714583366,
            "value": 0
          },
          {
            "number": 64,
            "time": 41.1464354291667,
            "value": 1
          },
          {
            "number": 64,
            "time": 44.57322171458337,
            "value": 0
          },
          {
            "number": 64,
            "time": 44.5750074291667,
            "value": 1
          },
          {
            "number": 64,
            "time": 48.00179371458337,
            "value": 0
          },
          {
            "number": 64,
            "time": 48.003579429166706,
            "value": 1
          },
          {
            "number": 64,
            "time": 51.430365714583374,
            "value": 0
          },
          {
            "number": 64,
            "time": 51.43215142916671,
            "value": 1
          },
          {
            "number": 64,
            "time": 53.144651714583375,
            "value": 0
          },
          {
            "number": 64,
            "time": 53.14643742916671,
            "value": 1
          },
          {
            "number": 64,
            "time": 54.85893771458338,
            "value": 0
          },
          {
            "number": 64,
            "time": 54.86072342916671,
            "value": 1
          },
          {
            "number": 64,
            "time": 56.57322371458338,
            "value": 0
          },
          {
            "number": 64,
            "time": 56.57500942916671,
            "value": 1
          },
          {
            "number": 64,
            "time": 58.28750971458338,
            "value": 0
          },
          {
            "number": 64,
            "time": 58.289295429166714,
            "value": 1
          },
          {
            "number": 64,
            "time": 61.71608171458341,
            "value": 0
          },
          {
            "number": 64,
            "time": 61.717867429166745,
            "value": 1
          },
          {
            "number": 64,
            "time": 65.14465371458343,
            "value": 0
          },
          {
            "number": 64,
            "time": 65.14643942916676,
            "value": 1
          },
          {
            "number": 64,
            "time": 68.57322571458346,
            "value": 0
          },
          {
            "number": 64,
            "time": 68.57501142916679,
            "value": 1
          },
          {
            "number": 64,
            "time": 72.00179771458349,
            "value": 0
          },
          {
            "number": 64,
            "time": 72.00358342916682,
            "value": 1
          },
          {
            "number": 64,
            "time": 75.43036971458352,
            "value": 0
          },
          {
            "number": 64,
            "time": 75.43215542916685,
            "value": 1
          },
          {
            "number": 64,
            "time": 78.00179871458354,
            "value": 0
          },
          {
            "number": 64,
            "time": 78.00358442916688,
            "value": 1
          },
          {
            "number": 64,
            "time": 78.85894171458355,
            "value": 0
          },
          {
            "number": 64,
            "time": 78.86072742916689,
            "value": 1
          },
          {
            "number": 64,
            "time": 82.28751371458358,
            "value": 0
          },
          {
            "number": 64,
            "time": 82.28929942916692,
            "value": 1
          },
          {
            "number": 64,
            "time": 85.71608571458361,
            "value": 0
          },
          {
            "number": 64,
            "time": 85.71787142916695,
            "value": 1
          },
          {
            "number": 64,
            "time": 89.14465771458364,
            "value": 0
          },
          {
            "number": 64,
            "time": 89.14644342916698,
            "value": 1
          },
          {
            "number": 64,
            "time": 92.57322971458368,
            "value": 0
          },
          {
            "number": 64,
            "time": 92.57501542916701,
            "value": 1
          },
          {
            "number": 64,
            "time": 96.0018017145837,
            "value": 0
          },
          {
            "number": 64,
            "time": 96.00358742916704,
            "value": 1
          },
          {
            "number": 64,
            "time": 99.43037371458374,
            "value": 0
          },
          {
            "number": 64,
            "time": 99.43215942916707,
            "value": 1
          },
          {
            "number": 64,
            "time": 102.85894571458377,
            "value": 0
          },
          {
            "number": 64,
            "time": 102.8607314291671,
            "value": 1
          },
          {
            "number": 64,
            "time": 106.2875177145838,
            "value": 0
          },
          {
            "number": 64,
            "time": 106.28930342916713,
            "value": 1
          },
          {
            "number": 64,
            "time": 109.71608971458379,
            "value": 0
          },
          {
            "number": 64,
            "time": 109.71787542916712,
            "value": 1
          },
          {
            "number": 64,
            "time": 110.5732327145838,
            "value": 0
          },
          {
            "number": 64,
            "time": 110.57501842916713,
            "value": 1
          },
          {
            "number": 64,
            "time": 111.4303757145838,
            "value": 0
          },
          {
            "number": 64,
            "time": 111.43216142916714,
            "value": 1
          },
          {
            "number": 64,
            "time": 113.1446617145838,
            "value": 0
          },
          {
            "number": 64,
            "time": 113.14644742916714,
            "value": 1
          },
          {
            "number": 64,
            "time": 116.57323371458382,
            "value": 0
          },
          {
            "number": 64,
            "time": 116.57501942916716,
            "value": 1
          },
          {
            "number": 64,
            "time": 117.43037671458383,
            "value": 0
          },
          {
            "number": 64,
            "time": 117.43216242916716,
            "value": 1
          },
          {
            "number": 64,
            "time": 118.28751971458384,
            "value": 0
          },
          {
            "number": 64,
            "time": 118.28930542916717,
            "value": 1
          },
          {
            "number": 64,
            "time": 120.00180571458385,
            "value": 0
          },
          {
            "number": 64,
            "time": 120.00359142916719,
            "value": 1
          },
          {
            "number": 64,
            "time": 123.43037771458388,
            "value": 0
          },
          {
            "number": 64,
            "time": 123.43216342916722,
            "value": 1
          },
          {
            "number": 64,
            "time": 126.85894971458391,
            "value": 0
          },
          {
            "number": 64,
            "time": 126.86073542916725,
            "value": 1
          },
          {
            "number": 64,
            "time": 130.28752171458393,
            "value": 0
          },
          {
            "number": 64,
            "time": 130.28930742916725,
            "value": 1
          },
          {
            "number": 64,
            "time": 132.85895071458393,
            "value": 0
          },
          {
            "number": 64,
            "time": 132.86073642916725,
            "value": 1
          },
          {
            "number": 64,
            "time": 133.7160937145839,
            "value": 0
          },
          {
            "number": 64,
            "time": 133.71787942916723,
            "value": 1
          },
          {
            "number": 64,
            "time": 137.1446657145839,
            "value": 0
          },
          {
            "number": 64,
            "time": 137.14645142916723,
            "value": 1
          },
          {
            "number": 64,
            "time": 140.5732377145839,
            "value": 0
          },
          {
            "number": 64,
            "time": 140.57502342916723,
            "value": 1
          },
          {
            "number": 64,
            "time": 144.0018097145839,
            "value": 0
          },
          {
            "number": 64,
            "time": 144.00359542916723,
            "value": 1
          },
          {
            "number": 64,
            "time": 147.43038171458392,
            "value": 0
          },
          {
            "number": 64,
            "time": 147.43216742916724,
            "value": 1
          },
          {
            "number": 64,
            "time": 150.85895371458392,
            "value": 0
          },
          {
            "number": 64,
            "time": 150.86073942916724,
            "value": 1
          },
          {
            "number": 64,
            "time": 154.28752571458392,
            "value": 0
          },
          {
            "number": 64,
            "time": 154.28931142916724,
            "value": 1
          },
          {
            "number": 64,
            "time": 157.71609771458392,
            "value": 0
          },
          {
            "number": 64,
            "time": 157.71788342916724,
            "value": 1
          },
          {
            "number": 64,
            "time": 162.85895571458386,
            "value": 0
          },
          {
            "number": 64,
            "time": 162.86074142916718,
            "value": 1
          },
          {
            "number": 64,
            "time": 166.28752771458386,
            "value": 0
          },
          {
            "number": 64,
            "time": 166.28931342916718,
            "value": 1
          },
          {
            "number": 64,
            "time": 169.71609971458386,
            "value": 0
          },
          {
            "number": 64,
            "time": 169.71788542916718,
            "value": 1
          },
          {
            "number": 64,
            "time": 173.14467171458386,
            "value": 0
          },
          {
            "number": 64,
            "time": 173.14645742916719,
            "value": 1
          },
          {
            "number": 64,
            "time": 175.71610071458386,
            "value": 0
          },
          {
            "number": 64,
            "time": 175.71788642916718,
            "value": 1
          },
          {
            "number": 64,
            "time": 176.5732437145838,
            "value": 0
          },
          {
            "number": 64,
            "time": 176.57502942916713,
            "value": 1
          },
          {
            "number": 64,
            "time": 180.0018157145838,
            "value": 0
          },
          {
            "number": 64,
            "time": 180.00360142916713,
            "value": 1
          },
          {
            "number": 64,
            "time": 183.4303877145838,
            "value": 0
          },
          {
            "number": 64,
            "time": 183.4321734291671,
            "value": 1
          },
          {
            "number": 64,
            "time": 186.8589597145838,
            "value": 0
          },
          {
            "number": 64,
            "time": 186.8607454291671,
            "value": 1
          },
          {
            "number": 64,
            "time": 190.2875317145838,
            "value": 0
          },
          {
            "number": 64,
            "time": 190.2893174291671,
            "value": 1
          },
          {
            "number": 64,
            "time": 193.7161037145838,
            "value": 0
          },
          {
            "number": 64,
            "time": 193.71788942916712,
            "value": 1
          },
          {
            "number": 64,
            "time": 197.1446757145838,
            "value": 0
          },
          {
            "number": 64,
            "time": 197.14646142916712,
            "value": 1
          },
          {
            "number": 64,
            "time": 200.5732477145838,
            "value": 0
          },
          {
            "number": 64,
            "time": 200.57503342916712,
            "value": 1
          },
          {
            "number": 64,
            "time": 204.0018197145838,
            "value": 0
          },
          {
            "number": 64,
            "time": 204.00360542916712,
            "value": 1
          },
          {
            "number": 64,
            "time": 207.43039171458378,
            "value": 0
          },
          {
            "number": 64,
            "time": 207.4321774291671,
            "value": 1
          },
          {
            "number": 64,
            "time": 208.28753471458373,
            "value": 0
          },
          {
            "number": 64,
            "time": 208.28932042916705,
            "value": 1
          },
          {
            "number": 64,
            "time": 209.14467771458368,
            "value": 0
          },
          {
            "number": 64,
            "time": 209.146463429167,
            "value": 1
          },
          {
            "number": 64,
            "time": 210.85896371458364,
            "value": 0
          },
          {
            "number": 64,
            "time": 210.86074942916696,
            "value": 1
          },
          {
            "number": 64,
            "time": 214.28753571458358,
            "value": 0
          },
          {
            "number": 64,
            "time": 214.2893214291669,
            "value": 1
          },
          {
            "number": 64,
            "time": 215.14467871458353,
            "value": 0
          },
          {
            "number": 64,
            "time": 215.14646442916685,
            "value": 1
          },
          {
            "number": 64,
            "time": 216.00182171458349,
            "value": 0
          },
          {
            "number": 64,
            "time": 216.0036074291668,
            "value": 1
          },
          {
            "number": 64,
            "time": 221.14289400000013,
            "value": 0
          }
        ]
      },
      "id": 1,
      "name": "Piano",
      "channelNumber": 0,
      "isPercussion": false
    }
  ]
}