{
  "header": {
    "PPQ": 480,
    "timeSignature": [
      6,
      8
    ],
    "bpm": 83.99996640001343,
    "name": "Guitar"
  },
  "tempo": [
    {
      "absoluteTime": 0,
      "seconds": 0,
      "bpm": 83.99996640001343
    }
  ],
  "timeSignature": [
    {
      "absoluteTime": 0,
      "seconds": 0,
      "numerator": 6,
      "denominator": 3,
      "click": 24,
      "notesQ": 8
    }
  ],
  "startTime": 0,
  "duration": 154.28428790416694,
  "tracks": [
    {
      "startTime": 0,
      "duration": 152.14142990416784,
      "length": 548,
      "notes": [
        {
          "name": "G#3",
          "midi": 56,
          "time": 0,
          "velocity": 0.6299212598425197,
          "duration": 0.5342264041666668
        },
        {
          "name": "B3",
          "midi": 59,
          "time": 0,
          "velocity": 0.6299212598425197,
          "duration": 0.17708340416666668
        },
        {
          "name": "B2",
          "midi": 47,
          "time": 0,
          "velocity": 0.6299212598425197,
          "duration": 0.17708340416666668
        },
        {
          "name": "C#4",
          "midi": 61,
          "time": 0.17857150000000002,
          "velocity": 0.6299212598425197,
          "duration": 0.3556549041666668
        },
        {
          "name": "C#3",
          "midi": 49,
          "time": 0.17857150000000002,
          "velocity": 0.6299212598425197,
          "duration": 1.9627984041666668
        },
        {
          "name": "G#3",
          "midi": 56,
          "time": 0.5357145000000001,
          "velocity": 0.6299212598425197,
          "duration": 0.17708340416666668
        },
        {
          "name": "E3",
          "midi": 52,
          "time": 0.7142860000000001,
          "velocity": 0.6299212598425197,
          "duration": 0.3556549041666667
        },
        {
          "name": "G#3",
          "midi": 56,
          "time": 1.0714290000000002,
          "velocity": 0.6299212598425197,
          "duration": 0.5342264041666667
        },
        {
          "name": "C#4",
          "midi": 61,
          "time": 1.0714290000000002,
          "velocity": 0.6299212598425197,
          "duration": 0.5342264041666667
        },
        {
          "name": "F#3",
          "midi": 54,
          "time": 1.6071435000000003,
          "velocity": 0.6299212598425197,
          "duration": 0.5342264041666667
        },
        {
          "name": "B3",
          "midi": 59,
          "time": 1.6071435000000003,
          "velocity": 0.6299212598425197,
          "duration": 0.5342264041666667
        },
        {
          "name": "E3",
          "midi": 52,
          "time": 2.1428580000000004,
          "velocity": 0.6299212598425197,
          "duration": 0.5342264041666667
        },
        {
          "name": "G#3",
          "midi": 56,
          "time": 2.1428580000000004,
          "velocity": 0.6299212598425197,
          "duration": 0.5342264041666667
        },
        {
          "name": "B2",
          "midi": 47,
          "time": 2.1428580000000004,
          "velocity": 0.6299212598425197,
          "duration": 2.141369904166668
        },
        {
          "name": "G#3",
          "midi": 56,
          "time": 2.6785725000000005,
          "velocity": 0.6299212598425197,
          "duration": 0.1770834041666669
        },
        {
          "name": "E3",
          "midi": 52,
          "time": 2.857144000000001,
          "velocity": 0.6299212598425197,
          "duration": 0.3556549041666668
        },
        {
          "name": "G#3",
          "midi": 56,
          "time": 3.214287000000001,
          "velocity": 0.6299212598425197,
          "duration": 0.5342264041666667
        },
        {
          "name": "B3",
          "midi": 59,
          "time": 3.214287000000001,
          "velocity": 0.6299212598425197,
          "duration": 0.5342264041666667
        },
        {
          "name": "E3",
          "midi": 52,
          "time": 3.750001500000001,
          "velocity": 0.6299212598425197,
          "duration": 0.5342264041666671
        },
        {
          "name": "G#3",
          "midi": 56,
          "time": 3.750001500000001,
          "velocity": 0.6299212598425197,
          "duration": 0.5342264041666671
        },
        {
          "name": "E3",
          "midi": 52,
          "time": 4.285716000000002,
          "velocity": 0.6299212598425197,
          "duration": 0.5342264041666667
        },
        {
          "name": "B3",
          "midi": 59,
          "time": 4.285716000000002,
          "velocity": 0.6299212598425197,
          "duration": 0.5342264041666667
        },
        {
          "name": "A2",
          "midi": 45,
          "time": 4.285716000000002,
          "velocity": 0.6299212598425197,
          "duration": 2.141369904166667
        },
        {
          "name": "G#3",
          "midi": 56,
          "time": 4.821430500000002,
          "velocity": 0.6299212598425197,
          "duration": 0.1770834041666669
        },
        {
          "name": "E3",
          "midi": 52,
          "time": 5.000002000000002,
          "velocity": 0.6299212598425197,
          "duration": 0.35565490416666634
        },
        {
          "name": "G#3",
          "midi": 56,
          "time": 5.357145000000002,
          "velocity": 0.6299212598425197,
          "duration": 0.5342264041666667
        },
        {
          "name": "B3",
          "midi": 59,
          "time": 5.357145000000002,
          "velocity": 0.6299212598425197,
          "duration": 0.5342264041666667
        },
        {
          "name": "E3",
          "midi": 52,
          "time": 5.892859500000002,
          "velocity": 0.6299212598425197,
          "duration": 0.5342264041666667
        },
        {
          "name": "G#3",
          "midi": 56,
          "time": 5.892859500000002,
          "velocity": 0.6299212598425197,
          "duration": 0.5342264041666667
        },
        {
          "name": "E3",
          "midi": 52,
          "time": 6.428574000000002,
          "velocity": 0.6299212598425197,
          "duration": 0.5342264041666667
        },
        {
          "name": "A2",
          "midi": 45,
          "time": 6.428574000000002,
          "velocity": 0.6299212598425197,
          "duration": 2.141369904166667
        },
        {
          "name": "G#3",
          "midi": 56,
          "time": 6.964288500000002,
          "velocity": 0.6299212598425197,
          "duration": 0.1770834041666669
        },
        {
          "name": "E3",
          "midi": 52,
          "time": 7.142860000000002,
          "velocity": 0.6299212598425197,
          "duration": 0.1770834041666669
        },
        {
          "name": "B3",
          "midi": 59,
          "time": 7.321431500000003,
          "velocity": 0.6299212598425197,
          "duration": 0.1770834041666669
        },
        {
          "name": "F#3",
          "midi": 54,
          "time": 7.500003000000003,
          "velocity": 0.6299212598425197,
          "duration": 0.35565490416666634
        },
        {
          "name": "E3",
          "midi": 52,
          "time": 7.857146000000003,
          "velocity": 0.6299212598425197,
          "duration": 0.35565490416666723
        },
        {
          "name": "B3",
          "midi": 59,
          "time": 7.857146000000003,
          "velocity": 0.6299212598425197,
          "duration": 0.35565490416666723
        },
        {
          "name": "B3",
          "midi": 59,
          "time": 8.214289000000003,
          "velocity": 0.6299212598425197,
          "duration": 0.35565490416666634
        },
        {
          "name": "D#4",
          "midi": 63,
          "time": 8.214289000000003,
          "velocity": 0.6299212598425197,
          "duration": 0.35565490416666634
        },
        {
          "name": "G#3",
          "midi": 56,
          "time": 8.571432000000001,
          "velocity": 0.6299212598425197,
          "duration": 0.5342264041666649
        },
        {
          "name": "B3",
          "midi": 59,
          "time": 8.571432000000001,
          "velocity": 0.6299212598425197,
          "duration": 0.17708340416666601
        },
        {
          "name": "B2",
          "midi": 47,
          "time": 8.571432000000001,
          "velocity": 0.6299212598425197,
          "duration": 0.17708340416666601
        },
        {
          "name": "C#4",
          "midi": 61,
          "time": 8.7500035,
          "velocity": 0.6299212598425197,
          "duration": 0.35565490416666634
        },
        {
          "name": "C#3",
          "midi": 49,
          "time": 8.7500035,
          "velocity": 0.6299212598425197,
          "duration": 1.9627984041666622
        },
        {
          "name": "G#3",
          "midi": 56,
          "time": 9.107146499999999,
          "velocity": 0.6299212598425197,
          "duration": 0.17708340416666601
        },
        {
          "name": "E3",
          "midi": 52,
          "time": 9.285717999999997,
          "velocity": 0.6299212598425197,
          "duration": 0.35565490416666634
        },
        {
          "name": "G#3",
          "midi": 56,
          "time": 9.642860999999996,
          "velocity": 0.6299212598425197,
          "duration": 0.5342264041666667
        },
        {
          "name": "C#4",
          "midi": 61,
          "time": 9.642860999999996,
          "velocity": 0.6299212598425197,
          "duration": 0.5342264041666667
        },
        {
          "name": "F#3",
          "midi": 54,
          "time": 10.178575499999996,
          "velocity": 0.6299212598425197,
          "duration": 0.5342264041666667
        },
        {
          "name": "B3",
          "midi": 59,
          "time": 10.178575499999996,
          "velocity": 0.6299212598425197,
          "duration": 0.5342264041666667
        },
        {
          "name": "E3",
          "midi": 52,
          "time": 10.714289999999995,
          "velocity": 0.6299212598425197,
          "duration": 0.5342264041666667
        },
        {
          "name": "G#3",
          "midi": 56,
          "time": 10.714289999999995,
          "velocity": 0.6299212598425197,
          "duration": 0.5342264041666667
        },
        {
          "name": "B2",
          "midi": 47,
          "time": 10.714289999999995,
          "velocity": 0.6299212598425197,
          "duration": 2.1413699041666625
        },
        {
          "name": "E3",
          "midi": 52,
          "time": 11.250004499999994,
          "velocity": 0.6299212598425197,
          "duration": 0.17708340416666601
        },
        {
          "name": "E3",
          "midi": 52,
          "time": 11.428575999999993,
          "velocity": 0.6299212598425197,
          "duration": 0.35565490416666634
        },
        {
          "name": "G#3",
          "midi": 56,
          "time": 11.785718999999991,
          "velocity": 0.6299212598425197,
          "duration": 0.5342264041666667
        },
        {
          "name": "B3",
          "midi": 59,
          "time": 11.785718999999991,
          "velocity": 0.6299212598425197,
          "duration": 0.5342264041666667
        },
        {
          "name": "E3",
          "midi": 52,
          "time": 12.32143349999999,
          "velocity": 0.6299212598425197,
          "duration": 0.5342264041666667
        },
        {
          "name": "B3",
          "midi": 59,
          "time": 12.32143349999999,
          "velocity": 0.6299212598425197,
          "duration": 0.5342264041666667
        },
        {
          "name": "E3",
          "midi": 52,
          "time": 12.85714799999999,
          "velocity": 0.6299212598425197,
          "duration": 0.5342264041666667
        },
        {
          "name": "A2",
          "midi": 45,
          "time": 12.85714799999999,
          "velocity": 0.6299212598425197,
          "duration": 2.1413699041666625
        },
        {
          "name": "G#3",
          "midi": 56,
          "time": 13.392862499999989,
          "velocity": 0.6299212598425197,
          "duration": 0.17708340416666601
        },
        {
          "name": "E3",
          "midi": 52,
          "time": 13.571433999999988,
          "velocity": 0.6299212598425197,
          "duration": 0.35565490416666634
        },
        {
          "name": "G#3",
          "midi": 56,
          "time": 13.928576999999986,
          "velocity": 0.6299212598425197,
          "duration": 0.5342264041666667
        },
        {
          "name": "B3",
          "midi": 59,
          "time": 13.928576999999986,
          "velocity": 0.6299212598425197,
          "duration": 0.5342264041666667
        },
        {
          "name": "G#3",
          "midi": 56,
          "time": 14.464291499999986,
          "velocity": 0.6299212598425197,
          "duration": 0.5342264041666667
        },
        {
          "name": "E3",
          "midi": 52,
          "time": 15.000005999999985,
          "velocity": 0.6299212598425197,
          "duration": 1.0699409041666677
        },
        {
          "name": "A2",
          "midi": 45,
          "time": 15.000005999999985,
          "velocity": 0.6299212598425197,
          "duration": 2.1413699041666696
        },
        {
          "name": "D#3",
          "midi": 51,
          "time": 16.071434999999987,
          "velocity": 0.6299212598425197,
          "duration": 0.17708340416666601
        },
        {
          "name": "E3",
          "midi": 52,
          "time": 16.250006499999987,
          "velocity": 0.6299212598425197,
          "duration": 0.17708340416666601
        },
        {
          "name": "D#3",
          "midi": 51,
          "time": 16.428577999999987,
          "velocity": 0.6299212598425197,
          "duration": 0.35565490416666634
        },
        {
          "name": "B2",
          "midi": 47,
          "time": 16.785720999999988,
          "velocity": 0.6299212598425197,
          "duration": 0.35565490416666634
        },
        {
          "name": "G#3",
          "midi": 56,
          "time": 17.14286399999999,
          "velocity": 0.6299212598425197,
          "duration": 0.5342264041666667
        },
        {
          "name": "B3",
          "midi": 59,
          "time": 17.14286399999999,
          "velocity": 0.6299212598425197,
          "duration": 0.17708340416666601
        },
        {
          "name": "B2",
          "midi": 47,
          "time": 17.14286399999999,
          "velocity": 0.6299212598425197,
          "duration": 0.17708340416666601
        },
        {
          "name": "C#4",
          "midi": 61,
          "time": 17.32143549999999,
          "velocity": 0.6299212598425197,
          "duration": 0.35565490416666634
        },
        {
          "name": "C#3",
          "midi": 49,
          "time": 17.32143549999999,
          "velocity": 0.6299212598425197,
          "duration": 0.8913694041666673
        },
        {
          "name": "G#3",
          "midi": 56,
          "time": 17.67857849999999,
          "velocity": 0.6299212598425197,
          "duration": 0.17708340416666601
        },
        {
          "name": "E3",
          "midi": 52,
          "time": 17.85714999999999,
          "velocity": 0.6299212598425197,
          "duration": 0.35565490416666634
        },
        {
          "name": "C#3",
          "midi": 49,
          "time": 18.21429299999999,
          "velocity": 0.6299212598425197,
          "duration": 0.5342264041666667
        },
        {
          "name": "C#4",
          "midi": 61,
          "time": 18.21429299999999,
          "velocity": 0.6299212598425197,
          "duration": 0.5342264041666667
        },
        {
          "name": "D#3",
          "midi": 51,
          "time": 18.75000749999999,
          "velocity": 0.6299212598425197,
          "duration": 0.5342264041666667
        },
        {
          "name": "D#4",
          "midi": 63,
          "time": 18.75000749999999,
          "velocity": 0.6299212598425197,
          "duration": 0.5342264041666667
        },
        {
          "name": "E3",
          "midi": 52,
          "time": 19.285721999999993,
          "velocity": 0.6299212598425197,
          "duration": 0.5342264041666667
        },
        {
          "name": "B3",
          "midi": 59,
          "time": 19.285721999999993,
          "velocity": 0.6299212598425197,
          "duration": 0.5342264041666667
        },
        {
          "name": "B2",
          "midi": 47,
          "time": 19.285721999999993,
          "velocity": 0.6299212598425197,
          "duration": 2.1413699041666696
        },
        {
          "name": "G#3",
          "midi": 56,
          "time": 19.821436499999994,
          "velocity": 0.6299212598425197,
          "duration": 0.17708340416666601
        },
        {
          "name": "E3",
          "midi": 52,
          "time": 20.000007999999994,
          "velocity": 0.6299212598425197,
          "duration": 0.35565490416666634
        },
        {
          "name": "B3",
          "midi": 59,
          "time": 20.357150999999995,
          "velocity": 0.6299212598425197,
          "duration": 0.5342264041666667
        },
        {
          "name": "E4",
          "midi": 64,
          "time": 20.892865499999996,
          "velocity": 0.6299212598425197,
          "duration": 0.5342264041666667
        },
        {
          "name": "A2",
          "midi": 45,
          "time": 21.428579999999997,
          "velocity": 0.6299212598425197,
          "duration": 1.0699409041666677
        },
        {
          "name": "E4",
          "midi": 64,
          "time": 22.500009,
          "velocity": 0.6299212598425197,
          "duration": 0.5342264041666667
        },
        {
          "name": "B3",
          "midi": 59,
          "time": 23.0357235,
          "velocity": 0.6299212598425197,
          "duration": 0.5342264041666667
        },
        {
          "name": "E3",
          "midi": 52,
          "time": 23.571438,
          "velocity": 0.6299212598425197,
          "duration": 0.5342264041666667
        },
        {
          "name": "A2",
          "midi": 45,
          "time": 23.571438,
          "velocity": 0.6299212598425197,
          "duration": 2.1413699041666696
        },
        {
          "name": "G#3",
          "midi": 56,
          "time": 24.1071525,
          "velocity": 0.6299212598425197,
          "duration": 0.17708340416666601
        },
        {
          "name": "E3",
          "midi": 52,
          "time": 24.285724000000002,
          "velocity": 0.6299212598425197,
          "duration": 0.35565490416666634
        },
        {
          "name": "F#3",
          "midi": 54,
          "time": 24.642867000000003,
          "velocity": 0.6299212598425197,
          "duration": 0.35565490416666634
        },
        {
          "name": "E3",
          "midi": 52,
          "time": 25.000010000000003,
          "velocity": 0.6299212598425197,
          "duration": 0.35565490416666634
        },
        {
          "name": "G#3",
          "midi": 56,
          "time": 25.000010000000003,
          "velocity": 0.6299212598425197,
          "duration": 0.35565490416666634
        },
        {
          "name": "F#3",
          "midi": 54,
          "time": 25.357153000000004,
          "velocity": 0.6299212598425197,
          "duration": 0.35565490416666634
        },
        {
          "name": "B3",
          "midi": 59,
          "time": 25.357153000000004,
          "velocity": 0.6299212598425197,
          "duration": 0.35565490416666634
        },
        {
          "name": "G#3",
          "midi": 56,
          "time": 25.714296000000004,
          "velocity": 0.6299212598425197,
          "duration": 0.5342264041666667
        },
        {
          "name": "B3",
          "midi": 59,
          "time": 25.714296000000004,
          "velocity": 0.6299212598425197,
          "duration": 0.17708340416666601
        },
        {
          "name": "B2",
          "midi": 47,
          "time": 25.714296000000004,
          "velocity": 0.6299212598425197,
          "duration": 0.17708340416666601
        },
        {
          "name": "C#4",
          "midi": 61,
          "time": 25.892867500000005,
          "velocity": 0.6299212598425197,
          "duration": 0.35565490416666634
        },
        {
          "name": "C#3",
          "midi": 49,
          "time": 25.892867500000005,
          "velocity": 0.6299212598425197,
          "duration": 0.8913694041666673
        },
        {
          "name": "G#3",
          "midi": 56,
          "time": 26.250010500000005,
          "velocity": 0.6299212598425197,
          "duration": 0.17708340416666601
        },
        {
          "name": "E3",
          "midi": 52,
          "time": 26.428582000000006,
          "velocity": 0.6299212598425197,
          "duration": 0.35565490416666634
        },
        {
          "name": "C#3",
          "midi": 49,
          "time": 26.785725000000006,
          "velocity": 0.6299212598425197,
          "duration": 0.5342264041666667
        },
        {
          "name": "C#4",
          "midi": 61,
          "time": 26.785725000000006,
          "velocity": 0.6299212598425197,
          "duration": 0.5342264041666667
        },
        {
          "name": "G#3",
          "midi": 56,
          "time": 27.321439500000007,
          "velocity": 0.6299212598425197,
          "duration": 0.5342264041666667
        },
        {
          "name": "C#4",
          "midi": 61,
          "time": 27.321439500000007,
          "velocity": 0.6299212598425197,
          "duration": 0.5342264041666667
        },
        {
          "name": "B4",
          "midi": 71,
          "time": 27.321439500000007,
          "velocity": 0.6299212598425197,
          "duration": 0.5342264041666667
        },
        {
          "name": "E3",
          "midi": 52,
          "time": 27.85715400000001,
          "velocity": 0.6299212598425197,
          "duration": 0.5342264041666667
        },
        {
          "name": "G#3",
          "midi": 56,
          "time": 27.85715400000001,
          "velocity": 0.6299212598425197,
          "duration": 0.5342264041666667
        },
        {
          "name": "B2",
          "midi": 47,
          "time": 27.85715400000001,
          "velocity": 0.6299212598425197,
          "duration": 2.1413699041666696
        },
        {
          "name": "G#3",
          "midi": 56,
          "time": 28.39286850000001,
          "velocity": 0.6299212598425197,
          "duration": 0.17708340416666601
        },
        {
          "name": "E3",
          "midi": 52,
          "time": 28.57144000000001,
          "velocity": 0.6299212598425197,
          "duration": 0.35565490416666634
        },
        {
          "name": "G#3",
          "midi": 56,
          "time": 28.92858300000001,
          "velocity": 0.6299212598425197,
          "duration": 0.5342264041666667
        },
        {
          "name": "B3",
          "midi": 59,
          "time": 28.92858300000001,
          "velocity": 0.6299212598425197,
          "duration": 0.5342264041666667
        },
        {
          "name": "E3",
          "midi": 52,
          "time": 29.46429750000001,
          "velocity": 0.6299212598425197,
          "duration": 0.5342264041666667
        },
        {
          "name": "G#3",
          "midi": 56,
          "time": 29.46429750000001,
          "velocity": 0.6299212598425197,
          "duration": 0.5342264041666667
        },
        {
          "name": "E3",
          "midi": 52,
          "time": 30.000012000000012,
          "velocity": 0.6299212598425197,
          "duration": 0.5342264041666667
        },
        {
          "name": "A2",
          "midi": 45,
          "time": 30.000012000000012,
          "velocity": 0.6299212598425197,
          "duration": 2.141369904166673
        },
        {
          "name": "G#3",
          "midi": 56,
          "time": 30.535726500000013,
          "velocity": 0.6299212598425197,
          "duration": 0.17708340416666601
        },
        {
          "name": "E3",
          "midi": 52,
          "time": 30.714298000000014,
          "velocity": 0.6299212598425197,
          "duration": 0.35565490416666634
        },
        {
          "name": "G#3",
          "midi": 56,
          "time": 31.071441000000014,
          "velocity": 0.6299212598425197,
          "duration": 0.5342264041666667
        },
        {
          "name": "B3",
          "midi": 59,
          "time": 31.071441000000014,
          "velocity": 0.6299212598425197,
          "duration": 0.5342264041666667
        },
        {
          "name": "E3",
          "midi": 52,
          "time": 31.607155500000015,
          "velocity": 0.6299212598425197,
          "duration": 0.5342264041666702
        },
        {
          "name": "G#3",
          "midi": 56,
          "time": 31.607155500000015,
          "velocity": 0.6299212598425197,
          "duration": 0.5342264041666702
        },
        {
          "name": "E3",
          "midi": 52,
          "time": 32.142870000000016,
          "velocity": 0.6299212598425197,
          "duration": 1.069940904166664
        },
        {
          "name": "E3",
          "midi": 52,
          "time": 33.21429900000001,
          "velocity": 0.6299212598425197,
          "duration": 0.17708340416666601
        },
        {
          "name": "F#3",
          "midi": 54,
          "time": 33.39287050000001,
          "velocity": 0.6299212598425197,
          "duration": 0.17708340416666601
        },
        {
          "name": "E3",
          "midi": 52,
          "time": 33.571442000000005,
          "velocity": 0.6299212598425197,
          "duration": 0.3556549041666699
        },
        {
          "name": "B2",
          "midi": 47,
          "time": 33.928585000000005,
          "velocity": 0.6299212598425197,
          "duration": 0.3556549041666699
        },
        {
          "name": "B3",
          "midi": 59,
          "time": 33.928585000000005,
          "velocity": 0.6299212598425197,
          "duration": 0.3556549041666699
        },
        {
          "name": "B2",
          "midi": 47,
          "time": 34.285728000000006,
          "velocity": 0.6299212598425197,
          "duration": 0.17708340416666601
        },
        {
          "name": "G#3",
          "midi": 56,
          "time": 34.285728000000006,
          "velocity": 0.6299212598425197,
          "duration": 0.5342264041666667
        },
        {
          "name": "C#3",
          "midi": 49,
          "time": 34.4642995,
          "velocity": 0.6299212598425197,
          "duration": 0.3556549041666699
        },
        {
          "name": "G#3",
          "midi": 56,
          "time": 34.8214425,
          "velocity": 0.6299212598425197,
          "duration": 0.17708340416666601
        },
        {
          "name": "C#3",
          "midi": 49,
          "time": 35.000014,
          "velocity": 0.6299212598425197,
          "duration": 0.3556549041666699
        },
        {
          "name": "G#3",
          "midi": 56,
          "time": 35.357157,
          "velocity": 0.6299212598425197,
          "duration": 0.5342264041666667
        },
        {
          "name": "C#4",
          "midi": 61,
          "time": 35.357157,
          "velocity": 0.6299212598425197,
          "duration": 0.5342264041666667
        },
        {
          "name": "E3",
          "midi": 52,
          "time": 35.8928715,
          "velocity": 0.6299212598425197,
          "duration": 0.5342264041666667
        },
        {
          "name": "G#3",
          "midi": 56,
          "time": 35.8928715,
          "velocity": 0.6299212598425197,
          "duration": 0.5342264041666667
        },
        {
          "name": "E3",
          "midi": 52,
          "time": 36.428585999999996,
          "velocity": 0.6299212598425197,
          "duration": 0.5342264041666667
        },
        {
          "name": "B3",
          "midi": 59,
          "time": 36.428585999999996,
          "velocity": 0.6299212598425197,
          "duration": 0.5342264041666667
        },
        {
          "name": "B2",
          "midi": 47,
          "time": 36.428585999999996,
          "velocity": 0.6299212598425197,
          "duration": 2.141369904166652
        },
        {
          "name": "G#3",
          "midi": 56,
          "time": 36.96430049999999,
          "velocity": 0.6299212598425197,
          "duration": 0.17708340416666601
        },
        {
          "name": "E3",
          "midi": 52,
          "time": 37.14287199999999,
          "velocity": 0.6299212598425197,
          "duration": 0.3556549041666699
        },
        {
          "name": "G#3",
          "midi": 56,
          "time": 37.50001499999999,
          "velocity": 0.6299212598425197,
          "duration": 0.5342264041666667
        },
        {
          "name": "B3",
          "midi": 59,
          "time": 37.50001499999999,
          "velocity": 0.6299212598425197,
          "duration": 0.5342264041666667
        },
        {
          "name": "E3",
          "midi": 52,
          "time": 38.03572949999999,
          "velocity": 0.6299212598425197,
          "duration": 0.17708340416666601
        },
        {
          "name": "G#3",
          "midi": 56,
          "time": 38.03572949999999,
          "velocity": 0.6299212598425197,
          "duration": 0.17708340416666601
        },
        {
          "name": "E3",
          "midi": 52,
          "time": 38.214300999999985,
          "velocity": 0.6299212598425197,
          "duration": 0.17708340416666601
        },
        {
          "name": "F#3",
          "midi": 54,
          "time": 38.39287249999998,
          "velocity": 0.6299212598425197,
          "duration": 0.17708340416666601
        },
        {
          "name": "E3",
          "midi": 52,
          "time": 38.57144399999998,
          "velocity": 0.6299212598425197,
          "duration": 0.5342264041666667
        },
        {
          "name": "B3",
          "midi": 59,
          "time": 38.57144399999998,
          "velocity": 0.6299212598425197,
          "duration": 0.5342264041666667
        },
        {
          "name": "A2",
          "midi": 45,
          "time": 38.57144399999998,
          "velocity": 0.6299212598425197,
          "duration": 2.141369904166659
        },
        {
          "name": "G#3",
          "midi": 56,
          "time": 39.107158499999976,
          "velocity": 0.6299212598425197,
          "duration": 0.17708340416666601
        },
        {
          "name": "E3",
          "midi": 52,
          "time": 39.28572999999997,
          "velocity": 0.6299212598425197,
          "duration": 0.3556549041666699
        },
        {
          "name": "G#3",
          "midi": 56,
          "time": 39.64287299999997,
          "velocity": 0.6299212598425197,
          "duration": 0.5342264041666667
        },
        {
          "name": "B3",
          "midi": 59,
          "time": 39.64287299999997,
          "velocity": 0.6299212598425197,
          "duration": 0.5342264041666667
        },
        {
          "name": "E3",
          "midi": 52,
          "time": 40.17858749999997,
          "velocity": 0.6299212598425197,
          "duration": 0.5342264041666667
        },
        {
          "name": "G#3",
          "midi": 56,
          "time": 40.17858749999997,
          "velocity": 0.6299212598425197,
          "duration": 0.5342264041666667
        },
        {
          "name": "E3",
          "midi": 52,
          "time": 40.71430199999997,
          "velocity": 0.6299212598425197,
          "duration": 0.5342264041666667
        },
        {
          "name": "A2",
          "midi": 45,
          "time": 40.71430199999997,
          "velocity": 0.6299212598425197,
          "duration": 1.069940904166657
        },
        {
          "name": "G#3",
          "midi": 56,
          "time": 41.250016499999965,
          "velocity": 0.6299212598425197,
          "duration": 0.17708340416666601
        },
        {
          "name": "E3",
          "midi": 52,
          "time": 41.42858799999996,
          "velocity": 0.6299212598425197,
          "duration": 0.17708340416666601
        },
        {
          "name": "B3",
          "midi": 59,
          "time": 41.60715949999996,
          "velocity": 0.6299212598425197,
          "duration": 0.17708340416666601
        },
        {
          "name": "F#3",
          "midi": 54,
          "time": 41.785730999999956,
          "velocity": 0.6299212598425197,
          "duration": 0.3556549041666699
        },
        {
          "name": "B2",
          "midi": 47,
          "time": 41.785730999999956,
          "velocity": 0.6299212598425197,
          "duration": 1.0699409041666712
        },
        {
          "name": "G#3",
          "midi": 56,
          "time": 42.142873999999956,
          "velocity": 0.6299212598425197,
          "duration": 0.3556549041666699
        },
        {
          "name": "B3",
          "midi": 59,
          "time": 42.50001699999996,
          "velocity": 0.6299212598425197,
          "duration": 0.3556549041666699
        },
        {
          "name": "D#4",
          "midi": 63,
          "time": 42.50001699999996,
          "velocity": 0.6299212598425197,
          "duration": 0.3556549041666699
        },
        {
          "name": "G#3",
          "midi": 56,
          "time": 42.85715999999996,
          "velocity": 0.6299212598425197,
          "duration": 0.5342264041666667
        },
        {
          "name": "B3",
          "midi": 59,
          "time": 42.85715999999996,
          "velocity": 0.6299212598425197,
          "duration": 0.17708340416666601
        },
        {
          "name": "B2",
          "midi": 47,
          "time": 42.85715999999996,
          "velocity": 0.6299212598425197,
          "duration": 0.17708340416666601
        },
        {
          "name": "C#4",
          "midi": 61,
          "time": 43.035731499999955,
          "velocity": 0.6299212598425197,
          "duration": 0.3556549041666699
        },
        {
          "name": "C#3",
          "midi": 49,
          "time": 43.035731499999955,
          "velocity": 0.6299212598425197,
          "duration": 0.8913694041666673
        },
        {
          "name": "G#3",
          "midi": 56,
          "time": 43.392874499999955,
          "velocity": 0.6299212598425197,
          "duration": 0.17708340416666601
        },
        {
          "name": "E3",
          "midi": 52,
          "time": 43.57144599999995,
          "velocity": 0.6299212598425197,
          "duration": 0.3556549041666699
        },
        {
          "name": "G#3",
          "midi": 56,
          "time": 43.92858899999995,
          "velocity": 0.6299212598425197,
          "duration": 0.5342264041666667
        },
        {
          "name": "C#4",
          "midi": 61,
          "time": 43.92858899999995,
          "velocity": 0.6299212598425197,
          "duration": 0.5342264041666667
        },
        {
          "name": "F#3",
          "midi": 54,
          "time": 44.46430349999995,
          "velocity": 0.6299212598425197,
          "duration": 0.5342264041666667
        },
        {
          "name": "B3",
          "midi": 59,
          "time": 44.46430349999995,
          "velocity": 0.6299212598425197,
          "duration": 0.5342264041666667
        },
        {
          "name": "E3",
          "midi": 52,
          "time": 45.00001799999995,
          "velocity": 0.6299212598425197,
          "duration": 0.5342264041666667
        },
        {
          "name": "G#3",
          "midi": 56,
          "time": 45.00001799999995,
          "velocity": 0.6299212598425197,
          "duration": 0.5342264041666667
        },
        {
          "name": "G#3",
          "midi": 56,
          "time": 45.535732499999945,
          "velocity": 0.6299212598425197,
          "duration": 0.17708340416666601
        },
        {
          "name": "E3",
          "midi": 52,
          "time": 45.71430399999994,
          "velocity": 0.6299212598425197,
          "duration": 0.3556549041666699
        },
        {
          "name": "G#3",
          "midi": 56,
          "time": 46.07144699999994,
          "velocity": 0.6299212598425197,
          "duration": 0.3556549041666699
        },
        {
          "name": "E4",
          "midi": 64,
          "time": 46.07144699999994,
          "velocity": 0.6299212598425197,
          "duration": 0.3556549041666699
        },
        {
          "name": "E4",
          "midi": 64,
          "time": 46.42858999999994,
          "velocity": 0.6299212598425197,
          "duration": 0.17708340416666601
        },
        {
          "name": "G#3",
          "midi": 56,
          "time": 46.60716149999994,
          "velocity": 0.6299212598425197,
          "duration": 0.17708340416666601
        },
        {
          "name": "B3",
          "midi": 59,
          "time": 46.78573299999994,
          "velocity": 0.6299212598425197,
          "duration": 0.3556549041666699
        },
        {
          "name": "E3",
          "midi": 52,
          "time": 47.14287599999994,
          "velocity": 0.6299212598425197,
          "duration": 0.5342264041666667
        },
        {
          "name": "A2",
          "midi": 45,
          "time": 47.14287599999994,
          "velocity": 0.6299212598425197,
          "duration": 2.141369904166652
        },
        {
          "name": "G#3",
          "midi": 56,
          "time": 47.678590499999935,
          "velocity": 0.6299212598425197,
          "duration": 0.17708340416666601
        },
        {
          "name": "E3",
          "midi": 52,
          "time": 47.85716199999993,
          "velocity": 0.6299212598425197,
          "duration": 0.3556549041666699
        },
        {
          "name": "B3",
          "midi": 59,
          "time": 48.21430499999993,
          "velocity": 0.6299212598425197,
          "duration": 0.5342264041666667
        },
        {
          "name": "E4",
          "midi": 64,
          "time": 48.21430499999993,
          "velocity": 0.6299212598425197,
          "duration": 0.5342264041666667
        },
        {
          "name": "G#3",
          "midi": 56,
          "time": 48.75001949999993,
          "velocity": 0.6299212598425197,
          "duration": 0.17708340416666601
        },
        {
          "name": "B3",
          "midi": 59,
          "time": 48.75001949999993,
          "velocity": 0.6299212598425197,
          "duration": 0.17708340416666601
        },
        {
          "name": "E3",
          "midi": 52,
          "time": 48.928590999999926,
          "velocity": 0.6299212598425197,
          "duration": 0.17708340416666601
        },
        {
          "name": "F#3",
          "midi": 54,
          "time": 49.10716249999992,
          "velocity": 0.6299212598425197,
          "duration": 0.17708340416666601
        },
        {
          "name": "E3",
          "midi": 52,
          "time": 49.28573399999992,
          "velocity": 0.6299212598425197,
          "duration": 0.5342264041666667
        },
        {
          "name": "A2",
          "midi": 45,
          "time": 49.28573399999992,
          "velocity": 0.6299212598425197,
          "duration": 2.141369904166666
        },
        {
          "name": "G#3",
          "midi": 56,
          "time": 49.82144849999992,
          "velocity": 0.6299212598425197,
          "duration": 0.17708340416666601
        },
        {
          "name": "E3",
          "midi": 52,
          "time": 50.000019999999914,
          "velocity": 0.6299212598425197,
          "duration": 0.3556549041666699
        },
        {
          "name": "B2",
          "midi": 47,
          "time": 50.357162999999915,
          "velocity": 0.6299212598425197,
          "duration": 0.3556549041666699
        },
        {
          "name": "E3",
          "midi": 52,
          "time": 50.714305999999915,
          "velocity": 0.6299212598425197,
          "duration": 0.3556549041666699
        },
        {
          "name": "G#3",
          "midi": 56,
          "time": 51.071448999999916,
          "velocity": 0.6299212598425197,
          "duration": 0.3556549041666699
        },
        {
          "name": "G#3",
          "midi": 56,
          "time": 51.42859199999992,
          "velocity": 0.6299212598425197,
          "duration": 0.7127979041666634
        },
        {
          "name": "B3",
          "midi": 59,
          "time": 51.42859199999992,
          "velocity": 0.6299212598425197,
          "duration": 0.17708340416666601
        },
        {
          "name": "B2",
          "midi": 47,
          "time": 51.42859199999992,
          "velocity": 0.6299212598425197,
          "duration": 0.17708340416666601
        },
        {
          "name": "C#4",
          "midi": 61,
          "time": 51.60716349999991,
          "velocity": 0.6299212598425197,
          "duration": 0.5342264041666667
        },
        {
          "name": "C#3",
          "midi": 49,
          "time": 51.60716349999991,
          "velocity": 0.6299212598425197,
          "duration": 0.8928574999999981
        },
        {
          "name": "E3",
          "midi": 52,
          "time": 52.14287799999991,
          "velocity": 0.6299212598425197,
          "duration": 0.3556549041666699
        },
        {
          "name": "C#3",
          "midi": 49,
          "time": 52.50002099999991,
          "velocity": 0.6299212598425197,
          "duration": 0.8913694041666673
        },
        {
          "name": "C#4",
          "midi": 61,
          "time": 52.50002099999991,
          "velocity": 0.6299212598425197,
          "duration": 0.5342264041666667
        },
        {
          "name": "D#3",
          "midi": 51,
          "time": 53.03573549999991,
          "velocity": 0.6299212598425197,
          "duration": 0.5342264041666667
        },
        {
          "name": "G#3",
          "midi": 56,
          "time": 53.03573549999991,
          "velocity": 0.6299212598425197,
          "duration": 0.5342264041666667
        },
        {
          "name": "B3",
          "midi": 59,
          "time": 53.571449999999906,
          "velocity": 0.6299212598425197,
          "duration": 0.5342264041666667
        },
        {
          "name": "E3",
          "midi": 52,
          "time": 53.571449999999906,
          "velocity": 0.6299212598425197,
          "duration": 0.7142859999999942
        },
        {
          "name": "G#3",
          "midi": 56,
          "time": 54.107164499999904,
          "velocity": 0.6299212598425197,
          "duration": 0.17708340416666601
        },
        {
          "name": "E3",
          "midi": 52,
          "time": 54.2857359999999,
          "velocity": 0.6299212598425197,
          "duration": 1.4270839041666648
        },
        {
          "name": "B3",
          "midi": 59,
          "time": 54.6428789999999,
          "velocity": 0.6299212598425197,
          "duration": 0.5342264041666667
        },
        {
          "name": "G#3",
          "midi": 56,
          "time": 55.1785934999999,
          "velocity": 0.6299212598425197,
          "duration": 0.5342264041666667
        },
        {
          "name": "E3",
          "midi": 52,
          "time": 55.714307999999896,
          "velocity": 0.6299212598425197,
          "duration": 0.5342264041666667
        },
        {
          "name": "A2",
          "midi": 45,
          "time": 55.714307999999896,
          "velocity": 0.6299212598425197,
          "duration": 2.141369904166652
        },
        {
          "name": "G#3",
          "midi": 56,
          "time": 56.25002249999989,
          "velocity": 0.6299212598425197,
          "duration": 0.17708340416666601
        },
        {
          "name": "E3",
          "midi": 52,
          "time": 56.42859399999989,
          "velocity": 0.6299212598425197,
          "duration": 0.17708340416666601
        },
        {
          "name": "G#3",
          "midi": 56,
          "time": 56.60716549999989,
          "velocity": 0.6299212598425197,
          "duration": 0.17708340416666601
        },
        {
          "name": "G#3",
          "midi": 56,
          "time": 56.785736999999884,
          "velocity": 0.6299212598425197,
          "duration": 0.5342264041666667
        },
        {
          "name": "B3",
          "midi": 59,
          "time": 56.785736999999884,
          "velocity": 0.6299212598425197,
          "duration": 0.5342264041666667
        },
        {
          "name": "E3",
          "midi": 52,
          "time": 57.32145149999988,
          "velocity": 0.6299212598425197,
          "duration": 0.5342264041666667
        },
        {
          "name": "G#3",
          "midi": 56,
          "time": 57.32145149999988,
          "velocity": 0.6299212598425197,
          "duration": 0.5342264041666667
        },
        {
          "name": "A2",
          "midi": 45,
          "time": 57.85716599999988,
          "velocity": 0.6299212598425197,
          "duration": 2.141369904166659
        },
        {
          "name": "G#3",
          "midi": 56,
          "time": 58.392880499999876,
          "velocity": 0.6299212598425197,
          "duration": 0.17708340416666601
        },
        {
          "name": "E3",
          "midi": 52,
          "time": 58.57145199999987,
          "velocity": 0.6299212598425197,
          "duration": 0.17708340416666601
        },
        {
          "name": "G#3",
          "midi": 56,
          "time": 58.75002349999987,
          "velocity": 0.6299212598425197,
          "duration": 0.17708340416666601
        },
        {
          "name": "B2",
          "midi": 47,
          "time": 58.928594999999866,
          "velocity": 0.6299212598425197,
          "duration": 0.3556549041666699
        },
        {
          "name": "E3",
          "midi": 52,
          "time": 59.28573799999987,
          "velocity": 0.6299212598425197,
          "duration": 0.3556549041666699
        },
        {
          "name": "B3",
          "midi": 59,
          "time": 59.28573799999987,
          "velocity": 0.6299212598425197,
          "duration": 0.3556549041666699
        },
        {
          "name": "G#3",
          "midi": 56,
          "time": 59.64288099999987,
          "velocity": 0.6299212598425197,
          "duration": 0.3556549041666699
        },
        {
          "name": "D#4",
          "midi": 63,
          "time": 59.64288099999987,
          "velocity": 0.6299212598425197,
          "duration": 0.3556549041666699
        },
        {
          "name": "G#3",
          "midi": 56,
          "time": 60.00002399999987,
          "velocity": 0.6299212598425197,
          "duration": 0.7127979041666634
        },
        {
          "name": "B3",
          "midi": 59,
          "time": 60.00002399999987,
          "velocity": 0.6299212598425197,
          "duration": 0.17708340416666601
        },
        {
          "name": "B2",
          "midi": 47,
          "time": 60.00002399999987,
          "velocity": 0.6299212598425197,
          "duration": 0.17708340416666601
        },
        {
          "name": "C#4",
          "midi": 61,
          "time": 60.178595499999865,
          "velocity": 0.6299212598425197,
          "duration": 0.5342264041666667
        },
        {
          "name": "C#3",
          "midi": 49,
          "time": 60.178595499999865,
          "velocity": 0.6299212598425197,
          "duration": 0.8928574999999981
        },
        {
          "name": "E3",
          "midi": 52,
          "time": 60.71430999999986,
          "velocity": 0.6299212598425197,
          "duration": 0.3556549041666699
        },
        {
          "name": "C#3",
          "midi": 49,
          "time": 61.07145299999986,
          "velocity": 0.6299212598425197,
          "duration": 0.8913694041666673
        },
        {
          "name": "C#4",
          "midi": 61,
          "time": 61.07145299999986,
          "velocity": 0.6299212598425197,
          "duration": 0.5342264041666667
        },
        {
          "name": "D#3",
          "midi": 51,
          "time": 61.60716749999986,
          "velocity": 0.6299212598425197,
          "duration": 0.5342264041666667
        },
        {
          "name": "G#3",
          "midi": 56,
          "time": 61.60716749999986,
          "velocity": 0.6299212598425197,
          "duration": 0.5342264041666667
        },
        {
          "name": "B3",
          "midi": 59,
          "time": 62.14288199999986,
          "velocity": 0.6299212598425197,
          "duration": 0.5342264041666667
        },
        {
          "name": "E3",
          "midi": 52,
          "time": 62.14288199999986,
          "velocity": 0.6299212598425197,
          "duration": 0.7142859999999942
        },
        {
          "name": "G#3",
          "midi": 56,
          "time": 62.678596499999855,
          "velocity": 0.6299212598425197,
          "duration": 0.17708340416666601
        },
        {
          "name": "E3",
          "midi": 52,
          "time": 62.85716799999985,
          "velocity": 0.6299212598425197,
          "duration": 1.4270839041666719
        },
        {
          "name": "E4",
          "midi": 64,
          "time": 63.21431099999985,
          "velocity": 0.6299212598425197,
          "duration": 0.3556549041666699
        },
        {
          "name": "E4",
          "midi": 64,
          "time": 63.571453999999854,
          "velocity": 0.6299212598425197,
          "duration": 0.3556549041666699
        },
        {
          "name": "B3",
          "midi": 59,
          "time": 63.928596999999854,
          "velocity": 0.6299212598425197,
          "duration": 0.3556549041666699
        },
        {
          "name": "E3",
          "midi": 52,
          "time": 64.28573999999986,
          "velocity": 0.6299212598425197,
          "duration": 0.5342264041666738
        },
        {
          "name": "A2",
          "midi": 45,
          "time": 64.28573999999986,
          "velocity": 0.6299212598425197,
          "duration": 2.1413699041667087
        },
        {
          "name": "G#3",
          "midi": 56,
          "time": 64.82145449999987,
          "velocity": 0.6299212598425197,
          "duration": 0.17708340416666601
        },
        {
          "name": "E3",
          "midi": 52,
          "time": 65.00002599999988,
          "velocity": 0.6299212598425197,
          "duration": 0.3556549041666699
        },
        {
          "name": "G#3",
          "midi": 56,
          "time": 65.35716899999989,
          "velocity": 0.6299212598425197,
          "duration": 0.5342264041666738
        },
        {
          "name": "E4",
          "midi": 64,
          "time": 65.35716899999989,
          "velocity": 0.6299212598425197,
          "duration": 0.5342264041666738
        },
        {
          "name": "G#3",
          "midi": 56,
          "time": 65.8928834999999,
          "velocity": 0.6299212598425197,
          "duration": 0.5342264041666738
        },
        {
          "name": "A2",
          "midi": 45,
          "time": 66.42859799999991,
          "velocity": 0.6299212598425197,
          "duration": 2.1413699041666945
        },
        {
          "name": "G#3",
          "midi": 56,
          "time": 66.9643124999999,
          "velocity": 0.6299212598425197,
          "duration": 0.17708340416666601
        },
        {
          "name": "E3",
          "midi": 52,
          "time": 67.14288399999991,
          "velocity": 0.6299212598425197,
          "duration": 0.3556549041666699
        },
        {
          "name": "B2",
          "midi": 47,
          "time": 67.50002699999992,
          "velocity": 0.6299212598425197,
          "duration": 0.3556549041666699
        },
        {
          "name": "E3",
          "midi": 52,
          "time": 67.85716999999993,
          "velocity": 0.6299212598425197,
          "duration": 0.3556549041666699
        },
        {
          "name": "G#3",
          "midi": 56,
          "time": 68.21431299999993,
          "velocity": 0.6299212598425197,
          "duration": 0.3556549041666699
        },
        {
          "name": "G#3",
          "midi": 56,
          "time": 68.57145599999994,
          "velocity": 0.6299212598425197,
          "duration": 0.7127979041666777
        },
        {
          "name": "B3",
          "midi": 59,
          "time": 68.57145599999994,
          "velocity": 0.6299212598425197,
          "duration": 0.17708340416666601
        },
        {
          "name": "B2",
          "midi": 47,
          "time": 68.57145599999994,
          "velocity": 0.6299212598425197,
          "duration": 0.17708340416666601
        },
        {
          "name": "C#4",
          "midi": 61,
          "time": 68.75002749999994,
          "velocity": 0.6299212598425197,
          "duration": 0.5342264041666738
        },
        {
          "name": "C#3",
          "midi": 49,
          "time": 68.75002749999994,
          "velocity": 0.6299212598425197,
          "duration": 0.8928575000000194
        },
        {
          "name": "E3",
          "midi": 52,
          "time": 69.28574199999996,
          "velocity": 0.6299212598425197,
          "duration": 0.3556549041666699
        },
        {
          "name": "C#3",
          "midi": 49,
          "time": 69.64288499999996,
          "velocity": 0.6299212598425197,
          "duration": 0.8913694041666815
        },
        {
          "name": "C#4",
          "midi": 61,
          "time": 69.64288499999996,
          "velocity": 0.6299212598425197,
          "duration": 0.5342264041666738
        },
        {
          "name": "D#3",
          "midi": 51,
          "time": 70.17859949999998,
          "velocity": 0.6299212598425197,
          "duration": 0.5342264041666738
        },
        {
          "name": "D#4",
          "midi": 63,
          "time": 70.17859949999998,
          "velocity": 0.6299212598425197,
          "duration": 0.5342264041666738
        },
        {
          "name": "E4",
          "midi": 64,
          "time": 70.71431399999999,
          "velocity": 0.6299212598425197,
          "duration": 0.5342264041666738
        },
        {
          "name": "E3",
          "midi": 52,
          "time": 70.71431399999999,
          "velocity": 0.6299212598425197,
          "duration": 0.7142860000000155
        },
        {
          "name": "G#3",
          "midi": 56,
          "time": 71.2500285,
          "velocity": 0.6299212598425197,
          "duration": 0.17708340416666601
        },
        {
          "name": "E3",
          "midi": 52,
          "time": 71.4286,
          "velocity": 0.6299212598425197,
          "duration": 1.427083904166679
        },
        {
          "name": "B3",
          "midi": 59,
          "time": 71.785743,
          "velocity": 0.6299212598425197,
          "duration": 0.5342264041666738
        },
        {
          "name": "E4",
          "midi": 64,
          "time": 72.32145750000001,
          "velocity": 0.6299212598425197,
          "duration": 0.5342264041666738
        },
        {
          "name": "A2",
          "midi": 45,
          "time": 72.85717200000002,
          "velocity": 0.6299212598425197,
          "duration": 2.1413699041666803
        },
        {
          "name": "E4",
          "midi": 64,
          "time": 73.92860100000001,
          "velocity": 0.6299212598425197,
          "duration": 0.5342264041666738
        },
        {
          "name": "B3",
          "midi": 59,
          "time": 74.46431550000003,
          "velocity": 0.6299212598425197,
          "duration": 0.5342264041666738
        },
        {
          "name": "E3",
          "midi": 52,
          "time": 75.00003000000004,
          "velocity": 0.6299212598425197,
          "duration": 0.5342264041666738
        },
        {
          "name": "A2",
          "midi": 45,
          "time": 75.00003000000004,
          "velocity": 0.6299212598425197,
          "duration": 2.1413699041667087
        },
        {
          "name": "G#3",
          "midi": 56,
          "time": 75.53574450000005,
          "velocity": 0.6299212598425197,
          "duration": 0.17708340416666601
        },
        {
          "name": "E3",
          "midi": 52,
          "time": 75.71431600000005,
          "velocity": 0.6299212598425197,
          "duration": 0.3556549041666699
        },
        {
          "name": "E3",
          "midi": 52,
          "time": 76.07145900000006,
          "velocity": 0.6299212598425197,
          "duration": 0.3556549041666699
        },
        {
          "name": "F#3",
          "midi": 54,
          "time": 76.42860200000007,
          "velocity": 0.6299212598425197,
          "duration": 0.3556549041666699
        },
        {
          "name": "B3",
          "midi": 59,
          "time": 76.42860200000007,
          "velocity": 0.6299212598425197,
          "duration": 0.3556549041666699
        },
        {
          "name": "B3",
          "midi": 59,
          "time": 76.78574500000008,
          "velocity": 0.6299212598425197,
          "duration": 0.3556549041666699
        },
        {
          "name": "D#4",
          "midi": 63,
          "time": 76.78574500000008,
          "velocity": 0.6299212598425197,
          "duration": 0.3556549041666699
        },
        {
          "name": "G#3",
          "midi": 56,
          "time": 77.14288800000008,
          "velocity": 0.6299212598425197,
          "duration": 0.5342264041666738
        },
        {
          "name": "B3",
          "midi": 59,
          "time": 77.14288800000008,
          "velocity": 0.6299212598425197,
          "duration": 0.17708340416666601
        },
        {
          "name": "B2",
          "midi": 47,
          "time": 77.14288800000008,
          "velocity": 0.6299212598425197,
          "duration": 0.17708340416666601
        },
        {
          "name": "C#4",
          "midi": 61,
          "time": 77.32145950000009,
          "velocity": 0.6299212598425197,
          "duration": 0.3556549041666699
        },
        {
          "name": "C#3",
          "midi": 49,
          "time": 77.32145950000009,
          "velocity": 0.6299212598425197,
          "duration": 1.784226904166701
        },
        {
          "name": "G#3",
          "midi": 56,
          "time": 77.6786025000001,
          "velocity": 0.6299212598425197,
          "duration": 0.17708340416666601
        },
        {
          "name": "E3",
          "midi": 52,
          "time": 77.8571740000001,
          "velocity": 0.6299212598425197,
          "duration": 0.3556549041666699
        },
        {
          "name": "B2",
          "midi": 47,
          "time": 78.21431700000011,
          "velocity": 0.6299212598425197,
          "duration": 0.5342264041666738
        },
        {
          "name": "B3",
          "midi": 59,
          "time": 78.21431700000011,
          "velocity": 0.6299212598425197,
          "duration": 0.5342264041666738
        },
        {
          "name": "B2",
          "midi": 47,
          "time": 78.75003150000012,
          "velocity": 0.6299212598425197,
          "duration": 0.5342264041666738
        },
        {
          "name": "B3",
          "midi": 59,
          "time": 78.75003150000012,
          "velocity": 0.6299212598425197,
          "duration": 0.5342264041666738
        },
        {
          "name": "E3",
          "midi": 52,
          "time": 79.28574600000013,
          "velocity": 0.6299212598425197,
          "duration": 0.7142860000000013
        },
        {
          "name": "G#3",
          "midi": 56,
          "time": 79.82146050000013,
          "velocity": 0.6299212598425197,
          "duration": 0.17708340416666601
        },
        {
          "name": "E3",
          "midi": 52,
          "time": 80.00003200000013,
          "velocity": 0.6299212598425197,
          "duration": 1.427083904166679
        },
        {
          "name": "B3",
          "midi": 59,
          "time": 80.35717500000013,
          "velocity": 0.6299212598425197,
          "duration": 0.5342264041666738
        },
        {
          "name": "G#3",
          "midi": 56,
          "time": 80.89288950000014,
          "velocity": 0.6299212598425197,
          "duration": 0.5342264041666738
        },
        {
          "name": "A2",
          "midi": 45,
          "time": 81.42860400000015,
          "velocity": 0.6299212598425197,
          "duration": 2.1413699041666803
        },
        {
          "name": "B3",
          "midi": 59,
          "time": 82.50003300000014,
          "velocity": 0.6299212598425197,
          "duration": 0.5342264041666738
        },
        {
          "name": "G#3",
          "midi": 56,
          "time": 83.03574750000016,
          "velocity": 0.6299212598425197,
          "duration": 0.5342264041666738
        },
        {
          "name": "E3",
          "midi": 52,
          "time": 83.57146200000017,
          "velocity": 0.6299212598425197,
          "duration": 1.0699409041666712
        },
        {
          "name": "A2",
          "midi": 45,
          "time": 83.57146200000017,
          "velocity": 0.6299212598425197,
          "duration": 2.1413699041666945
        },
        {
          "name": "E3",
          "midi": 52,
          "time": 84.64289100000018,
          "velocity": 0.6299212598425197,
          "duration": 0.06250002500000562
        },
        {
          "name": "F#3",
          "midi": 54,
          "time": 84.70687912083352,
          "velocity": 0.6299212598425197,
          "duration": 0.29017868750000275
        },
        {
          "name": "E3",
          "midi": 52,
          "time": 85.00003400000018,
          "velocity": 0.6299212598425197,
          "duration": 0.3556549041666699
        },
        {
          "name": "B3",
          "midi": 59,
          "time": 85.00003400000018,
          "velocity": 0.6299212598425197,
          "duration": 0.3556549041666699
        },
        {
          "name": "B2",
          "midi": 47,
          "time": 85.35717700000019,
          "velocity": 0.6299212598425197,
          "duration": 0.3556549041666699
        },
        {
          "name": "D#4",
          "midi": 63,
          "time": 85.35717700000019,
          "velocity": 0.6299212598425197,
          "duration": 0.3556549041666699
        },
        {
          "name": "B2",
          "midi": 47,
          "time": 85.7143200000002,
          "velocity": 0.6299212598425197,
          "duration": 0.17708340416666601
        },
        {
          "name": "C#3",
          "midi": 49,
          "time": 85.8928915000002,
          "velocity": 0.6299212598425197,
          "duration": 1.7842269041666867
        },
        {
          "name": "E3",
          "midi": 52,
          "time": 86.2500345000002,
          "velocity": 0.6299212598425197,
          "duration": 0.5342264041666738
        },
        {
          "name": "G#3",
          "midi": 56,
          "time": 86.78574900000021,
          "velocity": 0.6299212598425197,
          "duration": 0.5342264041666738
        },
        {
          "name": "C#4",
          "midi": 61,
          "time": 86.78574900000021,
          "velocity": 0.6299212598425197,
          "duration": 0.5342264041666738
        },
        {
          "name": "F#3",
          "midi": 54,
          "time": 87.32146350000022,
          "velocity": 0.6299212598425197,
          "duration": 0.5342264041666738
        },
        {
          "name": "G#3",
          "midi": 56,
          "time": 87.32146350000022,
          "velocity": 0.6299212598425197,
          "duration": 0.5342264041666738
        },
        {
          "name": "B3",
          "midi": 59,
          "time": 87.85717800000023,
          "velocity": 0.6299212598425197,
          "duration": 0.5342264041666738
        },
        {
          "name": "E3",
          "midi": 52,
          "time": 87.85717800000023,
          "velocity": 0.6299212598425197,
          "duration": 0.7142860000000155
        },
        {
          "name": "G#3",
          "midi": 56,
          "time": 88.39289250000024,
          "velocity": 0.6299212598425197,
          "duration": 0.17708340416666601
        },
        {
          "name": "E3",
          "midi": 52,
          "time": 88.57146400000025,
          "velocity": 0.6299212598425197,
          "duration": 1.427083904166679
        },
        {
          "name": "B3",
          "midi": 59,
          "time": 88.92860700000024,
          "velocity": 0.6299212598425197,
          "duration": 0.5342264041666738
        },
        {
          "name": "G#3",
          "midi": 56,
          "time": 89.46432150000025,
          "velocity": 0.6299212598425197,
          "duration": 0.3556549041666699
        },
        {
          "name": "F#3",
          "midi": 54,
          "time": 89.82146450000026,
          "velocity": 0.6299212598425197,
          "duration": 0.17708340416666601
        },
        {
          "name": "E3",
          "midi": 52,
          "time": 90.00003600000026,
          "velocity": 0.6299212598425197,
          "duration": 0.5342264041666738
        },
        {
          "name": "A2",
          "midi": 45,
          "time": 90.00003600000026,
          "velocity": 0.6299212598425197,
          "duration": 2.1413699041667087
        },
        {
          "name": "G#3",
          "midi": 56,
          "time": 90.53575050000028,
          "velocity": 0.6299212598425197,
          "duration": 0.17708340416666601
        },
        {
          "name": "E3",
          "midi": 52,
          "time": 90.71432200000028,
          "velocity": 0.6299212598425197,
          "duration": 0.3556549041666699
        },
        {
          "name": "B3",
          "midi": 59,
          "time": 91.07146500000029,
          "velocity": 0.6299212598425197,
          "duration": 0.5342264041666738
        },
        {
          "name": "G#3",
          "midi": 56,
          "time": 91.6071795000003,
          "velocity": 0.6299212598425197,
          "duration": 0.5342264041666738
        },
        {
          "name": "E3",
          "midi": 52,
          "time": 92.14289400000031,
          "velocity": 0.6299212598425197,
          "duration": 0.5342264041666738
        },
        {
          "name": "A2",
          "midi": 45,
          "time": 92.14289400000031,
          "velocity": 0.6299212598425197,
          "duration": 2.1413699041667087
        },
        {
          "name": "G#3",
          "midi": 56,
          "time": 92.67860850000032,
          "velocity": 0.6299212598425197,
          "duration": 0.17708340416666601
        },
        {
          "name": "E3",
          "midi": 52,
          "time": 92.85718000000033,
          "velocity": 0.6299212598425197,
          "duration": 0.3556549041666699
        },
        {
          "name": "E3",
          "midi": 52,
          "time": 93.21432300000033,
          "velocity": 0.6299212598425197,
          "duration": 0.3556549041666699
        },
        {
          "name": "F#3",
          "midi": 54,
          "time": 93.57146600000034,
          "velocity": 0.6299212598425197,
          "duration": 0.3556549041666699
        },
        {
          "name": "B3",
          "midi": 59,
          "time": 93.57146600000034,
          "velocity": 0.6299212598425197,
          "duration": 0.3556549041666699
        },
        {
          "name": "B3",
          "midi": 59,
          "time": 93.92860900000035,
          "velocity": 0.6299212598425197,
          "duration": 0.3556549041666699
        },
        {
          "name": "D#4",
          "midi": 63,
          "time": 93.92860900000035,
          "velocity": 0.6299212598425197,
          "duration": 0.3556549041666699
        },
        {
          "name": "B3",
          "midi": 59,
          "time": 94.28575200000036,
          "velocity": 0.6299212598425197,
          "duration": 0.17708340416666601
        },
        {
          "name": "B2",
          "midi": 47,
          "time": 94.28575200000036,
          "velocity": 0.6299212598425197,
          "duration": 0.17708340416666601
        },
        {
          "name": "C#4",
          "midi": 61,
          "time": 94.46432350000036,
          "velocity": 0.6299212598425197,
          "duration": 0.3556549041666699
        },
        {
          "name": "C#3",
          "midi": 49,
          "time": 94.46432350000036,
          "velocity": 0.6299212598425197,
          "duration": 1.784226904166701
        },
        {
          "name": "G#3",
          "midi": 56,
          "time": 94.82146650000037,
          "velocity": 0.6299212598425197,
          "duration": 0.17708340416666601
        },
        {
          "name": "E3",
          "midi": 52,
          "time": 95.00003800000037,
          "velocity": 0.6299212598425197,
          "duration": 0.3556549041666699
        },
        {
          "name": "G#3",
          "midi": 56,
          "time": 95.35718100000038,
          "velocity": 0.6299212598425197,
          "duration": 0.5342264041666738
        },
        {
          "name": "C#4",
          "midi": 61,
          "time": 95.35718100000038,
          "velocity": 0.6299212598425197,
          "duration": 0.5342264041666738
        },
        {
          "name": "F#3",
          "midi": 54,
          "time": 95.89289550000039,
          "velocity": 0.6299212598425197,
          "duration": 0.5342264041666738
        },
        {
          "name": "B3",
          "midi": 59,
          "time": 95.89289550000039,
          "velocity": 0.6299212598425197,
          "duration": 0.5342264041666738
        },
        {
          "name": "E3",
          "midi": 52,
          "time": 96.4286100000004,
          "velocity": 0.6299212598425197,
          "duration": 0.7142860000000013
        },
        {
          "name": "G#3",
          "midi": 56,
          "time": 96.9643245000004,
          "velocity": 0.6299212598425197,
          "duration": 0.17708340416666601
        },
        {
          "name": "E3",
          "midi": 52,
          "time": 97.1428960000004,
          "velocity": 0.6299212598425197,
          "duration": 1.427083904166679
        },
        {
          "name": "G#3",
          "midi": 56,
          "time": 97.5000390000004,
          "velocity": 0.6299212598425197,
          "duration": 0.3556549041666699
        },
        {
          "name": "E4",
          "midi": 64,
          "time": 97.5000390000004,
          "velocity": 0.6299212598425197,
          "duration": 0.3556549041666699
        },
        {
          "name": "E4",
          "midi": 64,
          "time": 97.8571820000004,
          "velocity": 0.6299212598425197,
          "duration": 0.17708340416666601
        },
        {
          "name": "G#3",
          "midi": 56,
          "time": 98.03575350000041,
          "velocity": 0.6299212598425197,
          "duration": 0.17708340416666601
        },
        {
          "name": "B3",
          "midi": 59,
          "time": 98.21432500000041,
          "velocity": 0.6299212598425197,
          "duration": 0.3556549041666699
        },
        {
          "name": "E3",
          "midi": 52,
          "time": 98.57146800000042,
          "velocity": 0.6299212598425197,
          "duration": 0.5342264041666738
        },
        {
          "name": "A2",
          "midi": 45,
          "time": 98.57146800000042,
          "velocity": 0.6299212598425197,
          "duration": 2.1413699041667087
        },
        {
          "name": "G#3",
          "midi": 56,
          "time": 99.10718250000043,
          "velocity": 0.6299212598425197,
          "duration": 0.17708340416666601
        },
        {
          "name": "E3",
          "midi": 52,
          "time": 99.28575400000044,
          "velocity": 0.6299212598425197,
          "duration": 0.3556549041666699
        },
        {
          "name": "B3",
          "midi": 59,
          "time": 99.64289700000045,
          "velocity": 0.6299212598425197,
          "duration": 0.5342264041666738
        },
        {
          "name": "E4",
          "midi": 64,
          "time": 99.64289700000045,
          "velocity": 0.6299212598425197,
          "duration": 0.5342264041666738
        },
        {
          "name": "G#3",
          "midi": 56,
          "time": 100.17861150000046,
          "velocity": 0.6299212598425197,
          "duration": 0.17708340416666601
        },
        {
          "name": "E3",
          "midi": 52,
          "time": 100.35718300000046,
          "velocity": 0.6299212598425197,
          "duration": 0.17708340416666601
        },
        {
          "name": "G#3",
          "midi": 56,
          "time": 100.53575450000046,
          "velocity": 0.6299212598425197,
          "duration": 0.17708340416666601
        },
        {
          "name": "E3",
          "midi": 52,
          "time": 100.71432600000047,
          "velocity": 0.6299212598425197,
          "duration": 0.5342264041666738
        },
        {
          "name": "A2",
          "midi": 45,
          "time": 100.71432600000047,
          "velocity": 0.6299212598425197,
          "duration": 2.1413699041667087
        },
        {
          "name": "G#3",
          "midi": 56,
          "time": 101.25004050000048,
          "velocity": 0.6299212598425197,
          "duration": 0.17708340416666601
        },
        {
          "name": "E3",
          "midi": 52,
          "time": 101.42861200000048,
          "velocity": 0.6299212598425197,
          "duration": 0.3556549041666699
        },
        {
          "name": "E3",
          "midi": 52,
          "time": 101.78575500000049,
          "velocity": 0.6299212598425197,
          "duration": 0.06250002500000562
        },
        {
          "name": "B2",
          "midi": 47,
          "time": 101.84974312083384,
          "velocity": 0.6299212598425197,
          "duration": 0.29017868750000275
        },
        {
          "name": "F#3",
          "midi": 54,
          "time": 101.84974312083384,
          "velocity": 0.6299212598425197,
          "duration": 0.29017868750000275
        },
        {
          "name": "E3",
          "midi": 52,
          "time": 102.1428980000005,
          "velocity": 0.6299212598425197,
          "duration": 0.3556549041666699
        },
        {
          "name": "G#3",
          "midi": 56,
          "time": 102.1428980000005,
          "velocity": 0.6299212598425197,
          "duration": 0.3556549041666699
        },
        {
          "name": "G#3",
          "midi": 56,
          "time": 102.50004100000051,
          "velocity": 0.6299212598425197,
          "duration": 0.3556549041666699
        },
        {
          "name": "B3",
          "midi": 59,
          "time": 102.50004100000051,
          "velocity": 0.6299212598425197,
          "duration": 0.3556549041666699
        },
        {
          "name": "B2",
          "midi": 47,
          "time": 102.85718400000052,
          "velocity": 0.6299212598425197,
          "duration": 0.17708340416666601
        },
        {
          "name": "C#3",
          "midi": 49,
          "time": 103.03575550000052,
          "velocity": 0.6299212598425197,
          "duration": 1.9627984041666906
        },
        {
          "name": "E3",
          "midi": 52,
          "time": 103.39289850000051,
          "velocity": 0.6299212598425197,
          "duration": 0.5342264041666738
        },
        {
          "name": "G#3",
          "midi": 56,
          "time": 103.92861300000052,
          "velocity": 0.6299212598425197,
          "duration": 0.5342264041666738
        },
        {
          "name": "C#4",
          "midi": 61,
          "time": 103.92861300000052,
          "velocity": 0.6299212598425197,
          "duration": 0.5342264041666738
        },
        {
          "name": "D#3",
          "midi": 51,
          "time": 104.46432750000054,
          "velocity": 0.6299212598425197,
          "duration": 0.5342264041666738
        },
        {
          "name": "G#3",
          "midi": 56,
          "time": 104.46432750000054,
          "velocity": 0.6299212598425197,
          "duration": 0.5342264041666738
        },
        {
          "name": "E3",
          "midi": 52,
          "time": 105.00004200000055,
          "velocity": 0.6299212598425197,
          "duration": 0.7142860000000013
        },
        {
          "name": "G#3",
          "midi": 56,
          "time": 105.53575650000055,
          "velocity": 0.6299212598425197,
          "duration": 0.17708340416666601
        },
        {
          "name": "E3",
          "midi": 52,
          "time": 105.71432800000055,
          "velocity": 0.6299212598425197,
          "duration": 0.35714299999999355
        },
        {
          "name": "E3",
          "midi": 52,
          "time": 106.07147100000054,
          "velocity": 0.6299212598425197,
          "duration": 1.0699409041666854
        },
        {
          "name": "B3",
          "midi": 59,
          "time": 106.07147100000054,
          "velocity": 0.6299212598425197,
          "duration": 0.5342264041666738
        },
        {
          "name": "G#3",
          "midi": 56,
          "time": 106.60718550000055,
          "velocity": 0.6299212598425197,
          "duration": 0.5342264041666738
        },
        {
          "name": "E3",
          "midi": 52,
          "time": 107.14290000000057,
          "velocity": 0.6299212598425197,
          "duration": 0.5342264041666738
        },
        {
          "name": "A2",
          "midi": 45,
          "time": 107.14290000000057,
          "velocity": 0.6299212598425197,
          "duration": 2.1413699041667087
        },
        {
          "name": "G#3",
          "midi": 56,
          "time": 107.67861450000058,
          "velocity": 0.6299212598425197,
          "duration": 0.17708340416666601
        },
        {
          "name": "E3",
          "midi": 52,
          "time": 107.85718600000058,
          "velocity": 0.6299212598425197,
          "duration": 0.3556549041666699
        },
        {
          "name": "E3",
          "midi": 52,
          "time": 108.21432900000059,
          "velocity": 0.6299212598425197,
          "duration": 0.5342264041666738
        },
        {
          "name": "B3",
          "midi": 59,
          "time": 108.21432900000059,
          "velocity": 0.6299212598425197,
          "duration": 0.5342264041666738
        },
        {
          "name": "G#3",
          "midi": 56,
          "time": 108.7500435000006,
          "velocity": 0.6299212598425197,
          "duration": 0.5342264041666738
        },
        {
          "name": "A2",
          "midi": 45,
          "time": 109.28575800000061,
          "velocity": 0.6299212598425197,
          "duration": 2.1413699041666945
        },
        {
          "name": "G#3",
          "midi": 56,
          "time": 109.82147250000061,
          "velocity": 0.6299212598425197,
          "duration": 0.17708340416666601
        },
        {
          "name": "E3",
          "midi": 52,
          "time": 110.00004400000061,
          "velocity": 0.6299212598425197,
          "duration": 0.3556549041666699
        },
        {
          "name": "E3",
          "midi": 52,
          "time": 110.35718700000062,
          "velocity": 0.6299212598425197,
          "duration": 0.3556549041666699
        },
        {
          "name": "F#3",
          "midi": 54,
          "time": 110.71433000000063,
          "velocity": 0.6299212598425197,
          "duration": 0.3556549041666699
        },
        {
          "name": "B3",
          "midi": 59,
          "time": 110.71433000000063,
          "velocity": 0.6299212598425197,
          "duration": 0.3556549041666699
        },
        {
          "name": "B3",
          "midi": 59,
          "time": 111.07147300000064,
          "velocity": 0.6299212598425197,
          "duration": 0.3556549041666699
        },
        {
          "name": "D#4",
          "midi": 63,
          "time": 111.07147300000064,
          "velocity": 0.6299212598425197,
          "duration": 0.3556549041666699
        },
        {
          "name": "G#3",
          "midi": 56,
          "time": 111.42861600000064,
          "velocity": 0.6299212598425197,
          "duration": 0.5342264041666738
        },
        {
          "name": "B3",
          "midi": 59,
          "time": 111.42861600000064,
          "velocity": 0.6299212598425197,
          "duration": 0.17708340416666601
        },
        {
          "name": "B2",
          "midi": 47,
          "time": 111.42861600000064,
          "velocity": 0.6299212598425197,
          "duration": 0.17708340416666601
        },
        {
          "name": "C#4",
          "midi": 61,
          "time": 111.60718750000065,
          "velocity": 0.6299212598425197,
          "duration": 0.3556549041666699
        },
        {
          "name": "C#3",
          "midi": 49,
          "time": 111.60718750000065,
          "velocity": 0.6299212598425197,
          "duration": 0.8913694041666815
        },
        {
          "name": "G#3",
          "midi": 56,
          "time": 111.96433050000066,
          "velocity": 0.6299212598425197,
          "duration": 0.17708340416666601
        },
        {
          "name": "E3",
          "midi": 52,
          "time": 112.14290200000066,
          "velocity": 0.6299212598425197,
          "duration": 0.3556549041666699
        },
        {
          "name": "C#4",
          "midi": 61,
          "time": 112.50004500000067,
          "velocity": 0.6299212598425197,
          "duration": 0.5342264041666738
        },
        {
          "name": "C#3",
          "midi": 49,
          "time": 112.50004500000067,
          "velocity": 0.6299212598425197,
          "duration": 0.5342264041666738
        },
        {
          "name": "B3",
          "midi": 59,
          "time": 113.03575950000068,
          "velocity": 0.6299212598425197,
          "duration": 0.5342264041666738
        },
        {
          "name": "D#3",
          "midi": 51,
          "time": 113.03575950000068,
          "velocity": 0.6299212598425197,
          "duration": 0.5342264041666738
        },
        {
          "name": "E3",
          "midi": 52,
          "time": 113.57147400000069,
          "velocity": 0.6299212598425197,
          "duration": 0.5342264041666738
        },
        {
          "name": "G#3",
          "midi": 56,
          "time": 114.1071885000007,
          "velocity": 0.6299212598425197,
          "duration": 0.17708340416666601
        },
        {
          "name": "E3",
          "midi": 52,
          "time": 114.2857600000007,
          "velocity": 0.6299212598425197,
          "duration": 0.3556549041666699
        },
        {
          "name": "E4",
          "midi": 64,
          "time": 114.64290300000071,
          "velocity": 0.6299212598425197,
          "duration": 0.3556549041666699
        },
        {
          "name": "E4",
          "midi": 64,
          "time": 115.00004600000072,
          "velocity": 0.6299212598425197,
          "duration": 0.17708340416666601
        },
        {
          "name": "G#3",
          "midi": 56,
          "time": 115.17861750000073,
          "velocity": 0.6299212598425197,
          "duration": 0.17708340416666601
        },
        {
          "name": "B3",
          "midi": 59,
          "time": 115.35718900000073,
          "velocity": 0.6299212598425197,
          "duration": 0.3556549041666699
        },
        {
          "name": "A2",
          "midi": 45,
          "time": 115.71433200000074,
          "velocity": 0.6299212598425197,
          "duration": 1.427083904166679
        },
        {
          "name": "G#3",
          "midi": 56,
          "time": 116.25004650000074,
          "velocity": 0.6299212598425197,
          "duration": 0.17708340416666601
        },
        {
          "name": "E3",
          "midi": 52,
          "time": 116.42861800000074,
          "velocity": 0.6299212598425197,
          "duration": 0.3556549041666699
        },
        {
          "name": "B3",
          "midi": 59,
          "time": 116.78576100000075,
          "velocity": 0.6299212598425197,
          "duration": 0.5342264041666738
        },
        {
          "name": "E4",
          "midi": 64,
          "time": 116.78576100000075,
          "velocity": 0.6299212598425197,
          "duration": 0.5342264041666738
        },
        {
          "name": "B3",
          "midi": 59,
          "time": 117.32147550000076,
          "velocity": 0.6299212598425197,
          "duration": 0.5342264041666738
        },
        {
          "name": "G#3",
          "midi": 56,
          "time": 117.32147550000076,
          "velocity": 0.6299212598425197,
          "duration": 0.17708340416666601
        },
        {
          "name": "E3",
          "midi": 52,
          "time": 117.50004700000076,
          "velocity": 0.6299212598425197,
          "duration": 0.17708340416666601
        },
        {
          "name": "G#3",
          "midi": 56,
          "time": 117.67861850000077,
          "velocity": 0.6299212598425197,
          "duration": 0.17708340416666601
        },
        {
          "name": "E3",
          "midi": 52,
          "time": 117.85719000000077,
          "velocity": 0.6299212598425197,
          "duration": 1.0699409041666712
        },
        {
          "name": "A2",
          "midi": 45,
          "time": 117.85719000000077,
          "velocity": 0.6299212598425197,
          "duration": 2.1413699041666945
        },
        {
          "name": "G#3",
          "midi": 56,
          "time": 118.92861900000078,
          "velocity": 0.6299212598425197,
          "duration": 0.3556549041666699
        },
        {
          "name": "F#3",
          "midi": 54,
          "time": 119.28576200000079,
          "velocity": 0.6299212598425197,
          "duration": 0.3556549041666699
        },
        {
          "name": "E3",
          "midi": 52,
          "time": 119.6429050000008,
          "velocity": 0.6299212598425197,
          "duration": 0.3556549041666699
        },
        {
          "name": "G#3",
          "midi": 56,
          "time": 120.0000480000008,
          "velocity": 0.6299212598425197,
          "duration": 0.5342264041666738
        },
        {
          "name": "B3",
          "midi": 59,
          "time": 120.0000480000008,
          "velocity": 0.6299212598425197,
          "duration": 0.17708340416666601
        },
        {
          "name": "B2",
          "midi": 47,
          "time": 120.0000480000008,
          "velocity": 0.6299212598425197,
          "duration": 0.17708340416666601
        },
        {
          "name": "C#4",
          "midi": 61,
          "time": 120.1786195000008,
          "velocity": 0.6299212598425197,
          "duration": 0.3556549041666699
        },
        {
          "name": "C#3",
          "midi": 49,
          "time": 120.1786195000008,
          "velocity": 0.6299212598425197,
          "duration": 0.8913694041666815
        },
        {
          "name": "G#3",
          "midi": 56,
          "time": 120.53576250000081,
          "velocity": 0.6299212598425197,
          "duration": 0.17708340416666601
        },
        {
          "name": "E3",
          "midi": 52,
          "time": 120.71433400000082,
          "velocity": 0.6299212598425197,
          "duration": 0.3556549041666699
        },
        {
          "name": "C#3",
          "midi": 49,
          "time": 121.07147700000083,
          "velocity": 0.6299212598425197,
          "duration": 0.5342264041666738
        },
        {
          "name": "C#4",
          "midi": 61,
          "time": 121.07147700000083,
          "velocity": 0.6299212598425197,
          "duration": 0.5342264041666738
        },
        {
          "name": "D#3",
          "midi": 51,
          "time": 121.60719150000084,
          "velocity": 0.6299212598425197,
          "duration": 0.5342264041666738
        },
        {
          "name": "D#4",
          "midi": 63,
          "time": 121.60719150000084,
          "velocity": 0.6299212598425197,
          "duration": 0.5342264041666738
        },
        {
          "name": "E3",
          "midi": 52,
          "time": 122.14290600000085,
          "velocity": 0.6299212598425197,
          "duration": 0.5342264041666738
        },
        {
          "name": "B3",
          "midi": 59,
          "time": 122.14290600000085,
          "velocity": 0.6299212598425197,
          "duration": 0.5342264041666738
        },
        {
          "name": "B2",
          "midi": 47,
          "time": 122.14290600000085,
          "velocity": 0.6299212598425197,
          "duration": 2.1413699041667087
        },
        {
          "name": "G#3",
          "midi": 56,
          "time": 122.67862050000086,
          "velocity": 0.6299212598425197,
          "duration": 0.17708340416666601
        },
        {
          "name": "E3",
          "midi": 52,
          "time": 122.85719200000086,
          "velocity": 0.6299212598425197,
          "duration": 0.3556549041666699
        },
        {
          "name": "B3",
          "midi": 59,
          "time": 123.21433500000087,
          "velocity": 0.6299212598425197,
          "duration": 0.5342264041666738
        },
        {
          "name": "E4",
          "midi": 64,
          "time": 123.75004950000088,
          "velocity": 0.6299212598425197,
          "duration": 0.5342264041666738
        },
        {
          "name": "A2",
          "midi": 45,
          "time": 124.2857640000009,
          "velocity": 0.6299212598425197,
          "duration": 1.0699409041666712
        },
        {
          "name": "E4",
          "midi": 64,
          "time": 125.3571930000009,
          "velocity": 0.6299212598425197,
          "duration": 0.5342264041666738
        },
        {
          "name": "B3",
          "midi": 59,
          "time": 125.89290750000092,
          "velocity": 0.6299212598425197,
          "duration": 0.5342264041666738
        },
        {
          "name": "E3",
          "midi": 52,
          "time": 126.42862200000093,
          "velocity": 0.6299212598425197,
          "duration": 0.5342264041666738
        },
        {
          "name": "A2",
          "midi": 45,
          "time": 126.42862200000093,
          "velocity": 0.6299212598425197,
          "duration": 2.1413699041667087
        },
        {
          "name": "G#3",
          "midi": 56,
          "time": 126.96433650000094,
          "velocity": 0.6299212598425197,
          "duration": 0.17708340416666601
        },
        {
          "name": "E3",
          "midi": 52,
          "time": 127.14290800000094,
          "velocity": 0.6299212598425197,
          "duration": 0.3556549041666699
        },
        {
          "name": "F#3",
          "midi": 54,
          "time": 127.50005100000095,
          "velocity": 0.6299212598425197,
          "duration": 0.3556549041666699
        },
        {
          "name": "E3",
          "midi": 52,
          "time": 127.85719400000096,
          "velocity": 0.6299212598425197,
          "duration": 0.3556549041666699
        },
        {
          "name": "G#3",
          "midi": 56,
          "time": 127.85719400000096,
          "velocity": 0.6299212598425197,
          "duration": 0.3556549041666699
        },
        {
          "name": "F#3",
          "midi": 54,
          "time": 128.21433700000097,
          "velocity": 0.6299212598425197,
          "duration": 0.3556549041666699
        },
        {
          "name": "B3",
          "midi": 59,
          "time": 128.21433700000097,
          "velocity": 0.6299212598425197,
          "duration": 0.3556549041666699
        },
        {
          "name": "G#3",
          "midi": 56,
          "time": 128.57148000000097,
          "velocity": 0.6299212598425197,
          "duration": 0.5342264041666738
        },
        {
          "name": "B3",
          "midi": 59,
          "time": 128.57148000000097,
          "velocity": 0.6299212598425197,
          "duration": 0.17708340416666601
        },
        {
          "name": "B2",
          "midi": 47,
          "time": 128.57148000000097,
          "velocity": 0.6299212598425197,
          "duration": 0.17708340416666601
        },
        {
          "name": "C#4",
          "midi": 61,
          "time": 128.75005150000098,
          "velocity": 0.6299212598425197,
          "duration": 0.3556549041666699
        },
        {
          "name": "C#3",
          "midi": 49,
          "time": 128.75005150000098,
          "velocity": 0.6299212598425197,
          "duration": 0.8913694041666815
        },
        {
          "name": "G#3",
          "midi": 56,
          "time": 129.107194500001,
          "velocity": 0.6299212598425197,
          "duration": 0.17708340416666601
        },
        {
          "name": "E3",
          "midi": 52,
          "time": 129.285766000001,
          "velocity": 0.6299212598425197,
          "duration": 0.3556549041666699
        },
        {
          "name": "C#3",
          "midi": 49,
          "time": 129.642909000001,
          "velocity": 0.6299212598425197,
          "duration": 0.5342264041666738
        },
        {
          "name": "C#4",
          "midi": 61,
          "time": 129.642909000001,
          "velocity": 0.6299212598425197,
          "duration": 0.5342264041666738
        },
        {
          "name": "G#3",
          "midi": 56,
          "time": 130.178623500001,
          "velocity": 0.6299212598425197,
          "duration": 0.5342264041666738
        },
        {
          "name": "C#4",
          "midi": 61,
          "time": 130.178623500001,
          "velocity": 0.6299212598425197,
          "duration": 0.5342264041666738
        },
        {
          "name": "B4",
          "midi": 71,
          "time": 130.178623500001,
          "velocity": 0.6299212598425197,
          "duration": 0.5342264041666738
        },
        {
          "name": "E3",
          "midi": 52,
          "time": 130.71433800000102,
          "velocity": 0.6299212598425197,
          "duration": 0.5342264041666738
        },
        {
          "name": "G#3",
          "midi": 56,
          "time": 130.71433800000102,
          "velocity": 0.6299212598425197,
          "duration": 0.5342264041666738
        },
        {
          "name": "B2",
          "midi": 47,
          "time": 130.71433800000102,
          "velocity": 0.6299212598425197,
          "duration": 2.1413699041667087
        },
        {
          "name": "G#3",
          "midi": 56,
          "time": 131.25005250000103,
          "velocity": 0.6299212598425197,
          "duration": 0.17708340416666601
        },
        {
          "name": "E3",
          "midi": 52,
          "time": 131.42862400000104,
          "velocity": 0.6299212598425197,
          "duration": 0.3556549041666699
        },
        {
          "name": "G#3",
          "midi": 56,
          "time": 131.78576700000104,
          "velocity": 0.6299212598425197,
          "duration": 0.5342264041666738
        },
        {
          "name": "B3",
          "midi": 59,
          "time": 131.78576700000104,
          "velocity": 0.6299212598425197,
          "duration": 0.5342264041666738
        },
        {
          "name": "E3",
          "midi": 52,
          "time": 132.32148150000106,
          "velocity": 0.6299212598425197,
          "duration": 0.5342264041666738
        },
        {
          "name": "G#3",
          "midi": 56,
          "time": 132.32148150000106,
          "velocity": 0.6299212598425197,
          "duration": 0.5342264041666738
        },
        {
          "name": "E3",
          "midi": 52,
          "time": 132.85719600000107,
          "velocity": 0.6299212598425197,
          "duration": 0.5342264041666738
        },
        {
          "name": "A2",
          "midi": 45,
          "time": 132.85719600000107,
          "velocity": 0.6299212598425197,
          "duration": 2.1413699041667087
        },
        {
          "name": "G#3",
          "midi": 56,
          "time": 133.39291050000108,
          "velocity": 0.6299212598425197,
          "duration": 0.17708340416666601
        },
        {
          "name": "E3",
          "midi": 52,
          "time": 133.57148200000108,
          "velocity": 0.6299212598425197,
          "duration": 0.3556549041666699
        },
        {
          "name": "G#3",
          "midi": 56,
          "time": 133.9286250000011,
          "velocity": 0.6299212598425197,
          "duration": 0.5342264041666738
        },
        {
          "name": "B3",
          "midi": 59,
          "time": 133.9286250000011,
          "velocity": 0.6299212598425197,
          "duration": 0.5342264041666738
        },
        {
          "name": "E3",
          "midi": 52,
          "time": 134.4643395000011,
          "velocity": 0.6299212598425197,
          "duration": 0.5342264041666738
        },
        {
          "name": "G#3",
          "midi": 56,
          "time": 134.4643395000011,
          "velocity": 0.6299212598425197,
          "duration": 0.5342264041666738
        },
        {
          "name": "E3",
          "midi": 52,
          "time": 135.00005400000111,
          "velocity": 0.6299212598425197,
          "duration": 1.069940904166657
        },
        {
          "name": "F#3",
          "midi": 54,
          "time": 136.0714830000011,
          "velocity": 0.6299212598425197,
          "duration": 0.06250002499999141
        },
        {
          "name": "G#3",
          "midi": 56,
          "time": 136.13547112083444,
          "velocity": 0.6299212598425197,
          "duration": 0.29017868750000275
        },
        {
          "name": "F#3",
          "midi": 54,
          "time": 136.42862600000112,
          "velocity": 0.6299212598425197,
          "duration": 0.3556549041666699
        },
        {
          "name": "B3",
          "midi": 59,
          "time": 136.42862600000112,
          "velocity": 0.6299212598425197,
          "duration": 0.3556549041666699
        },
        {
          "name": "E3",
          "midi": 52,
          "time": 136.78576900000112,
          "velocity": 0.6299212598425197,
          "duration": 0.3556549041666699
        },
        {
          "name": "D#4",
          "midi": 63,
          "time": 136.78576900000112,
          "velocity": 0.6299212598425197,
          "duration": 0.3556549041666699
        },
        {
          "name": "B2",
          "midi": 47,
          "time": 137.14291200000113,
          "velocity": 0.6299212598425197,
          "duration": 0.17708340416666601
        },
        {
          "name": "C#3",
          "midi": 49,
          "time": 137.32148350000114,
          "velocity": 0.6299212598425197,
          "duration": 1.784226904166644
        },
        {
          "name": "E3",
          "midi": 52,
          "time": 137.67862650000114,
          "velocity": 0.6141732283464567,
          "duration": 0.5342264041666738
        },
        {
          "name": "C#4",
          "midi": 61,
          "time": 138.21434100000116,
          "velocity": 0.5905511811023622,
          "duration": 0.5342264041666454
        },
        {
          "name": "G#3",
          "midi": 56,
          "time": 138.75005550000114,
          "velocity": 0.5669291338582677,
          "duration": 0.5342264041666454
        },
        {
          "name": "B3",
          "midi": 59,
          "time": 139.28577000000112,
          "velocity": 0.5433070866141733,
          "duration": 1.069940904166657
        },
        {
          "name": "E3",
          "midi": 52,
          "time": 139.28577000000112,
          "velocity": 0.5433070866141733,
          "duration": 2.1413699041666234
        },
        {
          "name": "G#3",
          "midi": 56,
          "time": 140.35719900000112,
          "velocity": 0.49606299212598426,
          "duration": 0.5342264041666454
        },
        {
          "name": "G#3",
          "midi": 56,
          "time": 140.8929135000011,
          "velocity": 0.47244094488188976,
          "duration": 0.5342264041666454
        },
        {
          "name": "E3",
          "midi": 52,
          "time": 141.42862800000108,
          "velocity": 0.44881889763779526,
          "duration": 1.069940904166657
        },
        {
          "name": "A2",
          "midi": 45,
          "time": 141.42862800000108,
          "velocity": 0.44881889763779526,
          "duration": 2.141369904166652
        },
        {
          "name": "B3",
          "midi": 59,
          "time": 142.50005700000108,
          "velocity": 0.4015748031496063,
          "duration": 0.5342264041666738
        },
        {
          "name": "G#3",
          "midi": 56,
          "time": 143.0357715000011,
          "velocity": 0.3779527559055118,
          "duration": 0.5342264041666454
        },
        {
          "name": "A2",
          "midi": 45,
          "time": 143.57148600000107,
          "velocity": 0.3543307086614173,
          "duration": 1.069940904166657
        },
        {
          "name": "B2",
          "midi": 47,
          "time": 144.64291500000107,
          "velocity": 0.30708661417322836,
          "duration": 0.06250002499999141
        },
        {
          "name": "C#3",
          "midi": 49,
          "time": 144.7069031208344,
          "velocity": 0.30708661417322836,
          "duration": 0.2901786875000312
        },
        {
          "name": "B2",
          "midi": 47,
          "time": 145.0000580000011,
          "velocity": 0.29133858267716534,
          "duration": 0.3556549041666699
        },
        {
          "name": "G#2",
          "midi": 44,
          "time": 145.3572010000011,
          "velocity": 0.2755905511811024,
          "duration": 0.3556549041666699
        },
        {
          "name": "E2",
          "midi": 40,
          "time": 145.71434400000112,
          "velocity": 0.25984251968503935,
          "duration": 1.069940904166657
        },
        {
          "name": "E2",
          "midi": 40,
          "time": 146.78577300000111,
          "velocity": 0.25984251968503935,
          "duration": 0.5342264041666738
        },
        {
          "name": "F#2",
          "midi": 42,
          "time": 147.32148750000113,
          "velocity": 0.25984251968503935,
          "duration": 0.5342264041666738
        },
        {
          "name": "G#2",
          "midi": 44,
          "time": 147.85720200000114,
          "velocity": 0.25984251968503935,
          "duration": 2.1413699041666803
        },
        {
          "name": "C#3",
          "midi": 49,
          "time": 150.00006000000116,
          "velocity": 0.25984251968503935,
          "duration": 2.1413699041666803
        }
      ],
      "controlChanges": {
        "2": [
          {
            "number": 2,
            "time": 0,
            "value": 0.6299212598425197
          },
          {
            "number": 2,
            "time": 65.8928834999999,
            "value": 0.6299212598425197
          },
          {
            "number": 2,
            "time": 66.42859799999991,
            "value": 0.6299212598425197
          },
          {
            "number": 2,
            "time": 66.9643124999999,
            "value": 0.6299212598425197
          },
          {
            "number": 2,
            "time": 68.75002749999994,
            "value": 0.6299212598425197
          },
          {
            "number": 2,
            "time": 70.17859949999998,
            "value": 0.6299212598425197
          },
          {
            "number": 2,
            "time": 70.71431399999999,
            "value": 0.6299212598425197
          },
          {
            "number": 2,
            "time": 71.2500285,
            "value": 0.6299212598425197
          },
          {
            "number": 2,
            "time": 72.32145750000001,
            "value": 0.6299212598425197
          },
          {
            "number": 2,
            "time": 73.92860100000001,
            "value": 0.6299212598425197
          },
          {
            "number": 2,
            "time": 75.53574450000005,
            "value": 0.6299212598425197
          },
          {
            "number": 2,
            "time": 76.42860200000007,
            "value": 0.6299212598425197
          },
          {
            "number": 2,
            "time": 77.32145950000009,
            "value": 0.6299212598425197
          },
          {
            "number": 2,
            "time": 78.75003150000012,
            "value": 0.6299212598425197
          },
          {
            "number": 2,
            "time": 79.28574600000013,
            "value": 0.6299212598425197
          },
          {
            "number": 2,
            "time": 79.82146050000013,
            "value": 0.6299212598425197
          },
          {
            "number": 2,
            "time": 80.89288950000014,
            "value": 0.6299212598425197
          },
          {
            "number": 2,
            "time": 82.50003300000014,
            "value": 0.6299212598425197
          },
          {
            "number": 2,
            "time": 83.03574750000016,
            "value": 0.6299212598425197
          },
          {
            "number": 2,
            "time": 83.57146200000017,
            "value": 0.6299212598425197
          },
          {
            "number": 2,
            "time": 84.64289100000018,
            "value": 0.6299212598425197
          },
          {
            "number": 2,
            "time": 85.00003400000018,
            "value": 0.6299212598425197
          },
          {
            "number": 2,
            "time": 85.35717700000019,
            "value": 0.6299212598425197
          },
          {
            "number": 2,
            "time": 85.7143200000002,
            "value": 0.6299212598425197
          },
          {
            "number": 2,
            "time": 85.8928915000002,
            "value": 0.6299212598425197
          },
          {
            "number": 2,
            "time": 101.25004050000048,
            "value": 0.6299212598425197
          },
          {
            "number": 2,
            "time": 101.42861200000048,
            "value": 0.6299212598425197
          },
          {
            "number": 2,
            "time": 101.78575500000049,
            "value": 0.6299212598425197
          },
          {
            "number": 2,
            "time": 102.1428980000005,
            "value": 0.6299212598425197
          },
          {
            "number": 2,
            "time": 102.50004100000051,
            "value": 0.6299212598425197
          },
          {
            "number": 2,
            "time": 102.85718400000052,
            "value": 0.6299212598425197
          },
          {
            "number": 2,
            "time": 103.03575550000052,
            "value": 0.6299212598425197
          },
          {
            "number": 2,
            "time": 104.46432750000054,
            "value": 0.6299212598425197
          },
          {
            "number": 2,
            "time": 105.53575650000055,
            "value": 0.6299212598425197
          },
          {
            "number": 2,
            "time": 106.60718550000055,
            "value": 0.6299212598425197
          },
          {
            "number": 2,
            "time": 107.14290000000057,
            "value": 0.6299212598425197
          },
          {
            "number": 2,
            "time": 107.67861450000058,
            "value": 0.6299212598425197
          },
          {
            "number": 2,
            "time": 108.7500435000006,
            "value": 0.6299212598425197
          },
          {
            "number": 2,
            "time": 109.82147250000061,
            "value": 0.6299212598425197
          },
          {
            "number": 2,
            "time": 110.00004400000061,
            "value": 0.6299212598425197
          },
          {
            "number": 2,
            "time": 110.35718700000062,
            "value": 0.6299212598425197
          },
          {
            "number": 2,
            "time": 110.71433000000063,
            "value": 0.6299212598425197
          },
          {
            "number": 2,
            "time": 111.07147300000064,
            "value": 0.6299212598425197
          },
          {
            "number": 2,
            "time": 111.42861600000064,
            "value": 0.6299212598425197
          },
          {
            "number": 2,
            "time": 111.60718750000065,
            "value": 0.6299212598425197
          },
          {
            "number": 2,
            "time": 111.96433050000066,
            "value": 0.6299212598425197
          },
          {
            "number": 2,
            "time": 112.14290200000066,
            "value": 0.6299212598425197
          },
          {
            "number": 2,
            "time": 112.50004500000067,
            "value": 0.6299212598425197
          },
          {
            "number": 2,
            "time": 113.03575950000068,
            "value": 0.6299212598425197
          },
          {
            "number": 2,
            "time": 113.57147400000069,
            "value": 0.6299212598425197
          },
          {
            "number": 2,
            "time": 114.1071885000007,
            "value": 0.6299212598425197
          },
          {
            "number": 2,
            "time": 115.00004600000072,
            "value": 0.6299212598425197
          },
          {
            "number": 2,
            "time": 116.25004650000074,
            "value": 0.6299212598425197
          },
          {
            "number": 2,
            "time": 117.32147550000076,
            "value": 0.6299212598425197
          },
          {
            "number": 2,
            "time": 118.92861900000078,
            "value": 0.6299212598425197
          },
          {
            "number": 2,
            "time": 120.1786195000008,
            "value": 0.6299212598425197
          },
          {
            "number": 2,
            "time": 121.60719150000084,
            "value": 0.6299212598425197
          },
          {
            "number": 2,
            "time": 122.14290600000085,
            "value": 0.6299212598425197
          },
          {
            "number": 2,
            "time": 122.67862050000086,
            "value": 0.6299212598425197
          },
          {
            "number": 2,
            "time": 123.75004950000088,
            "value": 0.6299212598425197
          },
          {
            "number": 2,
            "time": 125.3571930000009,
            "value": 0.6299212598425197
          },
          {
            "number": 2,
            "time": 126.96433650000094,
            "value": 0.6299212598425197
          },
          {
            "number": 2,
            "time": 127.85719400000096,
            "value": 0.6299212598425197
          },
          {
            "number": 2,
            "time": 128.75005150000098,
            "value": 0.6299212598425197
          },
          {
            "number": 2,
            "time": 130.178623500001,
            "value": 0.6299212598425197
          },
          {
            "number": 2,
            "time": 130.71433800000102,
            "value": 0.6299212598425197
          },
          {
            "number": 2,
            "time": 131.25005250000103,
            "value": 0.6299212598425197
          },
          {
            "number": 2,
            "time": 132.32148150000106,
            "value": 0.6299212598425197
          },
          {
            "number": 2,
            "time": 133.39291050000108,
            "value": 0.6299212598425197
          },
          {
            "number": 2,
            "time": 134.4643395000011,
            "value": 0.6299212598425197
          },
          {
            "number": 2,
            "time": 136.0714830000011,
            "value": 0.6299212598425197
          },
          {
            "number": 2,
            "time": 136.42862600000112,
            "value": 0.6299212598425197
          },
          {
            "number": 2,
            "time": 137.32148350000114,
            "value": 0.6299212598425197
          },
          {
            "number": 2,
            "time": 137.32594778750115,
            "value": 0.6220472440944882
          },
          {
            "number": 2,
            "time": 137.50898357500114,
            "value": 0.6141732283464567
          },
          {
            "number": 2,
            "time": 137.69053126666782,
            "value": 0.6062992125984252
          },
          {
            "number": 2,
            "time": 137.8735670541678,
            "value": 0.5984251968503937
          },
          {
            "number": 2,
            "time": 138.0551147458345,
            "value": 0.5905511811023622
          },
          {
            "number": 2,
            "time": 138.23815053333448,
            "value": 0.5826771653543307
          },
          {
            "number": 2,
            "time": 138.41969822500116,
            "value": 0.5748031496062992
          },
          {
            "number": 2,
            "time": 138.60273401250114,
            "value": 0.5669291338582677
          },
          {
            "number": 2,
            "time": 138.7842817041678,
            "value": 0.5590551181102362
          },
          {
            "number": 2,
            "time": 138.96731749166779,
            "value": 0.5511811023622047
          },
          {
            "number": 2,
            "time": 139.15035327916777,
            "value": 0.5433070866141733
          },
          {
            "number": 2,
            "time": 139.33190097083445,
            "value": 0.5354330708661418
          },
          {
            "number": 2,
            "time": 139.51493675833444,
            "value": 0.5275590551181102
          },
          {
            "number": 2,
            "time": 139.69648445000112,
            "value": 0.5196850393700787
          },
          {
            "number": 2,
            "time": 139.8795202375011,
            "value": 0.5118110236220472
          },
          {
            "number": 2,
            "time": 140.0610679291678,
            "value": 0.5039370078740157
          },
          {
            "number": 2,
            "time": 140.24410371666778,
            "value": 0.49606299212598426
          },
          {
            "number": 2,
            "time": 140.42565140833446,
            "value": 0.4881889763779528
          },
          {
            "number": 2,
            "time": 140.60868719583445,
            "value": 0.48031496062992124
          },
          {
            "number": 2,
            "time": 140.79172298333444,
            "value": 0.47244094488188976
          },
          {
            "number": 2,
            "time": 140.9732706750011,
            "value": 0.4645669291338583
          },
          {
            "number": 2,
            "time": 141.15630646250108,
            "value": 0.4566929133858268
          },
          {
            "number": 2,
            "time": 141.33785415416776,
            "value": 0.44881889763779526
          },
          {
            "number": 2,
            "time": 141.52088994166775,
            "value": 0.4409448818897638
          },
          {
            "number": 2,
            "time": 141.70243763333443,
            "value": 0.4330708661417323
          },
          {
            "number": 2,
            "time": 141.88547342083442,
            "value": 0.4251968503937008
          },
          {
            "number": 2,
            "time": 142.0670211125011,
            "value": 0.41732283464566927
          },
          {
            "number": 2,
            "time": 142.25005690000108,
            "value": 0.4094488188976378
          },
          {
            "number": 2,
            "time": 142.43309268750107,
            "value": 0.4015748031496063
          },
          {
            "number": 2,
            "time": 142.61464037916775,
            "value": 0.3937007874015748
          },
          {
            "number": 2,
            "time": 142.79767616666774,
            "value": 0.3858267716535433
          },
          {
            "number": 2,
            "time": 142.97922385833442,
            "value": 0.3779527559055118
          },
          {
            "number": 2,
            "time": 143.1622596458344,
            "value": 0.3700787401574803
          },
          {
            "number": 2,
            "time": 143.3438073375011,
            "value": 0.36220472440944884
          },
          {
            "number": 2,
            "time": 143.52684312500108,
            "value": 0.3543307086614173
          },
          {
            "number": 2,
            "time": 143.70839081666773,
            "value": 0.3464566929133858
          },
          {
            "number": 2,
            "time": 143.89142660416772,
            "value": 0.33858267716535434
          },
          {
            "number": 2,
            "time": 144.0744623916677,
            "value": 0.33070866141732286
          },
          {
            "number": 2,
            "time": 144.2560100833344,
            "value": 0.3228346456692913
          },
          {
            "number": 2,
            "time": 144.43904587083438,
            "value": 0.31496062992125984
          },
          {
            "number": 2,
            "time": 144.62059356250106,
            "value": 0.30708661417322836
          },
          {
            "number": 2,
            "time": 144.80362935000107,
            "value": 0.2992125984251969
          },
          {
            "number": 2,
            "time": 144.98517704166775,
            "value": 0.29133858267716534
          },
          {
            "number": 2,
            "time": 145.0000580000011,
            "value": 0.29133858267716534
          },
          {
            "number": 2,
            "time": 145.16821282916777,
            "value": 0.28346456692913385
          },
          {
            "number": 2,
            "time": 145.34976052083445,
            "value": 0.2755905511811024
          },
          {
            "number": 2,
            "time": 145.53279630833444,
            "value": 0.2677165354330709
          },
          {
            "number": 2,
            "time": 145.71434400000112,
            "value": 0.25984251968503935
          },
          {
            "number": 2,
            "time": 146.78577300000111,
            "value": 0.25984251968503935
          },
          {
            "number": 2,
            "time": 147.32148750000113,
            "value": 0.25984251968503935
          },
          {
            "number": 2,
            "time": 147.85720200000114,
            "value": 0.25984251968503935
          },
          {
            "number": 2,
            "time": 150.00006000000116,
            "value": 0.25984251968503935
          }
        ],
        "7": [
          {
            "number": 7,
            "time": 0,
            "value": 0.7874015748031497
          },
          {
            "number": 7,
            "time": 0,
            "value": 0.7874015748031497
          },
          {
            "number": 7,
            "time": 0,
            "value": 0.7874015748031497
          }
        ],
        "10": [
          {
            "number": 10,
            "time": 0,
            "value": 0.5039370078740157
          },
          {
            "number": 10,
            "time": 0,
            "value": 0.5039370078740157
          },
          {
            "number": 10,
            "time": 0,
            "value": 0.5039370078740157
          }
        ],
        "91": [
          {
            "number": 91,
            "time": 0,
            "value": 0
          },
          {
            "number": 91,
            "time": 0,
            "value": 0
          },
          {
            "number": 91,
            "time": 0,
            "value": 0
          }
        ],
        "93": [
          {
            "number": 93,
            "time": 0,
            "value": 0
          },
          {
            "number": 93,
            "time": 0,
            "value": 0
          },
          {
            "number": 93,
            "time": 0,
            "value": 0
          }
        ],
        "121": [
          {
            "number": 121,
            "time": 0,
            "value": 0
          },
          {
            "number": 121,
            "time": 0,
            "value": 0
          },
          {
            "number": 121,
            "time": 0,
            "value": 0
          }
        ]
      },
      "id": 0,
      "name": "Guitar",
      "instrumentNumber": 24,
      "instrument": "acoustic guitar (nylon)",
      "instrumentFamily": "guitar",
      "channelNumber": 2,
      "isPercussion": false
    },
    {
      "startTime": 0,
      "duration": 0,
      "length": 0,
      "notes": [],
      "controlChanges": {},
      "id": 1,
      "name": "Guitar"
    },
    {
      "startTime": 16.071435,
      "duration": 144.99856990416725,
      "length": 138,
      "notes": [
        {
          "name": "F#3",
          "midi": 54,
          "time": 16.071435,
          "velocity": 0.6299212598425197,
          "duration": 0.17708340416666601
        },
        {
          "name": "G#3",
          "midi": 56,
          "time": 16.2500065,
          "velocity": 0.6299212598425197,
          "duration": 0.17708340416666601
        },
        {
          "name": "F#3",
          "midi": 54,
          "time": 16.428578,
          "velocity": 0.6299212598425197,
          "duration": 0.35565490416666634
        },
        {
          "name": "E3",
          "midi": 52,
          "time": 16.785721000000002,
          "velocity": 0.6299212598425197,
          "duration": 0.35565490416666634
        },
        {
          "name": "C#3",
          "midi": 49,
          "time": 17.142864000000003,
          "velocity": 0.6299212598425197,
          "duration": 1.0699409041666677
        },
        {
          "name": "C#3",
          "midi": 49,
          "time": 18.214293000000005,
          "velocity": 0.6299212598425197,
          "duration": 0.5342264041666667
        },
        {
          "name": "F#3",
          "midi": 54,
          "time": 18.750007500000006,
          "velocity": 0.6299212598425197,
          "duration": 0.5342264041666667
        },
        {
          "name": "G#3",
          "midi": 56,
          "time": 19.285722000000007,
          "velocity": 0.6299212598425197,
          "duration": 1.0699409041666677
        },
        {
          "name": "F#3",
          "midi": 54,
          "time": 20.35715100000001,
          "velocity": 0.6299212598425197,
          "duration": 0.17708340416666601
        },
        {
          "name": "G#3",
          "midi": 56,
          "time": 20.53572250000001,
          "velocity": 0.6299212598425197,
          "duration": 0.17708340416666601
        },
        {
          "name": "F#3",
          "midi": 54,
          "time": 20.71429400000001,
          "velocity": 0.6299212598425197,
          "duration": 0.712797904166667
        },
        {
          "name": "E3",
          "midi": 52,
          "time": 21.42858000000001,
          "velocity": 0.6299212598425197,
          "duration": 1.0699409041666677
        },
        {
          "name": "A3",
          "midi": 57,
          "time": 22.500009000000013,
          "velocity": 0.6299212598425197,
          "duration": 0.35565490416666634
        },
        {
          "name": "F#4",
          "midi": 66,
          "time": 22.632449529166678,
          "velocity": 0.6299212598425197,
          "duration": 0.22172627916666698
        },
        {
          "name": "G#4",
          "midi": 68,
          "time": 22.766378154166677,
          "velocity": 0.6299212598425197,
          "duration": 0.08779765416666763
        },
        {
          "name": "E3",
          "midi": 52,
          "time": 23.57143800000001,
          "velocity": 0.6299212598425197,
          "duration": 1.0699409041666677
        },
        {
          "name": "E4",
          "midi": 64,
          "time": 24.642867000000013,
          "velocity": 0.6299212598425197,
          "duration": 0.35565490416666634
        },
        {
          "name": "D#4",
          "midi": 63,
          "time": 25.000010000000014,
          "velocity": 0.6299212598425197,
          "duration": 0.35565490416666634
        },
        {
          "name": "B3",
          "midi": 59,
          "time": 25.357153000000014,
          "velocity": 0.6299212598425197,
          "duration": 0.35565490416666634
        },
        {
          "name": "B3",
          "midi": 59,
          "time": 25.714296000000015,
          "velocity": 0.6299212598425197,
          "duration": 0.17708340416666601
        },
        {
          "name": "C#4",
          "midi": 61,
          "time": 25.892867500000015,
          "velocity": 0.6299212598425197,
          "duration": 0.712797904166667
        },
        {
          "name": "B3",
          "midi": 59,
          "time": 26.785725000000017,
          "velocity": 0.6299212598425197,
          "duration": 0.5342264041666667
        },
        {
          "name": "B3",
          "midi": 59,
          "time": 27.321439500000018,
          "velocity": 0.6299212598425197,
          "duration": 0.5342264041666667
        },
        {
          "name": "B3",
          "midi": 59,
          "time": 28.928583000000017,
          "velocity": 0.6299212598425197,
          "duration": 0.5342264041666667
        },
        {
          "name": "E3",
          "midi": 52,
          "time": 30.892869500000018,
          "velocity": 0.6299212598425197,
          "duration": 0.17708340416666601
        },
        {
          "name": "B3",
          "midi": 59,
          "time": 31.071441000000018,
          "velocity": 0.6299212598425197,
          "duration": 0.5342264041666667
        },
        {
          "name": "F#3",
          "midi": 54,
          "time": 50.35716300000002,
          "velocity": 0.6299212598425197,
          "duration": 0.06250002499999852
        },
        {
          "name": "G#3",
          "midi": 56,
          "time": 50.42115112083335,
          "velocity": 0.6299212598425197,
          "duration": 0.29017868750000275
        },
        {
          "name": "F#3",
          "midi": 54,
          "time": 50.71430600000002,
          "velocity": 0.6299212598425197,
          "duration": 0.3556549041666699
        },
        {
          "name": "E3",
          "midi": 52,
          "time": 51.07144900000002,
          "velocity": 0.6299212598425197,
          "duration": 0.3556549041666699
        },
        {
          "name": "B2",
          "midi": 47,
          "time": 51.42859200000002,
          "velocity": 0.6299212598425197,
          "duration": 0.17708340416666601
        },
        {
          "name": "C#3",
          "midi": 49,
          "time": 51.60716350000002,
          "velocity": 0.6299212598425197,
          "duration": 0.3556549041666699
        },
        {
          "name": "E3",
          "midi": 52,
          "time": 51.96430650000002,
          "velocity": 0.6299212598425197,
          "duration": 0.5342264041666667
        },
        {
          "name": "G#3",
          "midi": 56,
          "time": 52.50002100000002,
          "velocity": 0.6299212598425197,
          "duration": 0.5342264041666667
        },
        {
          "name": "D#3",
          "midi": 51,
          "time": 53.035735500000015,
          "velocity": 0.6299212598425197,
          "duration": 0.5342264041666667
        },
        {
          "name": "E3",
          "midi": 52,
          "time": 53.57145000000001,
          "velocity": 0.6299212598425197,
          "duration": 1.069940904166664
        },
        {
          "name": "G#3",
          "midi": 56,
          "time": 54.64287900000001,
          "velocity": 0.6299212598425197,
          "duration": 1.069940904166664
        },
        {
          "name": "E3",
          "midi": 52,
          "time": 55.714308,
          "velocity": 0.6299212598425197,
          "duration": 1.069940904166664
        },
        {
          "name": "B3",
          "midi": 59,
          "time": 56.785737,
          "velocity": 0.6299212598425197,
          "duration": 1.069940904166664
        },
        {
          "name": "D#4",
          "midi": 63,
          "time": 58.928594999999994,
          "velocity": 0.6299212598425197,
          "duration": 0.06250002499999852
        },
        {
          "name": "E4",
          "midi": 64,
          "time": 58.992583120833324,
          "velocity": 0.6299212598425197,
          "duration": 0.29017868750000275
        },
        {
          "name": "D#4",
          "midi": 63,
          "time": 59.285737999999995,
          "velocity": 0.6299212598425197,
          "duration": 0.3556549041666699
        },
        {
          "name": "B3",
          "midi": 59,
          "time": 59.642880999999996,
          "velocity": 0.6299212598425197,
          "duration": 0.3556549041666699
        },
        {
          "name": "C#3",
          "midi": 49,
          "time": 60.000023999999996,
          "velocity": 0.6299212598425197,
          "duration": 0.7127979041666634
        },
        {
          "name": "G#3",
          "midi": 56,
          "time": 61.07145299999999,
          "velocity": 0.6299212598425197,
          "duration": 0.5342264041666667
        },
        {
          "name": "D#3",
          "midi": 51,
          "time": 61.60716749999999,
          "velocity": 0.6299212598425197,
          "duration": 0.5342264041666667
        },
        {
          "name": "E3",
          "midi": 52,
          "time": 62.142881999999986,
          "velocity": 0.6299212598425197,
          "duration": 1.069940904166664
        },
        {
          "name": "G#3",
          "midi": 56,
          "time": 63.92859699999998,
          "velocity": 0.6299212598425197,
          "duration": 0.3556549041666699
        },
        {
          "name": "E3",
          "midi": 52,
          "time": 64.28573999999999,
          "velocity": 0.6299212598425197,
          "duration": 1.0699409041666712
        },
        {
          "name": "F#3",
          "midi": 54,
          "time": 67.50002699999999,
          "velocity": 0.6299212598425197,
          "duration": 0.06250002500000562
        },
        {
          "name": "G#3",
          "midi": 56,
          "time": 67.56401512083333,
          "velocity": 0.6299212598425197,
          "duration": 0.29017868750000275
        },
        {
          "name": "F#3",
          "midi": 54,
          "time": 67.85717,
          "velocity": 0.6299212598425197,
          "duration": 0.3556549041666699
        },
        {
          "name": "E3",
          "midi": 52,
          "time": 68.214313,
          "velocity": 0.6299212598425197,
          "duration": 0.3556549041666699
        },
        {
          "name": "B2",
          "midi": 47,
          "time": 68.57145600000001,
          "velocity": 0.6299212598425197,
          "duration": 0.17708340416666601
        },
        {
          "name": "C#3",
          "midi": 49,
          "time": 68.75002750000002,
          "velocity": 0.6299212598425197,
          "duration": 0.3556549041666699
        },
        {
          "name": "E3",
          "midi": 52,
          "time": 69.10717050000002,
          "velocity": 0.6299212598425197,
          "duration": 0.5342264041666738
        },
        {
          "name": "C#3",
          "midi": 49,
          "time": 69.64288500000004,
          "velocity": 0.6299212598425197,
          "duration": 0.5342264041666738
        },
        {
          "name": "G#3",
          "midi": 56,
          "time": 69.64288500000004,
          "velocity": 0.6299212598425197,
          "duration": 0.5342264041666738
        },
        {
          "name": "F#3",
          "midi": 54,
          "time": 70.17859950000005,
          "velocity": 0.6299212598425197,
          "duration": 0.5342264041666738
        },
        {
          "name": "G#3",
          "midi": 56,
          "time": 70.71431400000006,
          "velocity": 0.6299212598425197,
          "duration": 1.0699409041666712
        },
        {
          "name": "F#3",
          "midi": 54,
          "time": 71.78574300000007,
          "velocity": 0.6299212598425197,
          "duration": 0.06250002500000562
        },
        {
          "name": "G#3",
          "midi": 56,
          "time": 71.84973112083341,
          "velocity": 0.6299212598425197,
          "duration": 0.29017868750000275
        },
        {
          "name": "F#3",
          "midi": 54,
          "time": 72.14288600000008,
          "velocity": 0.6299212598425197,
          "duration": 0.7127979041666634
        },
        {
          "name": "E3",
          "midi": 52,
          "time": 72.85717200000008,
          "velocity": 0.6299212598425197,
          "duration": 1.0699409041666712
        },
        {
          "name": "A3",
          "midi": 57,
          "time": 73.92860100000009,
          "velocity": 0.6299212598425197,
          "duration": 0.3556549041666699
        },
        {
          "name": "F#4",
          "midi": 66,
          "time": 74.06104152916676,
          "velocity": 0.6299212598425197,
          "duration": 0.22172627916665988
        },
        {
          "name": "G#4",
          "midi": 68,
          "time": 74.19497015416675,
          "velocity": 0.6299212598425197,
          "duration": 0.08779765416666407
        },
        {
          "name": "D#4",
          "midi": 63,
          "time": 76.07145900000009,
          "velocity": 0.6299212598425197,
          "duration": 0.06250002500000562
        },
        {
          "name": "E4",
          "midi": 64,
          "time": 76.13544712083343,
          "velocity": 0.6299212598425197,
          "duration": 0.29017868750000275
        },
        {
          "name": "D#4",
          "midi": 63,
          "time": 76.4286020000001,
          "velocity": 0.6299212598425197,
          "duration": 0.3556549041666699
        },
        {
          "name": "B3",
          "midi": 59,
          "time": 76.7857450000001,
          "velocity": 0.6299212598425197,
          "duration": 0.3556549041666699
        },
        {
          "name": "B3",
          "midi": 59,
          "time": 77.14288800000011,
          "velocity": 0.6299212598425197,
          "duration": 0.17708340416666601
        },
        {
          "name": "C#4",
          "midi": 61,
          "time": 77.32145950000012,
          "velocity": 0.6299212598425197,
          "duration": 0.8913694041666673
        },
        {
          "name": "B3",
          "midi": 59,
          "time": 78.21431700000012,
          "velocity": 0.3858267716535433,
          "duration": 0.5342264041666738
        },
        {
          "name": "B3",
          "midi": 59,
          "time": 78.75003150000013,
          "velocity": 0.3858267716535433,
          "duration": 0.5342264041666738
        },
        {
          "name": "E3",
          "midi": 52,
          "time": 79.28574600000015,
          "velocity": 0.3858267716535433,
          "duration": 0.7127979041666634
        },
        {
          "name": "G#3",
          "midi": 56,
          "time": 80.17860350000014,
          "velocity": 0.3858267716535433,
          "duration": 0.17708340416666601
        },
        {
          "name": "B3",
          "midi": 59,
          "time": 80.35717500000014,
          "velocity": 0.3858267716535433,
          "duration": 0.3556549041666699
        },
        {
          "name": "G#3",
          "midi": 56,
          "time": 82.32146150000014,
          "velocity": 0.3858267716535433,
          "duration": 0.17708340416666601
        },
        {
          "name": "B3",
          "midi": 59,
          "time": 82.50003300000014,
          "velocity": 0.3858267716535433,
          "duration": 0.3556549041666699
        },
        {
          "name": "F#3",
          "midi": 54,
          "time": 101.78575500000015,
          "velocity": 0.6299212598425197,
          "duration": 0.06250002500000562
        },
        {
          "name": "G#3",
          "midi": 56,
          "time": 101.8497431208335,
          "velocity": 0.6299212598425197,
          "duration": 0.29017868750000275
        },
        {
          "name": "F#3",
          "midi": 54,
          "time": 102.14289800000016,
          "velocity": 0.6299212598425197,
          "duration": 0.3556549041666699
        },
        {
          "name": "E3",
          "midi": 52,
          "time": 102.50004100000017,
          "velocity": 0.6299212598425197,
          "duration": 0.3556549041666699
        },
        {
          "name": "B2",
          "midi": 47,
          "time": 102.85718400000017,
          "velocity": 0.6299212598425197,
          "duration": 0.17708340416666601
        },
        {
          "name": "C#3",
          "midi": 49,
          "time": 103.03575550000018,
          "velocity": 0.6299212598425197,
          "duration": 0.3556549041666699
        },
        {
          "name": "E3",
          "midi": 52,
          "time": 103.39289850000019,
          "velocity": 0.6299212598425197,
          "duration": 0.5342264041666738
        },
        {
          "name": "C#3",
          "midi": 49,
          "time": 103.9286130000002,
          "velocity": 0.6299212598425197,
          "duration": 0.5342264041666738
        },
        {
          "name": "G#3",
          "midi": 56,
          "time": 103.9286130000002,
          "velocity": 0.6299212598425197,
          "duration": 0.5342264041666738
        },
        {
          "name": "D#3",
          "midi": 51,
          "time": 104.46432750000021,
          "velocity": 0.6299212598425197,
          "duration": 0.5342264041666738
        },
        {
          "name": "E3",
          "midi": 52,
          "time": 105.00004200000022,
          "velocity": 0.6299212598425197,
          "duration": 1.4270839041666648
        },
        {
          "name": "B3",
          "midi": 59,
          "time": 106.42861400000022,
          "velocity": 0.6299212598425197,
          "duration": 0.3556549041666699
        },
        {
          "name": "G#3",
          "midi": 56,
          "time": 106.78575700000023,
          "velocity": 0.6299212598425197,
          "duration": 0.3556549041666699
        },
        {
          "name": "E3",
          "midi": 52,
          "time": 107.14290000000024,
          "velocity": 0.6299212598425197,
          "duration": 2.141369904166666
        },
        {
          "name": "C#3",
          "midi": 49,
          "time": 109.28575800000024,
          "velocity": 0.6299212598425197,
          "duration": 1.0699409041666712
        },
        {
          "name": "G#3",
          "midi": 56,
          "time": 110.35718700000025,
          "velocity": 0.6299212598425197,
          "duration": 0.5342264041666738
        },
        {
          "name": "D#3",
          "midi": 51,
          "time": 110.89290150000026,
          "velocity": 0.6299212598425197,
          "duration": 0.5342264041666738
        },
        {
          "name": "E3",
          "midi": 52,
          "time": 111.42861600000028,
          "velocity": 0.6299212598425197,
          "duration": 2.141369904166666
        },
        {
          "name": "E3",
          "midi": 52,
          "time": 113.57147400000028,
          "velocity": 0.6299212598425197,
          "duration": 2.141369904166666
        },
        {
          "name": "F#3",
          "midi": 54,
          "time": 118.92861900000028,
          "velocity": 0.6299212598425197,
          "duration": 0.06250002500000562
        },
        {
          "name": "G#3",
          "midi": 56,
          "time": 118.99260712083363,
          "velocity": 0.6299212598425197,
          "duration": 0.29017868750000275
        },
        {
          "name": "F#3",
          "midi": 54,
          "time": 119.28576200000029,
          "velocity": 0.6299212598425197,
          "duration": 0.3556549041666699
        },
        {
          "name": "E3",
          "midi": 52,
          "time": 119.6429050000003,
          "velocity": 0.6299212598425197,
          "duration": 0.3556549041666699
        },
        {
          "name": "C#3",
          "midi": 49,
          "time": 120.0000480000003,
          "velocity": 0.6299212598425197,
          "duration": 1.0699409041666712
        },
        {
          "name": "C#3",
          "midi": 49,
          "time": 121.07147700000031,
          "velocity": 0.6299212598425197,
          "duration": 0.5342264041666738
        },
        {
          "name": "F#3",
          "midi": 54,
          "time": 121.60719150000033,
          "velocity": 0.6299212598425197,
          "duration": 0.5342264041666738
        },
        {
          "name": "G#3",
          "midi": 56,
          "time": 122.14290600000034,
          "velocity": 0.6299212598425197,
          "duration": 1.0699409041666712
        },
        {
          "name": "F#3",
          "midi": 54,
          "time": 123.21433500000035,
          "velocity": 0.6299212598425197,
          "duration": 0.17708340416666601
        },
        {
          "name": "G#3",
          "midi": 56,
          "time": 123.39290650000035,
          "velocity": 0.6299212598425197,
          "duration": 0.17708340416666601
        },
        {
          "name": "F#3",
          "midi": 54,
          "time": 123.57147800000035,
          "velocity": 0.6299212598425197,
          "duration": 0.7127979041666634
        },
        {
          "name": "E3",
          "midi": 52,
          "time": 124.28576400000036,
          "velocity": 0.6299212598425197,
          "duration": 1.0699409041666712
        },
        {
          "name": "A3",
          "midi": 57,
          "time": 125.35719300000036,
          "velocity": 0.6299212598425197,
          "duration": 0.3556549041666699
        },
        {
          "name": "F#4",
          "midi": 66,
          "time": 125.48963352916704,
          "velocity": 0.6299212598425197,
          "duration": 0.22172627916665988
        },
        {
          "name": "G#4",
          "midi": 68,
          "time": 125.62356215416703,
          "velocity": 0.6299212598425197,
          "duration": 0.08779765416666407
        },
        {
          "name": "E3",
          "midi": 52,
          "time": 126.42862200000037,
          "velocity": 0.6299212598425197,
          "duration": 1.0699409041666712
        },
        {
          "name": "E4",
          "midi": 64,
          "time": 127.50005100000038,
          "velocity": 0.6299212598425197,
          "duration": 0.3556549041666699
        },
        {
          "name": "D#4",
          "midi": 63,
          "time": 127.85719400000039,
          "velocity": 0.6299212598425197,
          "duration": 0.3556549041666699
        },
        {
          "name": "B3",
          "midi": 59,
          "time": 128.2143370000004,
          "velocity": 0.6299212598425197,
          "duration": 0.3556549041666699
        },
        {
          "name": "B3",
          "midi": 59,
          "time": 128.5714800000004,
          "velocity": 0.6299212598425197,
          "duration": 0.17708340416666601
        },
        {
          "name": "C#4",
          "midi": 61,
          "time": 128.7500515000004,
          "velocity": 0.6299212598425197,
          "duration": 0.7127979041666777
        },
        {
          "name": "B3",
          "midi": 59,
          "time": 129.64290900000043,
          "velocity": 0.6299212598425197,
          "duration": 0.5342264041666738
        },
        {
          "name": "B3",
          "midi": 59,
          "time": 130.17862350000044,
          "velocity": 0.6299212598425197,
          "duration": 0.5342264041666738
        },
        {
          "name": "B3",
          "midi": 59,
          "time": 131.78576700000045,
          "velocity": 0.6299212598425197,
          "duration": 0.5342264041666738
        },
        {
          "name": "G#3",
          "midi": 56,
          "time": 133.75005350000046,
          "velocity": 0.6299212598425197,
          "duration": 0.17708340416666601
        },
        {
          "name": "B3",
          "midi": 59,
          "time": 133.92862500000047,
          "velocity": 0.6299212598425197,
          "duration": 0.5342264041666738
        },
        {
          "name": "B2",
          "midi": 47,
          "time": 137.14291200000048,
          "velocity": 0.6299212598425197,
          "duration": 0.17708340416666601
        },
        {
          "name": "C#3",
          "midi": 49,
          "time": 137.32148350000048,
          "velocity": 0.6220472440944882,
          "duration": 0.3556549041666699
        },
        {
          "name": "E3",
          "midi": 52,
          "time": 137.6786265000005,
          "velocity": 0.5984251968503937,
          "duration": 0.5342264041666738
        },
        {
          "name": "C#3",
          "midi": 49,
          "time": 138.2143410000005,
          "velocity": 0.5669291338582677,
          "duration": 0.5342264041666738
        },
        {
          "name": "D#3",
          "midi": 51,
          "time": 138.7500555000005,
          "velocity": 0.5275590551181102,
          "duration": 0.5342264041666738
        },
        {
          "name": "E3",
          "midi": 52,
          "time": 139.28577000000053,
          "velocity": 0.49606299212598426,
          "duration": 1.069940904166657
        },
        {
          "name": "B3",
          "midi": 59,
          "time": 140.71434200000053,
          "velocity": 0.4015748031496063,
          "duration": 0.3556549041666699
        },
        {
          "name": "G#3",
          "midi": 56,
          "time": 141.07148500000054,
          "velocity": 0.3779527559055118,
          "duration": 0.3556549041666699
        },
        {
          "name": "E3",
          "midi": 52,
          "time": 141.42862800000054,
          "velocity": 0.36220472440944884,
          "duration": 0.7127979041666777
        },
        {
          "name": "G#3",
          "midi": 56,
          "time": 142.32148550000056,
          "velocity": 0.2992125984251969,
          "duration": 0.17708340416666601
        },
        {
          "name": "B3",
          "midi": 59,
          "time": 142.50005700000057,
          "velocity": 0.29133858267716534,
          "duration": 0.3556549041666699
        },
        {
          "name": "G#3",
          "midi": 56,
          "time": 144.46434350000058,
          "velocity": 0.16535433070866143,
          "duration": 0.17708340416666601
        },
        {
          "name": "B3",
          "midi": 59,
          "time": 144.64291500000058,
          "velocity": 0.14960629921259844,
          "duration": 0.3556549041666699
        }
      ],
      "controlChanges": {
        "7": [
          {
            "number": 7,
            "time": 0,
            "value": 0.7874015748031497
          }
        ],
        "10": [
          {
            "number": 10,
            "time": 0,
            "value": 0.5039370078740157
          }
        ],
        "91": [
          {
            "number": 91,
            "time": 0,
            "value": 0
          }
        ],
        "93": [
          {
            "number": 93,
            "time": 0,
            "value": 0
          }
        ],
        "121": [
          {
            "number": 121,
            "time": 0,
            "value": 0
          }
        ]
      },
      "id": 2,
      "name": "Banjo",
      "instrumentNumber": 105,
      "instrument": "banjo",
      "instrumentFamily": "ethnic",
      "channelNumber": 14,
      "isPercussion": false
    },
    {
      "startTime": 0,
      "duration": 0,
      "length": 0,
      "notes": [],
      "controlChanges": {},
      "id": 3,
      "name": "Banjo"
    },
    {
      "startTime": 24.642867000000003,
      "duration": 126.42564580833346,
      "length": 60,
      "notes": [
        {
          "name": "E4",
          "midi": 64,
          "time": 24.642867000000003,
          "velocity": 0.6299212598425197,
          "duration": 1.0699409041666677
        },
        {
          "name": "F#4",
          "midi": 66,
          "time": 25.714296000000004,
          "velocity": 0.6299212598425197,
          "duration": 0.17708340416666601
        },
        {
          "name": "G#4",
          "midi": 68,
          "time": 25.892867500000005,
          "velocity": 0.6299212598425197,
          "duration": 1.0699409041666677
        },
        {
          "name": "F#3",
          "midi": 54,
          "time": 27.321439500000007,
          "velocity": 0.6299212598425197,
          "duration": 0.5342264041666667
        },
        {
          "name": "B3",
          "midi": 59,
          "time": 27.321439500000007,
          "velocity": 0.6299212598425197,
          "duration": 0.5342264041666667
        },
        {
          "name": "F#4",
          "midi": 66,
          "time": 27.321439500000007,
          "velocity": 0.6299212598425197,
          "duration": 0.5342264041666667
        },
        {
          "name": "E3",
          "midi": 52,
          "time": 27.85715400000001,
          "velocity": 0.6299212598425197,
          "duration": 1.0699409041666677
        },
        {
          "name": "B3",
          "midi": 59,
          "time": 27.85715400000001,
          "velocity": 0.6299212598425197,
          "duration": 1.0699409041666677
        },
        {
          "name": "G#4",
          "midi": 68,
          "time": 27.85715400000001,
          "velocity": 0.6299212598425197,
          "duration": 1.0699409041666677
        },
        {
          "name": "B3",
          "midi": 59,
          "time": 30.00001200000001,
          "velocity": 0.6299212598425197,
          "duration": 2.1413699041666625
        },
        {
          "name": "E4",
          "midi": 64,
          "time": 30.06400012083334,
          "velocity": 0.6299212598425197,
          "duration": 2.075893687499999
        },
        {
          "name": "B4",
          "midi": 71,
          "time": 30.12947633750001,
          "velocity": 0.6299212598425197,
          "duration": 2.0104174708333318
        },
        {
          "name": "D#4",
          "midi": 63,
          "time": 33.214299000000004,
          "velocity": 0.3858267716535433,
          "duration": 0.3556549041666699
        },
        {
          "name": "E4",
          "midi": 64,
          "time": 33.571442000000005,
          "velocity": 0.3858267716535433,
          "duration": 0.3556549041666699
        },
        {
          "name": "F#4",
          "midi": 66,
          "time": 33.928585000000005,
          "velocity": 0.3858267716535433,
          "duration": 0.3556549041666699
        },
        {
          "name": "G#4",
          "midi": 68,
          "time": 34.285728000000006,
          "velocity": 0.3858267716535433,
          "duration": 2.141369904166666
        },
        {
          "name": "A4",
          "midi": 69,
          "time": 55.00002200000001,
          "velocity": 0.6299212598425197,
          "duration": 0.06250002499999852
        },
        {
          "name": "B3",
          "midi": 59,
          "time": 55.06401012083334,
          "velocity": 0.6299212598425197,
          "duration": 0.29017868750000275
        },
        {
          "name": "B4",
          "midi": 71,
          "time": 55.06401012083334,
          "velocity": 0.6299212598425197,
          "duration": 0.29017868750000275
        },
        {
          "name": "G#3",
          "midi": 56,
          "time": 55.35716500000001,
          "velocity": 0.6299212598425197,
          "duration": 0.3556549041666699
        },
        {
          "name": "G#4",
          "midi": 68,
          "time": 55.35716500000001,
          "velocity": 0.6299212598425197,
          "duration": 0.3556549041666699
        },
        {
          "name": "E3",
          "midi": 52,
          "time": 55.71430800000001,
          "velocity": 0.6299212598425197,
          "duration": 2.141369904166666
        },
        {
          "name": "E4",
          "midi": 64,
          "time": 55.71430800000001,
          "velocity": 0.6299212598425197,
          "duration": 2.141369904166666
        },
        {
          "name": "E4",
          "midi": 64,
          "time": 86.78574900000001,
          "velocity": 0.6299212598425197,
          "duration": 0.5342264041666738
        },
        {
          "name": "D#4",
          "midi": 63,
          "time": 87.32146350000002,
          "velocity": 0.6299212598425197,
          "duration": 0.5342264041666738
        },
        {
          "name": "B3",
          "midi": 59,
          "time": 87.85717800000003,
          "velocity": 0.6299212598425197,
          "duration": 2.141369904166666
        },
        {
          "name": "E4",
          "midi": 64,
          "time": 91.07146500000003,
          "velocity": 0.25984251968503935,
          "duration": 1.0699409041666712
        },
        {
          "name": "G#3",
          "midi": 56,
          "time": 93.21432300000004,
          "velocity": 0.7559055118110236,
          "duration": 1.0699409041666854
        },
        {
          "name": "C#4",
          "midi": 61,
          "time": 93.21432300000004,
          "velocity": 0.7559055118110236,
          "duration": 1.0699409041666854
        },
        {
          "name": "E4",
          "midi": 64,
          "time": 93.21432300000004,
          "velocity": 0.7559055118110236,
          "duration": 1.0699409041666854
        },
        {
          "name": "B3",
          "midi": 59,
          "time": 94.28575200000006,
          "velocity": 0.7559055118110236,
          "duration": 0.17708340416666601
        },
        {
          "name": "D#4",
          "midi": 63,
          "time": 94.28575200000006,
          "velocity": 0.7559055118110236,
          "duration": 0.17708340416666601
        },
        {
          "name": "F#4",
          "midi": 66,
          "time": 94.28575200000006,
          "velocity": 0.7559055118110236,
          "duration": 0.17708340416666601
        },
        {
          "name": "B3",
          "midi": 59,
          "time": 94.46432350000006,
          "velocity": 0.7559055118110236,
          "duration": 1.4270839041666648
        },
        {
          "name": "E4",
          "midi": 64,
          "time": 94.46432350000006,
          "velocity": 0.7559055118110236,
          "duration": 1.4270839041666648
        },
        {
          "name": "G#4",
          "midi": 68,
          "time": 94.46432350000006,
          "velocity": 0.7559055118110236,
          "duration": 1.4270839041666648
        },
        {
          "name": "B3",
          "midi": 59,
          "time": 96.42861000000006,
          "velocity": 0.5039370078740157,
          "duration": 1.0699409041666712
        },
        {
          "name": "E4",
          "midi": 64,
          "time": 96.42861000000006,
          "velocity": 0.5039370078740157,
          "duration": 1.0699409041666712
        },
        {
          "name": "G#4",
          "midi": 68,
          "time": 97.85718200000007,
          "velocity": 0.5039370078740157,
          "duration": 0.06250002500000562
        },
        {
          "name": "B4",
          "midi": 71,
          "time": 97.92117012083341,
          "velocity": 0.5039370078740157,
          "duration": 0.29017868750000275
        },
        {
          "name": "G#4",
          "midi": 68,
          "time": 98.21432500000007,
          "velocity": 0.5039370078740157,
          "duration": 0.3556549041666699
        },
        {
          "name": "E4",
          "midi": 64,
          "time": 98.57146800000008,
          "velocity": 0.5039370078740157,
          "duration": 2.141369904166666
        },
        {
          "name": "G#3",
          "midi": 56,
          "time": 118.92861900000008,
          "velocity": 0.7559055118110236,
          "duration": 1.0699409041666854
        },
        {
          "name": "C#4",
          "midi": 61,
          "time": 118.92861900000008,
          "velocity": 0.7559055118110236,
          "duration": 1.0699409041666854
        },
        {
          "name": "E4",
          "midi": 64,
          "time": 118.92861900000008,
          "velocity": 0.7559055118110236,
          "duration": 1.0699409041666854
        },
        {
          "name": "B3",
          "midi": 59,
          "time": 120.0000480000001,
          "velocity": 0.7559055118110236,
          "duration": 0.17708340416666601
        },
        {
          "name": "D#4",
          "midi": 63,
          "time": 120.0000480000001,
          "velocity": 0.7559055118110236,
          "duration": 0.17708340416666601
        },
        {
          "name": "F#4",
          "midi": 66,
          "time": 120.0000480000001,
          "velocity": 0.7559055118110236,
          "duration": 0.17708340416666601
        },
        {
          "name": "C#4",
          "midi": 61,
          "time": 120.17861950000011,
          "velocity": 0.7322834645669292,
          "duration": 1.4270839041666648
        },
        {
          "name": "E4",
          "midi": 64,
          "time": 120.17861950000011,
          "velocity": 0.7322834645669292,
          "duration": 1.4270839041666648
        },
        {
          "name": "G#4",
          "midi": 68,
          "time": 120.17861950000011,
          "velocity": 0.7322834645669292,
          "duration": 1.4270839041666648
        },
        {
          "name": "F#3",
          "midi": 54,
          "time": 121.60719150000011,
          "velocity": 0.48031496062992124,
          "duration": 0.5342264041666738
        },
        {
          "name": "B3",
          "midi": 59,
          "time": 121.60719150000011,
          "velocity": 0.48031496062992124,
          "duration": 0.5342264041666738
        },
        {
          "name": "F#4",
          "midi": 66,
          "time": 121.60719150000011,
          "velocity": 0.48031496062992124,
          "duration": 0.5342264041666738
        },
        {
          "name": "E3",
          "midi": 52,
          "time": 122.14290600000012,
          "velocity": 0.3858267716535433,
          "duration": 1.0699409041666712
        },
        {
          "name": "B3",
          "midi": 59,
          "time": 122.14290600000012,
          "velocity": 0.3858267716535433,
          "duration": 1.0699409041666712
        },
        {
          "name": "G#4",
          "midi": 68,
          "time": 122.14290600000012,
          "velocity": 0.3858267716535433,
          "duration": 1.0699409041666712
        },
        {
          "name": "B3",
          "midi": 59,
          "time": 124.28576400000013,
          "velocity": 0.3858267716535433,
          "duration": 2.141369904166666
        },
        {
          "name": "E4",
          "midi": 64,
          "time": 124.34975212083346,
          "velocity": 0.3858267716535433,
          "duration": 2.075893687499999
        },
        {
          "name": "B4",
          "midi": 71,
          "time": 124.41522833750012,
          "velocity": 0.3858267716535433,
          "duration": 2.0104174708333318
        }
      ],
      "controlChanges": {
        "7": [
          {
            "number": 7,
            "time": 0,
            "value": 0.7874015748031497
          },
          {
            "number": 7,
            "time": 0,
            "value": 0.7874015748031497
          },
          {
            "number": 7,
            "time": 0,
            "value": 0.7874015748031497
          },
          {
            "number": 7,
            "time": 0,
            "value": 0.7874015748031497
          },
          {
            "number": 7,
            "time": 0,
            "value": 0.7874015748031497
          },
          {
            "number": 7,
            "time": 0,
            "value": 0.7874015748031497
          }
        ],
        "10": [
          {
            "number": 10,
            "time": 0,
            "value": 0.5039370078740157
          },
          {
            "number": 10,
            "time": 0,
            "value": 0.5039370078740157
          },
          {
            "number": 10,
            "time": 0,
            "value": 0.5039370078740157
          },
          {
            "number": 10,
            "time": 0,
            "value": 0.5039370078740157
          },
          {
            "number": 10,
            "time": 0,
            "value": 0.5039370078740157
          },
          {
            "number": 10,
            "time": 0,
            "value": 0.5039370078740157
          }
        ],
        "91": [
          {
            "number": 91,
            "time": 0,
            "value": 0
          },
          {
            "number": 91,
            "time": 0,
            "value": 0
          },
          {
            "number": 91,
            "time": 0,
            "value": 0
          },
          {
            "number": 91,
            "time": 0,
            "value": 0
          },
          {
            "number": 91,
            "time": 0,
            "value": 0
          },
          {
            "number": 91,
            "time": 0,
            "value": 0
          }
        ],
        "93": [
          {
            "number": 93,
            "time": 0,
            "value": 0
          },
          {
            "number": 93,
            "time": 0,
            "value": 0
          },
          {
            "number": 93,
            "time": 0,
            "value": 0
          },
          {
            "number": 93,
            "time": 0,
            "value": 0
          },
          {
            "number": 93,
            "time": 0,
            "value": 0
          },
          {
            "number": 93,
            "time": 0,
            "value": 0
          }
        ],
        "121": [
          {
            "number": 121,
            "time": 0,
            "value": 0
          },
          {
            "number": 121,
            "time": 0,
            "value": 0
          },
          {
            "number": 121,
            "time": 0,
            "value": 0
          },
          {
            "number": 121,
            "time": 0,
            "value": 0
          },
          {
            "number": 121,
            "time": 0,
            "value": 0
          },
          {
            "number": 121,
            "time": 0,
            "value": 0
          }
        ]
      },
      "id": 4,
      "name": "Electric Guitar",
      "instrumentNumber": 26,
      "instrumentFamily": "drums",
      "channelNumber": 10,
      "isPercussion": true
    },
    {
      "startTime": 0,
      "duration": 0,
      "length": 0,
      "notes": [],
      "controlChanges": {},
      "id": 5,
      "name": "Electric Guitar"
    },
    {
      "startTime": 65.35716900000001,
      "duration": 154.28428790416694,
      "length": 50,
      "notes": [
        {
          "name": "B5",
          "midi": 83,
          "time": 65.35716900000001,
          "velocity": 0.12598425196850394,
          "duration": 1.069940904166657
        },
        {
          "name": "B5",
          "midi": 83,
          "time": 66.42859800000001,
          "velocity": 0.3858267716535433,
          "duration": 2.141369904166666
        },
        {
          "name": "E5",
          "midi": 76,
          "time": 68.57145600000001,
          "velocity": 0.3858267716535433,
          "duration": 1.6056554041666686
        },
        {
          "name": "F#5",
          "midi": 78,
          "time": 70.17859950000002,
          "velocity": 0.3858267716535433,
          "duration": 0.5342264041666738
        },
        {
          "name": "G#5",
          "midi": 80,
          "time": 70.71431400000003,
          "velocity": 0.3858267716535433,
          "duration": 1.0699409041666712
        },
        {
          "name": "B4",
          "midi": 71,
          "time": 71.78574300000004,
          "velocity": 0.3858267716535433,
          "duration": 1.0699409041666712
        },
        {
          "name": "C#5",
          "midi": 73,
          "time": 72.85717200000005,
          "velocity": 0.3858267716535433,
          "duration": 3.212798904166675
        },
        {
          "name": "F#5",
          "midi": 78,
          "time": 76.07145900000006,
          "velocity": 0.3858267716535433,
          "duration": 1.0699409041666712
        },
        {
          "name": "E5",
          "midi": 76,
          "time": 77.14288800000007,
          "velocity": 0.3858267716535433,
          "duration": 1.6056554041666686
        },
        {
          "name": "F#5",
          "midi": 78,
          "time": 78.75003150000008,
          "velocity": 0.3858267716535433,
          "duration": 0.5342264041666738
        },
        {
          "name": "G#5",
          "midi": 80,
          "time": 79.28574600000009,
          "velocity": 0.3858267716535433,
          "duration": 1.0699409041666712
        },
        {
          "name": "B4",
          "midi": 71,
          "time": 80.3571750000001,
          "velocity": 0.3858267716535433,
          "duration": 1.0699409041666712
        },
        {
          "name": "C#5",
          "midi": 73,
          "time": 81.4286040000001,
          "velocity": 0.3858267716535433,
          "duration": 4.284227904166599
        },
        {
          "name": "E5",
          "midi": 76,
          "time": 100.71432600000004,
          "velocity": 0.25984251968503935,
          "duration": 1.0699409041666001
        },
        {
          "name": "F#5",
          "midi": 78,
          "time": 101.78575499999998,
          "velocity": 0.4409448818897638,
          "duration": 1.0699409041666001
        },
        {
          "name": "E5",
          "midi": 76,
          "time": 102.85718399999992,
          "velocity": 0.6299212598425197,
          "duration": 1.0699409041666712
        },
        {
          "name": "D#5",
          "midi": 75,
          "time": 103.92861299999993,
          "velocity": 0.6299212598425197,
          "duration": 1.0699409041666712
        },
        {
          "name": "E6",
          "midi": 88,
          "time": 105.00004199999994,
          "velocity": 0.6299212598425197,
          "duration": 1.7842269041666725
        },
        {
          "name": "F#6",
          "midi": 90,
          "time": 106.78575699999995,
          "velocity": 0.6299212598425197,
          "duration": 0.3556549041666699
        },
        {
          "name": "G#6",
          "midi": 92,
          "time": 107.14289999999995,
          "velocity": 0.6299212598425197,
          "duration": 1.0699409041666712
        },
        {
          "name": "B5",
          "midi": 83,
          "time": 108.21432899999996,
          "velocity": 0.6299212598425197,
          "duration": 1.0699409041666712
        },
        {
          "name": "C#6",
          "midi": 85,
          "time": 109.28575799999997,
          "velocity": 0.6299212598425197,
          "duration": 2.141369904166524
        },
        {
          "name": "E6",
          "midi": 88,
          "time": 111.42861599999983,
          "velocity": 0.25984251968503935,
          "duration": 1.6056554041666118
        },
        {
          "name": "F#6",
          "midi": 90,
          "time": 113.03575949999978,
          "velocity": 0.4409448818897638,
          "duration": 0.5342264041666596
        },
        {
          "name": "G#6",
          "midi": 92,
          "time": 113.57147399999978,
          "velocity": 0.5039370078740157,
          "duration": 1.0699409041666712
        },
        {
          "name": "B5",
          "midi": 83,
          "time": 114.64290299999979,
          "velocity": 0.5039370078740157,
          "duration": 1.0699409041666712
        },
        {
          "name": "C#6",
          "midi": 85,
          "time": 115.7143319999998,
          "velocity": 0.5039370078740157,
          "duration": 4.28422790416667
        },
        {
          "name": "E5",
          "midi": 76,
          "time": 120.00004799999981,
          "velocity": 0.6299212598425197,
          "duration": 1.6056554041666686
        },
        {
          "name": "F#5",
          "midi": 78,
          "time": 121.60719149999981,
          "velocity": 0.6299212598425197,
          "duration": 0.5342264041666738
        },
        {
          "name": "G#5",
          "midi": 80,
          "time": 122.14290599999983,
          "velocity": 0.6299212598425197,
          "duration": 1.0699409041666712
        },
        {
          "name": "B4",
          "midi": 71,
          "time": 123.21433499999983,
          "velocity": 0.6299212598425197,
          "duration": 1.0699409041666712
        },
        {
          "name": "C#5",
          "midi": 73,
          "time": 124.28576399999984,
          "velocity": 0.6299212598425197,
          "duration": 3.212798904166675
        },
        {
          "name": "F#5",
          "midi": 78,
          "time": 127.50005099999986,
          "velocity": 0.6299212598425197,
          "duration": 1.0699409041666712
        },
        {
          "name": "E5",
          "midi": 76,
          "time": 128.57147999999987,
          "velocity": 0.6299212598425197,
          "duration": 1.6056554041666686
        },
        {
          "name": "F#5",
          "midi": 78,
          "time": 130.17862349999987,
          "velocity": 0.6299212598425197,
          "duration": 0.5342264041666738
        },
        {
          "name": "G#5",
          "midi": 80,
          "time": 130.71433799999988,
          "velocity": 0.6299212598425197,
          "duration": 1.069940904166657
        },
        {
          "name": "B4",
          "midi": 71,
          "time": 131.78576699999988,
          "velocity": 0.6299212598425197,
          "duration": 1.069940904166657
        },
        {
          "name": "C#5",
          "midi": 73,
          "time": 132.85719599999987,
          "velocity": 0.6299212598425197,
          "duration": 3.2127989041666467
        },
        {
          "name": "B5",
          "midi": 83,
          "time": 136.07148299999986,
          "velocity": 0.6299212598425197,
          "duration": 1.069940904166657
        },
        {
          "name": "E5",
          "midi": 76,
          "time": 137.14291199999985,
          "velocity": 0.6299212598425197,
          "duration": 1.6056554041666686
        },
        {
          "name": "F#5",
          "midi": 78,
          "time": 138.75005549999986,
          "velocity": 0.6299212598425197,
          "duration": 0.5342264041666738
        },
        {
          "name": "G#5",
          "midi": 80,
          "time": 139.28576999999987,
          "velocity": 0.6299212598425197,
          "duration": 1.069940904166657
        },
        {
          "name": "B5",
          "midi": 83,
          "time": 140.35719899999987,
          "velocity": 0.6299212598425197,
          "duration": 1.069940904166657
        },
        {
          "name": "C#6",
          "midi": 85,
          "time": 141.42862799999986,
          "velocity": 0.6299212598425197,
          "duration": 3.2127989041666467
        },
        {
          "name": "D#6",
          "midi": 87,
          "time": 144.64291499999985,
          "velocity": 0.6299212598425197,
          "duration": 1.069940904166657
        },
        {
          "name": "E6",
          "midi": 88,
          "time": 145.71434399999984,
          "velocity": 0.6299212598425197,
          "duration": 1.6056554041666686
        },
        {
          "name": "F#6",
          "midi": 90,
          "time": 147.32148749999985,
          "velocity": 0.6299212598425197,
          "duration": 0.5342264041666738
        },
        {
          "name": "G#6",
          "midi": 92,
          "time": 147.85720199999986,
          "velocity": 0.6299212598425197,
          "duration": 1.069940904166657
        },
        {
          "name": "B5",
          "midi": 83,
          "time": 148.92863099999985,
          "velocity": 0.6299212598425197,
          "duration": 1.069940904166799
        },
        {
          "name": "C#6",
          "midi": 85,
          "time": 150.00006,
          "velocity": 0.5118110236220472,
          "duration": 4.284227904166954
        }
      ],
      "controlChanges": {
        "2": [
          {
            "number": 2,
            "time": 65.35716900000001,
            "value": 0.12598425196850394
          },
          {
            "number": 2,
            "time": 65.38990710833335,
            "value": 0.13385826771653545
          },
          {
            "number": 2,
            "time": 65.42264521666668,
            "value": 0.14173228346456693
          },
          {
            "number": 2,
            "time": 65.45538332500001,
            "value": 0.14960629921259844
          },
          {
            "number": 2,
            "time": 65.48812143333335,
            "value": 0.15748031496062992
          },
          {
            "number": 2,
            "time": 65.52085954166668,
            "value": 0.16535433070866143
          },
          {
            "number": 2,
            "time": 65.55210955416668,
            "value": 0.1732283464566929
          },
          {
            "number": 2,
            "time": 65.58484766250001,
            "value": 0.18110236220472442
          },
          {
            "number": 2,
            "time": 65.61758577083334,
            "value": 0.1889763779527559
          },
          {
            "number": 2,
            "time": 65.65032387916668,
            "value": 0.1968503937007874
          },
          {
            "number": 2,
            "time": 65.68306198750001,
            "value": 0.2047244094488189
          },
          {
            "number": 2,
            "time": 65.714312,
            "value": 0.2125984251968504
          },
          {
            "number": 2,
            "time": 65.74705010833334,
            "value": 0.2204724409448819
          },
          {
            "number": 2,
            "time": 65.77978821666667,
            "value": 0.2283464566929134
          },
          {
            "number": 2,
            "time": 65.81252632500001,
            "value": 0.23622047244094488
          },
          {
            "number": 2,
            "time": 65.84526443333334,
            "value": 0.2440944881889764
          },
          {
            "number": 2,
            "time": 65.87800254166667,
            "value": 0.25196850393700787
          },
          {
            "number": 2,
            "time": 65.90925255416667,
            "value": 0.25984251968503935
          },
          {
            "number": 2,
            "time": 65.9419906625,
            "value": 0.2677165354330709
          },
          {
            "number": 2,
            "time": 65.97472877083334,
            "value": 0.2755905511811024
          },
          {
            "number": 2,
            "time": 66.00746687916667,
            "value": 0.28346456692913385
          },
          {
            "number": 2,
            "time": 66.0402049875,
            "value": 0.29133858267716534
          },
          {
            "number": 2,
            "time": 66.071455,
            "value": 0.2992125984251969
          },
          {
            "number": 2,
            "time": 66.10419310833333,
            "value": 0.30708661417322836
          },
          {
            "number": 2,
            "time": 66.13693121666667,
            "value": 0.31496062992125984
          },
          {
            "number": 2,
            "time": 66.169669325,
            "value": 0.3228346456692913
          },
          {
            "number": 2,
            "time": 66.20240743333333,
            "value": 0.33070866141732286
          },
          {
            "number": 2,
            "time": 66.23514554166667,
            "value": 0.33858267716535434
          },
          {
            "number": 2,
            "time": 66.26639555416666,
            "value": 0.3464566929133858
          },
          {
            "number": 2,
            "time": 66.2991336625,
            "value": 0.3543307086614173
          },
          {
            "number": 2,
            "time": 66.33187177083333,
            "value": 0.36220472440944884
          },
          {
            "number": 2,
            "time": 66.36460987916666,
            "value": 0.3700787401574803
          },
          {
            "number": 2,
            "time": 66.3973479875,
            "value": 0.3779527559055118
          },
          {
            "number": 2,
            "time": 66.42859800000001,
            "value": 0.3858267716535433
          },
          {
            "number": 2,
            "time": 68.57145600000001,
            "value": 0.3858267716535433
          },
          {
            "number": 2,
            "time": 69.642885,
            "value": 0.3858267716535433
          },
          {
            "number": 2,
            "time": 70.17859950000002,
            "value": 0.3858267716535433
          },
          {
            "number": 2,
            "time": 70.71431400000003,
            "value": 0.3858267716535433
          },
          {
            "number": 2,
            "time": 71.78574300000004,
            "value": 0.3858267716535433
          },
          {
            "number": 2,
            "time": 72.85717200000005,
            "value": 0.3858267716535433
          },
          {
            "number": 2,
            "time": 75.00003000000005,
            "value": 0.3858267716535433
          },
          {
            "number": 2,
            "time": 76.07145900000006,
            "value": 0.3858267716535433
          },
          {
            "number": 2,
            "time": 77.14288800000007,
            "value": 0.3858267716535433
          },
          {
            "number": 2,
            "time": 78.21431700000007,
            "value": 0.3858267716535433
          },
          {
            "number": 2,
            "time": 78.75003150000008,
            "value": 0.3858267716535433
          },
          {
            "number": 2,
            "time": 79.28574600000009,
            "value": 0.3858267716535433
          },
          {
            "number": 2,
            "time": 80.3571750000001,
            "value": 0.3858267716535433
          },
          {
            "number": 2,
            "time": 81.4286040000001,
            "value": 0.3858267716535433
          },
          {
            "number": 2,
            "time": 81.55955643333344,
            "value": 0.3779527559055118
          },
          {
            "number": 2,
            "time": 81.68902077083344,
            "value": 0.3700787401574803
          },
          {
            "number": 2,
            "time": 81.81848510833343,
            "value": 0.36220472440944884
          },
          {
            "number": 2,
            "time": 81.94943754166677,
            "value": 0.3543307086614173
          },
          {
            "number": 2,
            "time": 82.07890187916676,
            "value": 0.3464566929133858
          },
          {
            "number": 2,
            "time": 82.20836621666676,
            "value": 0.33858267716535434
          },
          {
            "number": 2,
            "time": 82.33783055416676,
            "value": 0.33070866141732286
          },
          {
            "number": 2,
            "time": 82.46878298750009,
            "value": 0.3228346456692913
          },
          {
            "number": 2,
            "time": 82.59824732500009,
            "value": 0.31496062992125984
          },
          {
            "number": 2,
            "time": 82.72771166250008,
            "value": 0.30708661417322836
          },
          {
            "number": 2,
            "time": 82.85717600000008,
            "value": 0.2992125984251969
          },
          {
            "number": 2,
            "time": 82.98812843333342,
            "value": 0.29133858267716534
          },
          {
            "number": 2,
            "time": 83.11759277083341,
            "value": 0.28346456692913385
          },
          {
            "number": 2,
            "time": 83.24705710833341,
            "value": 0.2755905511811024
          },
          {
            "number": 2,
            "time": 83.37800954166674,
            "value": 0.2677165354330709
          },
          {
            "number": 2,
            "time": 83.50747387916674,
            "value": 0.25984251968503935
          },
          {
            "number": 2,
            "time": 83.57146200000007,
            "value": 0.25984251968503935
          },
          {
            "number": 2,
            "time": 83.63693821666674,
            "value": 0.25196850393700787
          },
          {
            "number": 2,
            "time": 83.76640255416673,
            "value": 0.2440944881889764
          },
          {
            "number": 2,
            "time": 83.89735498750007,
            "value": 0.23622047244094488
          },
          {
            "number": 2,
            "time": 84.02681932500006,
            "value": 0.2283464566929134
          },
          {
            "number": 2,
            "time": 84.15628366250006,
            "value": 0.2204724409448819
          },
          {
            "number": 2,
            "time": 84.28574800000005,
            "value": 0.2125984251968504
          },
          {
            "number": 2,
            "time": 84.41670043333339,
            "value": 0.2047244094488189
          },
          {
            "number": 2,
            "time": 84.54616477083339,
            "value": 0.1968503937007874
          },
          {
            "number": 2,
            "time": 84.67562910833338,
            "value": 0.1889763779527559
          },
          {
            "number": 2,
            "time": 84.80658154166672,
            "value": 0.18110236220472442
          },
          {
            "number": 2,
            "time": 84.93604587916671,
            "value": 0.1732283464566929
          },
          {
            "number": 2,
            "time": 85.06551021666671,
            "value": 0.16535433070866143
          },
          {
            "number": 2,
            "time": 85.1949745541667,
            "value": 0.15748031496062992
          },
          {
            "number": 2,
            "time": 85.32592698750004,
            "value": 0.14960629921259844
          },
          {
            "number": 2,
            "time": 85.45539132500004,
            "value": 0.14173228346456693
          },
          {
            "number": 2,
            "time": 85.58485566250003,
            "value": 0.13385826771653545
          },
          {
            "number": 2,
            "time": 85.71432000000004,
            "value": 0.12598425196850394
          },
          {
            "number": 2,
            "time": 100.71432600000004,
            "value": 0.25984251968503935
          },
          {
            "number": 2,
            "time": 100.76045697083337,
            "value": 0.2677165354330709
          },
          {
            "number": 2,
            "time": 100.8065879416667,
            "value": 0.2755905511811024
          },
          {
            "number": 2,
            "time": 100.8512308166667,
            "value": 0.28346456692913385
          },
          {
            "number": 2,
            "time": 100.89736178750003,
            "value": 0.29133858267716534
          },
          {
            "number": 2,
            "time": 100.94349275833336,
            "value": 0.2992125984251969
          },
          {
            "number": 2,
            "time": 100.98813563333336,
            "value": 0.30708661417322836
          },
          {
            "number": 2,
            "time": 101.03426660416669,
            "value": 0.31496062992125984
          },
          {
            "number": 2,
            "time": 101.08039757500002,
            "value": 0.3228346456692913
          },
          {
            "number": 2,
            "time": 101.12504045000001,
            "value": 0.33070866141732286
          },
          {
            "number": 2,
            "time": 101.17117142083335,
            "value": 0.33858267716535434
          },
          {
            "number": 2,
            "time": 101.21730239166668,
            "value": 0.3464566929133858
          },
          {
            "number": 2,
            "time": 101.26194526666667,
            "value": 0.3543307086614173
          },
          {
            "number": 2,
            "time": 101.3080762375,
            "value": 0.36220472440944884
          },
          {
            "number": 2,
            "time": 101.3527191125,
            "value": 0.3700787401574803
          },
          {
            "number": 2,
            "time": 101.39885008333333,
            "value": 0.3779527559055118
          },
          {
            "number": 2,
            "time": 101.44498105416666,
            "value": 0.3858267716535433
          },
          {
            "number": 2,
            "time": 101.48962392916665,
            "value": 0.3937007874015748
          },
          {
            "number": 2,
            "time": 101.53575489999999,
            "value": 0.4015748031496063
          },
          {
            "number": 2,
            "time": 101.58188587083332,
            "value": 0.4094488188976378
          },
          {
            "number": 2,
            "time": 101.62652874583331,
            "value": 0.41732283464566927
          },
          {
            "number": 2,
            "time": 101.67265971666664,
            "value": 0.4251968503937008
          },
          {
            "number": 2,
            "time": 101.71879068749998,
            "value": 0.4330708661417323
          },
          {
            "number": 2,
            "time": 101.76343356249997,
            "value": 0.4409448818897638
          },
          {
            "number": 2,
            "time": 101.78575499999998,
            "value": 0.4409448818897638
          },
          {
            "number": 2,
            "time": 101.80956453333332,
            "value": 0.44881889763779526
          },
          {
            "number": 2,
            "time": 101.85420740833331,
            "value": 0.4566929133858268
          },
          {
            "number": 2,
            "time": 101.90033837916664,
            "value": 0.4645669291338583
          },
          {
            "number": 2,
            "time": 101.94646934999997,
            "value": 0.47244094488188976
          },
          {
            "number": 2,
            "time": 101.99111222499997,
            "value": 0.48031496062992124
          },
          {
            "number": 2,
            "time": 102.0372431958333,
            "value": 0.4881889763779528
          },
          {
            "number": 2,
            "time": 102.08337416666663,
            "value": 0.49606299212598426
          },
          {
            "number": 2,
            "time": 102.12801704166662,
            "value": 0.5039370078740157
          },
          {
            "number": 2,
            "time": 102.17414801249996,
            "value": 0.5118110236220472
          },
          {
            "number": 2,
            "time": 102.22027898333329,
            "value": 0.5196850393700787
          },
          {
            "number": 2,
            "time": 102.26492185833328,
            "value": 0.5275590551181102
          },
          {
            "number": 2,
            "time": 102.31105282916661,
            "value": 0.5354330708661418
          },
          {
            "number": 2,
            "time": 102.3556957041666,
            "value": 0.5433070866141733
          },
          {
            "number": 2,
            "time": 102.40182667499994,
            "value": 0.5511811023622047
          },
          {
            "number": 2,
            "time": 102.44795764583327,
            "value": 0.5590551181102362
          },
          {
            "number": 2,
            "time": 102.49260052083326,
            "value": 0.5669291338582677
          },
          {
            "number": 2,
            "time": 102.5387314916666,
            "value": 0.5748031496062992
          },
          {
            "number": 2,
            "time": 102.58486246249993,
            "value": 0.5826771653543307
          },
          {
            "number": 2,
            "time": 102.62950533749992,
            "value": 0.5905511811023622
          },
          {
            "number": 2,
            "time": 102.67563630833325,
            "value": 0.5984251968503937
          },
          {
            "number": 2,
            "time": 102.72176727916658,
            "value": 0.6062992125984252
          },
          {
            "number": 2,
            "time": 102.76641015416658,
            "value": 0.6141732283464567
          },
          {
            "number": 2,
            "time": 102.81254112499991,
            "value": 0.6220472440944882
          },
          {
            "number": 2,
            "time": 102.85718399999992,
            "value": 0.6299212598425197
          },
          {
            "number": 2,
            "time": 103.92861299999993,
            "value": 0.6299212598425197
          },
          {
            "number": 2,
            "time": 105.00004199999994,
            "value": 0.6299212598425197
          },
          {
            "number": 2,
            "time": 106.42861399999994,
            "value": 0.6299212598425197
          },
          {
            "number": 2,
            "time": 106.78575699999995,
            "value": 0.6299212598425197
          },
          {
            "number": 2,
            "time": 107.14289999999995,
            "value": 0.6299212598425197
          },
          {
            "number": 2,
            "time": 108.21432899999996,
            "value": 0.6299212598425197
          },
          {
            "number": 2,
            "time": 109.28575799999997,
            "value": 0.6299212598425197
          },
          {
            "number": 2,
            "time": 109.3318889708333,
            "value": 0.6220472440944882
          },
          {
            "number": 2,
            "time": 109.37801994166664,
            "value": 0.6141732283464567
          },
          {
            "number": 2,
            "time": 109.42266281666663,
            "value": 0.6062992125984252
          },
          {
            "number": 2,
            "time": 109.46879378749996,
            "value": 0.5984251968503937
          },
          {
            "number": 2,
            "time": 109.5149247583333,
            "value": 0.5905511811023622
          },
          {
            "number": 2,
            "time": 109.55956763333329,
            "value": 0.5826771653543307
          },
          {
            "number": 2,
            "time": 109.60569860416662,
            "value": 0.5748031496062992
          },
          {
            "number": 2,
            "time": 109.65182957499995,
            "value": 0.5669291338582677
          },
          {
            "number": 2,
            "time": 109.69647244999994,
            "value": 0.5590551181102362
          },
          {
            "number": 2,
            "time": 109.74260342083328,
            "value": 0.5511811023622047
          },
          {
            "number": 2,
            "time": 109.78873439166661,
            "value": 0.5433070866141733
          },
          {
            "number": 2,
            "time": 109.8333772666666,
            "value": 0.5354330708661418
          },
          {
            "number": 2,
            "time": 109.87950823749993,
            "value": 0.5275590551181102
          },
          {
            "number": 2,
            "time": 109.92415111249993,
            "value": 0.5196850393700787
          },
          {
            "number": 2,
            "time": 109.97028208333326,
            "value": 0.5118110236220472
          },
          {
            "number": 2,
            "time": 110.01641305416659,
            "value": 0.5039370078740157
          },
          {
            "number": 2,
            "time": 110.06105592916659,
            "value": 0.49606299212598426
          },
          {
            "number": 2,
            "time": 110.10718689999992,
            "value": 0.4881889763779528
          },
          {
            "number": 2,
            "time": 110.15331787083325,
            "value": 0.48031496062992124
          },
          {
            "number": 2,
            "time": 110.19796074583324,
            "value": 0.47244094488188976
          },
          {
            "number": 2,
            "time": 110.24409171666657,
            "value": 0.4645669291338583
          },
          {
            "number": 2,
            "time": 110.2902226874999,
            "value": 0.4566929133858268
          },
          {
            "number": 2,
            "time": 110.3348655624999,
            "value": 0.44881889763779526
          },
          {
            "number": 2,
            "time": 110.38099653333323,
            "value": 0.4409448818897638
          },
          {
            "number": 2,
            "time": 110.42563940833323,
            "value": 0.4330708661417323
          },
          {
            "number": 2,
            "time": 110.47177037916656,
            "value": 0.4251968503937008
          },
          {
            "number": 2,
            "time": 110.51790134999989,
            "value": 0.41732283464566927
          },
          {
            "number": 2,
            "time": 110.56254422499988,
            "value": 0.4094488188976378
          },
          {
            "number": 2,
            "time": 110.60867519583321,
            "value": 0.4015748031496063
          },
          {
            "number": 2,
            "time": 110.65480616666655,
            "value": 0.3937007874015748
          },
          {
            "number": 2,
            "time": 110.69944904166654,
            "value": 0.3858267716535433
          },
          {
            "number": 2,
            "time": 110.74558001249987,
            "value": 0.3779527559055118
          },
          {
            "number": 2,
            "time": 110.7917109833332,
            "value": 0.3700787401574803
          },
          {
            "number": 2,
            "time": 110.8363538583332,
            "value": 0.36220472440944884
          },
          {
            "number": 2,
            "time": 110.88248482916653,
            "value": 0.3543307086614173
          },
          {
            "number": 2,
            "time": 110.92712770416652,
            "value": 0.3464566929133858
          },
          {
            "number": 2,
            "time": 110.97325867499985,
            "value": 0.33858267716535434
          },
          {
            "number": 2,
            "time": 111.01938964583319,
            "value": 0.33070866141732286
          },
          {
            "number": 2,
            "time": 111.06403252083318,
            "value": 0.3228346456692913
          },
          {
            "number": 2,
            "time": 111.11016349166651,
            "value": 0.31496062992125984
          },
          {
            "number": 2,
            "time": 111.15629446249984,
            "value": 0.30708661417322836
          },
          {
            "number": 2,
            "time": 111.20093733749984,
            "value": 0.2992125984251969
          },
          {
            "number": 2,
            "time": 111.24706830833317,
            "value": 0.29133858267716534
          },
          {
            "number": 2,
            "time": 111.2931992791665,
            "value": 0.28346456692913385
          },
          {
            "number": 2,
            "time": 111.3378421541665,
            "value": 0.2755905511811024
          },
          {
            "number": 2,
            "time": 111.38397312499983,
            "value": 0.2677165354330709
          },
          {
            "number": 2,
            "time": 111.42861599999983,
            "value": 0.25984251968503935
          },
          {
            "number": 2,
            "time": 111.4985565041665,
            "value": 0.2677165354330709
          },
          {
            "number": 2,
            "time": 111.56700891249983,
            "value": 0.2755905511811024
          },
          {
            "number": 2,
            "time": 111.6369494166665,
            "value": 0.28346456692913385
          },
          {
            "number": 2,
            "time": 111.70540182499983,
            "value": 0.29133858267716534
          },
          {
            "number": 2,
            "time": 111.77534232916649,
            "value": 0.2992125984251969
          },
          {
            "number": 2,
            "time": 111.84379473749982,
            "value": 0.30708661417322836
          },
          {
            "number": 2,
            "time": 111.91373524166649,
            "value": 0.31496062992125984
          },
          {
            "number": 2,
            "time": 111.98218764999982,
            "value": 0.3228346456692913
          },
          {
            "number": 2,
            "time": 112.05212815416648,
            "value": 0.33070866141732286
          },
          {
            "number": 2,
            "time": 112.12058056249981,
            "value": 0.33858267716535434
          },
          {
            "number": 2,
            "time": 112.18903297083314,
            "value": 0.3464566929133858
          },
          {
            "number": 2,
            "time": 112.2589734749998,
            "value": 0.3543307086614173
          },
          {
            "number": 2,
            "time": 112.32742588333313,
            "value": 0.36220472440944884
          },
          {
            "number": 2,
            "time": 112.3973663874998,
            "value": 0.3700787401574803
          },
          {
            "number": 2,
            "time": 112.46581879583313,
            "value": 0.3779527559055118
          },
          {
            "number": 2,
            "time": 112.5000449999998,
            "value": 0.3779527559055118
          },
          {
            "number": 2,
            "time": 112.5357592999998,
            "value": 0.3858267716535433
          },
          {
            "number": 2,
            "time": 112.60421170833312,
            "value": 0.3937007874015748
          },
          {
            "number": 2,
            "time": 112.67415221249979,
            "value": 0.4015748031496063
          },
          {
            "number": 2,
            "time": 112.74260462083312,
            "value": 0.4094488188976378
          },
          {
            "number": 2,
            "time": 112.81254512499979,
            "value": 0.41732283464566927
          },
          {
            "number": 2,
            "time": 112.88099753333312,
            "value": 0.4251968503937008
          },
          {
            "number": 2,
            "time": 112.94944994166644,
            "value": 0.4330708661417323
          },
          {
            "number": 2,
            "time": 113.01939044583311,
            "value": 0.4409448818897638
          },
          {
            "number": 2,
            "time": 113.03575949999978,
            "value": 0.4409448818897638
          },
          {
            "number": 2,
            "time": 113.08784285416645,
            "value": 0.44881889763779526
          },
          {
            "number": 2,
            "time": 113.15778335833312,
            "value": 0.4566929133858268
          },
          {
            "number": 2,
            "time": 113.22623576666645,
            "value": 0.4645669291338583
          },
          {
            "number": 2,
            "time": 113.29617627083312,
            "value": 0.47244094488188976
          },
          {
            "number": 2,
            "time": 113.36462867916644,
            "value": 0.48031496062992124
          },
          {
            "number": 2,
            "time": 113.43456918333311,
            "value": 0.4881889763779528
          },
          {
            "number": 2,
            "time": 113.50302159166644,
            "value": 0.49606299212598426
          },
          {
            "number": 2,
            "time": 113.57147399999978,
            "value": 0.5039370078740157
          },
          {
            "number": 2,
            "time": 114.64290299999979,
            "value": 0.5039370078740157
          },
          {
            "number": 2,
            "time": 115.7143319999998,
            "value": 0.5039370078740157
          },
          {
            "number": 2,
            "time": 117.8571899999998,
            "value": 0.5039370078740157
          },
          {
            "number": 2,
            "time": 120.00004799999981,
            "value": 0.6299212598425197
          },
          {
            "number": 2,
            "time": 121.0714769999998,
            "value": 0.6299212598425197
          },
          {
            "number": 2,
            "time": 121.60719149999981,
            "value": 0.6299212598425197
          },
          {
            "number": 2,
            "time": 122.14290599999983,
            "value": 0.6299212598425197
          },
          {
            "number": 2,
            "time": 123.21433499999983,
            "value": 0.6299212598425197
          },
          {
            "number": 2,
            "time": 124.28576399999984,
            "value": 0.6299212598425197
          },
          {
            "number": 2,
            "time": 126.42862199999985,
            "value": 0.6299212598425197
          },
          {
            "number": 2,
            "time": 127.50005099999986,
            "value": 0.6299212598425197
          },
          {
            "number": 2,
            "time": 128.57147999999987,
            "value": 0.6299212598425197
          },
          {
            "number": 2,
            "time": 129.64290899999986,
            "value": 0.6299212598425197
          },
          {
            "number": 2,
            "time": 130.17862349999987,
            "value": 0.6299212598425197
          },
          {
            "number": 2,
            "time": 130.71433799999988,
            "value": 0.6299212598425197
          },
          {
            "number": 2,
            "time": 131.78576699999988,
            "value": 0.6299212598425197
          },
          {
            "number": 2,
            "time": 132.85719599999987,
            "value": 0.6299212598425197
          },
          {
            "number": 2,
            "time": 135.00005399999986,
            "value": 0.6299212598425197
          },
          {
            "number": 2,
            "time": 136.07148299999986,
            "value": 0.6299212598425197
          },
          {
            "number": 2,
            "time": 137.14291199999985,
            "value": 0.6299212598425197
          },
          {
            "number": 2,
            "time": 138.21434099999985,
            "value": 0.6299212598425197
          },
          {
            "number": 2,
            "time": 138.75005549999986,
            "value": 0.6299212598425197
          },
          {
            "number": 2,
            "time": 139.28576999999987,
            "value": 0.6299212598425197
          },
          {
            "number": 2,
            "time": 140.35719899999987,
            "value": 0.6299212598425197
          },
          {
            "number": 2,
            "time": 141.42862799999986,
            "value": 0.6299212598425197
          },
          {
            "number": 2,
            "time": 143.57148599999985,
            "value": 0.6299212598425197
          },
          {
            "number": 2,
            "time": 144.64291499999985,
            "value": 0.6299212598425197
          },
          {
            "number": 2,
            "time": 145.71434399999984,
            "value": 0.6299212598425197
          },
          {
            "number": 2,
            "time": 146.78577299999984,
            "value": 0.6299212598425197
          },
          {
            "number": 2,
            "time": 147.32148749999985,
            "value": 0.6299212598425197
          },
          {
            "number": 2,
            "time": 147.85720199999986,
            "value": 0.6299212598425197
          },
          {
            "number": 2,
            "time": 148.92863099999985,
            "value": 0.6299212598425197
          },
          {
            "number": 2,
            "time": 148.9970834083332,
            "value": 0.6220472440944882
          },
          {
            "number": 2,
            "time": 149.06553581666654,
            "value": 0.6141732283464567
          },
          {
            "number": 2,
            "time": 149.13398822499988,
            "value": 0.6062992125984252
          },
          {
            "number": 2,
            "time": 149.20244063333323,
            "value": 0.5984251968503937
          },
          {
            "number": 2,
            "time": 149.27089304166657,
            "value": 0.5905511811023622
          },
          {
            "number": 2,
            "time": 149.3393454499999,
            "value": 0.5826771653543307
          },
          {
            "number": 2,
            "time": 149.40779785833325,
            "value": 0.5748031496062992
          },
          {
            "number": 2,
            "time": 149.4762502666666,
            "value": 0.5669291338582677
          },
          {
            "number": 2,
            "time": 149.54470267499994,
            "value": 0.5590551181102362
          },
          {
            "number": 2,
            "time": 149.61315508333328,
            "value": 0.5511811023622047
          },
          {
            "number": 2,
            "time": 149.68160749166663,
            "value": 0.5433070866141733
          },
          {
            "number": 2,
            "time": 149.75005989999997,
            "value": 0.5354330708661418
          },
          {
            "number": 2,
            "time": 149.8185123083333,
            "value": 0.5275590551181102
          },
          {
            "number": 2,
            "time": 149.88696471666665,
            "value": 0.5196850393700787
          },
          {
            "number": 2,
            "time": 149.955417125,
            "value": 0.5118110236220472
          },
          {
            "number": 2,
            "time": 150.00006,
            "value": 0.5118110236220472
          },
          {
            "number": 2,
            "time": 150.0238695333333,
            "value": 0.5039370078740157
          },
          {
            "number": 2,
            "time": 150.09232194166665,
            "value": 0.49606299212598426
          },
          {
            "number": 2,
            "time": 150.16077435,
            "value": 0.4881889763779528
          },
          {
            "number": 2,
            "time": 150.22922675833334,
            "value": 0.48031496062992124
          },
          {
            "number": 2,
            "time": 150.29767916666668,
            "value": 0.47244094488188976
          },
          {
            "number": 2,
            "time": 150.36613157500003,
            "value": 0.4645669291338583
          },
          {
            "number": 2,
            "time": 150.43458398333337,
            "value": 0.4566929133858268
          },
          {
            "number": 2,
            "time": 150.5030363916667,
            "value": 0.44881889763779526
          },
          {
            "number": 2,
            "time": 150.57000070416672,
            "value": 0.4409448818897638
          },
          {
            "number": 2,
            "time": 150.63845311250006,
            "value": 0.4330708661417323
          },
          {
            "number": 2,
            "time": 150.7069055208334,
            "value": 0.4251968503937008
          },
          {
            "number": 2,
            "time": 150.77535792916674,
            "value": 0.41732283464566927
          },
          {
            "number": 2,
            "time": 150.8438103375001,
            "value": 0.4094488188976378
          },
          {
            "number": 2,
            "time": 150.91226274583343,
            "value": 0.4015748031496063
          },
          {
            "number": 2,
            "time": 150.98071515416677,
            "value": 0.3937007874015748
          },
          {
            "number": 2,
            "time": 151.04916756250012,
            "value": 0.3858267716535433
          },
          {
            "number": 2,
            "time": 151.11761997083346,
            "value": 0.3779527559055118
          },
          {
            "number": 2,
            "time": 151.1860723791668,
            "value": 0.3700787401574803
          },
          {
            "number": 2,
            "time": 151.25452478750015,
            "value": 0.36220472440944884
          },
          {
            "number": 2,
            "time": 151.3229771958335,
            "value": 0.3543307086614173
          },
          {
            "number": 2,
            "time": 151.39142960416683,
            "value": 0.3464566929133858
          },
          {
            "number": 2,
            "time": 151.45988201250017,
            "value": 0.33858267716535434
          },
          {
            "number": 2,
            "time": 151.52833442083352,
            "value": 0.33070866141732286
          },
          {
            "number": 2,
            "time": 151.59678682916686,
            "value": 0.3228346456692913
          },
          {
            "number": 2,
            "time": 151.6652392375002,
            "value": 0.31496062992125984
          },
          {
            "number": 2,
            "time": 151.73369164583355,
            "value": 0.30708661417322836
          },
          {
            "number": 2,
            "time": 151.8021440541669,
            "value": 0.2992125984251969
          },
          {
            "number": 2,
            "time": 151.87059646250023,
            "value": 0.29133858267716534
          },
          {
            "number": 2,
            "time": 151.93904887083357,
            "value": 0.28346456692913385
          },
          {
            "number": 2,
            "time": 152.00750127916692,
            "value": 0.2755905511811024
          },
          {
            "number": 2,
            "time": 152.07595368750026,
            "value": 0.2677165354330709
          },
          {
            "number": 2,
            "time": 152.14291800000026,
            "value": 0.25984251968503935
          }
        ],
        "7": [
          {
            "number": 7,
            "time": 0,
            "value": 0.7874015748031497
          },
          {
            "number": 7,
            "time": 0,
            "value": 0.7874015748031497
          },
          {
            "number": 7,
            "time": 0,
            "value": 0.7874015748031497
          }
        ],
        "10": [
          {
            "number": 10,
            "time": 0,
            "value": 0.5039370078740157
          },
          {
            "number": 10,
            "time": 0,
            "value": 0.5039370078740157
          },
          {
            "number": 10,
            "time": 0,
            "value": 0.5039370078740157
          }
        ],
        "91": [
          {
            "number": 91,
            "time": 0,
            "value": 0
          },
          {
            "number": 91,
            "time": 0,
            "value": 0
          },
          {
            "number": 91,
            "time": 0,
            "value": 0
          }
        ],
        "93": [
          {
            "number": 93,
            "time": 0,
            "value": 0
          },
          {
            "number": 93,
            "time": 0,
            "value": 0
          },
          {
            "number": 93,
            "time": 0,
            "value": 0
          }
        ],
        "121": [
          {
            "number": 121,
            "time": 0,
            "value": 0
          },
          {
            "number": 121,
            "time": 0,
            "value": 0
          },
          {
            "number": 121,
            "time": 0,
            "value": 0
          }
        ]
      },
      "id": 6,
      "name": "Violin",
      "instrumentNumber": 44,
      "instrument": "tremolo strings",
      "instrumentFamily": "strings",
      "channelNumber": 13,
      "isPercussion": false
    },
    {
      "startTime": 100.71432600000001,
      "duration": 154.2842879041669,
      "length": 35,
      "notes": [
        {
          "name": "C#5",
          "midi": 73,
          "time": 100.71432600000001,
          "velocity": 0.25984251968503935,
          "duration": 1.0699409041666001
        },
        {
          "name": "D#5",
          "midi": 75,
          "time": 101.78575499999995,
          "velocity": 0.4409448818897638,
          "duration": 1.0699409041666001
        },
        {
          "name": "C#5",
          "midi": 73,
          "time": 102.85718399999989,
          "velocity": 0.6299212598425197,
          "duration": 1.0699409041666712
        },
        {
          "name": "F#5",
          "midi": 78,
          "time": 103.9286129999999,
          "velocity": 0.6299212598425197,
          "duration": 1.0699409041666712
        },
        {
          "name": "G#5",
          "midi": 80,
          "time": 105.00004199999991,
          "velocity": 0.6299212598425197,
          "duration": 1.7842269041666725
        },
        {
          "name": "F#5",
          "midi": 78,
          "time": 106.78575699999992,
          "velocity": 0.6299212598425197,
          "duration": 0.3556549041666699
        },
        {
          "name": "G#5",
          "midi": 80,
          "time": 107.14289999999993,
          "velocity": 0.6299212598425197,
          "duration": 1.0699409041666712
        },
        {
          "name": "B4",
          "midi": 71,
          "time": 108.21432899999994,
          "velocity": 0.6299212598425197,
          "duration": 1.0699409041666712
        },
        {
          "name": "C#5",
          "midi": 73,
          "time": 109.28575799999994,
          "velocity": 0.6299212598425197,
          "duration": 2.141369904166524
        },
        {
          "name": "C#5",
          "midi": 73,
          "time": 111.4286159999998,
          "velocity": 0.25984251968503935,
          "duration": 1.6056554041666118
        },
        {
          "name": "D#5",
          "midi": 75,
          "time": 113.03575949999976,
          "velocity": 0.4409448818897638,
          "duration": 0.5342264041666596
        },
        {
          "name": "E5",
          "midi": 76,
          "time": 113.57147399999975,
          "velocity": 0.5039370078740157,
          "duration": 1.0699409041666712
        },
        {
          "name": "B4",
          "midi": 71,
          "time": 114.64290299999976,
          "velocity": 0.5039370078740157,
          "duration": 1.0699409041666712
        },
        {
          "name": "C#5",
          "midi": 73,
          "time": 115.71433199999977,
          "velocity": 0.5039370078740157,
          "duration": 1.0699409041666712
        },
        {
          "name": "G#4",
          "midi": 68,
          "time": 116.78576099999978,
          "velocity": 0.5039370078740157,
          "duration": 1.0699409041666712
        },
        {
          "name": "B4",
          "midi": 71,
          "time": 117.85718999999979,
          "velocity": 0.5039370078740157,
          "duration": 2.141369904166666
        },
        {
          "name": "C#4",
          "midi": 61,
          "time": 120.0000479999998,
          "velocity": 0.6299212598425197,
          "duration": 1.6056554041666686
        },
        {
          "name": "D#4",
          "midi": 63,
          "time": 121.6071914999998,
          "velocity": 0.6299212598425197,
          "duration": 0.5342264041666738
        },
        {
          "name": "E4",
          "midi": 64,
          "time": 122.14290599999981,
          "velocity": 0.6299212598425197,
          "duration": 1.0699409041666712
        },
        {
          "name": "G#3",
          "midi": 56,
          "time": 123.21433499999982,
          "velocity": 0.6299212598425197,
          "duration": 1.0699409041666712
        },
        {
          "name": "B3",
          "midi": 59,
          "time": 124.28576399999983,
          "velocity": 0.6299212598425197,
          "duration": 3.212798904166675
        },
        {
          "name": "D#4",
          "midi": 63,
          "time": 127.50005099999984,
          "velocity": 0.6299212598425197,
          "duration": 1.069940904166657
        },
        {
          "name": "C#4",
          "midi": 61,
          "time": 128.57147999999984,
          "velocity": 0.6299212598425197,
          "duration": 1.6056554041666686
        },
        {
          "name": "D#4",
          "midi": 63,
          "time": 130.17862349999984,
          "velocity": 0.6299212598425197,
          "duration": 0.5342264041666738
        },
        {
          "name": "E4",
          "midi": 64,
          "time": 130.71433799999986,
          "velocity": 0.6299212598425197,
          "duration": 1.069940904166657
        },
        {
          "name": "G#3",
          "midi": 56,
          "time": 131.78576699999985,
          "velocity": 0.6299212598425197,
          "duration": 1.069940904166657
        },
        {
          "name": "E4",
          "midi": 64,
          "time": 132.85719599999985,
          "velocity": 0.6299212598425197,
          "duration": 1.069940904166657
        },
        {
          "name": "F#4",
          "midi": 66,
          "time": 133.92862499999984,
          "velocity": 0.6299212598425197,
          "duration": 1.069940904166657
        },
        {
          "name": "G#4",
          "midi": 68,
          "time": 135.00005399999984,
          "velocity": 0.6299212598425197,
          "duration": 1.069940904166657
        },
        {
          "name": "B4",
          "midi": 71,
          "time": 136.07148299999983,
          "velocity": 0.6299212598425197,
          "duration": 5.355656904166665
        },
        {
          "name": "C#5",
          "midi": 73,
          "time": 141.42862799999983,
          "velocity": 0.6299212598425197,
          "duration": 1.069940904166657
        },
        {
          "name": "D#5",
          "midi": 75,
          "time": 142.50005699999983,
          "velocity": 0.6299212598425197,
          "duration": 1.069940904166657
        },
        {
          "name": "C#5",
          "midi": 73,
          "time": 143.57148599999982,
          "velocity": 0.6299212598425197,
          "duration": 1.069940904166657
        },
        {
          "name": "D#5",
          "midi": 75,
          "time": 144.64291499999982,
          "velocity": 0.6299212598425197,
          "duration": 1.069940904166799
        },
        {
          "name": "G#5",
          "midi": 80,
          "time": 145.71434399999995,
          "velocity": 0.5118110236220472,
          "duration": 8.569943904166934
        }
      ],
      "controlChanges": {
        "2": [
          {
            "number": 2,
            "time": 100.71432600000001,
            "value": 0.25984251968503935
          },
          {
            "number": 2,
            "time": 100.76045697083335,
            "value": 0.2677165354330709
          },
          {
            "number": 2,
            "time": 100.80658794166668,
            "value": 0.2755905511811024
          },
          {
            "number": 2,
            "time": 100.85123081666667,
            "value": 0.28346456692913385
          },
          {
            "number": 2,
            "time": 100.8973617875,
            "value": 0.29133858267716534
          },
          {
            "number": 2,
            "time": 100.94349275833333,
            "value": 0.2992125984251969
          },
          {
            "number": 2,
            "time": 100.98813563333333,
            "value": 0.30708661417322836
          },
          {
            "number": 2,
            "time": 101.03426660416666,
            "value": 0.31496062992125984
          },
          {
            "number": 2,
            "time": 101.08039757499999,
            "value": 0.3228346456692913
          },
          {
            "number": 2,
            "time": 101.12504044999999,
            "value": 0.33070866141732286
          },
          {
            "number": 2,
            "time": 101.17117142083332,
            "value": 0.33858267716535434
          },
          {
            "number": 2,
            "time": 101.21730239166665,
            "value": 0.3464566929133858
          },
          {
            "number": 2,
            "time": 101.26194526666664,
            "value": 0.3543307086614173
          },
          {
            "number": 2,
            "time": 101.30807623749998,
            "value": 0.36220472440944884
          },
          {
            "number": 2,
            "time": 101.35271911249997,
            "value": 0.3700787401574803
          },
          {
            "number": 2,
            "time": 101.3988500833333,
            "value": 0.3779527559055118
          },
          {
            "number": 2,
            "time": 101.44498105416663,
            "value": 0.3858267716535433
          },
          {
            "number": 2,
            "time": 101.48962392916663,
            "value": 0.3937007874015748
          },
          {
            "number": 2,
            "time": 101.53575489999996,
            "value": 0.4015748031496063
          },
          {
            "number": 2,
            "time": 101.58188587083329,
            "value": 0.4094488188976378
          },
          {
            "number": 2,
            "time": 101.62652874583328,
            "value": 0.41732283464566927
          },
          {
            "number": 2,
            "time": 101.67265971666662,
            "value": 0.4251968503937008
          },
          {
            "number": 2,
            "time": 101.71879068749995,
            "value": 0.4330708661417323
          },
          {
            "number": 2,
            "time": 101.76343356249994,
            "value": 0.4409448818897638
          },
          {
            "number": 2,
            "time": 101.78575499999995,
            "value": 0.4409448818897638
          },
          {
            "number": 2,
            "time": 101.80956453333329,
            "value": 0.44881889763779526
          },
          {
            "number": 2,
            "time": 101.85420740833328,
            "value": 0.4566929133858268
          },
          {
            "number": 2,
            "time": 101.90033837916661,
            "value": 0.4645669291338583
          },
          {
            "number": 2,
            "time": 101.94646934999994,
            "value": 0.47244094488188976
          },
          {
            "number": 2,
            "time": 101.99111222499994,
            "value": 0.48031496062992124
          },
          {
            "number": 2,
            "time": 102.03724319583327,
            "value": 0.4881889763779528
          },
          {
            "number": 2,
            "time": 102.0833741666666,
            "value": 0.49606299212598426
          },
          {
            "number": 2,
            "time": 102.1280170416666,
            "value": 0.5039370078740157
          },
          {
            "number": 2,
            "time": 102.17414801249993,
            "value": 0.5118110236220472
          },
          {
            "number": 2,
            "time": 102.22027898333326,
            "value": 0.5196850393700787
          },
          {
            "number": 2,
            "time": 102.26492185833325,
            "value": 0.5275590551181102
          },
          {
            "number": 2,
            "time": 102.31105282916658,
            "value": 0.5354330708661418
          },
          {
            "number": 2,
            "time": 102.35569570416658,
            "value": 0.5433070866141733
          },
          {
            "number": 2,
            "time": 102.40182667499991,
            "value": 0.5511811023622047
          },
          {
            "number": 2,
            "time": 102.44795764583324,
            "value": 0.5590551181102362
          },
          {
            "number": 2,
            "time": 102.49260052083324,
            "value": 0.5669291338582677
          },
          {
            "number": 2,
            "time": 102.53873149166657,
            "value": 0.5748031496062992
          },
          {
            "number": 2,
            "time": 102.5848624624999,
            "value": 0.5826771653543307
          },
          {
            "number": 2,
            "time": 102.6295053374999,
            "value": 0.5905511811023622
          },
          {
            "number": 2,
            "time": 102.67563630833322,
            "value": 0.5984251968503937
          },
          {
            "number": 2,
            "time": 102.72176727916656,
            "value": 0.6062992125984252
          },
          {
            "number": 2,
            "time": 102.76641015416655,
            "value": 0.6141732283464567
          },
          {
            "number": 2,
            "time": 102.81254112499988,
            "value": 0.6220472440944882
          },
          {
            "number": 2,
            "time": 102.85718399999989,
            "value": 0.6299212598425197
          },
          {
            "number": 2,
            "time": 103.9286129999999,
            "value": 0.6299212598425197
          },
          {
            "number": 2,
            "time": 105.00004199999991,
            "value": 0.6299212598425197
          },
          {
            "number": 2,
            "time": 106.42861399999991,
            "value": 0.6299212598425197
          },
          {
            "number": 2,
            "time": 106.78575699999992,
            "value": 0.6299212598425197
          },
          {
            "number": 2,
            "time": 107.14289999999993,
            "value": 0.6299212598425197
          },
          {
            "number": 2,
            "time": 108.21432899999994,
            "value": 0.6299212598425197
          },
          {
            "number": 2,
            "time": 109.28575799999994,
            "value": 0.6299212598425197
          },
          {
            "number": 2,
            "time": 109.33188897083328,
            "value": 0.6220472440944882
          },
          {
            "number": 2,
            "time": 109.37801994166661,
            "value": 0.6141732283464567
          },
          {
            "number": 2,
            "time": 109.4226628166666,
            "value": 0.6062992125984252
          },
          {
            "number": 2,
            "time": 109.46879378749993,
            "value": 0.5984251968503937
          },
          {
            "number": 2,
            "time": 109.51492475833327,
            "value": 0.5905511811023622
          },
          {
            "number": 2,
            "time": 109.55956763333326,
            "value": 0.5826771653543307
          },
          {
            "number": 2,
            "time": 109.60569860416659,
            "value": 0.5748031496062992
          },
          {
            "number": 2,
            "time": 109.65182957499992,
            "value": 0.5669291338582677
          },
          {
            "number": 2,
            "time": 109.69647244999992,
            "value": 0.5590551181102362
          },
          {
            "number": 2,
            "time": 109.74260342083325,
            "value": 0.5511811023622047
          },
          {
            "number": 2,
            "time": 109.78873439166658,
            "value": 0.5433070866141733
          },
          {
            "number": 2,
            "time": 109.83337726666657,
            "value": 0.5354330708661418
          },
          {
            "number": 2,
            "time": 109.8795082374999,
            "value": 0.5275590551181102
          },
          {
            "number": 2,
            "time": 109.9241511124999,
            "value": 0.5196850393700787
          },
          {
            "number": 2,
            "time": 109.97028208333323,
            "value": 0.5118110236220472
          },
          {
            "number": 2,
            "time": 110.01641305416656,
            "value": 0.5039370078740157
          },
          {
            "number": 2,
            "time": 110.06105592916656,
            "value": 0.49606299212598426
          },
          {
            "number": 2,
            "time": 110.10718689999989,
            "value": 0.4881889763779528
          },
          {
            "number": 2,
            "time": 110.15331787083322,
            "value": 0.48031496062992124
          },
          {
            "number": 2,
            "time": 110.19796074583321,
            "value": 0.47244094488188976
          },
          {
            "number": 2,
            "time": 110.24409171666655,
            "value": 0.4645669291338583
          },
          {
            "number": 2,
            "time": 110.29022268749988,
            "value": 0.4566929133858268
          },
          {
            "number": 2,
            "time": 110.33486556249987,
            "value": 0.44881889763779526
          },
          {
            "number": 2,
            "time": 110.3809965333332,
            "value": 0.4409448818897638
          },
          {
            "number": 2,
            "time": 110.4256394083332,
            "value": 0.4330708661417323
          },
          {
            "number": 2,
            "time": 110.47177037916653,
            "value": 0.4251968503937008
          },
          {
            "number": 2,
            "time": 110.51790134999986,
            "value": 0.41732283464566927
          },
          {
            "number": 2,
            "time": 110.56254422499985,
            "value": 0.4094488188976378
          },
          {
            "number": 2,
            "time": 110.60867519583319,
            "value": 0.4015748031496063
          },
          {
            "number": 2,
            "time": 110.65480616666652,
            "value": 0.3937007874015748
          },
          {
            "number": 2,
            "time": 110.69944904166651,
            "value": 0.3858267716535433
          },
          {
            "number": 2,
            "time": 110.74558001249984,
            "value": 0.3779527559055118
          },
          {
            "number": 2,
            "time": 110.79171098333318,
            "value": 0.3700787401574803
          },
          {
            "number": 2,
            "time": 110.83635385833317,
            "value": 0.36220472440944884
          },
          {
            "number": 2,
            "time": 110.8824848291665,
            "value": 0.3543307086614173
          },
          {
            "number": 2,
            "time": 110.9271277041665,
            "value": 0.3464566929133858
          },
          {
            "number": 2,
            "time": 110.97325867499983,
            "value": 0.33858267716535434
          },
          {
            "number": 2,
            "time": 111.01938964583316,
            "value": 0.33070866141732286
          },
          {
            "number": 2,
            "time": 111.06403252083315,
            "value": 0.3228346456692913
          },
          {
            "number": 2,
            "time": 111.11016349166648,
            "value": 0.31496062992125984
          },
          {
            "number": 2,
            "time": 111.15629446249982,
            "value": 0.30708661417322836
          },
          {
            "number": 2,
            "time": 111.20093733749981,
            "value": 0.2992125984251969
          },
          {
            "number": 2,
            "time": 111.24706830833314,
            "value": 0.29133858267716534
          },
          {
            "number": 2,
            "time": 111.29319927916647,
            "value": 0.28346456692913385
          },
          {
            "number": 2,
            "time": 111.33784215416647,
            "value": 0.2755905511811024
          },
          {
            "number": 2,
            "time": 111.3839731249998,
            "value": 0.2677165354330709
          },
          {
            "number": 2,
            "time": 111.4286159999998,
            "value": 0.25984251968503935
          },
          {
            "number": 2,
            "time": 111.49855650416647,
            "value": 0.2677165354330709
          },
          {
            "number": 2,
            "time": 111.5670089124998,
            "value": 0.2755905511811024
          },
          {
            "number": 2,
            "time": 111.63694941666647,
            "value": 0.28346456692913385
          },
          {
            "number": 2,
            "time": 111.7054018249998,
            "value": 0.29133858267716534
          },
          {
            "number": 2,
            "time": 111.77534232916646,
            "value": 0.2992125984251969
          },
          {
            "number": 2,
            "time": 111.84379473749979,
            "value": 0.30708661417322836
          },
          {
            "number": 2,
            "time": 111.91373524166646,
            "value": 0.31496062992125984
          },
          {
            "number": 2,
            "time": 111.98218764999979,
            "value": 0.3228346456692913
          },
          {
            "number": 2,
            "time": 112.05212815416645,
            "value": 0.33070866141732286
          },
          {
            "number": 2,
            "time": 112.12058056249978,
            "value": 0.33858267716535434
          },
          {
            "number": 2,
            "time": 112.18903297083311,
            "value": 0.3464566929133858
          },
          {
            "number": 2,
            "time": 112.25897347499978,
            "value": 0.3543307086614173
          },
          {
            "number": 2,
            "time": 112.3274258833331,
            "value": 0.36220472440944884
          },
          {
            "number": 2,
            "time": 112.39736638749977,
            "value": 0.3700787401574803
          },
          {
            "number": 2,
            "time": 112.4658187958331,
            "value": 0.3779527559055118
          },
          {
            "number": 2,
            "time": 112.50004499999977,
            "value": 0.3779527559055118
          },
          {
            "number": 2,
            "time": 112.53575929999977,
            "value": 0.3858267716535433
          },
          {
            "number": 2,
            "time": 112.6042117083331,
            "value": 0.3937007874015748
          },
          {
            "number": 2,
            "time": 112.67415221249976,
            "value": 0.4015748031496063
          },
          {
            "number": 2,
            "time": 112.74260462083309,
            "value": 0.4094488188976378
          },
          {
            "number": 2,
            "time": 112.81254512499976,
            "value": 0.41732283464566927
          },
          {
            "number": 2,
            "time": 112.88099753333309,
            "value": 0.4251968503937008
          },
          {
            "number": 2,
            "time": 112.94944994166642,
            "value": 0.4330708661417323
          },
          {
            "number": 2,
            "time": 113.01939044583308,
            "value": 0.4409448818897638
          },
          {
            "number": 2,
            "time": 113.03575949999976,
            "value": 0.4409448818897638
          },
          {
            "number": 2,
            "time": 113.08784285416642,
            "value": 0.44881889763779526
          },
          {
            "number": 2,
            "time": 113.15778335833309,
            "value": 0.4566929133858268
          },
          {
            "number": 2,
            "time": 113.22623576666642,
            "value": 0.4645669291338583
          },
          {
            "number": 2,
            "time": 113.29617627083309,
            "value": 0.47244094488188976
          },
          {
            "number": 2,
            "time": 113.36462867916642,
            "value": 0.48031496062992124
          },
          {
            "number": 2,
            "time": 113.43456918333308,
            "value": 0.4881889763779528
          },
          {
            "number": 2,
            "time": 113.50302159166641,
            "value": 0.49606299212598426
          },
          {
            "number": 2,
            "time": 113.57147399999975,
            "value": 0.5039370078740157
          },
          {
            "number": 2,
            "time": 114.64290299999976,
            "value": 0.5039370078740157
          },
          {
            "number": 2,
            "time": 115.71433199999977,
            "value": 0.5039370078740157
          },
          {
            "number": 2,
            "time": 116.78576099999978,
            "value": 0.5039370078740157
          },
          {
            "number": 2,
            "time": 117.85718999999979,
            "value": 0.5039370078740157
          },
          {
            "number": 2,
            "time": 120.0000479999998,
            "value": 0.6299212598425197
          },
          {
            "number": 2,
            "time": 121.07147699999979,
            "value": 0.6299212598425197
          },
          {
            "number": 2,
            "time": 121.6071914999998,
            "value": 0.6299212598425197
          },
          {
            "number": 2,
            "time": 122.14290599999981,
            "value": 0.6299212598425197
          },
          {
            "number": 2,
            "time": 123.21433499999982,
            "value": 0.6299212598425197
          },
          {
            "number": 2,
            "time": 124.28576399999983,
            "value": 0.6299212598425197
          },
          {
            "number": 2,
            "time": 126.42862199999983,
            "value": 0.6299212598425197
          },
          {
            "number": 2,
            "time": 127.50005099999984,
            "value": 0.6299212598425197
          },
          {
            "number": 2,
            "time": 128.57147999999984,
            "value": 0.6299212598425197
          },
          {
            "number": 2,
            "time": 129.64290899999983,
            "value": 0.6299212598425197
          },
          {
            "number": 2,
            "time": 130.17862349999984,
            "value": 0.6299212598425197
          },
          {
            "number": 2,
            "time": 130.71433799999986,
            "value": 0.6299212598425197
          },
          {
            "number": 2,
            "time": 131.78576699999985,
            "value": 0.6299212598425197
          },
          {
            "number": 2,
            "time": 132.85719599999985,
            "value": 0.6299212598425197
          },
          {
            "number": 2,
            "time": 133.92862499999984,
            "value": 0.6299212598425197
          },
          {
            "number": 2,
            "time": 135.00005399999984,
            "value": 0.6299212598425197
          },
          {
            "number": 2,
            "time": 136.07148299999983,
            "value": 0.6299212598425197
          },
          {
            "number": 2,
            "time": 137.14291199999982,
            "value": 0.6299212598425197
          },
          {
            "number": 2,
            "time": 139.28576999999981,
            "value": 0.6299212598425197
          },
          {
            "number": 2,
            "time": 141.42862799999983,
            "value": 0.6299212598425197
          },
          {
            "number": 2,
            "time": 142.50005699999983,
            "value": 0.6299212598425197
          },
          {
            "number": 2,
            "time": 143.57148599999982,
            "value": 0.6299212598425197
          },
          {
            "number": 2,
            "time": 144.64291499999982,
            "value": 0.6299212598425197
          },
          {
            "number": 2,
            "time": 144.71136740833316,
            "value": 0.6220472440944882
          },
          {
            "number": 2,
            "time": 144.7798198166665,
            "value": 0.6141732283464567
          },
          {
            "number": 2,
            "time": 144.84827222499985,
            "value": 0.6062992125984252
          },
          {
            "number": 2,
            "time": 144.9167246333332,
            "value": 0.5984251968503937
          },
          {
            "number": 2,
            "time": 144.98517704166653,
            "value": 0.5905511811023622
          },
          {
            "number": 2,
            "time": 145.05362944999987,
            "value": 0.5826771653543307
          },
          {
            "number": 2,
            "time": 145.12208185833322,
            "value": 0.5748031496062992
          },
          {
            "number": 2,
            "time": 145.19053426666656,
            "value": 0.5669291338582677
          },
          {
            "number": 2,
            "time": 145.2589866749999,
            "value": 0.5590551181102362
          },
          {
            "number": 2,
            "time": 145.32743908333325,
            "value": 0.5511811023622047
          },
          {
            "number": 2,
            "time": 145.3958914916666,
            "value": 0.5433070866141733
          },
          {
            "number": 2,
            "time": 145.46434389999993,
            "value": 0.5354330708661418
          },
          {
            "number": 2,
            "time": 145.53279630833327,
            "value": 0.5275590551181102
          },
          {
            "number": 2,
            "time": 145.60124871666662,
            "value": 0.5196850393700787
          },
          {
            "number": 2,
            "time": 145.66970112499996,
            "value": 0.5118110236220472
          },
          {
            "number": 2,
            "time": 145.71434399999995,
            "value": 0.5118110236220472
          },
          {
            "number": 2,
            "time": 145.73815353333327,
            "value": 0.5039370078740157
          },
          {
            "number": 2,
            "time": 145.80660594166662,
            "value": 0.49606299212598426
          },
          {
            "number": 2,
            "time": 145.87505834999996,
            "value": 0.4881889763779528
          },
          {
            "number": 2,
            "time": 145.9435107583333,
            "value": 0.48031496062992124
          },
          {
            "number": 2,
            "time": 146.01196316666665,
            "value": 0.47244094488188976
          },
          {
            "number": 2,
            "time": 146.080415575,
            "value": 0.4645669291338583
          },
          {
            "number": 2,
            "time": 146.14886798333333,
            "value": 0.4566929133858268
          },
          {
            "number": 2,
            "time": 146.21732039166668,
            "value": 0.44881889763779526
          },
          {
            "number": 2,
            "time": 146.28428470416668,
            "value": 0.4409448818897638
          },
          {
            "number": 2,
            "time": 146.35273711250002,
            "value": 0.4330708661417323
          },
          {
            "number": 2,
            "time": 146.42118952083337,
            "value": 0.4251968503937008
          },
          {
            "number": 2,
            "time": 146.4896419291667,
            "value": 0.41732283464566927
          },
          {
            "number": 2,
            "time": 146.55809433750005,
            "value": 0.4094488188976378
          },
          {
            "number": 2,
            "time": 146.6265467458334,
            "value": 0.4015748031496063
          },
          {
            "number": 2,
            "time": 146.69499915416674,
            "value": 0.3937007874015748
          },
          {
            "number": 2,
            "time": 146.76345156250008,
            "value": 0.3858267716535433
          },
          {
            "number": 2,
            "time": 146.83190397083342,
            "value": 0.3779527559055118
          },
          {
            "number": 2,
            "time": 146.90035637916677,
            "value": 0.3700787401574803
          },
          {
            "number": 2,
            "time": 146.9688087875001,
            "value": 0.36220472440944884
          },
          {
            "number": 2,
            "time": 147.03726119583345,
            "value": 0.3543307086614173
          },
          {
            "number": 2,
            "time": 147.1057136041668,
            "value": 0.3464566929133858
          },
          {
            "number": 2,
            "time": 147.17416601250014,
            "value": 0.33858267716535434
          },
          {
            "number": 2,
            "time": 147.24261842083348,
            "value": 0.33070866141732286
          },
          {
            "number": 2,
            "time": 147.31107082916682,
            "value": 0.3228346456692913
          },
          {
            "number": 2,
            "time": 147.37952323750017,
            "value": 0.31496062992125984
          },
          {
            "number": 2,
            "time": 147.4479756458335,
            "value": 0.30708661417322836
          },
          {
            "number": 2,
            "time": 147.51642805416685,
            "value": 0.2992125984251969
          },
          {
            "number": 2,
            "time": 147.5848804625002,
            "value": 0.29133858267716534
          },
          {
            "number": 2,
            "time": 147.65333287083354,
            "value": 0.28346456692913385
          },
          {
            "number": 2,
            "time": 147.72178527916688,
            "value": 0.2755905511811024
          },
          {
            "number": 2,
            "time": 147.79023768750022,
            "value": 0.2677165354330709
          },
          {
            "number": 2,
            "time": 147.85720200000023,
            "value": 0.25984251968503935
          },
          {
            "number": 2,
            "time": 150.00006000000022,
            "value": 0.25984251968503935
          },
          {
            "number": 2,
            "time": 152.1429180000002,
            "value": 0.25984251968503935
          }
        ],
        "7": [
          {
            "number": 7,
            "time": 0,
            "value": 0.7874015748031497
          },
          {
            "number": 7,
            "time": 0,
            "value": 0.7874015748031497
          },
          {
            "number": 7,
            "time": 0,
            "value": 0.7874015748031497
          }
        ],
        "10": [
          {
            "number": 10,
            "time": 0,
            "value": 0.5039370078740157
          },
          {
            "number": 10,
            "time": 0,
            "value": 0.5039370078740157
          },
          {
            "number": 10,
            "time": 0,
            "value": 0.5039370078740157
          }
        ],
        "91": [
          {
            "number": 91,
            "time": 0,
            "value": 0
          },
          {
            "number": 91,
            "time": 0,
            "value": 0
          },
          {
            "number": 91,
            "time": 0,
            "value": 0
          }
        ],
        "93": [
          {
            "number": 93,
            "time": 0,
            "value": 0
          },
          {
            "number": 93,
            "time": 0,
            "value": 0
          },
          {
            "number": 93,
            "time": 0,
            "value": 0
          }
        ],
        "121": [
          {
            "number": 121,
            "time": 0,
            "value": 0
          },
          {
            "number": 121,
            "time": 0,
            "value": 0
          },
          {
            "number": 121,
            "time": 0,
            "value": 0
          }
        ]
      },
      "id": 7,
      "name": "Violin",
      "instrumentNumber": 44,
      "instrument": "tremolo strings",
      "instrumentFamily": "strings",
      "channelNumber": 0,
      "isPercussion": false
    },
    {
      "startTime": 37.857158000000005,
      "duration": 92.03426300416669,
      "length": 6,
      "notes": [
        {
          "name": "B4",
          "midi": 71,
          "time": 37.857158000000005,
          "velocity": 0.6299212598425197,
          "duration": 0.33779775416666524
        },
        {
          "name": "G#4",
          "midi": 68,
          "time": 38.214301000000006,
          "velocity": 0.6299212598425197,
          "duration": 0.33779775416666524
        },
        {
          "name": "E4",
          "midi": 64,
          "time": 38.57144400000001,
          "velocity": 0.6299212598425197,
          "duration": 2.0342270041666666
        },
        {
          "name": "B4",
          "midi": 71,
          "time": 89.28575000000001,
          "velocity": 0.6299212598425197,
          "duration": 0.33779775416667235
        },
        {
          "name": "G#4",
          "midi": 68,
          "time": 89.64289300000002,
          "velocity": 0.6299212598425197,
          "duration": 0.33779775416667235
        },
        {
          "name": "E4",
          "midi": 64,
          "time": 90.00003600000002,
          "velocity": 0.6299212598425197,
          "duration": 2.0342270041666666
        }
      ],
      "controlChanges": {
        "7": [
          {
            "number": 7,
            "time": 0,
            "value": 0.7874015748031497
          }
        ],
        "10": [
          {
            "number": 10,
            "time": 0,
            "value": 0.5039370078740157
          }
        ],
        "91": [
          {
            "number": 91,
            "time": 0,
            "value": 0
          }
        ],
        "93": [
          {
            "number": 93,
            "time": 0,
            "value": 0
          }
        ],
        "121": [
          {
            "number": 121,
            "time": 0,
            "value": 0
          }
        ]
      },
      "id": 8,
      "name": "Piano",
      "instrumentNumber": 0,
      "instrument": "acoustic grand piano",
      "instrumentFamily": "piano",
      "channelNumber": 1,
      "isPercussion": false
    },
    {
      "startTime": 0,
      "duration": 0,
      "length": 0,
      "notes": [],
      "controlChanges": {},
      "id": 9,
      "name": "Piano"
    }
  ]
}