{
  "header": {
    "PPQ": 480,
    "timeSignature": [
      4,
      4
    ],
    "bpm": 76.00016213367923,
    "name": ""
  },
  "tempo": [
    {
      "absoluteTime": 0,
      "seconds": 0,
      "bpm": 76.00016213367923
    },
    {
      "absoluteTime": 57600,
      "seconds": 94.73664000000007,
      "bpm": 68.0000725334107
    },
    {
      "absoluteTime": 58559,
      "seconds": 96.31393926666675,
      "bpm": 136.0001450668214
    }
  ],
  "timeSignature": [
    {
      "absoluteTime": 0,
      "seconds": 0,
      "numerator": 4,
      "denominator": 2,
      "click": 24,
      "notesQ": 8
    },
    {
      "absoluteTime": 117120,
      "seconds": 192.63116800000205,
      "numerator": 2,
      "denominator": 2,
      "click": 24,
      "notesQ": 8
    },
    {
      "absoluteTime": 118080,
      "seconds": 194.21011200000183,
      "numerator": 4,
      "denominator": 2,
      "click": 24,
      "notesQ": 8
    },
    {
      "absoluteTime": 143040,
      "seconds": 235.2626560000017,
      "numerator": 2,
      "denominator": 2,
      "click": 24,
      "notesQ": 8
    },
    {
      "absoluteTime": 144000,
      "seconds": 236.84160000000173,
      "numerator": 4,
      "denominator": 2,
      "click": 24,
      "notesQ": 8
    }
  ],
  "startTime": 0,
  "duration": 237.62942726667984,
  "tracks": [
    {
      "startTime": 0,
      "duration": 237.62942726666873,
      "length": 310,
      "notes": [
        {
          "name": "G5",
          "midi": 79,
          "time": 0,
          "velocity": 0.25984251968503935,
          "duration": 6.314131266666666
        },
        {
          "name": "G5",
          "midi": 79,
          "time": 6.315776,
          "velocity": 0.25984251968503935,
          "duration": 3.1562432666666673
        },
        {
          "name": "E5",
          "midi": 76,
          "time": 9.473664,
          "velocity": 0.5039370078740157,
          "duration": 1.1825632666666657
        },
        {
          "name": "F5",
          "midi": 77,
          "time": 10.657871999999998,
          "velocity": 0.5039370078740157,
          "duration": 0.3930912666666675
        },
        {
          "name": "E5",
          "midi": 76,
          "time": 11.052607999999998,
          "velocity": 0.5039370078740157,
          "duration": 1.1825632666666674
        },
        {
          "name": "F5",
          "midi": 77,
          "time": 12.236815999999997,
          "velocity": 0.5039370078740157,
          "duration": 0.3930912666666675
        },
        {
          "name": "E5",
          "midi": 76,
          "time": 12.631551999999997,
          "velocity": 0.5039370078740157,
          "duration": 0.3930912666666675
        },
        {
          "name": "C5",
          "midi": 72,
          "time": 13.026287999999997,
          "velocity": 0.5039370078740157,
          "duration": 0.3930912666666675
        },
        {
          "name": "F5",
          "midi": 77,
          "time": 13.421023999999997,
          "velocity": 0.5039370078740157,
          "duration": 0.3930912666666675
        },
        {
          "name": "E5",
          "midi": 76,
          "time": 13.815759999999997,
          "velocity": 0.5039370078740157,
          "duration": 1.1825632666666657
        },
        {
          "name": "B4",
          "midi": 71,
          "time": 15.394703999999996,
          "velocity": 0.5039370078740157,
          "duration": 0.3930912666666675
        },
        {
          "name": "A4",
          "midi": 69,
          "time": 15.789439999999995,
          "velocity": 0.5039370078740157,
          "duration": 0.3930912666666657
        },
        {
          "name": "E5",
          "midi": 76,
          "time": 16.184175999999994,
          "velocity": 0.5039370078740157,
          "duration": 0.3930912666666657
        },
        {
          "name": "D5",
          "midi": 74,
          "time": 16.578911999999992,
          "velocity": 0.5039370078740157,
          "duration": 0.3930912666666657
        },
        {
          "name": "C5",
          "midi": 72,
          "time": 16.97364799999999,
          "velocity": 0.5039370078740157,
          "duration": 0.3930912666666657
        },
        {
          "name": "D5",
          "midi": 74,
          "time": 17.36838399999999,
          "velocity": 0.5039370078740157,
          "duration": 0.7878272666666675
        },
        {
          "name": "G5",
          "midi": 79,
          "time": 18.15785599999999,
          "velocity": 0.5039370078740157,
          "duration": 0.7878272666666675
        },
        {
          "name": "E5",
          "midi": 76,
          "time": 18.947327999999988,
          "velocity": 0.5039370078740157,
          "duration": 0.7878272666666675
        },
        {
          "name": "F5",
          "midi": 77,
          "time": 19.736799999999988,
          "velocity": 0.5039370078740157,
          "duration": 0.7878272666666675
        },
        {
          "name": "E5",
          "midi": 76,
          "time": 20.526271999999988,
          "velocity": 0.5039370078740157,
          "duration": 1.5772992666666674
        },
        {
          "name": "E5",
          "midi": 76,
          "time": 22.105215999999988,
          "velocity": 0.5039370078740157,
          "duration": 1.1825632666666657
        },
        {
          "name": "F5",
          "midi": 77,
          "time": 23.289423999999986,
          "velocity": 0.5039370078740157,
          "duration": 0.3930912666666657
        },
        {
          "name": "E5",
          "midi": 76,
          "time": 23.684159999999984,
          "velocity": 0.5039370078740157,
          "duration": 1.1825632666666657
        },
        {
          "name": "F5",
          "midi": 77,
          "time": 24.868367999999982,
          "velocity": 0.5039370078740157,
          "duration": 0.3930912666666657
        },
        {
          "name": "E5",
          "midi": 76,
          "time": 25.26310399999998,
          "velocity": 0.5039370078740157,
          "duration": 0.7878272666666675
        },
        {
          "name": "B5",
          "midi": 83,
          "time": 26.05257599999998,
          "velocity": 0.5039370078740157,
          "duration": 0.3930912666666657
        },
        {
          "name": "A5",
          "midi": 81,
          "time": 26.44731199999998,
          "velocity": 0.5039370078740157,
          "duration": 1.5772992666666639
        },
        {
          "name": "E5",
          "midi": 76,
          "time": 28.026255999999975,
          "velocity": 0.5039370078740157,
          "duration": 0.3930912666666657
        },
        {
          "name": "D#5",
          "midi": 75,
          "time": 28.420991999999973,
          "velocity": 0.5039370078740157,
          "duration": 0.39309126666666927
        },
        {
          "name": "A5",
          "midi": 81,
          "time": 28.815727999999975,
          "velocity": 0.5196850393700787,
          "duration": 0.39309126666666927
        },
        {
          "name": "G5",
          "midi": 79,
          "time": 29.210463999999977,
          "velocity": 0.5433070866141733,
          "duration": 0.3930912666666657
        },
        {
          "name": "A5",
          "midi": 81,
          "time": 29.605199999999975,
          "velocity": 0.5669291338582677,
          "duration": 0.39309126666666927
        },
        {
          "name": "B5",
          "midi": 83,
          "time": 29.999935999999977,
          "velocity": 0.5826771653543307,
          "duration": 0.787827266666671
        },
        {
          "name": "G5",
          "midi": 79,
          "time": 30.78940799999998,
          "velocity": 0.6299212598425197,
          "duration": 0.7878272666666675
        },
        {
          "name": "A5",
          "midi": 81,
          "time": 31.57887999999998,
          "velocity": 0.6299212598425197,
          "duration": 0.5904592666666666
        },
        {
          "name": "G5",
          "midi": 79,
          "time": 32.17098399999998,
          "velocity": 0.6299212598425197,
          "duration": 0.1957232666666684
        },
        {
          "name": "A5",
          "midi": 81,
          "time": 32.36835199999999,
          "velocity": 0.6299212598425197,
          "duration": 2.3667712666666674
        },
        {
          "name": "A4",
          "midi": 69,
          "time": 34.73676799999999,
          "velocity": 0.6299212598425197,
          "duration": 6.314131266666621
        },
        {
          "name": "F4",
          "midi": 65,
          "time": 41.05254399999995,
          "velocity": 0.5039370078740157,
          "duration": 3.1562432666666638
        },
        {
          "name": "A4",
          "midi": 69,
          "time": 44.21043199999995,
          "velocity": 0.5039370078740157,
          "duration": 3.1562432666666638
        },
        {
          "name": "A5",
          "midi": 81,
          "time": 50.52620799999995,
          "velocity": 0.7559055118110236,
          "duration": 1.1825632666666692
        },
        {
          "name": "G5",
          "midi": 79,
          "time": 51.71041599999995,
          "velocity": 0.7559055118110236,
          "duration": 0.3930912666666657
        },
        {
          "name": "A5",
          "midi": 81,
          "time": 52.105151999999954,
          "velocity": 0.7559055118110236,
          "duration": 1.1825632666666692
        },
        {
          "name": "G5",
          "midi": 79,
          "time": 53.28935999999996,
          "velocity": 0.7559055118110236,
          "duration": 0.12993393333333358
        },
        {
          "name": "A5",
          "midi": 81,
          "time": 53.42093866666663,
          "velocity": 0.7559055118110236,
          "duration": 0.12993393333333358
        },
        {
          "name": "G5",
          "midi": 79,
          "time": 53.5525173333333,
          "velocity": 0.7559055118110236,
          "duration": 0.12993393333333358
        },
        {
          "name": "E5",
          "midi": 76,
          "time": 53.68409599999997,
          "velocity": 0.7559055118110236,
          "duration": 6.314131266666621
        },
        {
          "name": "E4",
          "midi": 64,
          "time": 59.999871999999925,
          "velocity": 0.5039370078740157,
          "duration": 0.3930912666666657
        },
        {
          "name": "A4",
          "midi": 69,
          "time": 60.39460799999993,
          "velocity": 0.5039370078740157,
          "duration": 0.3930912666666657
        },
        {
          "name": "C5",
          "midi": 72,
          "time": 60.78934399999993,
          "velocity": 0.5039370078740157,
          "duration": 0.3930912666666657
        },
        {
          "name": "E5",
          "midi": 76,
          "time": 61.18407999999993,
          "velocity": 0.5039370078740157,
          "duration": 0.3930912666666657
        },
        {
          "name": "B3",
          "midi": 59,
          "time": 61.57881599999993,
          "velocity": 0.5039370078740157,
          "duration": 0.3930912666666657
        },
        {
          "name": "E4",
          "midi": 64,
          "time": 61.973551999999934,
          "velocity": 0.5039370078740157,
          "duration": 0.3930912666666657
        },
        {
          "name": "G#4",
          "midi": 68,
          "time": 62.368287999999936,
          "velocity": 0.5039370078740157,
          "duration": 0.3930912666666657
        },
        {
          "name": "B4",
          "midi": 71,
          "time": 62.76302399999994,
          "velocity": 0.5039370078740157,
          "duration": 0.3930912666666657
        },
        {
          "name": "B3",
          "midi": 59,
          "time": 63.15775999999994,
          "velocity": 0.5039370078740157,
          "duration": 0.3930912666666657
        },
        {
          "name": "E4",
          "midi": 64,
          "time": 63.55249599999994,
          "velocity": 0.5039370078740157,
          "duration": 0.3930912666666657
        },
        {
          "name": "G4",
          "midi": 67,
          "time": 63.94723199999994,
          "velocity": 0.5039370078740157,
          "duration": 0.3930912666666728
        },
        {
          "name": "A4",
          "midi": 69,
          "time": 64.34196799999995,
          "velocity": 0.5039370078740157,
          "duration": 0.3930912666666728
        },
        {
          "name": "C5",
          "midi": 72,
          "time": 64.73670399999996,
          "velocity": 0.5039370078740157,
          "duration": 0.3930912666666728
        },
        {
          "name": "A4",
          "midi": 69,
          "time": 65.13143999999997,
          "velocity": 0.5039370078740157,
          "duration": 0.3930912666666728
        },
        {
          "name": "E4",
          "midi": 64,
          "time": 65.52617599999998,
          "velocity": 0.5039370078740157,
          "duration": 0.7878272666666675
        },
        {
          "name": "C5",
          "midi": 72,
          "time": 66.31564799999998,
          "velocity": 0.5039370078740157,
          "duration": 1.577299266666671
        },
        {
          "name": "F4",
          "midi": 65,
          "time": 67.89459199999999,
          "velocity": 0.5039370078740157,
          "duration": 1.577299266666671
        },
        {
          "name": "B4",
          "midi": 71,
          "time": 69.473536,
          "velocity": 0.5039370078740157,
          "duration": 0.7878272666666675
        },
        {
          "name": "C5",
          "midi": 72,
          "time": 70.263008,
          "velocity": 0.5039370078740157,
          "duration": 0.7878272666666675
        },
        {
          "name": "B4",
          "midi": 71,
          "time": 71.05248,
          "velocity": 0.5039370078740157,
          "duration": 0.1957232666666613
        },
        {
          "name": "E5",
          "midi": 76,
          "time": 71.249848,
          "velocity": 0.5196850393700787,
          "duration": 0.1957232666666613
        },
        {
          "name": "D5",
          "midi": 74,
          "time": 71.447216,
          "velocity": 0.5354330708661418,
          "duration": 0.1957232666666755
        },
        {
          "name": "C5",
          "midi": 72,
          "time": 71.64458400000001,
          "velocity": 0.5511811023622047,
          "duration": 0.1957232666666613
        },
        {
          "name": "B4",
          "midi": 71,
          "time": 71.841952,
          "velocity": 0.5748031496062992,
          "duration": 0.1957232666666613
        },
        {
          "name": "A4",
          "midi": 69,
          "time": 72.03932,
          "velocity": 0.5905511811023622,
          "duration": 0.1957232666666613
        },
        {
          "name": "G5",
          "midi": 79,
          "time": 72.236688,
          "velocity": 0.6062992125984252,
          "duration": 0.1957232666666613
        },
        {
          "name": "F5",
          "midi": 77,
          "time": 72.434056,
          "velocity": 0.6299212598425197,
          "duration": 0.1957232666666613
        },
        {
          "name": "E5",
          "midi": 76,
          "time": 72.631424,
          "velocity": 0.6299212598425197,
          "duration": 1.1825632666666621
        },
        {
          "name": "F5",
          "midi": 77,
          "time": 73.815632,
          "velocity": 0.6299212598425197,
          "duration": 0.3930912666666728
        },
        {
          "name": "E5",
          "midi": 76,
          "time": 74.210368,
          "velocity": 0.6299212598425197,
          "duration": 1.1825632666666621
        },
        {
          "name": "F5",
          "midi": 77,
          "time": 75.394576,
          "velocity": 0.6299212598425197,
          "duration": 0.3930912666666728
        },
        {
          "name": "E5",
          "midi": 76,
          "time": 75.78931200000001,
          "velocity": 0.6299212598425197,
          "duration": 0.7878272666666675
        },
        {
          "name": "B5",
          "midi": 83,
          "time": 76.57878400000001,
          "velocity": 0.6299212598425197,
          "duration": 0.3930912666666728
        },
        {
          "name": "A5",
          "midi": 81,
          "time": 76.97352000000002,
          "velocity": 0.6299212598425197,
          "duration": 1.1825632666666621
        },
        {
          "name": "E5",
          "midi": 76,
          "time": 78.15772800000002,
          "velocity": 0.6299212598425197,
          "duration": 0.062499866666669845
        },
        {
          "name": "A5",
          "midi": 81,
          "time": 78.22187260000003,
          "velocity": 0.6299212598425197,
          "duration": 0.062499866666669845
        },
        {
          "name": "E6",
          "midi": 88,
          "time": 78.28601720000003,
          "velocity": 0.6299212598425197,
          "duration": 0.7878272666666675
        },
        {
          "name": "D#6",
          "midi": 87,
          "time": 78.94720000000004,
          "velocity": 0.5039370078740157,
          "duration": 1.5772992666666568
        },
        {
          "name": "D6",
          "midi": 86,
          "time": 80.52614400000003,
          "velocity": 0.5039370078740157,
          "duration": 1.577299266666671
        },
        {
          "name": "A5",
          "midi": 81,
          "time": 82.10508800000004,
          "velocity": 0.5039370078740157,
          "duration": 3.1562432666666638
        },
        {
          "name": "A4",
          "midi": 69,
          "time": 85.26297600000004,
          "velocity": 0.5039370078740157,
          "duration": 3.1562432666666638
        },
        {
          "name": "C5",
          "midi": 72,
          "time": 88.42086400000004,
          "velocity": 0.5039370078740157,
          "duration": 7.893075266666713
        },
        {
          "name": "C4",
          "midi": 60,
          "time": 96.31558400000009,
          "velocity": 0.6299212598425197,
          "duration": 0.1957232666666613
        },
        {
          "name": "D4",
          "midi": 62,
          "time": 96.51295200000008,
          "velocity": 0.6456692913385826,
          "duration": 0.1957232666666613
        },
        {
          "name": "E4",
          "midi": 64,
          "time": 96.71032000000008,
          "velocity": 0.6614173228346457,
          "duration": 0.1957232666666755
        },
        {
          "name": "F4",
          "midi": 65,
          "time": 96.90768800000009,
          "velocity": 0.6771653543307087,
          "duration": 0.1957232666666613
        },
        {
          "name": "G4",
          "midi": 67,
          "time": 97.10505600000009,
          "velocity": 0.7007874015748031,
          "duration": 0.1957232666666613
        },
        {
          "name": "A4",
          "midi": 69,
          "time": 97.30242400000009,
          "velocity": 0.7165354330708661,
          "duration": 0.1957232666666613
        },
        {
          "name": "A#4",
          "midi": 70,
          "time": 97.49979200000008,
          "velocity": 0.7322834645669292,
          "duration": 0.1957232666666613
        },
        {
          "name": "C5",
          "midi": 72,
          "time": 97.69716000000008,
          "velocity": 0.7559055118110236,
          "duration": 0.1957232666666613
        },
        {
          "name": "E5",
          "midi": 76,
          "time": 98.28926400000007,
          "velocity": 0.7559055118110236,
          "duration": 0.3930912666666728
        },
        {
          "name": "D5",
          "midi": 74,
          "time": 98.68400000000008,
          "velocity": 0.7559055118110236,
          "duration": 0.3930912666666728
        },
        {
          "name": "C5",
          "midi": 72,
          "time": 99.07873600000009,
          "velocity": 0.7559055118110236,
          "duration": 0.3930912666666728
        },
        {
          "name": "D5",
          "midi": 74,
          "time": 99.4734720000001,
          "velocity": 0.7559055118110236,
          "duration": 0.7878272666666675
        },
        {
          "name": "G5",
          "midi": 79,
          "time": 100.2629440000001,
          "velocity": 0.7559055118110236,
          "duration": 0.7878272666666675
        },
        {
          "name": "E5",
          "midi": 76,
          "time": 101.05241600000011,
          "velocity": 0.7559055118110236,
          "duration": 4.735187266666671
        },
        {
          "name": "C6",
          "midi": 84,
          "time": 105.78924800000011,
          "velocity": 0.7559055118110236,
          "duration": 0.1957232666666613
        },
        {
          "name": "B5",
          "midi": 83,
          "time": 105.98661600000011,
          "velocity": 0.7559055118110236,
          "duration": 0.1957232666666613
        },
        {
          "name": "A5",
          "midi": 81,
          "time": 106.18398400000011,
          "velocity": 0.7559055118110236,
          "duration": 0.1957232666666613
        },
        {
          "name": "F5",
          "midi": 77,
          "time": 106.3813520000001,
          "velocity": 0.7559055118110236,
          "duration": 0.1957232666666613
        },
        {
          "name": "E5",
          "midi": 76,
          "time": 106.5787200000001,
          "velocity": 0.7559055118110236,
          "duration": 0.1957232666666613
        },
        {
          "name": "C5",
          "midi": 72,
          "time": 106.7760880000001,
          "velocity": 0.7559055118110236,
          "duration": 0.1957232666666613
        },
        {
          "name": "B4",
          "midi": 71,
          "time": 106.9734560000001,
          "velocity": 0.7559055118110236,
          "duration": 0.1957232666666613
        },
        {
          "name": "A4",
          "midi": 69,
          "time": 107.1708240000001,
          "velocity": 0.7559055118110236,
          "duration": 0.1957232666666613
        },
        {
          "name": "E5",
          "midi": 76,
          "time": 107.76292800000009,
          "velocity": 0.7559055118110236,
          "duration": 0.3930912666666728
        },
        {
          "name": "D5",
          "midi": 74,
          "time": 108.1576640000001,
          "velocity": 0.7559055118110236,
          "duration": 0.3930912666666728
        },
        {
          "name": "C5",
          "midi": 72,
          "time": 108.5524000000001,
          "velocity": 0.7559055118110236,
          "duration": 0.3930912666666728
        },
        {
          "name": "D5",
          "midi": 74,
          "time": 108.94713600000011,
          "velocity": 0.7559055118110236,
          "duration": 0.7878272666666675
        },
        {
          "name": "B5",
          "midi": 83,
          "time": 109.73660800000012,
          "velocity": 0.7559055118110236,
          "duration": 0.7878272666666675
        },
        {
          "name": "D5",
          "midi": 74,
          "time": 110.52608000000012,
          "velocity": 0.7559055118110236,
          "duration": 3.1562432666666638
        },
        {
          "name": "A5",
          "midi": 81,
          "time": 110.52608000000012,
          "velocity": 0.7559055118110236,
          "duration": 3.1562432666666638
        },
        {
          "name": "E5",
          "midi": 76,
          "time": 116.05238400000012,
          "velocity": 0.5039370078740157,
          "duration": 0.3930912666666728
        },
        {
          "name": "A5",
          "midi": 81,
          "time": 116.44712000000013,
          "velocity": 0.5039370078740157,
          "duration": 0.3930912666666728
        },
        {
          "name": "B5",
          "midi": 83,
          "time": 116.84185600000013,
          "velocity": 0.5039370078740157,
          "duration": 1.1825632666666621
        },
        {
          "name": "C6",
          "midi": 84,
          "time": 118.02606400000013,
          "velocity": 0.5039370078740157,
          "duration": 0.3930912666666728
        },
        {
          "name": "B5",
          "midi": 83,
          "time": 118.42080000000014,
          "velocity": 0.5039370078740157,
          "duration": 1.1825632666666621
        },
        {
          "name": "C6",
          "midi": 84,
          "time": 119.60500800000014,
          "velocity": 0.5039370078740157,
          "duration": 0.3930912666666728
        },
        {
          "name": "B5",
          "midi": 83,
          "time": 119.99974400000015,
          "velocity": 0.5039370078740157,
          "duration": 1.1825632666666621
        },
        {
          "name": "C5",
          "midi": 72,
          "time": 121.18395200000015,
          "velocity": 0.5039370078740157,
          "duration": 0.19572326666664708
        },
        {
          "name": "D5",
          "midi": 74,
          "time": 121.38132000000013,
          "velocity": 0.5354330708661418,
          "duration": 0.19572326666664708
        },
        {
          "name": "E5",
          "midi": 76,
          "time": 121.57868800000011,
          "velocity": 0.5669291338582677,
          "duration": 0.5904592666666133
        },
        {
          "name": "C5",
          "midi": 72,
          "time": 122.17079200000006,
          "velocity": 0.6614173228346457,
          "duration": 0.5904592666666133
        },
        {
          "name": "B5",
          "midi": 83,
          "time": 122.76289600000001,
          "velocity": 0.7559055118110236,
          "duration": 0.3930912666666728
        },
        {
          "name": "A5",
          "midi": 81,
          "time": 123.15763200000002,
          "velocity": 0.7559055118110236,
          "duration": 0.7878272666666675
        },
        {
          "name": "A4",
          "midi": 69,
          "time": 123.94710400000002,
          "velocity": 0.7559055118110236,
          "duration": 0.1957232666666613
        },
        {
          "name": "B4",
          "midi": 71,
          "time": 124.14447200000002,
          "velocity": 0.7559055118110236,
          "duration": 0.1957232666666613
        },
        {
          "name": "C5",
          "midi": 72,
          "time": 124.34184000000002,
          "velocity": 0.7559055118110236,
          "duration": 0.1957232666666613
        },
        {
          "name": "D5",
          "midi": 74,
          "time": 124.53920800000002,
          "velocity": 0.7559055118110236,
          "duration": 0.1957232666666613
        },
        {
          "name": "E5",
          "midi": 76,
          "time": 124.73657600000001,
          "velocity": 0.7559055118110236,
          "duration": 1.1825632666666621
        },
        {
          "name": "A5",
          "midi": 81,
          "time": 125.92078400000001,
          "velocity": 0.7559055118110236,
          "duration": 0.3930912666666728
        },
        {
          "name": "G#5",
          "midi": 80,
          "time": 126.31552000000002,
          "velocity": 1,
          "duration": 1.5772992666669836
        },
        {
          "name": "E5",
          "midi": 76,
          "time": 127.89446400000034,
          "velocity": 1,
          "duration": 1.5772992666669836
        },
        {
          "name": "C6",
          "midi": 84,
          "time": 129.47340800000066,
          "velocity": 0.7559055118110236,
          "duration": 1.1825632666666763
        },
        {
          "name": "D6",
          "midi": 86,
          "time": 130.65761600000067,
          "velocity": 0.7559055118110236,
          "duration": 0.1957232666666755
        },
        {
          "name": "C6",
          "midi": 84,
          "time": 130.85498400000068,
          "velocity": 0.7559055118110236,
          "duration": 0.1957232666666755
        },
        {
          "name": "B5",
          "midi": 83,
          "time": 131.0523520000007,
          "velocity": 0.7559055118110236,
          "duration": 1.577299266666671
        },
        {
          "name": "A5",
          "midi": 81,
          "time": 132.6312960000007,
          "velocity": 0.9448818897637795,
          "duration": 0.3930912666669997
        },
        {
          "name": "B4",
          "midi": 71,
          "time": 133.02603200000104,
          "velocity": 0.6299212598425197,
          "duration": 0.1957232666666755
        },
        {
          "name": "C5",
          "midi": 72,
          "time": 133.42076800000103,
          "velocity": 0.6299212598425197,
          "duration": 0.1957232666666755
        },
        {
          "name": "D5",
          "midi": 74,
          "time": 133.81550400000103,
          "velocity": 0.6299212598425197,
          "duration": 0.1957232666666755
        },
        {
          "name": "A4",
          "midi": 69,
          "time": 134.21024000000102,
          "velocity": 0.6299212598425197,
          "duration": 0.1957232666666755
        },
        {
          "name": "B4",
          "midi": 71,
          "time": 134.60497600000102,
          "velocity": 0.6299212598425197,
          "duration": 0.1957232666666755
        },
        {
          "name": "C5",
          "midi": 72,
          "time": 134.999712000001,
          "velocity": 0.6299212598425197,
          "duration": 0.1957232666666755
        },
        {
          "name": "D5",
          "midi": 74,
          "time": 135.394448000001,
          "velocity": 0.6299212598425197,
          "duration": 0.1957232666666755
        },
        {
          "name": "A4",
          "midi": 69,
          "time": 135.789184000001,
          "velocity": 0.6299212598425197,
          "duration": 0.1957232666666755
        },
        {
          "name": "B4",
          "midi": 71,
          "time": 136.183920000001,
          "velocity": 0.6299212598425197,
          "duration": 0.1957232666666755
        },
        {
          "name": "C5",
          "midi": 72,
          "time": 136.578656000001,
          "velocity": 0.6299212598425197,
          "duration": 0.1957232666666755
        },
        {
          "name": "D5",
          "midi": 74,
          "time": 136.97339200000098,
          "velocity": 0.6299212598425197,
          "duration": 0.1957232666666755
        },
        {
          "name": "A4",
          "midi": 69,
          "time": 137.36812800000098,
          "velocity": 0.6299212598425197,
          "duration": 0.1957232666666755
        },
        {
          "name": "B4",
          "midi": 71,
          "time": 137.76286400000097,
          "velocity": 0.6299212598425197,
          "duration": 0.1957232666666755
        },
        {
          "name": "C5",
          "midi": 72,
          "time": 138.15760000000097,
          "velocity": 0.6299212598425197,
          "duration": 0.1957232666666755
        },
        {
          "name": "D5",
          "midi": 74,
          "time": 138.55233600000096,
          "velocity": 0.6299212598425197,
          "duration": 0.1957232666666755
        },
        {
          "name": "A4",
          "midi": 69,
          "time": 167.36806400000097,
          "velocity": 0.6299212598425197,
          "duration": 0.1957232666666755
        },
        {
          "name": "B4",
          "midi": 71,
          "time": 167.76280000000096,
          "velocity": 0.6299212598425197,
          "duration": 0.1957232666666755
        },
        {
          "name": "C5",
          "midi": 72,
          "time": 168.15753600000096,
          "velocity": 0.6299212598425197,
          "duration": 0.1957232666666755
        },
        {
          "name": "D5",
          "midi": 74,
          "time": 168.55227200000095,
          "velocity": 0.6299212598425197,
          "duration": 0.1957232666666755
        },
        {
          "name": "A4",
          "midi": 69,
          "time": 168.94700800000095,
          "velocity": 0.6299212598425197,
          "duration": 0.1957232666666755
        },
        {
          "name": "B4",
          "midi": 71,
          "time": 169.34174400000094,
          "velocity": 0.6299212598425197,
          "duration": 0.1957232666666755
        },
        {
          "name": "C5",
          "midi": 72,
          "time": 169.73648000000094,
          "velocity": 0.6299212598425197,
          "duration": 0.1957232666666755
        },
        {
          "name": "D5",
          "midi": 74,
          "time": 170.13121600000093,
          "velocity": 0.6299212598425197,
          "duration": 0.1957232666666755
        },
        {
          "name": "A4",
          "midi": 69,
          "time": 170.52595200000093,
          "velocity": 0.6299212598425197,
          "duration": 0.1957232666666755
        },
        {
          "name": "B4",
          "midi": 71,
          "time": 170.92068800000092,
          "velocity": 0.6299212598425197,
          "duration": 0.1957232666666755
        },
        {
          "name": "C5",
          "midi": 72,
          "time": 171.31542400000092,
          "velocity": 0.6299212598425197,
          "duration": 0.1957232666666755
        },
        {
          "name": "D5",
          "midi": 74,
          "time": 171.7101600000009,
          "velocity": 0.6299212598425197,
          "duration": 0.1957232666666755
        },
        {
          "name": "A4",
          "midi": 69,
          "time": 172.1048960000009,
          "velocity": 0.6299212598425197,
          "duration": 0.1957232666666755
        },
        {
          "name": "B4",
          "midi": 71,
          "time": 172.4996320000009,
          "velocity": 0.6299212598425197,
          "duration": 0.1957232666666755
        },
        {
          "name": "C5",
          "midi": 72,
          "time": 172.8943680000009,
          "velocity": 0.6299212598425197,
          "duration": 0.1957232666666755
        },
        {
          "name": "D5",
          "midi": 74,
          "time": 173.2891040000009,
          "velocity": 0.6299212598425197,
          "duration": 0.1957232666666755
        },
        {
          "name": "C5",
          "midi": 72,
          "time": 173.68384000000088,
          "velocity": 0.6299212598425197,
          "duration": 0.1957232666666755
        },
        {
          "name": "D5",
          "midi": 74,
          "time": 174.07857600000088,
          "velocity": 0.6299212598425197,
          "duration": 0.1957232666666755
        },
        {
          "name": "E5",
          "midi": 76,
          "time": 174.47331200000087,
          "velocity": 0.6299212598425197,
          "duration": 0.1957232666666755
        },
        {
          "name": "F5",
          "midi": 77,
          "time": 174.86804800000087,
          "velocity": 0.6299212598425197,
          "duration": 0.1957232666666755
        },
        {
          "name": "C5",
          "midi": 72,
          "time": 175.26278400000086,
          "velocity": 0.6299212598425197,
          "duration": 0.1957232666666755
        },
        {
          "name": "D5",
          "midi": 74,
          "time": 175.65752000000086,
          "velocity": 0.6299212598425197,
          "duration": 0.1957232666666755
        },
        {
          "name": "E5",
          "midi": 76,
          "time": 176.05225600000085,
          "velocity": 0.6299212598425197,
          "duration": 0.1957232666666755
        },
        {
          "name": "F5",
          "midi": 77,
          "time": 176.44699200000085,
          "velocity": 0.6299212598425197,
          "duration": 0.1957232666666755
        },
        {
          "name": "A5",
          "midi": 81,
          "time": 176.84172800000084,
          "velocity": 0.6299212598425197,
          "duration": 0.1957232666666755
        },
        {
          "name": "E5",
          "midi": 76,
          "time": 177.23646400000084,
          "velocity": 0.6299212598425197,
          "duration": 0.1957232666666755
        },
        {
          "name": "A5",
          "midi": 81,
          "time": 177.63120000000083,
          "velocity": 0.6299212598425197,
          "duration": 0.1957232666666755
        },
        {
          "name": "E5",
          "midi": 76,
          "time": 178.02593600000083,
          "velocity": 0.6299212598425197,
          "duration": 0.1957232666666755
        },
        {
          "name": "B5",
          "midi": 83,
          "time": 178.42067200000082,
          "velocity": 0.6299212598425197,
          "duration": 0.1957232666666755
        },
        {
          "name": "E5",
          "midi": 76,
          "time": 178.81540800000082,
          "velocity": 0.6299212598425197,
          "duration": 0.1957232666666755
        },
        {
          "name": "B5",
          "midi": 83,
          "time": 179.2101440000008,
          "velocity": 0.6299212598425197,
          "duration": 0.1957232666666755
        },
        {
          "name": "E5",
          "midi": 76,
          "time": 179.6048800000008,
          "velocity": 0.6299212598425197,
          "duration": 0.1957232666666755
        },
        {
          "name": "C6",
          "midi": 84,
          "time": 179.9996160000008,
          "velocity": 0.6299212598425197,
          "duration": 0.1957232666666755
        },
        {
          "name": "B5",
          "midi": 83,
          "time": 180.3943520000008,
          "velocity": 0.6299212598425197,
          "duration": 0.1957232666666755
        },
        {
          "name": "A5",
          "midi": 81,
          "time": 180.7890880000008,
          "velocity": 0.6377952755905512,
          "duration": 0.1957232666666755
        },
        {
          "name": "E5",
          "midi": 76,
          "time": 181.18382400000078,
          "velocity": 0.6456692913385826,
          "duration": 0.1957232666666755
        },
        {
          "name": "C6",
          "midi": 84,
          "time": 181.57856000000078,
          "velocity": 0.6456692913385826,
          "duration": 0.1957232666666755
        },
        {
          "name": "B5",
          "midi": 83,
          "time": 181.97329600000077,
          "velocity": 0.6535433070866141,
          "duration": 0.1957232666666755
        },
        {
          "name": "A5",
          "midi": 81,
          "time": 182.36803200000077,
          "velocity": 0.6614173228346457,
          "duration": 0.1957232666666755
        },
        {
          "name": "E5",
          "midi": 76,
          "time": 182.76276800000076,
          "velocity": 0.6614173228346457,
          "duration": 0.1957232666666755
        },
        {
          "name": "C6",
          "midi": 84,
          "time": 183.15750400000076,
          "velocity": 0.6692913385826772,
          "duration": 0.1957232666666755
        },
        {
          "name": "B5",
          "midi": 83,
          "time": 183.55224000000075,
          "velocity": 0.6771653543307087,
          "duration": 0.1957232666666755
        },
        {
          "name": "A5",
          "midi": 81,
          "time": 183.94697600000075,
          "velocity": 0.6771653543307087,
          "duration": 0.1957232666666755
        },
        {
          "name": "E5",
          "midi": 76,
          "time": 184.34171200000074,
          "velocity": 0.6850393700787402,
          "duration": 0.1957232666666755
        },
        {
          "name": "C6",
          "midi": 84,
          "time": 184.73644800000076,
          "velocity": 0.6929133858267716,
          "duration": 0.1957232666666755
        },
        {
          "name": "B5",
          "midi": 83,
          "time": 185.1311840000008,
          "velocity": 0.7007874015748031,
          "duration": 0.1957232666666755
        },
        {
          "name": "A5",
          "midi": 81,
          "time": 185.52592000000078,
          "velocity": 0.7007874015748031,
          "duration": 0.19572326666664708
        },
        {
          "name": "E5",
          "midi": 76,
          "time": 185.92065600000075,
          "velocity": 0.7086614173228346,
          "duration": 0.1957232666666755
        },
        {
          "name": "C6",
          "midi": 84,
          "time": 186.31539200000077,
          "velocity": 0.7165354330708661,
          "duration": 0.1957232666666755
        },
        {
          "name": "B5",
          "midi": 83,
          "time": 186.71012800000076,
          "velocity": 0.7165354330708661,
          "duration": 0.19572326666664708
        },
        {
          "name": "A5",
          "midi": 81,
          "time": 187.10486400000073,
          "velocity": 0.7244094488188977,
          "duration": 0.1957232666666755
        },
        {
          "name": "E5",
          "midi": 76,
          "time": 187.49960000000075,
          "velocity": 0.7322834645669292,
          "duration": 0.1957232666666755
        },
        {
          "name": "C6",
          "midi": 84,
          "time": 187.89433600000075,
          "velocity": 0.7322834645669292,
          "duration": 0.1957232666666755
        },
        {
          "name": "B5",
          "midi": 83,
          "time": 188.28907200000074,
          "velocity": 0.7401574803149606,
          "duration": 0.1957232666666755
        },
        {
          "name": "A5",
          "midi": 81,
          "time": 188.68380800000074,
          "velocity": 0.7480314960629921,
          "duration": 0.1957232666666755
        },
        {
          "name": "E5",
          "midi": 76,
          "time": 189.07854400000073,
          "velocity": 0.7559055118110236,
          "duration": 0.1957232666666755
        },
        {
          "name": "E5",
          "midi": 76,
          "time": 189.47328000000073,
          "velocity": 1,
          "duration": 0.7878272666669943
        },
        {
          "name": "A5",
          "midi": 81,
          "time": 190.26275200000106,
          "velocity": 1,
          "duration": 0.7878272666669943
        },
        {
          "name": "G#5",
          "midi": 80,
          "time": 191.0522240000014,
          "velocity": 1,
          "duration": 0.26151260000031584
        },
        {
          "name": "G#5",
          "midi": 80,
          "time": 191.31538133333504,
          "velocity": 0.7559055118110236,
          "duration": 0.2615126000000032
        },
        {
          "name": "G#5",
          "midi": 80,
          "time": 191.57853866666838,
          "velocity": 0.7559055118110236,
          "duration": 0.2615126000000032
        },
        {
          "name": "B5",
          "midi": 83,
          "time": 191.84169600000172,
          "velocity": 1,
          "duration": 0.26151260000031584
        },
        {
          "name": "B5",
          "midi": 83,
          "time": 192.10485333333537,
          "velocity": 0.7559055118110236,
          "duration": 0.2615126000000032
        },
        {
          "name": "B5",
          "midi": 83,
          "time": 192.3680106666687,
          "velocity": 0.7559055118110236,
          "duration": 0.2615126000000032
        },
        {
          "name": "E6",
          "midi": 88,
          "time": 192.63116800000205,
          "velocity": 0.7559055118110236,
          "duration": 0.1562496666666391
        },
        {
          "name": "D6",
          "midi": 86,
          "time": 192.78906240000202,
          "velocity": 0.7322834645669292,
          "duration": 0.1562496666666391
        },
        {
          "name": "C6",
          "midi": 84,
          "time": 192.946956800002,
          "velocity": 0.7007874015748031,
          "duration": 0.1562496666666391
        },
        {
          "name": "B5",
          "midi": 83,
          "time": 193.10485120000197,
          "velocity": 0.6771653543307087,
          "duration": 0.1562496666666391
        },
        {
          "name": "A5",
          "midi": 81,
          "time": 193.26274560000195,
          "velocity": 0.6456692913385826,
          "duration": 0.1562496666666391
        },
        {
          "name": "G5",
          "midi": 79,
          "time": 193.42064000000192,
          "velocity": 0.6220472440944882,
          "duration": 0.15624966666661066
        },
        {
          "name": "F5",
          "midi": 77,
          "time": 193.57853440000187,
          "velocity": 0.5905511811023622,
          "duration": 0.1562496666666391
        },
        {
          "name": "E5",
          "midi": 76,
          "time": 193.73642880000185,
          "velocity": 0.5669291338582677,
          "duration": 0.1562496666666391
        },
        {
          "name": "D5",
          "midi": 74,
          "time": 193.89432320000182,
          "velocity": 0.5354330708661418,
          "duration": 0.1562496666666675
        },
        {
          "name": "C5",
          "midi": 72,
          "time": 194.05221760000182,
          "velocity": 0.5039370078740157,
          "duration": 0.1562496666666675
        },
        {
          "name": "G5",
          "midi": 79,
          "time": 194.99958400000182,
          "velocity": 0.5039370078740157,
          "duration": 3.1562432666666496
        },
        {
          "name": "E5",
          "midi": 76,
          "time": 198.1574720000018,
          "velocity": 0.5039370078740157,
          "duration": 0.7878272666666533
        },
        {
          "name": "D5",
          "midi": 74,
          "time": 198.9469440000018,
          "velocity": 0.5039370078740157,
          "duration": 0.7878272666666533
        },
        {
          "name": "G5",
          "midi": 79,
          "time": 199.73641600000178,
          "velocity": 0.5039370078740157,
          "duration": 0.7878272666666533
        },
        {
          "name": "C6",
          "midi": 84,
          "time": 200.52588800000177,
          "velocity": 0.5039370078740157,
          "duration": 1.577299266666671
        },
        {
          "name": "D6",
          "midi": 86,
          "time": 202.10483200000178,
          "velocity": 0.5039370078740157,
          "duration": 2.3667712666666603
        },
        {
          "name": "A6",
          "midi": 93,
          "time": 204.47324800000177,
          "velocity": 0.5039370078740157,
          "duration": 0.7878272666666533
        },
        {
          "name": "E6",
          "midi": 88,
          "time": 205.26272000000176,
          "velocity": 0.5039370078740157,
          "duration": 0.7878272666666533
        },
        {
          "name": "B5",
          "midi": 83,
          "time": 206.05219200000175,
          "velocity": 0.5039370078740157,
          "duration": 0.7878272666666533
        },
        {
          "name": "A5",
          "midi": 81,
          "time": 206.84166400000174,
          "velocity": 0.5039370078740157,
          "duration": 1.577299266666671
        },
        {
          "name": "B5",
          "midi": 83,
          "time": 208.42060800000175,
          "velocity": 0.5039370078740157,
          "duration": 1.577299266666671
        },
        {
          "name": "C#6",
          "midi": 85,
          "time": 209.99955200000176,
          "velocity": 0.5039370078740157,
          "duration": 0.7878272666665964
        },
        {
          "name": "D6",
          "midi": 86,
          "time": 210.7890240000017,
          "velocity": 0.5433070866141733,
          "duration": 0.7878272666665964
        },
        {
          "name": "D#6",
          "midi": 87,
          "time": 211.57849600000162,
          "velocity": 0.5826771653543307,
          "duration": 0.7878272666666248
        },
        {
          "name": "A6",
          "midi": 93,
          "time": 212.36796800000158,
          "velocity": 0.6299212598425197,
          "duration": 0.7878272666666533
        },
        {
          "name": "C7",
          "midi": 96,
          "time": 213.15744000000157,
          "velocity": 0.6299212598425197,
          "duration": 0.7878272666666533
        },
        {
          "name": "A#6",
          "midi": 94,
          "time": 213.94691200000156,
          "velocity": 0.5984251968503937,
          "duration": 0.12993393333331937
        },
        {
          "name": "G#6",
          "midi": 92,
          "time": 214.07849066666822,
          "velocity": 0.5984251968503937,
          "duration": 0.1299339333333478
        },
        {
          "name": "G6",
          "midi": 91,
          "time": 214.2100693333349,
          "velocity": 0.5905511811023622,
          "duration": 0.12993393333331937
        },
        {
          "name": "F6",
          "midi": 89,
          "time": 214.34164800000156,
          "velocity": 0.5826771653543307,
          "duration": 0.12993393333331937
        },
        {
          "name": "D#6",
          "midi": 87,
          "time": 214.4732266666682,
          "velocity": 0.5826771653543307,
          "duration": 0.1299339333333478
        },
        {
          "name": "D6",
          "midi": 86,
          "time": 214.6048053333349,
          "velocity": 0.5748031496062992,
          "duration": 0.12993393333331937
        },
        {
          "name": "C6",
          "midi": 84,
          "time": 214.73638400000155,
          "velocity": 0.5669291338582677,
          "duration": 0.7878272666666533
        },
        {
          "name": "A#5",
          "midi": 82,
          "time": 215.52585600000154,
          "velocity": 0.5354330708661418,
          "duration": 0.1299339333333478
        },
        {
          "name": "G#5",
          "midi": 80,
          "time": 215.65743466666822,
          "velocity": 0.5275590551181102,
          "duration": 0.12993393333331937
        },
        {
          "name": "G5",
          "midi": 79,
          "time": 215.78901333333488,
          "velocity": 0.5275590551181102,
          "duration": 0.12993393333331937
        },
        {
          "name": "F5",
          "midi": 77,
          "time": 215.92059200000153,
          "velocity": 0.5196850393700787,
          "duration": 0.1299339333333478
        },
        {
          "name": "D#5",
          "midi": 75,
          "time": 216.05217066666822,
          "velocity": 0.5118110236220472,
          "duration": 0.12993393333331937
        },
        {
          "name": "D5",
          "midi": 74,
          "time": 216.18374933333487,
          "velocity": 0.5039370078740157,
          "duration": 0.12993393333331937
        },
        {
          "name": "D5",
          "midi": 74,
          "time": 216.31532800000153,
          "velocity": 0.5039370078740157,
          "duration": 0.7878272666667385
        },
        {
          "name": "A5",
          "midi": 81,
          "time": 217.1048000000016,
          "velocity": 0.5826771653543307,
          "duration": 0.787827266666767
        },
        {
          "name": "G#5",
          "midi": 80,
          "time": 217.8942720000017,
          "velocity": 0.6692913385826772,
          "duration": 0.39309126666668703
        },
        {
          "name": "A5",
          "midi": 81,
          "time": 218.28900800000173,
          "velocity": 0.7086614173228346,
          "duration": 0.09703926666668394
        },
        {
          "name": "B5",
          "midi": 83,
          "time": 218.38769200000175,
          "velocity": 0.7244094488188977,
          "duration": 0.09703926666668394
        },
        {
          "name": "C6",
          "midi": 84,
          "time": 218.48637600000177,
          "velocity": 0.7322834645669292,
          "duration": 0.09703926666665552
        },
        {
          "name": "D6",
          "midi": 86,
          "time": 218.58506000000176,
          "velocity": 0.7401574803149606,
          "duration": 0.09703926666668394
        },
        {
          "name": "E6",
          "midi": 88,
          "time": 218.68374400000178,
          "velocity": 0.7559055118110236,
          "duration": 0.7878272666666533
        },
        {
          "name": "C6",
          "midi": 84,
          "time": 219.47321600000177,
          "velocity": 0.7559055118110236,
          "duration": 0.7878272666666533
        },
        {
          "name": "D6",
          "midi": 86,
          "time": 220.26268800000176,
          "velocity": 0.7559055118110236,
          "duration": 0.12993393333331937
        },
        {
          "name": "C6",
          "midi": 84,
          "time": 220.39426666666841,
          "velocity": 0.7559055118110236,
          "duration": 0.12993393333331937
        },
        {
          "name": "B5",
          "midi": 83,
          "time": 220.52584533333507,
          "velocity": 0.7559055118110236,
          "duration": 0.12993393333331937
        },
        {
          "name": "A5",
          "midi": 81,
          "time": 220.65742400000173,
          "velocity": 0.7559055118110236,
          "duration": 0.12993393333331937
        },
        {
          "name": "G5",
          "midi": 79,
          "time": 220.78900266666838,
          "velocity": 0.7559055118110236,
          "duration": 0.12993393333331937
        },
        {
          "name": "F5",
          "midi": 77,
          "time": 220.92058133333504,
          "velocity": 0.7559055118110236,
          "duration": 0.12993393333331937
        },
        {
          "name": "E5",
          "midi": 76,
          "time": 221.0521600000017,
          "velocity": 0.7559055118110236,
          "duration": 0.12993393333331937
        },
        {
          "name": "D5",
          "midi": 74,
          "time": 221.18373866666835,
          "velocity": 0.7559055118110236,
          "duration": 0.12993393333331937
        },
        {
          "name": "C5",
          "midi": 72,
          "time": 221.315317333335,
          "velocity": 0.7559055118110236,
          "duration": 0.12993393333331937
        },
        {
          "name": "B4",
          "midi": 71,
          "time": 221.44689600000166,
          "velocity": 0.7559055118110236,
          "duration": 0.7878272666666533
        },
        {
          "name": "C5",
          "midi": 72,
          "time": 222.23636800000165,
          "velocity": 0.7559055118110236,
          "duration": 0.12993393333331937
        },
        {
          "name": "B4",
          "midi": 71,
          "time": 222.3679466666683,
          "velocity": 0.7559055118110236,
          "duration": 0.12993393333331937
        },
        {
          "name": "A4",
          "midi": 69,
          "time": 222.49952533333496,
          "velocity": 0.7559055118110236,
          "duration": 0.12993393333331937
        },
        {
          "name": "A4",
          "midi": 69,
          "time": 222.6311040000016,
          "velocity": 0.7559055118110236,
          "duration": 0.7878272666666533
        },
        {
          "name": "C5",
          "midi": 72,
          "time": 223.4205760000016,
          "velocity": 0.7559055118110236,
          "duration": 2.3667712666666603
        },
        {
          "name": "A4",
          "midi": 69,
          "time": 225.7889920000016,
          "velocity": 0.7559055118110236,
          "duration": 1.577299266666671
        },
        {
          "name": "F4",
          "midi": 65,
          "time": 227.3679360000016,
          "velocity": 0.7559055118110236,
          "duration": 1.577299266666671
        },
        {
          "name": "G4",
          "midi": 67,
          "time": 228.9468800000016,
          "velocity": 0.7559055118110236,
          "duration": 1.577299266666671
        },
        {
          "name": "B4",
          "midi": 71,
          "time": 230.52582400000162,
          "velocity": 0.7559055118110236,
          "duration": 0.1957232666666755
        },
        {
          "name": "C5",
          "midi": 72,
          "time": 230.72319200000163,
          "velocity": 0.7559055118110236,
          "duration": 0.1957232666666755
        },
        {
          "name": "D5",
          "midi": 74,
          "time": 230.92056000000164,
          "velocity": 0.7559055118110236,
          "duration": 0.1957232666666755
        },
        {
          "name": "E5",
          "midi": 76,
          "time": 231.11792800000165,
          "velocity": 0.7559055118110236,
          "duration": 0.1957232666666755
        },
        {
          "name": "F5",
          "midi": 77,
          "time": 231.31529600000167,
          "velocity": 0.7559055118110236,
          "duration": 0.1957232666666755
        },
        {
          "name": "G5",
          "midi": 79,
          "time": 231.51266400000168,
          "velocity": 0.7559055118110236,
          "duration": 0.1957232666666755
        },
        {
          "name": "A5",
          "midi": 81,
          "time": 231.7100320000017,
          "velocity": 0.7559055118110236,
          "duration": 0.1957232666666755
        },
        {
          "name": "B5",
          "midi": 83,
          "time": 231.9074000000017,
          "velocity": 0.7559055118110236,
          "duration": 0.1957232666666755
        },
        {
          "name": "C6",
          "midi": 84,
          "time": 232.1047680000017,
          "velocity": 0.7559055118110236,
          "duration": 0.7878272666666533
        },
        {
          "name": "G6",
          "midi": 91,
          "time": 232.8942400000017,
          "velocity": 0.7559055118110236,
          "duration": 2.3667712666666603
        },
        {
          "name": "B5",
          "midi": 83,
          "time": 235.2626560000017,
          "velocity": 0.7559055118110236,
          "duration": 0.1562496666666675
        },
        {
          "name": "A5",
          "midi": 81,
          "time": 235.4205504000017,
          "velocity": 0.7559055118110236,
          "duration": 0.1562496666666675
        },
        {
          "name": "G5",
          "midi": 79,
          "time": 235.5784448000017,
          "velocity": 0.7559055118110236,
          "duration": 0.1562496666666675
        },
        {
          "name": "F5",
          "midi": 77,
          "time": 235.7363392000017,
          "velocity": 0.7559055118110236,
          "duration": 0.1562496666666675
        },
        {
          "name": "E5",
          "midi": 76,
          "time": 235.8942336000017,
          "velocity": 0.7559055118110236,
          "duration": 0.1562496666666675
        },
        {
          "name": "F5",
          "midi": 77,
          "time": 236.05212800000172,
          "velocity": 0.7559055118110236,
          "duration": 0.1562496666666675
        },
        {
          "name": "E5",
          "midi": 76,
          "time": 236.21002240000172,
          "velocity": 0.7559055118110236,
          "duration": 0.1562496666666675
        },
        {
          "name": "D5",
          "midi": 74,
          "time": 236.36791680000172,
          "velocity": 0.7559055118110236,
          "duration": 0.1562496666666675
        },
        {
          "name": "C5",
          "midi": 72,
          "time": 236.52581120000173,
          "velocity": 0.7559055118110236,
          "duration": 0.1562496666666675
        },
        {
          "name": "B4",
          "midi": 71,
          "time": 236.68370560000173,
          "velocity": 0.7559055118110236,
          "duration": 0.1562496666666675
        },
        {
          "name": "A4",
          "midi": 69,
          "time": 236.84160000000173,
          "velocity": 1,
          "duration": 0.7878272666669943
        }
      ],
      "controlChanges": {
        "2": [
          {
            "number": 2,
            "time": 0,
            "value": 0.25984251968503935
          },
          {
            "number": 2,
            "time": 6.315776,
            "value": 0.25984251968503935
          },
          {
            "number": 2,
            "time": 9.473664,
            "value": 0.5039370078740157
          },
          {
            "number": 2,
            "time": 10.657871999999998,
            "value": 0.5039370078740157
          },
          {
            "number": 2,
            "time": 12.236815999999997,
            "value": 0.5039370078740157
          },
          {
            "number": 2,
            "time": 13.026287999999997,
            "value": 0.5039370078740157
          },
          {
            "number": 2,
            "time": 13.421023999999997,
            "value": 0.5039370078740157
          },
          {
            "number": 2,
            "time": 13.815759999999997,
            "value": 0.5039370078740157
          },
          {
            "number": 2,
            "time": 15.394703999999996,
            "value": 0.5039370078740157
          },
          {
            "number": 2,
            "time": 16.184175999999994,
            "value": 0.5039370078740157
          },
          {
            "number": 2,
            "time": 16.578911999999992,
            "value": 0.5039370078740157
          },
          {
            "number": 2,
            "time": 16.97364799999999,
            "value": 0.5039370078740157
          },
          {
            "number": 2,
            "time": 18.15785599999999,
            "value": 0.5039370078740157
          },
          {
            "number": 2,
            "time": 18.947327999999988,
            "value": 0.5039370078740157
          },
          {
            "number": 2,
            "time": 19.736799999999988,
            "value": 0.5039370078740157
          },
          {
            "number": 2,
            "time": 20.526271999999988,
            "value": 0.5039370078740157
          },
          {
            "number": 2,
            "time": 22.105215999999988,
            "value": 0.5039370078740157
          },
          {
            "number": 2,
            "time": 23.289423999999986,
            "value": 0.5039370078740157
          },
          {
            "number": 2,
            "time": 24.868367999999982,
            "value": 0.5039370078740157
          },
          {
            "number": 2,
            "time": 26.05257599999998,
            "value": 0.5039370078740157
          },
          {
            "number": 2,
            "time": 26.44731199999998,
            "value": 0.5039370078740157
          },
          {
            "number": 2,
            "time": 26.842047999999977,
            "value": 0.5039370078740157
          },
          {
            "number": 2,
            "time": 28.026255999999975,
            "value": 0.5039370078740157
          },
          {
            "number": 2,
            "time": 28.569017999999975,
            "value": 0.5118110236220472
          },
          {
            "number": 2,
            "time": 28.717043999999976,
            "value": 0.5196850393700787
          },
          {
            "number": 2,
            "time": 28.815727999999975,
            "value": 0.5196850393700787
          },
          {
            "number": 2,
            "time": 28.865069999999974,
            "value": 0.5275590551181102
          },
          {
            "number": 2,
            "time": 29.013095999999976,
            "value": 0.5354330708661418
          },
          {
            "number": 2,
            "time": 29.161121999999978,
            "value": 0.5433070866141733
          },
          {
            "number": 2,
            "time": 29.210463999999977,
            "value": 0.5433070866141733
          },
          {
            "number": 2,
            "time": 29.309147999999976,
            "value": 0.5511811023622047
          },
          {
            "number": 2,
            "time": 29.457173999999977,
            "value": 0.5590551181102362
          },
          {
            "number": 2,
            "time": 29.605199999999975,
            "value": 0.5669291338582677
          },
          {
            "number": 2,
            "time": 29.753225999999977,
            "value": 0.5748031496062992
          },
          {
            "number": 2,
            "time": 29.901251999999978,
            "value": 0.5826771653543307
          },
          {
            "number": 2,
            "time": 29.999935999999977,
            "value": 0.5826771653543307
          },
          {
            "number": 2,
            "time": 30.049277999999976,
            "value": 0.5905511811023622
          },
          {
            "number": 2,
            "time": 30.197303999999978,
            "value": 0.5984251968503937
          },
          {
            "number": 2,
            "time": 30.34532999999998,
            "value": 0.6062992125984252
          },
          {
            "number": 2,
            "time": 30.49335599999998,
            "value": 0.6141732283464567
          },
          {
            "number": 2,
            "time": 30.641381999999982,
            "value": 0.6220472440944882
          },
          {
            "number": 2,
            "time": 30.78940799999998,
            "value": 0.6299212598425197
          },
          {
            "number": 2,
            "time": 31.57887999999998,
            "value": 0.6299212598425197
          },
          {
            "number": 2,
            "time": 31.57887999999998,
            "value": 0.6299212598425197
          },
          {
            "number": 2,
            "time": 32.17098399999998,
            "value": 0.6299212598425197
          },
          {
            "number": 2,
            "time": 34.73676799999999,
            "value": 0.6299212598425197
          },
          {
            "number": 2,
            "time": 34.93413599999999,
            "value": 0.6220472440944882
          },
          {
            "number": 2,
            "time": 35.131503999999985,
            "value": 0.6141732283464567
          },
          {
            "number": 2,
            "time": 35.32887199999998,
            "value": 0.6062992125984252
          },
          {
            "number": 2,
            "time": 35.52623999999998,
            "value": 0.5984251968503937
          },
          {
            "number": 2,
            "time": 35.72360799999998,
            "value": 0.5905511811023622
          },
          {
            "number": 2,
            "time": 35.920975999999975,
            "value": 0.5826771653543307
          },
          {
            "number": 2,
            "time": 36.11834399999997,
            "value": 0.5748031496062992
          },
          {
            "number": 2,
            "time": 36.31571199999997,
            "value": 0.5669291338582677
          },
          {
            "number": 2,
            "time": 36.51307999999997,
            "value": 0.5590551181102362
          },
          {
            "number": 2,
            "time": 36.710447999999964,
            "value": 0.5511811023622047
          },
          {
            "number": 2,
            "time": 36.90781599999996,
            "value": 0.5433070866141733
          },
          {
            "number": 2,
            "time": 37.10518399999996,
            "value": 0.5354330708661418
          },
          {
            "number": 2,
            "time": 37.302551999999956,
            "value": 0.5275590551181102
          },
          {
            "number": 2,
            "time": 37.49991999999995,
            "value": 0.5196850393700787
          },
          {
            "number": 2,
            "time": 37.69728799999995,
            "value": 0.5118110236220472
          },
          {
            "number": 2,
            "time": 37.89465599999995,
            "value": 0.5039370078740157
          },
          {
            "number": 2,
            "time": 41.05254399999995,
            "value": 0.5039370078740157
          },
          {
            "number": 2,
            "time": 44.21043199999995,
            "value": 0.5039370078740157
          },
          {
            "number": 2,
            "time": 50.52620799999995,
            "value": 0.7559055118110236
          },
          {
            "number": 2,
            "time": 51.71041599999995,
            "value": 0.7559055118110236
          },
          {
            "number": 2,
            "time": 53.28935999999996,
            "value": 0.7559055118110236
          },
          {
            "number": 2,
            "time": 53.78277999999997,
            "value": 0.7480314960629921
          },
          {
            "number": 2,
            "time": 53.881463999999966,
            "value": 0.7401574803149606
          },
          {
            "number": 2,
            "time": 53.980147999999964,
            "value": 0.7322834645669292
          },
          {
            "number": 2,
            "time": 54.07883199999996,
            "value": 0.7244094488188977
          },
          {
            "number": 2,
            "time": 54.17751599999996,
            "value": 0.7165354330708661
          },
          {
            "number": 2,
            "time": 54.27619999999996,
            "value": 0.7086614173228346
          },
          {
            "number": 2,
            "time": 54.37488399999996,
            "value": 0.7007874015748031
          },
          {
            "number": 2,
            "time": 54.47356799999996,
            "value": 0.6929133858267716
          },
          {
            "number": 2,
            "time": 54.572251999999956,
            "value": 0.6850393700787402
          },
          {
            "number": 2,
            "time": 54.670935999999955,
            "value": 0.6771653543307087
          },
          {
            "number": 2,
            "time": 54.769619999999954,
            "value": 0.6692913385826772
          },
          {
            "number": 2,
            "time": 54.86830399999995,
            "value": 0.6614173228346457
          },
          {
            "number": 2,
            "time": 54.96698799999995,
            "value": 0.6535433070866141
          },
          {
            "number": 2,
            "time": 55.06567199999995,
            "value": 0.6456692913385826
          },
          {
            "number": 2,
            "time": 55.16435599999995,
            "value": 0.6377952755905512
          },
          {
            "number": 2,
            "time": 55.26303999999995,
            "value": 0.6299212598425197
          },
          {
            "number": 2,
            "time": 55.361723999999946,
            "value": 0.6220472440944882
          },
          {
            "number": 2,
            "time": 55.460407999999944,
            "value": 0.6141732283464567
          },
          {
            "number": 2,
            "time": 55.55909199999994,
            "value": 0.6062992125984252
          },
          {
            "number": 2,
            "time": 55.65777599999994,
            "value": 0.5984251968503937
          },
          {
            "number": 2,
            "time": 55.75645999999994,
            "value": 0.5905511811023622
          },
          {
            "number": 2,
            "time": 55.85514399999994,
            "value": 0.5826771653543307
          },
          {
            "number": 2,
            "time": 55.95382799999994,
            "value": 0.5748031496062992
          },
          {
            "number": 2,
            "time": 56.052511999999936,
            "value": 0.5669291338582677
          },
          {
            "number": 2,
            "time": 56.151195999999935,
            "value": 0.5590551181102362
          },
          {
            "number": 2,
            "time": 56.24987999999993,
            "value": 0.5511811023622047
          },
          {
            "number": 2,
            "time": 56.34856399999993,
            "value": 0.5433070866141733
          },
          {
            "number": 2,
            "time": 56.44724799999993,
            "value": 0.5354330708661418
          },
          {
            "number": 2,
            "time": 56.54593199999993,
            "value": 0.5275590551181102
          },
          {
            "number": 2,
            "time": 56.64461599999993,
            "value": 0.5196850393700787
          },
          {
            "number": 2,
            "time": 56.74329999999993,
            "value": 0.5118110236220472
          },
          {
            "number": 2,
            "time": 56.841983999999925,
            "value": 0.5039370078740157
          },
          {
            "number": 2,
            "time": 59.999871999999925,
            "value": 0.5039370078740157
          },
          {
            "number": 2,
            "time": 60.39460799999993,
            "value": 0.5039370078740157
          },
          {
            "number": 2,
            "time": 60.78934399999993,
            "value": 0.5039370078740157
          },
          {
            "number": 2,
            "time": 61.18407999999993,
            "value": 0.5039370078740157
          },
          {
            "number": 2,
            "time": 61.57881599999993,
            "value": 0.5039370078740157
          },
          {
            "number": 2,
            "time": 61.973551999999934,
            "value": 0.5039370078740157
          },
          {
            "number": 2,
            "time": 62.368287999999936,
            "value": 0.5039370078740157
          },
          {
            "number": 2,
            "time": 62.76302399999994,
            "value": 0.5039370078740157
          },
          {
            "number": 2,
            "time": 63.15775999999994,
            "value": 0.5039370078740157
          },
          {
            "number": 2,
            "time": 63.55249599999994,
            "value": 0.5039370078740157
          },
          {
            "number": 2,
            "time": 63.94723199999994,
            "value": 0.5039370078740157
          },
          {
            "number": 2,
            "time": 64.34196799999995,
            "value": 0.5039370078740157
          },
          {
            "number": 2,
            "time": 64.73670399999996,
            "value": 0.5039370078740157
          },
          {
            "number": 2,
            "time": 65.13143999999997,
            "value": 0.5039370078740157
          },
          {
            "number": 2,
            "time": 65.52617599999998,
            "value": 0.5039370078740157
          },
          {
            "number": 2,
            "time": 66.31564799999998,
            "value": 0.5039370078740157
          },
          {
            "number": 2,
            "time": 67.89459199999999,
            "value": 0.5039370078740157
          },
          {
            "number": 2,
            "time": 69.473536,
            "value": 0.5039370078740157
          },
          {
            "number": 2,
            "time": 70.263008,
            "value": 0.5039370078740157
          },
          {
            "number": 2,
            "time": 71.05248,
            "value": 0.5039370078740157
          },
          {
            "number": 2,
            "time": 71.13965086666667,
            "value": 0.5118110236220472
          },
          {
            "number": 2,
            "time": 71.225177,
            "value": 0.5196850393700787
          },
          {
            "number": 2,
            "time": 71.249848,
            "value": 0.5196850393700787
          },
          {
            "number": 2,
            "time": 71.31234786666667,
            "value": 0.5275590551181102
          },
          {
            "number": 2,
            "time": 71.397874,
            "value": 0.5354330708661418
          },
          {
            "number": 2,
            "time": 71.447216,
            "value": 0.5354330708661418
          },
          {
            "number": 2,
            "time": 71.48504486666667,
            "value": 0.5433070866141733
          },
          {
            "number": 2,
            "time": 71.570571,
            "value": 0.5511811023622047
          },
          {
            "number": 2,
            "time": 71.64458400000001,
            "value": 0.5511811023622047
          },
          {
            "number": 2,
            "time": 71.65774186666667,
            "value": 0.5590551181102362
          },
          {
            "number": 2,
            "time": 71.743268,
            "value": 0.5669291338582677
          },
          {
            "number": 2,
            "time": 71.83043886666667,
            "value": 0.5748031496062992
          },
          {
            "number": 2,
            "time": 71.841952,
            "value": 0.5748031496062992
          },
          {
            "number": 2,
            "time": 71.915965,
            "value": 0.5826771653543307
          },
          {
            "number": 2,
            "time": 72.00313586666667,
            "value": 0.5905511811023622
          },
          {
            "number": 2,
            "time": 72.03932,
            "value": 0.5905511811023622
          },
          {
            "number": 2,
            "time": 72.088662,
            "value": 0.5984251968503937
          },
          {
            "number": 2,
            "time": 72.17583286666667,
            "value": 0.6062992125984252
          },
          {
            "number": 2,
            "time": 72.236688,
            "value": 0.6062992125984252
          },
          {
            "number": 2,
            "time": 72.261359,
            "value": 0.6141732283464567
          },
          {
            "number": 2,
            "time": 72.34852986666667,
            "value": 0.6220472440944882
          },
          {
            "number": 2,
            "time": 72.434056,
            "value": 0.6299212598425197
          },
          {
            "number": 2,
            "time": 72.631424,
            "value": 0.6299212598425197
          },
          {
            "number": 2,
            "time": 73.815632,
            "value": 0.6299212598425197
          },
          {
            "number": 2,
            "time": 74.210368,
            "value": 0.6299212598425197
          },
          {
            "number": 2,
            "time": 75.394576,
            "value": 0.6299212598425197
          },
          {
            "number": 2,
            "time": 75.78931200000001,
            "value": 0.6299212598425197
          },
          {
            "number": 2,
            "time": 76.57878400000001,
            "value": 0.6299212598425197
          },
          {
            "number": 2,
            "time": 76.97352000000002,
            "value": 0.6299212598425197
          },
          {
            "number": 2,
            "time": 78.15772800000002,
            "value": 0.6299212598425197
          },
          {
            "number": 2,
            "time": 78.94720000000004,
            "value": 0.5039370078740157
          },
          {
            "number": 2,
            "time": 80.52614400000003,
            "value": 0.5039370078740157
          },
          {
            "number": 2,
            "time": 82.10508800000004,
            "value": 0.5039370078740157
          },
          {
            "number": 2,
            "time": 85.26297600000004,
            "value": 0.5039370078740157
          },
          {
            "number": 2,
            "time": 88.42086400000004,
            "value": 0.5039370078740157
          },
          {
            "number": 2,
            "time": 91.57875200000004,
            "value": 0.5039370078740157
          },
          {
            "number": 2,
            "time": 91.87480400000004,
            "value": 0.5118110236220472
          },
          {
            "number": 2,
            "time": 92.17085600000004,
            "value": 0.5196850393700787
          },
          {
            "number": 2,
            "time": 92.46690800000005,
            "value": 0.5275590551181102
          },
          {
            "number": 2,
            "time": 92.76296000000005,
            "value": 0.5354330708661418
          },
          {
            "number": 2,
            "time": 93.05901200000005,
            "value": 0.5433070866141733
          },
          {
            "number": 2,
            "time": 93.35506400000006,
            "value": 0.5511811023622047
          },
          {
            "number": 2,
            "time": 93.65111600000006,
            "value": 0.5590551181102362
          },
          {
            "number": 2,
            "time": 93.94716800000006,
            "value": 0.5669291338582677
          },
          {
            "number": 2,
            "time": 94.24322000000006,
            "value": 0.5748031496062992
          },
          {
            "number": 2,
            "time": 94.53927200000007,
            "value": 0.5826771653543307
          },
          {
            "number": 2,
            "time": 94.73664000000007,
            "value": 0.5826771653543307
          },
          {
            "number": 2,
            "time": 94.83532400000007,
            "value": 0.5905511811023622
          },
          {
            "number": 2,
            "time": 95.13137600000007,
            "value": 0.5984251968503937
          },
          {
            "number": 2,
            "time": 95.42742800000008,
            "value": 0.6062992125984252
          },
          {
            "number": 2,
            "time": 95.72348000000008,
            "value": 0.6141732283464567
          },
          {
            "number": 2,
            "time": 96.01953200000008,
            "value": 0.6220472440944882
          },
          {
            "number": 2,
            "time": 96.31558400000009,
            "value": 0.6299212598425197
          },
          {
            "number": 2,
            "time": 96.40275486666675,
            "value": 0.6377952755905512
          },
          {
            "number": 2,
            "time": 96.48828100000009,
            "value": 0.6456692913385826
          },
          {
            "number": 2,
            "time": 96.51295200000008,
            "value": 0.6456692913385826
          },
          {
            "number": 2,
            "time": 96.57545186666675,
            "value": 0.6535433070866141
          },
          {
            "number": 2,
            "time": 96.66097800000009,
            "value": 0.6614173228346457
          },
          {
            "number": 2,
            "time": 96.71032000000008,
            "value": 0.6614173228346457
          },
          {
            "number": 2,
            "time": 96.74814886666675,
            "value": 0.6692913385826772
          },
          {
            "number": 2,
            "time": 96.83367500000008,
            "value": 0.6771653543307087
          },
          {
            "number": 2,
            "time": 96.90768800000009,
            "value": 0.6771653543307087
          },
          {
            "number": 2,
            "time": 96.92084586666675,
            "value": 0.6850393700787402
          },
          {
            "number": 2,
            "time": 97.00637200000008,
            "value": 0.6929133858267716
          },
          {
            "number": 2,
            "time": 97.09354286666675,
            "value": 0.7007874015748031
          },
          {
            "number": 2,
            "time": 97.10505600000009,
            "value": 0.7007874015748031
          },
          {
            "number": 2,
            "time": 97.17906900000008,
            "value": 0.7086614173228346
          },
          {
            "number": 2,
            "time": 97.26623986666675,
            "value": 0.7165354330708661
          },
          {
            "number": 2,
            "time": 97.30242400000009,
            "value": 0.7165354330708661
          },
          {
            "number": 2,
            "time": 97.35176600000008,
            "value": 0.7244094488188977
          },
          {
            "number": 2,
            "time": 97.43893686666675,
            "value": 0.7322834645669292
          },
          {
            "number": 2,
            "time": 97.49979200000008,
            "value": 0.7322834645669292
          },
          {
            "number": 2,
            "time": 97.52446300000008,
            "value": 0.7401574803149606
          },
          {
            "number": 2,
            "time": 97.61163386666675,
            "value": 0.7480314960629921
          },
          {
            "number": 2,
            "time": 97.69716000000008,
            "value": 0.7559055118110236
          },
          {
            "number": 2,
            "time": 98.28926400000007,
            "value": 0.7559055118110236
          },
          {
            "number": 2,
            "time": 98.68400000000008,
            "value": 0.7559055118110236
          },
          {
            "number": 2,
            "time": 99.07873600000009,
            "value": 0.7559055118110236
          },
          {
            "number": 2,
            "time": 99.4734720000001,
            "value": 0.7559055118110236
          },
          {
            "number": 2,
            "time": 100.2629440000001,
            "value": 0.7559055118110236
          },
          {
            "number": 2,
            "time": 101.05241600000011,
            "value": 0.7559055118110236
          },
          {
            "number": 2,
            "time": 104.21030400000011,
            "value": 0.7559055118110236
          },
          {
            "number": 2,
            "time": 105.78924800000011,
            "value": 0.7559055118110236
          },
          {
            "number": 2,
            "time": 107.76292800000009,
            "value": 0.7559055118110236
          },
          {
            "number": 2,
            "time": 108.1576640000001,
            "value": 0.7559055118110236
          },
          {
            "number": 2,
            "time": 108.5524000000001,
            "value": 0.7559055118110236
          },
          {
            "number": 2,
            "time": 108.94713600000011,
            "value": 0.7559055118110236
          },
          {
            "number": 2,
            "time": 109.73660800000012,
            "value": 0.7559055118110236
          },
          {
            "number": 2,
            "time": 110.52608000000012,
            "value": 0.7559055118110236
          },
          {
            "number": 2,
            "time": 116.05238400000012,
            "value": 0.5039370078740157
          },
          {
            "number": 2,
            "time": 116.44712000000013,
            "value": 0.5039370078740157
          },
          {
            "number": 2,
            "time": 118.02606400000013,
            "value": 0.5039370078740157
          },
          {
            "number": 2,
            "time": 118.42080000000014,
            "value": 0.5039370078740157
          },
          {
            "number": 2,
            "time": 119.60500800000014,
            "value": 0.5039370078740157
          },
          {
            "number": 2,
            "time": 119.99974400000015,
            "value": 0.5039370078740157
          },
          {
            "number": 2,
            "time": 121.18395200000015,
            "value": 0.5039370078740157
          },
          {
            "number": 2,
            "time": 121.23329400000014,
            "value": 0.5118110236220472
          },
          {
            "number": 2,
            "time": 121.28263600000014,
            "value": 0.5196850393700787
          },
          {
            "number": 2,
            "time": 121.33197800000013,
            "value": 0.5275590551181102
          },
          {
            "number": 2,
            "time": 121.38132000000013,
            "value": 0.5354330708661418
          },
          {
            "number": 2,
            "time": 121.43066200000013,
            "value": 0.5433070866141733
          },
          {
            "number": 2,
            "time": 121.48000400000012,
            "value": 0.5511811023622047
          },
          {
            "number": 2,
            "time": 121.52934600000012,
            "value": 0.5590551181102362
          },
          {
            "number": 2,
            "time": 121.57868800000011,
            "value": 0.5669291338582677
          },
          {
            "number": 2,
            "time": 121.62803000000011,
            "value": 0.5748031496062992
          },
          {
            "number": 2,
            "time": 121.6773720000001,
            "value": 0.5826771653543307
          },
          {
            "number": 2,
            "time": 121.7267140000001,
            "value": 0.5905511811023622
          },
          {
            "number": 2,
            "time": 121.7760560000001,
            "value": 0.5984251968503937
          },
          {
            "number": 2,
            "time": 121.82539800000009,
            "value": 0.6062992125984252
          },
          {
            "number": 2,
            "time": 121.87474000000009,
            "value": 0.6141732283464567
          },
          {
            "number": 2,
            "time": 121.92408200000008,
            "value": 0.6220472440944882
          },
          {
            "number": 2,
            "time": 121.97342400000008,
            "value": 0.6299212598425197
          },
          {
            "number": 2,
            "time": 122.02276600000008,
            "value": 0.6377952755905512
          },
          {
            "number": 2,
            "time": 122.07210800000007,
            "value": 0.6456692913385826
          },
          {
            "number": 2,
            "time": 122.12145000000007,
            "value": 0.6535433070866141
          },
          {
            "number": 2,
            "time": 122.17079200000006,
            "value": 0.6614173228346457
          },
          {
            "number": 2,
            "time": 122.22013400000006,
            "value": 0.6692913385826772
          },
          {
            "number": 2,
            "time": 122.26947600000005,
            "value": 0.6771653543307087
          },
          {
            "number": 2,
            "time": 122.31881800000005,
            "value": 0.6850393700787402
          },
          {
            "number": 2,
            "time": 122.36816000000005,
            "value": 0.6929133858267716
          },
          {
            "number": 2,
            "time": 122.41750200000004,
            "value": 0.7007874015748031
          },
          {
            "number": 2,
            "time": 122.46684400000004,
            "value": 0.7086614173228346
          },
          {
            "number": 2,
            "time": 122.51618600000003,
            "value": 0.7165354330708661
          },
          {
            "number": 2,
            "time": 122.56552800000003,
            "value": 0.7244094488188977
          },
          {
            "number": 2,
            "time": 122.61487000000002,
            "value": 0.7322834645669292
          },
          {
            "number": 2,
            "time": 122.66421200000002,
            "value": 0.7401574803149606
          },
          {
            "number": 2,
            "time": 122.71355400000002,
            "value": 0.7480314960629921
          },
          {
            "number": 2,
            "time": 122.76289600000001,
            "value": 0.7559055118110236
          },
          {
            "number": 2,
            "time": 123.15763200000002,
            "value": 0.7559055118110236
          },
          {
            "number": 2,
            "time": 123.94710400000002,
            "value": 0.7559055118110236
          },
          {
            "number": 2,
            "time": 125.92078400000001,
            "value": 0.7559055118110236
          },
          {
            "number": 2,
            "time": 126.31552000000002,
            "value": 1
          },
          {
            "number": 2,
            "time": 126.31716473333336,
            "value": 1
          },
          {
            "number": 2,
            "time": 126.31880946666669,
            "value": 1
          },
          {
            "number": 2,
            "time": 126.32045420000003,
            "value": 1
          },
          {
            "number": 2,
            "time": 126.32209893333336,
            "value": 1
          },
          {
            "number": 2,
            "time": 126.3237436666667,
            "value": 1
          },
          {
            "number": 2,
            "time": 126.32538840000004,
            "value": 1
          },
          {
            "number": 2,
            "time": 126.32703313333337,
            "value": 1
          },
          {
            "number": 2,
            "time": 126.32867786666671,
            "value": 1
          },
          {
            "number": 2,
            "time": 126.33032260000004,
            "value": 1
          },
          {
            "number": 2,
            "time": 126.33196733333338,
            "value": 1
          },
          {
            "number": 2,
            "time": 126.33361206666672,
            "value": 1
          },
          {
            "number": 2,
            "time": 126.33525680000005,
            "value": 1
          },
          {
            "number": 2,
            "time": 126.33690153333339,
            "value": 1
          },
          {
            "number": 2,
            "time": 126.33854626666673,
            "value": 1
          },
          {
            "number": 2,
            "time": 126.34019100000006,
            "value": 1
          },
          {
            "number": 2,
            "time": 126.3418357333334,
            "value": 1
          },
          {
            "number": 2,
            "time": 126.34348046666673,
            "value": 1
          },
          {
            "number": 2,
            "time": 126.34512520000007,
            "value": 1
          },
          {
            "number": 2,
            "time": 126.3467699333334,
            "value": 1
          },
          {
            "number": 2,
            "time": 126.34841466666674,
            "value": 1
          },
          {
            "number": 2,
            "time": 126.35005940000008,
            "value": 1
          },
          {
            "number": 2,
            "time": 126.35170413333341,
            "value": 1
          },
          {
            "number": 2,
            "time": 126.35334886666675,
            "value": 1
          },
          {
            "number": 2,
            "time": 126.35499360000009,
            "value": 1
          },
          {
            "number": 2,
            "time": 126.35663833333342,
            "value": 1
          },
          {
            "number": 2,
            "time": 126.35828306666676,
            "value": 1
          },
          {
            "number": 2,
            "time": 126.3599278000001,
            "value": 1
          },
          {
            "number": 2,
            "time": 126.36157253333343,
            "value": 1
          },
          {
            "number": 2,
            "time": 126.36321726666677,
            "value": 1
          },
          {
            "number": 2,
            "time": 126.3648620000001,
            "value": 1
          },
          {
            "number": 2,
            "time": 126.36650673333344,
            "value": 1
          },
          {
            "number": 2,
            "time": 126.36815146666677,
            "value": 1
          },
          {
            "number": 2,
            "time": 126.36979620000011,
            "value": 1
          },
          {
            "number": 2,
            "time": 126.37144093333345,
            "value": 1
          },
          {
            "number": 2,
            "time": 126.37308566666678,
            "value": 1
          },
          {
            "number": 2,
            "time": 126.37473040000012,
            "value": 1
          },
          {
            "number": 2,
            "time": 126.37637513333345,
            "value": 1
          },
          {
            "number": 2,
            "time": 126.37801986666679,
            "value": 1
          },
          {
            "number": 2,
            "time": 126.37966460000013,
            "value": 1
          },
          {
            "number": 2,
            "time": 126.38130933333346,
            "value": 1
          },
          {
            "number": 2,
            "time": 126.3829540666668,
            "value": 1
          },
          {
            "number": 2,
            "time": 126.38459880000013,
            "value": 1
          },
          {
            "number": 2,
            "time": 126.38624353333347,
            "value": 0.9921259842519685
          },
          {
            "number": 2,
            "time": 126.3878882666668,
            "value": 0.9921259842519685
          },
          {
            "number": 2,
            "time": 126.38953300000014,
            "value": 0.9921259842519685
          },
          {
            "number": 2,
            "time": 126.39117773333348,
            "value": 0.984251968503937
          },
          {
            "number": 2,
            "time": 126.39282246666681,
            "value": 0.984251968503937
          },
          {
            "number": 2,
            "time": 126.39446720000015,
            "value": 0.9763779527559056
          },
          {
            "number": 2,
            "time": 126.39611193333349,
            "value": 0.9763779527559056
          },
          {
            "number": 2,
            "time": 126.39775666666682,
            "value": 0.9763779527559056
          },
          {
            "number": 2,
            "time": 126.39940140000016,
            "value": 0.968503937007874
          },
          {
            "number": 2,
            "time": 126.4010461333335,
            "value": 0.968503937007874
          },
          {
            "number": 2,
            "time": 126.40269086666683,
            "value": 0.9606299212598425
          },
          {
            "number": 2,
            "time": 126.40433560000017,
            "value": 0.9606299212598425
          },
          {
            "number": 2,
            "time": 126.4059803333335,
            "value": 0.9606299212598425
          },
          {
            "number": 2,
            "time": 126.40762506666684,
            "value": 0.952755905511811
          },
          {
            "number": 2,
            "time": 126.40926980000017,
            "value": 0.952755905511811
          },
          {
            "number": 2,
            "time": 126.41091453333351,
            "value": 0.9448818897637795
          },
          {
            "number": 2,
            "time": 126.41255926666685,
            "value": 0.9448818897637795
          },
          {
            "number": 2,
            "time": 126.41420400000018,
            "value": 0.9448818897637795
          },
          {
            "number": 2,
            "time": 126.41584873333352,
            "value": 0.937007874015748
          },
          {
            "number": 2,
            "time": 126.41749346666685,
            "value": 0.937007874015748
          },
          {
            "number": 2,
            "time": 126.41913820000019,
            "value": 0.9291338582677166
          },
          {
            "number": 2,
            "time": 126.42078293333353,
            "value": 0.9291338582677166
          },
          {
            "number": 2,
            "time": 126.42242766666686,
            "value": 0.9291338582677166
          },
          {
            "number": 2,
            "time": 126.4240724000002,
            "value": 0.9212598425196851
          },
          {
            "number": 2,
            "time": 126.42571713333354,
            "value": 0.9212598425196851
          },
          {
            "number": 2,
            "time": 126.42736186666687,
            "value": 0.9133858267716536
          },
          {
            "number": 2,
            "time": 126.4290066000002,
            "value": 0.9133858267716536
          },
          {
            "number": 2,
            "time": 126.43065133333354,
            "value": 0.9133858267716536
          },
          {
            "number": 2,
            "time": 126.43229606666688,
            "value": 0.905511811023622
          },
          {
            "number": 2,
            "time": 126.43394080000022,
            "value": 0.905511811023622
          },
          {
            "number": 2,
            "time": 126.43558553333355,
            "value": 0.8976377952755905
          },
          {
            "number": 2,
            "time": 126.43723026666689,
            "value": 0.8976377952755905
          },
          {
            "number": 2,
            "time": 126.43887500000022,
            "value": 0.8976377952755905
          },
          {
            "number": 2,
            "time": 126.44051973333356,
            "value": 0.889763779527559
          },
          {
            "number": 2,
            "time": 126.4421644666669,
            "value": 0.889763779527559
          },
          {
            "number": 2,
            "time": 126.44380920000023,
            "value": 0.8818897637795275
          },
          {
            "number": 2,
            "time": 126.44545393333357,
            "value": 0.8818897637795275
          },
          {
            "number": 2,
            "time": 126.4470986666669,
            "value": 0.8818897637795275
          },
          {
            "number": 2,
            "time": 126.44874340000024,
            "value": 0.8740157480314961
          },
          {
            "number": 2,
            "time": 126.45038813333358,
            "value": 0.8740157480314961
          },
          {
            "number": 2,
            "time": 126.45203286666691,
            "value": 0.8661417322834646
          },
          {
            "number": 2,
            "time": 126.45367760000025,
            "value": 0.8661417322834646
          },
          {
            "number": 2,
            "time": 126.45532233333358,
            "value": 0.8661417322834646
          },
          {
            "number": 2,
            "time": 126.45696706666692,
            "value": 0.8582677165354331
          },
          {
            "number": 2,
            "time": 126.45861180000026,
            "value": 0.8582677165354331
          },
          {
            "number": 2,
            "time": 126.46025653333359,
            "value": 0.8503937007874016
          },
          {
            "number": 2,
            "time": 126.46190126666693,
            "value": 0.8503937007874016
          },
          {
            "number": 2,
            "time": 126.46354600000026,
            "value": 0.8503937007874016
          },
          {
            "number": 2,
            "time": 126.4651907333336,
            "value": 0.84251968503937
          },
          {
            "number": 2,
            "time": 126.46683546666694,
            "value": 0.84251968503937
          },
          {
            "number": 2,
            "time": 126.46848020000027,
            "value": 0.8346456692913385
          },
          {
            "number": 2,
            "time": 126.47012493333361,
            "value": 0.8346456692913385
          },
          {
            "number": 2,
            "time": 126.47176966666694,
            "value": 0.8346456692913385
          },
          {
            "number": 2,
            "time": 126.47341440000028,
            "value": 0.8267716535433071
          },
          {
            "number": 2,
            "time": 126.47505913333362,
            "value": 0.8267716535433071
          },
          {
            "number": 2,
            "time": 126.47670386666695,
            "value": 0.8188976377952756
          },
          {
            "number": 2,
            "time": 126.47834860000029,
            "value": 0.8188976377952756
          },
          {
            "number": 2,
            "time": 126.47999333333362,
            "value": 0.8188976377952756
          },
          {
            "number": 2,
            "time": 126.48163806666696,
            "value": 0.8110236220472441
          },
          {
            "number": 2,
            "time": 126.4832828000003,
            "value": 0.8110236220472441
          },
          {
            "number": 2,
            "time": 126.48492753333363,
            "value": 0.8031496062992126
          },
          {
            "number": 2,
            "time": 126.48657226666697,
            "value": 0.8031496062992126
          },
          {
            "number": 2,
            "time": 126.4882170000003,
            "value": 0.8031496062992126
          },
          {
            "number": 2,
            "time": 126.48986173333364,
            "value": 0.7952755905511811
          },
          {
            "number": 2,
            "time": 126.49150646666698,
            "value": 0.7952755905511811
          },
          {
            "number": 2,
            "time": 126.49315120000031,
            "value": 0.7874015748031497
          },
          {
            "number": 2,
            "time": 126.49479593333365,
            "value": 0.7874015748031497
          },
          {
            "number": 2,
            "time": 126.49644066666698,
            "value": 0.7874015748031497
          },
          {
            "number": 2,
            "time": 126.49808540000032,
            "value": 0.7795275590551181
          },
          {
            "number": 2,
            "time": 126.49973013333366,
            "value": 0.7795275590551181
          },
          {
            "number": 2,
            "time": 126.50137486666699,
            "value": 0.7716535433070866
          },
          {
            "number": 2,
            "time": 126.50301960000033,
            "value": 0.7716535433070866
          },
          {
            "number": 2,
            "time": 126.50466433333366,
            "value": 0.7716535433070866
          },
          {
            "number": 2,
            "time": 126.506309066667,
            "value": 0.7637795275590551
          },
          {
            "number": 2,
            "time": 126.50795380000034,
            "value": 0.7637795275590551
          },
          {
            "number": 2,
            "time": 126.50959853333367,
            "value": 0.7559055118110236
          },
          {
            "number": 2,
            "time": 126.51124326666701,
            "value": 0.7559055118110236
          },
          {
            "number": 2,
            "time": 127.89446400000034,
            "value": 1
          },
          {
            "number": 2,
            "time": 127.89610873333368,
            "value": 1
          },
          {
            "number": 2,
            "time": 127.89775346666701,
            "value": 1
          },
          {
            "number": 2,
            "time": 127.89939820000035,
            "value": 1
          },
          {
            "number": 2,
            "time": 127.90104293333368,
            "value": 1
          },
          {
            "number": 2,
            "time": 127.90268766666702,
            "value": 1
          },
          {
            "number": 2,
            "time": 127.90433240000036,
            "value": 1
          },
          {
            "number": 2,
            "time": 127.90597713333369,
            "value": 1
          },
          {
            "number": 2,
            "time": 127.90762186666703,
            "value": 1
          },
          {
            "number": 2,
            "time": 127.90926660000036,
            "value": 1
          },
          {
            "number": 2,
            "time": 127.9109113333337,
            "value": 1
          },
          {
            "number": 2,
            "time": 127.91255606666704,
            "value": 1
          },
          {
            "number": 2,
            "time": 127.91420080000037,
            "value": 1
          },
          {
            "number": 2,
            "time": 127.91584553333371,
            "value": 1
          },
          {
            "number": 2,
            "time": 127.91749026666704,
            "value": 1
          },
          {
            "number": 2,
            "time": 127.91913500000038,
            "value": 1
          },
          {
            "number": 2,
            "time": 127.92077973333372,
            "value": 1
          },
          {
            "number": 2,
            "time": 127.92242446666705,
            "value": 1
          },
          {
            "number": 2,
            "time": 127.92406920000039,
            "value": 1
          },
          {
            "number": 2,
            "time": 127.92571393333372,
            "value": 1
          },
          {
            "number": 2,
            "time": 127.92735866666706,
            "value": 1
          },
          {
            "number": 2,
            "time": 127.9290034000004,
            "value": 1
          },
          {
            "number": 2,
            "time": 127.93064813333373,
            "value": 1
          },
          {
            "number": 2,
            "time": 127.93229286666707,
            "value": 1
          },
          {
            "number": 2,
            "time": 127.9339376000004,
            "value": 1
          },
          {
            "number": 2,
            "time": 127.93558233333374,
            "value": 1
          },
          {
            "number": 2,
            "time": 127.93722706666708,
            "value": 1
          },
          {
            "number": 2,
            "time": 127.93887180000041,
            "value": 1
          },
          {
            "number": 2,
            "time": 127.94051653333375,
            "value": 1
          },
          {
            "number": 2,
            "time": 127.94216126666709,
            "value": 1
          },
          {
            "number": 2,
            "time": 127.94380600000042,
            "value": 1
          },
          {
            "number": 2,
            "time": 127.94545073333376,
            "value": 1
          },
          {
            "number": 2,
            "time": 127.9470954666671,
            "value": 1
          },
          {
            "number": 2,
            "time": 127.94874020000043,
            "value": 1
          },
          {
            "number": 2,
            "time": 127.95038493333377,
            "value": 1
          },
          {
            "number": 2,
            "time": 127.9520296666671,
            "value": 1
          },
          {
            "number": 2,
            "time": 127.95367440000044,
            "value": 1
          },
          {
            "number": 2,
            "time": 127.95531913333377,
            "value": 1
          },
          {
            "number": 2,
            "time": 127.95696386666711,
            "value": 1
          },
          {
            "number": 2,
            "time": 127.95860860000045,
            "value": 1
          },
          {
            "number": 2,
            "time": 127.96025333333378,
            "value": 1
          },
          {
            "number": 2,
            "time": 127.96189806666712,
            "value": 1
          },
          {
            "number": 2,
            "time": 127.96354280000045,
            "value": 1
          },
          {
            "number": 2,
            "time": 127.96518753333379,
            "value": 0.9921259842519685
          },
          {
            "number": 2,
            "time": 127.96683226666713,
            "value": 0.9921259842519685
          },
          {
            "number": 2,
            "time": 127.96847700000046,
            "value": 0.9921259842519685
          },
          {
            "number": 2,
            "time": 127.9701217333338,
            "value": 0.984251968503937
          },
          {
            "number": 2,
            "time": 127.97176646666713,
            "value": 0.984251968503937
          },
          {
            "number": 2,
            "time": 127.97341120000047,
            "value": 0.9763779527559056
          },
          {
            "number": 2,
            "time": 127.9750559333338,
            "value": 0.9763779527559056
          },
          {
            "number": 2,
            "time": 127.97670066666714,
            "value": 0.9763779527559056
          },
          {
            "number": 2,
            "time": 127.97834540000048,
            "value": 0.968503937007874
          },
          {
            "number": 2,
            "time": 127.97999013333381,
            "value": 0.968503937007874
          },
          {
            "number": 2,
            "time": 127.98163486666715,
            "value": 0.9606299212598425
          },
          {
            "number": 2,
            "time": 127.98327960000049,
            "value": 0.9606299212598425
          },
          {
            "number": 2,
            "time": 127.98492433333382,
            "value": 0.9606299212598425
          },
          {
            "number": 2,
            "time": 127.98656906666716,
            "value": 0.952755905511811
          },
          {
            "number": 2,
            "time": 127.9882138000005,
            "value": 0.952755905511811
          },
          {
            "number": 2,
            "time": 127.98985853333383,
            "value": 0.9448818897637795
          },
          {
            "number": 2,
            "time": 127.99150326666717,
            "value": 0.9448818897637795
          },
          {
            "number": 2,
            "time": 127.9931480000005,
            "value": 0.9448818897637795
          },
          {
            "number": 2,
            "time": 127.99479273333384,
            "value": 0.937007874015748
          },
          {
            "number": 2,
            "time": 127.99643746666717,
            "value": 0.937007874015748
          },
          {
            "number": 2,
            "time": 127.99808220000051,
            "value": 0.9291338582677166
          },
          {
            "number": 2,
            "time": 127.99972693333385,
            "value": 0.9291338582677166
          },
          {
            "number": 2,
            "time": 128.00137166666718,
            "value": 0.9291338582677166
          },
          {
            "number": 2,
            "time": 128.00301640000052,
            "value": 0.9212598425196851
          },
          {
            "number": 2,
            "time": 128.00466113333385,
            "value": 0.9212598425196851
          },
          {
            "number": 2,
            "time": 128.0063058666672,
            "value": 0.9133858267716536
          },
          {
            "number": 2,
            "time": 128.00795060000053,
            "value": 0.9133858267716536
          },
          {
            "number": 2,
            "time": 128.00959533333386,
            "value": 0.9133858267716536
          },
          {
            "number": 2,
            "time": 128.0112400666672,
            "value": 0.905511811023622
          },
          {
            "number": 2,
            "time": 128.01288480000053,
            "value": 0.905511811023622
          },
          {
            "number": 2,
            "time": 128.01452953333387,
            "value": 0.8976377952755905
          },
          {
            "number": 2,
            "time": 128.0161742666672,
            "value": 0.8976377952755905
          },
          {
            "number": 2,
            "time": 128.01781900000054,
            "value": 0.8976377952755905
          },
          {
            "number": 2,
            "time": 128.01946373333388,
            "value": 0.889763779527559
          },
          {
            "number": 2,
            "time": 128.02110846666721,
            "value": 0.889763779527559
          },
          {
            "number": 2,
            "time": 128.02275320000055,
            "value": 0.8818897637795275
          },
          {
            "number": 2,
            "time": 128.0243979333339,
            "value": 0.8818897637795275
          },
          {
            "number": 2,
            "time": 128.02604266666722,
            "value": 0.8818897637795275
          },
          {
            "number": 2,
            "time": 128.02768740000056,
            "value": 0.8740157480314961
          },
          {
            "number": 2,
            "time": 128.0293321333339,
            "value": 0.8740157480314961
          },
          {
            "number": 2,
            "time": 128.03097686666723,
            "value": 0.8661417322834646
          },
          {
            "number": 2,
            "time": 128.03262160000057,
            "value": 0.8661417322834646
          },
          {
            "number": 2,
            "time": 128.0342663333339,
            "value": 0.8661417322834646
          },
          {
            "number": 2,
            "time": 128.03591106666724,
            "value": 0.8582677165354331
          },
          {
            "number": 2,
            "time": 128.03755580000058,
            "value": 0.8582677165354331
          },
          {
            "number": 2,
            "time": 128.0392005333339,
            "value": 0.8503937007874016
          },
          {
            "number": 2,
            "time": 128.04084526666725,
            "value": 0.8503937007874016
          },
          {
            "number": 2,
            "time": 128.04249000000058,
            "value": 0.8503937007874016
          },
          {
            "number": 2,
            "time": 128.04413473333392,
            "value": 0.84251968503937
          },
          {
            "number": 2,
            "time": 128.04577946666726,
            "value": 0.84251968503937
          },
          {
            "number": 2,
            "time": 128.0474242000006,
            "value": 0.8346456692913385
          },
          {
            "number": 2,
            "time": 128.04906893333393,
            "value": 0.8346456692913385
          },
          {
            "number": 2,
            "time": 128.05071366666726,
            "value": 0.8346456692913385
          },
          {
            "number": 2,
            "time": 128.0523584000006,
            "value": 0.8267716535433071
          },
          {
            "number": 2,
            "time": 128.05400313333394,
            "value": 0.8267716535433071
          },
          {
            "number": 2,
            "time": 128.05564786666727,
            "value": 0.8188976377952756
          },
          {
            "number": 2,
            "time": 128.0572926000006,
            "value": 0.8188976377952756
          },
          {
            "number": 2,
            "time": 128.05893733333394,
            "value": 0.8188976377952756
          },
          {
            "number": 2,
            "time": 128.06058206666728,
            "value": 0.8110236220472441
          },
          {
            "number": 2,
            "time": 128.06222680000062,
            "value": 0.8110236220472441
          },
          {
            "number": 2,
            "time": 128.06387153333395,
            "value": 0.8031496062992126
          },
          {
            "number": 2,
            "time": 128.0655162666673,
            "value": 0.8031496062992126
          },
          {
            "number": 2,
            "time": 128.06716100000062,
            "value": 0.8031496062992126
          },
          {
            "number": 2,
            "time": 128.06880573333396,
            "value": 0.7952755905511811
          },
          {
            "number": 2,
            "time": 128.0704504666673,
            "value": 0.7952755905511811
          },
          {
            "number": 2,
            "time": 128.07209520000063,
            "value": 0.7874015748031497
          },
          {
            "number": 2,
            "time": 128.07373993333397,
            "value": 0.7874015748031497
          },
          {
            "number": 2,
            "time": 128.0753846666673,
            "value": 0.7874015748031497
          },
          {
            "number": 2,
            "time": 128.07702940000064,
            "value": 0.7795275590551181
          },
          {
            "number": 2,
            "time": 128.07867413333398,
            "value": 0.7795275590551181
          },
          {
            "number": 2,
            "time": 128.0803188666673,
            "value": 0.7716535433070866
          },
          {
            "number": 2,
            "time": 128.08196360000065,
            "value": 0.7716535433070866
          },
          {
            "number": 2,
            "time": 128.08360833333398,
            "value": 0.7716535433070866
          },
          {
            "number": 2,
            "time": 128.08525306666732,
            "value": 0.7637795275590551
          },
          {
            "number": 2,
            "time": 128.08689780000066,
            "value": 0.7637795275590551
          },
          {
            "number": 2,
            "time": 128.088542533334,
            "value": 0.7559055118110236
          },
          {
            "number": 2,
            "time": 128.09018726666733,
            "value": 0.7559055118110236
          },
          {
            "number": 2,
            "time": 129.47340800000066,
            "value": 0.7559055118110236
          },
          {
            "number": 2,
            "time": 130.65761600000067,
            "value": 0.7559055118110236
          },
          {
            "number": 2,
            "time": 130.85498400000068,
            "value": 0.7559055118110236
          },
          {
            "number": 2,
            "time": 131.0523520000007,
            "value": 0.7559055118110236
          },
          {
            "number": 2,
            "time": 132.6312960000007,
            "value": 0.6299212598425197
          },
          {
            "number": 2,
            "time": 132.6312960000007,
            "value": 0.9448818897637795
          },
          {
            "number": 2,
            "time": 132.63294073333404,
            "value": 0.937007874015748
          },
          {
            "number": 2,
            "time": 132.63458546666737,
            "value": 0.937007874015748
          },
          {
            "number": 2,
            "time": 132.6362302000007,
            "value": 0.937007874015748
          },
          {
            "number": 2,
            "time": 132.63787493333405,
            "value": 0.9291338582677166
          },
          {
            "number": 2,
            "time": 132.63951966666738,
            "value": 0.9291338582677166
          },
          {
            "number": 2,
            "time": 132.64116440000072,
            "value": 0.9291338582677166
          },
          {
            "number": 2,
            "time": 132.64280913333405,
            "value": 0.9212598425196851
          },
          {
            "number": 2,
            "time": 132.6444538666674,
            "value": 0.9212598425196851
          },
          {
            "number": 2,
            "time": 132.64609860000073,
            "value": 0.9212598425196851
          },
          {
            "number": 2,
            "time": 132.64774333333406,
            "value": 0.9133858267716536
          },
          {
            "number": 2,
            "time": 132.6493880666674,
            "value": 0.9133858267716536
          },
          {
            "number": 2,
            "time": 132.65103280000073,
            "value": 0.9133858267716536
          },
          {
            "number": 2,
            "time": 132.65267753333407,
            "value": 0.905511811023622
          },
          {
            "number": 2,
            "time": 132.6543222666674,
            "value": 0.905511811023622
          },
          {
            "number": 2,
            "time": 132.65596700000074,
            "value": 0.905511811023622
          },
          {
            "number": 2,
            "time": 132.65761173333408,
            "value": 0.8976377952755905
          },
          {
            "number": 2,
            "time": 132.65925646666741,
            "value": 0.8976377952755905
          },
          {
            "number": 2,
            "time": 132.66090120000075,
            "value": 0.8976377952755905
          },
          {
            "number": 2,
            "time": 132.6625459333341,
            "value": 0.889763779527559
          },
          {
            "number": 2,
            "time": 132.66419066666742,
            "value": 0.889763779527559
          },
          {
            "number": 2,
            "time": 132.66583540000076,
            "value": 0.889763779527559
          },
          {
            "number": 2,
            "time": 132.6674801333341,
            "value": 0.8818897637795275
          },
          {
            "number": 2,
            "time": 132.66912486666743,
            "value": 0.8818897637795275
          },
          {
            "number": 2,
            "time": 132.67076960000077,
            "value": 0.8818897637795275
          },
          {
            "number": 2,
            "time": 132.6724143333341,
            "value": 0.8740157480314961
          },
          {
            "number": 2,
            "time": 132.67405906666744,
            "value": 0.8740157480314961
          },
          {
            "number": 2,
            "time": 132.67570380000078,
            "value": 0.8740157480314961
          },
          {
            "number": 2,
            "time": 132.6773485333341,
            "value": 0.8661417322834646
          },
          {
            "number": 2,
            "time": 132.67899326666745,
            "value": 0.8661417322834646
          },
          {
            "number": 2,
            "time": 132.68063800000078,
            "value": 0.8661417322834646
          },
          {
            "number": 2,
            "time": 132.68228273333412,
            "value": 0.8582677165354331
          },
          {
            "number": 2,
            "time": 132.68392746666746,
            "value": 0.8582677165354331
          },
          {
            "number": 2,
            "time": 132.6855722000008,
            "value": 0.8582677165354331
          },
          {
            "number": 2,
            "time": 132.68721693333413,
            "value": 0.8503937007874016
          },
          {
            "number": 2,
            "time": 132.68886166666746,
            "value": 0.8503937007874016
          },
          {
            "number": 2,
            "time": 132.6905064000008,
            "value": 0.8503937007874016
          },
          {
            "number": 2,
            "time": 132.69215113333414,
            "value": 0.84251968503937
          },
          {
            "number": 2,
            "time": 132.69379586666747,
            "value": 0.84251968503937
          },
          {
            "number": 2,
            "time": 132.6954406000008,
            "value": 0.84251968503937
          },
          {
            "number": 2,
            "time": 132.69708533333414,
            "value": 0.8346456692913385
          },
          {
            "number": 2,
            "time": 132.69873006666748,
            "value": 0.8346456692913385
          },
          {
            "number": 2,
            "time": 132.70037480000082,
            "value": 0.8346456692913385
          },
          {
            "number": 2,
            "time": 132.70201953333415,
            "value": 0.8267716535433071
          },
          {
            "number": 2,
            "time": 132.7036642666675,
            "value": 0.8267716535433071
          },
          {
            "number": 2,
            "time": 132.70530900000082,
            "value": 0.8267716535433071
          },
          {
            "number": 2,
            "time": 132.70695373333416,
            "value": 0.8188976377952756
          },
          {
            "number": 2,
            "time": 132.7085984666675,
            "value": 0.8188976377952756
          },
          {
            "number": 2,
            "time": 132.71024320000083,
            "value": 0.8188976377952756
          },
          {
            "number": 2,
            "time": 132.71188793333417,
            "value": 0.8110236220472441
          },
          {
            "number": 2,
            "time": 132.7135326666675,
            "value": 0.8110236220472441
          },
          {
            "number": 2,
            "time": 132.71517740000084,
            "value": 0.8110236220472441
          },
          {
            "number": 2,
            "time": 132.71682213333418,
            "value": 0.8031496062992126
          },
          {
            "number": 2,
            "time": 132.7184668666675,
            "value": 0.8031496062992126
          },
          {
            "number": 2,
            "time": 132.72011160000085,
            "value": 0.8031496062992126
          },
          {
            "number": 2,
            "time": 132.72175633333418,
            "value": 0.7952755905511811
          },
          {
            "number": 2,
            "time": 132.72340106666752,
            "value": 0.7952755905511811
          },
          {
            "number": 2,
            "time": 132.72504580000086,
            "value": 0.7952755905511811
          },
          {
            "number": 2,
            "time": 132.7266905333342,
            "value": 0.7874015748031497
          },
          {
            "number": 2,
            "time": 132.72833526666753,
            "value": 0.7874015748031497
          },
          {
            "number": 2,
            "time": 132.72998000000086,
            "value": 0.7874015748031497
          },
          {
            "number": 2,
            "time": 132.7316247333342,
            "value": 0.7795275590551181
          },
          {
            "number": 2,
            "time": 132.73326946666754,
            "value": 0.7795275590551181
          },
          {
            "number": 2,
            "time": 132.73491420000087,
            "value": 0.7795275590551181
          },
          {
            "number": 2,
            "time": 132.7365589333342,
            "value": 0.7716535433070866
          },
          {
            "number": 2,
            "time": 132.73820366666754,
            "value": 0.7716535433070866
          },
          {
            "number": 2,
            "time": 132.73984840000088,
            "value": 0.7716535433070866
          },
          {
            "number": 2,
            "time": 132.74149313333422,
            "value": 0.7637795275590551
          },
          {
            "number": 2,
            "time": 132.74313786666755,
            "value": 0.7637795275590551
          },
          {
            "number": 2,
            "time": 132.7447826000009,
            "value": 0.7637795275590551
          },
          {
            "number": 2,
            "time": 132.74642733333422,
            "value": 0.7559055118110236
          },
          {
            "number": 2,
            "time": 132.74807206666756,
            "value": 0.7559055118110236
          },
          {
            "number": 2,
            "time": 132.7497168000009,
            "value": 0.7559055118110236
          },
          {
            "number": 2,
            "time": 132.75136153333423,
            "value": 0.7480314960629921
          },
          {
            "number": 2,
            "time": 132.75300626666757,
            "value": 0.7480314960629921
          },
          {
            "number": 2,
            "time": 132.7546510000009,
            "value": 0.7480314960629921
          },
          {
            "number": 2,
            "time": 132.75629573333424,
            "value": 0.7401574803149606
          },
          {
            "number": 2,
            "time": 132.75794046666758,
            "value": 0.7401574803149606
          },
          {
            "number": 2,
            "time": 132.7595852000009,
            "value": 0.7401574803149606
          },
          {
            "number": 2,
            "time": 132.76122993333425,
            "value": 0.7322834645669292
          },
          {
            "number": 2,
            "time": 132.76287466666759,
            "value": 0.7322834645669292
          },
          {
            "number": 2,
            "time": 132.76451940000092,
            "value": 0.7322834645669292
          },
          {
            "number": 2,
            "time": 132.76616413333426,
            "value": 0.7244094488188977
          },
          {
            "number": 2,
            "time": 132.7678088666676,
            "value": 0.7244094488188977
          },
          {
            "number": 2,
            "time": 132.76945360000093,
            "value": 0.7244094488188977
          },
          {
            "number": 2,
            "time": 132.77109833333427,
            "value": 0.7165354330708661
          },
          {
            "number": 2,
            "time": 132.7727430666676,
            "value": 0.7165354330708661
          },
          {
            "number": 2,
            "time": 132.77438780000094,
            "value": 0.7165354330708661
          },
          {
            "number": 2,
            "time": 132.77603253333427,
            "value": 0.7086614173228346
          },
          {
            "number": 2,
            "time": 132.7776772666676,
            "value": 0.7086614173228346
          },
          {
            "number": 2,
            "time": 132.77932200000095,
            "value": 0.7086614173228346
          },
          {
            "number": 2,
            "time": 132.78096673333428,
            "value": 0.7007874015748031
          },
          {
            "number": 2,
            "time": 132.78261146666762,
            "value": 0.7007874015748031
          },
          {
            "number": 2,
            "time": 132.78425620000095,
            "value": 0.7007874015748031
          },
          {
            "number": 2,
            "time": 132.7859009333343,
            "value": 0.6929133858267716
          },
          {
            "number": 2,
            "time": 132.78754566666763,
            "value": 0.6929133858267716
          },
          {
            "number": 2,
            "time": 132.78919040000096,
            "value": 0.6929133858267716
          },
          {
            "number": 2,
            "time": 132.7908351333343,
            "value": 0.6850393700787402
          },
          {
            "number": 2,
            "time": 132.79247986666763,
            "value": 0.6850393700787402
          },
          {
            "number": 2,
            "time": 132.79412460000097,
            "value": 0.6850393700787402
          },
          {
            "number": 2,
            "time": 132.7957693333343,
            "value": 0.6771653543307087
          },
          {
            "number": 2,
            "time": 132.79741406666764,
            "value": 0.6771653543307087
          },
          {
            "number": 2,
            "time": 132.79905880000098,
            "value": 0.6771653543307087
          },
          {
            "number": 2,
            "time": 132.8007035333343,
            "value": 0.6692913385826772
          },
          {
            "number": 2,
            "time": 132.80234826666765,
            "value": 0.6692913385826772
          },
          {
            "number": 2,
            "time": 132.803993000001,
            "value": 0.6692913385826772
          },
          {
            "number": 2,
            "time": 132.80563773333432,
            "value": 0.6614173228346457
          },
          {
            "number": 2,
            "time": 132.80728246666766,
            "value": 0.6614173228346457
          },
          {
            "number": 2,
            "time": 132.808927200001,
            "value": 0.6614173228346457
          },
          {
            "number": 2,
            "time": 132.81057193333433,
            "value": 0.6535433070866141
          },
          {
            "number": 2,
            "time": 132.81221666666767,
            "value": 0.6535433070866141
          },
          {
            "number": 2,
            "time": 132.813861400001,
            "value": 0.6535433070866141
          },
          {
            "number": 2,
            "time": 132.81550613333434,
            "value": 0.6456692913385826
          },
          {
            "number": 2,
            "time": 132.81715086666767,
            "value": 0.6456692913385826
          },
          {
            "number": 2,
            "time": 132.818795600001,
            "value": 0.6456692913385826
          },
          {
            "number": 2,
            "time": 132.82044033333435,
            "value": 0.6377952755905512
          },
          {
            "number": 2,
            "time": 132.82208506666768,
            "value": 0.6377952755905512
          },
          {
            "number": 2,
            "time": 132.82372980000102,
            "value": 0.6377952755905512
          },
          {
            "number": 2,
            "time": 132.82537453333435,
            "value": 0.6299212598425197
          },
          {
            "number": 2,
            "time": 132.8270192666677,
            "value": 0.6299212598425197
          },
          {
            "number": 2,
            "time": 133.02603200000104,
            "value": 0.6299212598425197
          },
          {
            "number": 2,
            "time": 133.42076800000103,
            "value": 0.6299212598425197
          },
          {
            "number": 2,
            "time": 133.81550400000103,
            "value": 0.6299212598425197
          },
          {
            "number": 2,
            "time": 134.21024000000102,
            "value": 0.6299212598425197
          },
          {
            "number": 2,
            "time": 134.60497600000102,
            "value": 0.6299212598425197
          },
          {
            "number": 2,
            "time": 134.999712000001,
            "value": 0.6299212598425197
          },
          {
            "number": 2,
            "time": 135.394448000001,
            "value": 0.6299212598425197
          },
          {
            "number": 2,
            "time": 135.789184000001,
            "value": 0.6299212598425197
          },
          {
            "number": 2,
            "time": 136.183920000001,
            "value": 0.6299212598425197
          },
          {
            "number": 2,
            "time": 136.578656000001,
            "value": 0.6299212598425197
          },
          {
            "number": 2,
            "time": 136.97339200000098,
            "value": 0.6299212598425197
          },
          {
            "number": 2,
            "time": 137.36812800000098,
            "value": 0.6299212598425197
          },
          {
            "number": 2,
            "time": 137.76286400000097,
            "value": 0.6299212598425197
          },
          {
            "number": 2,
            "time": 138.15760000000097,
            "value": 0.6299212598425197
          },
          {
            "number": 2,
            "time": 138.55233600000096,
            "value": 0.6299212598425197
          },
          {
            "number": 2,
            "time": 167.36806400000097,
            "value": 0.6299212598425197
          },
          {
            "number": 2,
            "time": 167.76280000000096,
            "value": 0.6299212598425197
          },
          {
            "number": 2,
            "time": 168.15753600000096,
            "value": 0.6299212598425197
          },
          {
            "number": 2,
            "time": 168.55227200000095,
            "value": 0.6299212598425197
          },
          {
            "number": 2,
            "time": 168.94700800000095,
            "value": 0.6299212598425197
          },
          {
            "number": 2,
            "time": 169.34174400000094,
            "value": 0.6299212598425197
          },
          {
            "number": 2,
            "time": 169.73648000000094,
            "value": 0.6299212598425197
          },
          {
            "number": 2,
            "time": 170.13121600000093,
            "value": 0.6299212598425197
          },
          {
            "number": 2,
            "time": 170.52595200000093,
            "value": 0.6299212598425197
          },
          {
            "number": 2,
            "time": 170.92068800000092,
            "value": 0.6299212598425197
          },
          {
            "number": 2,
            "time": 171.31542400000092,
            "value": 0.6299212598425197
          },
          {
            "number": 2,
            "time": 171.7101600000009,
            "value": 0.6299212598425197
          },
          {
            "number": 2,
            "time": 172.1048960000009,
            "value": 0.6299212598425197
          },
          {
            "number": 2,
            "time": 172.4996320000009,
            "value": 0.6299212598425197
          },
          {
            "number": 2,
            "time": 172.8943680000009,
            "value": 0.6299212598425197
          },
          {
            "number": 2,
            "time": 173.2891040000009,
            "value": 0.6299212598425197
          },
          {
            "number": 2,
            "time": 173.68384000000088,
            "value": 0.6299212598425197
          },
          {
            "number": 2,
            "time": 174.07857600000088,
            "value": 0.6299212598425197
          },
          {
            "number": 2,
            "time": 174.47331200000087,
            "value": 0.6299212598425197
          },
          {
            "number": 2,
            "time": 174.86804800000087,
            "value": 0.6299212598425197
          },
          {
            "number": 2,
            "time": 175.26278400000086,
            "value": 0.6299212598425197
          },
          {
            "number": 2,
            "time": 175.65752000000086,
            "value": 0.6299212598425197
          },
          {
            "number": 2,
            "time": 176.05225600000085,
            "value": 0.6299212598425197
          },
          {
            "number": 2,
            "time": 176.44699200000085,
            "value": 0.6299212598425197
          },
          {
            "number": 2,
            "time": 176.84172800000084,
            "value": 0.6299212598425197
          },
          {
            "number": 2,
            "time": 177.23646400000084,
            "value": 0.6299212598425197
          },
          {
            "number": 2,
            "time": 177.63120000000083,
            "value": 0.6299212598425197
          },
          {
            "number": 2,
            "time": 178.02593600000083,
            "value": 0.6299212598425197
          },
          {
            "number": 2,
            "time": 178.42067200000082,
            "value": 0.6299212598425197
          },
          {
            "number": 2,
            "time": 178.81540800000082,
            "value": 0.6299212598425197
          },
          {
            "number": 2,
            "time": 179.2101440000008,
            "value": 0.6299212598425197
          },
          {
            "number": 2,
            "time": 179.6048800000008,
            "value": 0.6299212598425197
          },
          {
            "number": 2,
            "time": 179.9996160000008,
            "value": 0.6299212598425197
          },
          {
            "number": 2,
            "time": 180.3943520000008,
            "value": 0.6299212598425197
          },
          {
            "number": 2,
            "time": 180.5670490000008,
            "value": 0.6377952755905512
          },
          {
            "number": 2,
            "time": 180.7890880000008,
            "value": 0.6377952755905512
          },
          {
            "number": 2,
            "time": 181.1344820000008,
            "value": 0.6456692913385826
          },
          {
            "number": 2,
            "time": 181.18382400000078,
            "value": 0.6456692913385826
          },
          {
            "number": 2,
            "time": 181.57856000000078,
            "value": 0.6456692913385826
          },
          {
            "number": 2,
            "time": 181.70191500000078,
            "value": 0.6535433070866141
          },
          {
            "number": 2,
            "time": 181.97329600000077,
            "value": 0.6535433070866141
          },
          {
            "number": 2,
            "time": 182.26934800000078,
            "value": 0.6614173228346457
          },
          {
            "number": 2,
            "time": 182.36803200000077,
            "value": 0.6614173228346457
          },
          {
            "number": 2,
            "time": 182.76276800000076,
            "value": 0.6614173228346457
          },
          {
            "number": 2,
            "time": 182.83678100000077,
            "value": 0.6692913385826772
          },
          {
            "number": 2,
            "time": 183.15750400000076,
            "value": 0.6692913385826772
          },
          {
            "number": 2,
            "time": 183.40421400000076,
            "value": 0.6771653543307087
          },
          {
            "number": 2,
            "time": 183.55224000000075,
            "value": 0.6771653543307087
          },
          {
            "number": 2,
            "time": 183.94697600000075,
            "value": 0.6771653543307087
          },
          {
            "number": 2,
            "time": 183.97164700000076,
            "value": 0.6850393700787402
          },
          {
            "number": 2,
            "time": 184.34171200000074,
            "value": 0.6850393700787402
          },
          {
            "number": 2,
            "time": 184.53908000000075,
            "value": 0.6929133858267716
          },
          {
            "number": 2,
            "time": 184.73644800000076,
            "value": 0.6929133858267716
          },
          {
            "number": 2,
            "time": 185.10651300000077,
            "value": 0.7007874015748031
          },
          {
            "number": 2,
            "time": 185.1311840000008,
            "value": 0.7007874015748031
          },
          {
            "number": 2,
            "time": 185.52592000000078,
            "value": 0.7007874015748031
          },
          {
            "number": 2,
            "time": 185.67394600000077,
            "value": 0.7086614173228346
          },
          {
            "number": 2,
            "time": 185.92065600000075,
            "value": 0.7086614173228346
          },
          {
            "number": 2,
            "time": 186.24137900000076,
            "value": 0.7165354330708661
          },
          {
            "number": 2,
            "time": 186.31539200000077,
            "value": 0.7165354330708661
          },
          {
            "number": 2,
            "time": 186.71012800000076,
            "value": 0.7165354330708661
          },
          {
            "number": 2,
            "time": 186.80881200000076,
            "value": 0.7244094488188977
          },
          {
            "number": 2,
            "time": 187.10486400000073,
            "value": 0.7244094488188977
          },
          {
            "number": 2,
            "time": 187.37624500000075,
            "value": 0.7322834645669292
          },
          {
            "number": 2,
            "time": 187.49960000000075,
            "value": 0.7322834645669292
          },
          {
            "number": 2,
            "time": 187.89433600000075,
            "value": 0.7322834645669292
          },
          {
            "number": 2,
            "time": 187.94367800000074,
            "value": 0.7401574803149606
          },
          {
            "number": 2,
            "time": 188.28907200000074,
            "value": 0.7401574803149606
          },
          {
            "number": 2,
            "time": 188.51111100000074,
            "value": 0.7480314960629921
          },
          {
            "number": 2,
            "time": 188.68380800000074,
            "value": 0.7480314960629921
          },
          {
            "number": 2,
            "time": 189.07854400000073,
            "value": 0.7559055118110236
          },
          {
            "number": 2,
            "time": 189.47328000000073,
            "value": 0.7559055118110236
          },
          {
            "number": 2,
            "time": 189.47328000000073,
            "value": 1
          },
          {
            "number": 2,
            "time": 189.47492473333406,
            "value": 1
          },
          {
            "number": 2,
            "time": 189.4765694666674,
            "value": 1
          },
          {
            "number": 2,
            "time": 189.47821420000074,
            "value": 1
          },
          {
            "number": 2,
            "time": 189.47985893333407,
            "value": 1
          },
          {
            "number": 2,
            "time": 189.4815036666674,
            "value": 1
          },
          {
            "number": 2,
            "time": 189.48314840000074,
            "value": 1
          },
          {
            "number": 2,
            "time": 189.48479313333408,
            "value": 1
          },
          {
            "number": 2,
            "time": 189.48643786666742,
            "value": 1
          },
          {
            "number": 2,
            "time": 189.48808260000075,
            "value": 1
          },
          {
            "number": 2,
            "time": 189.4897273333341,
            "value": 1
          },
          {
            "number": 2,
            "time": 189.49137206666742,
            "value": 1
          },
          {
            "number": 2,
            "time": 189.49301680000076,
            "value": 1
          },
          {
            "number": 2,
            "time": 189.4946615333341,
            "value": 1
          },
          {
            "number": 2,
            "time": 189.49630626666743,
            "value": 1
          },
          {
            "number": 2,
            "time": 189.49795100000077,
            "value": 1
          },
          {
            "number": 2,
            "time": 189.4995957333341,
            "value": 1
          },
          {
            "number": 2,
            "time": 189.50124046666744,
            "value": 1
          },
          {
            "number": 2,
            "time": 189.50288520000078,
            "value": 1
          },
          {
            "number": 2,
            "time": 189.5045299333341,
            "value": 1
          },
          {
            "number": 2,
            "time": 189.50617466666745,
            "value": 1
          },
          {
            "number": 2,
            "time": 189.50781940000078,
            "value": 1
          },
          {
            "number": 2,
            "time": 189.50946413333412,
            "value": 1
          },
          {
            "number": 2,
            "time": 189.51110886666746,
            "value": 1
          },
          {
            "number": 2,
            "time": 189.5127536000008,
            "value": 1
          },
          {
            "number": 2,
            "time": 189.51439833333413,
            "value": 1
          },
          {
            "number": 2,
            "time": 189.51604306666746,
            "value": 1
          },
          {
            "number": 2,
            "time": 189.5176878000008,
            "value": 1
          },
          {
            "number": 2,
            "time": 189.51933253333414,
            "value": 1
          },
          {
            "number": 2,
            "time": 189.52097726666747,
            "value": 1
          },
          {
            "number": 2,
            "time": 189.5226220000008,
            "value": 1
          },
          {
            "number": 2,
            "time": 189.52426673333414,
            "value": 1
          },
          {
            "number": 2,
            "time": 189.52591146666748,
            "value": 1
          },
          {
            "number": 2,
            "time": 189.52755620000082,
            "value": 1
          },
          {
            "number": 2,
            "time": 189.52920093333415,
            "value": 1
          },
          {
            "number": 2,
            "time": 189.5308456666675,
            "value": 1
          },
          {
            "number": 2,
            "time": 189.53249040000082,
            "value": 1
          },
          {
            "number": 2,
            "time": 189.53413513333416,
            "value": 1
          },
          {
            "number": 2,
            "time": 189.5357798666675,
            "value": 1
          },
          {
            "number": 2,
            "time": 189.53742460000083,
            "value": 1
          },
          {
            "number": 2,
            "time": 189.53906933333417,
            "value": 1
          },
          {
            "number": 2,
            "time": 189.5407140666675,
            "value": 1
          },
          {
            "number": 2,
            "time": 189.54235880000084,
            "value": 1
          },
          {
            "number": 2,
            "time": 189.54400353333418,
            "value": 0.9921259842519685
          },
          {
            "number": 2,
            "time": 189.5456482666675,
            "value": 0.9921259842519685
          },
          {
            "number": 2,
            "time": 189.54729300000085,
            "value": 0.9921259842519685
          },
          {
            "number": 2,
            "time": 189.54893773333418,
            "value": 0.984251968503937
          },
          {
            "number": 2,
            "time": 189.55058246666752,
            "value": 0.984251968503937
          },
          {
            "number": 2,
            "time": 189.55222720000086,
            "value": 0.9763779527559056
          },
          {
            "number": 2,
            "time": 189.5538719333342,
            "value": 0.9763779527559056
          },
          {
            "number": 2,
            "time": 189.55551666666753,
            "value": 0.9763779527559056
          },
          {
            "number": 2,
            "time": 189.55716140000087,
            "value": 0.968503937007874
          },
          {
            "number": 2,
            "time": 189.5588061333342,
            "value": 0.968503937007874
          },
          {
            "number": 2,
            "time": 189.56045086666754,
            "value": 0.9606299212598425
          },
          {
            "number": 2,
            "time": 189.56209560000087,
            "value": 0.9606299212598425
          },
          {
            "number": 2,
            "time": 189.5637403333342,
            "value": 0.9606299212598425
          },
          {
            "number": 2,
            "time": 189.56538506666755,
            "value": 0.952755905511811
          },
          {
            "number": 2,
            "time": 189.56702980000088,
            "value": 0.952755905511811
          },
          {
            "number": 2,
            "time": 189.56867453333422,
            "value": 0.9448818897637795
          },
          {
            "number": 2,
            "time": 189.57031926666755,
            "value": 0.9448818897637795
          },
          {
            "number": 2,
            "time": 189.5719640000009,
            "value": 0.9448818897637795
          },
          {
            "number": 2,
            "time": 189.57360873333423,
            "value": 0.937007874015748
          },
          {
            "number": 2,
            "time": 189.57525346666756,
            "value": 0.937007874015748
          },
          {
            "number": 2,
            "time": 189.5768982000009,
            "value": 0.9291338582677166
          },
          {
            "number": 2,
            "time": 189.57854293333423,
            "value": 0.9291338582677166
          },
          {
            "number": 2,
            "time": 189.58018766666757,
            "value": 0.9291338582677166
          },
          {
            "number": 2,
            "time": 189.5818324000009,
            "value": 0.9212598425196851
          },
          {
            "number": 2,
            "time": 189.58347713333424,
            "value": 0.9212598425196851
          },
          {
            "number": 2,
            "time": 189.58512186666758,
            "value": 0.9133858267716536
          },
          {
            "number": 2,
            "time": 189.5867666000009,
            "value": 0.9133858267716536
          },
          {
            "number": 2,
            "time": 189.58841133333425,
            "value": 0.9133858267716536
          },
          {
            "number": 2,
            "time": 189.5900560666676,
            "value": 0.905511811023622
          },
          {
            "number": 2,
            "time": 189.59170080000092,
            "value": 0.905511811023622
          },
          {
            "number": 2,
            "time": 189.59334553333426,
            "value": 0.8976377952755905
          },
          {
            "number": 2,
            "time": 189.5949902666676,
            "value": 0.8976377952755905
          },
          {
            "number": 2,
            "time": 189.59663500000093,
            "value": 0.8976377952755905
          },
          {
            "number": 2,
            "time": 189.59827973333427,
            "value": 0.889763779527559
          },
          {
            "number": 2,
            "time": 189.5999244666676,
            "value": 0.889763779527559
          },
          {
            "number": 2,
            "time": 189.60156920000094,
            "value": 0.8818897637795275
          },
          {
            "number": 2,
            "time": 189.60321393333427,
            "value": 0.8818897637795275
          },
          {
            "number": 2,
            "time": 189.6048586666676,
            "value": 0.8818897637795275
          },
          {
            "number": 2,
            "time": 189.60650340000095,
            "value": 0.8740157480314961
          },
          {
            "number": 2,
            "time": 189.60814813333428,
            "value": 0.8740157480314961
          },
          {
            "number": 2,
            "time": 189.60979286666762,
            "value": 0.8661417322834646
          },
          {
            "number": 2,
            "time": 189.61143760000095,
            "value": 0.8661417322834646
          },
          {
            "number": 2,
            "time": 189.6130823333343,
            "value": 0.8661417322834646
          },
          {
            "number": 2,
            "time": 189.61472706666763,
            "value": 0.8582677165354331
          },
          {
            "number": 2,
            "time": 189.61637180000096,
            "value": 0.8582677165354331
          },
          {
            "number": 2,
            "time": 189.6180165333343,
            "value": 0.8503937007874016
          },
          {
            "number": 2,
            "time": 189.61966126666763,
            "value": 0.8503937007874016
          },
          {
            "number": 2,
            "time": 189.62130600000097,
            "value": 0.8503937007874016
          },
          {
            "number": 2,
            "time": 189.6229507333343,
            "value": 0.84251968503937
          },
          {
            "number": 2,
            "time": 189.62459546666764,
            "value": 0.84251968503937
          },
          {
            "number": 2,
            "time": 189.62624020000098,
            "value": 0.8346456692913385
          },
          {
            "number": 2,
            "time": 189.62788493333431,
            "value": 0.8346456692913385
          },
          {
            "number": 2,
            "time": 189.62952966666765,
            "value": 0.8346456692913385
          },
          {
            "number": 2,
            "time": 189.631174400001,
            "value": 0.8267716535433071
          },
          {
            "number": 2,
            "time": 189.63281913333432,
            "value": 0.8267716535433071
          },
          {
            "number": 2,
            "time": 189.63446386666766,
            "value": 0.8188976377952756
          },
          {
            "number": 2,
            "time": 189.636108600001,
            "value": 0.8188976377952756
          },
          {
            "number": 2,
            "time": 189.63775333333433,
            "value": 0.8188976377952756
          },
          {
            "number": 2,
            "time": 189.63939806666767,
            "value": 0.8110236220472441
          },
          {
            "number": 2,
            "time": 189.641042800001,
            "value": 0.8110236220472441
          },
          {
            "number": 2,
            "time": 189.64268753333434,
            "value": 0.8031496062992126
          },
          {
            "number": 2,
            "time": 189.64433226666767,
            "value": 0.8031496062992126
          },
          {
            "number": 2,
            "time": 189.645977000001,
            "value": 0.8031496062992126
          },
          {
            "number": 2,
            "time": 189.64762173333435,
            "value": 0.7952755905511811
          },
          {
            "number": 2,
            "time": 189.64926646666768,
            "value": 0.7952755905511811
          },
          {
            "number": 2,
            "time": 189.65091120000102,
            "value": 0.7874015748031497
          },
          {
            "number": 2,
            "time": 189.65255593333436,
            "value": 0.7874015748031497
          },
          {
            "number": 2,
            "time": 189.6542006666677,
            "value": 0.7874015748031497
          },
          {
            "number": 2,
            "time": 189.65584540000103,
            "value": 0.7795275590551181
          },
          {
            "number": 2,
            "time": 189.65749013333436,
            "value": 0.7795275590551181
          },
          {
            "number": 2,
            "time": 189.6591348666677,
            "value": 0.7716535433070866
          },
          {
            "number": 2,
            "time": 189.66077960000104,
            "value": 0.7716535433070866
          },
          {
            "number": 2,
            "time": 189.66242433333437,
            "value": 0.7716535433070866
          },
          {
            "number": 2,
            "time": 189.6640690666677,
            "value": 0.7637795275590551
          },
          {
            "number": 2,
            "time": 189.66571380000104,
            "value": 0.7637795275590551
          },
          {
            "number": 2,
            "time": 189.66735853333438,
            "value": 0.7559055118110236
          },
          {
            "number": 2,
            "time": 189.66900326666772,
            "value": 0.7559055118110236
          },
          {
            "number": 2,
            "time": 190.26275200000106,
            "value": 1
          },
          {
            "number": 2,
            "time": 190.2643967333344,
            "value": 1
          },
          {
            "number": 2,
            "time": 190.26604146666773,
            "value": 1
          },
          {
            "number": 2,
            "time": 190.26768620000107,
            "value": 1
          },
          {
            "number": 2,
            "time": 190.2693309333344,
            "value": 1
          },
          {
            "number": 2,
            "time": 190.27097566666774,
            "value": 1
          },
          {
            "number": 2,
            "time": 190.27262040000107,
            "value": 1
          },
          {
            "number": 2,
            "time": 190.2742651333344,
            "value": 1
          },
          {
            "number": 2,
            "time": 190.27590986666775,
            "value": 1
          },
          {
            "number": 2,
            "time": 190.27755460000108,
            "value": 1
          },
          {
            "number": 2,
            "time": 190.27919933333442,
            "value": 1
          },
          {
            "number": 2,
            "time": 190.28084406666775,
            "value": 1
          },
          {
            "number": 2,
            "time": 190.2824888000011,
            "value": 1
          },
          {
            "number": 2,
            "time": 190.28413353333443,
            "value": 1
          },
          {
            "number": 2,
            "time": 190.28577826666776,
            "value": 1
          },
          {
            "number": 2,
            "time": 190.2874230000011,
            "value": 1
          },
          {
            "number": 2,
            "time": 190.28906773333443,
            "value": 1
          },
          {
            "number": 2,
            "time": 190.29071246666777,
            "value": 1
          },
          {
            "number": 2,
            "time": 190.2923572000011,
            "value": 1
          },
          {
            "number": 2,
            "time": 190.29400193333444,
            "value": 1
          },
          {
            "number": 2,
            "time": 190.29564666666778,
            "value": 1
          },
          {
            "number": 2,
            "time": 190.29729140000111,
            "value": 1
          },
          {
            "number": 2,
            "time": 190.29893613333445,
            "value": 1
          },
          {
            "number": 2,
            "time": 190.3005808666678,
            "value": 1
          },
          {
            "number": 2,
            "time": 190.30222560000112,
            "value": 1
          },
          {
            "number": 2,
            "time": 190.30387033333446,
            "value": 1
          },
          {
            "number": 2,
            "time": 190.3055150666678,
            "value": 1
          },
          {
            "number": 2,
            "time": 190.30715980000113,
            "value": 1
          },
          {
            "number": 2,
            "time": 190.30880453333447,
            "value": 1
          },
          {
            "number": 2,
            "time": 190.3104492666678,
            "value": 1
          },
          {
            "number": 2,
            "time": 190.31209400000114,
            "value": 1
          },
          {
            "number": 2,
            "time": 190.31373873333447,
            "value": 1
          },
          {
            "number": 2,
            "time": 190.3153834666678,
            "value": 1
          },
          {
            "number": 2,
            "time": 190.31702820000115,
            "value": 1
          },
          {
            "number": 2,
            "time": 190.31867293333448,
            "value": 1
          },
          {
            "number": 2,
            "time": 190.32031766666782,
            "value": 1
          },
          {
            "number": 2,
            "time": 190.32196240000115,
            "value": 1
          },
          {
            "number": 2,
            "time": 190.3236071333345,
            "value": 1
          },
          {
            "number": 2,
            "time": 190.32525186666783,
            "value": 1
          },
          {
            "number": 2,
            "time": 190.32689660000116,
            "value": 1
          },
          {
            "number": 2,
            "time": 190.3285413333345,
            "value": 1
          },
          {
            "number": 2,
            "time": 190.33018606666784,
            "value": 1
          },
          {
            "number": 2,
            "time": 190.33183080000117,
            "value": 1
          },
          {
            "number": 2,
            "time": 190.3334755333345,
            "value": 0.9921259842519685
          },
          {
            "number": 2,
            "time": 190.33512026666784,
            "value": 0.9921259842519685
          },
          {
            "number": 2,
            "time": 190.33676500000118,
            "value": 0.9921259842519685
          },
          {
            "number": 2,
            "time": 190.33840973333452,
            "value": 0.984251968503937
          },
          {
            "number": 2,
            "time": 190.34005446666785,
            "value": 0.984251968503937
          },
          {
            "number": 2,
            "time": 190.3416992000012,
            "value": 0.9763779527559056
          },
          {
            "number": 2,
            "time": 190.34334393333452,
            "value": 0.9763779527559056
          },
          {
            "number": 2,
            "time": 190.34498866666786,
            "value": 0.9763779527559056
          },
          {
            "number": 2,
            "time": 190.3466334000012,
            "value": 0.968503937007874
          },
          {
            "number": 2,
            "time": 190.34827813333453,
            "value": 0.968503937007874
          },
          {
            "number": 2,
            "time": 190.34992286666787,
            "value": 0.9606299212598425
          },
          {
            "number": 2,
            "time": 190.3515676000012,
            "value": 0.9606299212598425
          },
          {
            "number": 2,
            "time": 190.35321233333454,
            "value": 0.9606299212598425
          },
          {
            "number": 2,
            "time": 190.35485706666788,
            "value": 0.952755905511811
          },
          {
            "number": 2,
            "time": 190.3565018000012,
            "value": 0.952755905511811
          },
          {
            "number": 2,
            "time": 190.35814653333455,
            "value": 0.9448818897637795
          },
          {
            "number": 2,
            "time": 190.35979126666788,
            "value": 0.9448818897637795
          },
          {
            "number": 2,
            "time": 190.36143600000122,
            "value": 0.9448818897637795
          },
          {
            "number": 2,
            "time": 190.36308073333456,
            "value": 0.937007874015748
          },
          {
            "number": 2,
            "time": 190.3647254666679,
            "value": 0.937007874015748
          },
          {
            "number": 2,
            "time": 190.36637020000123,
            "value": 0.9291338582677166
          },
          {
            "number": 2,
            "time": 190.36801493333456,
            "value": 0.9291338582677166
          },
          {
            "number": 2,
            "time": 190.3696596666679,
            "value": 0.9291338582677166
          },
          {
            "number": 2,
            "time": 190.37130440000124,
            "value": 0.9212598425196851
          },
          {
            "number": 2,
            "time": 190.37294913333457,
            "value": 0.9212598425196851
          },
          {
            "number": 2,
            "time": 190.3745938666679,
            "value": 0.9133858267716536
          },
          {
            "number": 2,
            "time": 190.37623860000124,
            "value": 0.9133858267716536
          },
          {
            "number": 2,
            "time": 190.37788333333458,
            "value": 0.9133858267716536
          },
          {
            "number": 2,
            "time": 190.37952806666792,
            "value": 0.905511811023622
          },
          {
            "number": 2,
            "time": 190.38117280000125,
            "value": 0.905511811023622
          },
          {
            "number": 2,
            "time": 190.3828175333346,
            "value": 0.8976377952755905
          },
          {
            "number": 2,
            "time": 190.38446226666792,
            "value": 0.8976377952755905
          },
          {
            "number": 2,
            "time": 190.38610700000126,
            "value": 0.8976377952755905
          },
          {
            "number": 2,
            "time": 190.3877517333346,
            "value": 0.889763779527559
          },
          {
            "number": 2,
            "time": 190.38939646666793,
            "value": 0.889763779527559
          },
          {
            "number": 2,
            "time": 190.39104120000127,
            "value": 0.8818897637795275
          },
          {
            "number": 2,
            "time": 190.3926859333346,
            "value": 0.8818897637795275
          },
          {
            "number": 2,
            "time": 190.39433066666794,
            "value": 0.8818897637795275
          },
          {
            "number": 2,
            "time": 190.39597540000128,
            "value": 0.8740157480314961
          },
          {
            "number": 2,
            "time": 190.3976201333346,
            "value": 0.8740157480314961
          },
          {
            "number": 2,
            "time": 190.39926486666795,
            "value": 0.8661417322834646
          },
          {
            "number": 2,
            "time": 190.40090960000128,
            "value": 0.8661417322834646
          },
          {
            "number": 2,
            "time": 190.40255433333462,
            "value": 0.8661417322834646
          },
          {
            "number": 2,
            "time": 190.40419906666796,
            "value": 0.8582677165354331
          },
          {
            "number": 2,
            "time": 190.4058438000013,
            "value": 0.8582677165354331
          },
          {
            "number": 2,
            "time": 190.40748853333463,
            "value": 0.8503937007874016
          },
          {
            "number": 2,
            "time": 190.40913326666796,
            "value": 0.8503937007874016
          },
          {
            "number": 2,
            "time": 190.4107780000013,
            "value": 0.8503937007874016
          },
          {
            "number": 2,
            "time": 190.41242273333464,
            "value": 0.84251968503937
          },
          {
            "number": 2,
            "time": 190.41406746666797,
            "value": 0.84251968503937
          },
          {
            "number": 2,
            "time": 190.4157122000013,
            "value": 0.8346456692913385
          },
          {
            "number": 2,
            "time": 190.41735693333464,
            "value": 0.8346456692913385
          },
          {
            "number": 2,
            "time": 190.41900166666798,
            "value": 0.8346456692913385
          },
          {
            "number": 2,
            "time": 190.42064640000132,
            "value": 0.8267716535433071
          },
          {
            "number": 2,
            "time": 190.42229113333465,
            "value": 0.8267716535433071
          },
          {
            "number": 2,
            "time": 190.423935866668,
            "value": 0.8188976377952756
          },
          {
            "number": 2,
            "time": 190.42558060000133,
            "value": 0.8188976377952756
          },
          {
            "number": 2,
            "time": 190.42722533333466,
            "value": 0.8188976377952756
          },
          {
            "number": 2,
            "time": 190.428870066668,
            "value": 0.8110236220472441
          },
          {
            "number": 2,
            "time": 190.43051480000133,
            "value": 0.8110236220472441
          },
          {
            "number": 2,
            "time": 190.43215953333467,
            "value": 0.8031496062992126
          },
          {
            "number": 2,
            "time": 190.433804266668,
            "value": 0.8031496062992126
          },
          {
            "number": 2,
            "time": 190.43544900000134,
            "value": 0.8031496062992126
          },
          {
            "number": 2,
            "time": 190.43709373333468,
            "value": 0.7952755905511811
          },
          {
            "number": 2,
            "time": 190.438738466668,
            "value": 0.7952755905511811
          },
          {
            "number": 2,
            "time": 190.44038320000135,
            "value": 0.7874015748031497
          },
          {
            "number": 2,
            "time": 190.44202793333469,
            "value": 0.7874015748031497
          },
          {
            "number": 2,
            "time": 190.44367266666802,
            "value": 0.7874015748031497
          },
          {
            "number": 2,
            "time": 190.44531740000136,
            "value": 0.7795275590551181
          },
          {
            "number": 2,
            "time": 190.4469621333347,
            "value": 0.7795275590551181
          },
          {
            "number": 2,
            "time": 190.44860686666803,
            "value": 0.7716535433070866
          },
          {
            "number": 2,
            "time": 190.45025160000137,
            "value": 0.7716535433070866
          },
          {
            "number": 2,
            "time": 190.4518963333347,
            "value": 0.7716535433070866
          },
          {
            "number": 2,
            "time": 190.45354106666804,
            "value": 0.7637795275590551
          },
          {
            "number": 2,
            "time": 190.45518580000137,
            "value": 0.7637795275590551
          },
          {
            "number": 2,
            "time": 190.4568305333347,
            "value": 0.7559055118110236
          },
          {
            "number": 2,
            "time": 190.45847526666805,
            "value": 0.7559055118110236
          },
          {
            "number": 2,
            "time": 191.0522240000014,
            "value": 1
          },
          {
            "number": 2,
            "time": 191.05386873333472,
            "value": 1
          },
          {
            "number": 2,
            "time": 191.05551346666806,
            "value": 1
          },
          {
            "number": 2,
            "time": 191.0571582000014,
            "value": 1
          },
          {
            "number": 2,
            "time": 191.05880293333473,
            "value": 1
          },
          {
            "number": 2,
            "time": 191.06044766666807,
            "value": 1
          },
          {
            "number": 2,
            "time": 191.0620924000014,
            "value": 1
          },
          {
            "number": 2,
            "time": 191.06373713333474,
            "value": 1
          },
          {
            "number": 2,
            "time": 191.06538186666808,
            "value": 1
          },
          {
            "number": 2,
            "time": 191.0670266000014,
            "value": 1
          },
          {
            "number": 2,
            "time": 191.06867133333475,
            "value": 1
          },
          {
            "number": 2,
            "time": 191.07031606666808,
            "value": 1
          },
          {
            "number": 2,
            "time": 191.07196080000142,
            "value": 1
          },
          {
            "number": 2,
            "time": 191.07360553333476,
            "value": 1
          },
          {
            "number": 2,
            "time": 191.0752502666681,
            "value": 1
          },
          {
            "number": 2,
            "time": 191.07689500000143,
            "value": 1
          },
          {
            "number": 2,
            "time": 191.07853973333476,
            "value": 1
          },
          {
            "number": 2,
            "time": 191.0801844666681,
            "value": 1
          },
          {
            "number": 2,
            "time": 191.08182920000144,
            "value": 1
          },
          {
            "number": 2,
            "time": 191.08347393333477,
            "value": 1
          },
          {
            "number": 2,
            "time": 191.0851186666681,
            "value": 1
          },
          {
            "number": 2,
            "time": 191.08676340000144,
            "value": 1
          },
          {
            "number": 2,
            "time": 191.08840813333478,
            "value": 1
          },
          {
            "number": 2,
            "time": 191.09005286666812,
            "value": 1
          },
          {
            "number": 2,
            "time": 191.09169760000145,
            "value": 1
          },
          {
            "number": 2,
            "time": 191.0933423333348,
            "value": 1
          },
          {
            "number": 2,
            "time": 191.09498706666812,
            "value": 1
          },
          {
            "number": 2,
            "time": 191.09663180000146,
            "value": 1
          },
          {
            "number": 2,
            "time": 191.0982765333348,
            "value": 1
          },
          {
            "number": 2,
            "time": 191.09992126666813,
            "value": 1
          },
          {
            "number": 2,
            "time": 191.10156600000147,
            "value": 1
          },
          {
            "number": 2,
            "time": 191.1032107333348,
            "value": 1
          },
          {
            "number": 2,
            "time": 191.10485546666814,
            "value": 1
          },
          {
            "number": 2,
            "time": 191.10650020000148,
            "value": 1
          },
          {
            "number": 2,
            "time": 191.1081449333348,
            "value": 1
          },
          {
            "number": 2,
            "time": 191.10978966666815,
            "value": 1
          },
          {
            "number": 2,
            "time": 191.11143440000149,
            "value": 1
          },
          {
            "number": 2,
            "time": 191.11307913333482,
            "value": 1
          },
          {
            "number": 2,
            "time": 191.11472386666816,
            "value": 1
          },
          {
            "number": 2,
            "time": 191.1163686000015,
            "value": 1
          },
          {
            "number": 2,
            "time": 191.11801333333483,
            "value": 1
          },
          {
            "number": 2,
            "time": 191.11965806666817,
            "value": 1
          },
          {
            "number": 2,
            "time": 191.1213028000015,
            "value": 1
          },
          {
            "number": 2,
            "time": 191.12294753333484,
            "value": 0.9921259842519685
          },
          {
            "number": 2,
            "time": 191.12459226666817,
            "value": 0.9921259842519685
          },
          {
            "number": 2,
            "time": 191.1262370000015,
            "value": 0.9921259842519685
          },
          {
            "number": 2,
            "time": 191.12788173333485,
            "value": 0.984251968503937
          },
          {
            "number": 2,
            "time": 191.12952646666818,
            "value": 0.984251968503937
          },
          {
            "number": 2,
            "time": 191.13117120000152,
            "value": 0.9763779527559056
          },
          {
            "number": 2,
            "time": 191.13281593333485,
            "value": 0.9763779527559056
          },
          {
            "number": 2,
            "time": 191.1344606666682,
            "value": 0.9763779527559056
          },
          {
            "number": 2,
            "time": 191.13610540000153,
            "value": 0.968503937007874
          },
          {
            "number": 2,
            "time": 191.13775013333486,
            "value": 0.968503937007874
          },
          {
            "number": 2,
            "time": 191.1393948666682,
            "value": 0.9606299212598425
          },
          {
            "number": 2,
            "time": 191.14103960000153,
            "value": 0.9606299212598425
          },
          {
            "number": 2,
            "time": 191.14268433333487,
            "value": 0.9606299212598425
          },
          {
            "number": 2,
            "time": 191.1443290666682,
            "value": 0.952755905511811
          },
          {
            "number": 2,
            "time": 191.14597380000154,
            "value": 0.952755905511811
          },
          {
            "number": 2,
            "time": 191.14761853333488,
            "value": 0.9448818897637795
          },
          {
            "number": 2,
            "time": 191.1492632666682,
            "value": 0.9448818897637795
          },
          {
            "number": 2,
            "time": 191.15090800000155,
            "value": 0.9448818897637795
          },
          {
            "number": 2,
            "time": 191.1525527333349,
            "value": 0.937007874015748
          },
          {
            "number": 2,
            "time": 191.15419746666822,
            "value": 0.937007874015748
          },
          {
            "number": 2,
            "time": 191.15584220000156,
            "value": 0.9291338582677166
          },
          {
            "number": 2,
            "time": 191.1574869333349,
            "value": 0.9291338582677166
          },
          {
            "number": 2,
            "time": 191.15913166666823,
            "value": 0.9291338582677166
          },
          {
            "number": 2,
            "time": 191.16077640000157,
            "value": 0.9212598425196851
          },
          {
            "number": 2,
            "time": 191.1624211333349,
            "value": 0.9212598425196851
          },
          {
            "number": 2,
            "time": 191.16406586666824,
            "value": 0.9133858267716536
          },
          {
            "number": 2,
            "time": 191.16571060000157,
            "value": 0.9133858267716536
          },
          {
            "number": 2,
            "time": 191.1673553333349,
            "value": 0.9133858267716536
          },
          {
            "number": 2,
            "time": 191.16900006666825,
            "value": 0.905511811023622
          },
          {
            "number": 2,
            "time": 191.17064480000158,
            "value": 0.905511811023622
          },
          {
            "number": 2,
            "time": 191.17228953333492,
            "value": 0.8976377952755905
          },
          {
            "number": 2,
            "time": 191.17393426666825,
            "value": 0.8976377952755905
          },
          {
            "number": 2,
            "time": 191.1755790000016,
            "value": 0.8976377952755905
          },
          {
            "number": 2,
            "time": 191.17722373333493,
            "value": 0.889763779527559
          },
          {
            "number": 2,
            "time": 191.17886846666826,
            "value": 0.889763779527559
          },
          {
            "number": 2,
            "time": 191.1805132000016,
            "value": 0.8818897637795275
          },
          {
            "number": 2,
            "time": 191.18215793333493,
            "value": 0.8818897637795275
          },
          {
            "number": 2,
            "time": 191.18380266666827,
            "value": 0.8818897637795275
          },
          {
            "number": 2,
            "time": 191.1854474000016,
            "value": 0.8740157480314961
          },
          {
            "number": 2,
            "time": 191.18709213333494,
            "value": 0.8740157480314961
          },
          {
            "number": 2,
            "time": 191.18873686666828,
            "value": 0.8661417322834646
          },
          {
            "number": 2,
            "time": 191.19038160000161,
            "value": 0.8661417322834646
          },
          {
            "number": 2,
            "time": 191.19202633333495,
            "value": 0.8661417322834646
          },
          {
            "number": 2,
            "time": 191.1936710666683,
            "value": 0.8582677165354331
          },
          {
            "number": 2,
            "time": 191.19531580000162,
            "value": 0.8582677165354331
          },
          {
            "number": 2,
            "time": 191.19696053333496,
            "value": 0.8503937007874016
          },
          {
            "number": 2,
            "time": 191.1986052666683,
            "value": 0.8503937007874016
          },
          {
            "number": 2,
            "time": 191.20025000000163,
            "value": 0.8503937007874016
          },
          {
            "number": 2,
            "time": 191.20189473333497,
            "value": 0.84251968503937
          },
          {
            "number": 2,
            "time": 191.2035394666683,
            "value": 0.84251968503937
          },
          {
            "number": 2,
            "time": 191.20518420000164,
            "value": 0.8346456692913385
          },
          {
            "number": 2,
            "time": 191.20682893333498,
            "value": 0.8346456692913385
          },
          {
            "number": 2,
            "time": 191.2084736666683,
            "value": 0.8346456692913385
          },
          {
            "number": 2,
            "time": 191.21011840000165,
            "value": 0.8267716535433071
          },
          {
            "number": 2,
            "time": 191.21176313333498,
            "value": 0.8267716535433071
          },
          {
            "number": 2,
            "time": 191.21340786666832,
            "value": 0.8188976377952756
          },
          {
            "number": 2,
            "time": 191.21505260000166,
            "value": 0.8188976377952756
          },
          {
            "number": 2,
            "time": 191.216697333335,
            "value": 0.8188976377952756
          },
          {
            "number": 2,
            "time": 191.21834206666833,
            "value": 0.8110236220472441
          },
          {
            "number": 2,
            "time": 191.21998680000166,
            "value": 0.8110236220472441
          },
          {
            "number": 2,
            "time": 191.221631533335,
            "value": 0.8031496062992126
          },
          {
            "number": 2,
            "time": 191.22327626666834,
            "value": 0.8031496062992126
          },
          {
            "number": 2,
            "time": 191.22492100000167,
            "value": 0.8031496062992126
          },
          {
            "number": 2,
            "time": 191.226565733335,
            "value": 0.7952755905511811
          },
          {
            "number": 2,
            "time": 191.22821046666834,
            "value": 0.7952755905511811
          },
          {
            "number": 2,
            "time": 191.22985520000168,
            "value": 0.7874015748031497
          },
          {
            "number": 2,
            "time": 191.23149993333502,
            "value": 0.7874015748031497
          },
          {
            "number": 2,
            "time": 191.23314466666835,
            "value": 0.7874015748031497
          },
          {
            "number": 2,
            "time": 191.2347894000017,
            "value": 0.7795275590551181
          },
          {
            "number": 2,
            "time": 191.23643413333502,
            "value": 0.7795275590551181
          },
          {
            "number": 2,
            "time": 191.23807886666836,
            "value": 0.7716535433070866
          },
          {
            "number": 2,
            "time": 191.2397236000017,
            "value": 0.7716535433070866
          },
          {
            "number": 2,
            "time": 191.24136833333503,
            "value": 0.7716535433070866
          },
          {
            "number": 2,
            "time": 191.24301306666837,
            "value": 0.7637795275590551
          },
          {
            "number": 2,
            "time": 191.2446578000017,
            "value": 0.7637795275590551
          },
          {
            "number": 2,
            "time": 191.24630253333504,
            "value": 0.7559055118110236
          },
          {
            "number": 2,
            "time": 191.24794726666838,
            "value": 0.7559055118110236
          },
          {
            "number": 2,
            "time": 191.31538133333504,
            "value": 0.7559055118110236
          },
          {
            "number": 2,
            "time": 191.57853866666838,
            "value": 0.7559055118110236
          },
          {
            "number": 2,
            "time": 191.84169600000172,
            "value": 0
          },
          {
            "number": 2,
            "time": 191.84169600000172,
            "value": 1
          },
          {
            "number": 2,
            "time": 191.84334073333505,
            "value": 0
          },
          {
            "number": 2,
            "time": 191.84334073333505,
            "value": 1
          },
          {
            "number": 2,
            "time": 191.8449854666684,
            "value": 0
          },
          {
            "number": 2,
            "time": 191.8449854666684,
            "value": 1
          },
          {
            "number": 2,
            "time": 191.84663020000173,
            "value": 0
          },
          {
            "number": 2,
            "time": 191.84663020000173,
            "value": 1
          },
          {
            "number": 2,
            "time": 191.84827493333506,
            "value": 0
          },
          {
            "number": 2,
            "time": 191.84827493333506,
            "value": 1
          },
          {
            "number": 2,
            "time": 191.8499196666684,
            "value": 0
          },
          {
            "number": 2,
            "time": 191.8499196666684,
            "value": 1
          },
          {
            "number": 2,
            "time": 191.85156440000173,
            "value": 0
          },
          {
            "number": 2,
            "time": 191.85156440000173,
            "value": 1
          },
          {
            "number": 2,
            "time": 191.85320913333507,
            "value": 0
          },
          {
            "number": 2,
            "time": 191.85320913333507,
            "value": 1
          },
          {
            "number": 2,
            "time": 191.8548538666684,
            "value": 0
          },
          {
            "number": 2,
            "time": 191.8548538666684,
            "value": 1
          },
          {
            "number": 2,
            "time": 191.85649860000174,
            "value": 0
          },
          {
            "number": 2,
            "time": 191.85649860000174,
            "value": 1
          },
          {
            "number": 2,
            "time": 191.85814333333508,
            "value": 0
          },
          {
            "number": 2,
            "time": 191.85814333333508,
            "value": 1
          },
          {
            "number": 2,
            "time": 191.85978806666841,
            "value": 0
          },
          {
            "number": 2,
            "time": 191.85978806666841,
            "value": 1
          },
          {
            "number": 2,
            "time": 191.86143280000175,
            "value": 0
          },
          {
            "number": 2,
            "time": 191.86143280000175,
            "value": 1
          },
          {
            "number": 2,
            "time": 191.8630775333351,
            "value": 0
          },
          {
            "number": 2,
            "time": 191.8630775333351,
            "value": 1
          },
          {
            "number": 2,
            "time": 191.86472226666842,
            "value": 0
          },
          {
            "number": 2,
            "time": 191.86472226666842,
            "value": 1
          },
          {
            "number": 2,
            "time": 191.86636700000176,
            "value": 0
          },
          {
            "number": 2,
            "time": 191.86636700000176,
            "value": 1
          },
          {
            "number": 2,
            "time": 191.8680117333351,
            "value": 0
          },
          {
            "number": 2,
            "time": 191.8680117333351,
            "value": 1
          },
          {
            "number": 2,
            "time": 191.86965646666843,
            "value": 0
          },
          {
            "number": 2,
            "time": 191.86965646666843,
            "value": 1
          },
          {
            "number": 2,
            "time": 191.87130120000177,
            "value": 0
          },
          {
            "number": 2,
            "time": 191.87130120000177,
            "value": 1
          },
          {
            "number": 2,
            "time": 191.8729459333351,
            "value": 0
          },
          {
            "number": 2,
            "time": 191.8729459333351,
            "value": 1
          },
          {
            "number": 2,
            "time": 191.87459066666844,
            "value": 0
          },
          {
            "number": 2,
            "time": 191.87459066666844,
            "value": 1
          },
          {
            "number": 2,
            "time": 191.87623540000178,
            "value": 0
          },
          {
            "number": 2,
            "time": 191.87623540000178,
            "value": 1
          },
          {
            "number": 2,
            "time": 191.8778801333351,
            "value": 0
          },
          {
            "number": 2,
            "time": 191.8778801333351,
            "value": 1
          },
          {
            "number": 2,
            "time": 191.87952486666845,
            "value": 0
          },
          {
            "number": 2,
            "time": 191.87952486666845,
            "value": 1
          },
          {
            "number": 2,
            "time": 191.88116960000178,
            "value": 0
          },
          {
            "number": 2,
            "time": 191.88116960000178,
            "value": 1
          },
          {
            "number": 2,
            "time": 191.88281433333512,
            "value": 0
          },
          {
            "number": 2,
            "time": 191.88281433333512,
            "value": 1
          },
          {
            "number": 2,
            "time": 191.88445906666846,
            "value": 0
          },
          {
            "number": 2,
            "time": 191.88445906666846,
            "value": 1
          },
          {
            "number": 2,
            "time": 191.8861038000018,
            "value": 0
          },
          {
            "number": 2,
            "time": 191.8861038000018,
            "value": 1
          },
          {
            "number": 2,
            "time": 191.88774853333513,
            "value": 0
          },
          {
            "number": 2,
            "time": 191.88774853333513,
            "value": 1
          },
          {
            "number": 2,
            "time": 191.88939326666846,
            "value": 0
          },
          {
            "number": 2,
            "time": 191.88939326666846,
            "value": 1
          },
          {
            "number": 2,
            "time": 191.8910380000018,
            "value": 0
          },
          {
            "number": 2,
            "time": 191.8910380000018,
            "value": 1
          },
          {
            "number": 2,
            "time": 191.89268273333514,
            "value": 0
          },
          {
            "number": 2,
            "time": 191.89268273333514,
            "value": 1
          },
          {
            "number": 2,
            "time": 191.89432746666847,
            "value": 0
          },
          {
            "number": 2,
            "time": 191.89432746666847,
            "value": 1
          },
          {
            "number": 2,
            "time": 191.8959722000018,
            "value": 0
          },
          {
            "number": 2,
            "time": 191.8959722000018,
            "value": 1
          },
          {
            "number": 2,
            "time": 191.89761693333514,
            "value": 0
          },
          {
            "number": 2,
            "time": 191.89761693333514,
            "value": 1
          },
          {
            "number": 2,
            "time": 191.89926166666848,
            "value": 0
          },
          {
            "number": 2,
            "time": 191.89926166666848,
            "value": 1
          },
          {
            "number": 2,
            "time": 191.90090640000182,
            "value": 0
          },
          {
            "number": 2,
            "time": 191.90090640000182,
            "value": 1
          },
          {
            "number": 2,
            "time": 191.90255113333515,
            "value": 0
          },
          {
            "number": 2,
            "time": 191.90255113333515,
            "value": 1
          },
          {
            "number": 2,
            "time": 191.9041958666685,
            "value": 0
          },
          {
            "number": 2,
            "time": 191.9041958666685,
            "value": 1
          },
          {
            "number": 2,
            "time": 191.90584060000182,
            "value": 0
          },
          {
            "number": 2,
            "time": 191.90584060000182,
            "value": 1
          },
          {
            "number": 2,
            "time": 191.90748533333516,
            "value": 0
          },
          {
            "number": 2,
            "time": 191.90748533333516,
            "value": 1
          },
          {
            "number": 2,
            "time": 191.9091300666685,
            "value": 0
          },
          {
            "number": 2,
            "time": 191.9091300666685,
            "value": 1
          },
          {
            "number": 2,
            "time": 191.91077480000183,
            "value": 0
          },
          {
            "number": 2,
            "time": 191.91077480000183,
            "value": 1
          },
          {
            "number": 2,
            "time": 191.91241953333517,
            "value": 0
          },
          {
            "number": 2,
            "time": 191.91241953333517,
            "value": 0.9921259842519685
          },
          {
            "number": 2,
            "time": 191.9140642666685,
            "value": 0
          },
          {
            "number": 2,
            "time": 191.9140642666685,
            "value": 0.9921259842519685
          },
          {
            "number": 2,
            "time": 191.91570900000184,
            "value": 0
          },
          {
            "number": 2,
            "time": 191.91570900000184,
            "value": 0.9921259842519685
          },
          {
            "number": 2,
            "time": 191.91735373333518,
            "value": 0
          },
          {
            "number": 2,
            "time": 191.91735373333518,
            "value": 0.984251968503937
          },
          {
            "number": 2,
            "time": 191.9189984666685,
            "value": 0
          },
          {
            "number": 2,
            "time": 191.9189984666685,
            "value": 0.984251968503937
          },
          {
            "number": 2,
            "time": 191.92064320000185,
            "value": 0
          },
          {
            "number": 2,
            "time": 191.92064320000185,
            "value": 0.9763779527559056
          },
          {
            "number": 2,
            "time": 191.92228793333518,
            "value": 0
          },
          {
            "number": 2,
            "time": 191.92228793333518,
            "value": 0.9763779527559056
          },
          {
            "number": 2,
            "time": 191.92393266666852,
            "value": 0
          },
          {
            "number": 2,
            "time": 191.92393266666852,
            "value": 0.9763779527559056
          },
          {
            "number": 2,
            "time": 191.92557740000186,
            "value": 0
          },
          {
            "number": 2,
            "time": 191.92557740000186,
            "value": 0.968503937007874
          },
          {
            "number": 2,
            "time": 191.9272221333352,
            "value": 0
          },
          {
            "number": 2,
            "time": 191.9272221333352,
            "value": 0.968503937007874
          },
          {
            "number": 2,
            "time": 191.92886686666853,
            "value": 0
          },
          {
            "number": 2,
            "time": 191.92886686666853,
            "value": 0.9606299212598425
          },
          {
            "number": 2,
            "time": 191.93051160000186,
            "value": 0
          },
          {
            "number": 2,
            "time": 191.93051160000186,
            "value": 0.9606299212598425
          },
          {
            "number": 2,
            "time": 191.9321563333352,
            "value": 0
          },
          {
            "number": 2,
            "time": 191.9321563333352,
            "value": 0.9606299212598425
          },
          {
            "number": 2,
            "time": 191.93380106666854,
            "value": 0
          },
          {
            "number": 2,
            "time": 191.93380106666854,
            "value": 0.952755905511811
          },
          {
            "number": 2,
            "time": 191.93544580000187,
            "value": 0
          },
          {
            "number": 2,
            "time": 191.93544580000187,
            "value": 0.952755905511811
          },
          {
            "number": 2,
            "time": 191.9370905333352,
            "value": 0
          },
          {
            "number": 2,
            "time": 191.9370905333352,
            "value": 0.9448818897637795
          },
          {
            "number": 2,
            "time": 191.93873526666854,
            "value": 0
          },
          {
            "number": 2,
            "time": 191.93873526666854,
            "value": 0.9448818897637795
          },
          {
            "number": 2,
            "time": 191.94038000000188,
            "value": 0
          },
          {
            "number": 2,
            "time": 191.94038000000188,
            "value": 0.9448818897637795
          },
          {
            "number": 2,
            "time": 191.94202473333522,
            "value": 0
          },
          {
            "number": 2,
            "time": 191.94202473333522,
            "value": 0.937007874015748
          },
          {
            "number": 2,
            "time": 191.94366946666855,
            "value": 0
          },
          {
            "number": 2,
            "time": 191.94366946666855,
            "value": 0.937007874015748
          },
          {
            "number": 2,
            "time": 191.9453142000019,
            "value": 0
          },
          {
            "number": 2,
            "time": 191.9453142000019,
            "value": 0.9291338582677166
          },
          {
            "number": 2,
            "time": 191.94695893333522,
            "value": 0
          },
          {
            "number": 2,
            "time": 191.94695893333522,
            "value": 0.9291338582677166
          },
          {
            "number": 2,
            "time": 191.94860366666856,
            "value": 0
          },
          {
            "number": 2,
            "time": 191.94860366666856,
            "value": 0.9291338582677166
          },
          {
            "number": 2,
            "time": 191.9502484000019,
            "value": 0
          },
          {
            "number": 2,
            "time": 191.9502484000019,
            "value": 0.9212598425196851
          },
          {
            "number": 2,
            "time": 191.95189313333523,
            "value": 0
          },
          {
            "number": 2,
            "time": 191.95189313333523,
            "value": 0.9212598425196851
          },
          {
            "number": 2,
            "time": 191.95353786666857,
            "value": 0
          },
          {
            "number": 2,
            "time": 191.95353786666857,
            "value": 0.9133858267716536
          },
          {
            "number": 2,
            "time": 191.9551826000019,
            "value": 0
          },
          {
            "number": 2,
            "time": 191.9551826000019,
            "value": 0.9133858267716536
          },
          {
            "number": 2,
            "time": 191.95682733333524,
            "value": 0
          },
          {
            "number": 2,
            "time": 191.95682733333524,
            "value": 0.9133858267716536
          },
          {
            "number": 2,
            "time": 191.95847206666858,
            "value": 0
          },
          {
            "number": 2,
            "time": 191.95847206666858,
            "value": 0.905511811023622
          },
          {
            "number": 2,
            "time": 191.9601168000019,
            "value": 0
          },
          {
            "number": 2,
            "time": 191.9601168000019,
            "value": 0.905511811023622
          },
          {
            "number": 2,
            "time": 191.96176153333525,
            "value": 0
          },
          {
            "number": 2,
            "time": 191.96176153333525,
            "value": 0.8976377952755905
          },
          {
            "number": 2,
            "time": 191.96340626666858,
            "value": 0
          },
          {
            "number": 2,
            "time": 191.96340626666858,
            "value": 0.8976377952755905
          },
          {
            "number": 2,
            "time": 191.96505100000192,
            "value": 0
          },
          {
            "number": 2,
            "time": 191.96505100000192,
            "value": 0.8976377952755905
          },
          {
            "number": 2,
            "time": 191.96669573333526,
            "value": 0
          },
          {
            "number": 2,
            "time": 191.96669573333526,
            "value": 0.889763779527559
          },
          {
            "number": 2,
            "time": 191.9683404666686,
            "value": 0
          },
          {
            "number": 2,
            "time": 191.9683404666686,
            "value": 0.889763779527559
          },
          {
            "number": 2,
            "time": 191.96998520000193,
            "value": 0
          },
          {
            "number": 2,
            "time": 191.96998520000193,
            "value": 0.8818897637795275
          },
          {
            "number": 2,
            "time": 191.97162993333527,
            "value": 0
          },
          {
            "number": 2,
            "time": 191.97162993333527,
            "value": 0.8818897637795275
          },
          {
            "number": 2,
            "time": 191.9732746666686,
            "value": 0
          },
          {
            "number": 2,
            "time": 191.9732746666686,
            "value": 0.8818897637795275
          },
          {
            "number": 2,
            "time": 191.97491940000194,
            "value": 0.8740157480314961
          },
          {
            "number": 2,
            "time": 191.97656413333527,
            "value": 0.8740157480314961
          },
          {
            "number": 2,
            "time": 191.9782088666686,
            "value": 0.8661417322834646
          },
          {
            "number": 2,
            "time": 191.97985360000195,
            "value": 0.8661417322834646
          },
          {
            "number": 2,
            "time": 191.98149833333528,
            "value": 0.8661417322834646
          },
          {
            "number": 2,
            "time": 191.98314306666862,
            "value": 0.8582677165354331
          },
          {
            "number": 2,
            "time": 191.98478780000195,
            "value": 0.8582677165354331
          },
          {
            "number": 2,
            "time": 191.9864325333353,
            "value": 0.8503937007874016
          },
          {
            "number": 2,
            "time": 191.98807726666863,
            "value": 0.8503937007874016
          },
          {
            "number": 2,
            "time": 191.98972200000196,
            "value": 0.8503937007874016
          },
          {
            "number": 2,
            "time": 191.9913667333353,
            "value": 0.84251968503937
          },
          {
            "number": 2,
            "time": 191.99301146666863,
            "value": 0.84251968503937
          },
          {
            "number": 2,
            "time": 191.99465620000197,
            "value": 0.8346456692913385
          },
          {
            "number": 2,
            "time": 191.9963009333353,
            "value": 0.8346456692913385
          },
          {
            "number": 2,
            "time": 191.99794566666864,
            "value": 0.8346456692913385
          },
          {
            "number": 2,
            "time": 191.99959040000198,
            "value": 0.8267716535433071
          },
          {
            "number": 2,
            "time": 192.0012351333353,
            "value": 0.8267716535433071
          },
          {
            "number": 2,
            "time": 192.00287986666865,
            "value": 0.8188976377952756
          },
          {
            "number": 2,
            "time": 192.004524600002,
            "value": 0.8188976377952756
          },
          {
            "number": 2,
            "time": 192.00616933333532,
            "value": 0.8188976377952756
          },
          {
            "number": 2,
            "time": 192.00781406666866,
            "value": 0.8110236220472441
          },
          {
            "number": 2,
            "time": 192.009458800002,
            "value": 0.8110236220472441
          },
          {
            "number": 2,
            "time": 192.01110353333533,
            "value": 0.8031496062992126
          },
          {
            "number": 2,
            "time": 192.01274826666867,
            "value": 0.8031496062992126
          },
          {
            "number": 2,
            "time": 192.014393000002,
            "value": 0.8031496062992126
          },
          {
            "number": 2,
            "time": 192.01603773333534,
            "value": 0.7952755905511811
          },
          {
            "number": 2,
            "time": 192.01768246666867,
            "value": 0.7952755905511811
          },
          {
            "number": 2,
            "time": 192.019327200002,
            "value": 0.7874015748031497
          },
          {
            "number": 2,
            "time": 192.02097193333535,
            "value": 0.7874015748031497
          },
          {
            "number": 2,
            "time": 192.02261666666868,
            "value": 0.7874015748031497
          },
          {
            "number": 2,
            "time": 192.02426140000202,
            "value": 0.7795275590551181
          },
          {
            "number": 2,
            "time": 192.02590613333535,
            "value": 0.7795275590551181
          },
          {
            "number": 2,
            "time": 192.0275508666687,
            "value": 0.7716535433070866
          },
          {
            "number": 2,
            "time": 192.02919560000203,
            "value": 0.7716535433070866
          },
          {
            "number": 2,
            "time": 192.03084033333536,
            "value": 0.7716535433070866
          },
          {
            "number": 2,
            "time": 192.0324850666687,
            "value": 0.7637795275590551
          },
          {
            "number": 2,
            "time": 192.03412980000203,
            "value": 0.7637795275590551
          },
          {
            "number": 2,
            "time": 192.03577453333537,
            "value": 0.7559055118110236
          },
          {
            "number": 2,
            "time": 192.0374192666687,
            "value": 0.7559055118110236
          },
          {
            "number": 2,
            "time": 192.10485333333537,
            "value": 0.7559055118110236
          },
          {
            "number": 2,
            "time": 192.3680106666687,
            "value": 0.7559055118110236
          },
          {
            "number": 2,
            "time": 192.63116800000205,
            "value": 0.7559055118110236
          },
          {
            "number": 2,
            "time": 192.67557580000204,
            "value": 0.7480314960629921
          },
          {
            "number": 2,
            "time": 192.71998360000202,
            "value": 0.7401574803149606
          },
          {
            "number": 2,
            "time": 192.764391400002,
            "value": 0.7322834645669292
          },
          {
            "number": 2,
            "time": 192.80879920000203,
            "value": 0.7244094488188977
          },
          {
            "number": 2,
            "time": 192.85320700000202,
            "value": 0.7165354330708661
          },
          {
            "number": 2,
            "time": 192.897614800002,
            "value": 0.7086614173228346
          },
          {
            "number": 2,
            "time": 192.942022600002,
            "value": 0.7007874015748031
          },
          {
            "number": 2,
            "time": 192.986430400002,
            "value": 0.6929133858267716
          },
          {
            "number": 2,
            "time": 193.030838200002,
            "value": 0.6850393700787402
          },
          {
            "number": 2,
            "time": 193.07524600000198,
            "value": 0.6771653543307087
          },
          {
            "number": 2,
            "time": 193.11965380000197,
            "value": 0.6692913385826772
          },
          {
            "number": 2,
            "time": 193.16406160000196,
            "value": 0.6614173228346457
          },
          {
            "number": 2,
            "time": 193.20846940000195,
            "value": 0.6535433070866141
          },
          {
            "number": 2,
            "time": 193.25287720000193,
            "value": 0.6456692913385826
          },
          {
            "number": 2,
            "time": 193.29728500000195,
            "value": 0.6377952755905512
          },
          {
            "number": 2,
            "time": 193.34169280000194,
            "value": 0.6299212598425197
          },
          {
            "number": 2,
            "time": 193.38610060000192,
            "value": 0.6220472440944882
          },
          {
            "number": 2,
            "time": 193.4305084000019,
            "value": 0.6141732283464567
          },
          {
            "number": 2,
            "time": 193.4749162000019,
            "value": 0.6062992125984252
          },
          {
            "number": 2,
            "time": 193.5193240000019,
            "value": 0.5984251968503937
          },
          {
            "number": 2,
            "time": 193.56373180000188,
            "value": 0.5905511811023622
          },
          {
            "number": 2,
            "time": 193.60813960000186,
            "value": 0.5826771653543307
          },
          {
            "number": 2,
            "time": 193.65254740000185,
            "value": 0.5748031496062992
          },
          {
            "number": 2,
            "time": 193.69695520000184,
            "value": 0.5669291338582677
          },
          {
            "number": 2,
            "time": 193.74136300000185,
            "value": 0.5590551181102362
          },
          {
            "number": 2,
            "time": 193.78577080000184,
            "value": 0.5511811023622047
          },
          {
            "number": 2,
            "time": 193.83017860000183,
            "value": 0.5433070866141733
          },
          {
            "number": 2,
            "time": 193.87458640000182,
            "value": 0.5354330708661418
          },
          {
            "number": 2,
            "time": 193.91899420000183,
            "value": 0.5275590551181102
          },
          {
            "number": 2,
            "time": 193.96340200000182,
            "value": 0.5196850393700787
          },
          {
            "number": 2,
            "time": 194.0078098000018,
            "value": 0.5118110236220472
          },
          {
            "number": 2,
            "time": 194.05221760000182,
            "value": 0.5039370078740157
          },
          {
            "number": 2,
            "time": 194.99958400000182,
            "value": 0.5039370078740157
          },
          {
            "number": 2,
            "time": 197.3680000000018,
            "value": 0.5039370078740157
          },
          {
            "number": 2,
            "time": 198.1574720000018,
            "value": 0.5039370078740157
          },
          {
            "number": 2,
            "time": 198.9469440000018,
            "value": 0.5039370078740157
          },
          {
            "number": 2,
            "time": 199.73641600000178,
            "value": 0.5039370078740157
          },
          {
            "number": 2,
            "time": 200.52588800000177,
            "value": 0.5039370078740157
          },
          {
            "number": 2,
            "time": 202.10483200000178,
            "value": 0.5039370078740157
          },
          {
            "number": 2,
            "time": 203.68377600000179,
            "value": 0.5039370078740157
          },
          {
            "number": 2,
            "time": 204.47324800000177,
            "value": 0.5039370078740157
          },
          {
            "number": 2,
            "time": 205.26272000000176,
            "value": 0.5039370078740157
          },
          {
            "number": 2,
            "time": 206.05219200000175,
            "value": 0.5039370078740157
          },
          {
            "number": 2,
            "time": 206.84166400000174,
            "value": 0.5039370078740157
          },
          {
            "number": 2,
            "time": 208.42060800000175,
            "value": 0.5039370078740157
          },
          {
            "number": 2,
            "time": 209.99955200000176,
            "value": 0.5039370078740157
          },
          {
            "number": 2,
            "time": 210.14757800000174,
            "value": 0.5118110236220472
          },
          {
            "number": 2,
            "time": 210.29560400000173,
            "value": 0.5196850393700787
          },
          {
            "number": 2,
            "time": 210.44363000000172,
            "value": 0.5275590551181102
          },
          {
            "number": 2,
            "time": 210.5916560000017,
            "value": 0.5354330708661418
          },
          {
            "number": 2,
            "time": 210.7396820000017,
            "value": 0.5433070866141733
          },
          {
            "number": 2,
            "time": 210.7890240000017,
            "value": 0.5433070866141733
          },
          {
            "number": 2,
            "time": 210.88770800000168,
            "value": 0.5511811023622047
          },
          {
            "number": 2,
            "time": 211.03573400000167,
            "value": 0.5590551181102362
          },
          {
            "number": 2,
            "time": 211.18376000000166,
            "value": 0.5669291338582677
          },
          {
            "number": 2,
            "time": 211.33178600000164,
            "value": 0.5748031496062992
          },
          {
            "number": 2,
            "time": 211.47981200000163,
            "value": 0.5826771653543307
          },
          {
            "number": 2,
            "time": 211.57849600000162,
            "value": 0.5826771653543307
          },
          {
            "number": 2,
            "time": 211.62783800000162,
            "value": 0.5905511811023622
          },
          {
            "number": 2,
            "time": 211.7758640000016,
            "value": 0.5984251968503937
          },
          {
            "number": 2,
            "time": 211.9238900000016,
            "value": 0.6062992125984252
          },
          {
            "number": 2,
            "time": 212.07191600000158,
            "value": 0.6141732283464567
          },
          {
            "number": 2,
            "time": 212.21994200000157,
            "value": 0.6220472440944882
          },
          {
            "number": 2,
            "time": 212.36796800000158,
            "value": 0.6299212598425197
          },
          {
            "number": 2,
            "time": 213.15744000000157,
            "value": 0.6299212598425197
          },
          {
            "number": 2,
            "time": 213.3465843333349,
            "value": 0.6220472440944882
          },
          {
            "number": 2,
            "time": 213.53572866666823,
            "value": 0.6141732283464567
          },
          {
            "number": 2,
            "time": 213.72487300000157,
            "value": 0.6062992125984252
          },
          {
            "number": 2,
            "time": 213.9140173333349,
            "value": 0.5984251968503937
          },
          {
            "number": 2,
            "time": 214.07849066666822,
            "value": 0.5984251968503937
          },
          {
            "number": 2,
            "time": 214.10316166666823,
            "value": 0.5905511811023622
          },
          {
            "number": 2,
            "time": 214.2100693333349,
            "value": 0.5905511811023622
          },
          {
            "number": 2,
            "time": 214.29230600000156,
            "value": 0.5826771653543307
          },
          {
            "number": 2,
            "time": 214.4732266666682,
            "value": 0.5826771653543307
          },
          {
            "number": 2,
            "time": 214.4814503333349,
            "value": 0.5748031496062992
          },
          {
            "number": 2,
            "time": 214.6048053333349,
            "value": 0.5748031496062992
          },
          {
            "number": 2,
            "time": 214.67059466666822,
            "value": 0.5669291338582677
          },
          {
            "number": 2,
            "time": 214.85973900000155,
            "value": 0.5590551181102362
          },
          {
            "number": 2,
            "time": 215.04888333333489,
            "value": 0.5511811023622047
          },
          {
            "number": 2,
            "time": 215.23802766666822,
            "value": 0.5433070866141733
          },
          {
            "number": 2,
            "time": 215.42717200000155,
            "value": 0.5354330708661418
          },
          {
            "number": 2,
            "time": 215.61631633333488,
            "value": 0.5275590551181102
          },
          {
            "number": 2,
            "time": 215.8054606666682,
            "value": 0.5196850393700787
          },
          {
            "number": 2,
            "time": 215.99460500000154,
            "value": 0.5118110236220472
          },
          {
            "number": 2,
            "time": 216.18374933333487,
            "value": 0.5039370078740157
          },
          {
            "number": 2,
            "time": 216.38934100000154,
            "value": 0.5118110236220472
          },
          {
            "number": 2,
            "time": 216.46335400000154,
            "value": 0.5196850393700787
          },
          {
            "number": 2,
            "time": 216.53736700000155,
            "value": 0.5275590551181102
          },
          {
            "number": 2,
            "time": 216.61138000000156,
            "value": 0.5354330708661418
          },
          {
            "number": 2,
            "time": 216.68539300000157,
            "value": 0.5433070866141733
          },
          {
            "number": 2,
            "time": 216.75940600000158,
            "value": 0.5511811023622047
          },
          {
            "number": 2,
            "time": 216.83341900000158,
            "value": 0.5590551181102362
          },
          {
            "number": 2,
            "time": 216.9074320000016,
            "value": 0.5669291338582677
          },
          {
            "number": 2,
            "time": 216.9814450000016,
            "value": 0.5748031496062992
          },
          {
            "number": 2,
            "time": 217.0554580000016,
            "value": 0.5826771653543307
          },
          {
            "number": 2,
            "time": 217.1048000000016,
            "value": 0.5826771653543307
          },
          {
            "number": 2,
            "time": 217.12947100000162,
            "value": 0.5905511811023622
          },
          {
            "number": 2,
            "time": 217.20348400000162,
            "value": 0.5984251968503937
          },
          {
            "number": 2,
            "time": 217.27749700000163,
            "value": 0.6062992125984252
          },
          {
            "number": 2,
            "time": 217.35151000000164,
            "value": 0.6141732283464567
          },
          {
            "number": 2,
            "time": 217.42552300000165,
            "value": 0.6220472440944882
          },
          {
            "number": 2,
            "time": 217.49953600000165,
            "value": 0.6299212598425197
          },
          {
            "number": 2,
            "time": 217.57354900000166,
            "value": 0.6377952755905512
          },
          {
            "number": 2,
            "time": 217.64756200000167,
            "value": 0.6456692913385826
          },
          {
            "number": 2,
            "time": 217.72157500000168,
            "value": 0.6535433070866141
          },
          {
            "number": 2,
            "time": 217.7955880000017,
            "value": 0.6614173228346457
          },
          {
            "number": 2,
            "time": 217.8696010000017,
            "value": 0.6692913385826772
          },
          {
            "number": 2,
            "time": 217.8942720000017,
            "value": 0.6692913385826772
          },
          {
            "number": 2,
            "time": 217.9436140000017,
            "value": 0.6771653543307087
          },
          {
            "number": 2,
            "time": 218.0176270000017,
            "value": 0.6850393700787402
          },
          {
            "number": 2,
            "time": 218.09164000000172,
            "value": 0.6929133858267716
          },
          {
            "number": 2,
            "time": 218.16565300000173,
            "value": 0.7007874015748031
          },
          {
            "number": 2,
            "time": 218.23966600000173,
            "value": 0.7086614173228346
          },
          {
            "number": 2,
            "time": 218.28900800000173,
            "value": 0.7086614173228346
          },
          {
            "number": 2,
            "time": 218.31367900000174,
            "value": 0.7165354330708661
          },
          {
            "number": 2,
            "time": 218.38769200000175,
            "value": 0.7244094488188977
          },
          {
            "number": 2,
            "time": 218.46170500000176,
            "value": 0.7322834645669292
          },
          {
            "number": 2,
            "time": 218.48637600000177,
            "value": 0.7322834645669292
          },
          {
            "number": 2,
            "time": 218.53571800000176,
            "value": 0.7401574803149606
          },
          {
            "number": 2,
            "time": 218.58506000000176,
            "value": 0.7401574803149606
          },
          {
            "number": 2,
            "time": 218.60973100000177,
            "value": 0.7480314960629921
          },
          {
            "number": 2,
            "time": 218.68374400000178,
            "value": 0.7559055118110236
          },
          {
            "number": 2,
            "time": 219.47321600000177,
            "value": 0.7559055118110236
          },
          {
            "number": 2,
            "time": 220.26268800000176,
            "value": 0.7559055118110236
          },
          {
            "number": 2,
            "time": 220.78900266666838,
            "value": 0.7559055118110236
          },
          {
            "number": 2,
            "time": 221.18373866666835,
            "value": 0.7559055118110236
          },
          {
            "number": 2,
            "time": 222.3679466666683,
            "value": 0.7559055118110236
          },
          {
            "number": 2,
            "time": 223.4205760000016,
            "value": 0.7559055118110236
          },
          {
            "number": 2,
            "time": 225.7889920000016,
            "value": 0.7559055118110236
          },
          {
            "number": 2,
            "time": 227.3679360000016,
            "value": 0.7559055118110236
          },
          {
            "number": 2,
            "time": 228.9468800000016,
            "value": 0.7559055118110236
          },
          {
            "number": 2,
            "time": 230.52582400000162,
            "value": 0.7559055118110236
          },
          {
            "number": 2,
            "time": 230.72319200000163,
            "value": 0.7559055118110236
          },
          {
            "number": 2,
            "time": 232.8942400000017,
            "value": 0.7559055118110236
          },
          {
            "number": 2,
            "time": 235.2626560000017,
            "value": 0.7559055118110236
          },
          {
            "number": 2,
            "time": 236.84160000000173,
            "value": 1
          },
          {
            "number": 2,
            "time": 236.84324473333507,
            "value": 1
          },
          {
            "number": 2,
            "time": 236.8448894666684,
            "value": 1
          },
          {
            "number": 2,
            "time": 236.84653420000174,
            "value": 1
          },
          {
            "number": 2,
            "time": 236.84817893333508,
            "value": 1
          },
          {
            "number": 2,
            "time": 236.8498236666684,
            "value": 1
          },
          {
            "number": 2,
            "time": 236.85146840000175,
            "value": 1
          },
          {
            "number": 2,
            "time": 236.85311313333509,
            "value": 1
          },
          {
            "number": 2,
            "time": 236.85475786666842,
            "value": 1
          },
          {
            "number": 2,
            "time": 236.85640260000176,
            "value": 1
          },
          {
            "number": 2,
            "time": 236.8580473333351,
            "value": 1
          },
          {
            "number": 2,
            "time": 236.85969206666843,
            "value": 1
          },
          {
            "number": 2,
            "time": 236.86133680000177,
            "value": 1
          },
          {
            "number": 2,
            "time": 236.8629815333351,
            "value": 1
          },
          {
            "number": 2,
            "time": 236.86462626666844,
            "value": 1
          },
          {
            "number": 2,
            "time": 236.86627100000177,
            "value": 1
          },
          {
            "number": 2,
            "time": 236.8679157333351,
            "value": 1
          },
          {
            "number": 2,
            "time": 236.86956046666845,
            "value": 1
          },
          {
            "number": 2,
            "time": 236.87120520000178,
            "value": 1
          },
          {
            "number": 2,
            "time": 236.87284993333512,
            "value": 1
          },
          {
            "number": 2,
            "time": 236.87449466666845,
            "value": 1
          },
          {
            "number": 2,
            "time": 236.8761394000018,
            "value": 1
          },
          {
            "number": 2,
            "time": 236.87778413333513,
            "value": 1
          },
          {
            "number": 2,
            "time": 236.87942886666846,
            "value": 1
          },
          {
            "number": 2,
            "time": 236.8810736000018,
            "value": 1
          },
          {
            "number": 2,
            "time": 236.88271833333513,
            "value": 1
          },
          {
            "number": 2,
            "time": 236.88436306666847,
            "value": 1
          },
          {
            "number": 2,
            "time": 236.8860078000018,
            "value": 1
          },
          {
            "number": 2,
            "time": 236.88765253333514,
            "value": 1
          },
          {
            "number": 2,
            "time": 236.88929726666848,
            "value": 1
          },
          {
            "number": 2,
            "time": 236.89094200000181,
            "value": 1
          },
          {
            "number": 2,
            "time": 236.89258673333515,
            "value": 1
          },
          {
            "number": 2,
            "time": 236.8942314666685,
            "value": 1
          },
          {
            "number": 2,
            "time": 236.89587620000182,
            "value": 1
          },
          {
            "number": 2,
            "time": 236.89752093333516,
            "value": 1
          },
          {
            "number": 2,
            "time": 236.8991656666685,
            "value": 1
          },
          {
            "number": 2,
            "time": 236.90081040000183,
            "value": 1
          },
          {
            "number": 2,
            "time": 236.90245513333517,
            "value": 1
          },
          {
            "number": 2,
            "time": 236.9040998666685,
            "value": 1
          },
          {
            "number": 2,
            "time": 236.90574460000184,
            "value": 1
          },
          {
            "number": 2,
            "time": 236.90738933333517,
            "value": 1
          },
          {
            "number": 2,
            "time": 236.9090340666685,
            "value": 1
          },
          {
            "number": 2,
            "time": 236.91067880000185,
            "value": 1
          },
          {
            "number": 2,
            "time": 236.91232353333518,
            "value": 0.9921259842519685
          },
          {
            "number": 2,
            "time": 236.91396826666852,
            "value": 0.9921259842519685
          },
          {
            "number": 2,
            "time": 236.91561300000185,
            "value": 0.9921259842519685
          },
          {
            "number": 2,
            "time": 236.9172577333352,
            "value": 0.984251968503937
          },
          {
            "number": 2,
            "time": 236.91890246666853,
            "value": 0.984251968503937
          },
          {
            "number": 2,
            "time": 236.92054720000186,
            "value": 0.9763779527559056
          },
          {
            "number": 2,
            "time": 236.9221919333352,
            "value": 0.9763779527559056
          },
          {
            "number": 2,
            "time": 236.92383666666854,
            "value": 0.9763779527559056
          },
          {
            "number": 2,
            "time": 236.92548140000187,
            "value": 0.968503937007874
          },
          {
            "number": 2,
            "time": 236.9271261333352,
            "value": 0.968503937007874
          },
          {
            "number": 2,
            "time": 236.92877086666854,
            "value": 0.9606299212598425
          },
          {
            "number": 2,
            "time": 236.93041560000188,
            "value": 0.9606299212598425
          },
          {
            "number": 2,
            "time": 236.93206033333522,
            "value": 0.9606299212598425
          },
          {
            "number": 2,
            "time": 236.93370506666855,
            "value": 0.952755905511811
          },
          {
            "number": 2,
            "time": 236.9353498000019,
            "value": 0.952755905511811
          },
          {
            "number": 2,
            "time": 236.93699453333522,
            "value": 0.9448818897637795
          },
          {
            "number": 2,
            "time": 236.93863926666856,
            "value": 0.9448818897637795
          },
          {
            "number": 2,
            "time": 236.9402840000019,
            "value": 0.9448818897637795
          },
          {
            "number": 2,
            "time": 236.94192873333523,
            "value": 0.937007874015748
          },
          {
            "number": 2,
            "time": 236.94357346666857,
            "value": 0.937007874015748
          },
          {
            "number": 2,
            "time": 236.9452182000019,
            "value": 0.9291338582677166
          },
          {
            "number": 2,
            "time": 236.94686293333524,
            "value": 0.9291338582677166
          },
          {
            "number": 2,
            "time": 236.94850766666858,
            "value": 0.9291338582677166
          },
          {
            "number": 2,
            "time": 236.9501524000019,
            "value": 0.9212598425196851
          },
          {
            "number": 2,
            "time": 236.95179713333525,
            "value": 0.9212598425196851
          },
          {
            "number": 2,
            "time": 236.95344186666858,
            "value": 0.9133858267716536
          },
          {
            "number": 2,
            "time": 236.95508660000192,
            "value": 0.9133858267716536
          },
          {
            "number": 2,
            "time": 236.95673133333526,
            "value": 0.9133858267716536
          },
          {
            "number": 2,
            "time": 236.9583760666686,
            "value": 0.905511811023622
          },
          {
            "number": 2,
            "time": 236.96002080000193,
            "value": 0.905511811023622
          },
          {
            "number": 2,
            "time": 236.96166553333526,
            "value": 0.8976377952755905
          },
          {
            "number": 2,
            "time": 236.9633102666686,
            "value": 0.8976377952755905
          },
          {
            "number": 2,
            "time": 236.96495500000194,
            "value": 0.8976377952755905
          },
          {
            "number": 2,
            "time": 236.96659973333527,
            "value": 0.889763779527559
          },
          {
            "number": 2,
            "time": 236.9682444666686,
            "value": 0.889763779527559
          },
          {
            "number": 2,
            "time": 236.96988920000194,
            "value": 0.8818897637795275
          },
          {
            "number": 2,
            "time": 236.97153393333528,
            "value": 0.8818897637795275
          },
          {
            "number": 2,
            "time": 236.97317866666862,
            "value": 0.8818897637795275
          },
          {
            "number": 2,
            "time": 236.97482340000195,
            "value": 0.8740157480314961
          },
          {
            "number": 2,
            "time": 236.9764681333353,
            "value": 0.8740157480314961
          },
          {
            "number": 2,
            "time": 236.97811286666862,
            "value": 0.8661417322834646
          },
          {
            "number": 2,
            "time": 236.97975760000196,
            "value": 0.8661417322834646
          },
          {
            "number": 2,
            "time": 236.9814023333353,
            "value": 0.8661417322834646
          },
          {
            "number": 2,
            "time": 236.98304706666863,
            "value": 0.8582677165354331
          },
          {
            "number": 2,
            "time": 236.98469180000197,
            "value": 0.8582677165354331
          },
          {
            "number": 2,
            "time": 236.9863365333353,
            "value": 0.8503937007874016
          },
          {
            "number": 2,
            "time": 236.98798126666864,
            "value": 0.8503937007874016
          },
          {
            "number": 2,
            "time": 236.98962600000198,
            "value": 0.8503937007874016
          },
          {
            "number": 2,
            "time": 236.9912707333353,
            "value": 0.84251968503937
          },
          {
            "number": 2,
            "time": 236.99291546666865,
            "value": 0.84251968503937
          },
          {
            "number": 2,
            "time": 236.99456020000198,
            "value": 0.8346456692913385
          },
          {
            "number": 2,
            "time": 236.99620493333532,
            "value": 0.8346456692913385
          },
          {
            "number": 2,
            "time": 236.99784966666866,
            "value": 0.8346456692913385
          },
          {
            "number": 2,
            "time": 236.999494400002,
            "value": 0.8267716535433071
          },
          {
            "number": 2,
            "time": 237.00113913333533,
            "value": 0.8267716535433071
          },
          {
            "number": 2,
            "time": 237.00278386666866,
            "value": 0.8188976377952756
          },
          {
            "number": 2,
            "time": 237.004428600002,
            "value": 0.8188976377952756
          },
          {
            "number": 2,
            "time": 237.00607333333534,
            "value": 0.8188976377952756
          },
          {
            "number": 2,
            "time": 237.00771806666867,
            "value": 0.8110236220472441
          },
          {
            "number": 2,
            "time": 237.009362800002,
            "value": 0.8110236220472441
          },
          {
            "number": 2,
            "time": 237.01100753333534,
            "value": 0.8031496062992126
          },
          {
            "number": 2,
            "time": 237.01265226666868,
            "value": 0.8031496062992126
          },
          {
            "number": 2,
            "time": 237.01429700000202,
            "value": 0.8031496062992126
          },
          {
            "number": 2,
            "time": 237.01594173333535,
            "value": 0.7952755905511811
          },
          {
            "number": 2,
            "time": 237.0175864666687,
            "value": 0.7952755905511811
          },
          {
            "number": 2,
            "time": 237.01923120000203,
            "value": 0.7874015748031497
          },
          {
            "number": 2,
            "time": 237.02087593333536,
            "value": 0.7874015748031497
          },
          {
            "number": 2,
            "time": 237.0225206666687,
            "value": 0.7874015748031497
          },
          {
            "number": 2,
            "time": 237.02416540000203,
            "value": 0.7795275590551181
          },
          {
            "number": 2,
            "time": 237.02581013333537,
            "value": 0.7795275590551181
          },
          {
            "number": 2,
            "time": 237.0274548666687,
            "value": 0.7716535433070866
          },
          {
            "number": 2,
            "time": 237.02909960000204,
            "value": 0.7716535433070866
          },
          {
            "number": 2,
            "time": 237.03074433333538,
            "value": 0.7716535433070866
          },
          {
            "number": 2,
            "time": 237.0323890666687,
            "value": 0.7637795275590551
          },
          {
            "number": 2,
            "time": 237.03403380000205,
            "value": 0.7637795275590551
          },
          {
            "number": 2,
            "time": 237.03567853333539,
            "value": 0.7559055118110236
          },
          {
            "number": 2,
            "time": 237.03732326666872,
            "value": 0.7559055118110236
          }
        ],
        "7": [
          {
            "number": 7,
            "time": 0,
            "value": 0.7874015748031497
          },
          {
            "number": 7,
            "time": 0,
            "value": 0.7874015748031497
          },
          {
            "number": 7,
            "time": 0,
            "value": 0.7874015748031497
          }
        ],
        "10": [
          {
            "number": 10,
            "time": 0,
            "value": 0.49606299212598426
          },
          {
            "number": 10,
            "time": 0,
            "value": 0.5039370078740157
          },
          {
            "number": 10,
            "time": 0,
            "value": 0.5039370078740157
          }
        ],
        "91": [
          {
            "number": 91,
            "time": 0,
            "value": 0
          },
          {
            "number": 91,
            "time": 0,
            "value": 0
          },
          {
            "number": 91,
            "time": 0,
            "value": 0
          }
        ],
        "93": [
          {
            "number": 93,
            "time": 0,
            "value": 0
          },
          {
            "number": 93,
            "time": 0,
            "value": 0
          },
          {
            "number": 93,
            "time": 0,
            "value": 0
          }
        ],
        "121": [
          {
            "number": 121,
            "time": 0,
            "value": 0
          },
          {
            "number": 121,
            "time": 0,
            "value": 0
          },
          {
            "number": 121,
            "time": 0,
            "value": 0
          }
        ]
      },
      "id": 0,
      "name": "Violin 1",
      "instrumentNumber": 44,
      "instrument": "tremolo strings",
      "instrumentFamily": "strings",
      "channelNumber": 2,
      "isPercussion": false
    },
    {
      "startTime": 3.157888,
      "duration": 237.62942726666918,
      "length": 382,
      "notes": [
        {
          "name": "E6",
          "midi": 88,
          "time": 3.157888,
          "velocity": 0.3858267716535433,
          "duration": 0.7878272666666666
        },
        {
          "name": "G5",
          "midi": 79,
          "time": 3.9473599999999998,
          "velocity": 0.3858267716535433,
          "duration": 2.3667712666666665
        },
        {
          "name": "E5",
          "midi": 76,
          "time": 6.315776,
          "velocity": 0.5039370078740157,
          "duration": 0.7878272666666666
        },
        {
          "name": "G4",
          "midi": 67,
          "time": 7.105248,
          "velocity": 0.5039370078740157,
          "duration": 2.3667712666666674
        },
        {
          "name": "C5",
          "midi": 72,
          "time": 9.473664,
          "velocity": 0.5039370078740157,
          "duration": 3.1562432666666673
        },
        {
          "name": "G4",
          "midi": 67,
          "time": 12.631552,
          "velocity": 0.5039370078740157,
          "duration": 1.1825632666666657
        },
        {
          "name": "A4",
          "midi": 69,
          "time": 13.815759999999997,
          "velocity": 0.5039370078740157,
          "duration": 1.9720352666666656
        },
        {
          "name": "A4",
          "midi": 69,
          "time": 15.789439999999995,
          "velocity": 0.5039370078740157,
          "duration": 1.5772992666666674
        },
        {
          "name": "G#4",
          "midi": 68,
          "time": 17.368383999999995,
          "velocity": 0.5039370078740157,
          "duration": 1.5772992666666674
        },
        {
          "name": "B4",
          "midi": 71,
          "time": 18.947327999999995,
          "velocity": 0.5039370078740157,
          "duration": 0.7878272666666675
        },
        {
          "name": "C5",
          "midi": 72,
          "time": 19.736799999999995,
          "velocity": 0.5039370078740157,
          "duration": 0.7878272666666675
        },
        {
          "name": "B4",
          "midi": 71,
          "time": 20.526271999999995,
          "velocity": 0.5039370078740157,
          "duration": 1.5772992666666674
        },
        {
          "name": "C5",
          "midi": 72,
          "time": 22.105215999999995,
          "velocity": 0.5039370078740157,
          "duration": 3.1562432666666673
        },
        {
          "name": "B4",
          "midi": 71,
          "time": 25.263103999999995,
          "velocity": 0.5039370078740157,
          "duration": 0.7878272666666675
        },
        {
          "name": "D5",
          "midi": 74,
          "time": 26.052575999999995,
          "velocity": 0.5039370078740157,
          "duration": 0.3930912666666657
        },
        {
          "name": "C#5",
          "midi": 73,
          "time": 26.447311999999993,
          "velocity": 0.5039370078740157,
          "duration": 1.9720352666666656
        },
        {
          "name": "C5",
          "midi": 72,
          "time": 28.42099199999999,
          "velocity": 0.5039370078740157,
          "duration": 1.577299266666646
        },
        {
          "name": "G4",
          "midi": 67,
          "time": 29.99993599999997,
          "velocity": 0.6299212598425197,
          "duration": 1.5772992666666674
        },
        {
          "name": "D5",
          "midi": 74,
          "time": 31.57887999999997,
          "velocity": 0.6299212598425197,
          "duration": 0.0953945333333337
        },
        {
          "name": "D5",
          "midi": 74,
          "time": 31.675919266666636,
          "velocity": 0.6299212598425197,
          "duration": 0.0953945333333337
        },
        {
          "name": "D5",
          "midi": 74,
          "time": 31.774603266666634,
          "velocity": 0.6299212598425197,
          "duration": 0.0953945333333337
        },
        {
          "name": "D5",
          "midi": 74,
          "time": 31.8716425333333,
          "velocity": 0.6299212598425197,
          "duration": 0.0953945333333337
        },
        {
          "name": "D5",
          "midi": 74,
          "time": 31.9703265333333,
          "velocity": 0.6299212598425197,
          "duration": 0.0953945333333337
        },
        {
          "name": "D5",
          "midi": 74,
          "time": 32.06736579999997,
          "velocity": 0.6299212598425197,
          "duration": 0.0953945333333337
        },
        {
          "name": "D5",
          "midi": 74,
          "time": 32.16604979999997,
          "velocity": 0.6299212598425197,
          "duration": 0.0953945333333337
        },
        {
          "name": "D5",
          "midi": 74,
          "time": 32.26308906666664,
          "velocity": 0.6299212598425197,
          "duration": 0.0953945333333337
        },
        {
          "name": "D5",
          "midi": 74,
          "time": 32.361773066666636,
          "velocity": 0.6299212598425197,
          "duration": 0.0953945333333337
        },
        {
          "name": "D5",
          "midi": 74,
          "time": 32.458812333333306,
          "velocity": 0.6299212598425197,
          "duration": 0.0953945333333337
        },
        {
          "name": "D5",
          "midi": 74,
          "time": 32.557496333333305,
          "velocity": 0.6299212598425197,
          "duration": 0.0953945333333337
        },
        {
          "name": "D5",
          "midi": 74,
          "time": 32.654535599999974,
          "velocity": 0.6299212598425197,
          "duration": 0.0953945333333337
        },
        {
          "name": "D5",
          "midi": 74,
          "time": 32.75321959999997,
          "velocity": 0.6299212598425197,
          "duration": 0.0953945333333337
        },
        {
          "name": "D5",
          "midi": 74,
          "time": 32.85025886666664,
          "velocity": 0.6299212598425197,
          "duration": 0.0953945333333337
        },
        {
          "name": "D5",
          "midi": 74,
          "time": 32.94894286666664,
          "velocity": 0.6299212598425197,
          "duration": 0.0953945333333337
        },
        {
          "name": "D5",
          "midi": 74,
          "time": 33.04598213333331,
          "velocity": 0.6299212598425197,
          "duration": 0.0953945333333337
        },
        {
          "name": "D5",
          "midi": 74,
          "time": 33.14466613333331,
          "velocity": 0.6299212598425197,
          "duration": 0.0953945333333337
        },
        {
          "name": "D5",
          "midi": 74,
          "time": 33.24170539999998,
          "velocity": 0.6299212598425197,
          "duration": 0.0953945333333337
        },
        {
          "name": "D5",
          "midi": 74,
          "time": 33.34038939999998,
          "velocity": 0.6299212598425197,
          "duration": 0.0953945333333337
        },
        {
          "name": "D5",
          "midi": 74,
          "time": 33.43742866666665,
          "velocity": 0.6299212598425197,
          "duration": 0.0953945333333337
        },
        {
          "name": "D5",
          "midi": 74,
          "time": 33.53611266666665,
          "velocity": 0.6299212598425197,
          "duration": 0.0953945333333337
        },
        {
          "name": "D5",
          "midi": 74,
          "time": 33.633151933333316,
          "velocity": 0.6299212598425197,
          "duration": 0.0953945333333337
        },
        {
          "name": "D5",
          "midi": 74,
          "time": 33.731835933333315,
          "velocity": 0.6299212598425197,
          "duration": 0.0953945333333337
        },
        {
          "name": "D5",
          "midi": 74,
          "time": 33.828875199999985,
          "velocity": 0.6299212598425197,
          "duration": 0.0953945333333337
        },
        {
          "name": "D5",
          "midi": 74,
          "time": 33.92755919999998,
          "velocity": 0.6299212598425197,
          "duration": 0.0953945333333337
        },
        {
          "name": "D5",
          "midi": 74,
          "time": 34.02624319999998,
          "velocity": 0.6299212598425197,
          "duration": 0.0953945333333337
        },
        {
          "name": "D5",
          "midi": 74,
          "time": 34.12328246666665,
          "velocity": 0.6299212598425197,
          "duration": 0.0953945333333337
        },
        {
          "name": "D5",
          "midi": 74,
          "time": 34.22196646666665,
          "velocity": 0.6299212598425197,
          "duration": 0.0953945333333337
        },
        {
          "name": "D5",
          "midi": 74,
          "time": 34.31900573333332,
          "velocity": 0.6299212598425197,
          "duration": 0.0953945333333337
        },
        {
          "name": "D5",
          "midi": 74,
          "time": 34.41768973333332,
          "velocity": 0.6299212598425197,
          "duration": 0.0953945333333337
        },
        {
          "name": "D5",
          "midi": 74,
          "time": 34.51472899999999,
          "velocity": 0.6299212598425197,
          "duration": 0.0953945333333337
        },
        {
          "name": "D5",
          "midi": 74,
          "time": 34.61341299999999,
          "velocity": 0.6299212598425197,
          "duration": 0.0953945333333337
        },
        {
          "name": "F4",
          "midi": 65,
          "time": 34.73676799999999,
          "velocity": 0.5039370078740157,
          "duration": 0.0953945333333337
        },
        {
          "name": "F4",
          "midi": 65,
          "time": 34.83380726666666,
          "velocity": 0.5039370078740157,
          "duration": 0.0953945333333337
        },
        {
          "name": "F4",
          "midi": 65,
          "time": 34.93249126666666,
          "velocity": 0.5039370078740157,
          "duration": 0.0953945333333337
        },
        {
          "name": "F4",
          "midi": 65,
          "time": 35.02953053333333,
          "velocity": 0.5039370078740157,
          "duration": 0.0953945333333337
        },
        {
          "name": "F4",
          "midi": 65,
          "time": 35.12821453333333,
          "velocity": 0.5039370078740157,
          "duration": 0.0953945333333337
        },
        {
          "name": "F4",
          "midi": 65,
          "time": 35.2252538,
          "velocity": 0.5039370078740157,
          "duration": 0.0953945333333337
        },
        {
          "name": "F4",
          "midi": 65,
          "time": 35.323937799999996,
          "velocity": 0.5039370078740157,
          "duration": 0.0953945333333337
        },
        {
          "name": "F4",
          "midi": 65,
          "time": 35.420977066666666,
          "velocity": 0.5039370078740157,
          "duration": 0.0953945333333337
        },
        {
          "name": "F4",
          "midi": 65,
          "time": 35.519661066666664,
          "velocity": 0.5039370078740157,
          "duration": 0.0953945333333337
        },
        {
          "name": "F4",
          "midi": 65,
          "time": 35.616700333333334,
          "velocity": 0.5039370078740157,
          "duration": 0.0953945333333337
        },
        {
          "name": "F4",
          "midi": 65,
          "time": 35.71538433333333,
          "velocity": 0.5039370078740157,
          "duration": 0.0953945333333337
        },
        {
          "name": "F4",
          "midi": 65,
          "time": 35.8124236,
          "velocity": 0.5039370078740157,
          "duration": 0.0953945333333337
        },
        {
          "name": "F4",
          "midi": 65,
          "time": 35.9111076,
          "velocity": 0.5039370078740157,
          "duration": 0.0953945333333337
        },
        {
          "name": "F4",
          "midi": 65,
          "time": 36.00814686666667,
          "velocity": 0.5039370078740157,
          "duration": 0.0953945333333337
        },
        {
          "name": "F4",
          "midi": 65,
          "time": 36.10683086666667,
          "velocity": 0.5039370078740157,
          "duration": 0.0953945333333337
        },
        {
          "name": "F4",
          "midi": 65,
          "time": 36.20387013333334,
          "velocity": 0.5039370078740157,
          "duration": 0.0953945333333337
        },
        {
          "name": "F4",
          "midi": 65,
          "time": 36.30255413333334,
          "velocity": 0.5039370078740157,
          "duration": 0.0953945333333337
        },
        {
          "name": "F4",
          "midi": 65,
          "time": 36.39959340000001,
          "velocity": 0.5039370078740157,
          "duration": 0.0953945333333337
        },
        {
          "name": "F4",
          "midi": 65,
          "time": 36.498277400000006,
          "velocity": 0.5039370078740157,
          "duration": 0.0953945333333337
        },
        {
          "name": "F4",
          "midi": 65,
          "time": 36.595316666666676,
          "velocity": 0.5039370078740157,
          "duration": 0.0953945333333337
        },
        {
          "name": "F4",
          "midi": 65,
          "time": 36.694000666666675,
          "velocity": 0.5039370078740157,
          "duration": 0.0953945333333337
        },
        {
          "name": "F4",
          "midi": 65,
          "time": 36.791039933333344,
          "velocity": 0.5039370078740157,
          "duration": 0.0953945333333337
        },
        {
          "name": "F4",
          "midi": 65,
          "time": 36.88972393333334,
          "velocity": 0.5039370078740157,
          "duration": 0.0953945333333337
        },
        {
          "name": "F4",
          "midi": 65,
          "time": 36.98676320000001,
          "velocity": 0.5039370078740157,
          "duration": 0.0953945333333337
        },
        {
          "name": "F4",
          "midi": 65,
          "time": 37.08544720000001,
          "velocity": 0.5039370078740157,
          "duration": 0.0953945333333337
        },
        {
          "name": "F4",
          "midi": 65,
          "time": 37.18413120000001,
          "velocity": 0.5039370078740157,
          "duration": 0.0953945333333337
        },
        {
          "name": "F4",
          "midi": 65,
          "time": 37.28117046666668,
          "velocity": 0.5039370078740157,
          "duration": 0.0953945333333337
        },
        {
          "name": "F4",
          "midi": 65,
          "time": 37.37985446666668,
          "velocity": 0.5039370078740157,
          "duration": 0.0953945333333337
        },
        {
          "name": "F4",
          "midi": 65,
          "time": 37.47689373333335,
          "velocity": 0.5039370078740157,
          "duration": 0.0953945333333337
        },
        {
          "name": "F4",
          "midi": 65,
          "time": 37.57557773333335,
          "velocity": 0.5039370078740157,
          "duration": 0.0953945333333337
        },
        {
          "name": "F4",
          "midi": 65,
          "time": 37.67261700000002,
          "velocity": 0.5039370078740157,
          "duration": 0.0953945333333337
        },
        {
          "name": "F4",
          "midi": 65,
          "time": 37.771301000000015,
          "velocity": 0.5039370078740157,
          "duration": 0.0953945333333337
        },
        {
          "name": "C4",
          "midi": 60,
          "time": 37.89465600000002,
          "velocity": 0.5039370078740157,
          "duration": 0.0953945333333337
        },
        {
          "name": "C4",
          "midi": 60,
          "time": 37.99169526666669,
          "velocity": 0.5039370078740157,
          "duration": 0.0953945333333337
        },
        {
          "name": "C4",
          "midi": 60,
          "time": 38.09037926666669,
          "velocity": 0.5039370078740157,
          "duration": 0.0953945333333337
        },
        {
          "name": "C4",
          "midi": 60,
          "time": 38.18741853333336,
          "velocity": 0.5039370078740157,
          "duration": 0.0953945333333337
        },
        {
          "name": "C4",
          "midi": 60,
          "time": 38.286102533333356,
          "velocity": 0.5039370078740157,
          "duration": 0.0953945333333337
        },
        {
          "name": "C4",
          "midi": 60,
          "time": 38.383141800000026,
          "velocity": 0.5039370078740157,
          "duration": 0.0953945333333337
        },
        {
          "name": "C4",
          "midi": 60,
          "time": 38.481825800000024,
          "velocity": 0.5039370078740157,
          "duration": 0.0953945333333337
        },
        {
          "name": "C4",
          "midi": 60,
          "time": 38.578865066666694,
          "velocity": 0.5039370078740157,
          "duration": 0.0953945333333337
        },
        {
          "name": "C4",
          "midi": 60,
          "time": 38.67754906666669,
          "velocity": 0.5039370078740157,
          "duration": 0.0953945333333337
        },
        {
          "name": "C4",
          "midi": 60,
          "time": 38.77458833333336,
          "velocity": 0.5039370078740157,
          "duration": 0.0953945333333337
        },
        {
          "name": "C4",
          "midi": 60,
          "time": 38.87327233333336,
          "velocity": 0.5039370078740157,
          "duration": 0.0953945333333337
        },
        {
          "name": "C4",
          "midi": 60,
          "time": 38.97031160000003,
          "velocity": 0.5039370078740157,
          "duration": 0.0953945333333337
        },
        {
          "name": "C4",
          "midi": 60,
          "time": 39.06899560000003,
          "velocity": 0.5039370078740157,
          "duration": 0.0953945333333337
        },
        {
          "name": "C4",
          "midi": 60,
          "time": 39.1660348666667,
          "velocity": 0.5039370078740157,
          "duration": 0.0953945333333337
        },
        {
          "name": "C4",
          "midi": 60,
          "time": 39.2647188666667,
          "velocity": 0.5039370078740157,
          "duration": 0.0953945333333337
        },
        {
          "name": "C4",
          "midi": 60,
          "time": 39.36175813333337,
          "velocity": 0.5039370078740157,
          "duration": 0.0953945333333337
        },
        {
          "name": "C4",
          "midi": 60,
          "time": 39.460442133333366,
          "velocity": 0.5039370078740157,
          "duration": 0.0953945333333337
        },
        {
          "name": "C4",
          "midi": 60,
          "time": 39.557481400000036,
          "velocity": 0.5039370078740157,
          "duration": 0.0953945333333337
        },
        {
          "name": "C4",
          "midi": 60,
          "time": 39.656165400000035,
          "velocity": 0.5039370078740157,
          "duration": 0.0953945333333337
        },
        {
          "name": "C4",
          "midi": 60,
          "time": 39.753204666666704,
          "velocity": 0.5039370078740157,
          "duration": 0.0953945333333337
        },
        {
          "name": "C4",
          "midi": 60,
          "time": 39.8518886666667,
          "velocity": 0.5039370078740157,
          "duration": 0.0953945333333337
        },
        {
          "name": "C4",
          "midi": 60,
          "time": 39.94892793333337,
          "velocity": 0.5039370078740157,
          "duration": 0.0953945333333337
        },
        {
          "name": "C4",
          "midi": 60,
          "time": 40.04761193333337,
          "velocity": 0.5039370078740157,
          "duration": 0.0953945333333337
        },
        {
          "name": "C4",
          "midi": 60,
          "time": 40.14465120000004,
          "velocity": 0.5039370078740157,
          "duration": 0.0953945333333337
        },
        {
          "name": "C4",
          "midi": 60,
          "time": 40.24333520000004,
          "velocity": 0.5039370078740157,
          "duration": 0.0953945333333337
        },
        {
          "name": "C4",
          "midi": 60,
          "time": 40.34201920000004,
          "velocity": 0.5039370078740157,
          "duration": 0.0953945333333337
        },
        {
          "name": "C4",
          "midi": 60,
          "time": 40.43905846666671,
          "velocity": 0.5039370078740157,
          "duration": 0.0953945333333337
        },
        {
          "name": "C4",
          "midi": 60,
          "time": 40.53774246666671,
          "velocity": 0.5039370078740157,
          "duration": 0.0953945333333337
        },
        {
          "name": "C4",
          "midi": 60,
          "time": 40.63478173333338,
          "velocity": 0.5039370078740157,
          "duration": 0.0953945333333337
        },
        {
          "name": "C4",
          "midi": 60,
          "time": 40.733465733333375,
          "velocity": 0.5039370078740157,
          "duration": 0.0953945333333337
        },
        {
          "name": "C4",
          "midi": 60,
          "time": 40.830505000000045,
          "velocity": 0.5039370078740157,
          "duration": 0.0953945333333337
        },
        {
          "name": "C4",
          "midi": 60,
          "time": 40.929189000000044,
          "velocity": 0.5039370078740157,
          "duration": 0.0953945333333337
        },
        {
          "name": "A4",
          "midi": 69,
          "time": 41.05254400000005,
          "velocity": 0.6299212598425197,
          "duration": 0.3930912666666657
        },
        {
          "name": "E5",
          "midi": 76,
          "time": 41.44728000000005,
          "velocity": 0.6299212598425197,
          "duration": 0.3930912666666657
        },
        {
          "name": "D5",
          "midi": 74,
          "time": 41.84201600000005,
          "velocity": 0.6299212598425197,
          "duration": 0.3930912666666657
        },
        {
          "name": "C5",
          "midi": 72,
          "time": 42.23675200000005,
          "velocity": 0.6299212598425197,
          "duration": 0.3930912666666657
        },
        {
          "name": "D5",
          "midi": 74,
          "time": 42.631488000000054,
          "velocity": 0.6299212598425197,
          "duration": 0.7878272666666675
        },
        {
          "name": "G5",
          "midi": 79,
          "time": 43.42096000000006,
          "velocity": 0.6299212598425197,
          "duration": 0.7878272666666675
        },
        {
          "name": "E5",
          "midi": 76,
          "time": 44.21043200000006,
          "velocity": 0.6299212598425197,
          "duration": 0.7878272666667101
        },
        {
          "name": "A5",
          "midi": 81,
          "time": 44.99990400000011,
          "velocity": 0.5039370078740157,
          "duration": 2.3667712666666674
        },
        {
          "name": "C4",
          "midi": 60,
          "time": 47.36832000000011,
          "velocity": 0.5039370078740157,
          "duration": 1.5772992666666497
        },
        {
          "name": "E4",
          "midi": 64,
          "time": 48.9472640000001,
          "velocity": 0.6299212598425197,
          "duration": 1.5772992666666639
        },
        {
          "name": "C#5",
          "midi": 73,
          "time": 50.526208000000096,
          "velocity": 0.6299212598425197,
          "duration": 1.5772992666666639
        },
        {
          "name": "C5",
          "midi": 72,
          "time": 52.105152000000096,
          "velocity": 0.6299212598425197,
          "duration": 1.5772992666666639
        },
        {
          "name": "A4",
          "midi": 69,
          "time": 53.684096000000096,
          "velocity": 0.6299212598425197,
          "duration": 3.1562432666666638
        },
        {
          "name": "C5",
          "midi": 72,
          "time": 56.841984000000096,
          "velocity": 0.6299212598425197,
          "duration": 1.5772992666666639
        },
        {
          "name": "B4",
          "midi": 71,
          "time": 58.420928000000096,
          "velocity": 0.6299212598425197,
          "duration": 1.5772992666666639
        },
        {
          "name": "A3",
          "midi": 57,
          "time": 59.999872000000096,
          "velocity": 0.6299212598425197,
          "duration": 0.3930912666666657
        },
        {
          "name": "E4",
          "midi": 64,
          "time": 60.3946080000001,
          "velocity": 0.6299212598425197,
          "duration": 0.3930912666666657
        },
        {
          "name": "A4",
          "midi": 69,
          "time": 60.7893440000001,
          "velocity": 0.6299212598425197,
          "duration": 0.3930912666666657
        },
        {
          "name": "C5",
          "midi": 72,
          "time": 61.1840800000001,
          "velocity": 0.6299212598425197,
          "duration": 0.3930912666666657
        },
        {
          "name": "G#3",
          "midi": 56,
          "time": 61.5788160000001,
          "velocity": 0.6299212598425197,
          "duration": 0.3930912666666657
        },
        {
          "name": "C4",
          "midi": 60,
          "time": 61.973552000000105,
          "velocity": 0.6299212598425197,
          "duration": 0.3930912666666657
        },
        {
          "name": "E4",
          "midi": 64,
          "time": 62.368288000000106,
          "velocity": 0.6299212598425197,
          "duration": 0.3930912666666657
        },
        {
          "name": "G#4",
          "midi": 68,
          "time": 62.76302400000011,
          "velocity": 0.6299212598425197,
          "duration": 0.3930912666666657
        },
        {
          "name": "G3",
          "midi": 55,
          "time": 63.15776000000011,
          "velocity": 0.6299212598425197,
          "duration": 0.3930912666666657
        },
        {
          "name": "C4",
          "midi": 60,
          "time": 63.55249600000011,
          "velocity": 0.6299212598425197,
          "duration": 0.3930912666666657
        },
        {
          "name": "E4",
          "midi": 64,
          "time": 63.94723200000011,
          "velocity": 0.6299212598425197,
          "duration": 0.3930912666666728
        },
        {
          "name": "F#4",
          "midi": 66,
          "time": 64.34196800000012,
          "velocity": 0.6299212598425197,
          "duration": 0.3930912666666728
        },
        {
          "name": "A4",
          "midi": 69,
          "time": 64.73670400000013,
          "velocity": 0.6299212598425197,
          "duration": 0.3930912666666728
        },
        {
          "name": "F#4",
          "midi": 66,
          "time": 65.13144000000014,
          "velocity": 0.6299212598425197,
          "duration": 0.3930912666666728
        },
        {
          "name": "C4",
          "midi": 60,
          "time": 65.52617600000015,
          "velocity": 0.6299212598425197,
          "duration": 0.7878272666666675
        },
        {
          "name": "F4",
          "midi": 65,
          "time": 66.31564800000015,
          "velocity": 0.6299212598425197,
          "duration": 1.577299266666671
        },
        {
          "name": "A#3",
          "midi": 58,
          "time": 67.89459200000016,
          "velocity": 0.6299212598425197,
          "duration": 1.577299266666671
        },
        {
          "name": "E4",
          "midi": 64,
          "time": 69.47353600000017,
          "velocity": 0.6299212598425197,
          "duration": 0.7878272666667101
        },
        {
          "name": "D#4",
          "midi": 63,
          "time": 70.26300800000021,
          "velocity": 0.5669291338582677,
          "duration": 0.7878272666667101
        },
        {
          "name": "E4",
          "midi": 64,
          "time": 71.05248000000026,
          "velocity": 0.5039370078740157,
          "duration": 0.1957232666666613
        },
        {
          "name": "C5",
          "midi": 72,
          "time": 71.24984800000026,
          "velocity": 0.5196850393700787,
          "duration": 0.1957232666666613
        },
        {
          "name": "B4",
          "midi": 71,
          "time": 71.44721600000025,
          "velocity": 0.5354330708661418,
          "duration": 0.1957232666666755
        },
        {
          "name": "A4",
          "midi": 69,
          "time": 71.64458400000026,
          "velocity": 0.5511811023622047,
          "duration": 0.1957232666666613
        },
        {
          "name": "G#4",
          "midi": 68,
          "time": 71.84195200000026,
          "velocity": 0.5748031496062992,
          "duration": 0.1957232666666613
        },
        {
          "name": "F4",
          "midi": 65,
          "time": 72.03932000000026,
          "velocity": 0.5905511811023622,
          "duration": 0.1957232666666613
        },
        {
          "name": "E5",
          "midi": 76,
          "time": 72.23668800000026,
          "velocity": 0.6062992125984252,
          "duration": 0.1957232666666613
        },
        {
          "name": "D5",
          "midi": 74,
          "time": 72.43405600000025,
          "velocity": 0.6299212598425197,
          "duration": 0.1957232666666613
        },
        {
          "name": "C5",
          "midi": 72,
          "time": 72.63142400000025,
          "velocity": 0.6299212598425197,
          "duration": 1.577299266666671
        },
        {
          "name": "B4",
          "midi": 71,
          "time": 74.21036800000026,
          "velocity": 0.6299212598425197,
          "duration": 1.577299266666671
        },
        {
          "name": "C5",
          "midi": 72,
          "time": 75.78931200000027,
          "velocity": 0.6299212598425197,
          "duration": 1.1825632666666621
        },
        {
          "name": "C#5",
          "midi": 73,
          "time": 76.97352000000026,
          "velocity": 0.6299212598425197,
          "duration": 1.9720352666666656
        },
        {
          "name": "A5",
          "midi": 81,
          "time": 79.34193600000026,
          "velocity": 0.6299212598425197,
          "duration": 0.3930912666666728
        },
        {
          "name": "G5",
          "midi": 79,
          "time": 79.73667200000027,
          "velocity": 0.6299212598425197,
          "duration": 0.3930912666666728
        },
        {
          "name": "A5",
          "midi": 81,
          "time": 80.13140800000028,
          "velocity": 0.6299212598425197,
          "duration": 0.3930912666666728
        },
        {
          "name": "B5",
          "midi": 83,
          "time": 80.52614400000029,
          "velocity": 0.6299212598425197,
          "duration": 0.7878272666666675
        },
        {
          "name": "G5",
          "midi": 79,
          "time": 81.31561600000029,
          "velocity": 0.6299212598425197,
          "duration": 0.7878272666666675
        },
        {
          "name": "A5",
          "midi": 81,
          "time": 82.1050880000003,
          "velocity": 0.6299212598425197,
          "duration": 1.1825632666666621
        },
        {
          "name": "G5",
          "midi": 79,
          "time": 83.28929600000029,
          "velocity": 0.6299212598425197,
          "duration": 0.3930912666666728
        },
        {
          "name": "A5",
          "midi": 81,
          "time": 83.6840320000003,
          "velocity": 0.6299212598425197,
          "duration": 1.577299266666671
        },
        {
          "name": "F4",
          "midi": 65,
          "time": 85.26297600000031,
          "velocity": 0.6299212598425197,
          "duration": 1.577299266666671
        },
        {
          "name": "G4",
          "midi": 67,
          "time": 86.84192000000031,
          "velocity": 0.6299212598425197,
          "duration": 1.577299266666671
        },
        {
          "name": "A4",
          "midi": 69,
          "time": 88.42086400000032,
          "velocity": 0.6299212598425197,
          "duration": 7.893075266666671
        },
        {
          "name": "A3",
          "midi": 57,
          "time": 96.31558400000033,
          "velocity": 0.6299212598425197,
          "duration": 0.1957232666666613
        },
        {
          "name": "B3",
          "midi": 59,
          "time": 96.51295200000033,
          "velocity": 0.6456692913385826,
          "duration": 0.1957232666666613
        },
        {
          "name": "C4",
          "midi": 60,
          "time": 96.71032000000032,
          "velocity": 0.6614173228346457,
          "duration": 0.1957232666666755
        },
        {
          "name": "D4",
          "midi": 62,
          "time": 96.90768800000033,
          "velocity": 0.6771653543307087,
          "duration": 0.1957232666666613
        },
        {
          "name": "E4",
          "midi": 64,
          "time": 97.10505600000033,
          "velocity": 0.7007874015748031,
          "duration": 0.1957232666666613
        },
        {
          "name": "F4",
          "midi": 65,
          "time": 97.30242400000033,
          "velocity": 0.7165354330708661,
          "duration": 0.1957232666666613
        },
        {
          "name": "G4",
          "midi": 67,
          "time": 97.49979200000033,
          "velocity": 0.7322834645669292,
          "duration": 0.1957232666666613
        },
        {
          "name": "A4",
          "midi": 69,
          "time": 97.69716000000032,
          "velocity": 0.7559055118110236,
          "duration": 0.1957232666666613
        },
        {
          "name": "C5",
          "midi": 72,
          "time": 98.28926400000032,
          "velocity": 0.7559055118110236,
          "duration": 0.3930912666666728
        },
        {
          "name": "A#4",
          "midi": 70,
          "time": 98.68400000000032,
          "velocity": 0.7559055118110236,
          "duration": 0.3930912666666728
        },
        {
          "name": "A4",
          "midi": 69,
          "time": 99.07873600000033,
          "velocity": 0.7559055118110236,
          "duration": 0.3930912666666728
        },
        {
          "name": "A#4",
          "midi": 70,
          "time": 99.47347200000034,
          "velocity": 0.7559055118110236,
          "duration": 0.7878272666666675
        },
        {
          "name": "D5",
          "midi": 74,
          "time": 100.26294400000035,
          "velocity": 0.7559055118110236,
          "duration": 0.7878272666666675
        },
        {
          "name": "B4",
          "midi": 71,
          "time": 101.05241600000035,
          "velocity": 0.7559055118110236,
          "duration": 0.7878272666666675
        },
        {
          "name": "C5",
          "midi": 72,
          "time": 101.84188800000035,
          "velocity": 0.7559055118110236,
          "duration": 0.7878272666666675
        },
        {
          "name": "D5",
          "midi": 74,
          "time": 102.63136000000036,
          "velocity": 0.7559055118110236,
          "duration": 0.7878272666666675
        },
        {
          "name": "G5",
          "midi": 79,
          "time": 103.42083200000036,
          "velocity": 0.7559055118110236,
          "duration": 0.7878272666666675
        },
        {
          "name": "C5",
          "midi": 72,
          "time": 104.21030400000036,
          "velocity": 0.7559055118110236,
          "duration": 3.1562432666666638
        },
        {
          "name": "B4",
          "midi": 71,
          "time": 107.76292800000036,
          "velocity": 0.7559055118110236,
          "duration": 0.3930912666666728
        },
        {
          "name": "B4",
          "midi": 71,
          "time": 108.15766400000037,
          "velocity": 0.7559055118110236,
          "duration": 0.3930912666666728
        },
        {
          "name": "A4",
          "midi": 69,
          "time": 108.55240000000038,
          "velocity": 0.7559055118110236,
          "duration": 0.3930912666666728
        },
        {
          "name": "B4",
          "midi": 71,
          "time": 108.94713600000038,
          "velocity": 0.7559055118110236,
          "duration": 0.7878272666666675
        },
        {
          "name": "G5",
          "midi": 79,
          "time": 109.73660800000039,
          "velocity": 0.7559055118110236,
          "duration": 0.7878272666666675
        },
        {
          "name": "E5",
          "midi": 76,
          "time": 110.52608000000039,
          "velocity": 0.7559055118110236,
          "duration": 1.577299266666671
        },
        {
          "name": "D4",
          "midi": 62,
          "time": 112.1050240000004,
          "velocity": 1,
          "duration": 1.1825632666666621
        },
        {
          "name": "E4",
          "midi": 64,
          "time": 113.2892320000004,
          "velocity": 0.7559055118110236,
          "duration": 0.1957232666666613
        },
        {
          "name": "A3",
          "midi": 57,
          "time": 113.68396800000039,
          "velocity": 0.5039370078740157,
          "duration": 3.1562432666666638
        },
        {
          "name": "G5",
          "midi": 79,
          "time": 116.84185600000039,
          "velocity": 0.5039370078740157,
          "duration": 1.1825632666666621
        },
        {
          "name": "A5",
          "midi": 81,
          "time": 118.02606400000039,
          "velocity": 0.5039370078740157,
          "duration": 0.3930912666666728
        },
        {
          "name": "G5",
          "midi": 79,
          "time": 118.4208000000004,
          "velocity": 0.5039370078740157,
          "duration": 1.1825632666666621
        },
        {
          "name": "A5",
          "midi": 81,
          "time": 119.6050080000004,
          "velocity": 0.5039370078740157,
          "duration": 0.3930912666666728
        },
        {
          "name": "E5",
          "midi": 76,
          "time": 119.9997440000004,
          "velocity": 0.5039370078740157,
          "duration": 1.1825632666666621
        },
        {
          "name": "G#4",
          "midi": 68,
          "time": 121.1839520000004,
          "velocity": 0.5039370078740157,
          "duration": 0.19572326666664708
        },
        {
          "name": "B4",
          "midi": 71,
          "time": 121.38132000000039,
          "velocity": 0.5354330708661418,
          "duration": 0.19572326666664708
        },
        {
          "name": "C5",
          "midi": 72,
          "time": 121.57868800000037,
          "velocity": 0.5669291338582677,
          "duration": 0.5904592666666133
        },
        {
          "name": "A4",
          "midi": 69,
          "time": 122.17079200000032,
          "velocity": 0.6614173228346457,
          "duration": 0.5904592666666133
        },
        {
          "name": "G5",
          "midi": 79,
          "time": 122.76289600000027,
          "velocity": 0.7559055118110236,
          "duration": 0.3930912666666728
        },
        {
          "name": "D5",
          "midi": 74,
          "time": 123.15763200000028,
          "velocity": 0.7559055118110236,
          "duration": 1.577299266666671
        },
        {
          "name": "C5",
          "midi": 72,
          "time": 124.73657600000028,
          "velocity": 0.7559055118110236,
          "duration": 1.1825632666666621
        },
        {
          "name": "E5",
          "midi": 76,
          "time": 125.92078400000028,
          "velocity": 0.7559055118110236,
          "duration": 0.3930912666666728
        },
        {
          "name": "E5",
          "midi": 76,
          "time": 126.31552000000029,
          "velocity": 1,
          "duration": 1.5772992666669836
        },
        {
          "name": "B4",
          "midi": 71,
          "time": 127.89446400000061,
          "velocity": 1,
          "duration": 1.5772992666669694
        },
        {
          "name": "A5",
          "midi": 81,
          "time": 129.47340800000092,
          "velocity": 0.7559055118110236,
          "duration": 1.1825632666666763
        },
        {
          "name": "B5",
          "midi": 83,
          "time": 130.65761600000093,
          "velocity": 0.7559055118110236,
          "duration": 0.1957232666666755
        },
        {
          "name": "A5",
          "midi": 81,
          "time": 130.85498400000094,
          "velocity": 0.7559055118110236,
          "duration": 0.1957232666666755
        },
        {
          "name": "G#5",
          "midi": 80,
          "time": 131.05235200000095,
          "velocity": 0.7559055118110236,
          "duration": 1.577299266666671
        },
        {
          "name": "E5",
          "midi": 76,
          "time": 132.63129600000096,
          "velocity": 0.9448818897637795,
          "duration": 0.3930912666669997
        },
        {
          "name": "G4",
          "midi": 67,
          "time": 133.0260320000013,
          "velocity": 0.6299212598425197,
          "duration": 0.1957232666666755
        },
        {
          "name": "A4",
          "midi": 69,
          "time": 133.4207680000013,
          "velocity": 0.6299212598425197,
          "duration": 0.1957232666666755
        },
        {
          "name": "B4",
          "midi": 71,
          "time": 133.81550400000128,
          "velocity": 0.6299212598425197,
          "duration": 0.1957232666666755
        },
        {
          "name": "E4",
          "midi": 64,
          "time": 134.21024000000128,
          "velocity": 0.6299212598425197,
          "duration": 0.1957232666666755
        },
        {
          "name": "G4",
          "midi": 67,
          "time": 134.60497600000127,
          "velocity": 0.6299212598425197,
          "duration": 0.1957232666666755
        },
        {
          "name": "A4",
          "midi": 69,
          "time": 134.99971200000127,
          "velocity": 0.6299212598425197,
          "duration": 0.1957232666666755
        },
        {
          "name": "B4",
          "midi": 71,
          "time": 135.39444800000126,
          "velocity": 0.6299212598425197,
          "duration": 0.1957232666666755
        },
        {
          "name": "E4",
          "midi": 64,
          "time": 135.78918400000126,
          "velocity": 0.6299212598425197,
          "duration": 0.1957232666666755
        },
        {
          "name": "G4",
          "midi": 67,
          "time": 136.18392000000125,
          "velocity": 0.6299212598425197,
          "duration": 0.1957232666666755
        },
        {
          "name": "A4",
          "midi": 69,
          "time": 136.57865600000125,
          "velocity": 0.6299212598425197,
          "duration": 0.1957232666666755
        },
        {
          "name": "B4",
          "midi": 71,
          "time": 136.97339200000124,
          "velocity": 0.6299212598425197,
          "duration": 0.1957232666666755
        },
        {
          "name": "E4",
          "midi": 64,
          "time": 137.36812800000124,
          "velocity": 0.6299212598425197,
          "duration": 0.1957232666666755
        },
        {
          "name": "G4",
          "midi": 67,
          "time": 137.76286400000123,
          "velocity": 0.6299212598425197,
          "duration": 0.1957232666666755
        },
        {
          "name": "A4",
          "midi": 69,
          "time": 138.15760000000122,
          "velocity": 0.6299212598425197,
          "duration": 0.1957232666666755
        },
        {
          "name": "B4",
          "midi": 71,
          "time": 138.55233600000122,
          "velocity": 0.6299212598425197,
          "duration": 0.1957232666666755
        },
        {
          "name": "E5",
          "midi": 76,
          "time": 138.9470720000012,
          "velocity": 0.6299212598425197,
          "duration": 1.1825632666666763
        },
        {
          "name": "F5",
          "midi": 77,
          "time": 140.13128000000123,
          "velocity": 0.6299212598425197,
          "duration": 0.3930912666666586
        },
        {
          "name": "E5",
          "midi": 76,
          "time": 140.52601600000122,
          "velocity": 0.6299212598425197,
          "duration": 1.1825632666666763
        },
        {
          "name": "F5",
          "midi": 77,
          "time": 141.71022400000123,
          "velocity": 0.6299212598425197,
          "duration": 0.3930912666666586
        },
        {
          "name": "E5",
          "midi": 76,
          "time": 142.10496000000123,
          "velocity": 0.6299212598425197,
          "duration": 0.3930912666666586
        },
        {
          "name": "C5",
          "midi": 72,
          "time": 142.49969600000122,
          "velocity": 0.6299212598425197,
          "duration": 0.3930912666666586
        },
        {
          "name": "F5",
          "midi": 77,
          "time": 142.89443200000122,
          "velocity": 0.6299212598425197,
          "duration": 0.3930912666666586
        },
        {
          "name": "E5",
          "midi": 76,
          "time": 143.2891680000012,
          "velocity": 0.6299212598425197,
          "duration": 1.1825632666666763
        },
        {
          "name": "B4",
          "midi": 71,
          "time": 144.86811200000122,
          "velocity": 0.6299212598425197,
          "duration": 0.3930912666666586
        },
        {
          "name": "A4",
          "midi": 69,
          "time": 145.2628480000012,
          "velocity": 0.6299212598425197,
          "duration": 0.3930912666666586
        },
        {
          "name": "E5",
          "midi": 76,
          "time": 145.6575840000012,
          "velocity": 0.6299212598425197,
          "duration": 0.3930912666666586
        },
        {
          "name": "D5",
          "midi": 74,
          "time": 146.0523200000012,
          "velocity": 0.6299212598425197,
          "duration": 0.3930912666666586
        },
        {
          "name": "C5",
          "midi": 72,
          "time": 146.4470560000012,
          "velocity": 0.6299212598425197,
          "duration": 0.3930912666666586
        },
        {
          "name": "D5",
          "midi": 74,
          "time": 146.8417920000012,
          "velocity": 0.6299212598425197,
          "duration": 0.7878272666666533
        },
        {
          "name": "G5",
          "midi": 79,
          "time": 147.63126400000118,
          "velocity": 0.6299212598425197,
          "duration": 0.7878272666666533
        },
        {
          "name": "E5",
          "midi": 76,
          "time": 148.42073600000117,
          "velocity": 0.6299212598425197,
          "duration": 0.7878272666666533
        },
        {
          "name": "F5",
          "midi": 77,
          "time": 149.21020800000116,
          "velocity": 0.6299212598425197,
          "duration": 0.7878272666666533
        },
        {
          "name": "E5",
          "midi": 76,
          "time": 149.99968000000115,
          "velocity": 0.6299212598425197,
          "duration": 1.577299266666671
        },
        {
          "name": "E5",
          "midi": 76,
          "time": 151.57862400000116,
          "velocity": 0.6299212598425197,
          "duration": 1.1825632666666763
        },
        {
          "name": "F5",
          "midi": 77,
          "time": 152.76283200000117,
          "velocity": 0.6299212598425197,
          "duration": 0.3930912666666586
        },
        {
          "name": "E5",
          "midi": 76,
          "time": 153.15756800000116,
          "velocity": 0.6299212598425197,
          "duration": 1.1825632666666763
        },
        {
          "name": "F5",
          "midi": 77,
          "time": 154.34177600000118,
          "velocity": 0.6299212598425197,
          "duration": 0.3930912666666586
        },
        {
          "name": "E5",
          "midi": 76,
          "time": 154.73651200000117,
          "velocity": 0.6299212598425197,
          "duration": 0.7878272666666533
        },
        {
          "name": "B5",
          "midi": 83,
          "time": 155.52598400000116,
          "velocity": 0.6299212598425197,
          "duration": 0.3930912666666586
        },
        {
          "name": "A5",
          "midi": 81,
          "time": 155.92072000000115,
          "velocity": 0.6299212598425197,
          "duration": 1.9720352666666656
        },
        {
          "name": "D#5",
          "midi": 75,
          "time": 157.89440000000116,
          "velocity": 0.6299212598425197,
          "duration": 0.3930912666666586
        },
        {
          "name": "A5",
          "midi": 81,
          "time": 158.28913600000115,
          "velocity": 0.6299212598425197,
          "duration": 0.3930912666666586
        },
        {
          "name": "G5",
          "midi": 79,
          "time": 158.68387200000114,
          "velocity": 0.6299212598425197,
          "duration": 0.3930912666666586
        },
        {
          "name": "A5",
          "midi": 81,
          "time": 159.07860800000114,
          "velocity": 0.6299212598425197,
          "duration": 0.3930912666666586
        },
        {
          "name": "B5",
          "midi": 83,
          "time": 159.47334400000113,
          "velocity": 0.6299212598425197,
          "duration": 0.7878272666666533
        },
        {
          "name": "G5",
          "midi": 79,
          "time": 160.26281600000112,
          "velocity": 0.6299212598425197,
          "duration": 0.7878272666666533
        },
        {
          "name": "A5",
          "midi": 81,
          "time": 161.0522880000011,
          "velocity": 0.6299212598425197,
          "duration": 0.5904592666666133
        },
        {
          "name": "G5",
          "midi": 79,
          "time": 161.64439200000106,
          "velocity": 0.5354330708661418,
          "duration": 0.19572326666664708
        },
        {
          "name": "A5",
          "midi": 81,
          "time": 161.84176000000105,
          "velocity": 0.5039370078740157,
          "duration": 2.3667712666666603
        },
        {
          "name": "C4",
          "midi": 60,
          "time": 164.21017600000104,
          "velocity": 0.5039370078740157,
          "duration": 0.1957232666666755
        },
        {
          "name": "D4",
          "midi": 62,
          "time": 164.60491200000104,
          "velocity": 0.5196850393700787,
          "duration": 0.1957232666666755
        },
        {
          "name": "E4",
          "midi": 64,
          "time": 164.99964800000103,
          "velocity": 0.5354330708661418,
          "duration": 0.1957232666666755
        },
        {
          "name": "F4",
          "midi": 65,
          "time": 165.39438400000103,
          "velocity": 0.5511811023622047,
          "duration": 0.1957232666666755
        },
        {
          "name": "A4",
          "midi": 69,
          "time": 165.78912000000105,
          "velocity": 0.5748031496062992,
          "duration": 0.09703926666665552
        },
        {
          "name": "G4",
          "midi": 67,
          "time": 165.98648800000103,
          "velocity": 0.5826771653543307,
          "duration": 0.09703926666665552
        },
        {
          "name": "A4",
          "midi": 69,
          "time": 166.18385600000101,
          "velocity": 0.5905511811023622,
          "duration": 0.19572326666664708
        },
        {
          "name": "F4",
          "midi": 65,
          "time": 166.578592000001,
          "velocity": 0.6062992125984252,
          "duration": 0.1957232666666755
        },
        {
          "name": "C4",
          "midi": 60,
          "time": 166.973328000001,
          "velocity": 0.6299212598425197,
          "duration": 0.1957232666666755
        },
        {
          "name": "E4",
          "midi": 64,
          "time": 167.368064000001,
          "velocity": 0.6299212598425197,
          "duration": 0.1957232666666755
        },
        {
          "name": "G4",
          "midi": 67,
          "time": 167.762800000001,
          "velocity": 0.6299212598425197,
          "duration": 0.1957232666666755
        },
        {
          "name": "A4",
          "midi": 69,
          "time": 168.157536000001,
          "velocity": 0.6299212598425197,
          "duration": 0.1957232666666755
        },
        {
          "name": "B4",
          "midi": 71,
          "time": 168.55227200000098,
          "velocity": 0.6299212598425197,
          "duration": 0.1957232666666755
        },
        {
          "name": "E4",
          "midi": 64,
          "time": 168.94700800000098,
          "velocity": 0.6299212598425197,
          "duration": 0.1957232666666755
        },
        {
          "name": "G4",
          "midi": 67,
          "time": 169.34174400000097,
          "velocity": 0.6299212598425197,
          "duration": 0.1957232666666755
        },
        {
          "name": "A4",
          "midi": 69,
          "time": 169.73648000000097,
          "velocity": 0.6299212598425197,
          "duration": 0.1957232666666755
        },
        {
          "name": "B4",
          "midi": 71,
          "time": 170.13121600000096,
          "velocity": 0.6299212598425197,
          "duration": 0.1957232666666755
        },
        {
          "name": "E4",
          "midi": 64,
          "time": 170.52595200000096,
          "velocity": 0.6299212598425197,
          "duration": 0.1957232666666755
        },
        {
          "name": "G4",
          "midi": 67,
          "time": 170.92068800000095,
          "velocity": 0.6299212598425197,
          "duration": 0.1957232666666755
        },
        {
          "name": "A4",
          "midi": 69,
          "time": 171.31542400000095,
          "velocity": 0.6299212598425197,
          "duration": 0.1957232666666755
        },
        {
          "name": "B4",
          "midi": 71,
          "time": 171.71016000000094,
          "velocity": 0.6299212598425197,
          "duration": 0.1957232666666755
        },
        {
          "name": "E4",
          "midi": 64,
          "time": 172.10489600000093,
          "velocity": 0.6299212598425197,
          "duration": 0.1957232666666755
        },
        {
          "name": "G4",
          "midi": 67,
          "time": 172.49963200000093,
          "velocity": 0.6299212598425197,
          "duration": 0.1957232666666755
        },
        {
          "name": "A4",
          "midi": 69,
          "time": 172.89436800000092,
          "velocity": 0.6299212598425197,
          "duration": 0.1957232666666755
        },
        {
          "name": "B4",
          "midi": 71,
          "time": 173.28910400000092,
          "velocity": 0.6299212598425197,
          "duration": 0.1957232666666755
        },
        {
          "name": "A4",
          "midi": 69,
          "time": 173.6838400000009,
          "velocity": 0.6299212598425197,
          "duration": 0.1957232666666755
        },
        {
          "name": "A#4",
          "midi": 70,
          "time": 174.0785760000009,
          "velocity": 0.6299212598425197,
          "duration": 0.1957232666666755
        },
        {
          "name": "C5",
          "midi": 72,
          "time": 174.4733120000009,
          "velocity": 0.6299212598425197,
          "duration": 0.1957232666666755
        },
        {
          "name": "D5",
          "midi": 74,
          "time": 174.8680480000009,
          "velocity": 0.6299212598425197,
          "duration": 0.1957232666666755
        },
        {
          "name": "A4",
          "midi": 69,
          "time": 175.2627840000009,
          "velocity": 0.6299212598425197,
          "duration": 0.1957232666666755
        },
        {
          "name": "A#4",
          "midi": 70,
          "time": 175.6575200000009,
          "velocity": 0.6299212598425197,
          "duration": 0.1957232666666755
        },
        {
          "name": "C5",
          "midi": 72,
          "time": 176.05225600000088,
          "velocity": 0.6299212598425197,
          "duration": 0.1957232666666755
        },
        {
          "name": "D5",
          "midi": 74,
          "time": 176.44699200000088,
          "velocity": 0.6299212598425197,
          "duration": 0.1957232666666755
        },
        {
          "name": "C5",
          "midi": 72,
          "time": 176.84172800000087,
          "velocity": 0.6299212598425197,
          "duration": 0.1957232666666755
        },
        {
          "name": "A4",
          "midi": 69,
          "time": 177.23646400000086,
          "velocity": 0.6299212598425197,
          "duration": 0.1957232666666755
        },
        {
          "name": "C5",
          "midi": 72,
          "time": 177.63120000000086,
          "velocity": 0.6299212598425197,
          "duration": 0.1957232666666755
        },
        {
          "name": "A4",
          "midi": 69,
          "time": 178.02593600000085,
          "velocity": 0.6299212598425197,
          "duration": 0.1957232666666755
        },
        {
          "name": "D5",
          "midi": 74,
          "time": 178.42067200000085,
          "velocity": 0.6299212598425197,
          "duration": 0.1957232666666755
        },
        {
          "name": "B4",
          "midi": 71,
          "time": 178.81540800000084,
          "velocity": 0.6299212598425197,
          "duration": 0.1957232666666755
        },
        {
          "name": "D5",
          "midi": 74,
          "time": 179.21014400000084,
          "velocity": 0.6299212598425197,
          "duration": 0.1957232666666755
        },
        {
          "name": "B4",
          "midi": 71,
          "time": 179.60488000000083,
          "velocity": 0.6299212598425197,
          "duration": 0.1957232666666755
        },
        {
          "name": "E5",
          "midi": 76,
          "time": 179.99961600000083,
          "velocity": 0.6299212598425197,
          "duration": 0.1957232666666755
        },
        {
          "name": "D5",
          "midi": 74,
          "time": 180.39435200000082,
          "velocity": 0.6299212598425197,
          "duration": 0.1957232666666755
        },
        {
          "name": "C5",
          "midi": 72,
          "time": 180.78908800000082,
          "velocity": 0.6377952755905512,
          "duration": 0.1957232666666755
        },
        {
          "name": "A4",
          "midi": 69,
          "time": 181.1838240000008,
          "velocity": 0.6456692913385826,
          "duration": 0.1957232666666755
        },
        {
          "name": "E5",
          "midi": 76,
          "time": 181.5785600000008,
          "velocity": 0.6456692913385826,
          "duration": 0.1957232666666755
        },
        {
          "name": "D5",
          "midi": 74,
          "time": 181.9732960000008,
          "velocity": 0.6535433070866141,
          "duration": 0.1957232666666755
        },
        {
          "name": "C5",
          "midi": 72,
          "time": 182.3680320000008,
          "velocity": 0.6614173228346457,
          "duration": 0.1957232666666755
        },
        {
          "name": "A4",
          "midi": 69,
          "time": 182.7627680000008,
          "velocity": 0.6614173228346457,
          "duration": 0.1957232666666755
        },
        {
          "name": "E5",
          "midi": 76,
          "time": 183.15750400000078,
          "velocity": 0.6692913385826772,
          "duration": 0.1957232666666755
        },
        {
          "name": "D5",
          "midi": 74,
          "time": 183.55224000000078,
          "velocity": 0.6771653543307087,
          "duration": 0.1957232666666755
        },
        {
          "name": "C5",
          "midi": 72,
          "time": 183.94697600000077,
          "velocity": 0.6771653543307087,
          "duration": 0.1957232666666755
        },
        {
          "name": "A4",
          "midi": 69,
          "time": 184.34171200000077,
          "velocity": 0.6850393700787402,
          "duration": 0.1957232666666755
        },
        {
          "name": "E5",
          "midi": 76,
          "time": 184.7364480000008,
          "velocity": 0.6929133858267716,
          "duration": 0.1957232666666755
        },
        {
          "name": "D5",
          "midi": 74,
          "time": 185.13118400000081,
          "velocity": 0.7007874015748031,
          "duration": 0.1957232666666755
        },
        {
          "name": "C5",
          "midi": 72,
          "time": 185.5259200000008,
          "velocity": 0.7007874015748031,
          "duration": 0.19572326666664708
        },
        {
          "name": "A4",
          "midi": 69,
          "time": 185.92065600000078,
          "velocity": 0.7086614173228346,
          "duration": 0.1957232666666755
        },
        {
          "name": "D#5",
          "midi": 75,
          "time": 186.3153920000008,
          "velocity": 0.7165354330708661,
          "duration": 0.1957232666666755
        },
        {
          "name": "D5",
          "midi": 74,
          "time": 186.7101280000008,
          "velocity": 0.7165354330708661,
          "duration": 0.19572326666664708
        },
        {
          "name": "C5",
          "midi": 72,
          "time": 187.10486400000076,
          "velocity": 0.7244094488188977,
          "duration": 0.1957232666666755
        },
        {
          "name": "A4",
          "midi": 69,
          "time": 187.49960000000078,
          "velocity": 0.7322834645669292,
          "duration": 0.1957232666666755
        },
        {
          "name": "D#5",
          "midi": 75,
          "time": 187.89433600000078,
          "velocity": 0.7322834645669292,
          "duration": 0.1957232666666755
        },
        {
          "name": "D5",
          "midi": 74,
          "time": 188.28907200000077,
          "velocity": 0.7401574803149606,
          "duration": 0.1957232666666755
        },
        {
          "name": "C5",
          "midi": 72,
          "time": 188.68380800000077,
          "velocity": 0.7480314960629921,
          "duration": 0.1957232666666755
        },
        {
          "name": "A4",
          "midi": 69,
          "time": 189.07854400000076,
          "velocity": 0.7559055118110236,
          "duration": 0.1957232666666755
        },
        {
          "name": "C5",
          "midi": 72,
          "time": 189.47328000000076,
          "velocity": 1,
          "duration": 0.7878272666669943
        },
        {
          "name": "E5",
          "midi": 76,
          "time": 190.2627520000011,
          "velocity": 1,
          "duration": 0.7878272666669943
        },
        {
          "name": "D5",
          "midi": 74,
          "time": 191.05222400000142,
          "velocity": 1,
          "duration": 0.26151260000031584
        },
        {
          "name": "D5",
          "midi": 74,
          "time": 191.31538133333507,
          "velocity": 0.7559055118110236,
          "duration": 0.2615126000000032
        },
        {
          "name": "D5",
          "midi": 74,
          "time": 191.5785386666684,
          "velocity": 0.7559055118110236,
          "duration": 0.2615126000000032
        },
        {
          "name": "G#5",
          "midi": 80,
          "time": 191.84169600000175,
          "velocity": 1,
          "duration": 0.26151260000031584
        },
        {
          "name": "G#5",
          "midi": 80,
          "time": 192.1048533333354,
          "velocity": 0.7559055118110236,
          "duration": 0.2615126000000032
        },
        {
          "name": "G#5",
          "midi": 80,
          "time": 192.36801066666874,
          "velocity": 0.7559055118110236,
          "duration": 0.2615126000000032
        },
        {
          "name": "A4",
          "midi": 69,
          "time": 194.99958400000207,
          "velocity": 0.5039370078740157,
          "duration": 3.1562432666666496
        },
        {
          "name": "C5",
          "midi": 72,
          "time": 194.99958400000207,
          "velocity": 0.5039370078740157,
          "duration": 3.1562432666666496
        },
        {
          "name": "A4",
          "midi": 69,
          "time": 198.15747200000206,
          "velocity": 0.5039370078740157,
          "duration": 0.7878272666666533
        },
        {
          "name": "G4",
          "midi": 67,
          "time": 198.94694400000205,
          "velocity": 0.5039370078740157,
          "duration": 0.7878272666666533
        },
        {
          "name": "B4",
          "midi": 71,
          "time": 199.73641600000204,
          "velocity": 0.5039370078740157,
          "duration": 0.7878272666666533
        },
        {
          "name": "E5",
          "midi": 76,
          "time": 200.52588800000203,
          "velocity": 0.5039370078740157,
          "duration": 1.577299266666671
        },
        {
          "name": "F5",
          "midi": 77,
          "time": 202.10483200000203,
          "velocity": 0.5039370078740157,
          "duration": 2.3667712666666603
        },
        {
          "name": "D5",
          "midi": 74,
          "time": 203.68377600000204,
          "velocity": 0.5039370078740157,
          "duration": 0.7878272666666533
        },
        {
          "name": "C6",
          "midi": 84,
          "time": 204.47324800000203,
          "velocity": 0.5039370078740157,
          "duration": 0.7878272666666533
        },
        {
          "name": "G5",
          "midi": 79,
          "time": 205.26272000000202,
          "velocity": 0.5039370078740157,
          "duration": 0.7878272666666533
        },
        {
          "name": "D5",
          "midi": 74,
          "time": 206.052192000002,
          "velocity": 0.5039370078740157,
          "duration": 0.7878272666666533
        },
        {
          "name": "C5",
          "midi": 72,
          "time": 206.841664000002,
          "velocity": 0.5039370078740157,
          "duration": 1.577299266666671
        },
        {
          "name": "D5",
          "midi": 74,
          "time": 208.420608000002,
          "velocity": 0.5039370078740157,
          "duration": 1.577299266666671
        },
        {
          "name": "E5",
          "midi": 76,
          "time": 209.999552000002,
          "velocity": 0.5039370078740157,
          "duration": 0.7878272666666533
        },
        {
          "name": "G5",
          "midi": 79,
          "time": 211.578496000002,
          "velocity": 0.5039370078740157,
          "duration": 0.7878272666666533
        },
        {
          "name": "C6",
          "midi": 84,
          "time": 212.36796800000198,
          "velocity": 0.5039370078740157,
          "duration": 0.7878272666666533
        },
        {
          "name": "D5",
          "midi": 74,
          "time": 213.15744000000197,
          "velocity": 0.5039370078740157,
          "duration": 1.577299266666671
        },
        {
          "name": "D#4",
          "midi": 63,
          "time": 214.73638400000198,
          "velocity": 0.5039370078740157,
          "duration": 1.577299266666671
        },
        {
          "name": "D4",
          "midi": 62,
          "time": 216.31532800000198,
          "velocity": 0.5039370078740157,
          "duration": 0.7878272666667385
        },
        {
          "name": "F4",
          "midi": 65,
          "time": 217.10480000000206,
          "velocity": 0.5826771653543307,
          "duration": 0.787827266666767
        },
        {
          "name": "G#4",
          "midi": 68,
          "time": 217.89427200000216,
          "velocity": 0.6692913385826772,
          "duration": 0.7878272666667385
        },
        {
          "name": "B4",
          "midi": 71,
          "time": 218.68374400000224,
          "velocity": 0.7559055118110236,
          "duration": 0.7878272666666533
        },
        {
          "name": "E5",
          "midi": 76,
          "time": 219.47321600000222,
          "velocity": 0.7559055118110236,
          "duration": 1.1825632666666763
        },
        {
          "name": "F5",
          "midi": 77,
          "time": 220.65742400000224,
          "velocity": 0.7559055118110236,
          "duration": 0.3930912666666586
        },
        {
          "name": "E5",
          "midi": 76,
          "time": 221.05216000000223,
          "velocity": 0.7559055118110236,
          "duration": 1.1825632666666763
        },
        {
          "name": "F5",
          "midi": 77,
          "time": 222.23636800000224,
          "velocity": 0.7559055118110236,
          "duration": 0.3930912666666586
        },
        {
          "name": "E5",
          "midi": 76,
          "time": 222.63110400000224,
          "velocity": 0.7559055118110236,
          "duration": 0.7878272666666533
        },
        {
          "name": "F5",
          "midi": 77,
          "time": 223.42057600000223,
          "velocity": 0.7559055118110236,
          "duration": 0.3930912666666586
        },
        {
          "name": "E5",
          "midi": 76,
          "time": 223.81531200000222,
          "velocity": 0.7559055118110236,
          "duration": 1.9720352666666656
        },
        {
          "name": "E5",
          "midi": 76,
          "time": 226.18372800000222,
          "velocity": 0.7559055118110236,
          "duration": 0.3930912666666586
        },
        {
          "name": "D5",
          "midi": 74,
          "time": 226.5784640000022,
          "velocity": 0.7559055118110236,
          "duration": 0.3930912666666586
        },
        {
          "name": "C5",
          "midi": 72,
          "time": 226.9732000000022,
          "velocity": 0.7559055118110236,
          "duration": 0.3930912666666586
        },
        {
          "name": "D5",
          "midi": 74,
          "time": 227.3679360000022,
          "velocity": 0.7559055118110236,
          "duration": 0.7878272666666533
        },
        {
          "name": "G5",
          "midi": 79,
          "time": 228.1574080000022,
          "velocity": 0.7559055118110236,
          "duration": 0.7878272666666533
        },
        {
          "name": "E5",
          "midi": 76,
          "time": 228.94688000000218,
          "velocity": 0.7559055118110236,
          "duration": 0.7878272666666533
        },
        {
          "name": "F5",
          "midi": 77,
          "time": 229.73635200000217,
          "velocity": 0.7559055118110236,
          "duration": 0.7878272666666533
        },
        {
          "name": "E5",
          "midi": 76,
          "time": 230.52582400000216,
          "velocity": 0.7559055118110236,
          "duration": 1.577299266666671
        },
        {
          "name": "E5",
          "midi": 76,
          "time": 232.10476800000217,
          "velocity": 0.7559055118110236,
          "duration": 1.1825632666666763
        },
        {
          "name": "F5",
          "midi": 77,
          "time": 233.28897600000218,
          "velocity": 0.7559055118110236,
          "duration": 0.3930912666666586
        },
        {
          "name": "E5",
          "midi": 76,
          "time": 233.68371200000217,
          "velocity": 0.7559055118110236,
          "duration": 1.1825632666666763
        },
        {
          "name": "F5",
          "midi": 77,
          "time": 234.8679200000022,
          "velocity": 0.7559055118110236,
          "duration": 0.3930912666666586
        },
        {
          "name": "C4",
          "midi": 60,
          "time": 236.8416000000022,
          "velocity": 1,
          "duration": 0.7878272666669943
        }
      ],
      "controlChanges": {
        "2": [
          {
            "number": 2,
            "time": 3.157888,
            "value": 0.3858267716535433
          },
          {
            "number": 2,
            "time": 3.9473599999999998,
            "value": 0.3858267716535433
          },
          {
            "number": 2,
            "time": 6.315776,
            "value": 0.5039370078740157
          },
          {
            "number": 2,
            "time": 7.105248,
            "value": 0.5039370078740157
          },
          {
            "number": 2,
            "time": 9.473664,
            "value": 0.5039370078740157
          },
          {
            "number": 2,
            "time": 12.631552,
            "value": 0.5039370078740157
          },
          {
            "number": 2,
            "time": 13.815759999999997,
            "value": 0.5039370078740157
          },
          {
            "number": 2,
            "time": 14.210495999999997,
            "value": 0.5039370078740157
          },
          {
            "number": 2,
            "time": 15.789439999999995,
            "value": 0.5039370078740157
          },
          {
            "number": 2,
            "time": 17.368383999999995,
            "value": 0.5039370078740157
          },
          {
            "number": 2,
            "time": 18.947327999999995,
            "value": 0.5039370078740157
          },
          {
            "number": 2,
            "time": 19.736799999999995,
            "value": 0.5039370078740157
          },
          {
            "number": 2,
            "time": 20.526271999999995,
            "value": 0.5039370078740157
          },
          {
            "number": 2,
            "time": 22.105215999999995,
            "value": 0.5039370078740157
          },
          {
            "number": 2,
            "time": 25.263103999999995,
            "value": 0.5039370078740157
          },
          {
            "number": 2,
            "time": 26.052575999999995,
            "value": 0.5039370078740157
          },
          {
            "number": 2,
            "time": 26.447311999999993,
            "value": 0.5039370078740157
          },
          {
            "number": 2,
            "time": 26.84204799999999,
            "value": 0.5039370078740157
          },
          {
            "number": 2,
            "time": 28.42099199999999,
            "value": 0.5039370078740157
          },
          {
            "number": 2,
            "time": 28.51967599999999,
            "value": 0.5118110236220472
          },
          {
            "number": 2,
            "time": 28.61835999999999,
            "value": 0.5196850393700787
          },
          {
            "number": 2,
            "time": 28.717043999999987,
            "value": 0.5275590551181102
          },
          {
            "number": 2,
            "time": 28.815727999999986,
            "value": 0.5354330708661418
          },
          {
            "number": 2,
            "time": 28.914411999999984,
            "value": 0.5433070866141733
          },
          {
            "number": 2,
            "time": 29.013095999999983,
            "value": 0.5511811023622047
          },
          {
            "number": 2,
            "time": 29.111779999999982,
            "value": 0.5590551181102362
          },
          {
            "number": 2,
            "time": 29.21046399999998,
            "value": 0.5669291338582677
          },
          {
            "number": 2,
            "time": 29.30914799999998,
            "value": 0.5748031496062992
          },
          {
            "number": 2,
            "time": 29.407831999999978,
            "value": 0.5826771653543307
          },
          {
            "number": 2,
            "time": 29.506515999999976,
            "value": 0.5905511811023622
          },
          {
            "number": 2,
            "time": 29.605199999999975,
            "value": 0.5984251968503937
          },
          {
            "number": 2,
            "time": 29.703883999999974,
            "value": 0.6062992125984252
          },
          {
            "number": 2,
            "time": 29.802567999999972,
            "value": 0.6141732283464567
          },
          {
            "number": 2,
            "time": 29.90125199999997,
            "value": 0.6220472440944882
          },
          {
            "number": 2,
            "time": 29.99993599999997,
            "value": 0.6299212598425197
          },
          {
            "number": 2,
            "time": 31.57887999999997,
            "value": 0.6299212598425197
          },
          {
            "number": 2,
            "time": 31.57887999999997,
            "value": 0.6299212598425197
          },
          {
            "number": 2,
            "time": 34.73676799999999,
            "value": 0.5039370078740157
          },
          {
            "number": 2,
            "time": 37.89465600000002,
            "value": 0.5039370078740157
          },
          {
            "number": 2,
            "time": 41.05254400000005,
            "value": 0.6299212598425197
          },
          {
            "number": 2,
            "time": 41.44728000000005,
            "value": 0.6299212598425197
          },
          {
            "number": 2,
            "time": 44.21043200000006,
            "value": 0.6299212598425197
          },
          {
            "number": 2,
            "time": 44.259774000000064,
            "value": 0.6220472440944882
          },
          {
            "number": 2,
            "time": 44.30911600000007,
            "value": 0.6141732283464567
          },
          {
            "number": 2,
            "time": 44.35845800000007,
            "value": 0.6062992125984252
          },
          {
            "number": 2,
            "time": 44.40780000000007,
            "value": 0.5984251968503937
          },
          {
            "number": 2,
            "time": 44.457142000000076,
            "value": 0.5905511811023622
          },
          {
            "number": 2,
            "time": 44.50648400000008,
            "value": 0.5826771653543307
          },
          {
            "number": 2,
            "time": 44.55582600000008,
            "value": 0.5748031496062992
          },
          {
            "number": 2,
            "time": 44.605168000000084,
            "value": 0.5669291338582677
          },
          {
            "number": 2,
            "time": 44.65451000000009,
            "value": 0.5590551181102362
          },
          {
            "number": 2,
            "time": 44.70385200000009,
            "value": 0.5511811023622047
          },
          {
            "number": 2,
            "time": 44.75319400000009,
            "value": 0.5433070866141733
          },
          {
            "number": 2,
            "time": 44.802536000000096,
            "value": 0.5354330708661418
          },
          {
            "number": 2,
            "time": 44.8518780000001,
            "value": 0.5275590551181102
          },
          {
            "number": 2,
            "time": 44.9012200000001,
            "value": 0.5196850393700787
          },
          {
            "number": 2,
            "time": 44.950562000000104,
            "value": 0.5118110236220472
          },
          {
            "number": 2,
            "time": 44.99990400000011,
            "value": 0.5039370078740157
          },
          {
            "number": 2,
            "time": 47.36832000000011,
            "value": 0.5039370078740157
          },
          {
            "number": 2,
            "time": 47.46700400000011,
            "value": 0.5118110236220472
          },
          {
            "number": 2,
            "time": 47.56568800000011,
            "value": 0.5196850393700787
          },
          {
            "number": 2,
            "time": 47.66437200000011,
            "value": 0.5275590551181102
          },
          {
            "number": 2,
            "time": 47.763056000000105,
            "value": 0.5354330708661418
          },
          {
            "number": 2,
            "time": 47.861740000000104,
            "value": 0.5433070866141733
          },
          {
            "number": 2,
            "time": 47.9604240000001,
            "value": 0.5511811023622047
          },
          {
            "number": 2,
            "time": 48.0591080000001,
            "value": 0.5590551181102362
          },
          {
            "number": 2,
            "time": 48.1577920000001,
            "value": 0.5669291338582677
          },
          {
            "number": 2,
            "time": 48.2564760000001,
            "value": 0.5748031496062992
          },
          {
            "number": 2,
            "time": 48.3551600000001,
            "value": 0.5826771653543307
          },
          {
            "number": 2,
            "time": 48.453844000000096,
            "value": 0.5905511811023622
          },
          {
            "number": 2,
            "time": 48.552528000000095,
            "value": 0.5984251968503937
          },
          {
            "number": 2,
            "time": 48.65121200000009,
            "value": 0.6062992125984252
          },
          {
            "number": 2,
            "time": 48.74989600000009,
            "value": 0.6141732283464567
          },
          {
            "number": 2,
            "time": 48.84858000000009,
            "value": 0.6220472440944882
          },
          {
            "number": 2,
            "time": 48.9472640000001,
            "value": 0.6299212598425197
          },
          {
            "number": 2,
            "time": 50.526208000000096,
            "value": 0.6299212598425197
          },
          {
            "number": 2,
            "time": 52.105152000000096,
            "value": 0.6299212598425197
          },
          {
            "number": 2,
            "time": 53.684096000000096,
            "value": 0.6299212598425197
          },
          {
            "number": 2,
            "time": 56.841984000000096,
            "value": 0.6299212598425197
          },
          {
            "number": 2,
            "time": 58.420928000000096,
            "value": 0.6299212598425197
          },
          {
            "number": 2,
            "time": 59.999872000000096,
            "value": 0.6299212598425197
          },
          {
            "number": 2,
            "time": 60.3946080000001,
            "value": 0.6299212598425197
          },
          {
            "number": 2,
            "time": 60.7893440000001,
            "value": 0.6299212598425197
          },
          {
            "number": 2,
            "time": 61.1840800000001,
            "value": 0.6299212598425197
          },
          {
            "number": 2,
            "time": 61.5788160000001,
            "value": 0.6299212598425197
          },
          {
            "number": 2,
            "time": 61.973552000000105,
            "value": 0.6299212598425197
          },
          {
            "number": 2,
            "time": 62.368288000000106,
            "value": 0.6299212598425197
          },
          {
            "number": 2,
            "time": 62.76302400000011,
            "value": 0.6299212598425197
          },
          {
            "number": 2,
            "time": 63.15776000000011,
            "value": 0.6299212598425197
          },
          {
            "number": 2,
            "time": 63.55249600000011,
            "value": 0.6299212598425197
          },
          {
            "number": 2,
            "time": 63.94723200000011,
            "value": 0.6299212598425197
          },
          {
            "number": 2,
            "time": 64.34196800000012,
            "value": 0.6299212598425197
          },
          {
            "number": 2,
            "time": 64.73670400000013,
            "value": 0.6299212598425197
          },
          {
            "number": 2,
            "time": 65.13144000000014,
            "value": 0.6299212598425197
          },
          {
            "number": 2,
            "time": 65.52617600000015,
            "value": 0.6299212598425197
          },
          {
            "number": 2,
            "time": 66.31564800000015,
            "value": 0.6299212598425197
          },
          {
            "number": 2,
            "time": 67.89459200000016,
            "value": 0.6299212598425197
          },
          {
            "number": 2,
            "time": 69.47353600000017,
            "value": 0.6299212598425197
          },
          {
            "number": 2,
            "time": 69.57222000000017,
            "value": 0.6220472440944882
          },
          {
            "number": 2,
            "time": 69.67090400000018,
            "value": 0.6141732283464567
          },
          {
            "number": 2,
            "time": 69.76958800000018,
            "value": 0.6062992125984252
          },
          {
            "number": 2,
            "time": 69.86827200000019,
            "value": 0.5984251968503937
          },
          {
            "number": 2,
            "time": 69.9669560000002,
            "value": 0.5905511811023622
          },
          {
            "number": 2,
            "time": 70.0656400000002,
            "value": 0.5826771653543307
          },
          {
            "number": 2,
            "time": 70.1643240000002,
            "value": 0.5748031496062992
          },
          {
            "number": 2,
            "time": 70.26300800000021,
            "value": 0.5669291338582677
          },
          {
            "number": 2,
            "time": 70.36169200000022,
            "value": 0.5590551181102362
          },
          {
            "number": 2,
            "time": 70.46037600000022,
            "value": 0.5511811023622047
          },
          {
            "number": 2,
            "time": 70.55906000000023,
            "value": 0.5433070866141733
          },
          {
            "number": 2,
            "time": 70.65774400000024,
            "value": 0.5354330708661418
          },
          {
            "number": 2,
            "time": 70.75642800000024,
            "value": 0.5275590551181102
          },
          {
            "number": 2,
            "time": 70.85511200000025,
            "value": 0.5196850393700787
          },
          {
            "number": 2,
            "time": 70.95379600000025,
            "value": 0.5118110236220472
          },
          {
            "number": 2,
            "time": 71.05248000000026,
            "value": 0.5039370078740157
          },
          {
            "number": 2,
            "time": 71.13965086666693,
            "value": 0.5118110236220472
          },
          {
            "number": 2,
            "time": 71.22517700000026,
            "value": 0.5196850393700787
          },
          {
            "number": 2,
            "time": 71.24984800000026,
            "value": 0.5196850393700787
          },
          {
            "number": 2,
            "time": 71.31234786666693,
            "value": 0.5275590551181102
          },
          {
            "number": 2,
            "time": 71.39787400000026,
            "value": 0.5354330708661418
          },
          {
            "number": 2,
            "time": 71.44721600000025,
            "value": 0.5354330708661418
          },
          {
            "number": 2,
            "time": 71.48504486666693,
            "value": 0.5433070866141733
          },
          {
            "number": 2,
            "time": 71.57057100000026,
            "value": 0.5511811023622047
          },
          {
            "number": 2,
            "time": 71.64458400000026,
            "value": 0.5511811023622047
          },
          {
            "number": 2,
            "time": 71.65774186666692,
            "value": 0.5590551181102362
          },
          {
            "number": 2,
            "time": 71.74326800000026,
            "value": 0.5669291338582677
          },
          {
            "number": 2,
            "time": 71.83043886666692,
            "value": 0.5748031496062992
          },
          {
            "number": 2,
            "time": 71.84195200000026,
            "value": 0.5748031496062992
          },
          {
            "number": 2,
            "time": 71.91596500000026,
            "value": 0.5826771653543307
          },
          {
            "number": 2,
            "time": 72.00313586666692,
            "value": 0.5905511811023622
          },
          {
            "number": 2,
            "time": 72.03932000000026,
            "value": 0.5905511811023622
          },
          {
            "number": 2,
            "time": 72.08866200000026,
            "value": 0.5984251968503937
          },
          {
            "number": 2,
            "time": 72.17583286666692,
            "value": 0.6062992125984252
          },
          {
            "number": 2,
            "time": 72.23668800000026,
            "value": 0.6062992125984252
          },
          {
            "number": 2,
            "time": 72.26135900000025,
            "value": 0.6141732283464567
          },
          {
            "number": 2,
            "time": 72.34852986666692,
            "value": 0.6220472440944882
          },
          {
            "number": 2,
            "time": 72.43405600000025,
            "value": 0.6299212598425197
          },
          {
            "number": 2,
            "time": 72.63142400000025,
            "value": 0.6299212598425197
          },
          {
            "number": 2,
            "time": 74.21036800000026,
            "value": 0.6299212598425197
          },
          {
            "number": 2,
            "time": 75.78931200000027,
            "value": 0.6299212598425197
          },
          {
            "number": 2,
            "time": 76.97352000000026,
            "value": 0.6299212598425197
          },
          {
            "number": 2,
            "time": 77.36825600000026,
            "value": 0.6299212598425197
          },
          {
            "number": 2,
            "time": 79.34193600000026,
            "value": 0.6299212598425197
          },
          {
            "number": 2,
            "time": 80.52614400000029,
            "value": 0.6299212598425197
          },
          {
            "number": 2,
            "time": 81.31561600000029,
            "value": 0.6299212598425197
          },
          {
            "number": 2,
            "time": 82.1050880000003,
            "value": 0.6299212598425197
          },
          {
            "number": 2,
            "time": 83.28929600000029,
            "value": 0.6299212598425197
          },
          {
            "number": 2,
            "time": 85.26297600000031,
            "value": 0.6299212598425197
          },
          {
            "number": 2,
            "time": 86.84192000000031,
            "value": 0.6299212598425197
          },
          {
            "number": 2,
            "time": 88.42086400000032,
            "value": 0.6299212598425197
          },
          {
            "number": 2,
            "time": 91.57875200000032,
            "value": 0.6299212598425197
          },
          {
            "number": 2,
            "time": 94.73664000000032,
            "value": 0.6299212598425197
          },
          {
            "number": 2,
            "time": 96.31558400000033,
            "value": 0.6299212598425197
          },
          {
            "number": 2,
            "time": 96.402754866667,
            "value": 0.6377952755905512
          },
          {
            "number": 2,
            "time": 96.48828100000033,
            "value": 0.6456692913385826
          },
          {
            "number": 2,
            "time": 96.51295200000033,
            "value": 0.6456692913385826
          },
          {
            "number": 2,
            "time": 96.575451866667,
            "value": 0.6535433070866141
          },
          {
            "number": 2,
            "time": 96.66097800000033,
            "value": 0.6614173228346457
          },
          {
            "number": 2,
            "time": 96.71032000000032,
            "value": 0.6614173228346457
          },
          {
            "number": 2,
            "time": 96.748148866667,
            "value": 0.6692913385826772
          },
          {
            "number": 2,
            "time": 96.83367500000033,
            "value": 0.6771653543307087
          },
          {
            "number": 2,
            "time": 96.90768800000033,
            "value": 0.6771653543307087
          },
          {
            "number": 2,
            "time": 96.920845866667,
            "value": 0.6850393700787402
          },
          {
            "number": 2,
            "time": 97.00637200000033,
            "value": 0.6929133858267716
          },
          {
            "number": 2,
            "time": 97.093542866667,
            "value": 0.7007874015748031
          },
          {
            "number": 2,
            "time": 97.10505600000033,
            "value": 0.7007874015748031
          },
          {
            "number": 2,
            "time": 97.17906900000033,
            "value": 0.7086614173228346
          },
          {
            "number": 2,
            "time": 97.266239866667,
            "value": 0.7165354330708661
          },
          {
            "number": 2,
            "time": 97.30242400000033,
            "value": 0.7165354330708661
          },
          {
            "number": 2,
            "time": 97.35176600000032,
            "value": 0.7244094488188977
          },
          {
            "number": 2,
            "time": 97.43893686666699,
            "value": 0.7322834645669292
          },
          {
            "number": 2,
            "time": 97.49979200000033,
            "value": 0.7322834645669292
          },
          {
            "number": 2,
            "time": 97.52446300000032,
            "value": 0.7401574803149606
          },
          {
            "number": 2,
            "time": 97.61163386666699,
            "value": 0.7480314960629921
          },
          {
            "number": 2,
            "time": 97.69716000000032,
            "value": 0.7559055118110236
          },
          {
            "number": 2,
            "time": 98.28926400000032,
            "value": 0.7559055118110236
          },
          {
            "number": 2,
            "time": 98.68400000000032,
            "value": 0.7559055118110236
          },
          {
            "number": 2,
            "time": 99.07873600000033,
            "value": 0.7559055118110236
          },
          {
            "number": 2,
            "time": 99.47347200000034,
            "value": 0.7559055118110236
          },
          {
            "number": 2,
            "time": 100.26294400000035,
            "value": 0.7559055118110236
          },
          {
            "number": 2,
            "time": 101.05241600000035,
            "value": 0.7559055118110236
          },
          {
            "number": 2,
            "time": 101.84188800000035,
            "value": 0.7559055118110236
          },
          {
            "number": 2,
            "time": 103.42083200000036,
            "value": 0.7559055118110236
          },
          {
            "number": 2,
            "time": 104.21030400000036,
            "value": 0.7559055118110236
          },
          {
            "number": 2,
            "time": 107.76292800000036,
            "value": 0.7559055118110236
          },
          {
            "number": 2,
            "time": 108.15766400000037,
            "value": 0.7559055118110236
          },
          {
            "number": 2,
            "time": 108.55240000000038,
            "value": 0.7559055118110236
          },
          {
            "number": 2,
            "time": 108.94713600000038,
            "value": 0.7559055118110236
          },
          {
            "number": 2,
            "time": 109.73660800000039,
            "value": 0.7559055118110236
          },
          {
            "number": 2,
            "time": 110.52608000000039,
            "value": 0.7559055118110236
          },
          {
            "number": 2,
            "time": 112.1050240000004,
            "value": 1
          },
          {
            "number": 2,
            "time": 112.17574753333373,
            "value": 0.9921259842519685
          },
          {
            "number": 2,
            "time": 112.18068173333373,
            "value": 0.984251968503937
          },
          {
            "number": 2,
            "time": 112.1839712000004,
            "value": 0.9763779527559056
          },
          {
            "number": 2,
            "time": 112.1889054000004,
            "value": 0.968503937007874
          },
          {
            "number": 2,
            "time": 112.19219486666707,
            "value": 0.9606299212598425
          },
          {
            "number": 2,
            "time": 112.19712906666706,
            "value": 0.952755905511811
          },
          {
            "number": 2,
            "time": 112.20041853333373,
            "value": 0.9448818897637795
          },
          {
            "number": 2,
            "time": 112.20535273333373,
            "value": 0.937007874015748
          },
          {
            "number": 2,
            "time": 112.2086422000004,
            "value": 0.9291338582677166
          },
          {
            "number": 2,
            "time": 112.21357640000039,
            "value": 0.9212598425196851
          },
          {
            "number": 2,
            "time": 112.21686586666706,
            "value": 0.9133858267716536
          },
          {
            "number": 2,
            "time": 112.22180006666706,
            "value": 0.905511811023622
          },
          {
            "number": 2,
            "time": 112.22508953333373,
            "value": 0.8976377952755905
          },
          {
            "number": 2,
            "time": 112.23002373333372,
            "value": 0.889763779527559
          },
          {
            "number": 2,
            "time": 112.2333132000004,
            "value": 0.8818897637795275
          },
          {
            "number": 2,
            "time": 112.23824740000039,
            "value": 0.8740157480314961
          },
          {
            "number": 2,
            "time": 112.24153686666706,
            "value": 0.8661417322834646
          },
          {
            "number": 2,
            "time": 112.24647106666706,
            "value": 0.8582677165354331
          },
          {
            "number": 2,
            "time": 112.24976053333373,
            "value": 0.8503937007874016
          },
          {
            "number": 2,
            "time": 112.25469473333372,
            "value": 0.84251968503937
          },
          {
            "number": 2,
            "time": 112.2579842000004,
            "value": 0.8346456692913385
          },
          {
            "number": 2,
            "time": 112.26291840000039,
            "value": 0.8267716535433071
          },
          {
            "number": 2,
            "time": 112.26620786666706,
            "value": 0.8188976377952756
          },
          {
            "number": 2,
            "time": 112.27114206666705,
            "value": 0.8110236220472441
          },
          {
            "number": 2,
            "time": 112.27443153333373,
            "value": 0.8031496062992126
          },
          {
            "number": 2,
            "time": 112.27936573333372,
            "value": 0.7952755905511811
          },
          {
            "number": 2,
            "time": 112.28265520000039,
            "value": 0.7874015748031497
          },
          {
            "number": 2,
            "time": 112.28758940000039,
            "value": 0.7795275590551181
          },
          {
            "number": 2,
            "time": 112.29087886666706,
            "value": 0.7716535433070866
          },
          {
            "number": 2,
            "time": 112.29581306666705,
            "value": 0.7637795275590551
          },
          {
            "number": 2,
            "time": 112.29910253333372,
            "value": 0.7559055118110236
          },
          {
            "number": 2,
            "time": 113.68396800000039,
            "value": 0.5039370078740157
          },
          {
            "number": 2,
            "time": 116.84185600000039,
            "value": 0.5039370078740157
          },
          {
            "number": 2,
            "time": 118.02606400000039,
            "value": 0.5039370078740157
          },
          {
            "number": 2,
            "time": 118.4208000000004,
            "value": 0.5039370078740157
          },
          {
            "number": 2,
            "time": 119.6050080000004,
            "value": 0.5039370078740157
          },
          {
            "number": 2,
            "time": 119.9997440000004,
            "value": 0.5039370078740157
          },
          {
            "number": 2,
            "time": 121.1839520000004,
            "value": 0.5039370078740157
          },
          {
            "number": 2,
            "time": 121.2332940000004,
            "value": 0.5118110236220472
          },
          {
            "number": 2,
            "time": 121.2826360000004,
            "value": 0.5196850393700787
          },
          {
            "number": 2,
            "time": 121.33197800000039,
            "value": 0.5275590551181102
          },
          {
            "number": 2,
            "time": 121.38132000000039,
            "value": 0.5354330708661418
          },
          {
            "number": 2,
            "time": 121.43066200000038,
            "value": 0.5433070866141733
          },
          {
            "number": 2,
            "time": 121.48000400000038,
            "value": 0.5511811023622047
          },
          {
            "number": 2,
            "time": 121.52934600000037,
            "value": 0.5590551181102362
          },
          {
            "number": 2,
            "time": 121.57868800000037,
            "value": 0.5669291338582677
          },
          {
            "number": 2,
            "time": 121.62803000000036,
            "value": 0.5748031496062992
          },
          {
            "number": 2,
            "time": 121.67737200000036,
            "value": 0.5826771653543307
          },
          {
            "number": 2,
            "time": 121.72671400000036,
            "value": 0.5905511811023622
          },
          {
            "number": 2,
            "time": 121.77605600000035,
            "value": 0.5984251968503937
          },
          {
            "number": 2,
            "time": 121.82539800000035,
            "value": 0.6062992125984252
          },
          {
            "number": 2,
            "time": 121.87474000000034,
            "value": 0.6141732283464567
          },
          {
            "number": 2,
            "time": 121.92408200000034,
            "value": 0.6220472440944882
          },
          {
            "number": 2,
            "time": 121.97342400000034,
            "value": 0.6299212598425197
          },
          {
            "number": 2,
            "time": 122.02276600000033,
            "value": 0.6377952755905512
          },
          {
            "number": 2,
            "time": 122.07210800000033,
            "value": 0.6456692913385826
          },
          {
            "number": 2,
            "time": 122.12145000000032,
            "value": 0.6535433070866141
          },
          {
            "number": 2,
            "time": 122.17079200000032,
            "value": 0.6614173228346457
          },
          {
            "number": 2,
            "time": 122.22013400000031,
            "value": 0.6692913385826772
          },
          {
            "number": 2,
            "time": 122.26947600000031,
            "value": 0.6771653543307087
          },
          {
            "number": 2,
            "time": 122.3188180000003,
            "value": 0.6850393700787402
          },
          {
            "number": 2,
            "time": 122.3681600000003,
            "value": 0.6929133858267716
          },
          {
            "number": 2,
            "time": 122.4175020000003,
            "value": 0.7007874015748031
          },
          {
            "number": 2,
            "time": 122.4668440000003,
            "value": 0.7086614173228346
          },
          {
            "number": 2,
            "time": 122.51618600000029,
            "value": 0.7165354330708661
          },
          {
            "number": 2,
            "time": 122.56552800000028,
            "value": 0.7244094488188977
          },
          {
            "number": 2,
            "time": 122.61487000000028,
            "value": 0.7322834645669292
          },
          {
            "number": 2,
            "time": 122.66421200000028,
            "value": 0.7401574803149606
          },
          {
            "number": 2,
            "time": 122.71355400000027,
            "value": 0.7480314960629921
          },
          {
            "number": 2,
            "time": 122.76289600000027,
            "value": 0.7559055118110236
          },
          {
            "number": 2,
            "time": 123.15763200000028,
            "value": 0.7559055118110236
          },
          {
            "number": 2,
            "time": 124.73657600000028,
            "value": 0.7559055118110236
          },
          {
            "number": 2,
            "time": 125.92078400000028,
            "value": 0.7559055118110236
          },
          {
            "number": 2,
            "time": 126.31552000000029,
            "value": 1
          },
          {
            "number": 2,
            "time": 126.31716473333363,
            "value": 1
          },
          {
            "number": 2,
            "time": 126.31880946666696,
            "value": 1
          },
          {
            "number": 2,
            "time": 126.3204542000003,
            "value": 1
          },
          {
            "number": 2,
            "time": 126.32209893333363,
            "value": 1
          },
          {
            "number": 2,
            "time": 126.32374366666697,
            "value": 1
          },
          {
            "number": 2,
            "time": 126.3253884000003,
            "value": 1
          },
          {
            "number": 2,
            "time": 126.32703313333364,
            "value": 1
          },
          {
            "number": 2,
            "time": 126.32867786666698,
            "value": 1
          },
          {
            "number": 2,
            "time": 126.33032260000031,
            "value": 1
          },
          {
            "number": 2,
            "time": 126.33196733333365,
            "value": 1
          },
          {
            "number": 2,
            "time": 126.33361206666699,
            "value": 1
          },
          {
            "number": 2,
            "time": 126.33525680000032,
            "value": 1
          },
          {
            "number": 2,
            "time": 126.33690153333366,
            "value": 1
          },
          {
            "number": 2,
            "time": 126.338546266667,
            "value": 1
          },
          {
            "number": 2,
            "time": 126.34019100000033,
            "value": 1
          },
          {
            "number": 2,
            "time": 126.34183573333367,
            "value": 1
          },
          {
            "number": 2,
            "time": 126.343480466667,
            "value": 1
          },
          {
            "number": 2,
            "time": 126.34512520000034,
            "value": 1
          },
          {
            "number": 2,
            "time": 126.34676993333368,
            "value": 1
          },
          {
            "number": 2,
            "time": 126.34841466666701,
            "value": 1
          },
          {
            "number": 2,
            "time": 126.35005940000035,
            "value": 1
          },
          {
            "number": 2,
            "time": 126.35170413333368,
            "value": 1
          },
          {
            "number": 2,
            "time": 126.35334886666702,
            "value": 1
          },
          {
            "number": 2,
            "time": 126.35499360000036,
            "value": 1
          },
          {
            "number": 2,
            "time": 126.35663833333369,
            "value": 1
          },
          {
            "number": 2,
            "time": 126.35828306666703,
            "value": 1
          },
          {
            "number": 2,
            "time": 126.35992780000036,
            "value": 1
          },
          {
            "number": 2,
            "time": 126.3615725333337,
            "value": 1
          },
          {
            "number": 2,
            "time": 126.36321726666704,
            "value": 1
          },
          {
            "number": 2,
            "time": 126.36486200000037,
            "value": 1
          },
          {
            "number": 2,
            "time": 126.36650673333371,
            "value": 1
          },
          {
            "number": 2,
            "time": 126.36815146666704,
            "value": 1
          },
          {
            "number": 2,
            "time": 126.36979620000038,
            "value": 1
          },
          {
            "number": 2,
            "time": 126.37144093333372,
            "value": 1
          },
          {
            "number": 2,
            "time": 126.37308566666705,
            "value": 1
          },
          {
            "number": 2,
            "time": 126.37473040000039,
            "value": 1
          },
          {
            "number": 2,
            "time": 126.37637513333372,
            "value": 1
          },
          {
            "number": 2,
            "time": 126.37801986666706,
            "value": 1
          },
          {
            "number": 2,
            "time": 126.3796646000004,
            "value": 1
          },
          {
            "number": 2,
            "time": 126.38130933333373,
            "value": 1
          },
          {
            "number": 2,
            "time": 126.38295406666707,
            "value": 1
          },
          {
            "number": 2,
            "time": 126.3845988000004,
            "value": 1
          },
          {
            "number": 2,
            "time": 126.38624353333374,
            "value": 0.9921259842519685
          },
          {
            "number": 2,
            "time": 126.38788826666708,
            "value": 0.9921259842519685
          },
          {
            "number": 2,
            "time": 126.38953300000041,
            "value": 0.9921259842519685
          },
          {
            "number": 2,
            "time": 126.39117773333375,
            "value": 0.984251968503937
          },
          {
            "number": 2,
            "time": 126.39282246666708,
            "value": 0.984251968503937
          },
          {
            "number": 2,
            "time": 126.39446720000042,
            "value": 0.9763779527559056
          },
          {
            "number": 2,
            "time": 126.39611193333376,
            "value": 0.9763779527559056
          },
          {
            "number": 2,
            "time": 126.39775666666709,
            "value": 0.9763779527559056
          },
          {
            "number": 2,
            "time": 126.39940140000043,
            "value": 0.968503937007874
          },
          {
            "number": 2,
            "time": 126.40104613333376,
            "value": 0.968503937007874
          },
          {
            "number": 2,
            "time": 126.4026908666671,
            "value": 0.9606299212598425
          },
          {
            "number": 2,
            "time": 126.40433560000044,
            "value": 0.9606299212598425
          },
          {
            "number": 2,
            "time": 126.40598033333377,
            "value": 0.9606299212598425
          },
          {
            "number": 2,
            "time": 126.40762506666711,
            "value": 0.952755905511811
          },
          {
            "number": 2,
            "time": 126.40926980000044,
            "value": 0.952755905511811
          },
          {
            "number": 2,
            "time": 126.41091453333378,
            "value": 0.9448818897637795
          },
          {
            "number": 2,
            "time": 126.41255926666712,
            "value": 0.9448818897637795
          },
          {
            "number": 2,
            "time": 126.41420400000045,
            "value": 0.9448818897637795
          },
          {
            "number": 2,
            "time": 126.41584873333379,
            "value": 0.937007874015748
          },
          {
            "number": 2,
            "time": 126.41749346666712,
            "value": 0.937007874015748
          },
          {
            "number": 2,
            "time": 126.41913820000046,
            "value": 0.9291338582677166
          },
          {
            "number": 2,
            "time": 126.4207829333338,
            "value": 0.9291338582677166
          },
          {
            "number": 2,
            "time": 126.42242766666713,
            "value": 0.9291338582677166
          },
          {
            "number": 2,
            "time": 126.42407240000047,
            "value": 0.9212598425196851
          },
          {
            "number": 2,
            "time": 126.4257171333338,
            "value": 0.9212598425196851
          },
          {
            "number": 2,
            "time": 126.42736186666714,
            "value": 0.9133858267716536
          },
          {
            "number": 2,
            "time": 126.42900660000048,
            "value": 0.9133858267716536
          },
          {
            "number": 2,
            "time": 126.43065133333381,
            "value": 0.9133858267716536
          },
          {
            "number": 2,
            "time": 126.43229606666715,
            "value": 0.905511811023622
          },
          {
            "number": 2,
            "time": 126.43394080000049,
            "value": 0.905511811023622
          },
          {
            "number": 2,
            "time": 126.43558553333382,
            "value": 0.8976377952755905
          },
          {
            "number": 2,
            "time": 126.43723026666716,
            "value": 0.8976377952755905
          },
          {
            "number": 2,
            "time": 126.4388750000005,
            "value": 0.8976377952755905
          },
          {
            "number": 2,
            "time": 126.44051973333383,
            "value": 0.889763779527559
          },
          {
            "number": 2,
            "time": 126.44216446666717,
            "value": 0.889763779527559
          },
          {
            "number": 2,
            "time": 126.4438092000005,
            "value": 0.8818897637795275
          },
          {
            "number": 2,
            "time": 126.44545393333384,
            "value": 0.8818897637795275
          },
          {
            "number": 2,
            "time": 126.44709866666717,
            "value": 0.8818897637795275
          },
          {
            "number": 2,
            "time": 126.44874340000051,
            "value": 0.8740157480314961
          },
          {
            "number": 2,
            "time": 126.45038813333385,
            "value": 0.8740157480314961
          },
          {
            "number": 2,
            "time": 126.45203286666718,
            "value": 0.8661417322834646
          },
          {
            "number": 2,
            "time": 126.45367760000052,
            "value": 0.8661417322834646
          },
          {
            "number": 2,
            "time": 126.45532233333385,
            "value": 0.8661417322834646
          },
          {
            "number": 2,
            "time": 126.45696706666719,
            "value": 0.8582677165354331
          },
          {
            "number": 2,
            "time": 126.45861180000053,
            "value": 0.8582677165354331
          },
          {
            "number": 2,
            "time": 126.46025653333386,
            "value": 0.8503937007874016
          },
          {
            "number": 2,
            "time": 126.4619012666672,
            "value": 0.8503937007874016
          },
          {
            "number": 2,
            "time": 126.46354600000053,
            "value": 0.8503937007874016
          },
          {
            "number": 2,
            "time": 126.46519073333387,
            "value": 0.84251968503937
          },
          {
            "number": 2,
            "time": 126.4668354666672,
            "value": 0.84251968503937
          },
          {
            "number": 2,
            "time": 126.46848020000054,
            "value": 0.8346456692913385
          },
          {
            "number": 2,
            "time": 126.47012493333388,
            "value": 0.8346456692913385
          },
          {
            "number": 2,
            "time": 126.47176966666721,
            "value": 0.8346456692913385
          },
          {
            "number": 2,
            "time": 126.47341440000055,
            "value": 0.8267716535433071
          },
          {
            "number": 2,
            "time": 126.47505913333389,
            "value": 0.8267716535433071
          },
          {
            "number": 2,
            "time": 126.47670386666722,
            "value": 0.8188976377952756
          },
          {
            "number": 2,
            "time": 126.47834860000056,
            "value": 0.8188976377952756
          },
          {
            "number": 2,
            "time": 126.4799933333339,
            "value": 0.8188976377952756
          },
          {
            "number": 2,
            "time": 126.48163806666723,
            "value": 0.8110236220472441
          },
          {
            "number": 2,
            "time": 126.48328280000057,
            "value": 0.8110236220472441
          },
          {
            "number": 2,
            "time": 126.4849275333339,
            "value": 0.8031496062992126
          },
          {
            "number": 2,
            "time": 126.48657226666724,
            "value": 0.8031496062992126
          },
          {
            "number": 2,
            "time": 126.48821700000057,
            "value": 0.8031496062992126
          },
          {
            "number": 2,
            "time": 126.48986173333391,
            "value": 0.7952755905511811
          },
          {
            "number": 2,
            "time": 126.49150646666725,
            "value": 0.7952755905511811
          },
          {
            "number": 2,
            "time": 126.49315120000058,
            "value": 0.7874015748031497
          },
          {
            "number": 2,
            "time": 126.49479593333392,
            "value": 0.7874015748031497
          },
          {
            "number": 2,
            "time": 126.49644066666725,
            "value": 0.7874015748031497
          },
          {
            "number": 2,
            "time": 126.49808540000059,
            "value": 0.7795275590551181
          },
          {
            "number": 2,
            "time": 126.49973013333393,
            "value": 0.7795275590551181
          },
          {
            "number": 2,
            "time": 126.50137486666726,
            "value": 0.7716535433070866
          },
          {
            "number": 2,
            "time": 126.5030196000006,
            "value": 0.7716535433070866
          },
          {
            "number": 2,
            "time": 126.50466433333393,
            "value": 0.7716535433070866
          },
          {
            "number": 2,
            "time": 126.50630906666727,
            "value": 0.7637795275590551
          },
          {
            "number": 2,
            "time": 126.5079538000006,
            "value": 0.7637795275590551
          },
          {
            "number": 2,
            "time": 126.50959853333394,
            "value": 0.7559055118110236
          },
          {
            "number": 2,
            "time": 126.51124326666728,
            "value": 0.7559055118110236
          },
          {
            "number": 2,
            "time": 127.89446400000061,
            "value": 1
          },
          {
            "number": 2,
            "time": 127.89610873333395,
            "value": 1
          },
          {
            "number": 2,
            "time": 127.89775346666728,
            "value": 1
          },
          {
            "number": 2,
            "time": 127.89939820000062,
            "value": 1
          },
          {
            "number": 2,
            "time": 127.90104293333395,
            "value": 1
          },
          {
            "number": 2,
            "time": 127.90268766666729,
            "value": 1
          },
          {
            "number": 2,
            "time": 127.90433240000063,
            "value": 1
          },
          {
            "number": 2,
            "time": 127.90597713333396,
            "value": 1
          },
          {
            "number": 2,
            "time": 127.9076218666673,
            "value": 1
          },
          {
            "number": 2,
            "time": 127.90926660000063,
            "value": 1
          },
          {
            "number": 2,
            "time": 127.91091133333397,
            "value": 1
          },
          {
            "number": 2,
            "time": 127.9125560666673,
            "value": 1
          },
          {
            "number": 2,
            "time": 127.91420080000064,
            "value": 1
          },
          {
            "number": 2,
            "time": 127.91584553333398,
            "value": 1
          },
          {
            "number": 2,
            "time": 127.91749026666731,
            "value": 1
          },
          {
            "number": 2,
            "time": 127.91913500000065,
            "value": 1
          },
          {
            "number": 2,
            "time": 127.92077973333399,
            "value": 1
          },
          {
            "number": 2,
            "time": 127.92242446666732,
            "value": 1
          },
          {
            "number": 2,
            "time": 127.92406920000066,
            "value": 1
          },
          {
            "number": 2,
            "time": 127.925713933334,
            "value": 1
          },
          {
            "number": 2,
            "time": 127.92735866666733,
            "value": 1
          },
          {
            "number": 2,
            "time": 127.92900340000067,
            "value": 1
          },
          {
            "number": 2,
            "time": 127.930648133334,
            "value": 1
          },
          {
            "number": 2,
            "time": 127.93229286666734,
            "value": 1
          },
          {
            "number": 2,
            "time": 127.93393760000068,
            "value": 1
          },
          {
            "number": 2,
            "time": 127.93558233333401,
            "value": 1
          },
          {
            "number": 2,
            "time": 127.93722706666735,
            "value": 1
          },
          {
            "number": 2,
            "time": 127.93887180000068,
            "value": 1
          },
          {
            "number": 2,
            "time": 127.94051653333402,
            "value": 1
          },
          {
            "number": 2,
            "time": 127.94216126666736,
            "value": 1
          },
          {
            "number": 2,
            "time": 127.94380600000069,
            "value": 1
          },
          {
            "number": 2,
            "time": 127.94545073333403,
            "value": 1
          },
          {
            "number": 2,
            "time": 127.94709546666736,
            "value": 1
          },
          {
            "number": 2,
            "time": 127.9487402000007,
            "value": 1
          },
          {
            "number": 2,
            "time": 127.95038493333404,
            "value": 1
          },
          {
            "number": 2,
            "time": 127.95202966666737,
            "value": 1
          },
          {
            "number": 2,
            "time": 127.95367440000071,
            "value": 1
          },
          {
            "number": 2,
            "time": 127.95531913333404,
            "value": 1
          },
          {
            "number": 2,
            "time": 127.95696386666738,
            "value": 1
          },
          {
            "number": 2,
            "time": 127.95860860000072,
            "value": 1
          },
          {
            "number": 2,
            "time": 127.96025333333405,
            "value": 1
          },
          {
            "number": 2,
            "time": 127.96189806666739,
            "value": 1
          },
          {
            "number": 2,
            "time": 127.96354280000072,
            "value": 1
          },
          {
            "number": 2,
            "time": 127.96518753333406,
            "value": 0.9921259842519685
          },
          {
            "number": 2,
            "time": 127.9668322666674,
            "value": 0.9921259842519685
          },
          {
            "number": 2,
            "time": 127.96847700000073,
            "value": 0.9921259842519685
          },
          {
            "number": 2,
            "time": 127.97012173333407,
            "value": 0.984251968503937
          },
          {
            "number": 2,
            "time": 127.9717664666674,
            "value": 0.984251968503937
          },
          {
            "number": 2,
            "time": 127.97341120000074,
            "value": 0.9763779527559056
          },
          {
            "number": 2,
            "time": 127.97505593333408,
            "value": 0.9763779527559056
          },
          {
            "number": 2,
            "time": 127.97670066666741,
            "value": 0.9763779527559056
          },
          {
            "number": 2,
            "time": 127.97834540000075,
            "value": 0.968503937007874
          },
          {
            "number": 2,
            "time": 127.97999013333408,
            "value": 0.968503937007874
          },
          {
            "number": 2,
            "time": 127.98163486666742,
            "value": 0.9606299212598425
          },
          {
            "number": 2,
            "time": 127.98327960000076,
            "value": 0.9606299212598425
          },
          {
            "number": 2,
            "time": 127.98492433333409,
            "value": 0.9606299212598425
          },
          {
            "number": 2,
            "time": 127.98656906666743,
            "value": 0.952755905511811
          },
          {
            "number": 2,
            "time": 127.98821380000076,
            "value": 0.952755905511811
          },
          {
            "number": 2,
            "time": 127.9898585333341,
            "value": 0.9448818897637795
          },
          {
            "number": 2,
            "time": 127.99150326666744,
            "value": 0.9448818897637795
          },
          {
            "number": 2,
            "time": 127.99314800000077,
            "value": 0.9448818897637795
          },
          {
            "number": 2,
            "time": 127.99479273333411,
            "value": 0.937007874015748
          },
          {
            "number": 2,
            "time": 127.99643746666744,
            "value": 0.937007874015748
          },
          {
            "number": 2,
            "time": 127.99808220000078,
            "value": 0.9291338582677166
          },
          {
            "number": 2,
            "time": 127.99972693333412,
            "value": 0.9291338582677166
          },
          {
            "number": 2,
            "time": 128.00137166666744,
            "value": 0.9291338582677166
          },
          {
            "number": 2,
            "time": 128.00301640000077,
            "value": 0.9212598425196851
          },
          {
            "number": 2,
            "time": 128.0046611333341,
            "value": 0.9212598425196851
          },
          {
            "number": 2,
            "time": 128.00630586666745,
            "value": 0.9133858267716536
          },
          {
            "number": 2,
            "time": 128.00795060000078,
            "value": 0.9133858267716536
          },
          {
            "number": 2,
            "time": 128.00959533333412,
            "value": 0.9133858267716536
          },
          {
            "number": 2,
            "time": 128.01124006666745,
            "value": 0.905511811023622
          },
          {
            "number": 2,
            "time": 128.0128848000008,
            "value": 0.905511811023622
          },
          {
            "number": 2,
            "time": 128.01452953333413,
            "value": 0.8976377952755905
          },
          {
            "number": 2,
            "time": 128.01617426666746,
            "value": 0.8976377952755905
          },
          {
            "number": 2,
            "time": 128.0178190000008,
            "value": 0.8976377952755905
          },
          {
            "number": 2,
            "time": 128.01946373333413,
            "value": 0.889763779527559
          },
          {
            "number": 2,
            "time": 128.02110846666747,
            "value": 0.889763779527559
          },
          {
            "number": 2,
            "time": 128.0227532000008,
            "value": 0.8818897637795275
          },
          {
            "number": 2,
            "time": 128.02439793333414,
            "value": 0.8818897637795275
          },
          {
            "number": 2,
            "time": 128.02604266666748,
            "value": 0.8818897637795275
          },
          {
            "number": 2,
            "time": 128.02768740000081,
            "value": 0.8740157480314961
          },
          {
            "number": 2,
            "time": 128.02933213333415,
            "value": 0.8740157480314961
          },
          {
            "number": 2,
            "time": 128.0309768666675,
            "value": 0.8661417322834646
          },
          {
            "number": 2,
            "time": 128.03262160000082,
            "value": 0.8661417322834646
          },
          {
            "number": 2,
            "time": 128.03426633333416,
            "value": 0.8661417322834646
          },
          {
            "number": 2,
            "time": 128.0359110666675,
            "value": 0.8582677165354331
          },
          {
            "number": 2,
            "time": 128.03755580000083,
            "value": 0.8582677165354331
          },
          {
            "number": 2,
            "time": 128.03920053333417,
            "value": 0.8503937007874016
          },
          {
            "number": 2,
            "time": 128.0408452666675,
            "value": 0.8503937007874016
          },
          {
            "number": 2,
            "time": 128.04249000000084,
            "value": 0.8503937007874016
          },
          {
            "number": 2,
            "time": 128.04413473333418,
            "value": 0.84251968503937
          },
          {
            "number": 2,
            "time": 128.0457794666675,
            "value": 0.84251968503937
          },
          {
            "number": 2,
            "time": 128.04742420000085,
            "value": 0.8346456692913385
          },
          {
            "number": 2,
            "time": 128.04906893333418,
            "value": 0.8346456692913385
          },
          {
            "number": 2,
            "time": 128.05071366666752,
            "value": 0.8346456692913385
          },
          {
            "number": 2,
            "time": 128.05235840000086,
            "value": 0.8267716535433071
          },
          {
            "number": 2,
            "time": 128.0540031333342,
            "value": 0.8267716535433071
          },
          {
            "number": 2,
            "time": 128.05564786666753,
            "value": 0.8188976377952756
          },
          {
            "number": 2,
            "time": 128.05729260000086,
            "value": 0.8188976377952756
          },
          {
            "number": 2,
            "time": 128.0589373333342,
            "value": 0.8188976377952756
          },
          {
            "number": 2,
            "time": 128.06058206666754,
            "value": 0.8110236220472441
          },
          {
            "number": 2,
            "time": 128.06222680000087,
            "value": 0.8110236220472441
          },
          {
            "number": 2,
            "time": 128.0638715333342,
            "value": 0.8031496062992126
          },
          {
            "number": 2,
            "time": 128.06551626666754,
            "value": 0.8031496062992126
          },
          {
            "number": 2,
            "time": 128.06716100000088,
            "value": 0.8031496062992126
          },
          {
            "number": 2,
            "time": 128.06880573333422,
            "value": 0.7952755905511811
          },
          {
            "number": 2,
            "time": 128.07045046666755,
            "value": 0.7952755905511811
          },
          {
            "number": 2,
            "time": 128.0720952000009,
            "value": 0.7874015748031497
          },
          {
            "number": 2,
            "time": 128.07373993333422,
            "value": 0.7874015748031497
          },
          {
            "number": 2,
            "time": 128.07538466666756,
            "value": 0.7874015748031497
          },
          {
            "number": 2,
            "time": 128.0770294000009,
            "value": 0.7795275590551181
          },
          {
            "number": 2,
            "time": 128.07867413333423,
            "value": 0.7795275590551181
          },
          {
            "number": 2,
            "time": 128.08031886666757,
            "value": 0.7716535433070866
          },
          {
            "number": 2,
            "time": 128.0819636000009,
            "value": 0.7716535433070866
          },
          {
            "number": 2,
            "time": 128.08360833333424,
            "value": 0.7716535433070866
          },
          {
            "number": 2,
            "time": 128.08525306666758,
            "value": 0.7637795275590551
          },
          {
            "number": 2,
            "time": 128.0868978000009,
            "value": 0.7637795275590551
          },
          {
            "number": 2,
            "time": 128.08854253333425,
            "value": 0.7559055118110236
          },
          {
            "number": 2,
            "time": 128.09018726666758,
            "value": 0.7559055118110236
          },
          {
            "number": 2,
            "time": 129.47340800000092,
            "value": 0.7559055118110236
          },
          {
            "number": 2,
            "time": 130.65761600000093,
            "value": 0.7559055118110236
          },
          {
            "number": 2,
            "time": 130.85498400000094,
            "value": 0.7559055118110236
          },
          {
            "number": 2,
            "time": 131.05235200000095,
            "value": 0.7559055118110236
          },
          {
            "number": 2,
            "time": 132.63129600000096,
            "value": 0.6299212598425197
          },
          {
            "number": 2,
            "time": 132.63129600000096,
            "value": 0.9448818897637795
          },
          {
            "number": 2,
            "time": 132.6329407333343,
            "value": 0.937007874015748
          },
          {
            "number": 2,
            "time": 132.63458546666763,
            "value": 0.937007874015748
          },
          {
            "number": 2,
            "time": 132.63623020000097,
            "value": 0.937007874015748
          },
          {
            "number": 2,
            "time": 132.6378749333343,
            "value": 0.9291338582677166
          },
          {
            "number": 2,
            "time": 132.63951966666764,
            "value": 0.9291338582677166
          },
          {
            "number": 2,
            "time": 132.64116440000097,
            "value": 0.9291338582677166
          },
          {
            "number": 2,
            "time": 132.6428091333343,
            "value": 0.9212598425196851
          },
          {
            "number": 2,
            "time": 132.64445386666765,
            "value": 0.9212598425196851
          },
          {
            "number": 2,
            "time": 132.64609860000098,
            "value": 0.9212598425196851
          },
          {
            "number": 2,
            "time": 132.64774333333432,
            "value": 0.9133858267716536
          },
          {
            "number": 2,
            "time": 132.64938806666765,
            "value": 0.9133858267716536
          },
          {
            "number": 2,
            "time": 132.651032800001,
            "value": 0.9133858267716536
          },
          {
            "number": 2,
            "time": 132.65267753333433,
            "value": 0.905511811023622
          },
          {
            "number": 2,
            "time": 132.65432226666766,
            "value": 0.905511811023622
          },
          {
            "number": 2,
            "time": 132.655967000001,
            "value": 0.905511811023622
          },
          {
            "number": 2,
            "time": 132.65761173333433,
            "value": 0.8976377952755905
          },
          {
            "number": 2,
            "time": 132.65925646666767,
            "value": 0.8976377952755905
          },
          {
            "number": 2,
            "time": 132.660901200001,
            "value": 0.8976377952755905
          },
          {
            "number": 2,
            "time": 132.66254593333434,
            "value": 0.889763779527559
          },
          {
            "number": 2,
            "time": 132.66419066666768,
            "value": 0.889763779527559
          },
          {
            "number": 2,
            "time": 132.66583540000101,
            "value": 0.889763779527559
          },
          {
            "number": 2,
            "time": 132.66748013333435,
            "value": 0.8818897637795275
          },
          {
            "number": 2,
            "time": 132.6691248666677,
            "value": 0.8818897637795275
          },
          {
            "number": 2,
            "time": 132.67076960000102,
            "value": 0.8818897637795275
          },
          {
            "number": 2,
            "time": 132.67241433333436,
            "value": 0.8740157480314961
          },
          {
            "number": 2,
            "time": 132.6740590666677,
            "value": 0.8740157480314961
          },
          {
            "number": 2,
            "time": 132.67570380000103,
            "value": 0.8740157480314961
          },
          {
            "number": 2,
            "time": 132.67734853333437,
            "value": 0.8661417322834646
          },
          {
            "number": 2,
            "time": 132.6789932666677,
            "value": 0.8661417322834646
          },
          {
            "number": 2,
            "time": 132.68063800000104,
            "value": 0.8661417322834646
          },
          {
            "number": 2,
            "time": 132.68228273333438,
            "value": 0.8582677165354331
          },
          {
            "number": 2,
            "time": 132.6839274666677,
            "value": 0.8582677165354331
          },
          {
            "number": 2,
            "time": 132.68557220000105,
            "value": 0.8582677165354331
          },
          {
            "number": 2,
            "time": 132.68721693333438,
            "value": 0.8503937007874016
          },
          {
            "number": 2,
            "time": 132.68886166666772,
            "value": 0.8503937007874016
          },
          {
            "number": 2,
            "time": 132.69050640000106,
            "value": 0.8503937007874016
          },
          {
            "number": 2,
            "time": 132.6921511333344,
            "value": 0.84251968503937
          },
          {
            "number": 2,
            "time": 132.69379586666773,
            "value": 0.84251968503937
          },
          {
            "number": 2,
            "time": 132.69544060000106,
            "value": 0.84251968503937
          },
          {
            "number": 2,
            "time": 132.6970853333344,
            "value": 0.8346456692913385
          },
          {
            "number": 2,
            "time": 132.69873006666774,
            "value": 0.8346456692913385
          },
          {
            "number": 2,
            "time": 132.70037480000107,
            "value": 0.8346456692913385
          },
          {
            "number": 2,
            "time": 132.7020195333344,
            "value": 0.8267716535433071
          },
          {
            "number": 2,
            "time": 132.70366426666774,
            "value": 0.8267716535433071
          },
          {
            "number": 2,
            "time": 132.70530900000108,
            "value": 0.8267716535433071
          },
          {
            "number": 2,
            "time": 132.70695373333442,
            "value": 0.8188976377952756
          },
          {
            "number": 2,
            "time": 132.70859846666775,
            "value": 0.8188976377952756
          },
          {
            "number": 2,
            "time": 132.7102432000011,
            "value": 0.8188976377952756
          },
          {
            "number": 2,
            "time": 132.71188793333442,
            "value": 0.8110236220472441
          },
          {
            "number": 2,
            "time": 132.71353266666776,
            "value": 0.8110236220472441
          },
          {
            "number": 2,
            "time": 132.7151774000011,
            "value": 0.8110236220472441
          },
          {
            "number": 2,
            "time": 132.71682213333443,
            "value": 0.8031496062992126
          },
          {
            "number": 2,
            "time": 132.71846686666777,
            "value": 0.8031496062992126
          },
          {
            "number": 2,
            "time": 132.7201116000011,
            "value": 0.8031496062992126
          },
          {
            "number": 2,
            "time": 132.72175633333444,
            "value": 0.7952755905511811
          },
          {
            "number": 2,
            "time": 132.72340106666778,
            "value": 0.7952755905511811
          },
          {
            "number": 2,
            "time": 132.7250458000011,
            "value": 0.7952755905511811
          },
          {
            "number": 2,
            "time": 132.72669053333445,
            "value": 0.7874015748031497
          },
          {
            "number": 2,
            "time": 132.72833526666778,
            "value": 0.7874015748031497
          },
          {
            "number": 2,
            "time": 132.72998000000112,
            "value": 0.7874015748031497
          },
          {
            "number": 2,
            "time": 132.73162473333446,
            "value": 0.7795275590551181
          },
          {
            "number": 2,
            "time": 132.7332694666678,
            "value": 0.7795275590551181
          },
          {
            "number": 2,
            "time": 132.73491420000113,
            "value": 0.7795275590551181
          },
          {
            "number": 2,
            "time": 132.73655893333446,
            "value": 0.7716535433070866
          },
          {
            "number": 2,
            "time": 132.7382036666678,
            "value": 0.7716535433070866
          },
          {
            "number": 2,
            "time": 132.73984840000114,
            "value": 0.7716535433070866
          },
          {
            "number": 2,
            "time": 132.74149313333447,
            "value": 0.7637795275590551
          },
          {
            "number": 2,
            "time": 132.7431378666678,
            "value": 0.7637795275590551
          },
          {
            "number": 2,
            "time": 132.74478260000114,
            "value": 0.7637795275590551
          },
          {
            "number": 2,
            "time": 132.74642733333448,
            "value": 0.7559055118110236
          },
          {
            "number": 2,
            "time": 132.74807206666782,
            "value": 0.7559055118110236
          },
          {
            "number": 2,
            "time": 132.74971680000115,
            "value": 0.7559055118110236
          },
          {
            "number": 2,
            "time": 132.7513615333345,
            "value": 0.7480314960629921
          },
          {
            "number": 2,
            "time": 132.75300626666782,
            "value": 0.7480314960629921
          },
          {
            "number": 2,
            "time": 132.75465100000116,
            "value": 0.7480314960629921
          },
          {
            "number": 2,
            "time": 132.7562957333345,
            "value": 0.7401574803149606
          },
          {
            "number": 2,
            "time": 132.75794046666783,
            "value": 0.7401574803149606
          },
          {
            "number": 2,
            "time": 132.75958520000117,
            "value": 0.7401574803149606
          },
          {
            "number": 2,
            "time": 132.7612299333345,
            "value": 0.7322834645669292
          },
          {
            "number": 2,
            "time": 132.76287466666784,
            "value": 0.7322834645669292
          },
          {
            "number": 2,
            "time": 132.76451940000118,
            "value": 0.7322834645669292
          },
          {
            "number": 2,
            "time": 132.7661641333345,
            "value": 0.7244094488188977
          },
          {
            "number": 2,
            "time": 132.76780886666785,
            "value": 0.7244094488188977
          },
          {
            "number": 2,
            "time": 132.76945360000119,
            "value": 0.7244094488188977
          },
          {
            "number": 2,
            "time": 132.77109833333452,
            "value": 0.7165354330708661
          },
          {
            "number": 2,
            "time": 132.77274306666786,
            "value": 0.7165354330708661
          },
          {
            "number": 2,
            "time": 132.7743878000012,
            "value": 0.7165354330708661
          },
          {
            "number": 2,
            "time": 132.77603253333453,
            "value": 0.7086614173228346
          },
          {
            "number": 2,
            "time": 132.77767726666787,
            "value": 0.7086614173228346
          },
          {
            "number": 2,
            "time": 132.7793220000012,
            "value": 0.7086614173228346
          },
          {
            "number": 2,
            "time": 132.78096673333454,
            "value": 0.7007874015748031
          },
          {
            "number": 2,
            "time": 132.78261146666787,
            "value": 0.7007874015748031
          },
          {
            "number": 2,
            "time": 132.7842562000012,
            "value": 0.7007874015748031
          },
          {
            "number": 2,
            "time": 132.78590093333455,
            "value": 0.6929133858267716
          },
          {
            "number": 2,
            "time": 132.78754566666788,
            "value": 0.6929133858267716
          },
          {
            "number": 2,
            "time": 132.78919040000122,
            "value": 0.6929133858267716
          },
          {
            "number": 2,
            "time": 132.79083513333455,
            "value": 0.6850393700787402
          },
          {
            "number": 2,
            "time": 132.7924798666679,
            "value": 0.6850393700787402
          },
          {
            "number": 2,
            "time": 132.79412460000123,
            "value": 0.6850393700787402
          },
          {
            "number": 2,
            "time": 132.79576933333456,
            "value": 0.6771653543307087
          },
          {
            "number": 2,
            "time": 132.7974140666679,
            "value": 0.6771653543307087
          },
          {
            "number": 2,
            "time": 132.79905880000123,
            "value": 0.6771653543307087
          },
          {
            "number": 2,
            "time": 132.80070353333457,
            "value": 0.6692913385826772
          },
          {
            "number": 2,
            "time": 132.8023482666679,
            "value": 0.6692913385826772
          },
          {
            "number": 2,
            "time": 132.80399300000124,
            "value": 0.6692913385826772
          },
          {
            "number": 2,
            "time": 132.80563773333458,
            "value": 0.6614173228346457
          },
          {
            "number": 2,
            "time": 132.8072824666679,
            "value": 0.6614173228346457
          },
          {
            "number": 2,
            "time": 132.80892720000125,
            "value": 0.6614173228346457
          },
          {
            "number": 2,
            "time": 132.8105719333346,
            "value": 0.6535433070866141
          },
          {
            "number": 2,
            "time": 132.81221666666792,
            "value": 0.6535433070866141
          },
          {
            "number": 2,
            "time": 132.81386140000126,
            "value": 0.6535433070866141
          },
          {
            "number": 2,
            "time": 132.8155061333346,
            "value": 0.6456692913385826
          },
          {
            "number": 2,
            "time": 132.81715086666793,
            "value": 0.6456692913385826
          },
          {
            "number": 2,
            "time": 132.81879560000127,
            "value": 0.6456692913385826
          },
          {
            "number": 2,
            "time": 132.8204403333346,
            "value": 0.6377952755905512
          },
          {
            "number": 2,
            "time": 132.82208506666794,
            "value": 0.6377952755905512
          },
          {
            "number": 2,
            "time": 132.82372980000127,
            "value": 0.6377952755905512
          },
          {
            "number": 2,
            "time": 132.8253745333346,
            "value": 0.6299212598425197
          },
          {
            "number": 2,
            "time": 132.82701926666795,
            "value": 0.6299212598425197
          },
          {
            "number": 2,
            "time": 133.0260320000013,
            "value": 0.6299212598425197
          },
          {
            "number": 2,
            "time": 133.4207680000013,
            "value": 0.6299212598425197
          },
          {
            "number": 2,
            "time": 133.81550400000128,
            "value": 0.6299212598425197
          },
          {
            "number": 2,
            "time": 134.21024000000128,
            "value": 0.6299212598425197
          },
          {
            "number": 2,
            "time": 134.60497600000127,
            "value": 0.6299212598425197
          },
          {
            "number": 2,
            "time": 134.99971200000127,
            "value": 0.6299212598425197
          },
          {
            "number": 2,
            "time": 135.39444800000126,
            "value": 0.6299212598425197
          },
          {
            "number": 2,
            "time": 135.78918400000126,
            "value": 0.6299212598425197
          },
          {
            "number": 2,
            "time": 136.18392000000125,
            "value": 0.6299212598425197
          },
          {
            "number": 2,
            "time": 136.57865600000125,
            "value": 0.6299212598425197
          },
          {
            "number": 2,
            "time": 136.97339200000124,
            "value": 0.6299212598425197
          },
          {
            "number": 2,
            "time": 137.36812800000124,
            "value": 0.6299212598425197
          },
          {
            "number": 2,
            "time": 137.76286400000123,
            "value": 0.6299212598425197
          },
          {
            "number": 2,
            "time": 138.15760000000122,
            "value": 0.6299212598425197
          },
          {
            "number": 2,
            "time": 138.55233600000122,
            "value": 0.6299212598425197
          },
          {
            "number": 2,
            "time": 138.9470720000012,
            "value": 0.6299212598425197
          },
          {
            "number": 2,
            "time": 140.13128000000123,
            "value": 0.6299212598425197
          },
          {
            "number": 2,
            "time": 140.52601600000122,
            "value": 0.6299212598425197
          },
          {
            "number": 2,
            "time": 141.71022400000123,
            "value": 0.6299212598425197
          },
          {
            "number": 2,
            "time": 142.10496000000123,
            "value": 0.6299212598425197
          },
          {
            "number": 2,
            "time": 142.49969600000122,
            "value": 0.6299212598425197
          },
          {
            "number": 2,
            "time": 142.89443200000122,
            "value": 0.6299212598425197
          },
          {
            "number": 2,
            "time": 143.2891680000012,
            "value": 0.6299212598425197
          },
          {
            "number": 2,
            "time": 144.86811200000122,
            "value": 0.6299212598425197
          },
          {
            "number": 2,
            "time": 145.2628480000012,
            "value": 0.6299212598425197
          },
          {
            "number": 2,
            "time": 145.6575840000012,
            "value": 0.6299212598425197
          },
          {
            "number": 2,
            "time": 146.0523200000012,
            "value": 0.6299212598425197
          },
          {
            "number": 2,
            "time": 146.4470560000012,
            "value": 0.6299212598425197
          },
          {
            "number": 2,
            "time": 146.8417920000012,
            "value": 0.6299212598425197
          },
          {
            "number": 2,
            "time": 147.63126400000118,
            "value": 0.6299212598425197
          },
          {
            "number": 2,
            "time": 148.42073600000117,
            "value": 0.6299212598425197
          },
          {
            "number": 2,
            "time": 149.21020800000116,
            "value": 0.6299212598425197
          },
          {
            "number": 2,
            "time": 149.99968000000115,
            "value": 0.6299212598425197
          },
          {
            "number": 2,
            "time": 151.57862400000116,
            "value": 0.6299212598425197
          },
          {
            "number": 2,
            "time": 152.76283200000117,
            "value": 0.6299212598425197
          },
          {
            "number": 2,
            "time": 153.15756800000116,
            "value": 0.6299212598425197
          },
          {
            "number": 2,
            "time": 154.34177600000118,
            "value": 0.6299212598425197
          },
          {
            "number": 2,
            "time": 154.73651200000117,
            "value": 0.6299212598425197
          },
          {
            "number": 2,
            "time": 155.52598400000116,
            "value": 0.6299212598425197
          },
          {
            "number": 2,
            "time": 155.92072000000115,
            "value": 0.6299212598425197
          },
          {
            "number": 2,
            "time": 156.31545600000115,
            "value": 0.6299212598425197
          },
          {
            "number": 2,
            "time": 157.89440000000116,
            "value": 0.6299212598425197
          },
          {
            "number": 2,
            "time": 158.28913600000115,
            "value": 0.6299212598425197
          },
          {
            "number": 2,
            "time": 158.68387200000114,
            "value": 0.6299212598425197
          },
          {
            "number": 2,
            "time": 159.07860800000114,
            "value": 0.6299212598425197
          },
          {
            "number": 2,
            "time": 159.47334400000113,
            "value": 0.6299212598425197
          },
          {
            "number": 2,
            "time": 160.26281600000112,
            "value": 0.6299212598425197
          },
          {
            "number": 2,
            "time": 161.0522880000011,
            "value": 0.6299212598425197
          },
          {
            "number": 2,
            "time": 161.1016300000011,
            "value": 0.6220472440944882
          },
          {
            "number": 2,
            "time": 161.1509720000011,
            "value": 0.6141732283464567
          },
          {
            "number": 2,
            "time": 161.2003140000011,
            "value": 0.6062992125984252
          },
          {
            "number": 2,
            "time": 161.2496560000011,
            "value": 0.5984251968503937
          },
          {
            "number": 2,
            "time": 161.2989980000011,
            "value": 0.5905511811023622
          },
          {
            "number": 2,
            "time": 161.3483400000011,
            "value": 0.5826771653543307
          },
          {
            "number": 2,
            "time": 161.39768200000108,
            "value": 0.5748031496062992
          },
          {
            "number": 2,
            "time": 161.44702400000108,
            "value": 0.5669291338582677
          },
          {
            "number": 2,
            "time": 161.49636600000107,
            "value": 0.5590551181102362
          },
          {
            "number": 2,
            "time": 161.54570800000107,
            "value": 0.5511811023622047
          },
          {
            "number": 2,
            "time": 161.59505000000107,
            "value": 0.5433070866141733
          },
          {
            "number": 2,
            "time": 161.64439200000106,
            "value": 0.5354330708661418
          },
          {
            "number": 2,
            "time": 161.69373400000106,
            "value": 0.5275590551181102
          },
          {
            "number": 2,
            "time": 161.74307600000105,
            "value": 0.5196850393700787
          },
          {
            "number": 2,
            "time": 161.79241800000105,
            "value": 0.5118110236220472
          },
          {
            "number": 2,
            "time": 161.84176000000105,
            "value": 0.5039370078740157
          },
          {
            "number": 2,
            "time": 164.21017600000104,
            "value": 0.5039370078740157
          },
          {
            "number": 2,
            "time": 164.38287300000104,
            "value": 0.5118110236220472
          },
          {
            "number": 2,
            "time": 164.55557000000104,
            "value": 0.5196850393700787
          },
          {
            "number": 2,
            "time": 164.60491200000104,
            "value": 0.5196850393700787
          },
          {
            "number": 2,
            "time": 164.72826700000104,
            "value": 0.5275590551181102
          },
          {
            "number": 2,
            "time": 164.90096400000104,
            "value": 0.5354330708661418
          },
          {
            "number": 2,
            "time": 164.99964800000103,
            "value": 0.5354330708661418
          },
          {
            "number": 2,
            "time": 165.07366100000104,
            "value": 0.5433070866141733
          },
          {
            "number": 2,
            "time": 165.24635800000104,
            "value": 0.5511811023622047
          },
          {
            "number": 2,
            "time": 165.39438400000103,
            "value": 0.5511811023622047
          },
          {
            "number": 2,
            "time": 165.41905500000104,
            "value": 0.5590551181102362
          },
          {
            "number": 2,
            "time": 165.59175200000104,
            "value": 0.5669291338582677
          },
          {
            "number": 2,
            "time": 165.76444900000104,
            "value": 0.5748031496062992
          },
          {
            "number": 2,
            "time": 165.78912000000105,
            "value": 0.5748031496062992
          },
          {
            "number": 2,
            "time": 165.93714600000104,
            "value": 0.5826771653543307
          },
          {
            "number": 2,
            "time": 165.98648800000103,
            "value": 0.5826771653543307
          },
          {
            "number": 2,
            "time": 166.109843000001,
            "value": 0.5905511811023622
          },
          {
            "number": 2,
            "time": 166.18385600000101,
            "value": 0.5905511811023622
          },
          {
            "number": 2,
            "time": 166.282540000001,
            "value": 0.5984251968503937
          },
          {
            "number": 2,
            "time": 166.455237000001,
            "value": 0.6062992125984252
          },
          {
            "number": 2,
            "time": 166.578592000001,
            "value": 0.6062992125984252
          },
          {
            "number": 2,
            "time": 166.627934000001,
            "value": 0.6141732283464567
          },
          {
            "number": 2,
            "time": 166.800631000001,
            "value": 0.6220472440944882
          },
          {
            "number": 2,
            "time": 166.973328000001,
            "value": 0.6299212598425197
          },
          {
            "number": 2,
            "time": 167.368064000001,
            "value": 0.6299212598425197
          },
          {
            "number": 2,
            "time": 167.368064000001,
            "value": 0.6299212598425197
          },
          {
            "number": 2,
            "time": 167.762800000001,
            "value": 0.6299212598425197
          },
          {
            "number": 2,
            "time": 168.157536000001,
            "value": 0.6299212598425197
          },
          {
            "number": 2,
            "time": 168.55227200000098,
            "value": 0.6299212598425197
          },
          {
            "number": 2,
            "time": 168.94700800000098,
            "value": 0.6299212598425197
          },
          {
            "number": 2,
            "time": 169.34174400000097,
            "value": 0.6299212598425197
          },
          {
            "number": 2,
            "time": 169.73648000000097,
            "value": 0.6299212598425197
          },
          {
            "number": 2,
            "time": 170.13121600000096,
            "value": 0.6299212598425197
          },
          {
            "number": 2,
            "time": 170.52595200000096,
            "value": 0.6299212598425197
          },
          {
            "number": 2,
            "time": 170.92068800000095,
            "value": 0.6299212598425197
          },
          {
            "number": 2,
            "time": 171.31542400000095,
            "value": 0.6299212598425197
          },
          {
            "number": 2,
            "time": 171.71016000000094,
            "value": 0.6299212598425197
          },
          {
            "number": 2,
            "time": 172.10489600000093,
            "value": 0.6299212598425197
          },
          {
            "number": 2,
            "time": 172.49963200000093,
            "value": 0.6299212598425197
          },
          {
            "number": 2,
            "time": 172.89436800000092,
            "value": 0.6299212598425197
          },
          {
            "number": 2,
            "time": 173.28910400000092,
            "value": 0.6299212598425197
          },
          {
            "number": 2,
            "time": 173.6838400000009,
            "value": 0.6299212598425197
          },
          {
            "number": 2,
            "time": 174.0785760000009,
            "value": 0.6299212598425197
          },
          {
            "number": 2,
            "time": 174.4733120000009,
            "value": 0.6299212598425197
          },
          {
            "number": 2,
            "time": 174.8680480000009,
            "value": 0.6299212598425197
          },
          {
            "number": 2,
            "time": 175.2627840000009,
            "value": 0.6299212598425197
          },
          {
            "number": 2,
            "time": 175.6575200000009,
            "value": 0.6299212598425197
          },
          {
            "number": 2,
            "time": 176.05225600000088,
            "value": 0.6299212598425197
          },
          {
            "number": 2,
            "time": 176.44699200000088,
            "value": 0.6299212598425197
          },
          {
            "number": 2,
            "time": 176.84172800000087,
            "value": 0.6299212598425197
          },
          {
            "number": 2,
            "time": 177.23646400000086,
            "value": 0.6299212598425197
          },
          {
            "number": 2,
            "time": 177.63120000000086,
            "value": 0.6299212598425197
          },
          {
            "number": 2,
            "time": 178.02593600000085,
            "value": 0.6299212598425197
          },
          {
            "number": 2,
            "time": 178.42067200000085,
            "value": 0.6299212598425197
          },
          {
            "number": 2,
            "time": 178.81540800000084,
            "value": 0.6299212598425197
          },
          {
            "number": 2,
            "time": 179.21014400000084,
            "value": 0.6299212598425197
          },
          {
            "number": 2,
            "time": 179.60488000000083,
            "value": 0.6299212598425197
          },
          {
            "number": 2,
            "time": 179.99961600000083,
            "value": 0.6299212598425197
          },
          {
            "number": 2,
            "time": 180.39435200000082,
            "value": 0.6299212598425197
          },
          {
            "number": 2,
            "time": 180.56704900000082,
            "value": 0.6377952755905512
          },
          {
            "number": 2,
            "time": 180.78908800000082,
            "value": 0.6377952755905512
          },
          {
            "number": 2,
            "time": 181.13448200000082,
            "value": 0.6456692913385826
          },
          {
            "number": 2,
            "time": 181.1838240000008,
            "value": 0.6456692913385826
          },
          {
            "number": 2,
            "time": 181.5785600000008,
            "value": 0.6456692913385826
          },
          {
            "number": 2,
            "time": 181.7019150000008,
            "value": 0.6535433070866141
          },
          {
            "number": 2,
            "time": 181.9732960000008,
            "value": 0.6535433070866141
          },
          {
            "number": 2,
            "time": 182.2693480000008,
            "value": 0.6614173228346457
          },
          {
            "number": 2,
            "time": 182.3680320000008,
            "value": 0.6614173228346457
          },
          {
            "number": 2,
            "time": 182.7627680000008,
            "value": 0.6614173228346457
          },
          {
            "number": 2,
            "time": 182.8367810000008,
            "value": 0.6692913385826772
          },
          {
            "number": 2,
            "time": 183.15750400000078,
            "value": 0.6692913385826772
          },
          {
            "number": 2,
            "time": 183.4042140000008,
            "value": 0.6771653543307087
          },
          {
            "number": 2,
            "time": 183.55224000000078,
            "value": 0.6771653543307087
          },
          {
            "number": 2,
            "time": 183.94697600000077,
            "value": 0.6771653543307087
          },
          {
            "number": 2,
            "time": 183.9716470000008,
            "value": 0.6850393700787402
          },
          {
            "number": 2,
            "time": 184.34171200000077,
            "value": 0.6850393700787402
          },
          {
            "number": 2,
            "time": 184.53908000000078,
            "value": 0.6929133858267716
          },
          {
            "number": 2,
            "time": 184.7364480000008,
            "value": 0.6929133858267716
          },
          {
            "number": 2,
            "time": 185.1065130000008,
            "value": 0.7007874015748031
          },
          {
            "number": 2,
            "time": 185.13118400000081,
            "value": 0.7007874015748031
          },
          {
            "number": 2,
            "time": 185.5259200000008,
            "value": 0.7007874015748031
          },
          {
            "number": 2,
            "time": 185.6739460000008,
            "value": 0.7086614173228346
          },
          {
            "number": 2,
            "time": 185.92065600000078,
            "value": 0.7086614173228346
          },
          {
            "number": 2,
            "time": 186.2413790000008,
            "value": 0.7165354330708661
          },
          {
            "number": 2,
            "time": 186.3153920000008,
            "value": 0.7165354330708661
          },
          {
            "number": 2,
            "time": 186.7101280000008,
            "value": 0.7165354330708661
          },
          {
            "number": 2,
            "time": 186.80881200000078,
            "value": 0.7244094488188977
          },
          {
            "number": 2,
            "time": 187.10486400000076,
            "value": 0.7244094488188977
          },
          {
            "number": 2,
            "time": 187.37624500000078,
            "value": 0.7322834645669292
          },
          {
            "number": 2,
            "time": 187.49960000000078,
            "value": 0.7322834645669292
          },
          {
            "number": 2,
            "time": 187.89433600000078,
            "value": 0.7322834645669292
          },
          {
            "number": 2,
            "time": 187.94367800000077,
            "value": 0.7401574803149606
          },
          {
            "number": 2,
            "time": 188.28907200000077,
            "value": 0.7401574803149606
          },
          {
            "number": 2,
            "time": 188.51111100000077,
            "value": 0.7480314960629921
          },
          {
            "number": 2,
            "time": 188.68380800000077,
            "value": 0.7480314960629921
          },
          {
            "number": 2,
            "time": 189.07854400000076,
            "value": 0.7559055118110236
          },
          {
            "number": 2,
            "time": 189.47328000000076,
            "value": 0.7559055118110236
          },
          {
            "number": 2,
            "time": 189.47328000000076,
            "value": 1
          },
          {
            "number": 2,
            "time": 189.4749247333341,
            "value": 1
          },
          {
            "number": 2,
            "time": 189.47656946666743,
            "value": 1
          },
          {
            "number": 2,
            "time": 189.47821420000076,
            "value": 1
          },
          {
            "number": 2,
            "time": 189.4798589333341,
            "value": 1
          },
          {
            "number": 2,
            "time": 189.48150366666744,
            "value": 1
          },
          {
            "number": 2,
            "time": 189.48314840000077,
            "value": 1
          },
          {
            "number": 2,
            "time": 189.4847931333341,
            "value": 1
          },
          {
            "number": 2,
            "time": 189.48643786666744,
            "value": 1
          },
          {
            "number": 2,
            "time": 189.48808260000078,
            "value": 1
          },
          {
            "number": 2,
            "time": 189.48972733333412,
            "value": 1
          },
          {
            "number": 2,
            "time": 189.49137206666745,
            "value": 1
          },
          {
            "number": 2,
            "time": 189.4930168000008,
            "value": 1
          },
          {
            "number": 2,
            "time": 189.49466153333412,
            "value": 1
          },
          {
            "number": 2,
            "time": 189.49630626666746,
            "value": 1
          },
          {
            "number": 2,
            "time": 189.4979510000008,
            "value": 1
          },
          {
            "number": 2,
            "time": 189.49959573333413,
            "value": 1
          },
          {
            "number": 2,
            "time": 189.50124046666747,
            "value": 1
          },
          {
            "number": 2,
            "time": 189.5028852000008,
            "value": 1
          },
          {
            "number": 2,
            "time": 189.50452993333414,
            "value": 1
          },
          {
            "number": 2,
            "time": 189.50617466666748,
            "value": 1
          },
          {
            "number": 2,
            "time": 189.5078194000008,
            "value": 1
          },
          {
            "number": 2,
            "time": 189.50946413333415,
            "value": 1
          },
          {
            "number": 2,
            "time": 189.51110886666748,
            "value": 1
          },
          {
            "number": 2,
            "time": 189.51275360000082,
            "value": 1
          },
          {
            "number": 2,
            "time": 189.51439833333416,
            "value": 1
          },
          {
            "number": 2,
            "time": 189.5160430666675,
            "value": 1
          },
          {
            "number": 2,
            "time": 189.51768780000083,
            "value": 1
          },
          {
            "number": 2,
            "time": 189.51933253333416,
            "value": 1
          },
          {
            "number": 2,
            "time": 189.5209772666675,
            "value": 1
          },
          {
            "number": 2,
            "time": 189.52262200000084,
            "value": 1
          },
          {
            "number": 2,
            "time": 189.52426673333417,
            "value": 1
          },
          {
            "number": 2,
            "time": 189.5259114666675,
            "value": 1
          },
          {
            "number": 2,
            "time": 189.52755620000084,
            "value": 1
          },
          {
            "number": 2,
            "time": 189.52920093333418,
            "value": 1
          },
          {
            "number": 2,
            "time": 189.53084566666752,
            "value": 1
          },
          {
            "number": 2,
            "time": 189.53249040000085,
            "value": 1
          },
          {
            "number": 2,
            "time": 189.5341351333342,
            "value": 1
          },
          {
            "number": 2,
            "time": 189.53577986666753,
            "value": 1
          },
          {
            "number": 2,
            "time": 189.53742460000086,
            "value": 1
          },
          {
            "number": 2,
            "time": 189.5390693333342,
            "value": 1
          },
          {
            "number": 2,
            "time": 189.54071406666753,
            "value": 1
          },
          {
            "number": 2,
            "time": 189.54235880000087,
            "value": 1
          },
          {
            "number": 2,
            "time": 189.5440035333342,
            "value": 0.9921259842519685
          },
          {
            "number": 2,
            "time": 189.54564826666754,
            "value": 0.9921259842519685
          },
          {
            "number": 2,
            "time": 189.54729300000088,
            "value": 0.9921259842519685
          },
          {
            "number": 2,
            "time": 189.5489377333342,
            "value": 0.984251968503937
          },
          {
            "number": 2,
            "time": 189.55058246666755,
            "value": 0.984251968503937
          },
          {
            "number": 2,
            "time": 189.55222720000089,
            "value": 0.9763779527559056
          },
          {
            "number": 2,
            "time": 189.55387193333422,
            "value": 0.9763779527559056
          },
          {
            "number": 2,
            "time": 189.55551666666756,
            "value": 0.9763779527559056
          },
          {
            "number": 2,
            "time": 189.5571614000009,
            "value": 0.968503937007874
          },
          {
            "number": 2,
            "time": 189.55880613333423,
            "value": 0.968503937007874
          },
          {
            "number": 2,
            "time": 189.56045086666757,
            "value": 0.9606299212598425
          },
          {
            "number": 2,
            "time": 189.5620956000009,
            "value": 0.9606299212598425
          },
          {
            "number": 2,
            "time": 189.56374033333424,
            "value": 0.9606299212598425
          },
          {
            "number": 2,
            "time": 189.56538506666757,
            "value": 0.952755905511811
          },
          {
            "number": 2,
            "time": 189.5670298000009,
            "value": 0.952755905511811
          },
          {
            "number": 2,
            "time": 189.56867453333425,
            "value": 0.9448818897637795
          },
          {
            "number": 2,
            "time": 189.57031926666758,
            "value": 0.9448818897637795
          },
          {
            "number": 2,
            "time": 189.57196400000092,
            "value": 0.9448818897637795
          },
          {
            "number": 2,
            "time": 189.57360873333425,
            "value": 0.937007874015748
          },
          {
            "number": 2,
            "time": 189.5752534666676,
            "value": 0.937007874015748
          },
          {
            "number": 2,
            "time": 189.57689820000093,
            "value": 0.9291338582677166
          },
          {
            "number": 2,
            "time": 189.57854293333426,
            "value": 0.9291338582677166
          },
          {
            "number": 2,
            "time": 189.5801876666676,
            "value": 0.9291338582677166
          },
          {
            "number": 2,
            "time": 189.58183240000093,
            "value": 0.9212598425196851
          },
          {
            "number": 2,
            "time": 189.58347713333427,
            "value": 0.9212598425196851
          },
          {
            "number": 2,
            "time": 189.5851218666676,
            "value": 0.9133858267716536
          },
          {
            "number": 2,
            "time": 189.58676660000094,
            "value": 0.9133858267716536
          },
          {
            "number": 2,
            "time": 189.58841133333428,
            "value": 0.9133858267716536
          },
          {
            "number": 2,
            "time": 189.59005606666761,
            "value": 0.905511811023622
          },
          {
            "number": 2,
            "time": 189.59170080000095,
            "value": 0.905511811023622
          },
          {
            "number": 2,
            "time": 189.5933455333343,
            "value": 0.8976377952755905
          },
          {
            "number": 2,
            "time": 189.59499026666762,
            "value": 0.8976377952755905
          },
          {
            "number": 2,
            "time": 189.59663500000096,
            "value": 0.8976377952755905
          },
          {
            "number": 2,
            "time": 189.5982797333343,
            "value": 0.889763779527559
          },
          {
            "number": 2,
            "time": 189.59992446666763,
            "value": 0.889763779527559
          },
          {
            "number": 2,
            "time": 189.60156920000097,
            "value": 0.8818897637795275
          },
          {
            "number": 2,
            "time": 189.6032139333343,
            "value": 0.8818897637795275
          },
          {
            "number": 2,
            "time": 189.60485866666764,
            "value": 0.8818897637795275
          },
          {
            "number": 2,
            "time": 189.60650340000097,
            "value": 0.8740157480314961
          },
          {
            "number": 2,
            "time": 189.6081481333343,
            "value": 0.8740157480314961
          },
          {
            "number": 2,
            "time": 189.60979286666765,
            "value": 0.8661417322834646
          },
          {
            "number": 2,
            "time": 189.61143760000098,
            "value": 0.8661417322834646
          },
          {
            "number": 2,
            "time": 189.61308233333432,
            "value": 0.8661417322834646
          },
          {
            "number": 2,
            "time": 189.61472706666765,
            "value": 0.8582677165354331
          },
          {
            "number": 2,
            "time": 189.616371800001,
            "value": 0.8582677165354331
          },
          {
            "number": 2,
            "time": 189.61801653333433,
            "value": 0.8503937007874016
          },
          {
            "number": 2,
            "time": 189.61966126666766,
            "value": 0.8503937007874016
          },
          {
            "number": 2,
            "time": 189.621306000001,
            "value": 0.8503937007874016
          },
          {
            "number": 2,
            "time": 189.62295073333433,
            "value": 0.84251968503937
          },
          {
            "number": 2,
            "time": 189.62459546666767,
            "value": 0.84251968503937
          },
          {
            "number": 2,
            "time": 189.626240200001,
            "value": 0.8346456692913385
          },
          {
            "number": 2,
            "time": 189.62788493333434,
            "value": 0.8346456692913385
          },
          {
            "number": 2,
            "time": 189.62952966666768,
            "value": 0.8346456692913385
          },
          {
            "number": 2,
            "time": 189.63117440000102,
            "value": 0.8267716535433071
          },
          {
            "number": 2,
            "time": 189.63281913333435,
            "value": 0.8267716535433071
          },
          {
            "number": 2,
            "time": 189.6344638666677,
            "value": 0.8188976377952756
          },
          {
            "number": 2,
            "time": 189.63610860000102,
            "value": 0.8188976377952756
          },
          {
            "number": 2,
            "time": 189.63775333333436,
            "value": 0.8188976377952756
          },
          {
            "number": 2,
            "time": 189.6393980666677,
            "value": 0.8110236220472441
          },
          {
            "number": 2,
            "time": 189.64104280000103,
            "value": 0.8110236220472441
          },
          {
            "number": 2,
            "time": 189.64268753333437,
            "value": 0.8031496062992126
          },
          {
            "number": 2,
            "time": 189.6443322666677,
            "value": 0.8031496062992126
          },
          {
            "number": 2,
            "time": 189.64597700000104,
            "value": 0.8031496062992126
          },
          {
            "number": 2,
            "time": 189.64762173333438,
            "value": 0.7952755905511811
          },
          {
            "number": 2,
            "time": 189.6492664666677,
            "value": 0.7952755905511811
          },
          {
            "number": 2,
            "time": 189.65091120000105,
            "value": 0.7874015748031497
          },
          {
            "number": 2,
            "time": 189.65255593333438,
            "value": 0.7874015748031497
          },
          {
            "number": 2,
            "time": 189.65420066666772,
            "value": 0.7874015748031497
          },
          {
            "number": 2,
            "time": 189.65584540000106,
            "value": 0.7795275590551181
          },
          {
            "number": 2,
            "time": 189.6574901333344,
            "value": 0.7795275590551181
          },
          {
            "number": 2,
            "time": 189.65913486666773,
            "value": 0.7716535433070866
          },
          {
            "number": 2,
            "time": 189.66077960000106,
            "value": 0.7716535433070866
          },
          {
            "number": 2,
            "time": 189.6624243333344,
            "value": 0.7716535433070866
          },
          {
            "number": 2,
            "time": 189.66406906666774,
            "value": 0.7637795275590551
          },
          {
            "number": 2,
            "time": 189.66571380000107,
            "value": 0.7637795275590551
          },
          {
            "number": 2,
            "time": 189.6673585333344,
            "value": 0.7559055118110236
          },
          {
            "number": 2,
            "time": 189.66900326666774,
            "value": 0.7559055118110236
          },
          {
            "number": 2,
            "time": 190.2627520000011,
            "value": 1
          },
          {
            "number": 2,
            "time": 190.26439673333442,
            "value": 1
          },
          {
            "number": 2,
            "time": 190.26604146666776,
            "value": 1
          },
          {
            "number": 2,
            "time": 190.2676862000011,
            "value": 1
          },
          {
            "number": 2,
            "time": 190.26933093333443,
            "value": 1
          },
          {
            "number": 2,
            "time": 190.27097566666777,
            "value": 1
          },
          {
            "number": 2,
            "time": 190.2726204000011,
            "value": 1
          },
          {
            "number": 2,
            "time": 190.27426513333444,
            "value": 1
          },
          {
            "number": 2,
            "time": 190.27590986666777,
            "value": 1
          },
          {
            "number": 2,
            "time": 190.2775546000011,
            "value": 1
          },
          {
            "number": 2,
            "time": 190.27919933333445,
            "value": 1
          },
          {
            "number": 2,
            "time": 190.28084406666778,
            "value": 1
          },
          {
            "number": 2,
            "time": 190.28248880000112,
            "value": 1
          },
          {
            "number": 2,
            "time": 190.28413353333445,
            "value": 1
          },
          {
            "number": 2,
            "time": 190.2857782666678,
            "value": 1
          },
          {
            "number": 2,
            "time": 190.28742300000113,
            "value": 1
          },
          {
            "number": 2,
            "time": 190.28906773333446,
            "value": 1
          },
          {
            "number": 2,
            "time": 190.2907124666678,
            "value": 1
          },
          {
            "number": 2,
            "time": 190.29235720000113,
            "value": 1
          },
          {
            "number": 2,
            "time": 190.29400193333447,
            "value": 1
          },
          {
            "number": 2,
            "time": 190.2956466666678,
            "value": 1
          },
          {
            "number": 2,
            "time": 190.29729140000114,
            "value": 1
          },
          {
            "number": 2,
            "time": 190.29893613333448,
            "value": 1
          },
          {
            "number": 2,
            "time": 190.30058086666781,
            "value": 1
          },
          {
            "number": 2,
            "time": 190.30222560000115,
            "value": 1
          },
          {
            "number": 2,
            "time": 190.3038703333345,
            "value": 1
          },
          {
            "number": 2,
            "time": 190.30551506666782,
            "value": 1
          },
          {
            "number": 2,
            "time": 190.30715980000116,
            "value": 1
          },
          {
            "number": 2,
            "time": 190.3088045333345,
            "value": 1
          },
          {
            "number": 2,
            "time": 190.31044926666783,
            "value": 1
          },
          {
            "number": 2,
            "time": 190.31209400000117,
            "value": 1
          },
          {
            "number": 2,
            "time": 190.3137387333345,
            "value": 1
          },
          {
            "number": 2,
            "time": 190.31538346666784,
            "value": 1
          },
          {
            "number": 2,
            "time": 190.31702820000118,
            "value": 1
          },
          {
            "number": 2,
            "time": 190.3186729333345,
            "value": 1
          },
          {
            "number": 2,
            "time": 190.32031766666785,
            "value": 1
          },
          {
            "number": 2,
            "time": 190.32196240000118,
            "value": 1
          },
          {
            "number": 2,
            "time": 190.32360713333452,
            "value": 1
          },
          {
            "number": 2,
            "time": 190.32525186666786,
            "value": 1
          },
          {
            "number": 2,
            "time": 190.3268966000012,
            "value": 1
          },
          {
            "number": 2,
            "time": 190.32854133333453,
            "value": 1
          },
          {
            "number": 2,
            "time": 190.33018606666786,
            "value": 1
          },
          {
            "number": 2,
            "time": 190.3318308000012,
            "value": 1
          },
          {
            "number": 2,
            "time": 190.33347553333454,
            "value": 0.9921259842519685
          },
          {
            "number": 2,
            "time": 190.33512026666787,
            "value": 0.9921259842519685
          },
          {
            "number": 2,
            "time": 190.3367650000012,
            "value": 0.9921259842519685
          },
          {
            "number": 2,
            "time": 190.33840973333454,
            "value": 0.984251968503937
          },
          {
            "number": 2,
            "time": 190.34005446666788,
            "value": 0.984251968503937
          },
          {
            "number": 2,
            "time": 190.34169920000122,
            "value": 0.9763779527559056
          },
          {
            "number": 2,
            "time": 190.34334393333455,
            "value": 0.9763779527559056
          },
          {
            "number": 2,
            "time": 190.3449886666679,
            "value": 0.9763779527559056
          },
          {
            "number": 2,
            "time": 190.34663340000122,
            "value": 0.968503937007874
          },
          {
            "number": 2,
            "time": 190.34827813333456,
            "value": 0.968503937007874
          },
          {
            "number": 2,
            "time": 190.3499228666679,
            "value": 0.9606299212598425
          },
          {
            "number": 2,
            "time": 190.35156760000123,
            "value": 0.9606299212598425
          },
          {
            "number": 2,
            "time": 190.35321233333457,
            "value": 0.9606299212598425
          },
          {
            "number": 2,
            "time": 190.3548570666679,
            "value": 0.952755905511811
          },
          {
            "number": 2,
            "time": 190.35650180000124,
            "value": 0.952755905511811
          },
          {
            "number": 2,
            "time": 190.35814653333458,
            "value": 0.9448818897637795
          },
          {
            "number": 2,
            "time": 190.3597912666679,
            "value": 0.9448818897637795
          },
          {
            "number": 2,
            "time": 190.36143600000125,
            "value": 0.9448818897637795
          },
          {
            "number": 2,
            "time": 190.36308073333458,
            "value": 0.937007874015748
          },
          {
            "number": 2,
            "time": 190.36472546666792,
            "value": 0.937007874015748
          },
          {
            "number": 2,
            "time": 190.36637020000126,
            "value": 0.9291338582677166
          },
          {
            "number": 2,
            "time": 190.3680149333346,
            "value": 0.9291338582677166
          },
          {
            "number": 2,
            "time": 190.36965966666793,
            "value": 0.9291338582677166
          },
          {
            "number": 2,
            "time": 190.37130440000126,
            "value": 0.9212598425196851
          },
          {
            "number": 2,
            "time": 190.3729491333346,
            "value": 0.9212598425196851
          },
          {
            "number": 2,
            "time": 190.37459386666794,
            "value": 0.9133858267716536
          },
          {
            "number": 2,
            "time": 190.37623860000127,
            "value": 0.9133858267716536
          },
          {
            "number": 2,
            "time": 190.3778833333346,
            "value": 0.9133858267716536
          },
          {
            "number": 2,
            "time": 190.37952806666794,
            "value": 0.905511811023622
          },
          {
            "number": 2,
            "time": 190.38117280000128,
            "value": 0.905511811023622
          },
          {
            "number": 2,
            "time": 190.38281753333462,
            "value": 0.8976377952755905
          },
          {
            "number": 2,
            "time": 190.38446226666795,
            "value": 0.8976377952755905
          },
          {
            "number": 2,
            "time": 190.3861070000013,
            "value": 0.8976377952755905
          },
          {
            "number": 2,
            "time": 190.38775173333462,
            "value": 0.889763779527559
          },
          {
            "number": 2,
            "time": 190.38939646666796,
            "value": 0.889763779527559
          },
          {
            "number": 2,
            "time": 190.3910412000013,
            "value": 0.8818897637795275
          },
          {
            "number": 2,
            "time": 190.39268593333463,
            "value": 0.8818897637795275
          },
          {
            "number": 2,
            "time": 190.39433066666797,
            "value": 0.8818897637795275
          },
          {
            "number": 2,
            "time": 190.3959754000013,
            "value": 0.8740157480314961
          },
          {
            "number": 2,
            "time": 190.39762013333464,
            "value": 0.8740157480314961
          },
          {
            "number": 2,
            "time": 190.39926486666798,
            "value": 0.8661417322834646
          },
          {
            "number": 2,
            "time": 190.4009096000013,
            "value": 0.8661417322834646
          },
          {
            "number": 2,
            "time": 190.40255433333465,
            "value": 0.8661417322834646
          },
          {
            "number": 2,
            "time": 190.40419906666799,
            "value": 0.8582677165354331
          },
          {
            "number": 2,
            "time": 190.40584380000132,
            "value": 0.8582677165354331
          },
          {
            "number": 2,
            "time": 190.40748853333466,
            "value": 0.8503937007874016
          },
          {
            "number": 2,
            "time": 190.409133266668,
            "value": 0.8503937007874016
          },
          {
            "number": 2,
            "time": 190.41077800000133,
            "value": 0.8503937007874016
          },
          {
            "number": 2,
            "time": 190.41242273333467,
            "value": 0.84251968503937
          },
          {
            "number": 2,
            "time": 190.414067466668,
            "value": 0.84251968503937
          },
          {
            "number": 2,
            "time": 190.41571220000134,
            "value": 0.8346456692913385
          },
          {
            "number": 2,
            "time": 190.41735693333467,
            "value": 0.8346456692913385
          },
          {
            "number": 2,
            "time": 190.419001666668,
            "value": 0.8346456692913385
          },
          {
            "number": 2,
            "time": 190.42064640000135,
            "value": 0.8267716535433071
          },
          {
            "number": 2,
            "time": 190.42229113333468,
            "value": 0.8267716535433071
          },
          {
            "number": 2,
            "time": 190.42393586666802,
            "value": 0.8188976377952756
          },
          {
            "number": 2,
            "time": 190.42558060000135,
            "value": 0.8188976377952756
          },
          {
            "number": 2,
            "time": 190.4272253333347,
            "value": 0.8188976377952756
          },
          {
            "number": 2,
            "time": 190.42887006666803,
            "value": 0.8110236220472441
          },
          {
            "number": 2,
            "time": 190.43051480000136,
            "value": 0.8110236220472441
          },
          {
            "number": 2,
            "time": 190.4321595333347,
            "value": 0.8031496062992126
          },
          {
            "number": 2,
            "time": 190.43380426666803,
            "value": 0.8031496062992126
          },
          {
            "number": 2,
            "time": 190.43544900000137,
            "value": 0.8031496062992126
          },
          {
            "number": 2,
            "time": 190.4370937333347,
            "value": 0.7952755905511811
          },
          {
            "number": 2,
            "time": 190.43873846666804,
            "value": 0.7952755905511811
          },
          {
            "number": 2,
            "time": 190.44038320000138,
            "value": 0.7874015748031497
          },
          {
            "number": 2,
            "time": 190.4420279333347,
            "value": 0.7874015748031497
          },
          {
            "number": 2,
            "time": 190.44367266666805,
            "value": 0.7874015748031497
          },
          {
            "number": 2,
            "time": 190.4453174000014,
            "value": 0.7795275590551181
          },
          {
            "number": 2,
            "time": 190.44696213333472,
            "value": 0.7795275590551181
          },
          {
            "number": 2,
            "time": 190.44860686666806,
            "value": 0.7716535433070866
          },
          {
            "number": 2,
            "time": 190.4502516000014,
            "value": 0.7716535433070866
          },
          {
            "number": 2,
            "time": 190.45189633333473,
            "value": 0.7716535433070866
          },
          {
            "number": 2,
            "time": 190.45354106666807,
            "value": 0.7637795275590551
          },
          {
            "number": 2,
            "time": 190.4551858000014,
            "value": 0.7637795275590551
          },
          {
            "number": 2,
            "time": 190.45683053333474,
            "value": 0.7559055118110236
          },
          {
            "number": 2,
            "time": 190.45847526666807,
            "value": 0.7559055118110236
          },
          {
            "number": 2,
            "time": 191.05222400000142,
            "value": 1
          },
          {
            "number": 2,
            "time": 191.05386873333475,
            "value": 1
          },
          {
            "number": 2,
            "time": 191.0555134666681,
            "value": 1
          },
          {
            "number": 2,
            "time": 191.05715820000142,
            "value": 1
          },
          {
            "number": 2,
            "time": 191.05880293333476,
            "value": 1
          },
          {
            "number": 2,
            "time": 191.0604476666681,
            "value": 1
          },
          {
            "number": 2,
            "time": 191.06209240000143,
            "value": 1
          },
          {
            "number": 2,
            "time": 191.06373713333477,
            "value": 1
          },
          {
            "number": 2,
            "time": 191.0653818666681,
            "value": 1
          },
          {
            "number": 2,
            "time": 191.06702660000144,
            "value": 1
          },
          {
            "number": 2,
            "time": 191.06867133333478,
            "value": 1
          },
          {
            "number": 2,
            "time": 191.0703160666681,
            "value": 1
          },
          {
            "number": 2,
            "time": 191.07196080000145,
            "value": 1
          },
          {
            "number": 2,
            "time": 191.07360553333478,
            "value": 1
          },
          {
            "number": 2,
            "time": 191.07525026666812,
            "value": 1
          },
          {
            "number": 2,
            "time": 191.07689500000146,
            "value": 1
          },
          {
            "number": 2,
            "time": 191.0785397333348,
            "value": 1
          },
          {
            "number": 2,
            "time": 191.08018446666813,
            "value": 1
          },
          {
            "number": 2,
            "time": 191.08182920000147,
            "value": 1
          },
          {
            "number": 2,
            "time": 191.0834739333348,
            "value": 1
          },
          {
            "number": 2,
            "time": 191.08511866666814,
            "value": 1
          },
          {
            "number": 2,
            "time": 191.08676340000147,
            "value": 1
          },
          {
            "number": 2,
            "time": 191.0884081333348,
            "value": 1
          },
          {
            "number": 2,
            "time": 191.09005286666815,
            "value": 1
          },
          {
            "number": 2,
            "time": 191.09169760000148,
            "value": 1
          },
          {
            "number": 2,
            "time": 191.09334233333482,
            "value": 1
          },
          {
            "number": 2,
            "time": 191.09498706666815,
            "value": 1
          },
          {
            "number": 2,
            "time": 191.0966318000015,
            "value": 1
          },
          {
            "number": 2,
            "time": 191.09827653333483,
            "value": 1
          },
          {
            "number": 2,
            "time": 191.09992126666816,
            "value": 1
          },
          {
            "number": 2,
            "time": 191.1015660000015,
            "value": 1
          },
          {
            "number": 2,
            "time": 191.10321073333483,
            "value": 1
          },
          {
            "number": 2,
            "time": 191.10485546666817,
            "value": 1
          },
          {
            "number": 2,
            "time": 191.1065002000015,
            "value": 1
          },
          {
            "number": 2,
            "time": 191.10814493333484,
            "value": 1
          },
          {
            "number": 2,
            "time": 191.10978966666818,
            "value": 1
          },
          {
            "number": 2,
            "time": 191.1114344000015,
            "value": 1
          },
          {
            "number": 2,
            "time": 191.11307913333485,
            "value": 1
          },
          {
            "number": 2,
            "time": 191.1147238666682,
            "value": 1
          },
          {
            "number": 2,
            "time": 191.11636860000152,
            "value": 1
          },
          {
            "number": 2,
            "time": 191.11801333333486,
            "value": 1
          },
          {
            "number": 2,
            "time": 191.1196580666682,
            "value": 1
          },
          {
            "number": 2,
            "time": 191.12130280000153,
            "value": 1
          },
          {
            "number": 2,
            "time": 191.12294753333487,
            "value": 0.9921259842519685
          },
          {
            "number": 2,
            "time": 191.1245922666682,
            "value": 0.9921259842519685
          },
          {
            "number": 2,
            "time": 191.12623700000154,
            "value": 0.9921259842519685
          },
          {
            "number": 2,
            "time": 191.12788173333487,
            "value": 0.984251968503937
          },
          {
            "number": 2,
            "time": 191.1295264666682,
            "value": 0.984251968503937
          },
          {
            "number": 2,
            "time": 191.13117120000155,
            "value": 0.9763779527559056
          },
          {
            "number": 2,
            "time": 191.13281593333488,
            "value": 0.9763779527559056
          },
          {
            "number": 2,
            "time": 191.13446066666822,
            "value": 0.9763779527559056
          },
          {
            "number": 2,
            "time": 191.13610540000155,
            "value": 0.968503937007874
          },
          {
            "number": 2,
            "time": 191.1377501333349,
            "value": 0.968503937007874
          },
          {
            "number": 2,
            "time": 191.13939486666823,
            "value": 0.9606299212598425
          },
          {
            "number": 2,
            "time": 191.14103960000156,
            "value": 0.9606299212598425
          },
          {
            "number": 2,
            "time": 191.1426843333349,
            "value": 0.9606299212598425
          },
          {
            "number": 2,
            "time": 191.14432906666823,
            "value": 0.952755905511811
          },
          {
            "number": 2,
            "time": 191.14597380000157,
            "value": 0.952755905511811
          },
          {
            "number": 2,
            "time": 191.1476185333349,
            "value": 0.9448818897637795
          },
          {
            "number": 2,
            "time": 191.14926326666824,
            "value": 0.9448818897637795
          },
          {
            "number": 2,
            "time": 191.15090800000158,
            "value": 0.9448818897637795
          },
          {
            "number": 2,
            "time": 191.15255273333491,
            "value": 0.937007874015748
          },
          {
            "number": 2,
            "time": 191.15419746666825,
            "value": 0.937007874015748
          },
          {
            "number": 2,
            "time": 191.1558422000016,
            "value": 0.9291338582677166
          },
          {
            "number": 2,
            "time": 191.15748693333492,
            "value": 0.9291338582677166
          },
          {
            "number": 2,
            "time": 191.15913166666826,
            "value": 0.9291338582677166
          },
          {
            "number": 2,
            "time": 191.1607764000016,
            "value": 0.9212598425196851
          },
          {
            "number": 2,
            "time": 191.16242113333493,
            "value": 0.9212598425196851
          },
          {
            "number": 2,
            "time": 191.16406586666827,
            "value": 0.9133858267716536
          },
          {
            "number": 2,
            "time": 191.1657106000016,
            "value": 0.9133858267716536
          },
          {
            "number": 2,
            "time": 191.16735533333494,
            "value": 0.9133858267716536
          },
          {
            "number": 2,
            "time": 191.16900006666827,
            "value": 0.905511811023622
          },
          {
            "number": 2,
            "time": 191.1706448000016,
            "value": 0.905511811023622
          },
          {
            "number": 2,
            "time": 191.17228953333495,
            "value": 0.8976377952755905
          },
          {
            "number": 2,
            "time": 191.17393426666828,
            "value": 0.8976377952755905
          },
          {
            "number": 2,
            "time": 191.17557900000162,
            "value": 0.8976377952755905
          },
          {
            "number": 2,
            "time": 191.17722373333496,
            "value": 0.889763779527559
          },
          {
            "number": 2,
            "time": 191.1788684666683,
            "value": 0.889763779527559
          },
          {
            "number": 2,
            "time": 191.18051320000163,
            "value": 0.8818897637795275
          },
          {
            "number": 2,
            "time": 191.18215793333496,
            "value": 0.8818897637795275
          },
          {
            "number": 2,
            "time": 191.1838026666683,
            "value": 0.8818897637795275
          },
          {
            "number": 2,
            "time": 191.18544740000164,
            "value": 0.8740157480314961
          },
          {
            "number": 2,
            "time": 191.18709213333497,
            "value": 0.8740157480314961
          },
          {
            "number": 2,
            "time": 191.1887368666683,
            "value": 0.8661417322834646
          },
          {
            "number": 2,
            "time": 191.19038160000164,
            "value": 0.8661417322834646
          },
          {
            "number": 2,
            "time": 191.19202633333498,
            "value": 0.8661417322834646
          },
          {
            "number": 2,
            "time": 191.19367106666832,
            "value": 0.8582677165354331
          },
          {
            "number": 2,
            "time": 191.19531580000165,
            "value": 0.8582677165354331
          },
          {
            "number": 2,
            "time": 191.196960533335,
            "value": 0.8503937007874016
          },
          {
            "number": 2,
            "time": 191.19860526666832,
            "value": 0.8503937007874016
          },
          {
            "number": 2,
            "time": 191.20025000000166,
            "value": 0.8503937007874016
          },
          {
            "number": 2,
            "time": 191.201894733335,
            "value": 0.84251968503937
          },
          {
            "number": 2,
            "time": 191.20353946666833,
            "value": 0.84251968503937
          },
          {
            "number": 2,
            "time": 191.20518420000167,
            "value": 0.8346456692913385
          },
          {
            "number": 2,
            "time": 191.206828933335,
            "value": 0.8346456692913385
          },
          {
            "number": 2,
            "time": 191.20847366666834,
            "value": 0.8346456692913385
          },
          {
            "number": 2,
            "time": 191.21011840000168,
            "value": 0.8267716535433071
          },
          {
            "number": 2,
            "time": 191.211763133335,
            "value": 0.8267716535433071
          },
          {
            "number": 2,
            "time": 191.21340786666835,
            "value": 0.8188976377952756
          },
          {
            "number": 2,
            "time": 191.21505260000168,
            "value": 0.8188976377952756
          },
          {
            "number": 2,
            "time": 191.21669733333502,
            "value": 0.8188976377952756
          },
          {
            "number": 2,
            "time": 191.21834206666836,
            "value": 0.8110236220472441
          },
          {
            "number": 2,
            "time": 191.2199868000017,
            "value": 0.8110236220472441
          },
          {
            "number": 2,
            "time": 191.22163153333503,
            "value": 0.8031496062992126
          },
          {
            "number": 2,
            "time": 191.22327626666836,
            "value": 0.8031496062992126
          },
          {
            "number": 2,
            "time": 191.2249210000017,
            "value": 0.8031496062992126
          },
          {
            "number": 2,
            "time": 191.22656573333504,
            "value": 0.7952755905511811
          },
          {
            "number": 2,
            "time": 191.22821046666837,
            "value": 0.7952755905511811
          },
          {
            "number": 2,
            "time": 191.2298552000017,
            "value": 0.7874015748031497
          },
          {
            "number": 2,
            "time": 191.23149993333504,
            "value": 0.7874015748031497
          },
          {
            "number": 2,
            "time": 191.23314466666838,
            "value": 0.7874015748031497
          },
          {
            "number": 2,
            "time": 191.23478940000172,
            "value": 0.7795275590551181
          },
          {
            "number": 2,
            "time": 191.23643413333505,
            "value": 0.7795275590551181
          },
          {
            "number": 2,
            "time": 191.2380788666684,
            "value": 0.7716535433070866
          },
          {
            "number": 2,
            "time": 191.23972360000172,
            "value": 0.7716535433070866
          },
          {
            "number": 2,
            "time": 191.24136833333506,
            "value": 0.7716535433070866
          },
          {
            "number": 2,
            "time": 191.2430130666684,
            "value": 0.7637795275590551
          },
          {
            "number": 2,
            "time": 191.24465780000173,
            "value": 0.7637795275590551
          },
          {
            "number": 2,
            "time": 191.24630253333507,
            "value": 0.7559055118110236
          },
          {
            "number": 2,
            "time": 191.2479472666684,
            "value": 0.7559055118110236
          },
          {
            "number": 2,
            "time": 191.31538133333507,
            "value": 0.7559055118110236
          },
          {
            "number": 2,
            "time": 191.5785386666684,
            "value": 0.7559055118110236
          },
          {
            "number": 2,
            "time": 191.84169600000175,
            "value": 0
          },
          {
            "number": 2,
            "time": 191.84169600000175,
            "value": 1
          },
          {
            "number": 2,
            "time": 191.84334073333508,
            "value": 0
          },
          {
            "number": 2,
            "time": 191.84334073333508,
            "value": 1
          },
          {
            "number": 2,
            "time": 191.84498546666842,
            "value": 0
          },
          {
            "number": 2,
            "time": 191.84498546666842,
            "value": 1
          },
          {
            "number": 2,
            "time": 191.84663020000175,
            "value": 0
          },
          {
            "number": 2,
            "time": 191.84663020000175,
            "value": 1
          },
          {
            "number": 2,
            "time": 191.8482749333351,
            "value": 0
          },
          {
            "number": 2,
            "time": 191.8482749333351,
            "value": 1
          },
          {
            "number": 2,
            "time": 191.84991966666843,
            "value": 0
          },
          {
            "number": 2,
            "time": 191.84991966666843,
            "value": 1
          },
          {
            "number": 2,
            "time": 191.85156440000176,
            "value": 0
          },
          {
            "number": 2,
            "time": 191.85156440000176,
            "value": 1
          },
          {
            "number": 2,
            "time": 191.8532091333351,
            "value": 0
          },
          {
            "number": 2,
            "time": 191.8532091333351,
            "value": 1
          },
          {
            "number": 2,
            "time": 191.85485386666844,
            "value": 0
          },
          {
            "number": 2,
            "time": 191.85485386666844,
            "value": 1
          },
          {
            "number": 2,
            "time": 191.85649860000177,
            "value": 0
          },
          {
            "number": 2,
            "time": 191.85649860000177,
            "value": 1
          },
          {
            "number": 2,
            "time": 191.8581433333351,
            "value": 0
          },
          {
            "number": 2,
            "time": 191.8581433333351,
            "value": 1
          },
          {
            "number": 2,
            "time": 191.85978806666844,
            "value": 0
          },
          {
            "number": 2,
            "time": 191.85978806666844,
            "value": 1
          },
          {
            "number": 2,
            "time": 191.86143280000178,
            "value": 0
          },
          {
            "number": 2,
            "time": 191.86143280000178,
            "value": 1
          },
          {
            "number": 2,
            "time": 191.86307753333512,
            "value": 0
          },
          {
            "number": 2,
            "time": 191.86307753333512,
            "value": 1
          },
          {
            "number": 2,
            "time": 191.86472226666845,
            "value": 0
          },
          {
            "number": 2,
            "time": 191.86472226666845,
            "value": 1
          },
          {
            "number": 2,
            "time": 191.8663670000018,
            "value": 0
          },
          {
            "number": 2,
            "time": 191.8663670000018,
            "value": 1
          },
          {
            "number": 2,
            "time": 191.86801173333512,
            "value": 0
          },
          {
            "number": 2,
            "time": 191.86801173333512,
            "value": 1
          },
          {
            "number": 2,
            "time": 191.86965646666846,
            "value": 0
          },
          {
            "number": 2,
            "time": 191.86965646666846,
            "value": 1
          },
          {
            "number": 2,
            "time": 191.8713012000018,
            "value": 0
          },
          {
            "number": 2,
            "time": 191.8713012000018,
            "value": 1
          },
          {
            "number": 2,
            "time": 191.87294593333513,
            "value": 0
          },
          {
            "number": 2,
            "time": 191.87294593333513,
            "value": 1
          },
          {
            "number": 2,
            "time": 191.87459066666847,
            "value": 0
          },
          {
            "number": 2,
            "time": 191.87459066666847,
            "value": 1
          },
          {
            "number": 2,
            "time": 191.8762354000018,
            "value": 0
          },
          {
            "number": 2,
            "time": 191.8762354000018,
            "value": 1
          },
          {
            "number": 2,
            "time": 191.87788013333514,
            "value": 0
          },
          {
            "number": 2,
            "time": 191.87788013333514,
            "value": 1
          },
          {
            "number": 2,
            "time": 191.87952486666848,
            "value": 0
          },
          {
            "number": 2,
            "time": 191.87952486666848,
            "value": 1
          },
          {
            "number": 2,
            "time": 191.8811696000018,
            "value": 0
          },
          {
            "number": 2,
            "time": 191.8811696000018,
            "value": 1
          },
          {
            "number": 2,
            "time": 191.88281433333515,
            "value": 0
          },
          {
            "number": 2,
            "time": 191.88281433333515,
            "value": 1
          },
          {
            "number": 2,
            "time": 191.88445906666848,
            "value": 0
          },
          {
            "number": 2,
            "time": 191.88445906666848,
            "value": 1
          },
          {
            "number": 2,
            "time": 191.88610380000182,
            "value": 0
          },
          {
            "number": 2,
            "time": 191.88610380000182,
            "value": 1
          },
          {
            "number": 2,
            "time": 191.88774853333516,
            "value": 0
          },
          {
            "number": 2,
            "time": 191.88774853333516,
            "value": 1
          },
          {
            "number": 2,
            "time": 191.8893932666685,
            "value": 0
          },
          {
            "number": 2,
            "time": 191.8893932666685,
            "value": 1
          },
          {
            "number": 2,
            "time": 191.89103800000183,
            "value": 0
          },
          {
            "number": 2,
            "time": 191.89103800000183,
            "value": 1
          },
          {
            "number": 2,
            "time": 191.89268273333516,
            "value": 0
          },
          {
            "number": 2,
            "time": 191.89268273333516,
            "value": 1
          },
          {
            "number": 2,
            "time": 191.8943274666685,
            "value": 0
          },
          {
            "number": 2,
            "time": 191.8943274666685,
            "value": 1
          },
          {
            "number": 2,
            "time": 191.89597220000184,
            "value": 0
          },
          {
            "number": 2,
            "time": 191.89597220000184,
            "value": 1
          },
          {
            "number": 2,
            "time": 191.89761693333517,
            "value": 0
          },
          {
            "number": 2,
            "time": 191.89761693333517,
            "value": 1
          },
          {
            "number": 2,
            "time": 191.8992616666685,
            "value": 0
          },
          {
            "number": 2,
            "time": 191.8992616666685,
            "value": 1
          },
          {
            "number": 2,
            "time": 191.90090640000184,
            "value": 0
          },
          {
            "number": 2,
            "time": 191.90090640000184,
            "value": 1
          },
          {
            "number": 2,
            "time": 191.90255113333518,
            "value": 0
          },
          {
            "number": 2,
            "time": 191.90255113333518,
            "value": 1
          },
          {
            "number": 2,
            "time": 191.90419586666852,
            "value": 0
          },
          {
            "number": 2,
            "time": 191.90419586666852,
            "value": 1
          },
          {
            "number": 2,
            "time": 191.90584060000185,
            "value": 0
          },
          {
            "number": 2,
            "time": 191.90584060000185,
            "value": 1
          },
          {
            "number": 2,
            "time": 191.9074853333352,
            "value": 0
          },
          {
            "number": 2,
            "time": 191.9074853333352,
            "value": 1
          },
          {
            "number": 2,
            "time": 191.90913006666852,
            "value": 0
          },
          {
            "number": 2,
            "time": 191.90913006666852,
            "value": 1
          },
          {
            "number": 2,
            "time": 191.91077480000186,
            "value": 0
          },
          {
            "number": 2,
            "time": 191.91077480000186,
            "value": 1
          },
          {
            "number": 2,
            "time": 191.9124195333352,
            "value": 0
          },
          {
            "number": 2,
            "time": 191.9124195333352,
            "value": 0.9921259842519685
          },
          {
            "number": 2,
            "time": 191.91406426666853,
            "value": 0
          },
          {
            "number": 2,
            "time": 191.91406426666853,
            "value": 0.9921259842519685
          },
          {
            "number": 2,
            "time": 191.91570900000187,
            "value": 0
          },
          {
            "number": 2,
            "time": 191.91570900000187,
            "value": 0.9921259842519685
          },
          {
            "number": 2,
            "time": 191.9173537333352,
            "value": 0
          },
          {
            "number": 2,
            "time": 191.9173537333352,
            "value": 0.984251968503937
          },
          {
            "number": 2,
            "time": 191.91899846666854,
            "value": 0
          },
          {
            "number": 2,
            "time": 191.91899846666854,
            "value": 0.984251968503937
          },
          {
            "number": 2,
            "time": 191.92064320000188,
            "value": 0
          },
          {
            "number": 2,
            "time": 191.92064320000188,
            "value": 0.9763779527559056
          },
          {
            "number": 2,
            "time": 191.9222879333352,
            "value": 0
          },
          {
            "number": 2,
            "time": 191.9222879333352,
            "value": 0.9763779527559056
          },
          {
            "number": 2,
            "time": 191.92393266666855,
            "value": 0
          },
          {
            "number": 2,
            "time": 191.92393266666855,
            "value": 0.9763779527559056
          },
          {
            "number": 2,
            "time": 191.92557740000188,
            "value": 0
          },
          {
            "number": 2,
            "time": 191.92557740000188,
            "value": 0.968503937007874
          },
          {
            "number": 2,
            "time": 191.92722213333522,
            "value": 0
          },
          {
            "number": 2,
            "time": 191.92722213333522,
            "value": 0.968503937007874
          },
          {
            "number": 2,
            "time": 191.92886686666856,
            "value": 0
          },
          {
            "number": 2,
            "time": 191.92886686666856,
            "value": 0.9606299212598425
          },
          {
            "number": 2,
            "time": 191.9305116000019,
            "value": 0
          },
          {
            "number": 2,
            "time": 191.9305116000019,
            "value": 0.9606299212598425
          },
          {
            "number": 2,
            "time": 191.93215633333523,
            "value": 0
          },
          {
            "number": 2,
            "time": 191.93215633333523,
            "value": 0.9606299212598425
          },
          {
            "number": 2,
            "time": 191.93380106666856,
            "value": 0
          },
          {
            "number": 2,
            "time": 191.93380106666856,
            "value": 0.952755905511811
          },
          {
            "number": 2,
            "time": 191.9354458000019,
            "value": 0
          },
          {
            "number": 2,
            "time": 191.9354458000019,
            "value": 0.952755905511811
          },
          {
            "number": 2,
            "time": 191.93709053333524,
            "value": 0
          },
          {
            "number": 2,
            "time": 191.93709053333524,
            "value": 0.9448818897637795
          },
          {
            "number": 2,
            "time": 191.93873526666857,
            "value": 0
          },
          {
            "number": 2,
            "time": 191.93873526666857,
            "value": 0.9448818897637795
          },
          {
            "number": 2,
            "time": 191.9403800000019,
            "value": 0
          },
          {
            "number": 2,
            "time": 191.9403800000019,
            "value": 0.9448818897637795
          },
          {
            "number": 2,
            "time": 191.94202473333524,
            "value": 0
          },
          {
            "number": 2,
            "time": 191.94202473333524,
            "value": 0.937007874015748
          },
          {
            "number": 2,
            "time": 191.94366946666858,
            "value": 0
          },
          {
            "number": 2,
            "time": 191.94366946666858,
            "value": 0.937007874015748
          },
          {
            "number": 2,
            "time": 191.94531420000192,
            "value": 0
          },
          {
            "number": 2,
            "time": 191.94531420000192,
            "value": 0.9291338582677166
          },
          {
            "number": 2,
            "time": 191.94695893333525,
            "value": 0
          },
          {
            "number": 2,
            "time": 191.94695893333525,
            "value": 0.9291338582677166
          },
          {
            "number": 2,
            "time": 191.9486036666686,
            "value": 0
          },
          {
            "number": 2,
            "time": 191.9486036666686,
            "value": 0.9291338582677166
          },
          {
            "number": 2,
            "time": 191.95024840000193,
            "value": 0
          },
          {
            "number": 2,
            "time": 191.95024840000193,
            "value": 0.9212598425196851
          },
          {
            "number": 2,
            "time": 191.95189313333526,
            "value": 0
          },
          {
            "number": 2,
            "time": 191.95189313333526,
            "value": 0.9212598425196851
          },
          {
            "number": 2,
            "time": 191.9535378666686,
            "value": 0
          },
          {
            "number": 2,
            "time": 191.9535378666686,
            "value": 0.9133858267716536
          },
          {
            "number": 2,
            "time": 191.95518260000193,
            "value": 0
          },
          {
            "number": 2,
            "time": 191.95518260000193,
            "value": 0.9133858267716536
          },
          {
            "number": 2,
            "time": 191.95682733333527,
            "value": 0
          },
          {
            "number": 2,
            "time": 191.95682733333527,
            "value": 0.9133858267716536
          },
          {
            "number": 2,
            "time": 191.9584720666686,
            "value": 0
          },
          {
            "number": 2,
            "time": 191.9584720666686,
            "value": 0.905511811023622
          },
          {
            "number": 2,
            "time": 191.96011680000194,
            "value": 0
          },
          {
            "number": 2,
            "time": 191.96011680000194,
            "value": 0.905511811023622
          },
          {
            "number": 2,
            "time": 191.96176153333528,
            "value": 0
          },
          {
            "number": 2,
            "time": 191.96176153333528,
            "value": 0.8976377952755905
          },
          {
            "number": 2,
            "time": 191.9634062666686,
            "value": 0
          },
          {
            "number": 2,
            "time": 191.9634062666686,
            "value": 0.8976377952755905
          },
          {
            "number": 2,
            "time": 191.96505100000195,
            "value": 0
          },
          {
            "number": 2,
            "time": 191.96505100000195,
            "value": 0.8976377952755905
          },
          {
            "number": 2,
            "time": 191.96669573333529,
            "value": 0
          },
          {
            "number": 2,
            "time": 191.96669573333529,
            "value": 0.889763779527559
          },
          {
            "number": 2,
            "time": 191.96834046666862,
            "value": 0
          },
          {
            "number": 2,
            "time": 191.96834046666862,
            "value": 0.889763779527559
          },
          {
            "number": 2,
            "time": 191.96998520000196,
            "value": 0
          },
          {
            "number": 2,
            "time": 191.96998520000196,
            "value": 0.8818897637795275
          },
          {
            "number": 2,
            "time": 191.9716299333353,
            "value": 0
          },
          {
            "number": 2,
            "time": 191.9716299333353,
            "value": 0.8818897637795275
          },
          {
            "number": 2,
            "time": 191.97327466666863,
            "value": 0
          },
          {
            "number": 2,
            "time": 191.97327466666863,
            "value": 0.8818897637795275
          },
          {
            "number": 2,
            "time": 191.97491940000197,
            "value": 0.8740157480314961
          },
          {
            "number": 2,
            "time": 191.9765641333353,
            "value": 0.8740157480314961
          },
          {
            "number": 2,
            "time": 191.97820886666864,
            "value": 0.8661417322834646
          },
          {
            "number": 2,
            "time": 191.97985360000197,
            "value": 0.8661417322834646
          },
          {
            "number": 2,
            "time": 191.9814983333353,
            "value": 0.8661417322834646
          },
          {
            "number": 2,
            "time": 191.98314306666865,
            "value": 0.8582677165354331
          },
          {
            "number": 2,
            "time": 191.98478780000198,
            "value": 0.8582677165354331
          },
          {
            "number": 2,
            "time": 191.98643253333532,
            "value": 0.8503937007874016
          },
          {
            "number": 2,
            "time": 191.98807726666865,
            "value": 0.8503937007874016
          },
          {
            "number": 2,
            "time": 191.989722000002,
            "value": 0.8503937007874016
          },
          {
            "number": 2,
            "time": 191.99136673333533,
            "value": 0.84251968503937
          },
          {
            "number": 2,
            "time": 191.99301146666866,
            "value": 0.84251968503937
          },
          {
            "number": 2,
            "time": 191.994656200002,
            "value": 0.8346456692913385
          },
          {
            "number": 2,
            "time": 191.99630093333533,
            "value": 0.8346456692913385
          },
          {
            "number": 2,
            "time": 191.99794566666867,
            "value": 0.8346456692913385
          },
          {
            "number": 2,
            "time": 191.999590400002,
            "value": 0.8267716535433071
          },
          {
            "number": 2,
            "time": 192.00123513333534,
            "value": 0.8267716535433071
          },
          {
            "number": 2,
            "time": 192.00287986666868,
            "value": 0.8188976377952756
          },
          {
            "number": 2,
            "time": 192.00452460000201,
            "value": 0.8188976377952756
          },
          {
            "number": 2,
            "time": 192.00616933333535,
            "value": 0.8188976377952756
          },
          {
            "number": 2,
            "time": 192.0078140666687,
            "value": 0.8110236220472441
          },
          {
            "number": 2,
            "time": 192.00945880000202,
            "value": 0.8110236220472441
          },
          {
            "number": 2,
            "time": 192.01110353333536,
            "value": 0.8031496062992126
          },
          {
            "number": 2,
            "time": 192.0127482666687,
            "value": 0.8031496062992126
          },
          {
            "number": 2,
            "time": 192.01439300000203,
            "value": 0.8031496062992126
          },
          {
            "number": 2,
            "time": 192.01603773333537,
            "value": 0.7952755905511811
          },
          {
            "number": 2,
            "time": 192.0176824666687,
            "value": 0.7952755905511811
          },
          {
            "number": 2,
            "time": 192.01932720000204,
            "value": 0.7874015748031497
          },
          {
            "number": 2,
            "time": 192.02097193333537,
            "value": 0.7874015748031497
          },
          {
            "number": 2,
            "time": 192.0226166666687,
            "value": 0.7874015748031497
          },
          {
            "number": 2,
            "time": 192.02426140000205,
            "value": 0.7795275590551181
          },
          {
            "number": 2,
            "time": 192.02590613333538,
            "value": 0.7795275590551181
          },
          {
            "number": 2,
            "time": 192.02755086666872,
            "value": 0.7716535433070866
          },
          {
            "number": 2,
            "time": 192.02919560000205,
            "value": 0.7716535433070866
          },
          {
            "number": 2,
            "time": 192.0308403333354,
            "value": 0.7716535433070866
          },
          {
            "number": 2,
            "time": 192.03248506666873,
            "value": 0.7637795275590551
          },
          {
            "number": 2,
            "time": 192.03412980000206,
            "value": 0.7637795275590551
          },
          {
            "number": 2,
            "time": 192.0357745333354,
            "value": 0.7559055118110236
          },
          {
            "number": 2,
            "time": 192.03741926666873,
            "value": 0.7559055118110236
          },
          {
            "number": 2,
            "time": 192.1048533333354,
            "value": 0.7559055118110236
          },
          {
            "number": 2,
            "time": 192.36801066666874,
            "value": 0.7559055118110236
          },
          {
            "number": 2,
            "time": 194.99958400000207,
            "value": 0.5039370078740157
          },
          {
            "number": 2,
            "time": 197.36800000000207,
            "value": 0.5039370078740157
          },
          {
            "number": 2,
            "time": 198.15747200000206,
            "value": 0.5039370078740157
          },
          {
            "number": 2,
            "time": 198.94694400000205,
            "value": 0.5039370078740157
          },
          {
            "number": 2,
            "time": 199.73641600000204,
            "value": 0.5039370078740157
          },
          {
            "number": 2,
            "time": 200.52588800000203,
            "value": 0.5039370078740157
          },
          {
            "number": 2,
            "time": 202.10483200000203,
            "value": 0.5039370078740157
          },
          {
            "number": 2,
            "time": 203.68377600000204,
            "value": 0.5039370078740157
          },
          {
            "number": 2,
            "time": 204.47324800000203,
            "value": 0.5039370078740157
          },
          {
            "number": 2,
            "time": 205.26272000000202,
            "value": 0.5039370078740157
          },
          {
            "number": 2,
            "time": 206.052192000002,
            "value": 0.5039370078740157
          },
          {
            "number": 2,
            "time": 206.841664000002,
            "value": 0.5039370078740157
          },
          {
            "number": 2,
            "time": 208.420608000002,
            "value": 0.5039370078740157
          },
          {
            "number": 2,
            "time": 209.999552000002,
            "value": 0.5039370078740157
          },
          {
            "number": 2,
            "time": 210.789024000002,
            "value": 0.5039370078740157
          },
          {
            "number": 2,
            "time": 211.578496000002,
            "value": 0.5039370078740157
          },
          {
            "number": 2,
            "time": 212.36796800000198,
            "value": 0.5039370078740157
          },
          {
            "number": 2,
            "time": 213.15744000000197,
            "value": 0.5039370078740157
          },
          {
            "number": 2,
            "time": 214.73638400000198,
            "value": 0.5039370078740157
          },
          {
            "number": 2,
            "time": 216.31532800000198,
            "value": 0.5039370078740157
          },
          {
            "number": 2,
            "time": 216.389341000002,
            "value": 0.5118110236220472
          },
          {
            "number": 2,
            "time": 216.463354000002,
            "value": 0.5196850393700787
          },
          {
            "number": 2,
            "time": 216.537367000002,
            "value": 0.5275590551181102
          },
          {
            "number": 2,
            "time": 216.61138000000201,
            "value": 0.5354330708661418
          },
          {
            "number": 2,
            "time": 216.68539300000202,
            "value": 0.5433070866141733
          },
          {
            "number": 2,
            "time": 216.75940600000203,
            "value": 0.5511811023622047
          },
          {
            "number": 2,
            "time": 216.83341900000204,
            "value": 0.5590551181102362
          },
          {
            "number": 2,
            "time": 216.90743200000205,
            "value": 0.5669291338582677
          },
          {
            "number": 2,
            "time": 216.98144500000205,
            "value": 0.5748031496062992
          },
          {
            "number": 2,
            "time": 217.05545800000206,
            "value": 0.5826771653543307
          },
          {
            "number": 2,
            "time": 217.10480000000206,
            "value": 0.5826771653543307
          },
          {
            "number": 2,
            "time": 217.12947100000207,
            "value": 0.5905511811023622
          },
          {
            "number": 2,
            "time": 217.20348400000208,
            "value": 0.5984251968503937
          },
          {
            "number": 2,
            "time": 217.27749700000209,
            "value": 0.6062992125984252
          },
          {
            "number": 2,
            "time": 217.3515100000021,
            "value": 0.6141732283464567
          },
          {
            "number": 2,
            "time": 217.4255230000021,
            "value": 0.6220472440944882
          },
          {
            "number": 2,
            "time": 217.4995360000021,
            "value": 0.6299212598425197
          },
          {
            "number": 2,
            "time": 217.57354900000212,
            "value": 0.6377952755905512
          },
          {
            "number": 2,
            "time": 217.64756200000213,
            "value": 0.6456692913385826
          },
          {
            "number": 2,
            "time": 217.72157500000213,
            "value": 0.6535433070866141
          },
          {
            "number": 2,
            "time": 217.79558800000214,
            "value": 0.6614173228346457
          },
          {
            "number": 2,
            "time": 217.86960100000215,
            "value": 0.6692913385826772
          },
          {
            "number": 2,
            "time": 217.89427200000216,
            "value": 0.6692913385826772
          },
          {
            "number": 2,
            "time": 217.94361400000216,
            "value": 0.6771653543307087
          },
          {
            "number": 2,
            "time": 218.01762700000216,
            "value": 0.6850393700787402
          },
          {
            "number": 2,
            "time": 218.09164000000217,
            "value": 0.6929133858267716
          },
          {
            "number": 2,
            "time": 218.16565300000218,
            "value": 0.7007874015748031
          },
          {
            "number": 2,
            "time": 218.2396660000022,
            "value": 0.7086614173228346
          },
          {
            "number": 2,
            "time": 218.3136790000022,
            "value": 0.7165354330708661
          },
          {
            "number": 2,
            "time": 218.3876920000022,
            "value": 0.7244094488188977
          },
          {
            "number": 2,
            "time": 218.4617050000022,
            "value": 0.7322834645669292
          },
          {
            "number": 2,
            "time": 218.53571800000222,
            "value": 0.7401574803149606
          },
          {
            "number": 2,
            "time": 218.60973100000223,
            "value": 0.7480314960629921
          },
          {
            "number": 2,
            "time": 218.68374400000224,
            "value": 0.7559055118110236
          },
          {
            "number": 2,
            "time": 219.47321600000222,
            "value": 0.7559055118110236
          },
          {
            "number": 2,
            "time": 220.65742400000224,
            "value": 0.7559055118110236
          },
          {
            "number": 2,
            "time": 221.05216000000223,
            "value": 0.7559055118110236
          },
          {
            "number": 2,
            "time": 222.23636800000224,
            "value": 0.7559055118110236
          },
          {
            "number": 2,
            "time": 222.63110400000224,
            "value": 0.7559055118110236
          },
          {
            "number": 2,
            "time": 223.42057600000223,
            "value": 0.7559055118110236
          },
          {
            "number": 2,
            "time": 223.81531200000222,
            "value": 0.7559055118110236
          },
          {
            "number": 2,
            "time": 224.21004800000222,
            "value": 0.7559055118110236
          },
          {
            "number": 2,
            "time": 226.18372800000222,
            "value": 0.7559055118110236
          },
          {
            "number": 2,
            "time": 226.5784640000022,
            "value": 0.7559055118110236
          },
          {
            "number": 2,
            "time": 226.9732000000022,
            "value": 0.7559055118110236
          },
          {
            "number": 2,
            "time": 227.3679360000022,
            "value": 0.7559055118110236
          },
          {
            "number": 2,
            "time": 228.1574080000022,
            "value": 0.7559055118110236
          },
          {
            "number": 2,
            "time": 228.94688000000218,
            "value": 0.7559055118110236
          },
          {
            "number": 2,
            "time": 229.73635200000217,
            "value": 0.7559055118110236
          },
          {
            "number": 2,
            "time": 230.52582400000216,
            "value": 0.7559055118110236
          },
          {
            "number": 2,
            "time": 232.10476800000217,
            "value": 0.7559055118110236
          },
          {
            "number": 2,
            "time": 233.28897600000218,
            "value": 0.7559055118110236
          },
          {
            "number": 2,
            "time": 233.68371200000217,
            "value": 0.7559055118110236
          },
          {
            "number": 2,
            "time": 234.8679200000022,
            "value": 0.7559055118110236
          },
          {
            "number": 2,
            "time": 236.8416000000022,
            "value": 1
          },
          {
            "number": 2,
            "time": 236.84324473333552,
            "value": 1
          },
          {
            "number": 2,
            "time": 236.84488946666886,
            "value": 1
          },
          {
            "number": 2,
            "time": 236.8465342000022,
            "value": 1
          },
          {
            "number": 2,
            "time": 236.84817893333553,
            "value": 1
          },
          {
            "number": 2,
            "time": 236.84982366666887,
            "value": 1
          },
          {
            "number": 2,
            "time": 236.8514684000022,
            "value": 1
          },
          {
            "number": 2,
            "time": 236.85311313333554,
            "value": 1
          },
          {
            "number": 2,
            "time": 236.85475786666888,
            "value": 1
          },
          {
            "number": 2,
            "time": 236.8564026000022,
            "value": 1
          },
          {
            "number": 2,
            "time": 236.85804733333555,
            "value": 1
          },
          {
            "number": 2,
            "time": 236.85969206666888,
            "value": 1
          },
          {
            "number": 2,
            "time": 236.86133680000222,
            "value": 1
          },
          {
            "number": 2,
            "time": 236.86298153333556,
            "value": 1
          },
          {
            "number": 2,
            "time": 236.8646262666689,
            "value": 1
          },
          {
            "number": 2,
            "time": 236.86627100000223,
            "value": 1
          },
          {
            "number": 2,
            "time": 236.86791573333556,
            "value": 1
          },
          {
            "number": 2,
            "time": 236.8695604666689,
            "value": 1
          },
          {
            "number": 2,
            "time": 236.87120520000224,
            "value": 1
          },
          {
            "number": 2,
            "time": 236.87284993333557,
            "value": 1
          },
          {
            "number": 2,
            "time": 236.8744946666689,
            "value": 1
          },
          {
            "number": 2,
            "time": 236.87613940000224,
            "value": 1
          },
          {
            "number": 2,
            "time": 236.87778413333558,
            "value": 1
          },
          {
            "number": 2,
            "time": 236.87942886666892,
            "value": 1
          },
          {
            "number": 2,
            "time": 236.88107360000225,
            "value": 1
          },
          {
            "number": 2,
            "time": 236.8827183333356,
            "value": 1
          },
          {
            "number": 2,
            "time": 236.88436306666893,
            "value": 1
          },
          {
            "number": 2,
            "time": 236.88600780000226,
            "value": 1
          },
          {
            "number": 2,
            "time": 236.8876525333356,
            "value": 1
          },
          {
            "number": 2,
            "time": 236.88929726666893,
            "value": 1
          },
          {
            "number": 2,
            "time": 236.89094200000227,
            "value": 1
          },
          {
            "number": 2,
            "time": 236.8925867333356,
            "value": 1
          },
          {
            "number": 2,
            "time": 236.89423146666894,
            "value": 1
          },
          {
            "number": 2,
            "time": 236.89587620000228,
            "value": 1
          },
          {
            "number": 2,
            "time": 236.8975209333356,
            "value": 1
          },
          {
            "number": 2,
            "time": 236.89916566666895,
            "value": 1
          },
          {
            "number": 2,
            "time": 236.90081040000229,
            "value": 1
          },
          {
            "number": 2,
            "time": 236.90245513333562,
            "value": 1
          },
          {
            "number": 2,
            "time": 236.90409986666896,
            "value": 1
          },
          {
            "number": 2,
            "time": 236.9057446000023,
            "value": 1
          },
          {
            "number": 2,
            "time": 236.90738933333563,
            "value": 1
          },
          {
            "number": 2,
            "time": 236.90903406666897,
            "value": 1
          },
          {
            "number": 2,
            "time": 236.9106788000023,
            "value": 1
          },
          {
            "number": 2,
            "time": 236.91232353333564,
            "value": 0.9921259842519685
          },
          {
            "number": 2,
            "time": 236.91396826666897,
            "value": 0.9921259842519685
          },
          {
            "number": 2,
            "time": 236.9156130000023,
            "value": 0.9921259842519685
          },
          {
            "number": 2,
            "time": 236.91725773333565,
            "value": 0.984251968503937
          },
          {
            "number": 2,
            "time": 236.91890246666898,
            "value": 0.984251968503937
          },
          {
            "number": 2,
            "time": 236.92054720000232,
            "value": 0.9763779527559056
          },
          {
            "number": 2,
            "time": 236.92219193333565,
            "value": 0.9763779527559056
          },
          {
            "number": 2,
            "time": 236.923836666669,
            "value": 0.9763779527559056
          },
          {
            "number": 2,
            "time": 236.92548140000233,
            "value": 0.968503937007874
          },
          {
            "number": 2,
            "time": 236.92712613333566,
            "value": 0.968503937007874
          },
          {
            "number": 2,
            "time": 236.928770866669,
            "value": 0.9606299212598425
          },
          {
            "number": 2,
            "time": 236.93041560000233,
            "value": 0.9606299212598425
          },
          {
            "number": 2,
            "time": 236.93206033333567,
            "value": 0.9606299212598425
          },
          {
            "number": 2,
            "time": 236.933705066669,
            "value": 0.952755905511811
          },
          {
            "number": 2,
            "time": 236.93534980000234,
            "value": 0.952755905511811
          },
          {
            "number": 2,
            "time": 236.93699453333568,
            "value": 0.9448818897637795
          },
          {
            "number": 2,
            "time": 236.938639266669,
            "value": 0.9448818897637795
          },
          {
            "number": 2,
            "time": 236.94028400000235,
            "value": 0.9448818897637795
          },
          {
            "number": 2,
            "time": 236.9419287333357,
            "value": 0.937007874015748
          },
          {
            "number": 2,
            "time": 236.94357346666902,
            "value": 0.937007874015748
          },
          {
            "number": 2,
            "time": 236.94521820000236,
            "value": 0.9291338582677166
          },
          {
            "number": 2,
            "time": 236.9468629333357,
            "value": 0.9291338582677166
          },
          {
            "number": 2,
            "time": 236.94850766666903,
            "value": 0.9291338582677166
          },
          {
            "number": 2,
            "time": 236.95015240000237,
            "value": 0.9212598425196851
          },
          {
            "number": 2,
            "time": 236.9517971333357,
            "value": 0.9212598425196851
          },
          {
            "number": 2,
            "time": 236.95344186666904,
            "value": 0.9133858267716536
          },
          {
            "number": 2,
            "time": 236.95508660000237,
            "value": 0.9133858267716536
          },
          {
            "number": 2,
            "time": 236.9567313333357,
            "value": 0.9133858267716536
          },
          {
            "number": 2,
            "time": 236.95837606666905,
            "value": 0.905511811023622
          },
          {
            "number": 2,
            "time": 236.96002080000238,
            "value": 0.905511811023622
          },
          {
            "number": 2,
            "time": 236.96166553333572,
            "value": 0.8976377952755905
          },
          {
            "number": 2,
            "time": 236.96331026666905,
            "value": 0.8976377952755905
          },
          {
            "number": 2,
            "time": 236.9649550000024,
            "value": 0.8976377952755905
          },
          {
            "number": 2,
            "time": 236.96659973333573,
            "value": 0.889763779527559
          },
          {
            "number": 2,
            "time": 236.96824446666906,
            "value": 0.889763779527559
          },
          {
            "number": 2,
            "time": 236.9698892000024,
            "value": 0.8818897637795275
          },
          {
            "number": 2,
            "time": 236.97153393333573,
            "value": 0.8818897637795275
          },
          {
            "number": 2,
            "time": 236.97317866666907,
            "value": 0.8818897637795275
          },
          {
            "number": 2,
            "time": 236.9748234000024,
            "value": 0.8740157480314961
          },
          {
            "number": 2,
            "time": 236.97646813333574,
            "value": 0.8740157480314961
          },
          {
            "number": 2,
            "time": 236.97811286666908,
            "value": 0.8661417322834646
          },
          {
            "number": 2,
            "time": 236.97975760000242,
            "value": 0.8661417322834646
          },
          {
            "number": 2,
            "time": 236.98140233333575,
            "value": 0.8661417322834646
          },
          {
            "number": 2,
            "time": 236.9830470666691,
            "value": 0.8582677165354331
          },
          {
            "number": 2,
            "time": 236.98469180000242,
            "value": 0.8582677165354331
          },
          {
            "number": 2,
            "time": 236.98633653333576,
            "value": 0.8503937007874016
          },
          {
            "number": 2,
            "time": 236.9879812666691,
            "value": 0.8503937007874016
          },
          {
            "number": 2,
            "time": 236.98962600000243,
            "value": 0.8503937007874016
          },
          {
            "number": 2,
            "time": 236.99127073333577,
            "value": 0.84251968503937
          },
          {
            "number": 2,
            "time": 236.9929154666691,
            "value": 0.84251968503937
          },
          {
            "number": 2,
            "time": 236.99456020000244,
            "value": 0.8346456692913385
          },
          {
            "number": 2,
            "time": 236.99620493333578,
            "value": 0.8346456692913385
          },
          {
            "number": 2,
            "time": 236.9978496666691,
            "value": 0.8346456692913385
          },
          {
            "number": 2,
            "time": 236.99949440000245,
            "value": 0.8267716535433071
          },
          {
            "number": 2,
            "time": 237.00113913333578,
            "value": 0.8267716535433071
          },
          {
            "number": 2,
            "time": 237.00278386666912,
            "value": 0.8188976377952756
          },
          {
            "number": 2,
            "time": 237.00442860000246,
            "value": 0.8188976377952756
          },
          {
            "number": 2,
            "time": 237.0060733333358,
            "value": 0.8188976377952756
          },
          {
            "number": 2,
            "time": 237.00771806666913,
            "value": 0.8110236220472441
          },
          {
            "number": 2,
            "time": 237.00936280000246,
            "value": 0.8110236220472441
          },
          {
            "number": 2,
            "time": 237.0110075333358,
            "value": 0.8031496062992126
          },
          {
            "number": 2,
            "time": 237.01265226666914,
            "value": 0.8031496062992126
          },
          {
            "number": 2,
            "time": 237.01429700000247,
            "value": 0.8031496062992126
          },
          {
            "number": 2,
            "time": 237.0159417333358,
            "value": 0.7952755905511811
          },
          {
            "number": 2,
            "time": 237.01758646666914,
            "value": 0.7952755905511811
          },
          {
            "number": 2,
            "time": 237.01923120000248,
            "value": 0.7874015748031497
          },
          {
            "number": 2,
            "time": 237.02087593333582,
            "value": 0.7874015748031497
          },
          {
            "number": 2,
            "time": 237.02252066666915,
            "value": 0.7874015748031497
          },
          {
            "number": 2,
            "time": 237.0241654000025,
            "value": 0.7795275590551181
          },
          {
            "number": 2,
            "time": 237.02581013333582,
            "value": 0.7795275590551181
          },
          {
            "number": 2,
            "time": 237.02745486666916,
            "value": 0.7716535433070866
          },
          {
            "number": 2,
            "time": 237.0290996000025,
            "value": 0.7716535433070866
          },
          {
            "number": 2,
            "time": 237.03074433333583,
            "value": 0.7716535433070866
          },
          {
            "number": 2,
            "time": 237.03238906666917,
            "value": 0.7637795275590551
          },
          {
            "number": 2,
            "time": 237.0340338000025,
            "value": 0.7637795275590551
          },
          {
            "number": 2,
            "time": 237.03567853333584,
            "value": 0.7559055118110236
          },
          {
            "number": 2,
            "time": 237.03732326666918,
            "value": 0.7559055118110236
          }
        ],
        "7": [
          {
            "number": 7,
            "time": 0,
            "value": 0.7874015748031497
          }
        ],
        "10": [
          {
            "number": 10,
            "time": 0,
            "value": 0.49606299212598426
          }
        ],
        "91": [
          {
            "number": 91,
            "time": 0,
            "value": 0
          }
        ],
        "93": [
          {
            "number": 93,
            "time": 0,
            "value": 0
          }
        ],
        "121": [
          {
            "number": 121,
            "time": 0,
            "value": 0
          }
        ]
      },
      "id": 1,
      "name": "Violin 2",
      "instrumentNumber": 0,
      "instrument": "acoustic grand piano",
      "instrumentFamily": "piano",
      "channelNumber": 3,
      "isPercussion": false
    },
    {
      "startTime": 3.157888,
      "duration": 237.6294272666758,
      "length": 357,
      "notes": [
        {
          "name": "A5",
          "midi": 81,
          "time": 3.157888,
          "velocity": 0.3858267716535433,
          "duration": 0.7878272666666666
        },
        {
          "name": "C5",
          "midi": 72,
          "time": 3.9473599999999998,
          "velocity": 0.3858267716535433,
          "duration": 1.1825632666666666
        },
        {
          "name": "C5",
          "midi": 72,
          "time": 5.131568,
          "velocity": 0.3858267716535433,
          "duration": 0.3930912666666666
        },
        {
          "name": "D5",
          "midi": 74,
          "time": 5.526304,
          "velocity": 0.3858267716535433,
          "duration": 0.3930912666666666
        },
        {
          "name": "E5",
          "midi": 76,
          "time": 5.92104,
          "velocity": 0.3858267716535433,
          "duration": 0.3930912666666666
        },
        {
          "name": "A4",
          "midi": 69,
          "time": 6.315776,
          "velocity": 0.5039370078740157,
          "duration": 0.7878272666666666
        },
        {
          "name": "D4",
          "midi": 62,
          "time": 7.105248,
          "velocity": 0.5039370078740157,
          "duration": 1.5772992666666674
        },
        {
          "name": "F4",
          "midi": 65,
          "time": 8.684192,
          "velocity": 0.5039370078740157,
          "duration": 0.7878272666666675
        },
        {
          "name": "E4",
          "midi": 64,
          "time": 9.8684,
          "velocity": 0.5039370078740157,
          "duration": 0.3930912666666675
        },
        {
          "name": "C5",
          "midi": 72,
          "time": 10.263136,
          "velocity": 0.5039370078740157,
          "duration": 0.7878272666666675
        },
        {
          "name": "E4",
          "midi": 64,
          "time": 11.447344,
          "velocity": 0.5039370078740157,
          "duration": 0.3930912666666675
        },
        {
          "name": "C5",
          "midi": 72,
          "time": 11.84208,
          "velocity": 0.5039370078740157,
          "duration": 0.7878272666666675
        },
        {
          "name": "E4",
          "midi": 64,
          "time": 13.026288,
          "velocity": 0.5039370078740157,
          "duration": 0.7878272666666657
        },
        {
          "name": "C4",
          "midi": 60,
          "time": 13.815759999999997,
          "velocity": 0.5039370078740157,
          "duration": 0.7878272666666675
        },
        {
          "name": "G4",
          "midi": 67,
          "time": 14.605231999999997,
          "velocity": 0.5039370078740157,
          "duration": 0.3930912666666675
        },
        {
          "name": "E4",
          "midi": 64,
          "time": 14.999967999999997,
          "velocity": 0.5039370078740157,
          "duration": 0.7878272666666657
        },
        {
          "name": "C4",
          "midi": 60,
          "time": 16.184175999999997,
          "velocity": 0.5039370078740157,
          "duration": 0.3930912666666657
        },
        {
          "name": "F4",
          "midi": 65,
          "time": 16.578911999999995,
          "velocity": 0.5039370078740157,
          "duration": 0.7878272666666675
        },
        {
          "name": "B3",
          "midi": 59,
          "time": 17.763119999999997,
          "velocity": 0.5039370078740157,
          "duration": 0.3930912666666657
        },
        {
          "name": "D4",
          "midi": 62,
          "time": 18.157855999999995,
          "velocity": 0.5039370078740157,
          "duration": 0.3930912666666657
        },
        {
          "name": "F3",
          "midi": 53,
          "time": 18.552591999999994,
          "velocity": 0.5039370078740157,
          "duration": 0.3930912666666657
        },
        {
          "name": "G#3",
          "midi": 56,
          "time": 18.94732799999999,
          "velocity": 0.5039370078740157,
          "duration": 0.3930912666666657
        },
        {
          "name": "A3",
          "midi": 57,
          "time": 19.34206399999999,
          "velocity": 0.5039370078740157,
          "duration": 0.3930912666666657
        },
        {
          "name": "B3",
          "midi": 59,
          "time": 19.736799999999988,
          "velocity": 0.5039370078740157,
          "duration": 0.3930912666666657
        },
        {
          "name": "A3",
          "midi": 57,
          "time": 20.131535999999986,
          "velocity": 0.5039370078740157,
          "duration": 0.3930912666666657
        },
        {
          "name": "C4",
          "midi": 60,
          "time": 20.526271999999985,
          "velocity": 0.5039370078740157,
          "duration": 0.3930912666666657
        },
        {
          "name": "B3",
          "midi": 59,
          "time": 20.921007999999983,
          "velocity": 0.5039370078740157,
          "duration": 0.3930912666666657
        },
        {
          "name": "A3",
          "midi": 57,
          "time": 21.31574399999998,
          "velocity": 0.5039370078740157,
          "duration": 0.3930912666666657
        },
        {
          "name": "G#3",
          "midi": 56,
          "time": 21.71047999999998,
          "velocity": 0.5039370078740157,
          "duration": 0.3930912666666657
        },
        {
          "name": "C4",
          "midi": 60,
          "time": 22.49995199999998,
          "velocity": 0.5039370078740157,
          "duration": 0.3930912666666657
        },
        {
          "name": "F4",
          "midi": 65,
          "time": 22.894687999999977,
          "velocity": 0.5039370078740157,
          "duration": 0.7878272666666675
        },
        {
          "name": "B3",
          "midi": 59,
          "time": 24.07889599999998,
          "velocity": 0.5039370078740157,
          "duration": 0.3930912666666657
        },
        {
          "name": "D4",
          "midi": 62,
          "time": 24.473631999999977,
          "velocity": 0.5039370078740157,
          "duration": 0.7878272666666675
        },
        {
          "name": "D4",
          "midi": 62,
          "time": 25.65783999999998,
          "velocity": 0.5039370078740157,
          "duration": 0.3930912666666657
        },
        {
          "name": "G4",
          "midi": 67,
          "time": 26.052575999999977,
          "velocity": 0.5039370078740157,
          "duration": 0.3930912666666657
        },
        {
          "name": "G4",
          "midi": 67,
          "time": 26.447311999999975,
          "velocity": 0.5039370078740157,
          "duration": 0.7878272666666675
        },
        {
          "name": "E4",
          "midi": 64,
          "time": 27.236783999999975,
          "velocity": 0.5039370078740157,
          "duration": 0.3930912666666657
        },
        {
          "name": "A4",
          "midi": 69,
          "time": 27.631519999999973,
          "velocity": 0.5039370078740157,
          "duration": 0.7878272666666675
        },
        {
          "name": "C5",
          "midi": 72,
          "time": 28.420991999999973,
          "velocity": 0.5039370078740157,
          "duration": 0.39309126666666927
        },
        {
          "name": "A4",
          "midi": 69,
          "time": 28.815727999999975,
          "velocity": 0.5196850393700787,
          "duration": 0.39309126666666927
        },
        {
          "name": "F4",
          "midi": 65,
          "time": 29.210463999999977,
          "velocity": 0.5433070866141733,
          "duration": 0.3930912666666657
        },
        {
          "name": "C4",
          "midi": 60,
          "time": 29.605199999999975,
          "velocity": 0.5669291338582677,
          "duration": 0.39309126666666927
        },
        {
          "name": "B3",
          "midi": 59,
          "time": 29.999935999999977,
          "velocity": 0.5826771653543307,
          "duration": 0.39309126666666927
        },
        {
          "name": "E4",
          "midi": 64,
          "time": 30.39467199999998,
          "velocity": 0.6062992125984252,
          "duration": 0.3930912666666657
        },
        {
          "name": "D4",
          "midi": 62,
          "time": 30.789407999999977,
          "velocity": 0.6299212598425197,
          "duration": 0.7878272666666675
        },
        {
          "name": "F#4",
          "midi": 66,
          "time": 31.578879999999977,
          "velocity": 0.6299212598425197,
          "duration": 0.0953945333333337
        },
        {
          "name": "F#4",
          "midi": 66,
          "time": 31.675919266666643,
          "velocity": 0.6299212598425197,
          "duration": 0.0953945333333337
        },
        {
          "name": "F#4",
          "midi": 66,
          "time": 31.77460326666664,
          "velocity": 0.6299212598425197,
          "duration": 0.0953945333333337
        },
        {
          "name": "F#4",
          "midi": 66,
          "time": 31.871642533333308,
          "velocity": 0.6299212598425197,
          "duration": 0.0953945333333337
        },
        {
          "name": "F#4",
          "midi": 66,
          "time": 31.970326533333306,
          "velocity": 0.6299212598425197,
          "duration": 0.0953945333333337
        },
        {
          "name": "F#4",
          "midi": 66,
          "time": 32.067365799999976,
          "velocity": 0.6299212598425197,
          "duration": 0.0953945333333337
        },
        {
          "name": "F#4",
          "midi": 66,
          "time": 32.166049799999975,
          "velocity": 0.6299212598425197,
          "duration": 0.0953945333333337
        },
        {
          "name": "F#4",
          "midi": 66,
          "time": 32.263089066666645,
          "velocity": 0.6299212598425197,
          "duration": 0.0953945333333337
        },
        {
          "name": "F#4",
          "midi": 66,
          "time": 32.36177306666664,
          "velocity": 0.6299212598425197,
          "duration": 0.0953945333333337
        },
        {
          "name": "F#4",
          "midi": 66,
          "time": 32.45881233333331,
          "velocity": 0.6299212598425197,
          "duration": 0.0953945333333337
        },
        {
          "name": "F#4",
          "midi": 66,
          "time": 32.55749633333331,
          "velocity": 0.6299212598425197,
          "duration": 0.0953945333333337
        },
        {
          "name": "F#4",
          "midi": 66,
          "time": 32.65453559999998,
          "velocity": 0.6299212598425197,
          "duration": 0.0953945333333337
        },
        {
          "name": "F#4",
          "midi": 66,
          "time": 32.75321959999998,
          "velocity": 0.6299212598425197,
          "duration": 0.0953945333333337
        },
        {
          "name": "F#4",
          "midi": 66,
          "time": 32.85025886666665,
          "velocity": 0.6299212598425197,
          "duration": 0.0953945333333337
        },
        {
          "name": "F#4",
          "midi": 66,
          "time": 32.94894286666665,
          "velocity": 0.6299212598425197,
          "duration": 0.0953945333333337
        },
        {
          "name": "F#4",
          "midi": 66,
          "time": 33.04598213333332,
          "velocity": 0.6299212598425197,
          "duration": 0.0953945333333337
        },
        {
          "name": "F#4",
          "midi": 66,
          "time": 33.14466613333332,
          "velocity": 0.6299212598425197,
          "duration": 0.0953945333333337
        },
        {
          "name": "F#4",
          "midi": 66,
          "time": 33.24170539999999,
          "velocity": 0.6299212598425197,
          "duration": 0.0953945333333337
        },
        {
          "name": "F#4",
          "midi": 66,
          "time": 33.340389399999985,
          "velocity": 0.6299212598425197,
          "duration": 0.0953945333333337
        },
        {
          "name": "F#4",
          "midi": 66,
          "time": 33.437428666666655,
          "velocity": 0.6299212598425197,
          "duration": 0.0953945333333337
        },
        {
          "name": "F#4",
          "midi": 66,
          "time": 33.536112666666654,
          "velocity": 0.6299212598425197,
          "duration": 0.0953945333333337
        },
        {
          "name": "F#4",
          "midi": 66,
          "time": 33.63315193333332,
          "velocity": 0.6299212598425197,
          "duration": 0.0953945333333337
        },
        {
          "name": "F#4",
          "midi": 66,
          "time": 33.73183593333332,
          "velocity": 0.6299212598425197,
          "duration": 0.0953945333333337
        },
        {
          "name": "F#4",
          "midi": 66,
          "time": 33.82887519999999,
          "velocity": 0.6299212598425197,
          "duration": 0.0953945333333337
        },
        {
          "name": "F#4",
          "midi": 66,
          "time": 33.92755919999999,
          "velocity": 0.6299212598425197,
          "duration": 0.0953945333333337
        },
        {
          "name": "F#4",
          "midi": 66,
          "time": 34.02624319999999,
          "velocity": 0.6299212598425197,
          "duration": 0.0953945333333337
        },
        {
          "name": "F#4",
          "midi": 66,
          "time": 34.12328246666666,
          "velocity": 0.6299212598425197,
          "duration": 0.0953945333333337
        },
        {
          "name": "F#4",
          "midi": 66,
          "time": 34.22196646666666,
          "velocity": 0.6299212598425197,
          "duration": 0.0953945333333337
        },
        {
          "name": "F#4",
          "midi": 66,
          "time": 34.31900573333333,
          "velocity": 0.6299212598425197,
          "duration": 0.0953945333333337
        },
        {
          "name": "F#4",
          "midi": 66,
          "time": 34.417689733333326,
          "velocity": 0.6299212598425197,
          "duration": 0.0953945333333337
        },
        {
          "name": "F#4",
          "midi": 66,
          "time": 34.514728999999996,
          "velocity": 0.6299212598425197,
          "duration": 0.0953945333333337
        },
        {
          "name": "F#4",
          "midi": 66,
          "time": 34.613412999999994,
          "velocity": 0.6299212598425197,
          "duration": 0.0953945333333337
        },
        {
          "name": "E4",
          "midi": 64,
          "time": 35.13150399999999,
          "velocity": 0.6299212598425197,
          "duration": 0.3930912666666657
        },
        {
          "name": "D4",
          "midi": 62,
          "time": 35.526239999999994,
          "velocity": 0.6299212598425197,
          "duration": 0.3930912666666657
        },
        {
          "name": "C4",
          "midi": 60,
          "time": 35.920975999999996,
          "velocity": 0.6299212598425197,
          "duration": 0.3930912666666657
        },
        {
          "name": "G4",
          "midi": 67,
          "time": 36.315712,
          "velocity": 0.6299212598425197,
          "duration": 1.1825632666666692
        },
        {
          "name": "A4",
          "midi": 69,
          "time": 37.49992,
          "velocity": 0.6299212598425197,
          "duration": 0.3930912666666657
        },
        {
          "name": "D4",
          "midi": 62,
          "time": 37.894656000000005,
          "velocity": 0.6299212598425197,
          "duration": 0.7878272666667101
        },
        {
          "name": "E4",
          "midi": 64,
          "time": 38.68412800000005,
          "velocity": 0.5039370078740157,
          "duration": 2.3667712666666674
        },
        {
          "name": "D4",
          "midi": 62,
          "time": 41.052544000000054,
          "velocity": 0.5039370078740157,
          "duration": 3.1562432666666638
        },
        {
          "name": "B3",
          "midi": 59,
          "time": 44.210432000000054,
          "velocity": 0.5039370078740157,
          "duration": 0.7878272666666675
        },
        {
          "name": "C4",
          "midi": 60,
          "time": 44.99990400000006,
          "velocity": 0.5039370078740157,
          "duration": 2.3667712666666674
        },
        {
          "name": "F3",
          "midi": 53,
          "time": 47.36832000000006,
          "velocity": 0.5039370078740157,
          "duration": 0.3930912666666657
        },
        {
          "name": "C4",
          "midi": 60,
          "time": 47.76305600000006,
          "velocity": 0.5354330708661418,
          "duration": 0.3930912666666657
        },
        {
          "name": "E4",
          "midi": 64,
          "time": 48.157792000000065,
          "velocity": 0.5669291338582677,
          "duration": 0.7878272666666604
        },
        {
          "name": "D4",
          "midi": 62,
          "time": 48.94726400000006,
          "velocity": 0.6299212598425197,
          "duration": 1.5772992666666639
        },
        {
          "name": "A4",
          "midi": 69,
          "time": 50.52620800000006,
          "velocity": 0.6299212598425197,
          "duration": 3.1562432666666638
        },
        {
          "name": "F#4",
          "midi": 66,
          "time": 53.68409600000006,
          "velocity": 0.6299212598425197,
          "duration": 3.1562432666666282
        },
        {
          "name": "G#4",
          "midi": 68,
          "time": 56.841984000000025,
          "velocity": 0.5039370078740157,
          "duration": 3.1562432666666638
        },
        {
          "name": "A4",
          "midi": 69,
          "time": 59.999872000000025,
          "velocity": 0.5039370078740157,
          "duration": 1.5772992666666639
        },
        {
          "name": "E4",
          "midi": 64,
          "time": 61.578816000000025,
          "velocity": 0.5039370078740157,
          "duration": 1.5772992666666639
        },
        {
          "name": "C4",
          "midi": 60,
          "time": 63.157760000000025,
          "velocity": 0.5039370078740157,
          "duration": 0.7878272666666675
        },
        {
          "name": "B3",
          "midi": 59,
          "time": 63.94723200000003,
          "velocity": 0.5039370078740157,
          "duration": 0.3930912666666728
        },
        {
          "name": "A3",
          "midi": 57,
          "time": 64.34196800000004,
          "velocity": 0.5039370078740157,
          "duration": 1.5772992666666568
        },
        {
          "name": "G3",
          "midi": 55,
          "time": 65.92091200000003,
          "velocity": 0.5039370078740157,
          "duration": 0.3930912666666728
        },
        {
          "name": "F3",
          "midi": 53,
          "time": 66.31564800000004,
          "velocity": 0.5039370078740157,
          "duration": 0.3930912666666728
        },
        {
          "name": "C4",
          "midi": 60,
          "time": 66.71038400000005,
          "velocity": 0.5039370078740157,
          "duration": 0.3930912666666728
        },
        {
          "name": "B3",
          "midi": 59,
          "time": 67.10512000000006,
          "velocity": 0.5039370078740157,
          "duration": 0.3930912666666728
        },
        {
          "name": "A3",
          "midi": 57,
          "time": 67.49985600000007,
          "velocity": 0.5039370078740157,
          "duration": 0.3930912666666728
        },
        {
          "name": "F3",
          "midi": 53,
          "time": 67.89459200000007,
          "velocity": 0.5039370078740157,
          "duration": 1.577299266666671
        },
        {
          "name": "G#4",
          "midi": 68,
          "time": 69.47353600000008,
          "velocity": 0.5039370078740157,
          "duration": 0.7878272666666675
        },
        {
          "name": "A4",
          "midi": 69,
          "time": 70.26300800000008,
          "velocity": 0.5039370078740157,
          "duration": 0.7878272666666675
        },
        {
          "name": "G#4",
          "midi": 68,
          "time": 71.05248000000009,
          "velocity": 0.5039370078740157,
          "duration": 1.577299266666671
        },
        {
          "name": "A3",
          "midi": 57,
          "time": 72.6314240000001,
          "velocity": 0.6299212598425197,
          "duration": 0.7878272666666675
        },
        {
          "name": "E4",
          "midi": 64,
          "time": 73.4208960000001,
          "velocity": 0.6299212598425197,
          "duration": 0.7878272666666675
        },
        {
          "name": "D4",
          "midi": 62,
          "time": 74.2103680000001,
          "velocity": 0.6299212598425197,
          "duration": 0.7878272666666675
        },
        {
          "name": "C4",
          "midi": 60,
          "time": 74.9998400000001,
          "velocity": 0.6299212598425197,
          "duration": 0.3930912666666728
        },
        {
          "name": "B3",
          "midi": 59,
          "time": 75.39457600000011,
          "velocity": 0.6299212598425197,
          "duration": 0.3930912666666728
        },
        {
          "name": "G3",
          "midi": 55,
          "time": 75.78931200000012,
          "velocity": 0.6299212598425197,
          "duration": 0.3930912666666728
        },
        {
          "name": "D4",
          "midi": 62,
          "time": 76.18404800000013,
          "velocity": 0.6299212598425197,
          "duration": 0.3930912666666728
        },
        {
          "name": "B3",
          "midi": 59,
          "time": 76.57878400000014,
          "velocity": 0.6299212598425197,
          "duration": 0.3930912666666728
        },
        {
          "name": "G3",
          "midi": 55,
          "time": 76.97352000000015,
          "velocity": 0.6299212598425197,
          "duration": 0.7878272666666675
        },
        {
          "name": "A3",
          "midi": 57,
          "time": 77.76299200000015,
          "velocity": 0.6299212598425197,
          "duration": 0.3930912666666728
        },
        {
          "name": "B3",
          "midi": 59,
          "time": 78.15772800000016,
          "velocity": 0.6299212598425197,
          "duration": 0.7878272666666675
        },
        {
          "name": "C5",
          "midi": 72,
          "time": 78.94720000000017,
          "velocity": 0.5039370078740157,
          "duration": 1.577299266666671
        },
        {
          "name": "G4",
          "midi": 67,
          "time": 80.52614400000017,
          "velocity": 0.5039370078740157,
          "duration": 1.577299266666671
        },
        {
          "name": "E4",
          "midi": 64,
          "time": 82.10508800000018,
          "velocity": 0.5039370078740157,
          "duration": 3.1562432666666638
        },
        {
          "name": "D4",
          "midi": 62,
          "time": 85.26297600000018,
          "velocity": 0.6299212598425197,
          "duration": 0.3930912666666728
        },
        {
          "name": "A4",
          "midi": 69,
          "time": 85.65771200000019,
          "velocity": 0.6220472440944882,
          "duration": 0.3930912666666586
        },
        {
          "name": "G4",
          "midi": 67,
          "time": 86.05244800000018,
          "velocity": 0.6141732283464567,
          "duration": 0.3930912666666728
        },
        {
          "name": "A4",
          "midi": 69,
          "time": 86.44718400000019,
          "velocity": 0.5984251968503937,
          "duration": 0.3930912666666728
        },
        {
          "name": "B4",
          "midi": 71,
          "time": 86.8419200000002,
          "velocity": 0.5905511811023622,
          "duration": 0.7878272666666675
        },
        {
          "name": "G4",
          "midi": 67,
          "time": 87.6313920000002,
          "velocity": 0.5669291338582677,
          "duration": 0.7878272666666675
        },
        {
          "name": "A4",
          "midi": 69,
          "time": 88.42086400000021,
          "velocity": 0.5511811023622047,
          "duration": 1.1825632666666763
        },
        {
          "name": "G4",
          "midi": 67,
          "time": 89.60507200000022,
          "velocity": 0.5196850393700787,
          "duration": 0.3930912666666728
        },
        {
          "name": "A4",
          "midi": 69,
          "time": 89.99980800000023,
          "velocity": 0.5039370078740157,
          "duration": 1.577299266666671
        },
        {
          "name": "C4",
          "midi": 60,
          "time": 91.57875200000024,
          "velocity": 0.5039370078740157,
          "duration": 6.314131266666621
        },
        {
          "name": "G4",
          "midi": 67,
          "time": 98.28926400000019,
          "velocity": 0.7559055118110236,
          "duration": 0.3930912666666728
        },
        {
          "name": "F4",
          "midi": 65,
          "time": 98.6840000000002,
          "velocity": 0.7559055118110236,
          "duration": 0.3930912666666728
        },
        {
          "name": "E4",
          "midi": 64,
          "time": 99.0787360000002,
          "velocity": 0.7559055118110236,
          "duration": 0.3930912666666728
        },
        {
          "name": "D4",
          "midi": 62,
          "time": 99.47347200000021,
          "velocity": 0.7559055118110236,
          "duration": 0.7878272666666675
        },
        {
          "name": "G4",
          "midi": 67,
          "time": 100.26294400000022,
          "velocity": 0.7559055118110236,
          "duration": 0.7878272666666675
        },
        {
          "name": "E4",
          "midi": 64,
          "time": 101.05241600000022,
          "velocity": 0.7559055118110236,
          "duration": 1.577299266666671
        },
        {
          "name": "G4",
          "midi": 67,
          "time": 102.63136000000023,
          "velocity": 0.7559055118110236,
          "duration": 0.7878272666666675
        },
        {
          "name": "B3",
          "midi": 59,
          "time": 103.42083200000023,
          "velocity": 0.7559055118110236,
          "duration": 0.7878272666666675
        },
        {
          "name": "A3",
          "midi": 57,
          "time": 104.21030400000024,
          "velocity": 0.7559055118110236,
          "duration": 3.1562432666666638
        },
        {
          "name": "G4",
          "midi": 67,
          "time": 107.76292800000023,
          "velocity": 0.7559055118110236,
          "duration": 0.3930912666666728
        },
        {
          "name": "F4",
          "midi": 65,
          "time": 108.15766400000024,
          "velocity": 0.7559055118110236,
          "duration": 0.3930912666666728
        },
        {
          "name": "E4",
          "midi": 64,
          "time": 108.55240000000025,
          "velocity": 0.7559055118110236,
          "duration": 0.3930912666666728
        },
        {
          "name": "D4",
          "midi": 62,
          "time": 108.94713600000026,
          "velocity": 0.7559055118110236,
          "duration": 0.7878272666666675
        },
        {
          "name": "G4",
          "midi": 67,
          "time": 109.73660800000026,
          "velocity": 0.7559055118110236,
          "duration": 0.7878272666666675
        },
        {
          "name": "A4",
          "midi": 69,
          "time": 110.52608000000026,
          "velocity": 0.7559055118110236,
          "duration": 0.7878272666666675
        },
        {
          "name": "A3",
          "midi": 57,
          "time": 111.31555200000027,
          "velocity": 1,
          "duration": 2.3667712666666603
        },
        {
          "name": "E4",
          "midi": 64,
          "time": 113.68396800000026,
          "velocity": 0.7559055118110236,
          "duration": 0.7878272666665964
        },
        {
          "name": "E3",
          "midi": 52,
          "time": 114.4734400000002,
          "velocity": 0.6771653543307087,
          "duration": 0.3930912666666444
        },
        {
          "name": "A3",
          "midi": 57,
          "time": 114.86817600000018,
          "velocity": 0.6299212598425197,
          "duration": 0.3930912666666302
        },
        {
          "name": "E4",
          "midi": 64,
          "time": 115.26291200000014,
          "velocity": 0.5905511811023622,
          "duration": 0.3930912666666302
        },
        {
          "name": "A4",
          "midi": 69,
          "time": 115.65764800000011,
          "velocity": 0.5511811023622047,
          "duration": 1.1825632666666337
        },
        {
          "name": "C4",
          "midi": 60,
          "time": 117.23659200000007,
          "velocity": 0.5039370078740157,
          "duration": 0.3930912666666728
        },
        {
          "name": "A4",
          "midi": 69,
          "time": 117.63132800000008,
          "velocity": 0.5039370078740157,
          "duration": 0.7878272666666675
        },
        {
          "name": "D4",
          "midi": 62,
          "time": 118.81553600000008,
          "velocity": 0.5039370078740157,
          "duration": 0.3930912666666728
        },
        {
          "name": "B4",
          "midi": 71,
          "time": 119.21027200000009,
          "velocity": 0.5039370078740157,
          "duration": 0.7878272666666675
        },
        {
          "name": "D4",
          "midi": 62,
          "time": 120.39448000000009,
          "velocity": 0.5039370078740157,
          "duration": 0.3930912666666728
        },
        {
          "name": "G#4",
          "midi": 68,
          "time": 120.7892160000001,
          "velocity": 0.5039370078740157,
          "duration": 0.7878272666666675
        },
        {
          "name": "E4",
          "midi": 64,
          "time": 121.5786880000001,
          "velocity": 0.5039370078740157,
          "duration": 0.590459266666727
        },
        {
          "name": "C4",
          "midi": 60,
          "time": 122.17079200000016,
          "velocity": 0.6299212598425197,
          "duration": 0.590459266666727
        },
        {
          "name": "D4",
          "midi": 62,
          "time": 122.76289600000023,
          "velocity": 0.7559055118110236,
          "duration": 0.3930912666666728
        },
        {
          "name": "E4",
          "midi": 64,
          "time": 123.15763200000023,
          "velocity": 0.7559055118110236,
          "duration": 1.577299266666671
        },
        {
          "name": "A4",
          "midi": 69,
          "time": 124.73657600000024,
          "velocity": 0.7559055118110236,
          "duration": 1.1825632666666621
        },
        {
          "name": "C5",
          "midi": 72,
          "time": 125.92078400000024,
          "velocity": 0.7559055118110236,
          "duration": 0.3930912666666728
        },
        {
          "name": "G#4",
          "midi": 68,
          "time": 126.31552000000025,
          "velocity": 1,
          "duration": 1.5772992666669836
        },
        {
          "name": "E4",
          "midi": 64,
          "time": 127.89446400000057,
          "velocity": 1,
          "duration": 1.5772992666669836
        },
        {
          "name": "E4",
          "midi": 64,
          "time": 129.4734080000009,
          "velocity": 0.7559055118110236,
          "duration": 1.577299266666671
        },
        {
          "name": "D4",
          "midi": 62,
          "time": 131.0523520000009,
          "velocity": 0.7559055118110236,
          "duration": 1.577299266666671
        },
        {
          "name": "C4",
          "midi": 60,
          "time": 132.6312960000009,
          "velocity": 0.9448818897637795,
          "duration": 0.3930912666669997
        },
        {
          "name": "A3",
          "midi": 57,
          "time": 133.02603200000124,
          "velocity": 0.6299212598425197,
          "duration": 0.1957232666666755
        },
        {
          "name": "A3",
          "midi": 57,
          "time": 133.81550400000125,
          "velocity": 0.6299212598425197,
          "duration": 0.1957232666666755
        },
        {
          "name": "A3",
          "midi": 57,
          "time": 134.21024000000125,
          "velocity": 0.9448818897637795,
          "duration": 0.3930912666669997
        },
        {
          "name": "A3",
          "midi": 57,
          "time": 134.60497600000159,
          "velocity": 0.6299212598425197,
          "duration": 0.1957232666666755
        },
        {
          "name": "A3",
          "midi": 57,
          "time": 135.3944480000016,
          "velocity": 0.6299212598425197,
          "duration": 0.1957232666666755
        },
        {
          "name": "A3",
          "midi": 57,
          "time": 135.7891840000016,
          "velocity": 0.9448818897637795,
          "duration": 0.3930912666669997
        },
        {
          "name": "A3",
          "midi": 57,
          "time": 136.18392000000193,
          "velocity": 0.6299212598425197,
          "duration": 0.1957232666666755
        },
        {
          "name": "A3",
          "midi": 57,
          "time": 136.97339200000195,
          "velocity": 0.6299212598425197,
          "duration": 0.1957232666666755
        },
        {
          "name": "A3",
          "midi": 57,
          "time": 137.36812800000195,
          "velocity": 0.9448818897637795,
          "duration": 0.3930912666669997
        },
        {
          "name": "A3",
          "midi": 57,
          "time": 137.76286400000228,
          "velocity": 0.6299212598425197,
          "duration": 0.1957232666666755
        },
        {
          "name": "A3",
          "midi": 57,
          "time": 138.5523360000023,
          "velocity": 0.6299212598425197,
          "duration": 0.1957232666666755
        },
        {
          "name": "A3",
          "midi": 57,
          "time": 138.9470720000023,
          "velocity": 0.5039370078740157,
          "duration": 0.1957232666666755
        },
        {
          "name": "B3",
          "midi": 59,
          "time": 139.3418080000023,
          "velocity": 0.5039370078740157,
          "duration": 0.1957232666666755
        },
        {
          "name": "C4",
          "midi": 60,
          "time": 139.73654400000228,
          "velocity": 0.5039370078740157,
          "duration": 0.1957232666666755
        },
        {
          "name": "D4",
          "midi": 62,
          "time": 140.13128000000228,
          "velocity": 0.5039370078740157,
          "duration": 0.1957232666666755
        },
        {
          "name": "B3",
          "midi": 59,
          "time": 140.52601600000227,
          "velocity": 0.5039370078740157,
          "duration": 0.1957232666666755
        },
        {
          "name": "C4",
          "midi": 60,
          "time": 140.92075200000227,
          "velocity": 0.5039370078740157,
          "duration": 0.1957232666666755
        },
        {
          "name": "D4",
          "midi": 62,
          "time": 141.31548800000226,
          "velocity": 0.5039370078740157,
          "duration": 0.1957232666666755
        },
        {
          "name": "C4",
          "midi": 60,
          "time": 141.71022400000226,
          "velocity": 0.5039370078740157,
          "duration": 0.1957232666666755
        },
        {
          "name": "B3",
          "midi": 59,
          "time": 142.10496000000225,
          "velocity": 0.5039370078740157,
          "duration": 0.1957232666666755
        },
        {
          "name": "C4",
          "midi": 60,
          "time": 142.49969600000225,
          "velocity": 0.5039370078740157,
          "duration": 0.1957232666666755
        },
        {
          "name": "D4",
          "midi": 62,
          "time": 142.89443200000224,
          "velocity": 0.5039370078740157,
          "duration": 0.1957232666666755
        },
        {
          "name": "E4",
          "midi": 64,
          "time": 143.28916800000223,
          "velocity": 0.5039370078740157,
          "duration": 0.1957232666666755
        },
        {
          "name": "A3",
          "midi": 57,
          "time": 143.68390400000223,
          "velocity": 0.5039370078740157,
          "duration": 0.1957232666666755
        },
        {
          "name": "B3",
          "midi": 59,
          "time": 144.07864000000222,
          "velocity": 0.5039370078740157,
          "duration": 0.1957232666666755
        },
        {
          "name": "C4",
          "midi": 60,
          "time": 144.47337600000222,
          "velocity": 0.5039370078740157,
          "duration": 0.1957232666666755
        },
        {
          "name": "D4",
          "midi": 62,
          "time": 144.8681120000022,
          "velocity": 0.5039370078740157,
          "duration": 0.1957232666666755
        },
        {
          "name": "B3",
          "midi": 59,
          "time": 145.2628480000022,
          "velocity": 0.5039370078740157,
          "duration": 0.1957232666666755
        },
        {
          "name": "C4",
          "midi": 60,
          "time": 145.6575840000022,
          "velocity": 0.5039370078740157,
          "duration": 0.1957232666666755
        },
        {
          "name": "D4",
          "midi": 62,
          "time": 146.0523200000022,
          "velocity": 0.5039370078740157,
          "duration": 0.1957232666666755
        },
        {
          "name": "C4",
          "midi": 60,
          "time": 146.4470560000022,
          "velocity": 0.5039370078740157,
          "duration": 0.1957232666666755
        },
        {
          "name": "A#3",
          "midi": 58,
          "time": 146.8417920000022,
          "velocity": 0.5039370078740157,
          "duration": 0.1957232666666755
        },
        {
          "name": "A#3",
          "midi": 58,
          "time": 147.23652800000218,
          "velocity": 0.5039370078740157,
          "duration": 0.1957232666666755
        },
        {
          "name": "C4",
          "midi": 60,
          "time": 147.63126400000218,
          "velocity": 0.5039370078740157,
          "duration": 0.1957232666666755
        },
        {
          "name": "D4",
          "midi": 62,
          "time": 148.02600000000217,
          "velocity": 0.5039370078740157,
          "duration": 0.1957232666666755
        },
        {
          "name": "B3",
          "midi": 59,
          "time": 148.42073600000217,
          "velocity": 0.5039370078740157,
          "duration": 0.1957232666666755
        },
        {
          "name": "B3",
          "midi": 59,
          "time": 148.81547200000216,
          "velocity": 0.5039370078740157,
          "duration": 0.1957232666666755
        },
        {
          "name": "C4",
          "midi": 60,
          "time": 149.21020800000215,
          "velocity": 0.5039370078740157,
          "duration": 0.1957232666666755
        },
        {
          "name": "C4",
          "midi": 60,
          "time": 149.60494400000215,
          "velocity": 0.5039370078740157,
          "duration": 0.1957232666666755
        },
        {
          "name": "B3",
          "midi": 59,
          "time": 149.99968000000214,
          "velocity": 0.5039370078740157,
          "duration": 0.1957232666666755
        },
        {
          "name": "D4",
          "midi": 62,
          "time": 150.39441600000214,
          "velocity": 0.5039370078740157,
          "duration": 0.1957232666666755
        },
        {
          "name": "F4",
          "midi": 65,
          "time": 150.78915200000213,
          "velocity": 0.5039370078740157,
          "duration": 0.1957232666666755
        },
        {
          "name": "E4",
          "midi": 64,
          "time": 151.18388800000213,
          "velocity": 0.5039370078740157,
          "duration": 0.1957232666666755
        },
        {
          "name": "A3",
          "midi": 57,
          "time": 151.57862400000212,
          "velocity": 0.5039370078740157,
          "duration": 0.1957232666666755
        },
        {
          "name": "B3",
          "midi": 59,
          "time": 151.97336000000212,
          "velocity": 0.5039370078740157,
          "duration": 0.1957232666666755
        },
        {
          "name": "C4",
          "midi": 60,
          "time": 152.3680960000021,
          "velocity": 0.5039370078740157,
          "duration": 0.1957232666666755
        },
        {
          "name": "D4",
          "midi": 62,
          "time": 152.7628320000021,
          "velocity": 0.5039370078740157,
          "duration": 0.1957232666666755
        },
        {
          "name": "B3",
          "midi": 59,
          "time": 153.1575680000021,
          "velocity": 0.5039370078740157,
          "duration": 0.1957232666666755
        },
        {
          "name": "C4",
          "midi": 60,
          "time": 153.5523040000021,
          "velocity": 0.5039370078740157,
          "duration": 0.1957232666666755
        },
        {
          "name": "D4",
          "midi": 62,
          "time": 153.9470400000021,
          "velocity": 0.5039370078740157,
          "duration": 0.1957232666666755
        },
        {
          "name": "C4",
          "midi": 60,
          "time": 154.34177600000208,
          "velocity": 0.5039370078740157,
          "duration": 0.1957232666666755
        },
        {
          "name": "B3",
          "midi": 59,
          "time": 154.73651200000208,
          "velocity": 0.5039370078740157,
          "duration": 0.1957232666666755
        },
        {
          "name": "C4",
          "midi": 60,
          "time": 155.13124800000207,
          "velocity": 0.5039370078740157,
          "duration": 0.1957232666666755
        },
        {
          "name": "D4",
          "midi": 62,
          "time": 155.52598400000207,
          "velocity": 0.5039370078740157,
          "duration": 0.1957232666666755
        },
        {
          "name": "C4",
          "midi": 60,
          "time": 155.92072000000206,
          "velocity": 0.5039370078740157,
          "duration": 0.1957232666666755
        },
        {
          "name": "C#4",
          "midi": 61,
          "time": 156.31545600000206,
          "velocity": 0.5039370078740157,
          "duration": 0.1957232666666755
        },
        {
          "name": "D4",
          "midi": 62,
          "time": 156.71019200000205,
          "velocity": 0.5039370078740157,
          "duration": 0.1957232666666755
        },
        {
          "name": "E4",
          "midi": 64,
          "time": 157.10492800000205,
          "velocity": 0.5039370078740157,
          "duration": 0.1957232666666755
        },
        {
          "name": "C#4",
          "midi": 61,
          "time": 157.49966400000204,
          "velocity": 0.5039370078740157,
          "duration": 0.1957232666666755
        },
        {
          "name": "A3",
          "midi": 57,
          "time": 157.89440000000204,
          "velocity": 0.5039370078740157,
          "duration": 0.1957232666666755
        },
        {
          "name": "C4",
          "midi": 60,
          "time": 158.28913600000203,
          "velocity": 0.5039370078740157,
          "duration": 0.1957232666666755
        },
        {
          "name": "D#4",
          "midi": 63,
          "time": 158.68387200000203,
          "velocity": 0.5039370078740157,
          "duration": 0.1957232666666755
        },
        {
          "name": "C4",
          "midi": 60,
          "time": 159.07860800000202,
          "velocity": 0.5039370078740157,
          "duration": 0.1957232666666755
        },
        {
          "name": "G3",
          "midi": 55,
          "time": 159.47334400000202,
          "velocity": 0.5039370078740157,
          "duration": 0.1957232666666755
        },
        {
          "name": "B3",
          "midi": 59,
          "time": 159.868080000002,
          "velocity": 0.5039370078740157,
          "duration": 0.1957232666666755
        },
        {
          "name": "D4",
          "midi": 62,
          "time": 160.262816000002,
          "velocity": 0.5039370078740157,
          "duration": 0.1957232666666755
        },
        {
          "name": "B3",
          "midi": 59,
          "time": 160.657552000002,
          "velocity": 0.5039370078740157,
          "duration": 0.1957232666666755
        },
        {
          "name": "A3",
          "midi": 57,
          "time": 161.052288000002,
          "velocity": 0.5039370078740157,
          "duration": 0.1957232666666755
        },
        {
          "name": "B3",
          "midi": 59,
          "time": 161.447024000002,
          "velocity": 0.5039370078740157,
          "duration": 0.1957232666666755
        },
        {
          "name": "C4",
          "midi": 60,
          "time": 161.84176000000198,
          "velocity": 0.5039370078740157,
          "duration": 0.1957232666666755
        },
        {
          "name": "D4",
          "midi": 62,
          "time": 162.23649600000198,
          "velocity": 0.5039370078740157,
          "duration": 0.1957232666666755
        },
        {
          "name": "F#4",
          "midi": 66,
          "time": 162.63123200000197,
          "velocity": 0.5039370078740157,
          "duration": 0.09703926666665552
        },
        {
          "name": "E4",
          "midi": 64,
          "time": 162.82860000000196,
          "velocity": 0.5039370078740157,
          "duration": 0.09703926666665552
        },
        {
          "name": "F#4",
          "midi": 66,
          "time": 163.02596800000194,
          "velocity": 0.5039370078740157,
          "duration": 0.1957232666666755
        },
        {
          "name": "D4",
          "midi": 62,
          "time": 163.42070400000193,
          "velocity": 0.5039370078740157,
          "duration": 0.1957232666666755
        },
        {
          "name": "A3",
          "midi": 57,
          "time": 163.81544000000193,
          "velocity": 0.5039370078740157,
          "duration": 0.1957232666666755
        },
        {
          "name": "A3",
          "midi": 57,
          "time": 164.21017600000192,
          "velocity": 0.5039370078740157,
          "duration": 0.1957232666666755
        },
        {
          "name": "A#3",
          "midi": 58,
          "time": 164.60491200000192,
          "velocity": 0.5196850393700787,
          "duration": 0.1957232666666755
        },
        {
          "name": "C4",
          "midi": 60,
          "time": 164.9996480000019,
          "velocity": 0.5354330708661418,
          "duration": 0.1957232666666755
        },
        {
          "name": "D4",
          "midi": 62,
          "time": 165.3943840000019,
          "velocity": 0.5511811023622047,
          "duration": 0.1957232666666755
        },
        {
          "name": "F4",
          "midi": 65,
          "time": 165.78912000000193,
          "velocity": 0.5748031496062992,
          "duration": 0.09703926666665552
        },
        {
          "name": "E4",
          "midi": 64,
          "time": 165.9864880000019,
          "velocity": 0.5826771653543307,
          "duration": 0.09703926666665552
        },
        {
          "name": "F4",
          "midi": 65,
          "time": 166.1838560000019,
          "velocity": 0.5905511811023622,
          "duration": 0.19572326666664708
        },
        {
          "name": "D4",
          "midi": 62,
          "time": 166.5785920000019,
          "velocity": 0.6062992125984252,
          "duration": 0.1957232666666755
        },
        {
          "name": "A3",
          "midi": 57,
          "time": 166.97332800000189,
          "velocity": 0.6299212598425197,
          "duration": 0.1957232666666755
        },
        {
          "name": "A3",
          "midi": 57,
          "time": 167.36806400000188,
          "velocity": 0.9448818897637795,
          "duration": 0.3930912666669997
        },
        {
          "name": "A3",
          "midi": 57,
          "time": 167.76280000000222,
          "velocity": 0.6299212598425197,
          "duration": 0.1957232666666755
        },
        {
          "name": "A3",
          "midi": 57,
          "time": 168.55227200000223,
          "velocity": 0.6299212598425197,
          "duration": 0.1957232666666755
        },
        {
          "name": "A4",
          "midi": 69,
          "time": 168.94700800000223,
          "velocity": 0.9448818897637795,
          "duration": 0.3930912666669997
        },
        {
          "name": "A3",
          "midi": 57,
          "time": 169.34174400000256,
          "velocity": 0.6299212598425197,
          "duration": 0.1957232666666755
        },
        {
          "name": "A3",
          "midi": 57,
          "time": 170.13121600000258,
          "velocity": 0.6299212598425197,
          "duration": 0.1957232666666755
        },
        {
          "name": "D3",
          "midi": 50,
          "time": 170.52595200000258,
          "velocity": 0.9448818897637795,
          "duration": 0.3930912666669997
        },
        {
          "name": "D3",
          "midi": 50,
          "time": 170.9206880000029,
          "velocity": 0.6299212598425197,
          "duration": 0.1957232666666755
        },
        {
          "name": "D3",
          "midi": 50,
          "time": 171.71016000000293,
          "velocity": 0.6299212598425197,
          "duration": 0.1957232666666755
        },
        {
          "name": "A3",
          "midi": 57,
          "time": 172.10489600000292,
          "velocity": 0.9448818897637795,
          "duration": 0.3930912666669997
        },
        {
          "name": "D3",
          "midi": 50,
          "time": 172.49963200000326,
          "velocity": 0.6299212598425197,
          "duration": 0.1957232666666755
        },
        {
          "name": "D3",
          "midi": 50,
          "time": 173.28910400000328,
          "velocity": 0.6299212598425197,
          "duration": 0.1957232666666755
        },
        {
          "name": "A#3",
          "midi": 58,
          "time": 173.68384000000327,
          "velocity": 0.9448818897637795,
          "duration": 0.3930912666669997
        },
        {
          "name": "A#3",
          "midi": 58,
          "time": 174.0785760000036,
          "velocity": 0.6299212598425197,
          "duration": 0.1957232666666755
        },
        {
          "name": "A#3",
          "midi": 58,
          "time": 174.86804800000363,
          "velocity": 0.6299212598425197,
          "duration": 0.1957232666666755
        },
        {
          "name": "F4",
          "midi": 65,
          "time": 175.26278400000362,
          "velocity": 0.9448818897637795,
          "duration": 0.3930912666669997
        },
        {
          "name": "A#3",
          "midi": 58,
          "time": 175.65752000000396,
          "velocity": 0.6299212598425197,
          "duration": 0.1957232666666755
        },
        {
          "name": "A#3",
          "midi": 58,
          "time": 176.44699200000397,
          "velocity": 0.6299212598425197,
          "duration": 0.1957232666666755
        },
        {
          "name": "E3",
          "midi": 52,
          "time": 176.84172800000397,
          "velocity": 0.9448818897637795,
          "duration": 0.3930912666669997
        },
        {
          "name": "E3",
          "midi": 52,
          "time": 177.2364640000043,
          "velocity": 0.6299212598425197,
          "duration": 0.1957232666666755
        },
        {
          "name": "E3",
          "midi": 52,
          "time": 178.02593600000432,
          "velocity": 0.6299212598425197,
          "duration": 0.1957232666666755
        },
        {
          "name": "B3",
          "midi": 59,
          "time": 178.42067200000432,
          "velocity": 0.9448818897637795,
          "duration": 0.3930912666669997
        },
        {
          "name": "E3",
          "midi": 52,
          "time": 178.81540800000465,
          "velocity": 0.6299212598425197,
          "duration": 0.1957232666666755
        },
        {
          "name": "E3",
          "midi": 52,
          "time": 179.60488000000467,
          "velocity": 0.6299212598425197,
          "duration": 0.1957232666666755
        },
        {
          "name": "A3",
          "midi": 57,
          "time": 179.99961600000466,
          "velocity": 0.9448818897637795,
          "duration": 0.3930912666669997
        },
        {
          "name": "A3",
          "midi": 57,
          "time": 180.394352000005,
          "velocity": 0.6299212598425197,
          "duration": 0.19572326666664708
        },
        {
          "name": "A3",
          "midi": 57,
          "time": 181.18382400000496,
          "velocity": 0.6456692913385826,
          "duration": 0.1957232666666755
        },
        {
          "name": "A4",
          "midi": 69,
          "time": 181.57856000000496,
          "velocity": 0.968503937007874,
          "duration": 0.3930912666669997
        },
        {
          "name": "A3",
          "midi": 57,
          "time": 181.9732960000053,
          "velocity": 0.6535433070866141,
          "duration": 0.1957232666666755
        },
        {
          "name": "A3",
          "midi": 57,
          "time": 182.7627680000053,
          "velocity": 0.6692913385826772,
          "duration": 0.1957232666666755
        },
        {
          "name": "F#3",
          "midi": 54,
          "time": 183.1575040000053,
          "velocity": 1,
          "duration": 0.3930912666669997
        },
        {
          "name": "F#3",
          "midi": 54,
          "time": 183.55224000000564,
          "velocity": 0.6771653543307087,
          "duration": 0.1957232666666755
        },
        {
          "name": "F#3",
          "midi": 54,
          "time": 184.34171200000566,
          "velocity": 0.6929133858267716,
          "duration": 0.1957232666666755
        },
        {
          "name": "F#4",
          "midi": 66,
          "time": 184.73644800000565,
          "velocity": 1,
          "duration": 0.3930912666669997
        },
        {
          "name": "F#3",
          "midi": 54,
          "time": 185.131184000006,
          "velocity": 0.7007874015748031,
          "duration": 0.1957232666666755
        },
        {
          "name": "F#3",
          "midi": 54,
          "time": 185.92065600000598,
          "velocity": 0.7086614173228346,
          "duration": 0.1957232666666755
        },
        {
          "name": "D#3",
          "midi": 51,
          "time": 186.31539200000597,
          "velocity": 1,
          "duration": 0.3930912666669997
        },
        {
          "name": "D#3",
          "midi": 51,
          "time": 186.7101280000063,
          "velocity": 0.7244094488188977,
          "duration": 0.1957232666666755
        },
        {
          "name": "D#3",
          "midi": 51,
          "time": 187.4996000000063,
          "velocity": 0.7322834645669292,
          "duration": 0.19572326666664708
        },
        {
          "name": "F3",
          "midi": 53,
          "time": 187.89433600000626,
          "velocity": 1,
          "duration": 0.7878272666669943
        },
        {
          "name": "D#3",
          "midi": 51,
          "time": 188.6838080000066,
          "velocity": 1,
          "duration": 0.7878272666668806
        },
        {
          "name": "A3",
          "midi": 57,
          "time": 189.4732800000068,
          "velocity": 1,
          "duration": 0.7878272666669943
        },
        {
          "name": "C4",
          "midi": 60,
          "time": 190.26275200000714,
          "velocity": 1,
          "duration": 0.7878272666669943
        },
        {
          "name": "G#3",
          "midi": 56,
          "time": 191.05222400000747,
          "velocity": 1,
          "duration": 0.26151260000031584
        },
        {
          "name": "G#3",
          "midi": 56,
          "time": 191.31538133334112,
          "velocity": 0.7559055118110236,
          "duration": 0.2615126000000032
        },
        {
          "name": "G#3",
          "midi": 56,
          "time": 191.57853866667446,
          "velocity": 0.7559055118110236,
          "duration": 0.2615126000000032
        },
        {
          "name": "D4",
          "midi": 62,
          "time": 191.8416960000078,
          "velocity": 1,
          "duration": 0.26151260000031584
        },
        {
          "name": "D4",
          "midi": 62,
          "time": 192.10485333334145,
          "velocity": 0.7559055118110236,
          "duration": 0.2615126000000032
        },
        {
          "name": "D4",
          "midi": 62,
          "time": 192.3680106666748,
          "velocity": 0.7559055118110236,
          "duration": 0.2615126000000032
        },
        {
          "name": "E3",
          "midi": 52,
          "time": 194.60484800000813,
          "velocity": 0.6299212598425197,
          "duration": 0.3930912666666586
        },
        {
          "name": "D3",
          "midi": 50,
          "time": 194.99958400000813,
          "velocity": 0.6299212598425197,
          "duration": 0.3930912666666586
        },
        {
          "name": "C3",
          "midi": 48,
          "time": 195.39432000000812,
          "velocity": 0.6299212598425197,
          "duration": 0.3930912666666586
        },
        {
          "name": "D3",
          "midi": 50,
          "time": 195.78905600000812,
          "velocity": 0.6299212598425197,
          "duration": 1.1825632666666763
        },
        {
          "name": "G3",
          "midi": 55,
          "time": 196.97326400000813,
          "velocity": 0.6299212598425197,
          "duration": 0.3930912666666586
        },
        {
          "name": "D3",
          "midi": 50,
          "time": 197.36800000000812,
          "velocity": 0.6299212598425197,
          "duration": 0.7878272666666533
        },
        {
          "name": "E3",
          "midi": 52,
          "time": 198.1574720000081,
          "velocity": 0.6299212598425197,
          "duration": 2.3667712666666603
        },
        {
          "name": "E3",
          "midi": 52,
          "time": 200.9206240000081,
          "velocity": 0.6299212598425197,
          "duration": 0.3930912666666586
        },
        {
          "name": "D3",
          "midi": 50,
          "time": 201.3153600000081,
          "velocity": 0.6299212598425197,
          "duration": 0.3930912666666586
        },
        {
          "name": "C3",
          "midi": 48,
          "time": 201.7100960000081,
          "velocity": 0.6299212598425197,
          "duration": 0.3930912666666586
        },
        {
          "name": "D3",
          "midi": 50,
          "time": 202.1048320000081,
          "velocity": 0.6299212598425197,
          "duration": 1.1825632666666763
        },
        {
          "name": "G3",
          "midi": 55,
          "time": 203.2890400000081,
          "velocity": 0.6299212598425197,
          "duration": 0.3930912666666586
        },
        {
          "name": "E3",
          "midi": 52,
          "time": 203.6837760000081,
          "velocity": 0.6299212598425197,
          "duration": 0.7878272666666533
        },
        {
          "name": "A3",
          "midi": 57,
          "time": 204.47324800000808,
          "velocity": 0.6299212598425197,
          "duration": 2.3667712666666603
        },
        {
          "name": "A3",
          "midi": 57,
          "time": 207.23640000000808,
          "velocity": 0.6299212598425197,
          "duration": 0.3930912666666586
        },
        {
          "name": "G3",
          "midi": 55,
          "time": 207.63113600000807,
          "velocity": 0.6299212598425197,
          "duration": 0.3930912666666586
        },
        {
          "name": "A3",
          "midi": 57,
          "time": 208.02587200000806,
          "velocity": 0.6299212598425197,
          "duration": 0.3930912666666586
        },
        {
          "name": "B3",
          "midi": 59,
          "time": 208.42060800000806,
          "velocity": 0.6299212598425197,
          "duration": 0.7878272666666533
        },
        {
          "name": "G3",
          "midi": 55,
          "time": 209.21008000000805,
          "velocity": 0.6299212598425197,
          "duration": 0.7878272666666533
        },
        {
          "name": "A3",
          "midi": 57,
          "time": 209.99955200000804,
          "velocity": 0.6299212598425197,
          "duration": 1.1825632666666763
        },
        {
          "name": "G3",
          "midi": 55,
          "time": 211.18376000000805,
          "velocity": 0.6299212598425197,
          "duration": 0.3930912666666586
        },
        {
          "name": "A3",
          "midi": 57,
          "time": 211.57849600000804,
          "velocity": 0.6299212598425197,
          "duration": 0.7878272666666533
        },
        {
          "name": "G3",
          "midi": 55,
          "time": 212.36796800000803,
          "velocity": 0.6299212598425197,
          "duration": 0.2615126000000032
        },
        {
          "name": "A3",
          "midi": 57,
          "time": 212.63112533334137,
          "velocity": 0.6299212598425197,
          "duration": 0.2615126000000032
        },
        {
          "name": "G3",
          "midi": 55,
          "time": 212.8942826666747,
          "velocity": 0.6299212598425197,
          "duration": 0.2615126000000032
        },
        {
          "name": "F3",
          "midi": 53,
          "time": 213.15744000000805,
          "velocity": 0.6299212598425197,
          "duration": 1.5772992666665289
        },
        {
          "name": "A3",
          "midi": 57,
          "time": 214.73638400000792,
          "velocity": 0.5039370078740157,
          "duration": 1.577299266666671
        },
        {
          "name": "A3",
          "midi": 57,
          "time": 216.31532800000792,
          "velocity": 0.5039370078740157,
          "duration": 0.7878272666667385
        },
        {
          "name": "D4",
          "midi": 62,
          "time": 217.104800000008,
          "velocity": 0.5826771653543307,
          "duration": 0.787827266666767
        },
        {
          "name": "E4",
          "midi": 64,
          "time": 217.8942720000081,
          "velocity": 0.6692913385826772,
          "duration": 0.7878272666667385
        },
        {
          "name": "G#4",
          "midi": 68,
          "time": 218.68374400000818,
          "velocity": 0.7559055118110236,
          "duration": 0.7878272666666533
        },
        {
          "name": "E4",
          "midi": 64,
          "time": 219.47321600000816,
          "velocity": 0.7559055118110236,
          "duration": 1.1825632666666763
        },
        {
          "name": "F4",
          "midi": 65,
          "time": 220.65742400000818,
          "velocity": 0.7559055118110236,
          "duration": 0.3930912666666586
        },
        {
          "name": "E4",
          "midi": 64,
          "time": 221.05216000000817,
          "velocity": 0.7559055118110236,
          "duration": 1.1825632666666763
        },
        {
          "name": "F4",
          "midi": 65,
          "time": 222.23636800000818,
          "velocity": 0.7559055118110236,
          "duration": 0.3930912666666586
        },
        {
          "name": "E4",
          "midi": 64,
          "time": 222.63110400000818,
          "velocity": 0.7559055118110236,
          "duration": 0.7878272666666533
        },
        {
          "name": "F4",
          "midi": 65,
          "time": 223.42057600000817,
          "velocity": 0.7559055118110236,
          "duration": 0.3930912666666586
        },
        {
          "name": "E4",
          "midi": 64,
          "time": 223.81531200000816,
          "velocity": 0.7559055118110236,
          "duration": 1.9720352666666656
        },
        {
          "name": "E4",
          "midi": 64,
          "time": 226.18372800000816,
          "velocity": 0.7559055118110236,
          "duration": 0.3930912666666586
        },
        {
          "name": "D4",
          "midi": 62,
          "time": 226.57846400000815,
          "velocity": 0.7559055118110236,
          "duration": 0.3930912666666586
        },
        {
          "name": "C4",
          "midi": 60,
          "time": 226.97320000000815,
          "velocity": 0.7559055118110236,
          "duration": 0.3930912666666586
        },
        {
          "name": "D4",
          "midi": 62,
          "time": 227.36793600000814,
          "velocity": 0.7559055118110236,
          "duration": 0.7878272666666533
        },
        {
          "name": "G4",
          "midi": 67,
          "time": 228.15740800000813,
          "velocity": 0.7559055118110236,
          "duration": 0.7878272666666533
        },
        {
          "name": "E4",
          "midi": 64,
          "time": 228.94688000000812,
          "velocity": 0.7559055118110236,
          "duration": 0.7878272666666533
        },
        {
          "name": "F4",
          "midi": 65,
          "time": 229.7363520000081,
          "velocity": 0.7559055118110236,
          "duration": 0.7878272666666533
        },
        {
          "name": "E4",
          "midi": 64,
          "time": 230.5258240000081,
          "velocity": 0.7559055118110236,
          "duration": 1.577299266666671
        },
        {
          "name": "F3",
          "midi": 53,
          "time": 232.1047680000081,
          "velocity": 1,
          "duration": 0.3930912666669997
        },
        {
          "name": "F3",
          "midi": 53,
          "time": 232.49950400000844,
          "velocity": 0.7559055118110236,
          "duration": 0.1957232666666755
        },
        {
          "name": "F3",
          "midi": 53,
          "time": 233.28897600000846,
          "velocity": 0.7559055118110236,
          "duration": 0.1957232666666755
        },
        {
          "name": "F3",
          "midi": 53,
          "time": 233.68371200000846,
          "velocity": 1,
          "duration": 0.3930912666669997
        },
        {
          "name": "F3",
          "midi": 53,
          "time": 234.0784480000088,
          "velocity": 0.7559055118110236,
          "duration": 0.1957232666666755
        },
        {
          "name": "F3",
          "midi": 53,
          "time": 234.8679200000088,
          "velocity": 0.7559055118110236,
          "duration": 0.1957232666666755
        },
        {
          "name": "E3",
          "midi": 52,
          "time": 236.8416000000088,
          "velocity": 1,
          "duration": 0.7878272666669943
        }
      ],
      "controlChanges": {
        "2": [
          {
            "number": 2,
            "time": 3.157888,
            "value": 0.3858267716535433
          },
          {
            "number": 2,
            "time": 3.9473599999999998,
            "value": 0.3858267716535433
          },
          {
            "number": 2,
            "time": 5.131568,
            "value": 0.3858267716535433
          },
          {
            "number": 2,
            "time": 6.315776,
            "value": 0.5039370078740157
          },
          {
            "number": 2,
            "time": 7.105248,
            "value": 0.5039370078740157
          },
          {
            "number": 2,
            "time": 8.684192,
            "value": 0.5039370078740157
          },
          {
            "number": 2,
            "time": 9.8684,
            "value": 0.5039370078740157
          },
          {
            "number": 2,
            "time": 11.447344,
            "value": 0.5039370078740157
          },
          {
            "number": 2,
            "time": 13.026288,
            "value": 0.5039370078740157
          },
          {
            "number": 2,
            "time": 13.815759999999997,
            "value": 0.5039370078740157
          },
          {
            "number": 2,
            "time": 14.605231999999997,
            "value": 0.5039370078740157
          },
          {
            "number": 2,
            "time": 16.184175999999997,
            "value": 0.5039370078740157
          },
          {
            "number": 2,
            "time": 16.578911999999995,
            "value": 0.5039370078740157
          },
          {
            "number": 2,
            "time": 17.763119999999997,
            "value": 0.5039370078740157
          },
          {
            "number": 2,
            "time": 18.157855999999995,
            "value": 0.5039370078740157
          },
          {
            "number": 2,
            "time": 18.94732799999999,
            "value": 0.5039370078740157
          },
          {
            "number": 2,
            "time": 19.34206399999999,
            "value": 0.5039370078740157
          },
          {
            "number": 2,
            "time": 19.736799999999988,
            "value": 0.5039370078740157
          },
          {
            "number": 2,
            "time": 20.526271999999985,
            "value": 0.5039370078740157
          },
          {
            "number": 2,
            "time": 22.49995199999998,
            "value": 0.5039370078740157
          },
          {
            "number": 2,
            "time": 24.07889599999998,
            "value": 0.5039370078740157
          },
          {
            "number": 2,
            "time": 25.65783999999998,
            "value": 0.5039370078740157
          },
          {
            "number": 2,
            "time": 26.052575999999977,
            "value": 0.5039370078740157
          },
          {
            "number": 2,
            "time": 26.447311999999975,
            "value": 0.5039370078740157
          },
          {
            "number": 2,
            "time": 27.236783999999975,
            "value": 0.5039370078740157
          },
          {
            "number": 2,
            "time": 28.420991999999973,
            "value": 0.5039370078740157
          },
          {
            "number": 2,
            "time": 28.569017999999975,
            "value": 0.5118110236220472
          },
          {
            "number": 2,
            "time": 28.717043999999976,
            "value": 0.5196850393700787
          },
          {
            "number": 2,
            "time": 28.815727999999975,
            "value": 0.5196850393700787
          },
          {
            "number": 2,
            "time": 28.865069999999974,
            "value": 0.5275590551181102
          },
          {
            "number": 2,
            "time": 29.013095999999976,
            "value": 0.5354330708661418
          },
          {
            "number": 2,
            "time": 29.161121999999978,
            "value": 0.5433070866141733
          },
          {
            "number": 2,
            "time": 29.210463999999977,
            "value": 0.5433070866141733
          },
          {
            "number": 2,
            "time": 29.309147999999976,
            "value": 0.5511811023622047
          },
          {
            "number": 2,
            "time": 29.457173999999977,
            "value": 0.5590551181102362
          },
          {
            "number": 2,
            "time": 29.605199999999975,
            "value": 0.5669291338582677
          },
          {
            "number": 2,
            "time": 29.753225999999977,
            "value": 0.5748031496062992
          },
          {
            "number": 2,
            "time": 29.901251999999978,
            "value": 0.5826771653543307
          },
          {
            "number": 2,
            "time": 29.999935999999977,
            "value": 0.5826771653543307
          },
          {
            "number": 2,
            "time": 30.049277999999976,
            "value": 0.5905511811023622
          },
          {
            "number": 2,
            "time": 30.197303999999978,
            "value": 0.5984251968503937
          },
          {
            "number": 2,
            "time": 30.34532999999998,
            "value": 0.6062992125984252
          },
          {
            "number": 2,
            "time": 30.493355999999977,
            "value": 0.6141732283464567
          },
          {
            "number": 2,
            "time": 30.64138199999998,
            "value": 0.6220472440944882
          },
          {
            "number": 2,
            "time": 30.789407999999977,
            "value": 0.6299212598425197
          },
          {
            "number": 2,
            "time": 31.578879999999977,
            "value": 0.6299212598425197
          },
          {
            "number": 2,
            "time": 31.578879999999977,
            "value": 0.6299212598425197
          },
          {
            "number": 2,
            "time": 35.13150399999999,
            "value": 0.6299212598425197
          },
          {
            "number": 2,
            "time": 35.526239999999994,
            "value": 0.6299212598425197
          },
          {
            "number": 2,
            "time": 35.920975999999996,
            "value": 0.6299212598425197
          },
          {
            "number": 2,
            "time": 36.315712,
            "value": 0.6299212598425197
          },
          {
            "number": 2,
            "time": 37.49992,
            "value": 0.6299212598425197
          },
          {
            "number": 2,
            "time": 37.894656000000005,
            "value": 0.6299212598425197
          },
          {
            "number": 2,
            "time": 37.94399800000001,
            "value": 0.6220472440944882
          },
          {
            "number": 2,
            "time": 37.99334000000001,
            "value": 0.6141732283464567
          },
          {
            "number": 2,
            "time": 38.04268200000001,
            "value": 0.6062992125984252
          },
          {
            "number": 2,
            "time": 38.092024000000016,
            "value": 0.5984251968503937
          },
          {
            "number": 2,
            "time": 38.14136600000002,
            "value": 0.5905511811023622
          },
          {
            "number": 2,
            "time": 38.19070800000002,
            "value": 0.5826771653543307
          },
          {
            "number": 2,
            "time": 38.240050000000025,
            "value": 0.5748031496062992
          },
          {
            "number": 2,
            "time": 38.28939200000003,
            "value": 0.5669291338582677
          },
          {
            "number": 2,
            "time": 38.33873400000003,
            "value": 0.5590551181102362
          },
          {
            "number": 2,
            "time": 38.388076000000034,
            "value": 0.5511811023622047
          },
          {
            "number": 2,
            "time": 38.43741800000004,
            "value": 0.5433070866141733
          },
          {
            "number": 2,
            "time": 38.48676000000004,
            "value": 0.5354330708661418
          },
          {
            "number": 2,
            "time": 38.53610200000004,
            "value": 0.5275590551181102
          },
          {
            "number": 2,
            "time": 38.585444000000045,
            "value": 0.5196850393700787
          },
          {
            "number": 2,
            "time": 38.63478600000005,
            "value": 0.5118110236220472
          },
          {
            "number": 2,
            "time": 38.68412800000005,
            "value": 0.5039370078740157
          },
          {
            "number": 2,
            "time": 41.052544000000054,
            "value": 0.5039370078740157
          },
          {
            "number": 2,
            "time": 44.210432000000054,
            "value": 0.5039370078740157
          },
          {
            "number": 2,
            "time": 44.99990400000006,
            "value": 0.5039370078740157
          },
          {
            "number": 2,
            "time": 47.36832000000006,
            "value": 0.5039370078740157
          },
          {
            "number": 2,
            "time": 47.46700400000006,
            "value": 0.5118110236220472
          },
          {
            "number": 2,
            "time": 47.56568800000006,
            "value": 0.5196850393700787
          },
          {
            "number": 2,
            "time": 47.66437200000006,
            "value": 0.5275590551181102
          },
          {
            "number": 2,
            "time": 47.76305600000006,
            "value": 0.5354330708661418
          },
          {
            "number": 2,
            "time": 47.86174000000006,
            "value": 0.5433070866141733
          },
          {
            "number": 2,
            "time": 47.96042400000006,
            "value": 0.5511811023622047
          },
          {
            "number": 2,
            "time": 48.05910800000006,
            "value": 0.5590551181102362
          },
          {
            "number": 2,
            "time": 48.157792000000065,
            "value": 0.5669291338582677
          },
          {
            "number": 2,
            "time": 48.25647600000006,
            "value": 0.5748031496062992
          },
          {
            "number": 2,
            "time": 48.35516000000006,
            "value": 0.5826771653543307
          },
          {
            "number": 2,
            "time": 48.45384400000006,
            "value": 0.5905511811023622
          },
          {
            "number": 2,
            "time": 48.55252800000006,
            "value": 0.5984251968503937
          },
          {
            "number": 2,
            "time": 48.65121200000006,
            "value": 0.6062992125984252
          },
          {
            "number": 2,
            "time": 48.74989600000006,
            "value": 0.6141732283464567
          },
          {
            "number": 2,
            "time": 48.848580000000055,
            "value": 0.6220472440944882
          },
          {
            "number": 2,
            "time": 48.94726400000006,
            "value": 0.6299212598425197
          },
          {
            "number": 2,
            "time": 50.52620800000006,
            "value": 0.6299212598425197
          },
          {
            "number": 2,
            "time": 53.68409600000006,
            "value": 0.6299212598425197
          },
          {
            "number": 2,
            "time": 53.88146400000006,
            "value": 0.6220472440944882
          },
          {
            "number": 2,
            "time": 54.078832000000055,
            "value": 0.6141732283464567
          },
          {
            "number": 2,
            "time": 54.27620000000005,
            "value": 0.6062992125984252
          },
          {
            "number": 2,
            "time": 54.47356800000005,
            "value": 0.5984251968503937
          },
          {
            "number": 2,
            "time": 54.67093600000005,
            "value": 0.5905511811023622
          },
          {
            "number": 2,
            "time": 54.868304000000045,
            "value": 0.5826771653543307
          },
          {
            "number": 2,
            "time": 55.06567200000004,
            "value": 0.5748031496062992
          },
          {
            "number": 2,
            "time": 55.26304000000004,
            "value": 0.5669291338582677
          },
          {
            "number": 2,
            "time": 55.46040800000004,
            "value": 0.5590551181102362
          },
          {
            "number": 2,
            "time": 55.657776000000034,
            "value": 0.5511811023622047
          },
          {
            "number": 2,
            "time": 55.85514400000003,
            "value": 0.5433070866141733
          },
          {
            "number": 2,
            "time": 56.05251200000003,
            "value": 0.5354330708661418
          },
          {
            "number": 2,
            "time": 56.249880000000026,
            "value": 0.5275590551181102
          },
          {
            "number": 2,
            "time": 56.44724800000002,
            "value": 0.5196850393700787
          },
          {
            "number": 2,
            "time": 56.64461600000002,
            "value": 0.5118110236220472
          },
          {
            "number": 2,
            "time": 56.841984000000025,
            "value": 0.5039370078740157
          },
          {
            "number": 2,
            "time": 59.999872000000025,
            "value": 0.5039370078740157
          },
          {
            "number": 2,
            "time": 61.578816000000025,
            "value": 0.5039370078740157
          },
          {
            "number": 2,
            "time": 63.157760000000025,
            "value": 0.5039370078740157
          },
          {
            "number": 2,
            "time": 63.94723200000003,
            "value": 0.5039370078740157
          },
          {
            "number": 2,
            "time": 64.34196800000004,
            "value": 0.5039370078740157
          },
          {
            "number": 2,
            "time": 64.73670400000003,
            "value": 0.5039370078740157
          },
          {
            "number": 2,
            "time": 65.92091200000003,
            "value": 0.5039370078740157
          },
          {
            "number": 2,
            "time": 66.31564800000004,
            "value": 0.5039370078740157
          },
          {
            "number": 2,
            "time": 66.71038400000005,
            "value": 0.5039370078740157
          },
          {
            "number": 2,
            "time": 67.10512000000006,
            "value": 0.5039370078740157
          },
          {
            "number": 2,
            "time": 67.49985600000007,
            "value": 0.5039370078740157
          },
          {
            "number": 2,
            "time": 67.89459200000007,
            "value": 0.5039370078740157
          },
          {
            "number": 2,
            "time": 69.47353600000008,
            "value": 0.5039370078740157
          },
          {
            "number": 2,
            "time": 70.26300800000008,
            "value": 0.5039370078740157
          },
          {
            "number": 2,
            "time": 71.05248000000009,
            "value": 0.5039370078740157
          },
          {
            "number": 2,
            "time": 72.6314240000001,
            "value": 0.6299212598425197
          },
          {
            "number": 2,
            "time": 73.4208960000001,
            "value": 0.6299212598425197
          },
          {
            "number": 2,
            "time": 74.2103680000001,
            "value": 0.6299212598425197
          },
          {
            "number": 2,
            "time": 74.9998400000001,
            "value": 0.6299212598425197
          },
          {
            "number": 2,
            "time": 75.39457600000011,
            "value": 0.6299212598425197
          },
          {
            "number": 2,
            "time": 75.78931200000012,
            "value": 0.6299212598425197
          },
          {
            "number": 2,
            "time": 76.18404800000013,
            "value": 0.6299212598425197
          },
          {
            "number": 2,
            "time": 76.57878400000014,
            "value": 0.6299212598425197
          },
          {
            "number": 2,
            "time": 76.97352000000015,
            "value": 0.6299212598425197
          },
          {
            "number": 2,
            "time": 77.36825600000014,
            "value": 0.6299212598425197
          },
          {
            "number": 2,
            "time": 77.76299200000015,
            "value": 0.6299212598425197
          },
          {
            "number": 2,
            "time": 78.15772800000016,
            "value": 0.6299212598425197
          },
          {
            "number": 2,
            "time": 78.94720000000017,
            "value": 0.5039370078740157
          },
          {
            "number": 2,
            "time": 80.52614400000017,
            "value": 0.5039370078740157
          },
          {
            "number": 2,
            "time": 82.10508800000018,
            "value": 0.5039370078740157
          },
          {
            "number": 2,
            "time": 85.26297600000018,
            "value": 0.6299212598425197
          },
          {
            "number": 2,
            "time": 85.55902800000018,
            "value": 0.6220472440944882
          },
          {
            "number": 2,
            "time": 85.85508000000019,
            "value": 0.6141732283464567
          },
          {
            "number": 2,
            "time": 86.15113200000019,
            "value": 0.6062992125984252
          },
          {
            "number": 2,
            "time": 86.44718400000019,
            "value": 0.5984251968503937
          },
          {
            "number": 2,
            "time": 86.7432360000002,
            "value": 0.5905511811023622
          },
          {
            "number": 2,
            "time": 86.8419200000002,
            "value": 0.5905511811023622
          },
          {
            "number": 2,
            "time": 87.0392880000002,
            "value": 0.5826771653543307
          },
          {
            "number": 2,
            "time": 87.3353400000002,
            "value": 0.5748031496062992
          },
          {
            "number": 2,
            "time": 87.6313920000002,
            "value": 0.5669291338582677
          },
          {
            "number": 2,
            "time": 87.92744400000021,
            "value": 0.5590551181102362
          },
          {
            "number": 2,
            "time": 88.22349600000021,
            "value": 0.5511811023622047
          },
          {
            "number": 2,
            "time": 88.42086400000021,
            "value": 0.5511811023622047
          },
          {
            "number": 2,
            "time": 88.51954800000021,
            "value": 0.5433070866141733
          },
          {
            "number": 2,
            "time": 88.81560000000022,
            "value": 0.5354330708661418
          },
          {
            "number": 2,
            "time": 89.11165200000022,
            "value": 0.5275590551181102
          },
          {
            "number": 2,
            "time": 89.40770400000022,
            "value": 0.5196850393700787
          },
          {
            "number": 2,
            "time": 89.70375600000023,
            "value": 0.5118110236220472
          },
          {
            "number": 2,
            "time": 89.99980800000023,
            "value": 0.5039370078740157
          },
          {
            "number": 2,
            "time": 91.57875200000024,
            "value": 0.5039370078740157
          },
          {
            "number": 2,
            "time": 91.77612000000023,
            "value": 0.5118110236220472
          },
          {
            "number": 2,
            "time": 91.97348800000023,
            "value": 0.5196850393700787
          },
          {
            "number": 2,
            "time": 92.17085600000023,
            "value": 0.5275590551181102
          },
          {
            "number": 2,
            "time": 92.36822400000023,
            "value": 0.5354330708661418
          },
          {
            "number": 2,
            "time": 92.56559200000022,
            "value": 0.5433070866141733
          },
          {
            "number": 2,
            "time": 92.76296000000022,
            "value": 0.5511811023622047
          },
          {
            "number": 2,
            "time": 92.96032800000022,
            "value": 0.5590551181102362
          },
          {
            "number": 2,
            "time": 93.15769600000021,
            "value": 0.5669291338582677
          },
          {
            "number": 2,
            "time": 93.35506400000021,
            "value": 0.5748031496062992
          },
          {
            "number": 2,
            "time": 93.55243200000021,
            "value": 0.5826771653543307
          },
          {
            "number": 2,
            "time": 93.7498000000002,
            "value": 0.5905511811023622
          },
          {
            "number": 2,
            "time": 93.9471680000002,
            "value": 0.5984251968503937
          },
          {
            "number": 2,
            "time": 94.1445360000002,
            "value": 0.6062992125984252
          },
          {
            "number": 2,
            "time": 94.3419040000002,
            "value": 0.6141732283464567
          },
          {
            "number": 2,
            "time": 94.5392720000002,
            "value": 0.6220472440944882
          },
          {
            "number": 2,
            "time": 94.7366400000002,
            "value": 0.6299212598425197
          },
          {
            "number": 2,
            "time": 98.28926400000019,
            "value": 0.7559055118110236
          },
          {
            "number": 2,
            "time": 98.6840000000002,
            "value": 0.7559055118110236
          },
          {
            "number": 2,
            "time": 99.0787360000002,
            "value": 0.7559055118110236
          },
          {
            "number": 2,
            "time": 99.47347200000021,
            "value": 0.7559055118110236
          },
          {
            "number": 2,
            "time": 100.26294400000022,
            "value": 0.7559055118110236
          },
          {
            "number": 2,
            "time": 101.05241600000022,
            "value": 0.7559055118110236
          },
          {
            "number": 2,
            "time": 102.63136000000023,
            "value": 0.7559055118110236
          },
          {
            "number": 2,
            "time": 103.42083200000023,
            "value": 0.7559055118110236
          },
          {
            "number": 2,
            "time": 104.21030400000024,
            "value": 0.7559055118110236
          },
          {
            "number": 2,
            "time": 107.76292800000023,
            "value": 0.7559055118110236
          },
          {
            "number": 2,
            "time": 108.15766400000024,
            "value": 0.7559055118110236
          },
          {
            "number": 2,
            "time": 108.55240000000025,
            "value": 0.7559055118110236
          },
          {
            "number": 2,
            "time": 108.94713600000026,
            "value": 0.7559055118110236
          },
          {
            "number": 2,
            "time": 109.73660800000026,
            "value": 0.7559055118110236
          },
          {
            "number": 2,
            "time": 110.52608000000026,
            "value": 0.7559055118110236
          },
          {
            "number": 2,
            "time": 111.31555200000027,
            "value": 1
          },
          {
            "number": 2,
            "time": 111.3862755333336,
            "value": 0.9921259842519685
          },
          {
            "number": 2,
            "time": 111.3912097333336,
            "value": 0.984251968503937
          },
          {
            "number": 2,
            "time": 111.39449920000027,
            "value": 0.9763779527559056
          },
          {
            "number": 2,
            "time": 111.39943340000026,
            "value": 0.968503937007874
          },
          {
            "number": 2,
            "time": 111.40272286666693,
            "value": 0.9606299212598425
          },
          {
            "number": 2,
            "time": 111.40765706666693,
            "value": 0.952755905511811
          },
          {
            "number": 2,
            "time": 111.4109465333336,
            "value": 0.9448818897637795
          },
          {
            "number": 2,
            "time": 111.4158807333336,
            "value": 0.937007874015748
          },
          {
            "number": 2,
            "time": 111.41917020000027,
            "value": 0.9291338582677166
          },
          {
            "number": 2,
            "time": 111.42410440000026,
            "value": 0.9212598425196851
          },
          {
            "number": 2,
            "time": 111.42739386666693,
            "value": 0.9133858267716536
          },
          {
            "number": 2,
            "time": 111.43232806666693,
            "value": 0.905511811023622
          },
          {
            "number": 2,
            "time": 111.4356175333336,
            "value": 0.8976377952755905
          },
          {
            "number": 2,
            "time": 111.44055173333359,
            "value": 0.889763779527559
          },
          {
            "number": 2,
            "time": 111.44384120000026,
            "value": 0.8818897637795275
          },
          {
            "number": 2,
            "time": 111.44877540000026,
            "value": 0.8740157480314961
          },
          {
            "number": 2,
            "time": 111.45206486666693,
            "value": 0.8661417322834646
          },
          {
            "number": 2,
            "time": 111.45699906666692,
            "value": 0.8582677165354331
          },
          {
            "number": 2,
            "time": 111.4602885333336,
            "value": 0.8503937007874016
          },
          {
            "number": 2,
            "time": 111.46522273333359,
            "value": 0.84251968503937
          },
          {
            "number": 2,
            "time": 111.46851220000026,
            "value": 0.8346456692913385
          },
          {
            "number": 2,
            "time": 111.47344640000026,
            "value": 0.8267716535433071
          },
          {
            "number": 2,
            "time": 111.47673586666693,
            "value": 0.8188976377952756
          },
          {
            "number": 2,
            "time": 111.48167006666692,
            "value": 0.8110236220472441
          },
          {
            "number": 2,
            "time": 111.4849595333336,
            "value": 0.8031496062992126
          },
          {
            "number": 2,
            "time": 111.48989373333359,
            "value": 0.7952755905511811
          },
          {
            "number": 2,
            "time": 111.49318320000026,
            "value": 0.7874015748031497
          },
          {
            "number": 2,
            "time": 111.49811740000025,
            "value": 0.7795275590551181
          },
          {
            "number": 2,
            "time": 111.50140686666693,
            "value": 0.7716535433070866
          },
          {
            "number": 2,
            "time": 111.50634106666692,
            "value": 0.7637795275590551
          },
          {
            "number": 2,
            "time": 111.50963053333359,
            "value": 0.7559055118110236
          },
          {
            "number": 2,
            "time": 113.68396800000026,
            "value": 0.7559055118110236
          },
          {
            "number": 2,
            "time": 113.75798100000026,
            "value": 0.7480314960629921
          },
          {
            "number": 2,
            "time": 113.83199400000025,
            "value": 0.7401574803149606
          },
          {
            "number": 2,
            "time": 113.90600700000024,
            "value": 0.7322834645669292
          },
          {
            "number": 2,
            "time": 113.98002000000024,
            "value": 0.7244094488188977
          },
          {
            "number": 2,
            "time": 114.05403300000023,
            "value": 0.7165354330708661
          },
          {
            "number": 2,
            "time": 114.12804600000023,
            "value": 0.7086614173228346
          },
          {
            "number": 2,
            "time": 114.20205900000022,
            "value": 0.7007874015748031
          },
          {
            "number": 2,
            "time": 114.27607200000021,
            "value": 0.6929133858267716
          },
          {
            "number": 2,
            "time": 114.3500850000002,
            "value": 0.6850393700787402
          },
          {
            "number": 2,
            "time": 114.4240980000002,
            "value": 0.6771653543307087
          },
          {
            "number": 2,
            "time": 114.4981110000002,
            "value": 0.6692913385826772
          },
          {
            "number": 2,
            "time": 114.57212400000019,
            "value": 0.6614173228346457
          },
          {
            "number": 2,
            "time": 114.64613700000018,
            "value": 0.6535433070866141
          },
          {
            "number": 2,
            "time": 114.72015000000017,
            "value": 0.6456692913385826
          },
          {
            "number": 2,
            "time": 114.79416300000017,
            "value": 0.6377952755905512
          },
          {
            "number": 2,
            "time": 114.86817600000018,
            "value": 0.6299212598425197
          },
          {
            "number": 2,
            "time": 114.94218900000017,
            "value": 0.6220472440944882
          },
          {
            "number": 2,
            "time": 115.01620200000016,
            "value": 0.6141732283464567
          },
          {
            "number": 2,
            "time": 115.09021500000016,
            "value": 0.6062992125984252
          },
          {
            "number": 2,
            "time": 115.16422800000015,
            "value": 0.5984251968503937
          },
          {
            "number": 2,
            "time": 115.23824100000014,
            "value": 0.5905511811023622
          },
          {
            "number": 2,
            "time": 115.31225400000014,
            "value": 0.5826771653543307
          },
          {
            "number": 2,
            "time": 115.38626700000013,
            "value": 0.5748031496062992
          },
          {
            "number": 2,
            "time": 115.46028000000013,
            "value": 0.5669291338582677
          },
          {
            "number": 2,
            "time": 115.53429300000012,
            "value": 0.5590551181102362
          },
          {
            "number": 2,
            "time": 115.60830600000011,
            "value": 0.5511811023622047
          },
          {
            "number": 2,
            "time": 115.6823190000001,
            "value": 0.5433070866141733
          },
          {
            "number": 2,
            "time": 115.7563320000001,
            "value": 0.5354330708661418
          },
          {
            "number": 2,
            "time": 115.8303450000001,
            "value": 0.5275590551181102
          },
          {
            "number": 2,
            "time": 115.90435800000009,
            "value": 0.5196850393700787
          },
          {
            "number": 2,
            "time": 115.97837100000008,
            "value": 0.5118110236220472
          },
          {
            "number": 2,
            "time": 116.05238400000007,
            "value": 0.5039370078740157
          },
          {
            "number": 2,
            "time": 117.23659200000007,
            "value": 0.5039370078740157
          },
          {
            "number": 2,
            "time": 118.81553600000008,
            "value": 0.5039370078740157
          },
          {
            "number": 2,
            "time": 120.39448000000009,
            "value": 0.5039370078740157
          },
          {
            "number": 2,
            "time": 121.5786880000001,
            "value": 0.5039370078740157
          },
          {
            "number": 2,
            "time": 121.61651686666677,
            "value": 0.5118110236220472
          },
          {
            "number": 2,
            "time": 121.6527010000001,
            "value": 0.5196850393700787
          },
          {
            "number": 2,
            "time": 121.69052986666678,
            "value": 0.5275590551181102
          },
          {
            "number": 2,
            "time": 121.72671400000011,
            "value": 0.5354330708661418
          },
          {
            "number": 2,
            "time": 121.76454286666679,
            "value": 0.5433070866141733
          },
          {
            "number": 2,
            "time": 121.80072700000012,
            "value": 0.5511811023622047
          },
          {
            "number": 2,
            "time": 121.8385558666668,
            "value": 0.5590551181102362
          },
          {
            "number": 2,
            "time": 121.87474000000013,
            "value": 0.5669291338582677
          },
          {
            "number": 2,
            "time": 121.9125688666668,
            "value": 0.5748031496062992
          },
          {
            "number": 2,
            "time": 121.94875300000014,
            "value": 0.5826771653543307
          },
          {
            "number": 2,
            "time": 121.98658186666681,
            "value": 0.5905511811023622
          },
          {
            "number": 2,
            "time": 122.02276600000015,
            "value": 0.5984251968503937
          },
          {
            "number": 2,
            "time": 122.06059486666682,
            "value": 0.6062992125984252
          },
          {
            "number": 2,
            "time": 122.09677900000015,
            "value": 0.6141732283464567
          },
          {
            "number": 2,
            "time": 122.13460786666683,
            "value": 0.6220472440944882
          },
          {
            "number": 2,
            "time": 122.17079200000016,
            "value": 0.6299212598425197
          },
          {
            "number": 2,
            "time": 122.20862086666683,
            "value": 0.6377952755905512
          },
          {
            "number": 2,
            "time": 122.24480500000017,
            "value": 0.6456692913385826
          },
          {
            "number": 2,
            "time": 122.28263386666684,
            "value": 0.6535433070866141
          },
          {
            "number": 2,
            "time": 122.31881800000018,
            "value": 0.6614173228346457
          },
          {
            "number": 2,
            "time": 122.35664686666685,
            "value": 0.6692913385826772
          },
          {
            "number": 2,
            "time": 122.36816000000019,
            "value": 0.6692913385826772
          },
          {
            "number": 2,
            "time": 122.39283100000019,
            "value": 0.6771653543307087
          },
          {
            "number": 2,
            "time": 122.43065986666686,
            "value": 0.6850393700787402
          },
          {
            "number": 2,
            "time": 122.4668440000002,
            "value": 0.6929133858267716
          },
          {
            "number": 2,
            "time": 122.50467286666687,
            "value": 0.7007874015748031
          },
          {
            "number": 2,
            "time": 122.5408570000002,
            "value": 0.7086614173228346
          },
          {
            "number": 2,
            "time": 122.57868586666687,
            "value": 0.7165354330708661
          },
          {
            "number": 2,
            "time": 122.61487000000021,
            "value": 0.7244094488188977
          },
          {
            "number": 2,
            "time": 122.65269886666688,
            "value": 0.7322834645669292
          },
          {
            "number": 2,
            "time": 122.68888300000022,
            "value": 0.7401574803149606
          },
          {
            "number": 2,
            "time": 122.72671186666689,
            "value": 0.7480314960629921
          },
          {
            "number": 2,
            "time": 122.76289600000023,
            "value": 0.7559055118110236
          },
          {
            "number": 2,
            "time": 123.15763200000023,
            "value": 0.7559055118110236
          },
          {
            "number": 2,
            "time": 124.73657600000024,
            "value": 0.7559055118110236
          },
          {
            "number": 2,
            "time": 125.92078400000024,
            "value": 0.7559055118110236
          },
          {
            "number": 2,
            "time": 126.31552000000025,
            "value": 1
          },
          {
            "number": 2,
            "time": 126.31716473333358,
            "value": 1
          },
          {
            "number": 2,
            "time": 126.31880946666692,
            "value": 1
          },
          {
            "number": 2,
            "time": 126.32045420000026,
            "value": 1
          },
          {
            "number": 2,
            "time": 126.32209893333359,
            "value": 1
          },
          {
            "number": 2,
            "time": 126.32374366666693,
            "value": 1
          },
          {
            "number": 2,
            "time": 126.32538840000026,
            "value": 1
          },
          {
            "number": 2,
            "time": 126.3270331333336,
            "value": 1
          },
          {
            "number": 2,
            "time": 126.32867786666694,
            "value": 1
          },
          {
            "number": 2,
            "time": 126.33032260000027,
            "value": 1
          },
          {
            "number": 2,
            "time": 126.33196733333361,
            "value": 1
          },
          {
            "number": 2,
            "time": 126.33361206666694,
            "value": 1
          },
          {
            "number": 2,
            "time": 126.33525680000028,
            "value": 1
          },
          {
            "number": 2,
            "time": 126.33690153333362,
            "value": 1
          },
          {
            "number": 2,
            "time": 126.33854626666695,
            "value": 1
          },
          {
            "number": 2,
            "time": 126.34019100000029,
            "value": 1
          },
          {
            "number": 2,
            "time": 126.34183573333362,
            "value": 1
          },
          {
            "number": 2,
            "time": 126.34348046666696,
            "value": 1
          },
          {
            "number": 2,
            "time": 126.3451252000003,
            "value": 1
          },
          {
            "number": 2,
            "time": 126.34676993333363,
            "value": 1
          },
          {
            "number": 2,
            "time": 126.34841466666697,
            "value": 1
          },
          {
            "number": 2,
            "time": 126.3500594000003,
            "value": 1
          },
          {
            "number": 2,
            "time": 126.35170413333364,
            "value": 1
          },
          {
            "number": 2,
            "time": 126.35334886666698,
            "value": 1
          },
          {
            "number": 2,
            "time": 126.35499360000031,
            "value": 1
          },
          {
            "number": 2,
            "time": 126.35663833333365,
            "value": 1
          },
          {
            "number": 2,
            "time": 126.35828306666698,
            "value": 1
          },
          {
            "number": 2,
            "time": 126.35992780000032,
            "value": 1
          },
          {
            "number": 2,
            "time": 126.36157253333366,
            "value": 1
          },
          {
            "number": 2,
            "time": 126.363217266667,
            "value": 1
          },
          {
            "number": 2,
            "time": 126.36486200000033,
            "value": 1
          },
          {
            "number": 2,
            "time": 126.36650673333367,
            "value": 1
          },
          {
            "number": 2,
            "time": 126.368151466667,
            "value": 1
          },
          {
            "number": 2,
            "time": 126.36979620000034,
            "value": 1
          },
          {
            "number": 2,
            "time": 126.37144093333367,
            "value": 1
          },
          {
            "number": 2,
            "time": 126.37308566666701,
            "value": 1
          },
          {
            "number": 2,
            "time": 126.37473040000035,
            "value": 1
          },
          {
            "number": 2,
            "time": 126.37637513333368,
            "value": 1
          },
          {
            "number": 2,
            "time": 126.37801986666702,
            "value": 1
          },
          {
            "number": 2,
            "time": 126.37966460000035,
            "value": 1
          },
          {
            "number": 2,
            "time": 126.38130933333369,
            "value": 1
          },
          {
            "number": 2,
            "time": 126.38295406666703,
            "value": 1
          },
          {
            "number": 2,
            "time": 126.38459880000036,
            "value": 1
          },
          {
            "number": 2,
            "time": 126.3862435333337,
            "value": 0.9921259842519685
          },
          {
            "number": 2,
            "time": 126.38788826666703,
            "value": 0.9921259842519685
          },
          {
            "number": 2,
            "time": 126.38953300000037,
            "value": 0.9921259842519685
          },
          {
            "number": 2,
            "time": 126.3911777333337,
            "value": 0.984251968503937
          },
          {
            "number": 2,
            "time": 126.39282246666704,
            "value": 0.984251968503937
          },
          {
            "number": 2,
            "time": 126.39446720000038,
            "value": 0.9763779527559056
          },
          {
            "number": 2,
            "time": 126.39611193333371,
            "value": 0.9763779527559056
          },
          {
            "number": 2,
            "time": 126.39775666666705,
            "value": 0.9763779527559056
          },
          {
            "number": 2,
            "time": 126.39940140000039,
            "value": 0.968503937007874
          },
          {
            "number": 2,
            "time": 126.40104613333372,
            "value": 0.968503937007874
          },
          {
            "number": 2,
            "time": 126.40269086666706,
            "value": 0.9606299212598425
          },
          {
            "number": 2,
            "time": 126.4043356000004,
            "value": 0.9606299212598425
          },
          {
            "number": 2,
            "time": 126.40598033333373,
            "value": 0.9606299212598425
          },
          {
            "number": 2,
            "time": 126.40762506666707,
            "value": 0.952755905511811
          },
          {
            "number": 2,
            "time": 126.4092698000004,
            "value": 0.952755905511811
          },
          {
            "number": 2,
            "time": 126.41091453333374,
            "value": 0.9448818897637795
          },
          {
            "number": 2,
            "time": 126.41255926666707,
            "value": 0.9448818897637795
          },
          {
            "number": 2,
            "time": 126.41420400000041,
            "value": 0.9448818897637795
          },
          {
            "number": 2,
            "time": 126.41584873333375,
            "value": 0.937007874015748
          },
          {
            "number": 2,
            "time": 126.41749346666708,
            "value": 0.937007874015748
          },
          {
            "number": 2,
            "time": 126.41913820000042,
            "value": 0.9291338582677166
          },
          {
            "number": 2,
            "time": 126.42078293333375,
            "value": 0.9291338582677166
          },
          {
            "number": 2,
            "time": 126.42242766666709,
            "value": 0.9291338582677166
          },
          {
            "number": 2,
            "time": 126.42407240000043,
            "value": 0.9212598425196851
          },
          {
            "number": 2,
            "time": 126.42571713333376,
            "value": 0.9212598425196851
          },
          {
            "number": 2,
            "time": 126.4273618666671,
            "value": 0.9133858267716536
          },
          {
            "number": 2,
            "time": 126.42900660000043,
            "value": 0.9133858267716536
          },
          {
            "number": 2,
            "time": 126.43065133333377,
            "value": 0.9133858267716536
          },
          {
            "number": 2,
            "time": 126.4322960666671,
            "value": 0.905511811023622
          },
          {
            "number": 2,
            "time": 126.43394080000044,
            "value": 0.905511811023622
          },
          {
            "number": 2,
            "time": 126.43558553333378,
            "value": 0.8976377952755905
          },
          {
            "number": 2,
            "time": 126.43723026666711,
            "value": 0.8976377952755905
          },
          {
            "number": 2,
            "time": 126.43887500000045,
            "value": 0.8976377952755905
          },
          {
            "number": 2,
            "time": 126.44051973333379,
            "value": 0.889763779527559
          },
          {
            "number": 2,
            "time": 126.44216446666712,
            "value": 0.889763779527559
          },
          {
            "number": 2,
            "time": 126.44380920000046,
            "value": 0.8818897637795275
          },
          {
            "number": 2,
            "time": 126.4454539333338,
            "value": 0.8818897637795275
          },
          {
            "number": 2,
            "time": 126.44709866666713,
            "value": 0.8818897637795275
          },
          {
            "number": 2,
            "time": 126.44874340000047,
            "value": 0.8740157480314961
          },
          {
            "number": 2,
            "time": 126.4503881333338,
            "value": 0.8740157480314961
          },
          {
            "number": 2,
            "time": 126.45203286666714,
            "value": 0.8661417322834646
          },
          {
            "number": 2,
            "time": 126.45367760000047,
            "value": 0.8661417322834646
          },
          {
            "number": 2,
            "time": 126.45532233333381,
            "value": 0.8661417322834646
          },
          {
            "number": 2,
            "time": 126.45696706666715,
            "value": 0.8582677165354331
          },
          {
            "number": 2,
            "time": 126.45861180000048,
            "value": 0.8582677165354331
          },
          {
            "number": 2,
            "time": 126.46025653333382,
            "value": 0.8503937007874016
          },
          {
            "number": 2,
            "time": 126.46190126666716,
            "value": 0.8503937007874016
          },
          {
            "number": 2,
            "time": 126.46354600000049,
            "value": 0.8503937007874016
          },
          {
            "number": 2,
            "time": 126.46519073333383,
            "value": 0.84251968503937
          },
          {
            "number": 2,
            "time": 126.46683546666716,
            "value": 0.84251968503937
          },
          {
            "number": 2,
            "time": 126.4684802000005,
            "value": 0.8346456692913385
          },
          {
            "number": 2,
            "time": 126.47012493333384,
            "value": 0.8346456692913385
          },
          {
            "number": 2,
            "time": 126.47176966666717,
            "value": 0.8346456692913385
          },
          {
            "number": 2,
            "time": 126.47341440000051,
            "value": 0.8267716535433071
          },
          {
            "number": 2,
            "time": 126.47505913333384,
            "value": 0.8267716535433071
          },
          {
            "number": 2,
            "time": 126.47670386666718,
            "value": 0.8188976377952756
          },
          {
            "number": 2,
            "time": 126.47834860000052,
            "value": 0.8188976377952756
          },
          {
            "number": 2,
            "time": 126.47999333333385,
            "value": 0.8188976377952756
          },
          {
            "number": 2,
            "time": 126.48163806666719,
            "value": 0.8110236220472441
          },
          {
            "number": 2,
            "time": 126.48328280000052,
            "value": 0.8110236220472441
          },
          {
            "number": 2,
            "time": 126.48492753333386,
            "value": 0.8031496062992126
          },
          {
            "number": 2,
            "time": 126.4865722666672,
            "value": 0.8031496062992126
          },
          {
            "number": 2,
            "time": 126.48821700000053,
            "value": 0.8031496062992126
          },
          {
            "number": 2,
            "time": 126.48986173333387,
            "value": 0.7952755905511811
          },
          {
            "number": 2,
            "time": 126.4915064666672,
            "value": 0.7952755905511811
          },
          {
            "number": 2,
            "time": 126.49315120000054,
            "value": 0.7874015748031497
          },
          {
            "number": 2,
            "time": 126.49479593333388,
            "value": 0.7874015748031497
          },
          {
            "number": 2,
            "time": 126.49644066666721,
            "value": 0.7874015748031497
          },
          {
            "number": 2,
            "time": 126.49808540000055,
            "value": 0.7795275590551181
          },
          {
            "number": 2,
            "time": 126.49973013333388,
            "value": 0.7795275590551181
          },
          {
            "number": 2,
            "time": 126.50137486666722,
            "value": 0.7716535433070866
          },
          {
            "number": 2,
            "time": 126.50301960000056,
            "value": 0.7716535433070866
          },
          {
            "number": 2,
            "time": 126.50466433333389,
            "value": 0.7716535433070866
          },
          {
            "number": 2,
            "time": 126.50630906666723,
            "value": 0.7637795275590551
          },
          {
            "number": 2,
            "time": 126.50795380000056,
            "value": 0.7637795275590551
          },
          {
            "number": 2,
            "time": 126.5095985333339,
            "value": 0.7559055118110236
          },
          {
            "number": 2,
            "time": 126.51124326666724,
            "value": 0.7559055118110236
          },
          {
            "number": 2,
            "time": 127.89446400000057,
            "value": 1
          },
          {
            "number": 2,
            "time": 127.8961087333339,
            "value": 1
          },
          {
            "number": 2,
            "time": 127.89775346666724,
            "value": 1
          },
          {
            "number": 2,
            "time": 127.89939820000058,
            "value": 1
          },
          {
            "number": 2,
            "time": 127.90104293333391,
            "value": 1
          },
          {
            "number": 2,
            "time": 127.90268766666725,
            "value": 1
          },
          {
            "number": 2,
            "time": 127.90433240000058,
            "value": 1
          },
          {
            "number": 2,
            "time": 127.90597713333392,
            "value": 1
          },
          {
            "number": 2,
            "time": 127.90762186666726,
            "value": 1
          },
          {
            "number": 2,
            "time": 127.90926660000059,
            "value": 1
          },
          {
            "number": 2,
            "time": 127.91091133333393,
            "value": 1
          },
          {
            "number": 2,
            "time": 127.91255606666726,
            "value": 1
          },
          {
            "number": 2,
            "time": 127.9142008000006,
            "value": 1
          },
          {
            "number": 2,
            "time": 127.91584553333394,
            "value": 1
          },
          {
            "number": 2,
            "time": 127.91749026666727,
            "value": 1
          },
          {
            "number": 2,
            "time": 127.91913500000061,
            "value": 1
          },
          {
            "number": 2,
            "time": 127.92077973333394,
            "value": 1
          },
          {
            "number": 2,
            "time": 127.92242446666728,
            "value": 1
          },
          {
            "number": 2,
            "time": 127.92406920000062,
            "value": 1
          },
          {
            "number": 2,
            "time": 127.92571393333395,
            "value": 1
          },
          {
            "number": 2,
            "time": 127.92735866666729,
            "value": 1
          },
          {
            "number": 2,
            "time": 127.92900340000062,
            "value": 1
          },
          {
            "number": 2,
            "time": 127.93064813333396,
            "value": 1
          },
          {
            "number": 2,
            "time": 127.9322928666673,
            "value": 1
          },
          {
            "number": 2,
            "time": 127.93393760000063,
            "value": 1
          },
          {
            "number": 2,
            "time": 127.93558233333397,
            "value": 1
          },
          {
            "number": 2,
            "time": 127.9372270666673,
            "value": 1
          },
          {
            "number": 2,
            "time": 127.93887180000064,
            "value": 1
          },
          {
            "number": 2,
            "time": 127.94051653333398,
            "value": 1
          },
          {
            "number": 2,
            "time": 127.94216126666731,
            "value": 1
          },
          {
            "number": 2,
            "time": 127.94380600000065,
            "value": 1
          },
          {
            "number": 2,
            "time": 127.94545073333398,
            "value": 1
          },
          {
            "number": 2,
            "time": 127.94709546666732,
            "value": 1
          },
          {
            "number": 2,
            "time": 127.94874020000066,
            "value": 1
          },
          {
            "number": 2,
            "time": 127.95038493333399,
            "value": 1
          },
          {
            "number": 2,
            "time": 127.95202966666733,
            "value": 1
          },
          {
            "number": 2,
            "time": 127.95367440000066,
            "value": 1
          },
          {
            "number": 2,
            "time": 127.955319133334,
            "value": 1
          },
          {
            "number": 2,
            "time": 127.95696386666734,
            "value": 1
          },
          {
            "number": 2,
            "time": 127.95860860000067,
            "value": 1
          },
          {
            "number": 2,
            "time": 127.96025333333401,
            "value": 1
          },
          {
            "number": 2,
            "time": 127.96189806666735,
            "value": 1
          },
          {
            "number": 2,
            "time": 127.96354280000068,
            "value": 1
          },
          {
            "number": 2,
            "time": 127.96518753333402,
            "value": 0.9921259842519685
          },
          {
            "number": 2,
            "time": 127.96683226666735,
            "value": 0.9921259842519685
          },
          {
            "number": 2,
            "time": 127.96847700000069,
            "value": 0.9921259842519685
          },
          {
            "number": 2,
            "time": 127.97012173333403,
            "value": 0.984251968503937
          },
          {
            "number": 2,
            "time": 127.97176646666736,
            "value": 0.984251968503937
          },
          {
            "number": 2,
            "time": 127.9734112000007,
            "value": 0.9763779527559056
          },
          {
            "number": 2,
            "time": 127.97505593333403,
            "value": 0.9763779527559056
          },
          {
            "number": 2,
            "time": 127.97670066666737,
            "value": 0.9763779527559056
          },
          {
            "number": 2,
            "time": 127.9783454000007,
            "value": 0.968503937007874
          },
          {
            "number": 2,
            "time": 127.97999013333404,
            "value": 0.968503937007874
          },
          {
            "number": 2,
            "time": 127.98163486666738,
            "value": 0.9606299212598425
          },
          {
            "number": 2,
            "time": 127.98327960000071,
            "value": 0.9606299212598425
          },
          {
            "number": 2,
            "time": 127.98492433333405,
            "value": 0.9606299212598425
          },
          {
            "number": 2,
            "time": 127.98656906666739,
            "value": 0.952755905511811
          },
          {
            "number": 2,
            "time": 127.98821380000072,
            "value": 0.952755905511811
          },
          {
            "number": 2,
            "time": 127.98985853333406,
            "value": 0.9448818897637795
          },
          {
            "number": 2,
            "time": 127.9915032666674,
            "value": 0.9448818897637795
          },
          {
            "number": 2,
            "time": 127.99314800000073,
            "value": 0.9448818897637795
          },
          {
            "number": 2,
            "time": 127.99479273333407,
            "value": 0.937007874015748
          },
          {
            "number": 2,
            "time": 127.9964374666674,
            "value": 0.937007874015748
          },
          {
            "number": 2,
            "time": 127.99808220000074,
            "value": 0.9291338582677166
          },
          {
            "number": 2,
            "time": 127.99972693333407,
            "value": 0.9291338582677166
          },
          {
            "number": 2,
            "time": 128.0013716666674,
            "value": 0.9291338582677166
          },
          {
            "number": 2,
            "time": 128.00301640000075,
            "value": 0.9212598425196851
          },
          {
            "number": 2,
            "time": 128.00466113333408,
            "value": 0.9212598425196851
          },
          {
            "number": 2,
            "time": 128.00630586666742,
            "value": 0.9133858267716536
          },
          {
            "number": 2,
            "time": 128.00795060000075,
            "value": 0.9133858267716536
          },
          {
            "number": 2,
            "time": 128.0095953333341,
            "value": 0.9133858267716536
          },
          {
            "number": 2,
            "time": 128.01124006666743,
            "value": 0.905511811023622
          },
          {
            "number": 2,
            "time": 128.01288480000076,
            "value": 0.905511811023622
          },
          {
            "number": 2,
            "time": 128.0145295333341,
            "value": 0.8976377952755905
          },
          {
            "number": 2,
            "time": 128.01617426666743,
            "value": 0.8976377952755905
          },
          {
            "number": 2,
            "time": 128.01781900000077,
            "value": 0.8976377952755905
          },
          {
            "number": 2,
            "time": 128.0194637333341,
            "value": 0.889763779527559
          },
          {
            "number": 2,
            "time": 128.02110846666744,
            "value": 0.889763779527559
          },
          {
            "number": 2,
            "time": 128.02275320000078,
            "value": 0.8818897637795275
          },
          {
            "number": 2,
            "time": 128.02439793333411,
            "value": 0.8818897637795275
          },
          {
            "number": 2,
            "time": 128.02604266666745,
            "value": 0.8818897637795275
          },
          {
            "number": 2,
            "time": 128.0276874000008,
            "value": 0.8740157480314961
          },
          {
            "number": 2,
            "time": 128.02933213333412,
            "value": 0.8740157480314961
          },
          {
            "number": 2,
            "time": 128.03097686666746,
            "value": 0.8661417322834646
          },
          {
            "number": 2,
            "time": 128.0326216000008,
            "value": 0.8661417322834646
          },
          {
            "number": 2,
            "time": 128.03426633333413,
            "value": 0.8661417322834646
          },
          {
            "number": 2,
            "time": 128.03591106666747,
            "value": 0.8582677165354331
          },
          {
            "number": 2,
            "time": 128.0375558000008,
            "value": 0.8582677165354331
          },
          {
            "number": 2,
            "time": 128.03920053333414,
            "value": 0.8503937007874016
          },
          {
            "number": 2,
            "time": 128.04084526666747,
            "value": 0.8503937007874016
          },
          {
            "number": 2,
            "time": 128.0424900000008,
            "value": 0.8503937007874016
          },
          {
            "number": 2,
            "time": 128.04413473333415,
            "value": 0.84251968503937
          },
          {
            "number": 2,
            "time": 128.04577946666748,
            "value": 0.84251968503937
          },
          {
            "number": 2,
            "time": 128.04742420000082,
            "value": 0.8346456692913385
          },
          {
            "number": 2,
            "time": 128.04906893333415,
            "value": 0.8346456692913385
          },
          {
            "number": 2,
            "time": 128.0507136666675,
            "value": 0.8346456692913385
          },
          {
            "number": 2,
            "time": 128.05235840000083,
            "value": 0.8267716535433071
          },
          {
            "number": 2,
            "time": 128.05400313333416,
            "value": 0.8267716535433071
          },
          {
            "number": 2,
            "time": 128.0556478666675,
            "value": 0.8188976377952756
          },
          {
            "number": 2,
            "time": 128.05729260000084,
            "value": 0.8188976377952756
          },
          {
            "number": 2,
            "time": 128.05893733333417,
            "value": 0.8188976377952756
          },
          {
            "number": 2,
            "time": 128.0605820666675,
            "value": 0.8110236220472441
          },
          {
            "number": 2,
            "time": 128.06222680000084,
            "value": 0.8110236220472441
          },
          {
            "number": 2,
            "time": 128.06387153333418,
            "value": 0.8031496062992126
          },
          {
            "number": 2,
            "time": 128.06551626666752,
            "value": 0.8031496062992126
          },
          {
            "number": 2,
            "time": 128.06716100000085,
            "value": 0.8031496062992126
          },
          {
            "number": 2,
            "time": 128.0688057333342,
            "value": 0.7952755905511811
          },
          {
            "number": 2,
            "time": 128.07045046666752,
            "value": 0.7952755905511811
          },
          {
            "number": 2,
            "time": 128.07209520000086,
            "value": 0.7874015748031497
          },
          {
            "number": 2,
            "time": 128.0737399333342,
            "value": 0.7874015748031497
          },
          {
            "number": 2,
            "time": 128.07538466666753,
            "value": 0.7874015748031497
          },
          {
            "number": 2,
            "time": 128.07702940000087,
            "value": 0.7795275590551181
          },
          {
            "number": 2,
            "time": 128.0786741333342,
            "value": 0.7795275590551181
          },
          {
            "number": 2,
            "time": 128.08031886666754,
            "value": 0.7716535433070866
          },
          {
            "number": 2,
            "time": 128.08196360000088,
            "value": 0.7716535433070866
          },
          {
            "number": 2,
            "time": 128.0836083333342,
            "value": 0.7716535433070866
          },
          {
            "number": 2,
            "time": 128.08525306666755,
            "value": 0.7637795275590551
          },
          {
            "number": 2,
            "time": 128.08689780000088,
            "value": 0.7637795275590551
          },
          {
            "number": 2,
            "time": 128.08854253333422,
            "value": 0.7559055118110236
          },
          {
            "number": 2,
            "time": 128.09018726666756,
            "value": 0.7559055118110236
          },
          {
            "number": 2,
            "time": 129.4734080000009,
            "value": 0.7559055118110236
          },
          {
            "number": 2,
            "time": 131.0523520000009,
            "value": 0.7559055118110236
          },
          {
            "number": 2,
            "time": 132.6312960000009,
            "value": 0.6299212598425197
          },
          {
            "number": 2,
            "time": 132.6312960000009,
            "value": 0.9448818897637795
          },
          {
            "number": 2,
            "time": 132.63294073333424,
            "value": 0.937007874015748
          },
          {
            "number": 2,
            "time": 132.63458546666757,
            "value": 0.937007874015748
          },
          {
            "number": 2,
            "time": 132.6362302000009,
            "value": 0.937007874015748
          },
          {
            "number": 2,
            "time": 132.63787493333425,
            "value": 0.9291338582677166
          },
          {
            "number": 2,
            "time": 132.63951966666758,
            "value": 0.9291338582677166
          },
          {
            "number": 2,
            "time": 132.64116440000092,
            "value": 0.9291338582677166
          },
          {
            "number": 2,
            "time": 132.64280913333425,
            "value": 0.9212598425196851
          },
          {
            "number": 2,
            "time": 132.6444538666676,
            "value": 0.9212598425196851
          },
          {
            "number": 2,
            "time": 132.64609860000093,
            "value": 0.9212598425196851
          },
          {
            "number": 2,
            "time": 132.64774333333426,
            "value": 0.9133858267716536
          },
          {
            "number": 2,
            "time": 132.6493880666676,
            "value": 0.9133858267716536
          },
          {
            "number": 2,
            "time": 132.65103280000093,
            "value": 0.9133858267716536
          },
          {
            "number": 2,
            "time": 132.65267753333427,
            "value": 0.905511811023622
          },
          {
            "number": 2,
            "time": 132.6543222666676,
            "value": 0.905511811023622
          },
          {
            "number": 2,
            "time": 132.65596700000094,
            "value": 0.905511811023622
          },
          {
            "number": 2,
            "time": 132.65761173333428,
            "value": 0.8976377952755905
          },
          {
            "number": 2,
            "time": 132.6592564666676,
            "value": 0.8976377952755905
          },
          {
            "number": 2,
            "time": 132.66090120000095,
            "value": 0.8976377952755905
          },
          {
            "number": 2,
            "time": 132.6625459333343,
            "value": 0.889763779527559
          },
          {
            "number": 2,
            "time": 132.66419066666762,
            "value": 0.889763779527559
          },
          {
            "number": 2,
            "time": 132.66583540000096,
            "value": 0.889763779527559
          },
          {
            "number": 2,
            "time": 132.6674801333343,
            "value": 0.8818897637795275
          },
          {
            "number": 2,
            "time": 132.66912486666763,
            "value": 0.8818897637795275
          },
          {
            "number": 2,
            "time": 132.67076960000097,
            "value": 0.8818897637795275
          },
          {
            "number": 2,
            "time": 132.6724143333343,
            "value": 0.8740157480314961
          },
          {
            "number": 2,
            "time": 132.67405906666764,
            "value": 0.8740157480314961
          },
          {
            "number": 2,
            "time": 132.67570380000097,
            "value": 0.8740157480314961
          },
          {
            "number": 2,
            "time": 132.6773485333343,
            "value": 0.8661417322834646
          },
          {
            "number": 2,
            "time": 132.67899326666765,
            "value": 0.8661417322834646
          },
          {
            "number": 2,
            "time": 132.68063800000098,
            "value": 0.8661417322834646
          },
          {
            "number": 2,
            "time": 132.68228273333432,
            "value": 0.8582677165354331
          },
          {
            "number": 2,
            "time": 132.68392746666765,
            "value": 0.8582677165354331
          },
          {
            "number": 2,
            "time": 132.685572200001,
            "value": 0.8582677165354331
          },
          {
            "number": 2,
            "time": 132.68721693333433,
            "value": 0.8503937007874016
          },
          {
            "number": 2,
            "time": 132.68886166666766,
            "value": 0.8503937007874016
          },
          {
            "number": 2,
            "time": 132.690506400001,
            "value": 0.8503937007874016
          },
          {
            "number": 2,
            "time": 132.69215113333433,
            "value": 0.84251968503937
          },
          {
            "number": 2,
            "time": 132.69379586666767,
            "value": 0.84251968503937
          },
          {
            "number": 2,
            "time": 132.695440600001,
            "value": 0.84251968503937
          },
          {
            "number": 2,
            "time": 132.69708533333434,
            "value": 0.8346456692913385
          },
          {
            "number": 2,
            "time": 132.69873006666768,
            "value": 0.8346456692913385
          },
          {
            "number": 2,
            "time": 132.70037480000101,
            "value": 0.8346456692913385
          },
          {
            "number": 2,
            "time": 132.70201953333435,
            "value": 0.8267716535433071
          },
          {
            "number": 2,
            "time": 132.7036642666677,
            "value": 0.8267716535433071
          },
          {
            "number": 2,
            "time": 132.70530900000102,
            "value": 0.8267716535433071
          },
          {
            "number": 2,
            "time": 132.70695373333436,
            "value": 0.8188976377952756
          },
          {
            "number": 2,
            "time": 132.7085984666677,
            "value": 0.8188976377952756
          },
          {
            "number": 2,
            "time": 132.71024320000103,
            "value": 0.8188976377952756
          },
          {
            "number": 2,
            "time": 132.71188793333437,
            "value": 0.8110236220472441
          },
          {
            "number": 2,
            "time": 132.7135326666677,
            "value": 0.8110236220472441
          },
          {
            "number": 2,
            "time": 132.71517740000104,
            "value": 0.8110236220472441
          },
          {
            "number": 2,
            "time": 132.71682213333438,
            "value": 0.8031496062992126
          },
          {
            "number": 2,
            "time": 132.7184668666677,
            "value": 0.8031496062992126
          },
          {
            "number": 2,
            "time": 132.72011160000105,
            "value": 0.8031496062992126
          },
          {
            "number": 2,
            "time": 132.72175633333438,
            "value": 0.7952755905511811
          },
          {
            "number": 2,
            "time": 132.72340106666772,
            "value": 0.7952755905511811
          },
          {
            "number": 2,
            "time": 132.72504580000106,
            "value": 0.7952755905511811
          },
          {
            "number": 2,
            "time": 132.7266905333344,
            "value": 0.7874015748031497
          },
          {
            "number": 2,
            "time": 132.72833526666773,
            "value": 0.7874015748031497
          },
          {
            "number": 2,
            "time": 132.72998000000106,
            "value": 0.7874015748031497
          },
          {
            "number": 2,
            "time": 132.7316247333344,
            "value": 0.7795275590551181
          },
          {
            "number": 2,
            "time": 132.73326946666774,
            "value": 0.7795275590551181
          },
          {
            "number": 2,
            "time": 132.73491420000107,
            "value": 0.7795275590551181
          },
          {
            "number": 2,
            "time": 132.7365589333344,
            "value": 0.7716535433070866
          },
          {
            "number": 2,
            "time": 132.73820366666774,
            "value": 0.7716535433070866
          },
          {
            "number": 2,
            "time": 132.73984840000108,
            "value": 0.7716535433070866
          },
          {
            "number": 2,
            "time": 132.74149313333442,
            "value": 0.7637795275590551
          },
          {
            "number": 2,
            "time": 132.74313786666775,
            "value": 0.7637795275590551
          },
          {
            "number": 2,
            "time": 132.7447826000011,
            "value": 0.7637795275590551
          },
          {
            "number": 2,
            "time": 132.74642733333442,
            "value": 0.7559055118110236
          },
          {
            "number": 2,
            "time": 132.74807206666776,
            "value": 0.7559055118110236
          },
          {
            "number": 2,
            "time": 132.7497168000011,
            "value": 0.7559055118110236
          },
          {
            "number": 2,
            "time": 132.75136153333443,
            "value": 0.7480314960629921
          },
          {
            "number": 2,
            "time": 132.75300626666777,
            "value": 0.7480314960629921
          },
          {
            "number": 2,
            "time": 132.7546510000011,
            "value": 0.7480314960629921
          },
          {
            "number": 2,
            "time": 132.75629573333444,
            "value": 0.7401574803149606
          },
          {
            "number": 2,
            "time": 132.75794046666778,
            "value": 0.7401574803149606
          },
          {
            "number": 2,
            "time": 132.7595852000011,
            "value": 0.7401574803149606
          },
          {
            "number": 2,
            "time": 132.76122993333445,
            "value": 0.7322834645669292
          },
          {
            "number": 2,
            "time": 132.76287466666778,
            "value": 0.7322834645669292
          },
          {
            "number": 2,
            "time": 132.76451940000112,
            "value": 0.7322834645669292
          },
          {
            "number": 2,
            "time": 132.76616413333446,
            "value": 0.7244094488188977
          },
          {
            "number": 2,
            "time": 132.7678088666678,
            "value": 0.7244094488188977
          },
          {
            "number": 2,
            "time": 132.76945360000113,
            "value": 0.7244094488188977
          },
          {
            "number": 2,
            "time": 132.77109833333446,
            "value": 0.7165354330708661
          },
          {
            "number": 2,
            "time": 132.7727430666678,
            "value": 0.7165354330708661
          },
          {
            "number": 2,
            "time": 132.77438780000114,
            "value": 0.7165354330708661
          },
          {
            "number": 2,
            "time": 132.77603253333447,
            "value": 0.7086614173228346
          },
          {
            "number": 2,
            "time": 132.7776772666678,
            "value": 0.7086614173228346
          },
          {
            "number": 2,
            "time": 132.77932200000114,
            "value": 0.7086614173228346
          },
          {
            "number": 2,
            "time": 132.78096673333448,
            "value": 0.7007874015748031
          },
          {
            "number": 2,
            "time": 132.78261146666782,
            "value": 0.7007874015748031
          },
          {
            "number": 2,
            "time": 132.78425620000115,
            "value": 0.7007874015748031
          },
          {
            "number": 2,
            "time": 132.7859009333345,
            "value": 0.6929133858267716
          },
          {
            "number": 2,
            "time": 132.78754566666782,
            "value": 0.6929133858267716
          },
          {
            "number": 2,
            "time": 132.78919040000116,
            "value": 0.6929133858267716
          },
          {
            "number": 2,
            "time": 132.7908351333345,
            "value": 0.6850393700787402
          },
          {
            "number": 2,
            "time": 132.79247986666783,
            "value": 0.6850393700787402
          },
          {
            "number": 2,
            "time": 132.79412460000117,
            "value": 0.6850393700787402
          },
          {
            "number": 2,
            "time": 132.7957693333345,
            "value": 0.6771653543307087
          },
          {
            "number": 2,
            "time": 132.79741406666784,
            "value": 0.6771653543307087
          },
          {
            "number": 2,
            "time": 132.79905880000118,
            "value": 0.6771653543307087
          },
          {
            "number": 2,
            "time": 132.8007035333345,
            "value": 0.6692913385826772
          },
          {
            "number": 2,
            "time": 132.80234826666785,
            "value": 0.6692913385826772
          },
          {
            "number": 2,
            "time": 132.80399300000119,
            "value": 0.6692913385826772
          },
          {
            "number": 2,
            "time": 132.80563773333452,
            "value": 0.6614173228346457
          },
          {
            "number": 2,
            "time": 132.80728246666786,
            "value": 0.6614173228346457
          },
          {
            "number": 2,
            "time": 132.8089272000012,
            "value": 0.6614173228346457
          },
          {
            "number": 2,
            "time": 132.81057193333453,
            "value": 0.6535433070866141
          },
          {
            "number": 2,
            "time": 132.81221666666787,
            "value": 0.6535433070866141
          },
          {
            "number": 2,
            "time": 132.8138614000012,
            "value": 0.6535433070866141
          },
          {
            "number": 2,
            "time": 132.81550613333454,
            "value": 0.6456692913385826
          },
          {
            "number": 2,
            "time": 132.81715086666787,
            "value": 0.6456692913385826
          },
          {
            "number": 2,
            "time": 132.8187956000012,
            "value": 0.6456692913385826
          },
          {
            "number": 2,
            "time": 132.82044033333455,
            "value": 0.6377952755905512
          },
          {
            "number": 2,
            "time": 132.82208506666788,
            "value": 0.6377952755905512
          },
          {
            "number": 2,
            "time": 132.82372980000122,
            "value": 0.6377952755905512
          },
          {
            "number": 2,
            "time": 132.82537453333455,
            "value": 0.6299212598425197
          },
          {
            "number": 2,
            "time": 132.8270192666679,
            "value": 0.6299212598425197
          },
          {
            "number": 2,
            "time": 133.02603200000124,
            "value": 0.6299212598425197
          },
          {
            "number": 2,
            "time": 133.81550400000125,
            "value": 0.6299212598425197
          },
          {
            "number": 2,
            "time": 134.21024000000125,
            "value": 0.9448818897637795
          },
          {
            "number": 2,
            "time": 134.21188473333459,
            "value": 0.937007874015748
          },
          {
            "number": 2,
            "time": 134.21352946666792,
            "value": 0.937007874015748
          },
          {
            "number": 2,
            "time": 134.21517420000126,
            "value": 0.937007874015748
          },
          {
            "number": 2,
            "time": 134.2168189333346,
            "value": 0.9291338582677166
          },
          {
            "number": 2,
            "time": 134.21846366666793,
            "value": 0.9291338582677166
          },
          {
            "number": 2,
            "time": 134.22010840000127,
            "value": 0.9291338582677166
          },
          {
            "number": 2,
            "time": 134.2217531333346,
            "value": 0.9212598425196851
          },
          {
            "number": 2,
            "time": 134.22339786666794,
            "value": 0.9212598425196851
          },
          {
            "number": 2,
            "time": 134.22504260000127,
            "value": 0.9212598425196851
          },
          {
            "number": 2,
            "time": 134.2266873333346,
            "value": 0.9133858267716536
          },
          {
            "number": 2,
            "time": 134.22833206666795,
            "value": 0.9133858267716536
          },
          {
            "number": 2,
            "time": 134.22997680000128,
            "value": 0.9133858267716536
          },
          {
            "number": 2,
            "time": 134.23162153333462,
            "value": 0.905511811023622
          },
          {
            "number": 2,
            "time": 134.23326626666795,
            "value": 0.905511811023622
          },
          {
            "number": 2,
            "time": 134.2349110000013,
            "value": 0.905511811023622
          },
          {
            "number": 2,
            "time": 134.23655573333463,
            "value": 0.8976377952755905
          },
          {
            "number": 2,
            "time": 134.23820046666796,
            "value": 0.8976377952755905
          },
          {
            "number": 2,
            "time": 134.2398452000013,
            "value": 0.8976377952755905
          },
          {
            "number": 2,
            "time": 134.24148993333463,
            "value": 0.889763779527559
          },
          {
            "number": 2,
            "time": 134.24313466666797,
            "value": 0.889763779527559
          },
          {
            "number": 2,
            "time": 134.2447794000013,
            "value": 0.889763779527559
          },
          {
            "number": 2,
            "time": 134.24642413333464,
            "value": 0.8818897637795275
          },
          {
            "number": 2,
            "time": 134.24806886666798,
            "value": 0.8818897637795275
          },
          {
            "number": 2,
            "time": 134.24971360000131,
            "value": 0.8818897637795275
          },
          {
            "number": 2,
            "time": 134.25135833333465,
            "value": 0.8740157480314961
          },
          {
            "number": 2,
            "time": 134.253003066668,
            "value": 0.8740157480314961
          },
          {
            "number": 2,
            "time": 134.25464780000132,
            "value": 0.8740157480314961
          },
          {
            "number": 2,
            "time": 134.25629253333466,
            "value": 0.8661417322834646
          },
          {
            "number": 2,
            "time": 134.257937266668,
            "value": 0.8661417322834646
          },
          {
            "number": 2,
            "time": 134.25958200000133,
            "value": 0.8661417322834646
          },
          {
            "number": 2,
            "time": 134.26122673333467,
            "value": 0.8582677165354331
          },
          {
            "number": 2,
            "time": 134.262871466668,
            "value": 0.8582677165354331
          },
          {
            "number": 2,
            "time": 134.26451620000134,
            "value": 0.8582677165354331
          },
          {
            "number": 2,
            "time": 134.26616093333467,
            "value": 0.8503937007874016
          },
          {
            "number": 2,
            "time": 134.267805666668,
            "value": 0.8503937007874016
          },
          {
            "number": 2,
            "time": 134.26945040000135,
            "value": 0.8503937007874016
          },
          {
            "number": 2,
            "time": 134.27109513333468,
            "value": 0.84251968503937
          },
          {
            "number": 2,
            "time": 134.27273986666802,
            "value": 0.84251968503937
          },
          {
            "number": 2,
            "time": 134.27438460000135,
            "value": 0.84251968503937
          },
          {
            "number": 2,
            "time": 134.2760293333347,
            "value": 0.8346456692913385
          },
          {
            "number": 2,
            "time": 134.27767406666803,
            "value": 0.8346456692913385
          },
          {
            "number": 2,
            "time": 134.27931880000136,
            "value": 0.8346456692913385
          },
          {
            "number": 2,
            "time": 134.2809635333347,
            "value": 0.8267716535433071
          },
          {
            "number": 2,
            "time": 134.28260826666803,
            "value": 0.8267716535433071
          },
          {
            "number": 2,
            "time": 134.28425300000137,
            "value": 0.8267716535433071
          },
          {
            "number": 2,
            "time": 134.2858977333347,
            "value": 0.8188976377952756
          },
          {
            "number": 2,
            "time": 134.28754246666804,
            "value": 0.8188976377952756
          },
          {
            "number": 2,
            "time": 134.28918720000138,
            "value": 0.8188976377952756
          },
          {
            "number": 2,
            "time": 134.29083193333472,
            "value": 0.8110236220472441
          },
          {
            "number": 2,
            "time": 134.29247666666805,
            "value": 0.8110236220472441
          },
          {
            "number": 2,
            "time": 134.2941214000014,
            "value": 0.8110236220472441
          },
          {
            "number": 2,
            "time": 134.29576613333472,
            "value": 0.8031496062992126
          },
          {
            "number": 2,
            "time": 134.29741086666806,
            "value": 0.8031496062992126
          },
          {
            "number": 2,
            "time": 134.2990556000014,
            "value": 0.8031496062992126
          },
          {
            "number": 2,
            "time": 134.30070033333473,
            "value": 0.7952755905511811
          },
          {
            "number": 2,
            "time": 134.30234506666807,
            "value": 0.7952755905511811
          },
          {
            "number": 2,
            "time": 134.3039898000014,
            "value": 0.7952755905511811
          },
          {
            "number": 2,
            "time": 134.30563453333474,
            "value": 0.7874015748031497
          },
          {
            "number": 2,
            "time": 134.30727926666808,
            "value": 0.7874015748031497
          },
          {
            "number": 2,
            "time": 134.3089240000014,
            "value": 0.7874015748031497
          },
          {
            "number": 2,
            "time": 134.31056873333475,
            "value": 0.7795275590551181
          },
          {
            "number": 2,
            "time": 134.31221346666808,
            "value": 0.7795275590551181
          },
          {
            "number": 2,
            "time": 134.31385820000142,
            "value": 0.7795275590551181
          },
          {
            "number": 2,
            "time": 134.31550293333476,
            "value": 0.7716535433070866
          },
          {
            "number": 2,
            "time": 134.3171476666681,
            "value": 0.7716535433070866
          },
          {
            "number": 2,
            "time": 134.31879240000143,
            "value": 0.7716535433070866
          },
          {
            "number": 2,
            "time": 134.32043713333476,
            "value": 0.7637795275590551
          },
          {
            "number": 2,
            "time": 134.3220818666681,
            "value": 0.7637795275590551
          },
          {
            "number": 2,
            "time": 134.32372660000144,
            "value": 0.7637795275590551
          },
          {
            "number": 2,
            "time": 134.32537133333477,
            "value": 0.7559055118110236
          },
          {
            "number": 2,
            "time": 134.3270160666681,
            "value": 0.7559055118110236
          },
          {
            "number": 2,
            "time": 134.32866080000144,
            "value": 0.7559055118110236
          },
          {
            "number": 2,
            "time": 134.33030553333478,
            "value": 0.7480314960629921
          },
          {
            "number": 2,
            "time": 134.33195026666812,
            "value": 0.7480314960629921
          },
          {
            "number": 2,
            "time": 134.33359500000145,
            "value": 0.7480314960629921
          },
          {
            "number": 2,
            "time": 134.3352397333348,
            "value": 0.7401574803149606
          },
          {
            "number": 2,
            "time": 134.33688446666812,
            "value": 0.7401574803149606
          },
          {
            "number": 2,
            "time": 134.33852920000146,
            "value": 0.7401574803149606
          },
          {
            "number": 2,
            "time": 134.3401739333348,
            "value": 0.7322834645669292
          },
          {
            "number": 2,
            "time": 134.34181866666813,
            "value": 0.7322834645669292
          },
          {
            "number": 2,
            "time": 134.34346340000147,
            "value": 0.7322834645669292
          },
          {
            "number": 2,
            "time": 134.3451081333348,
            "value": 0.7244094488188977
          },
          {
            "number": 2,
            "time": 134.34675286666814,
            "value": 0.7244094488188977
          },
          {
            "number": 2,
            "time": 134.34839760000148,
            "value": 0.7244094488188977
          },
          {
            "number": 2,
            "time": 134.3500423333348,
            "value": 0.7165354330708661
          },
          {
            "number": 2,
            "time": 134.35168706666815,
            "value": 0.7165354330708661
          },
          {
            "number": 2,
            "time": 134.35333180000148,
            "value": 0.7165354330708661
          },
          {
            "number": 2,
            "time": 134.35497653333482,
            "value": 0.7086614173228346
          },
          {
            "number": 2,
            "time": 134.35662126666816,
            "value": 0.7086614173228346
          },
          {
            "number": 2,
            "time": 134.3582660000015,
            "value": 0.7086614173228346
          },
          {
            "number": 2,
            "time": 134.35991073333483,
            "value": 0.7007874015748031
          },
          {
            "number": 2,
            "time": 134.36155546666816,
            "value": 0.7007874015748031
          },
          {
            "number": 2,
            "time": 134.3632002000015,
            "value": 0.7007874015748031
          },
          {
            "number": 2,
            "time": 134.36484493333484,
            "value": 0.6929133858267716
          },
          {
            "number": 2,
            "time": 134.36648966666817,
            "value": 0.6929133858267716
          },
          {
            "number": 2,
            "time": 134.3681344000015,
            "value": 0.6929133858267716
          },
          {
            "number": 2,
            "time": 134.36977913333484,
            "value": 0.6850393700787402
          },
          {
            "number": 2,
            "time": 134.37142386666818,
            "value": 0.6850393700787402
          },
          {
            "number": 2,
            "time": 134.37306860000152,
            "value": 0.6850393700787402
          },
          {
            "number": 2,
            "time": 134.37471333333485,
            "value": 0.6771653543307087
          },
          {
            "number": 2,
            "time": 134.3763580666682,
            "value": 0.6771653543307087
          },
          {
            "number": 2,
            "time": 134.37800280000152,
            "value": 0.6771653543307087
          },
          {
            "number": 2,
            "time": 134.37964753333486,
            "value": 0.6692913385826772
          },
          {
            "number": 2,
            "time": 134.3812922666682,
            "value": 0.6692913385826772
          },
          {
            "number": 2,
            "time": 134.38293700000153,
            "value": 0.6692913385826772
          },
          {
            "number": 2,
            "time": 134.38458173333487,
            "value": 0.6614173228346457
          },
          {
            "number": 2,
            "time": 134.3862264666682,
            "value": 0.6614173228346457
          },
          {
            "number": 2,
            "time": 134.38787120000154,
            "value": 0.6614173228346457
          },
          {
            "number": 2,
            "time": 134.38951593333488,
            "value": 0.6535433070866141
          },
          {
            "number": 2,
            "time": 134.3911606666682,
            "value": 0.6535433070866141
          },
          {
            "number": 2,
            "time": 134.39280540000155,
            "value": 0.6535433070866141
          },
          {
            "number": 2,
            "time": 134.39445013333489,
            "value": 0.6456692913385826
          },
          {
            "number": 2,
            "time": 134.39609486666822,
            "value": 0.6456692913385826
          },
          {
            "number": 2,
            "time": 134.39773960000156,
            "value": 0.6456692913385826
          },
          {
            "number": 2,
            "time": 134.3993843333349,
            "value": 0.6377952755905512
          },
          {
            "number": 2,
            "time": 134.40102906666823,
            "value": 0.6377952755905512
          },
          {
            "number": 2,
            "time": 134.40267380000157,
            "value": 0.6377952755905512
          },
          {
            "number": 2,
            "time": 134.4043185333349,
            "value": 0.6299212598425197
          },
          {
            "number": 2,
            "time": 134.40596326666824,
            "value": 0.6299212598425197
          },
          {
            "number": 2,
            "time": 134.60497600000159,
            "value": 0.6299212598425197
          },
          {
            "number": 2,
            "time": 135.3944480000016,
            "value": 0.6299212598425197
          },
          {
            "number": 2,
            "time": 135.7891840000016,
            "value": 0.9448818897637795
          },
          {
            "number": 2,
            "time": 135.79082873333493,
            "value": 0.937007874015748
          },
          {
            "number": 2,
            "time": 135.79247346666827,
            "value": 0.937007874015748
          },
          {
            "number": 2,
            "time": 135.7941182000016,
            "value": 0.937007874015748
          },
          {
            "number": 2,
            "time": 135.79576293333494,
            "value": 0.9291338582677166
          },
          {
            "number": 2,
            "time": 135.79740766666828,
            "value": 0.9291338582677166
          },
          {
            "number": 2,
            "time": 135.7990524000016,
            "value": 0.9291338582677166
          },
          {
            "number": 2,
            "time": 135.80069713333495,
            "value": 0.9212598425196851
          },
          {
            "number": 2,
            "time": 135.80234186666829,
            "value": 0.9212598425196851
          },
          {
            "number": 2,
            "time": 135.80398660000162,
            "value": 0.9212598425196851
          },
          {
            "number": 2,
            "time": 135.80563133333496,
            "value": 0.9133858267716536
          },
          {
            "number": 2,
            "time": 135.8072760666683,
            "value": 0.9133858267716536
          },
          {
            "number": 2,
            "time": 135.80892080000163,
            "value": 0.9133858267716536
          },
          {
            "number": 2,
            "time": 135.81056553333497,
            "value": 0.905511811023622
          },
          {
            "number": 2,
            "time": 135.8122102666683,
            "value": 0.905511811023622
          },
          {
            "number": 2,
            "time": 135.81385500000164,
            "value": 0.905511811023622
          },
          {
            "number": 2,
            "time": 135.81549973333497,
            "value": 0.8976377952755905
          },
          {
            "number": 2,
            "time": 135.8171444666683,
            "value": 0.8976377952755905
          },
          {
            "number": 2,
            "time": 135.81878920000165,
            "value": 0.8976377952755905
          },
          {
            "number": 2,
            "time": 135.82043393333498,
            "value": 0.889763779527559
          },
          {
            "number": 2,
            "time": 135.82207866666832,
            "value": 0.889763779527559
          },
          {
            "number": 2,
            "time": 135.82372340000165,
            "value": 0.889763779527559
          },
          {
            "number": 2,
            "time": 135.825368133335,
            "value": 0.8818897637795275
          },
          {
            "number": 2,
            "time": 135.82701286666833,
            "value": 0.8818897637795275
          },
          {
            "number": 2,
            "time": 135.82865760000166,
            "value": 0.8818897637795275
          },
          {
            "number": 2,
            "time": 135.830302333335,
            "value": 0.8740157480314961
          },
          {
            "number": 2,
            "time": 135.83194706666833,
            "value": 0.8740157480314961
          },
          {
            "number": 2,
            "time": 135.83359180000167,
            "value": 0.8740157480314961
          },
          {
            "number": 2,
            "time": 135.835236533335,
            "value": 0.8661417322834646
          },
          {
            "number": 2,
            "time": 135.83688126666834,
            "value": 0.8661417322834646
          },
          {
            "number": 2,
            "time": 135.83852600000168,
            "value": 0.8661417322834646
          },
          {
            "number": 2,
            "time": 135.84017073333501,
            "value": 0.8582677165354331
          },
          {
            "number": 2,
            "time": 135.84181546666835,
            "value": 0.8582677165354331
          },
          {
            "number": 2,
            "time": 135.8434602000017,
            "value": 0.8582677165354331
          },
          {
            "number": 2,
            "time": 135.84510493333502,
            "value": 0.8503937007874016
          },
          {
            "number": 2,
            "time": 135.84674966666836,
            "value": 0.8503937007874016
          },
          {
            "number": 2,
            "time": 135.8483944000017,
            "value": 0.8503937007874016
          },
          {
            "number": 2,
            "time": 135.85003913333503,
            "value": 0.84251968503937
          },
          {
            "number": 2,
            "time": 135.85168386666837,
            "value": 0.84251968503937
          },
          {
            "number": 2,
            "time": 135.8533286000017,
            "value": 0.84251968503937
          },
          {
            "number": 2,
            "time": 135.85497333333504,
            "value": 0.8346456692913385
          },
          {
            "number": 2,
            "time": 135.85661806666837,
            "value": 0.8346456692913385
          },
          {
            "number": 2,
            "time": 135.8582628000017,
            "value": 0.8346456692913385
          },
          {
            "number": 2,
            "time": 135.85990753333505,
            "value": 0.8267716535433071
          },
          {
            "number": 2,
            "time": 135.86155226666838,
            "value": 0.8267716535433071
          },
          {
            "number": 2,
            "time": 135.86319700000172,
            "value": 0.8267716535433071
          },
          {
            "number": 2,
            "time": 135.86484173333506,
            "value": 0.8188976377952756
          },
          {
            "number": 2,
            "time": 135.8664864666684,
            "value": 0.8188976377952756
          },
          {
            "number": 2,
            "time": 135.86813120000173,
            "value": 0.8188976377952756
          },
          {
            "number": 2,
            "time": 135.86977593333506,
            "value": 0.8110236220472441
          },
          {
            "number": 2,
            "time": 135.8714206666684,
            "value": 0.8110236220472441
          },
          {
            "number": 2,
            "time": 135.87306540000174,
            "value": 0.8110236220472441
          },
          {
            "number": 2,
            "time": 135.87471013333507,
            "value": 0.8031496062992126
          },
          {
            "number": 2,
            "time": 135.8763548666684,
            "value": 0.8031496062992126
          },
          {
            "number": 2,
            "time": 135.87799960000174,
            "value": 0.8031496062992126
          },
          {
            "number": 2,
            "time": 135.87964433333508,
            "value": 0.7952755905511811
          },
          {
            "number": 2,
            "time": 135.88128906666842,
            "value": 0.7952755905511811
          },
          {
            "number": 2,
            "time": 135.88293380000175,
            "value": 0.7952755905511811
          },
          {
            "number": 2,
            "time": 135.8845785333351,
            "value": 0.7874015748031497
          },
          {
            "number": 2,
            "time": 135.88622326666842,
            "value": 0.7874015748031497
          },
          {
            "number": 2,
            "time": 135.88786800000176,
            "value": 0.7874015748031497
          },
          {
            "number": 2,
            "time": 135.8895127333351,
            "value": 0.7795275590551181
          },
          {
            "number": 2,
            "time": 135.89115746666843,
            "value": 0.7795275590551181
          },
          {
            "number": 2,
            "time": 135.89280220000177,
            "value": 0.7795275590551181
          },
          {
            "number": 2,
            "time": 135.8944469333351,
            "value": 0.7716535433070866
          },
          {
            "number": 2,
            "time": 135.89609166666844,
            "value": 0.7716535433070866
          },
          {
            "number": 2,
            "time": 135.89773640000178,
            "value": 0.7716535433070866
          },
          {
            "number": 2,
            "time": 135.8993811333351,
            "value": 0.7637795275590551
          },
          {
            "number": 2,
            "time": 135.90102586666845,
            "value": 0.7637795275590551
          },
          {
            "number": 2,
            "time": 135.90267060000178,
            "value": 0.7637795275590551
          },
          {
            "number": 2,
            "time": 135.90431533333512,
            "value": 0.7559055118110236
          },
          {
            "number": 2,
            "time": 135.90596006666846,
            "value": 0.7559055118110236
          },
          {
            "number": 2,
            "time": 135.9076048000018,
            "value": 0.7559055118110236
          },
          {
            "number": 2,
            "time": 135.90924953333513,
            "value": 0.7480314960629921
          },
          {
            "number": 2,
            "time": 135.91089426666846,
            "value": 0.7480314960629921
          },
          {
            "number": 2,
            "time": 135.9125390000018,
            "value": 0.7480314960629921
          },
          {
            "number": 2,
            "time": 135.91418373333514,
            "value": 0.7401574803149606
          },
          {
            "number": 2,
            "time": 135.91582846666847,
            "value": 0.7401574803149606
          },
          {
            "number": 2,
            "time": 135.9174732000018,
            "value": 0.7401574803149606
          },
          {
            "number": 2,
            "time": 135.91911793333514,
            "value": 0.7322834645669292
          },
          {
            "number": 2,
            "time": 135.92076266666848,
            "value": 0.7322834645669292
          },
          {
            "number": 2,
            "time": 135.92240740000182,
            "value": 0.7322834645669292
          },
          {
            "number": 2,
            "time": 135.92405213333515,
            "value": 0.7244094488188977
          },
          {
            "number": 2,
            "time": 135.9256968666685,
            "value": 0.7244094488188977
          },
          {
            "number": 2,
            "time": 135.92734160000182,
            "value": 0.7244094488188977
          },
          {
            "number": 2,
            "time": 135.92898633333516,
            "value": 0.7165354330708661
          },
          {
            "number": 2,
            "time": 135.9306310666685,
            "value": 0.7165354330708661
          },
          {
            "number": 2,
            "time": 135.93227580000183,
            "value": 0.7165354330708661
          },
          {
            "number": 2,
            "time": 135.93392053333517,
            "value": 0.7086614173228346
          },
          {
            "number": 2,
            "time": 135.9355652666685,
            "value": 0.7086614173228346
          },
          {
            "number": 2,
            "time": 135.93721000000184,
            "value": 0.7086614173228346
          },
          {
            "number": 2,
            "time": 135.93885473333518,
            "value": 0.7007874015748031
          },
          {
            "number": 2,
            "time": 135.9404994666685,
            "value": 0.7007874015748031
          },
          {
            "number": 2,
            "time": 135.94214420000185,
            "value": 0.7007874015748031
          },
          {
            "number": 2,
            "time": 135.94378893333518,
            "value": 0.6929133858267716
          },
          {
            "number": 2,
            "time": 135.94543366666852,
            "value": 0.6929133858267716
          },
          {
            "number": 2,
            "time": 135.94707840000186,
            "value": 0.6929133858267716
          },
          {
            "number": 2,
            "time": 135.9487231333352,
            "value": 0.6850393700787402
          },
          {
            "number": 2,
            "time": 135.95036786666853,
            "value": 0.6850393700787402
          },
          {
            "number": 2,
            "time": 135.95201260000186,
            "value": 0.6850393700787402
          },
          {
            "number": 2,
            "time": 135.9536573333352,
            "value": 0.6771653543307087
          },
          {
            "number": 2,
            "time": 135.95530206666854,
            "value": 0.6771653543307087
          },
          {
            "number": 2,
            "time": 135.95694680000187,
            "value": 0.6771653543307087
          },
          {
            "number": 2,
            "time": 135.9585915333352,
            "value": 0.6692913385826772
          },
          {
            "number": 2,
            "time": 135.96023626666855,
            "value": 0.6692913385826772
          },
          {
            "number": 2,
            "time": 135.96188100000188,
            "value": 0.6692913385826772
          },
          {
            "number": 2,
            "time": 135.96352573333522,
            "value": 0.6614173228346457
          },
          {
            "number": 2,
            "time": 135.96517046666855,
            "value": 0.6614173228346457
          },
          {
            "number": 2,
            "time": 135.9668152000019,
            "value": 0.6614173228346457
          },
          {
            "number": 2,
            "time": 135.96845993333523,
            "value": 0.6535433070866141
          },
          {
            "number": 2,
            "time": 135.97010466666856,
            "value": 0.6535433070866141
          },
          {
            "number": 2,
            "time": 135.9717494000019,
            "value": 0.6535433070866141
          },
          {
            "number": 2,
            "time": 135.97339413333523,
            "value": 0.6456692913385826
          },
          {
            "number": 2,
            "time": 135.97503886666857,
            "value": 0.6456692913385826
          },
          {
            "number": 2,
            "time": 135.9766836000019,
            "value": 0.6456692913385826
          },
          {
            "number": 2,
            "time": 135.97832833333524,
            "value": 0.6377952755905512
          },
          {
            "number": 2,
            "time": 135.97997306666858,
            "value": 0.6377952755905512
          },
          {
            "number": 2,
            "time": 135.9816178000019,
            "value": 0.6377952755905512
          },
          {
            "number": 2,
            "time": 135.98326253333525,
            "value": 0.6299212598425197
          },
          {
            "number": 2,
            "time": 135.98490726666859,
            "value": 0.6299212598425197
          },
          {
            "number": 2,
            "time": 136.18392000000193,
            "value": 0.6299212598425197
          },
          {
            "number": 2,
            "time": 136.97339200000195,
            "value": 0.6299212598425197
          },
          {
            "number": 2,
            "time": 137.36812800000195,
            "value": 0.9448818897637795
          },
          {
            "number": 2,
            "time": 137.36977273333528,
            "value": 0.937007874015748
          },
          {
            "number": 2,
            "time": 137.37141746666862,
            "value": 0.937007874015748
          },
          {
            "number": 2,
            "time": 137.37306220000195,
            "value": 0.937007874015748
          },
          {
            "number": 2,
            "time": 137.3747069333353,
            "value": 0.9291338582677166
          },
          {
            "number": 2,
            "time": 137.37635166666863,
            "value": 0.9291338582677166
          },
          {
            "number": 2,
            "time": 137.37799640000196,
            "value": 0.9291338582677166
          },
          {
            "number": 2,
            "time": 137.3796411333353,
            "value": 0.9212598425196851
          },
          {
            "number": 2,
            "time": 137.38128586666863,
            "value": 0.9212598425196851
          },
          {
            "number": 2,
            "time": 137.38293060000197,
            "value": 0.9212598425196851
          },
          {
            "number": 2,
            "time": 137.3845753333353,
            "value": 0.9133858267716536
          },
          {
            "number": 2,
            "time": 137.38622006666864,
            "value": 0.9133858267716536
          },
          {
            "number": 2,
            "time": 137.38786480000198,
            "value": 0.9133858267716536
          },
          {
            "number": 2,
            "time": 137.3895095333353,
            "value": 0.905511811023622
          },
          {
            "number": 2,
            "time": 137.39115426666865,
            "value": 0.905511811023622
          },
          {
            "number": 2,
            "time": 137.392799000002,
            "value": 0.905511811023622
          },
          {
            "number": 2,
            "time": 137.39444373333532,
            "value": 0.8976377952755905
          },
          {
            "number": 2,
            "time": 137.39608846666866,
            "value": 0.8976377952755905
          },
          {
            "number": 2,
            "time": 137.397733200002,
            "value": 0.8976377952755905
          },
          {
            "number": 2,
            "time": 137.39937793333533,
            "value": 0.889763779527559
          },
          {
            "number": 2,
            "time": 137.40102266666867,
            "value": 0.889763779527559
          },
          {
            "number": 2,
            "time": 137.402667400002,
            "value": 0.889763779527559
          },
          {
            "number": 2,
            "time": 137.40431213333534,
            "value": 0.8818897637795275
          },
          {
            "number": 2,
            "time": 137.40595686666867,
            "value": 0.8818897637795275
          },
          {
            "number": 2,
            "time": 137.407601600002,
            "value": 0.8818897637795275
          },
          {
            "number": 2,
            "time": 137.40924633333535,
            "value": 0.8740157480314961
          },
          {
            "number": 2,
            "time": 137.41089106666868,
            "value": 0.8740157480314961
          },
          {
            "number": 2,
            "time": 137.41253580000202,
            "value": 0.8740157480314961
          },
          {
            "number": 2,
            "time": 137.41418053333535,
            "value": 0.8661417322834646
          },
          {
            "number": 2,
            "time": 137.4158252666687,
            "value": 0.8661417322834646
          },
          {
            "number": 2,
            "time": 137.41747000000203,
            "value": 0.8661417322834646
          },
          {
            "number": 2,
            "time": 137.41911473333536,
            "value": 0.8582677165354331
          },
          {
            "number": 2,
            "time": 137.4207594666687,
            "value": 0.8582677165354331
          },
          {
            "number": 2,
            "time": 137.42240420000203,
            "value": 0.8582677165354331
          },
          {
            "number": 2,
            "time": 137.42404893333537,
            "value": 0.8503937007874016
          },
          {
            "number": 2,
            "time": 137.4256936666687,
            "value": 0.8503937007874016
          },
          {
            "number": 2,
            "time": 137.42733840000204,
            "value": 0.8503937007874016
          },
          {
            "number": 2,
            "time": 137.42898313333538,
            "value": 0.84251968503937
          },
          {
            "number": 2,
            "time": 137.43062786666871,
            "value": 0.84251968503937
          },
          {
            "number": 2,
            "time": 137.43227260000205,
            "value": 0.84251968503937
          },
          {
            "number": 2,
            "time": 137.4339173333354,
            "value": 0.8346456692913385
          },
          {
            "number": 2,
            "time": 137.43556206666872,
            "value": 0.8346456692913385
          },
          {
            "number": 2,
            "time": 137.43720680000206,
            "value": 0.8346456692913385
          },
          {
            "number": 2,
            "time": 137.4388515333354,
            "value": 0.8267716535433071
          },
          {
            "number": 2,
            "time": 137.44049626666873,
            "value": 0.8267716535433071
          },
          {
            "number": 2,
            "time": 137.44214100000207,
            "value": 0.8267716535433071
          },
          {
            "number": 2,
            "time": 137.4437857333354,
            "value": 0.8188976377952756
          },
          {
            "number": 2,
            "time": 137.44543046666874,
            "value": 0.8188976377952756
          },
          {
            "number": 2,
            "time": 137.44707520000208,
            "value": 0.8188976377952756
          },
          {
            "number": 2,
            "time": 137.4487199333354,
            "value": 0.8110236220472441
          },
          {
            "number": 2,
            "time": 137.45036466666875,
            "value": 0.8110236220472441
          },
          {
            "number": 2,
            "time": 137.45200940000208,
            "value": 0.8110236220472441
          },
          {
            "number": 2,
            "time": 137.45365413333542,
            "value": 0.8031496062992126
          },
          {
            "number": 2,
            "time": 137.45529886666876,
            "value": 0.8031496062992126
          },
          {
            "number": 2,
            "time": 137.4569436000021,
            "value": 0.8031496062992126
          },
          {
            "number": 2,
            "time": 137.45858833333543,
            "value": 0.7952755905511811
          },
          {
            "number": 2,
            "time": 137.46023306666876,
            "value": 0.7952755905511811
          },
          {
            "number": 2,
            "time": 137.4618778000021,
            "value": 0.7952755905511811
          },
          {
            "number": 2,
            "time": 137.46352253333544,
            "value": 0.7874015748031497
          },
          {
            "number": 2,
            "time": 137.46516726666877,
            "value": 0.7874015748031497
          },
          {
            "number": 2,
            "time": 137.4668120000021,
            "value": 0.7874015748031497
          },
          {
            "number": 2,
            "time": 137.46845673333544,
            "value": 0.7795275590551181
          },
          {
            "number": 2,
            "time": 137.47010146666878,
            "value": 0.7795275590551181
          },
          {
            "number": 2,
            "time": 137.47174620000212,
            "value": 0.7795275590551181
          },
          {
            "number": 2,
            "time": 137.47339093333545,
            "value": 0.7716535433070866
          },
          {
            "number": 2,
            "time": 137.4750356666688,
            "value": 0.7716535433070866
          },
          {
            "number": 2,
            "time": 137.47668040000212,
            "value": 0.7716535433070866
          },
          {
            "number": 2,
            "time": 137.47832513333546,
            "value": 0.7637795275590551
          },
          {
            "number": 2,
            "time": 137.4799698666688,
            "value": 0.7637795275590551
          },
          {
            "number": 2,
            "time": 137.48161460000213,
            "value": 0.7637795275590551
          },
          {
            "number": 2,
            "time": 137.48325933333547,
            "value": 0.7559055118110236
          },
          {
            "number": 2,
            "time": 137.4849040666688,
            "value": 0.7559055118110236
          },
          {
            "number": 2,
            "time": 137.48654880000214,
            "value": 0.7559055118110236
          },
          {
            "number": 2,
            "time": 137.48819353333548,
            "value": 0.7480314960629921
          },
          {
            "number": 2,
            "time": 137.4898382666688,
            "value": 0.7480314960629921
          },
          {
            "number": 2,
            "time": 137.49148300000215,
            "value": 0.7480314960629921
          },
          {
            "number": 2,
            "time": 137.49312773333548,
            "value": 0.7401574803149606
          },
          {
            "number": 2,
            "time": 137.49477246666882,
            "value": 0.7401574803149606
          },
          {
            "number": 2,
            "time": 137.49641720000216,
            "value": 0.7401574803149606
          },
          {
            "number": 2,
            "time": 137.4980619333355,
            "value": 0.7322834645669292
          },
          {
            "number": 2,
            "time": 137.49970666666883,
            "value": 0.7322834645669292
          },
          {
            "number": 2,
            "time": 137.50135140000216,
            "value": 0.7322834645669292
          },
          {
            "number": 2,
            "time": 137.5029961333355,
            "value": 0.7244094488188977
          },
          {
            "number": 2,
            "time": 137.50464086666884,
            "value": 0.7244094488188977
          },
          {
            "number": 2,
            "time": 137.50628560000217,
            "value": 0.7244094488188977
          },
          {
            "number": 2,
            "time": 137.5079303333355,
            "value": 0.7165354330708661
          },
          {
            "number": 2,
            "time": 137.50957506666884,
            "value": 0.7165354330708661
          },
          {
            "number": 2,
            "time": 137.51121980000218,
            "value": 0.7165354330708661
          },
          {
            "number": 2,
            "time": 137.51286453333552,
            "value": 0.7086614173228346
          },
          {
            "number": 2,
            "time": 137.51450926666885,
            "value": 0.7086614173228346
          },
          {
            "number": 2,
            "time": 137.5161540000022,
            "value": 0.7086614173228346
          },
          {
            "number": 2,
            "time": 137.51779873333552,
            "value": 0.7007874015748031
          },
          {
            "number": 2,
            "time": 137.51944346666886,
            "value": 0.7007874015748031
          },
          {
            "number": 2,
            "time": 137.5210882000022,
            "value": 0.7007874015748031
          },
          {
            "number": 2,
            "time": 137.52273293333553,
            "value": 0.6929133858267716
          },
          {
            "number": 2,
            "time": 137.52437766666887,
            "value": 0.6929133858267716
          },
          {
            "number": 2,
            "time": 137.5260224000022,
            "value": 0.6929133858267716
          },
          {
            "number": 2,
            "time": 137.52766713333554,
            "value": 0.6850393700787402
          },
          {
            "number": 2,
            "time": 137.52931186666888,
            "value": 0.6850393700787402
          },
          {
            "number": 2,
            "time": 137.5309566000022,
            "value": 0.6850393700787402
          },
          {
            "number": 2,
            "time": 137.53260133333555,
            "value": 0.6771653543307087
          },
          {
            "number": 2,
            "time": 137.53424606666889,
            "value": 0.6771653543307087
          },
          {
            "number": 2,
            "time": 137.53589080000222,
            "value": 0.6771653543307087
          },
          {
            "number": 2,
            "time": 137.53753553333556,
            "value": 0.6692913385826772
          },
          {
            "number": 2,
            "time": 137.5391802666689,
            "value": 0.6692913385826772
          },
          {
            "number": 2,
            "time": 137.54082500000223,
            "value": 0.6692913385826772
          },
          {
            "number": 2,
            "time": 137.54246973333557,
            "value": 0.6614173228346457
          },
          {
            "number": 2,
            "time": 137.5441144666689,
            "value": 0.6614173228346457
          },
          {
            "number": 2,
            "time": 137.54575920000224,
            "value": 0.6614173228346457
          },
          {
            "number": 2,
            "time": 137.54740393333557,
            "value": 0.6535433070866141
          },
          {
            "number": 2,
            "time": 137.5490486666689,
            "value": 0.6535433070866141
          },
          {
            "number": 2,
            "time": 137.55069340000225,
            "value": 0.6535433070866141
          },
          {
            "number": 2,
            "time": 137.55233813333558,
            "value": 0.6456692913385826
          },
          {
            "number": 2,
            "time": 137.55398286666892,
            "value": 0.6456692913385826
          },
          {
            "number": 2,
            "time": 137.55562760000225,
            "value": 0.6456692913385826
          },
          {
            "number": 2,
            "time": 137.5572723333356,
            "value": 0.6377952755905512
          },
          {
            "number": 2,
            "time": 137.55891706666893,
            "value": 0.6377952755905512
          },
          {
            "number": 2,
            "time": 137.56056180000226,
            "value": 0.6377952755905512
          },
          {
            "number": 2,
            "time": 137.5622065333356,
            "value": 0.6299212598425197
          },
          {
            "number": 2,
            "time": 137.56385126666893,
            "value": 0.6299212598425197
          },
          {
            "number": 2,
            "time": 137.76286400000228,
            "value": 0.6299212598425197
          },
          {
            "number": 2,
            "time": 138.5523360000023,
            "value": 0.6299212598425197
          },
          {
            "number": 2,
            "time": 138.9470720000023,
            "value": 0.5039370078740157
          },
          {
            "number": 2,
            "time": 139.3418080000023,
            "value": 0.5039370078740157
          },
          {
            "number": 2,
            "time": 139.73654400000228,
            "value": 0.5039370078740157
          },
          {
            "number": 2,
            "time": 140.13128000000228,
            "value": 0.5039370078740157
          },
          {
            "number": 2,
            "time": 140.52601600000227,
            "value": 0.5039370078740157
          },
          {
            "number": 2,
            "time": 140.92075200000227,
            "value": 0.5039370078740157
          },
          {
            "number": 2,
            "time": 141.31548800000226,
            "value": 0.5039370078740157
          },
          {
            "number": 2,
            "time": 141.71022400000226,
            "value": 0.5039370078740157
          },
          {
            "number": 2,
            "time": 142.10496000000225,
            "value": 0.5039370078740157
          },
          {
            "number": 2,
            "time": 142.49969600000225,
            "value": 0.5039370078740157
          },
          {
            "number": 2,
            "time": 142.89443200000224,
            "value": 0.5039370078740157
          },
          {
            "number": 2,
            "time": 143.28916800000223,
            "value": 0.5039370078740157
          },
          {
            "number": 2,
            "time": 143.68390400000223,
            "value": 0.5039370078740157
          },
          {
            "number": 2,
            "time": 144.07864000000222,
            "value": 0.5039370078740157
          },
          {
            "number": 2,
            "time": 144.47337600000222,
            "value": 0.5039370078740157
          },
          {
            "number": 2,
            "time": 144.8681120000022,
            "value": 0.5039370078740157
          },
          {
            "number": 2,
            "time": 145.2628480000022,
            "value": 0.5039370078740157
          },
          {
            "number": 2,
            "time": 145.6575840000022,
            "value": 0.5039370078740157
          },
          {
            "number": 2,
            "time": 146.0523200000022,
            "value": 0.5039370078740157
          },
          {
            "number": 2,
            "time": 146.4470560000022,
            "value": 0.5039370078740157
          },
          {
            "number": 2,
            "time": 146.8417920000022,
            "value": 0.5039370078740157
          },
          {
            "number": 2,
            "time": 147.23652800000218,
            "value": 0.5039370078740157
          },
          {
            "number": 2,
            "time": 147.63126400000218,
            "value": 0.5039370078740157
          },
          {
            "number": 2,
            "time": 148.42073600000217,
            "value": 0.5039370078740157
          },
          {
            "number": 2,
            "time": 148.81547200000216,
            "value": 0.5039370078740157
          },
          {
            "number": 2,
            "time": 149.21020800000215,
            "value": 0.5039370078740157
          },
          {
            "number": 2,
            "time": 149.99968000000214,
            "value": 0.5039370078740157
          },
          {
            "number": 2,
            "time": 150.39441600000214,
            "value": 0.5039370078740157
          },
          {
            "number": 2,
            "time": 150.78915200000213,
            "value": 0.5039370078740157
          },
          {
            "number": 2,
            "time": 151.57862400000212,
            "value": 0.5039370078740157
          },
          {
            "number": 2,
            "time": 151.97336000000212,
            "value": 0.5039370078740157
          },
          {
            "number": 2,
            "time": 152.3680960000021,
            "value": 0.5039370078740157
          },
          {
            "number": 2,
            "time": 152.7628320000021,
            "value": 0.5039370078740157
          },
          {
            "number": 2,
            "time": 153.1575680000021,
            "value": 0.5039370078740157
          },
          {
            "number": 2,
            "time": 153.5523040000021,
            "value": 0.5039370078740157
          },
          {
            "number": 2,
            "time": 153.9470400000021,
            "value": 0.5039370078740157
          },
          {
            "number": 2,
            "time": 154.34177600000208,
            "value": 0.5039370078740157
          },
          {
            "number": 2,
            "time": 154.73651200000208,
            "value": 0.5039370078740157
          },
          {
            "number": 2,
            "time": 155.13124800000207,
            "value": 0.5039370078740157
          },
          {
            "number": 2,
            "time": 155.52598400000207,
            "value": 0.5039370078740157
          },
          {
            "number": 2,
            "time": 155.92072000000206,
            "value": 0.5039370078740157
          },
          {
            "number": 2,
            "time": 156.31545600000206,
            "value": 0.5039370078740157
          },
          {
            "number": 2,
            "time": 156.71019200000205,
            "value": 0.5039370078740157
          },
          {
            "number": 2,
            "time": 157.10492800000205,
            "value": 0.5039370078740157
          },
          {
            "number": 2,
            "time": 157.89440000000204,
            "value": 0.5039370078740157
          },
          {
            "number": 2,
            "time": 158.28913600000203,
            "value": 0.5039370078740157
          },
          {
            "number": 2,
            "time": 158.68387200000203,
            "value": 0.5039370078740157
          },
          {
            "number": 2,
            "time": 159.07860800000202,
            "value": 0.5039370078740157
          },
          {
            "number": 2,
            "time": 159.47334400000202,
            "value": 0.5039370078740157
          },
          {
            "number": 2,
            "time": 159.868080000002,
            "value": 0.5039370078740157
          },
          {
            "number": 2,
            "time": 160.262816000002,
            "value": 0.5039370078740157
          },
          {
            "number": 2,
            "time": 161.052288000002,
            "value": 0.5039370078740157
          },
          {
            "number": 2,
            "time": 161.447024000002,
            "value": 0.5039370078740157
          },
          {
            "number": 2,
            "time": 161.84176000000198,
            "value": 0.5039370078740157
          },
          {
            "number": 2,
            "time": 162.63123200000197,
            "value": 0.5039370078740157
          },
          {
            "number": 2,
            "time": 162.82860000000196,
            "value": 0.5039370078740157
          },
          {
            "number": 2,
            "time": 163.42070400000193,
            "value": 0.5039370078740157
          },
          {
            "number": 2,
            "time": 164.21017600000192,
            "value": 0.5039370078740157
          },
          {
            "number": 2,
            "time": 164.38287300000192,
            "value": 0.5118110236220472
          },
          {
            "number": 2,
            "time": 164.55557000000192,
            "value": 0.5196850393700787
          },
          {
            "number": 2,
            "time": 164.60491200000192,
            "value": 0.5196850393700787
          },
          {
            "number": 2,
            "time": 164.72826700000192,
            "value": 0.5275590551181102
          },
          {
            "number": 2,
            "time": 164.90096400000192,
            "value": 0.5354330708661418
          },
          {
            "number": 2,
            "time": 164.9996480000019,
            "value": 0.5354330708661418
          },
          {
            "number": 2,
            "time": 165.07366100000192,
            "value": 0.5433070866141733
          },
          {
            "number": 2,
            "time": 165.24635800000192,
            "value": 0.5511811023622047
          },
          {
            "number": 2,
            "time": 165.3943840000019,
            "value": 0.5511811023622047
          },
          {
            "number": 2,
            "time": 165.41905500000192,
            "value": 0.5590551181102362
          },
          {
            "number": 2,
            "time": 165.59175200000192,
            "value": 0.5669291338582677
          },
          {
            "number": 2,
            "time": 165.76444900000192,
            "value": 0.5748031496062992
          },
          {
            "number": 2,
            "time": 165.78912000000193,
            "value": 0.5748031496062992
          },
          {
            "number": 2,
            "time": 165.93714600000192,
            "value": 0.5826771653543307
          },
          {
            "number": 2,
            "time": 165.9864880000019,
            "value": 0.5826771653543307
          },
          {
            "number": 2,
            "time": 166.1098430000019,
            "value": 0.5905511811023622
          },
          {
            "number": 2,
            "time": 166.1838560000019,
            "value": 0.5905511811023622
          },
          {
            "number": 2,
            "time": 166.2825400000019,
            "value": 0.5984251968503937
          },
          {
            "number": 2,
            "time": 166.4552370000019,
            "value": 0.6062992125984252
          },
          {
            "number": 2,
            "time": 166.5785920000019,
            "value": 0.6062992125984252
          },
          {
            "number": 2,
            "time": 166.6279340000019,
            "value": 0.6141732283464567
          },
          {
            "number": 2,
            "time": 166.80063100000189,
            "value": 0.6220472440944882
          },
          {
            "number": 2,
            "time": 166.97332800000189,
            "value": 0.6299212598425197
          },
          {
            "number": 2,
            "time": 167.36806400000188,
            "value": 0.6299212598425197
          },
          {
            "number": 2,
            "time": 167.36806400000188,
            "value": 0.9448818897637795
          },
          {
            "number": 2,
            "time": 167.36970873333522,
            "value": 0.937007874015748
          },
          {
            "number": 2,
            "time": 167.37135346666855,
            "value": 0.937007874015748
          },
          {
            "number": 2,
            "time": 167.3729982000019,
            "value": 0.937007874015748
          },
          {
            "number": 2,
            "time": 167.37464293333522,
            "value": 0.9291338582677166
          },
          {
            "number": 2,
            "time": 167.37628766666856,
            "value": 0.9291338582677166
          },
          {
            "number": 2,
            "time": 167.3779324000019,
            "value": 0.9291338582677166
          },
          {
            "number": 2,
            "time": 167.37957713333523,
            "value": 0.9212598425196851
          },
          {
            "number": 2,
            "time": 167.38122186666857,
            "value": 0.9212598425196851
          },
          {
            "number": 2,
            "time": 167.3828666000019,
            "value": 0.9212598425196851
          },
          {
            "number": 2,
            "time": 167.38451133333524,
            "value": 0.9133858267716536
          },
          {
            "number": 2,
            "time": 167.38615606666858,
            "value": 0.9133858267716536
          },
          {
            "number": 2,
            "time": 167.3878008000019,
            "value": 0.9133858267716536
          },
          {
            "number": 2,
            "time": 167.38944553333525,
            "value": 0.905511811023622
          },
          {
            "number": 2,
            "time": 167.39109026666858,
            "value": 0.905511811023622
          },
          {
            "number": 2,
            "time": 167.39273500000192,
            "value": 0.905511811023622
          },
          {
            "number": 2,
            "time": 167.39437973333526,
            "value": 0.8976377952755905
          },
          {
            "number": 2,
            "time": 167.3960244666686,
            "value": 0.8976377952755905
          },
          {
            "number": 2,
            "time": 167.39766920000193,
            "value": 0.8976377952755905
          },
          {
            "number": 2,
            "time": 167.39931393333526,
            "value": 0.889763779527559
          },
          {
            "number": 2,
            "time": 167.4009586666686,
            "value": 0.889763779527559
          },
          {
            "number": 2,
            "time": 167.40260340000194,
            "value": 0.889763779527559
          },
          {
            "number": 2,
            "time": 167.40424813333527,
            "value": 0.8818897637795275
          },
          {
            "number": 2,
            "time": 167.4058928666686,
            "value": 0.8818897637795275
          },
          {
            "number": 2,
            "time": 167.40753760000194,
            "value": 0.8818897637795275
          },
          {
            "number": 2,
            "time": 167.40918233333528,
            "value": 0.8740157480314961
          },
          {
            "number": 2,
            "time": 167.41082706666862,
            "value": 0.8740157480314961
          },
          {
            "number": 2,
            "time": 167.41247180000195,
            "value": 0.8740157480314961
          },
          {
            "number": 2,
            "time": 167.4141165333353,
            "value": 0.8661417322834646
          },
          {
            "number": 2,
            "time": 167.41576126666862,
            "value": 0.8661417322834646
          },
          {
            "number": 2,
            "time": 167.41740600000196,
            "value": 0.8661417322834646
          },
          {
            "number": 2,
            "time": 167.4190507333353,
            "value": 0.8582677165354331
          },
          {
            "number": 2,
            "time": 167.42069546666863,
            "value": 0.8582677165354331
          },
          {
            "number": 2,
            "time": 167.42234020000197,
            "value": 0.8582677165354331
          },
          {
            "number": 2,
            "time": 167.4239849333353,
            "value": 0.8503937007874016
          },
          {
            "number": 2,
            "time": 167.42562966666864,
            "value": 0.8503937007874016
          },
          {
            "number": 2,
            "time": 167.42727440000198,
            "value": 0.8503937007874016
          },
          {
            "number": 2,
            "time": 167.4289191333353,
            "value": 0.84251968503937
          },
          {
            "number": 2,
            "time": 167.43056386666865,
            "value": 0.84251968503937
          },
          {
            "number": 2,
            "time": 167.43220860000199,
            "value": 0.84251968503937
          },
          {
            "number": 2,
            "time": 167.43385333333532,
            "value": 0.8346456692913385
          },
          {
            "number": 2,
            "time": 167.43549806666866,
            "value": 0.8346456692913385
          },
          {
            "number": 2,
            "time": 167.437142800002,
            "value": 0.8346456692913385
          },
          {
            "number": 2,
            "time": 167.43878753333533,
            "value": 0.8267716535433071
          },
          {
            "number": 2,
            "time": 167.44043226666867,
            "value": 0.8267716535433071
          },
          {
            "number": 2,
            "time": 167.442077000002,
            "value": 0.8267716535433071
          },
          {
            "number": 2,
            "time": 167.44372173333534,
            "value": 0.8188976377952756
          },
          {
            "number": 2,
            "time": 167.44536646666867,
            "value": 0.8188976377952756
          },
          {
            "number": 2,
            "time": 167.447011200002,
            "value": 0.8188976377952756
          },
          {
            "number": 2,
            "time": 167.44865593333535,
            "value": 0.8110236220472441
          },
          {
            "number": 2,
            "time": 167.45030066666868,
            "value": 0.8110236220472441
          },
          {
            "number": 2,
            "time": 167.45194540000202,
            "value": 0.8110236220472441
          },
          {
            "number": 2,
            "time": 167.45359013333535,
            "value": 0.8031496062992126
          },
          {
            "number": 2,
            "time": 167.4552348666687,
            "value": 0.8031496062992126
          },
          {
            "number": 2,
            "time": 167.45687960000203,
            "value": 0.8031496062992126
          },
          {
            "number": 2,
            "time": 167.45852433333536,
            "value": 0.7952755905511811
          },
          {
            "number": 2,
            "time": 167.4601690666687,
            "value": 0.7952755905511811
          },
          {
            "number": 2,
            "time": 167.46181380000203,
            "value": 0.7952755905511811
          },
          {
            "number": 2,
            "time": 167.46345853333537,
            "value": 0.7874015748031497
          },
          {
            "number": 2,
            "time": 167.4651032666687,
            "value": 0.7874015748031497
          },
          {
            "number": 2,
            "time": 167.46674800000204,
            "value": 0.7874015748031497
          },
          {
            "number": 2,
            "time": 167.46839273333538,
            "value": 0.7795275590551181
          },
          {
            "number": 2,
            "time": 167.4700374666687,
            "value": 0.7795275590551181
          },
          {
            "number": 2,
            "time": 167.47168220000205,
            "value": 0.7795275590551181
          },
          {
            "number": 2,
            "time": 167.4733269333354,
            "value": 0.7716535433070866
          },
          {
            "number": 2,
            "time": 167.47497166666872,
            "value": 0.7716535433070866
          },
          {
            "number": 2,
            "time": 167.47661640000206,
            "value": 0.7716535433070866
          },
          {
            "number": 2,
            "time": 167.4782611333354,
            "value": 0.7637795275590551
          },
          {
            "number": 2,
            "time": 167.47990586666873,
            "value": 0.7637795275590551
          },
          {
            "number": 2,
            "time": 167.48155060000207,
            "value": 0.7637795275590551
          },
          {
            "number": 2,
            "time": 167.4831953333354,
            "value": 0.7559055118110236
          },
          {
            "number": 2,
            "time": 167.48484006666874,
            "value": 0.7559055118110236
          },
          {
            "number": 2,
            "time": 167.48648480000207,
            "value": 0.7559055118110236
          },
          {
            "number": 2,
            "time": 167.4881295333354,
            "value": 0.7480314960629921
          },
          {
            "number": 2,
            "time": 167.48977426666875,
            "value": 0.7480314960629921
          },
          {
            "number": 2,
            "time": 167.49141900000208,
            "value": 0.7480314960629921
          },
          {
            "number": 2,
            "time": 167.49306373333542,
            "value": 0.7401574803149606
          },
          {
            "number": 2,
            "time": 167.49470846666875,
            "value": 0.7401574803149606
          },
          {
            "number": 2,
            "time": 167.4963532000021,
            "value": 0.7401574803149606
          },
          {
            "number": 2,
            "time": 167.49799793333543,
            "value": 0.7322834645669292
          },
          {
            "number": 2,
            "time": 167.49964266666876,
            "value": 0.7322834645669292
          },
          {
            "number": 2,
            "time": 167.5012874000021,
            "value": 0.7322834645669292
          },
          {
            "number": 2,
            "time": 167.50293213333543,
            "value": 0.7244094488188977
          },
          {
            "number": 2,
            "time": 167.50457686666877,
            "value": 0.7244094488188977
          },
          {
            "number": 2,
            "time": 167.5062216000021,
            "value": 0.7244094488188977
          },
          {
            "number": 2,
            "time": 167.50786633333544,
            "value": 0.7165354330708661
          },
          {
            "number": 2,
            "time": 167.50951106666878,
            "value": 0.7165354330708661
          },
          {
            "number": 2,
            "time": 167.51115580000211,
            "value": 0.7165354330708661
          },
          {
            "number": 2,
            "time": 167.51280053333545,
            "value": 0.7086614173228346
          },
          {
            "number": 2,
            "time": 167.5144452666688,
            "value": 0.7086614173228346
          },
          {
            "number": 2,
            "time": 167.51609000000212,
            "value": 0.7086614173228346
          },
          {
            "number": 2,
            "time": 167.51773473333546,
            "value": 0.7007874015748031
          },
          {
            "number": 2,
            "time": 167.5193794666688,
            "value": 0.7007874015748031
          },
          {
            "number": 2,
            "time": 167.52102420000213,
            "value": 0.7007874015748031
          },
          {
            "number": 2,
            "time": 167.52266893333547,
            "value": 0.6929133858267716
          },
          {
            "number": 2,
            "time": 167.5243136666688,
            "value": 0.6929133858267716
          },
          {
            "number": 2,
            "time": 167.52595840000214,
            "value": 0.6929133858267716
          },
          {
            "number": 2,
            "time": 167.52760313333548,
            "value": 0.6850393700787402
          },
          {
            "number": 2,
            "time": 167.5292478666688,
            "value": 0.6850393700787402
          },
          {
            "number": 2,
            "time": 167.53089260000215,
            "value": 0.6850393700787402
          },
          {
            "number": 2,
            "time": 167.53253733333548,
            "value": 0.6771653543307087
          },
          {
            "number": 2,
            "time": 167.53418206666882,
            "value": 0.6771653543307087
          },
          {
            "number": 2,
            "time": 167.53582680000216,
            "value": 0.6771653543307087
          },
          {
            "number": 2,
            "time": 167.5374715333355,
            "value": 0.6692913385826772
          },
          {
            "number": 2,
            "time": 167.53911626666883,
            "value": 0.6692913385826772
          },
          {
            "number": 2,
            "time": 167.54076100000216,
            "value": 0.6692913385826772
          },
          {
            "number": 2,
            "time": 167.5424057333355,
            "value": 0.6614173228346457
          },
          {
            "number": 2,
            "time": 167.54405046666884,
            "value": 0.6614173228346457
          },
          {
            "number": 2,
            "time": 167.54569520000217,
            "value": 0.6614173228346457
          },
          {
            "number": 2,
            "time": 167.5473399333355,
            "value": 0.6535433070866141
          },
          {
            "number": 2,
            "time": 167.54898466666884,
            "value": 0.6535433070866141
          },
          {
            "number": 2,
            "time": 167.55062940000218,
            "value": 0.6535433070866141
          },
          {
            "number": 2,
            "time": 167.55227413333552,
            "value": 0.6456692913385826
          },
          {
            "number": 2,
            "time": 167.55391886666885,
            "value": 0.6456692913385826
          },
          {
            "number": 2,
            "time": 167.5555636000022,
            "value": 0.6456692913385826
          },
          {
            "number": 2,
            "time": 167.55720833333552,
            "value": 0.6377952755905512
          },
          {
            "number": 2,
            "time": 167.55885306666886,
            "value": 0.6377952755905512
          },
          {
            "number": 2,
            "time": 167.5604978000022,
            "value": 0.6377952755905512
          },
          {
            "number": 2,
            "time": 167.56214253333553,
            "value": 0.6299212598425197
          },
          {
            "number": 2,
            "time": 167.56378726666887,
            "value": 0.6299212598425197
          },
          {
            "number": 2,
            "time": 167.76280000000222,
            "value": 0.6299212598425197
          },
          {
            "number": 2,
            "time": 168.55227200000223,
            "value": 0.6299212598425197
          },
          {
            "number": 2,
            "time": 168.94700800000223,
            "value": 0.9448818897637795
          },
          {
            "number": 2,
            "time": 168.94865273333556,
            "value": 0.937007874015748
          },
          {
            "number": 2,
            "time": 168.9502974666689,
            "value": 0.937007874015748
          },
          {
            "number": 2,
            "time": 168.95194220000224,
            "value": 0.937007874015748
          },
          {
            "number": 2,
            "time": 168.95358693333557,
            "value": 0.9291338582677166
          },
          {
            "number": 2,
            "time": 168.9552316666689,
            "value": 0.9291338582677166
          },
          {
            "number": 2,
            "time": 168.95687640000224,
            "value": 0.9291338582677166
          },
          {
            "number": 2,
            "time": 168.95852113333558,
            "value": 0.9212598425196851
          },
          {
            "number": 2,
            "time": 168.96016586666892,
            "value": 0.9212598425196851
          },
          {
            "number": 2,
            "time": 168.96181060000225,
            "value": 0.9212598425196851
          },
          {
            "number": 2,
            "time": 168.9634553333356,
            "value": 0.9133858267716536
          },
          {
            "number": 2,
            "time": 168.96510006666892,
            "value": 0.9133858267716536
          },
          {
            "number": 2,
            "time": 168.96674480000226,
            "value": 0.9133858267716536
          },
          {
            "number": 2,
            "time": 168.9683895333356,
            "value": 0.905511811023622
          },
          {
            "number": 2,
            "time": 168.97003426666893,
            "value": 0.905511811023622
          },
          {
            "number": 2,
            "time": 168.97167900000227,
            "value": 0.905511811023622
          },
          {
            "number": 2,
            "time": 168.9733237333356,
            "value": 0.8976377952755905
          },
          {
            "number": 2,
            "time": 168.97496846666894,
            "value": 0.8976377952755905
          },
          {
            "number": 2,
            "time": 168.97661320000228,
            "value": 0.8976377952755905
          },
          {
            "number": 2,
            "time": 168.9782579333356,
            "value": 0.889763779527559
          },
          {
            "number": 2,
            "time": 168.97990266666895,
            "value": 0.889763779527559
          },
          {
            "number": 2,
            "time": 168.98154740000228,
            "value": 0.889763779527559
          },
          {
            "number": 2,
            "time": 168.98319213333562,
            "value": 0.8818897637795275
          },
          {
            "number": 2,
            "time": 168.98483686666896,
            "value": 0.8818897637795275
          },
          {
            "number": 2,
            "time": 168.9864816000023,
            "value": 0.8818897637795275
          },
          {
            "number": 2,
            "time": 168.98812633333563,
            "value": 0.8740157480314961
          },
          {
            "number": 2,
            "time": 168.98977106666896,
            "value": 0.8740157480314961
          },
          {
            "number": 2,
            "time": 168.9914158000023,
            "value": 0.8740157480314961
          },
          {
            "number": 2,
            "time": 168.99306053333564,
            "value": 0.8661417322834646
          },
          {
            "number": 2,
            "time": 168.99470526666897,
            "value": 0.8661417322834646
          },
          {
            "number": 2,
            "time": 168.9963500000023,
            "value": 0.8661417322834646
          },
          {
            "number": 2,
            "time": 168.99799473333564,
            "value": 0.8582677165354331
          },
          {
            "number": 2,
            "time": 168.99963946666898,
            "value": 0.8582677165354331
          },
          {
            "number": 2,
            "time": 169.00128420000232,
            "value": 0.8582677165354331
          },
          {
            "number": 2,
            "time": 169.00292893333565,
            "value": 0.8503937007874016
          },
          {
            "number": 2,
            "time": 169.004573666669,
            "value": 0.8503937007874016
          },
          {
            "number": 2,
            "time": 169.00621840000233,
            "value": 0.8503937007874016
          },
          {
            "number": 2,
            "time": 169.00786313333566,
            "value": 0.84251968503937
          },
          {
            "number": 2,
            "time": 169.009507866669,
            "value": 0.84251968503937
          },
          {
            "number": 2,
            "time": 169.01115260000233,
            "value": 0.84251968503937
          },
          {
            "number": 2,
            "time": 169.01279733333567,
            "value": 0.8346456692913385
          },
          {
            "number": 2,
            "time": 169.014442066669,
            "value": 0.8346456692913385
          },
          {
            "number": 2,
            "time": 169.01608680000234,
            "value": 0.8346456692913385
          },
          {
            "number": 2,
            "time": 169.01773153333568,
            "value": 0.8267716535433071
          },
          {
            "number": 2,
            "time": 169.019376266669,
            "value": 0.8267716535433071
          },
          {
            "number": 2,
            "time": 169.02102100000235,
            "value": 0.8267716535433071
          },
          {
            "number": 2,
            "time": 169.02266573333569,
            "value": 0.8188976377952756
          },
          {
            "number": 2,
            "time": 169.02431046666902,
            "value": 0.8188976377952756
          },
          {
            "number": 2,
            "time": 169.02595520000236,
            "value": 0.8188976377952756
          },
          {
            "number": 2,
            "time": 169.0275999333357,
            "value": 0.8110236220472441
          },
          {
            "number": 2,
            "time": 169.02924466666903,
            "value": 0.8110236220472441
          },
          {
            "number": 2,
            "time": 169.03088940000237,
            "value": 0.8110236220472441
          },
          {
            "number": 2,
            "time": 169.0325341333357,
            "value": 0.8031496062992126
          },
          {
            "number": 2,
            "time": 169.03417886666904,
            "value": 0.8031496062992126
          },
          {
            "number": 2,
            "time": 169.03582360000237,
            "value": 0.8031496062992126
          },
          {
            "number": 2,
            "time": 169.0374683333357,
            "value": 0.7952755905511811
          },
          {
            "number": 2,
            "time": 169.03911306666905,
            "value": 0.7952755905511811
          },
          {
            "number": 2,
            "time": 169.04075780000238,
            "value": 0.7952755905511811
          },
          {
            "number": 2,
            "time": 169.04240253333572,
            "value": 0.7874015748031497
          },
          {
            "number": 2,
            "time": 169.04404726666905,
            "value": 0.7874015748031497
          },
          {
            "number": 2,
            "time": 169.0456920000024,
            "value": 0.7874015748031497
          },
          {
            "number": 2,
            "time": 169.04733673333573,
            "value": 0.7795275590551181
          },
          {
            "number": 2,
            "time": 169.04898146666906,
            "value": 0.7795275590551181
          },
          {
            "number": 2,
            "time": 169.0506262000024,
            "value": 0.7795275590551181
          },
          {
            "number": 2,
            "time": 169.05227093333573,
            "value": 0.7716535433070866
          },
          {
            "number": 2,
            "time": 169.05391566666907,
            "value": 0.7716535433070866
          },
          {
            "number": 2,
            "time": 169.0555604000024,
            "value": 0.7716535433070866
          },
          {
            "number": 2,
            "time": 169.05720513333574,
            "value": 0.7637795275590551
          },
          {
            "number": 2,
            "time": 169.05884986666908,
            "value": 0.7637795275590551
          },
          {
            "number": 2,
            "time": 169.06049460000241,
            "value": 0.7637795275590551
          },
          {
            "number": 2,
            "time": 169.06213933333575,
            "value": 0.7559055118110236
          },
          {
            "number": 2,
            "time": 169.0637840666691,
            "value": 0.7559055118110236
          },
          {
            "number": 2,
            "time": 169.06542880000242,
            "value": 0.7559055118110236
          },
          {
            "number": 2,
            "time": 169.06707353333576,
            "value": 0.7480314960629921
          },
          {
            "number": 2,
            "time": 169.0687182666691,
            "value": 0.7480314960629921
          },
          {
            "number": 2,
            "time": 169.07036300000243,
            "value": 0.7480314960629921
          },
          {
            "number": 2,
            "time": 169.07200773333577,
            "value": 0.7401574803149606
          },
          {
            "number": 2,
            "time": 169.0736524666691,
            "value": 0.7401574803149606
          },
          {
            "number": 2,
            "time": 169.07529720000244,
            "value": 0.7401574803149606
          },
          {
            "number": 2,
            "time": 169.07694193333577,
            "value": 0.7322834645669292
          },
          {
            "number": 2,
            "time": 169.0785866666691,
            "value": 0.7322834645669292
          },
          {
            "number": 2,
            "time": 169.08023140000245,
            "value": 0.7322834645669292
          },
          {
            "number": 2,
            "time": 169.08187613333578,
            "value": 0.7244094488188977
          },
          {
            "number": 2,
            "time": 169.08352086666912,
            "value": 0.7244094488188977
          },
          {
            "number": 2,
            "time": 169.08516560000245,
            "value": 0.7244094488188977
          },
          {
            "number": 2,
            "time": 169.0868103333358,
            "value": 0.7165354330708661
          },
          {
            "number": 2,
            "time": 169.08845506666913,
            "value": 0.7165354330708661
          },
          {
            "number": 2,
            "time": 169.09009980000246,
            "value": 0.7165354330708661
          },
          {
            "number": 2,
            "time": 169.0917445333358,
            "value": 0.7086614173228346
          },
          {
            "number": 2,
            "time": 169.09338926666913,
            "value": 0.7086614173228346
          },
          {
            "number": 2,
            "time": 169.09503400000247,
            "value": 0.7086614173228346
          },
          {
            "number": 2,
            "time": 169.0966787333358,
            "value": 0.7007874015748031
          },
          {
            "number": 2,
            "time": 169.09832346666914,
            "value": 0.7007874015748031
          },
          {
            "number": 2,
            "time": 169.09996820000248,
            "value": 0.7007874015748031
          },
          {
            "number": 2,
            "time": 169.10161293333582,
            "value": 0.6929133858267716
          },
          {
            "number": 2,
            "time": 169.10325766666915,
            "value": 0.6929133858267716
          },
          {
            "number": 2,
            "time": 169.1049024000025,
            "value": 0.6929133858267716
          },
          {
            "number": 2,
            "time": 169.10654713333582,
            "value": 0.6850393700787402
          },
          {
            "number": 2,
            "time": 169.10819186666916,
            "value": 0.6850393700787402
          },
          {
            "number": 2,
            "time": 169.1098366000025,
            "value": 0.6850393700787402
          },
          {
            "number": 2,
            "time": 169.11148133333583,
            "value": 0.6771653543307087
          },
          {
            "number": 2,
            "time": 169.11312606666917,
            "value": 0.6771653543307087
          },
          {
            "number": 2,
            "time": 169.1147708000025,
            "value": 0.6771653543307087
          },
          {
            "number": 2,
            "time": 169.11641553333584,
            "value": 0.6692913385826772
          },
          {
            "number": 2,
            "time": 169.11806026666918,
            "value": 0.6692913385826772
          },
          {
            "number": 2,
            "time": 169.1197050000025,
            "value": 0.6692913385826772
          },
          {
            "number": 2,
            "time": 169.12134973333585,
            "value": 0.6614173228346457
          },
          {
            "number": 2,
            "time": 169.12299446666918,
            "value": 0.6614173228346457
          },
          {
            "number": 2,
            "time": 169.12463920000252,
            "value": 0.6614173228346457
          },
          {
            "number": 2,
            "time": 169.12628393333586,
            "value": 0.6535433070866141
          },
          {
            "number": 2,
            "time": 169.1279286666692,
            "value": 0.6535433070866141
          },
          {
            "number": 2,
            "time": 169.12957340000253,
            "value": 0.6535433070866141
          },
          {
            "number": 2,
            "time": 169.13121813333586,
            "value": 0.6456692913385826
          },
          {
            "number": 2,
            "time": 169.1328628666692,
            "value": 0.6456692913385826
          },
          {
            "number": 2,
            "time": 169.13450760000254,
            "value": 0.6456692913385826
          },
          {
            "number": 2,
            "time": 169.13615233333587,
            "value": 0.6377952755905512
          },
          {
            "number": 2,
            "time": 169.1377970666692,
            "value": 0.6377952755905512
          },
          {
            "number": 2,
            "time": 169.13944180000254,
            "value": 0.6377952755905512
          },
          {
            "number": 2,
            "time": 169.14108653333588,
            "value": 0.6299212598425197
          },
          {
            "number": 2,
            "time": 169.14273126666922,
            "value": 0.6299212598425197
          },
          {
            "number": 2,
            "time": 169.34174400000256,
            "value": 0.6299212598425197
          },
          {
            "number": 2,
            "time": 170.13121600000258,
            "value": 0.6299212598425197
          },
          {
            "number": 2,
            "time": 170.52595200000258,
            "value": 0.9448818897637795
          },
          {
            "number": 2,
            "time": 170.5275967333359,
            "value": 0.937007874015748
          },
          {
            "number": 2,
            "time": 170.52924146666925,
            "value": 0.937007874015748
          },
          {
            "number": 2,
            "time": 170.53088620000258,
            "value": 0.937007874015748
          },
          {
            "number": 2,
            "time": 170.53253093333592,
            "value": 0.9291338582677166
          },
          {
            "number": 2,
            "time": 170.53417566666926,
            "value": 0.9291338582677166
          },
          {
            "number": 2,
            "time": 170.5358204000026,
            "value": 0.9291338582677166
          },
          {
            "number": 2,
            "time": 170.53746513333593,
            "value": 0.9212598425196851
          },
          {
            "number": 2,
            "time": 170.53910986666926,
            "value": 0.9212598425196851
          },
          {
            "number": 2,
            "time": 170.5407546000026,
            "value": 0.9212598425196851
          },
          {
            "number": 2,
            "time": 170.54239933333594,
            "value": 0.9133858267716536
          },
          {
            "number": 2,
            "time": 170.54404406666927,
            "value": 0.9133858267716536
          },
          {
            "number": 2,
            "time": 170.5456888000026,
            "value": 0.9133858267716536
          },
          {
            "number": 2,
            "time": 170.54733353333594,
            "value": 0.905511811023622
          },
          {
            "number": 2,
            "time": 170.54897826666928,
            "value": 0.905511811023622
          },
          {
            "number": 2,
            "time": 170.55062300000262,
            "value": 0.905511811023622
          },
          {
            "number": 2,
            "time": 170.55226773333595,
            "value": 0.8976377952755905
          },
          {
            "number": 2,
            "time": 170.5539124666693,
            "value": 0.8976377952755905
          },
          {
            "number": 2,
            "time": 170.55555720000262,
            "value": 0.8976377952755905
          },
          {
            "number": 2,
            "time": 170.55720193333596,
            "value": 0.889763779527559
          },
          {
            "number": 2,
            "time": 170.5588466666693,
            "value": 0.889763779527559
          },
          {
            "number": 2,
            "time": 170.56049140000263,
            "value": 0.889763779527559
          },
          {
            "number": 2,
            "time": 170.56213613333597,
            "value": 0.8818897637795275
          },
          {
            "number": 2,
            "time": 170.5637808666693,
            "value": 0.8818897637795275
          },
          {
            "number": 2,
            "time": 170.56542560000264,
            "value": 0.8818897637795275
          },
          {
            "number": 2,
            "time": 170.56707033333598,
            "value": 0.8740157480314961
          },
          {
            "number": 2,
            "time": 170.5687150666693,
            "value": 0.8740157480314961
          },
          {
            "number": 2,
            "time": 170.57035980000265,
            "value": 0.8740157480314961
          },
          {
            "number": 2,
            "time": 170.57200453333598,
            "value": 0.8661417322834646
          },
          {
            "number": 2,
            "time": 170.57364926666932,
            "value": 0.8661417322834646
          },
          {
            "number": 2,
            "time": 170.57529400000266,
            "value": 0.8661417322834646
          },
          {
            "number": 2,
            "time": 170.576938733336,
            "value": 0.8582677165354331
          },
          {
            "number": 2,
            "time": 170.57858346666933,
            "value": 0.8582677165354331
          },
          {
            "number": 2,
            "time": 170.58022820000267,
            "value": 0.8582677165354331
          },
          {
            "number": 2,
            "time": 170.581872933336,
            "value": 0.8503937007874016
          },
          {
            "number": 2,
            "time": 170.58351766666934,
            "value": 0.8503937007874016
          },
          {
            "number": 2,
            "time": 170.58516240000267,
            "value": 0.8503937007874016
          },
          {
            "number": 2,
            "time": 170.586807133336,
            "value": 0.84251968503937
          },
          {
            "number": 2,
            "time": 170.58845186666935,
            "value": 0.84251968503937
          },
          {
            "number": 2,
            "time": 170.59009660000268,
            "value": 0.84251968503937
          },
          {
            "number": 2,
            "time": 170.59174133333602,
            "value": 0.8346456692913385
          },
          {
            "number": 2,
            "time": 170.59338606666935,
            "value": 0.8346456692913385
          },
          {
            "number": 2,
            "time": 170.5950308000027,
            "value": 0.8346456692913385
          },
          {
            "number": 2,
            "time": 170.59667553333603,
            "value": 0.8267716535433071
          },
          {
            "number": 2,
            "time": 170.59832026666936,
            "value": 0.8267716535433071
          },
          {
            "number": 2,
            "time": 170.5999650000027,
            "value": 0.8267716535433071
          },
          {
            "number": 2,
            "time": 170.60160973333603,
            "value": 0.8188976377952756
          },
          {
            "number": 2,
            "time": 170.60325446666937,
            "value": 0.8188976377952756
          },
          {
            "number": 2,
            "time": 170.6048992000027,
            "value": 0.8188976377952756
          },
          {
            "number": 2,
            "time": 170.60654393333604,
            "value": 0.8110236220472441
          },
          {
            "number": 2,
            "time": 170.60818866666938,
            "value": 0.8110236220472441
          },
          {
            "number": 2,
            "time": 170.6098334000027,
            "value": 0.8110236220472441
          },
          {
            "number": 2,
            "time": 170.61147813333605,
            "value": 0.8031496062992126
          },
          {
            "number": 2,
            "time": 170.61312286666939,
            "value": 0.8031496062992126
          },
          {
            "number": 2,
            "time": 170.61476760000272,
            "value": 0.8031496062992126
          },
          {
            "number": 2,
            "time": 170.61641233333606,
            "value": 0.7952755905511811
          },
          {
            "number": 2,
            "time": 170.6180570666694,
            "value": 0.7952755905511811
          },
          {
            "number": 2,
            "time": 170.61970180000273,
            "value": 0.7952755905511811
          },
          {
            "number": 2,
            "time": 170.62134653333607,
            "value": 0.7874015748031497
          },
          {
            "number": 2,
            "time": 170.6229912666694,
            "value": 0.7874015748031497
          },
          {
            "number": 2,
            "time": 170.62463600000274,
            "value": 0.7874015748031497
          },
          {
            "number": 2,
            "time": 170.62628073333607,
            "value": 0.7795275590551181
          },
          {
            "number": 2,
            "time": 170.6279254666694,
            "value": 0.7795275590551181
          },
          {
            "number": 2,
            "time": 170.62957020000275,
            "value": 0.7795275590551181
          },
          {
            "number": 2,
            "time": 170.63121493333608,
            "value": 0.7716535433070866
          },
          {
            "number": 2,
            "time": 170.63285966666942,
            "value": 0.7716535433070866
          },
          {
            "number": 2,
            "time": 170.63450440000275,
            "value": 0.7716535433070866
          },
          {
            "number": 2,
            "time": 170.6361491333361,
            "value": 0.7637795275590551
          },
          {
            "number": 2,
            "time": 170.63779386666943,
            "value": 0.7637795275590551
          },
          {
            "number": 2,
            "time": 170.63943860000276,
            "value": 0.7637795275590551
          },
          {
            "number": 2,
            "time": 170.6410833333361,
            "value": 0.7559055118110236
          },
          {
            "number": 2,
            "time": 170.64272806666943,
            "value": 0.7559055118110236
          },
          {
            "number": 2,
            "time": 170.64437280000277,
            "value": 0.7559055118110236
          },
          {
            "number": 2,
            "time": 170.6460175333361,
            "value": 0.7480314960629921
          },
          {
            "number": 2,
            "time": 170.64766226666944,
            "value": 0.7480314960629921
          },
          {
            "number": 2,
            "time": 170.64930700000278,
            "value": 0.7480314960629921
          },
          {
            "number": 2,
            "time": 170.65095173333611,
            "value": 0.7401574803149606
          },
          {
            "number": 2,
            "time": 170.65259646666945,
            "value": 0.7401574803149606
          },
          {
            "number": 2,
            "time": 170.6542412000028,
            "value": 0.7401574803149606
          },
          {
            "number": 2,
            "time": 170.65588593333612,
            "value": 0.7322834645669292
          },
          {
            "number": 2,
            "time": 170.65753066666946,
            "value": 0.7322834645669292
          },
          {
            "number": 2,
            "time": 170.6591754000028,
            "value": 0.7322834645669292
          },
          {
            "number": 2,
            "time": 170.66082013333613,
            "value": 0.7244094488188977
          },
          {
            "number": 2,
            "time": 170.66246486666947,
            "value": 0.7244094488188977
          },
          {
            "number": 2,
            "time": 170.6641096000028,
            "value": 0.7244094488188977
          },
          {
            "number": 2,
            "time": 170.66575433333614,
            "value": 0.7165354330708661
          },
          {
            "number": 2,
            "time": 170.66739906666947,
            "value": 0.7165354330708661
          },
          {
            "number": 2,
            "time": 170.6690438000028,
            "value": 0.7165354330708661
          },
          {
            "number": 2,
            "time": 170.67068853333615,
            "value": 0.7086614173228346
          },
          {
            "number": 2,
            "time": 170.67233326666948,
            "value": 0.7086614173228346
          },
          {
            "number": 2,
            "time": 170.67397800000282,
            "value": 0.7086614173228346
          },
          {
            "number": 2,
            "time": 170.67562273333616,
            "value": 0.7007874015748031
          },
          {
            "number": 2,
            "time": 170.6772674666695,
            "value": 0.7007874015748031
          },
          {
            "number": 2,
            "time": 170.67891220000283,
            "value": 0.7007874015748031
          },
          {
            "number": 2,
            "time": 170.68055693333616,
            "value": 0.6929133858267716
          },
          {
            "number": 2,
            "time": 170.6822016666695,
            "value": 0.6929133858267716
          },
          {
            "number": 2,
            "time": 170.68384640000284,
            "value": 0.6929133858267716
          },
          {
            "number": 2,
            "time": 170.68549113333617,
            "value": 0.6850393700787402
          },
          {
            "number": 2,
            "time": 170.6871358666695,
            "value": 0.6850393700787402
          },
          {
            "number": 2,
            "time": 170.68878060000284,
            "value": 0.6850393700787402
          },
          {
            "number": 2,
            "time": 170.69042533333618,
            "value": 0.6771653543307087
          },
          {
            "number": 2,
            "time": 170.69207006666952,
            "value": 0.6771653543307087
          },
          {
            "number": 2,
            "time": 170.69371480000285,
            "value": 0.6771653543307087
          },
          {
            "number": 2,
            "time": 170.6953595333362,
            "value": 0.6692913385826772
          },
          {
            "number": 2,
            "time": 170.69700426666952,
            "value": 0.6692913385826772
          },
          {
            "number": 2,
            "time": 170.69864900000286,
            "value": 0.6692913385826772
          },
          {
            "number": 2,
            "time": 170.7002937333362,
            "value": 0.6614173228346457
          },
          {
            "number": 2,
            "time": 170.70193846666953,
            "value": 0.6614173228346457
          },
          {
            "number": 2,
            "time": 170.70358320000287,
            "value": 0.6614173228346457
          },
          {
            "number": 2,
            "time": 170.7052279333362,
            "value": 0.6535433070866141
          },
          {
            "number": 2,
            "time": 170.70687266666954,
            "value": 0.6535433070866141
          },
          {
            "number": 2,
            "time": 170.70851740000288,
            "value": 0.6535433070866141
          },
          {
            "number": 2,
            "time": 170.7101621333362,
            "value": 0.6456692913385826
          },
          {
            "number": 2,
            "time": 170.71180686666955,
            "value": 0.6456692913385826
          },
          {
            "number": 2,
            "time": 170.71345160000288,
            "value": 0.6456692913385826
          },
          {
            "number": 2,
            "time": 170.71509633333622,
            "value": 0.6377952755905512
          },
          {
            "number": 2,
            "time": 170.71674106666956,
            "value": 0.6377952755905512
          },
          {
            "number": 2,
            "time": 170.7183858000029,
            "value": 0.6377952755905512
          },
          {
            "number": 2,
            "time": 170.72003053333623,
            "value": 0.6299212598425197
          },
          {
            "number": 2,
            "time": 170.72167526666956,
            "value": 0.6299212598425197
          },
          {
            "number": 2,
            "time": 170.9206880000029,
            "value": 0.6299212598425197
          },
          {
            "number": 2,
            "time": 171.71016000000293,
            "value": 0.6299212598425197
          },
          {
            "number": 2,
            "time": 172.10489600000292,
            "value": 0.9448818897637795
          },
          {
            "number": 2,
            "time": 172.10654073333626,
            "value": 0.937007874015748
          },
          {
            "number": 2,
            "time": 172.1081854666696,
            "value": 0.937007874015748
          },
          {
            "number": 2,
            "time": 172.10983020000293,
            "value": 0.937007874015748
          },
          {
            "number": 2,
            "time": 172.11147493333627,
            "value": 0.9291338582677166
          },
          {
            "number": 2,
            "time": 172.1131196666696,
            "value": 0.9291338582677166
          },
          {
            "number": 2,
            "time": 172.11476440000294,
            "value": 0.9291338582677166
          },
          {
            "number": 2,
            "time": 172.11640913333628,
            "value": 0.9212598425196851
          },
          {
            "number": 2,
            "time": 172.1180538666696,
            "value": 0.9212598425196851
          },
          {
            "number": 2,
            "time": 172.11969860000295,
            "value": 0.9212598425196851
          },
          {
            "number": 2,
            "time": 172.12134333333628,
            "value": 0.9133858267716536
          },
          {
            "number": 2,
            "time": 172.12298806666962,
            "value": 0.9133858267716536
          },
          {
            "number": 2,
            "time": 172.12463280000296,
            "value": 0.9133858267716536
          },
          {
            "number": 2,
            "time": 172.1262775333363,
            "value": 0.905511811023622
          },
          {
            "number": 2,
            "time": 172.12792226666963,
            "value": 0.905511811023622
          },
          {
            "number": 2,
            "time": 172.12956700000296,
            "value": 0.905511811023622
          },
          {
            "number": 2,
            "time": 172.1312117333363,
            "value": 0.8976377952755905
          },
          {
            "number": 2,
            "time": 172.13285646666964,
            "value": 0.8976377952755905
          },
          {
            "number": 2,
            "time": 172.13450120000297,
            "value": 0.8976377952755905
          },
          {
            "number": 2,
            "time": 172.1361459333363,
            "value": 0.889763779527559
          },
          {
            "number": 2,
            "time": 172.13779066666964,
            "value": 0.889763779527559
          },
          {
            "number": 2,
            "time": 172.13943540000298,
            "value": 0.889763779527559
          },
          {
            "number": 2,
            "time": 172.14108013333632,
            "value": 0.8818897637795275
          },
          {
            "number": 2,
            "time": 172.14272486666965,
            "value": 0.8818897637795275
          },
          {
            "number": 2,
            "time": 172.144369600003,
            "value": 0.8818897637795275
          },
          {
            "number": 2,
            "time": 172.14601433333632,
            "value": 0.8740157480314961
          },
          {
            "number": 2,
            "time": 172.14765906666966,
            "value": 0.8740157480314961
          },
          {
            "number": 2,
            "time": 172.149303800003,
            "value": 0.8740157480314961
          },
          {
            "number": 2,
            "time": 172.15094853333633,
            "value": 0.8661417322834646
          },
          {
            "number": 2,
            "time": 172.15259326666967,
            "value": 0.8661417322834646
          },
          {
            "number": 2,
            "time": 172.154238000003,
            "value": 0.8661417322834646
          },
          {
            "number": 2,
            "time": 172.15588273333634,
            "value": 0.8582677165354331
          },
          {
            "number": 2,
            "time": 172.15752746666968,
            "value": 0.8582677165354331
          },
          {
            "number": 2,
            "time": 172.159172200003,
            "value": 0.8582677165354331
          },
          {
            "number": 2,
            "time": 172.16081693333635,
            "value": 0.8503937007874016
          },
          {
            "number": 2,
            "time": 172.16246166666969,
            "value": 0.8503937007874016
          },
          {
            "number": 2,
            "time": 172.16410640000302,
            "value": 0.8503937007874016
          },
          {
            "number": 2,
            "time": 172.16575113333636,
            "value": 0.84251968503937
          },
          {
            "number": 2,
            "time": 172.1673958666697,
            "value": 0.84251968503937
          },
          {
            "number": 2,
            "time": 172.16904060000303,
            "value": 0.84251968503937
          },
          {
            "number": 2,
            "time": 172.17068533333637,
            "value": 0.8346456692913385
          },
          {
            "number": 2,
            "time": 172.1723300666697,
            "value": 0.8346456692913385
          },
          {
            "number": 2,
            "time": 172.17397480000304,
            "value": 0.8346456692913385
          },
          {
            "number": 2,
            "time": 172.17561953333637,
            "value": 0.8267716535433071
          },
          {
            "number": 2,
            "time": 172.1772642666697,
            "value": 0.8267716535433071
          },
          {
            "number": 2,
            "time": 172.17890900000305,
            "value": 0.8267716535433071
          },
          {
            "number": 2,
            "time": 172.18055373333638,
            "value": 0.8188976377952756
          },
          {
            "number": 2,
            "time": 172.18219846666972,
            "value": 0.8188976377952756
          },
          {
            "number": 2,
            "time": 172.18384320000305,
            "value": 0.8188976377952756
          },
          {
            "number": 2,
            "time": 172.1854879333364,
            "value": 0.8110236220472441
          },
          {
            "number": 2,
            "time": 172.18713266666973,
            "value": 0.8110236220472441
          },
          {
            "number": 2,
            "time": 172.18877740000306,
            "value": 0.8110236220472441
          },
          {
            "number": 2,
            "time": 172.1904221333364,
            "value": 0.8031496062992126
          },
          {
            "number": 2,
            "time": 172.19206686666973,
            "value": 0.8031496062992126
          },
          {
            "number": 2,
            "time": 172.19371160000307,
            "value": 0.8031496062992126
          },
          {
            "number": 2,
            "time": 172.1953563333364,
            "value": 0.7952755905511811
          },
          {
            "number": 2,
            "time": 172.19700106666974,
            "value": 0.7952755905511811
          },
          {
            "number": 2,
            "time": 172.19864580000308,
            "value": 0.7952755905511811
          },
          {
            "number": 2,
            "time": 172.2002905333364,
            "value": 0.7874015748031497
          },
          {
            "number": 2,
            "time": 172.20193526666975,
            "value": 0.7874015748031497
          },
          {
            "number": 2,
            "time": 172.2035800000031,
            "value": 0.7874015748031497
          },
          {
            "number": 2,
            "time": 172.20522473333642,
            "value": 0.7795275590551181
          },
          {
            "number": 2,
            "time": 172.20686946666976,
            "value": 0.7795275590551181
          },
          {
            "number": 2,
            "time": 172.2085142000031,
            "value": 0.7795275590551181
          },
          {
            "number": 2,
            "time": 172.21015893333643,
            "value": 0.7716535433070866
          },
          {
            "number": 2,
            "time": 172.21180366666977,
            "value": 0.7716535433070866
          },
          {
            "number": 2,
            "time": 172.2134484000031,
            "value": 0.7716535433070866
          },
          {
            "number": 2,
            "time": 172.21509313333644,
            "value": 0.7637795275590551
          },
          {
            "number": 2,
            "time": 172.21673786666977,
            "value": 0.7637795275590551
          },
          {
            "number": 2,
            "time": 172.2183826000031,
            "value": 0.7637795275590551
          },
          {
            "number": 2,
            "time": 172.22002733333645,
            "value": 0.7559055118110236
          },
          {
            "number": 2,
            "time": 172.22167206666978,
            "value": 0.7559055118110236
          },
          {
            "number": 2,
            "time": 172.22331680000312,
            "value": 0.7559055118110236
          },
          {
            "number": 2,
            "time": 172.22496153333645,
            "value": 0.7480314960629921
          },
          {
            "number": 2,
            "time": 172.2266062666698,
            "value": 0.7480314960629921
          },
          {
            "number": 2,
            "time": 172.22825100000313,
            "value": 0.7480314960629921
          },
          {
            "number": 2,
            "time": 172.22989573333646,
            "value": 0.7401574803149606
          },
          {
            "number": 2,
            "time": 172.2315404666698,
            "value": 0.7401574803149606
          },
          {
            "number": 2,
            "time": 172.23318520000313,
            "value": 0.7401574803149606
          },
          {
            "number": 2,
            "time": 172.23482993333647,
            "value": 0.7322834645669292
          },
          {
            "number": 2,
            "time": 172.2364746666698,
            "value": 0.7322834645669292
          },
          {
            "number": 2,
            "time": 172.23811940000314,
            "value": 0.7322834645669292
          },
          {
            "number": 2,
            "time": 172.23976413333648,
            "value": 0.7244094488188977
          },
          {
            "number": 2,
            "time": 172.24140886666981,
            "value": 0.7244094488188977
          },
          {
            "number": 2,
            "time": 172.24305360000315,
            "value": 0.7244094488188977
          },
          {
            "number": 2,
            "time": 172.2446983333365,
            "value": 0.7165354330708661
          },
          {
            "number": 2,
            "time": 172.24634306666982,
            "value": 0.7165354330708661
          },
          {
            "number": 2,
            "time": 172.24798780000316,
            "value": 0.7165354330708661
          },
          {
            "number": 2,
            "time": 172.2496325333365,
            "value": 0.7086614173228346
          },
          {
            "number": 2,
            "time": 172.25127726666983,
            "value": 0.7086614173228346
          },
          {
            "number": 2,
            "time": 172.25292200000317,
            "value": 0.7086614173228346
          },
          {
            "number": 2,
            "time": 172.2545667333365,
            "value": 0.7007874015748031
          },
          {
            "number": 2,
            "time": 172.25621146666984,
            "value": 0.7007874015748031
          },
          {
            "number": 2,
            "time": 172.25785620000318,
            "value": 0.7007874015748031
          },
          {
            "number": 2,
            "time": 172.2595009333365,
            "value": 0.6929133858267716
          },
          {
            "number": 2,
            "time": 172.26114566666985,
            "value": 0.6929133858267716
          },
          {
            "number": 2,
            "time": 172.26279040000318,
            "value": 0.6929133858267716
          },
          {
            "number": 2,
            "time": 172.26443513333652,
            "value": 0.6850393700787402
          },
          {
            "number": 2,
            "time": 172.26607986666986,
            "value": 0.6850393700787402
          },
          {
            "number": 2,
            "time": 172.2677246000032,
            "value": 0.6850393700787402
          },
          {
            "number": 2,
            "time": 172.26936933333653,
            "value": 0.6771653543307087
          },
          {
            "number": 2,
            "time": 172.27101406666986,
            "value": 0.6771653543307087
          },
          {
            "number": 2,
            "time": 172.2726588000032,
            "value": 0.6771653543307087
          },
          {
            "number": 2,
            "time": 172.27430353333654,
            "value": 0.6692913385826772
          },
          {
            "number": 2,
            "time": 172.27594826666987,
            "value": 0.6692913385826772
          },
          {
            "number": 2,
            "time": 172.2775930000032,
            "value": 0.6692913385826772
          },
          {
            "number": 2,
            "time": 172.27923773333654,
            "value": 0.6614173228346457
          },
          {
            "number": 2,
            "time": 172.28088246666988,
            "value": 0.6614173228346457
          },
          {
            "number": 2,
            "time": 172.28252720000322,
            "value": 0.6614173228346457
          },
          {
            "number": 2,
            "time": 172.28417193333655,
            "value": 0.6535433070866141
          },
          {
            "number": 2,
            "time": 172.2858166666699,
            "value": 0.6535433070866141
          },
          {
            "number": 2,
            "time": 172.28746140000322,
            "value": 0.6535433070866141
          },
          {
            "number": 2,
            "time": 172.28910613333656,
            "value": 0.6456692913385826
          },
          {
            "number": 2,
            "time": 172.2907508666699,
            "value": 0.6456692913385826
          },
          {
            "number": 2,
            "time": 172.29239560000323,
            "value": 0.6456692913385826
          },
          {
            "number": 2,
            "time": 172.29404033333657,
            "value": 0.6377952755905512
          },
          {
            "number": 2,
            "time": 172.2956850666699,
            "value": 0.6377952755905512
          },
          {
            "number": 2,
            "time": 172.29732980000324,
            "value": 0.6377952755905512
          },
          {
            "number": 2,
            "time": 172.29897453333658,
            "value": 0.6299212598425197
          },
          {
            "number": 2,
            "time": 172.3006192666699,
            "value": 0.6299212598425197
          },
          {
            "number": 2,
            "time": 172.49963200000326,
            "value": 0.6299212598425197
          },
          {
            "number": 2,
            "time": 173.28910400000328,
            "value": 0.6299212598425197
          },
          {
            "number": 2,
            "time": 173.68384000000327,
            "value": 0.9448818897637795
          },
          {
            "number": 2,
            "time": 173.6854847333366,
            "value": 0.937007874015748
          },
          {
            "number": 2,
            "time": 173.68712946666994,
            "value": 0.937007874015748
          },
          {
            "number": 2,
            "time": 173.68877420000328,
            "value": 0.937007874015748
          },
          {
            "number": 2,
            "time": 173.69041893333662,
            "value": 0.9291338582677166
          },
          {
            "number": 2,
            "time": 173.69206366666995,
            "value": 0.9291338582677166
          },
          {
            "number": 2,
            "time": 173.6937084000033,
            "value": 0.9291338582677166
          },
          {
            "number": 2,
            "time": 173.69535313333662,
            "value": 0.9212598425196851
          },
          {
            "number": 2,
            "time": 173.69699786666996,
            "value": 0.9212598425196851
          },
          {
            "number": 2,
            "time": 173.6986426000033,
            "value": 0.9212598425196851
          },
          {
            "number": 2,
            "time": 173.70028733333663,
            "value": 0.9133858267716536
          },
          {
            "number": 2,
            "time": 173.70193206666997,
            "value": 0.9133858267716536
          },
          {
            "number": 2,
            "time": 173.7035768000033,
            "value": 0.9133858267716536
          },
          {
            "number": 2,
            "time": 173.70522153333664,
            "value": 0.905511811023622
          },
          {
            "number": 2,
            "time": 173.70686626666998,
            "value": 0.905511811023622
          },
          {
            "number": 2,
            "time": 173.7085110000033,
            "value": 0.905511811023622
          },
          {
            "number": 2,
            "time": 173.71015573333665,
            "value": 0.8976377952755905
          },
          {
            "number": 2,
            "time": 173.71180046666998,
            "value": 0.8976377952755905
          },
          {
            "number": 2,
            "time": 173.71344520000332,
            "value": 0.8976377952755905
          },
          {
            "number": 2,
            "time": 173.71508993333666,
            "value": 0.889763779527559
          },
          {
            "number": 2,
            "time": 173.71673466667,
            "value": 0.889763779527559
          },
          {
            "number": 2,
            "time": 173.71837940000333,
            "value": 0.889763779527559
          },
          {
            "number": 2,
            "time": 173.72002413333666,
            "value": 0.8818897637795275
          },
          {
            "number": 2,
            "time": 173.72166886667,
            "value": 0.8818897637795275
          },
          {
            "number": 2,
            "time": 173.72331360000334,
            "value": 0.8818897637795275
          },
          {
            "number": 2,
            "time": 173.72495833333667,
            "value": 0.8740157480314961
          },
          {
            "number": 2,
            "time": 173.72660306667,
            "value": 0.8740157480314961
          },
          {
            "number": 2,
            "time": 173.72824780000334,
            "value": 0.8740157480314961
          },
          {
            "number": 2,
            "time": 173.72989253333668,
            "value": 0.8661417322834646
          },
          {
            "number": 2,
            "time": 173.73153726667002,
            "value": 0.8661417322834646
          },
          {
            "number": 2,
            "time": 173.73318200000335,
            "value": 0.8661417322834646
          },
          {
            "number": 2,
            "time": 173.7348267333367,
            "value": 0.8582677165354331
          },
          {
            "number": 2,
            "time": 173.73647146667003,
            "value": 0.8582677165354331
          },
          {
            "number": 2,
            "time": 173.73811620000336,
            "value": 0.8582677165354331
          },
          {
            "number": 2,
            "time": 173.7397609333367,
            "value": 0.8503937007874016
          },
          {
            "number": 2,
            "time": 173.74140566667003,
            "value": 0.8503937007874016
          },
          {
            "number": 2,
            "time": 173.74305040000337,
            "value": 0.8503937007874016
          },
          {
            "number": 2,
            "time": 173.7446951333367,
            "value": 0.84251968503937
          },
          {
            "number": 2,
            "time": 173.74633986667004,
            "value": 0.84251968503937
          },
          {
            "number": 2,
            "time": 173.74798460000338,
            "value": 0.84251968503937
          },
          {
            "number": 2,
            "time": 173.7496293333367,
            "value": 0.8346456692913385
          },
          {
            "number": 2,
            "time": 173.75127406667005,
            "value": 0.8346456692913385
          },
          {
            "number": 2,
            "time": 173.75291880000339,
            "value": 0.8346456692913385
          },
          {
            "number": 2,
            "time": 173.75456353333672,
            "value": 0.8267716535433071
          },
          {
            "number": 2,
            "time": 173.75620826667006,
            "value": 0.8267716535433071
          },
          {
            "number": 2,
            "time": 173.7578530000034,
            "value": 0.8267716535433071
          },
          {
            "number": 2,
            "time": 173.75949773333673,
            "value": 0.8188976377952756
          },
          {
            "number": 2,
            "time": 173.76114246667007,
            "value": 0.8188976377952756
          },
          {
            "number": 2,
            "time": 173.7627872000034,
            "value": 0.8188976377952756
          },
          {
            "number": 2,
            "time": 173.76443193333674,
            "value": 0.8110236220472441
          },
          {
            "number": 2,
            "time": 173.76607666667007,
            "value": 0.8110236220472441
          },
          {
            "number": 2,
            "time": 173.7677214000034,
            "value": 0.8110236220472441
          },
          {
            "number": 2,
            "time": 173.76936613333675,
            "value": 0.8031496062992126
          },
          {
            "number": 2,
            "time": 173.77101086667008,
            "value": 0.8031496062992126
          },
          {
            "number": 2,
            "time": 173.77265560000342,
            "value": 0.8031496062992126
          },
          {
            "number": 2,
            "time": 173.77430033333675,
            "value": 0.7952755905511811
          },
          {
            "number": 2,
            "time": 173.7759450666701,
            "value": 0.7952755905511811
          },
          {
            "number": 2,
            "time": 173.77758980000343,
            "value": 0.7952755905511811
          },
          {
            "number": 2,
            "time": 173.77923453333676,
            "value": 0.7874015748031497
          },
          {
            "number": 2,
            "time": 173.7808792666701,
            "value": 0.7874015748031497
          },
          {
            "number": 2,
            "time": 173.78252400000343,
            "value": 0.7874015748031497
          },
          {
            "number": 2,
            "time": 173.78416873333677,
            "value": 0.7795275590551181
          },
          {
            "number": 2,
            "time": 173.7858134666701,
            "value": 0.7795275590551181
          },
          {
            "number": 2,
            "time": 173.78745820000344,
            "value": 0.7795275590551181
          },
          {
            "number": 2,
            "time": 173.78910293333678,
            "value": 0.7716535433070866
          },
          {
            "number": 2,
            "time": 173.79074766667011,
            "value": 0.7716535433070866
          },
          {
            "number": 2,
            "time": 173.79239240000345,
            "value": 0.7716535433070866
          },
          {
            "number": 2,
            "time": 173.7940371333368,
            "value": 0.7637795275590551
          },
          {
            "number": 2,
            "time": 173.79568186667012,
            "value": 0.7637795275590551
          },
          {
            "number": 2,
            "time": 173.79732660000346,
            "value": 0.7637795275590551
          },
          {
            "number": 2,
            "time": 173.7989713333368,
            "value": 0.7559055118110236
          },
          {
            "number": 2,
            "time": 173.80061606667013,
            "value": 0.7559055118110236
          },
          {
            "number": 2,
            "time": 173.80226080000347,
            "value": 0.7559055118110236
          },
          {
            "number": 2,
            "time": 173.8039055333368,
            "value": 0.7480314960629921
          },
          {
            "number": 2,
            "time": 173.80555026667014,
            "value": 0.7480314960629921
          },
          {
            "number": 2,
            "time": 173.80719500000347,
            "value": 0.7480314960629921
          },
          {
            "number": 2,
            "time": 173.8088397333368,
            "value": 0.7401574803149606
          },
          {
            "number": 2,
            "time": 173.81048446667015,
            "value": 0.7401574803149606
          },
          {
            "number": 2,
            "time": 173.81212920000348,
            "value": 0.7401574803149606
          },
          {
            "number": 2,
            "time": 173.81377393333682,
            "value": 0.7322834645669292
          },
          {
            "number": 2,
            "time": 173.81541866667015,
            "value": 0.7322834645669292
          },
          {
            "number": 2,
            "time": 173.8170634000035,
            "value": 0.7322834645669292
          },
          {
            "number": 2,
            "time": 173.81870813333683,
            "value": 0.7244094488188977
          },
          {
            "number": 2,
            "time": 173.82035286667016,
            "value": 0.7244094488188977
          },
          {
            "number": 2,
            "time": 173.8219976000035,
            "value": 0.7244094488188977
          },
          {
            "number": 2,
            "time": 173.82364233333684,
            "value": 0.7165354330708661
          },
          {
            "number": 2,
            "time": 173.82528706667017,
            "value": 0.7165354330708661
          },
          {
            "number": 2,
            "time": 173.8269318000035,
            "value": 0.7165354330708661
          },
          {
            "number": 2,
            "time": 173.82857653333684,
            "value": 0.7086614173228346
          },
          {
            "number": 2,
            "time": 173.83022126667018,
            "value": 0.7086614173228346
          },
          {
            "number": 2,
            "time": 173.83186600000352,
            "value": 0.7086614173228346
          },
          {
            "number": 2,
            "time": 173.83351073333685,
            "value": 0.7007874015748031
          },
          {
            "number": 2,
            "time": 173.8351554666702,
            "value": 0.7007874015748031
          },
          {
            "number": 2,
            "time": 173.83680020000352,
            "value": 0.7007874015748031
          },
          {
            "number": 2,
            "time": 173.83844493333686,
            "value": 0.6929133858267716
          },
          {
            "number": 2,
            "time": 173.8400896666702,
            "value": 0.6929133858267716
          },
          {
            "number": 2,
            "time": 173.84173440000353,
            "value": 0.6929133858267716
          },
          {
            "number": 2,
            "time": 173.84337913333687,
            "value": 0.6850393700787402
          },
          {
            "number": 2,
            "time": 173.8450238666702,
            "value": 0.6850393700787402
          },
          {
            "number": 2,
            "time": 173.84666860000354,
            "value": 0.6850393700787402
          },
          {
            "number": 2,
            "time": 173.84831333333688,
            "value": 0.6771653543307087
          },
          {
            "number": 2,
            "time": 173.8499580666702,
            "value": 0.6771653543307087
          },
          {
            "number": 2,
            "time": 173.85160280000355,
            "value": 0.6771653543307087
          },
          {
            "number": 2,
            "time": 173.85324753333688,
            "value": 0.6692913385826772
          },
          {
            "number": 2,
            "time": 173.85489226667022,
            "value": 0.6692913385826772
          },
          {
            "number": 2,
            "time": 173.85653700000356,
            "value": 0.6692913385826772
          },
          {
            "number": 2,
            "time": 173.8581817333369,
            "value": 0.6614173228346457
          },
          {
            "number": 2,
            "time": 173.85982646667023,
            "value": 0.6614173228346457
          },
          {
            "number": 2,
            "time": 173.86147120000356,
            "value": 0.6614173228346457
          },
          {
            "number": 2,
            "time": 173.8631159333369,
            "value": 0.6535433070866141
          },
          {
            "number": 2,
            "time": 173.86476066667024,
            "value": 0.6535433070866141
          },
          {
            "number": 2,
            "time": 173.86640540000357,
            "value": 0.6535433070866141
          },
          {
            "number": 2,
            "time": 173.8680501333369,
            "value": 0.6456692913385826
          },
          {
            "number": 2,
            "time": 173.86969486667024,
            "value": 0.6456692913385826
          },
          {
            "number": 2,
            "time": 173.87133960000358,
            "value": 0.6456692913385826
          },
          {
            "number": 2,
            "time": 173.87298433333692,
            "value": 0.6377952755905512
          },
          {
            "number": 2,
            "time": 173.87462906667025,
            "value": 0.6377952755905512
          },
          {
            "number": 2,
            "time": 173.8762738000036,
            "value": 0.6377952755905512
          },
          {
            "number": 2,
            "time": 173.87791853333692,
            "value": 0.6299212598425197
          },
          {
            "number": 2,
            "time": 173.87956326667026,
            "value": 0.6299212598425197
          },
          {
            "number": 2,
            "time": 174.0785760000036,
            "value": 0.6299212598425197
          },
          {
            "number": 2,
            "time": 174.86804800000363,
            "value": 0.6299212598425197
          },
          {
            "number": 2,
            "time": 175.26278400000362,
            "value": 0.9448818897637795
          },
          {
            "number": 2,
            "time": 175.26442873333696,
            "value": 0.937007874015748
          },
          {
            "number": 2,
            "time": 175.2660734666703,
            "value": 0.937007874015748
          },
          {
            "number": 2,
            "time": 175.26771820000363,
            "value": 0.937007874015748
          },
          {
            "number": 2,
            "time": 175.26936293333696,
            "value": 0.9291338582677166
          },
          {
            "number": 2,
            "time": 175.2710076666703,
            "value": 0.9291338582677166
          },
          {
            "number": 2,
            "time": 175.27265240000364,
            "value": 0.9291338582677166
          },
          {
            "number": 2,
            "time": 175.27429713333697,
            "value": 0.9212598425196851
          },
          {
            "number": 2,
            "time": 175.2759418666703,
            "value": 0.9212598425196851
          },
          {
            "number": 2,
            "time": 175.27758660000364,
            "value": 0.9212598425196851
          },
          {
            "number": 2,
            "time": 175.27923133333698,
            "value": 0.9133858267716536
          },
          {
            "number": 2,
            "time": 175.28087606667032,
            "value": 0.9133858267716536
          },
          {
            "number": 2,
            "time": 175.28252080000365,
            "value": 0.9133858267716536
          },
          {
            "number": 2,
            "time": 175.284165533337,
            "value": 0.905511811023622
          },
          {
            "number": 2,
            "time": 175.28581026667032,
            "value": 0.905511811023622
          },
          {
            "number": 2,
            "time": 175.28745500000366,
            "value": 0.905511811023622
          },
          {
            "number": 2,
            "time": 175.289099733337,
            "value": 0.8976377952755905
          },
          {
            "number": 2,
            "time": 175.29074446667033,
            "value": 0.8976377952755905
          },
          {
            "number": 2,
            "time": 175.29238920000367,
            "value": 0.8976377952755905
          },
          {
            "number": 2,
            "time": 175.294033933337,
            "value": 0.889763779527559
          },
          {
            "number": 2,
            "time": 175.29567866667034,
            "value": 0.889763779527559
          },
          {
            "number": 2,
            "time": 175.29732340000368,
            "value": 0.889763779527559
          },
          {
            "number": 2,
            "time": 175.298968133337,
            "value": 0.8818897637795275
          },
          {
            "number": 2,
            "time": 175.30061286667035,
            "value": 0.8818897637795275
          },
          {
            "number": 2,
            "time": 175.30225760000368,
            "value": 0.8818897637795275
          },
          {
            "number": 2,
            "time": 175.30390233333702,
            "value": 0.8740157480314961
          },
          {
            "number": 2,
            "time": 175.30554706667036,
            "value": 0.8740157480314961
          },
          {
            "number": 2,
            "time": 175.3071918000037,
            "value": 0.8740157480314961
          },
          {
            "number": 2,
            "time": 175.30883653333703,
            "value": 0.8661417322834646
          },
          {
            "number": 2,
            "time": 175.31048126667037,
            "value": 0.8661417322834646
          },
          {
            "number": 2,
            "time": 175.3121260000037,
            "value": 0.8661417322834646
          },
          {
            "number": 2,
            "time": 175.31377073333704,
            "value": 0.8582677165354331
          },
          {
            "number": 2,
            "time": 175.31541546667037,
            "value": 0.8582677165354331
          },
          {
            "number": 2,
            "time": 175.3170602000037,
            "value": 0.8582677165354331
          },
          {
            "number": 2,
            "time": 175.31870493333705,
            "value": 0.8503937007874016
          },
          {
            "number": 2,
            "time": 175.32034966667038,
            "value": 0.8503937007874016
          },
          {
            "number": 2,
            "time": 175.32199440000372,
            "value": 0.8503937007874016
          },
          {
            "number": 2,
            "time": 175.32363913333705,
            "value": 0.84251968503937
          },
          {
            "number": 2,
            "time": 175.3252838666704,
            "value": 0.84251968503937
          },
          {
            "number": 2,
            "time": 175.32692860000373,
            "value": 0.84251968503937
          },
          {
            "number": 2,
            "time": 175.32857333333706,
            "value": 0.8346456692913385
          },
          {
            "number": 2,
            "time": 175.3302180666704,
            "value": 0.8346456692913385
          },
          {
            "number": 2,
            "time": 175.33186280000373,
            "value": 0.8346456692913385
          },
          {
            "number": 2,
            "time": 175.33350753333707,
            "value": 0.8267716535433071
          },
          {
            "number": 2,
            "time": 175.3351522666704,
            "value": 0.8267716535433071
          },
          {
            "number": 2,
            "time": 175.33679700000374,
            "value": 0.8267716535433071
          },
          {
            "number": 2,
            "time": 175.33844173333708,
            "value": 0.8188976377952756
          },
          {
            "number": 2,
            "time": 175.3400864666704,
            "value": 0.8188976377952756
          },
          {
            "number": 2,
            "time": 175.34173120000375,
            "value": 0.8188976377952756
          },
          {
            "number": 2,
            "time": 175.3433759333371,
            "value": 0.8110236220472441
          },
          {
            "number": 2,
            "time": 175.34502066667042,
            "value": 0.8110236220472441
          },
          {
            "number": 2,
            "time": 175.34666540000376,
            "value": 0.8110236220472441
          },
          {
            "number": 2,
            "time": 175.3483101333371,
            "value": 0.8031496062992126
          },
          {
            "number": 2,
            "time": 175.34995486667043,
            "value": 0.8031496062992126
          },
          {
            "number": 2,
            "time": 175.35159960000377,
            "value": 0.8031496062992126
          },
          {
            "number": 2,
            "time": 175.3532443333371,
            "value": 0.7952755905511811
          },
          {
            "number": 2,
            "time": 175.35488906667044,
            "value": 0.7952755905511811
          },
          {
            "number": 2,
            "time": 175.35653380000377,
            "value": 0.7952755905511811
          },
          {
            "number": 2,
            "time": 175.3581785333371,
            "value": 0.7874015748031497
          },
          {
            "number": 2,
            "time": 175.35982326667045,
            "value": 0.7874015748031497
          },
          {
            "number": 2,
            "time": 175.36146800000378,
            "value": 0.7874015748031497
          },
          {
            "number": 2,
            "time": 175.36311273333712,
            "value": 0.7795275590551181
          },
          {
            "number": 2,
            "time": 175.36475746667045,
            "value": 0.7795275590551181
          },
          {
            "number": 2,
            "time": 175.3664022000038,
            "value": 0.7795275590551181
          },
          {
            "number": 2,
            "time": 175.36804693333713,
            "value": 0.7716535433070866
          },
          {
            "number": 2,
            "time": 175.36969166667046,
            "value": 0.7716535433070866
          },
          {
            "number": 2,
            "time": 175.3713364000038,
            "value": 0.7716535433070866
          },
          {
            "number": 2,
            "time": 175.37298113333713,
            "value": 0.7637795275590551
          },
          {
            "number": 2,
            "time": 175.37462586667047,
            "value": 0.7637795275590551
          },
          {
            "number": 2,
            "time": 175.3762706000038,
            "value": 0.7637795275590551
          },
          {
            "number": 2,
            "time": 175.37791533333714,
            "value": 0.7559055118110236
          },
          {
            "number": 2,
            "time": 175.37956006667048,
            "value": 0.7559055118110236
          },
          {
            "number": 2,
            "time": 175.38120480000381,
            "value": 0.7559055118110236
          },
          {
            "number": 2,
            "time": 175.38284953333715,
            "value": 0.7480314960629921
          },
          {
            "number": 2,
            "time": 175.3844942666705,
            "value": 0.7480314960629921
          },
          {
            "number": 2,
            "time": 175.38613900000382,
            "value": 0.7480314960629921
          },
          {
            "number": 2,
            "time": 175.38778373333716,
            "value": 0.7401574803149606
          },
          {
            "number": 2,
            "time": 175.3894284666705,
            "value": 0.7401574803149606
          },
          {
            "number": 2,
            "time": 175.39107320000383,
            "value": 0.7401574803149606
          },
          {
            "number": 2,
            "time": 175.39271793333717,
            "value": 0.7322834645669292
          },
          {
            "number": 2,
            "time": 175.3943626666705,
            "value": 0.7322834645669292
          },
          {
            "number": 2,
            "time": 175.39600740000384,
            "value": 0.7322834645669292
          },
          {
            "number": 2,
            "time": 175.39765213333717,
            "value": 0.7244094488188977
          },
          {
            "number": 2,
            "time": 175.3992968666705,
            "value": 0.7244094488188977
          },
          {
            "number": 2,
            "time": 175.40094160000385,
            "value": 0.7244094488188977
          },
          {
            "number": 2,
            "time": 175.40258633333718,
            "value": 0.7165354330708661
          },
          {
            "number": 2,
            "time": 175.40423106667052,
            "value": 0.7165354330708661
          },
          {
            "number": 2,
            "time": 175.40587580000386,
            "value": 0.7165354330708661
          },
          {
            "number": 2,
            "time": 175.4075205333372,
            "value": 0.7086614173228346
          },
          {
            "number": 2,
            "time": 175.40916526667053,
            "value": 0.7086614173228346
          },
          {
            "number": 2,
            "time": 175.41081000000386,
            "value": 0.7086614173228346
          },
          {
            "number": 2,
            "time": 175.4124547333372,
            "value": 0.7007874015748031
          },
          {
            "number": 2,
            "time": 175.41409946667054,
            "value": 0.7007874015748031
          },
          {
            "number": 2,
            "time": 175.41574420000387,
            "value": 0.7007874015748031
          },
          {
            "number": 2,
            "time": 175.4173889333372,
            "value": 0.6929133858267716
          },
          {
            "number": 2,
            "time": 175.41903366667054,
            "value": 0.6929133858267716
          },
          {
            "number": 2,
            "time": 175.42067840000388,
            "value": 0.6929133858267716
          },
          {
            "number": 2,
            "time": 175.42232313333722,
            "value": 0.6850393700787402
          },
          {
            "number": 2,
            "time": 175.42396786667055,
            "value": 0.6850393700787402
          },
          {
            "number": 2,
            "time": 175.4256126000039,
            "value": 0.6850393700787402
          },
          {
            "number": 2,
            "time": 175.42725733333722,
            "value": 0.6771653543307087
          },
          {
            "number": 2,
            "time": 175.42890206667056,
            "value": 0.6771653543307087
          },
          {
            "number": 2,
            "time": 175.4305468000039,
            "value": 0.6771653543307087
          },
          {
            "number": 2,
            "time": 175.43219153333723,
            "value": 0.6692913385826772
          },
          {
            "number": 2,
            "time": 175.43383626667057,
            "value": 0.6692913385826772
          },
          {
            "number": 2,
            "time": 175.4354810000039,
            "value": 0.6692913385826772
          },
          {
            "number": 2,
            "time": 175.43712573333724,
            "value": 0.6614173228346457
          },
          {
            "number": 2,
            "time": 175.43877046667058,
            "value": 0.6614173228346457
          },
          {
            "number": 2,
            "time": 175.4404152000039,
            "value": 0.6614173228346457
          },
          {
            "number": 2,
            "time": 175.44205993333725,
            "value": 0.6535433070866141
          },
          {
            "number": 2,
            "time": 175.44370466667058,
            "value": 0.6535433070866141
          },
          {
            "number": 2,
            "time": 175.44534940000392,
            "value": 0.6535433070866141
          },
          {
            "number": 2,
            "time": 175.44699413333726,
            "value": 0.6456692913385826
          },
          {
            "number": 2,
            "time": 175.4486388666706,
            "value": 0.6456692913385826
          },
          {
            "number": 2,
            "time": 175.45028360000393,
            "value": 0.6456692913385826
          },
          {
            "number": 2,
            "time": 175.45192833333726,
            "value": 0.6377952755905512
          },
          {
            "number": 2,
            "time": 175.4535730666706,
            "value": 0.6377952755905512
          },
          {
            "number": 2,
            "time": 175.45521780000394,
            "value": 0.6377952755905512
          },
          {
            "number": 2,
            "time": 175.45686253333727,
            "value": 0.6299212598425197
          },
          {
            "number": 2,
            "time": 175.4585072666706,
            "value": 0.6299212598425197
          },
          {
            "number": 2,
            "time": 175.65752000000396,
            "value": 0.6299212598425197
          },
          {
            "number": 2,
            "time": 176.44699200000397,
            "value": 0.6299212598425197
          },
          {
            "number": 2,
            "time": 176.84172800000397,
            "value": 0.9448818897637795
          },
          {
            "number": 2,
            "time": 176.8433727333373,
            "value": 0.937007874015748
          },
          {
            "number": 2,
            "time": 176.84501746667064,
            "value": 0.937007874015748
          },
          {
            "number": 2,
            "time": 176.84666220000398,
            "value": 0.937007874015748
          },
          {
            "number": 2,
            "time": 176.8483069333373,
            "value": 0.9291338582677166
          },
          {
            "number": 2,
            "time": 176.84995166667065,
            "value": 0.9291338582677166
          },
          {
            "number": 2,
            "time": 176.85159640000398,
            "value": 0.9291338582677166
          },
          {
            "number": 2,
            "time": 176.85324113333732,
            "value": 0.9212598425196851
          },
          {
            "number": 2,
            "time": 176.85488586667066,
            "value": 0.9212598425196851
          },
          {
            "number": 2,
            "time": 176.856530600004,
            "value": 0.9212598425196851
          },
          {
            "number": 2,
            "time": 176.85817533333733,
            "value": 0.9133858267716536
          },
          {
            "number": 2,
            "time": 176.85982006667066,
            "value": 0.9133858267716536
          },
          {
            "number": 2,
            "time": 176.861464800004,
            "value": 0.9133858267716536
          },
          {
            "number": 2,
            "time": 176.86310953333734,
            "value": 0.905511811023622
          },
          {
            "number": 2,
            "time": 176.86475426667067,
            "value": 0.905511811023622
          },
          {
            "number": 2,
            "time": 176.866399000004,
            "value": 0.905511811023622
          },
          {
            "number": 2,
            "time": 176.86804373333734,
            "value": 0.8976377952755905
          },
          {
            "number": 2,
            "time": 176.86968846667068,
            "value": 0.8976377952755905
          },
          {
            "number": 2,
            "time": 176.87133320000402,
            "value": 0.8976377952755905
          },
          {
            "number": 2,
            "time": 176.87297793333735,
            "value": 0.889763779527559
          },
          {
            "number": 2,
            "time": 176.8746226666707,
            "value": 0.889763779527559
          },
          {
            "number": 2,
            "time": 176.87626740000402,
            "value": 0.889763779527559
          },
          {
            "number": 2,
            "time": 176.87791213333736,
            "value": 0.8818897637795275
          },
          {
            "number": 2,
            "time": 176.8795568666707,
            "value": 0.8818897637795275
          },
          {
            "number": 2,
            "time": 176.88120160000403,
            "value": 0.8818897637795275
          },
          {
            "number": 2,
            "time": 176.88284633333737,
            "value": 0.8740157480314961
          },
          {
            "number": 2,
            "time": 176.8844910666707,
            "value": 0.8740157480314961
          },
          {
            "number": 2,
            "time": 176.88613580000404,
            "value": 0.8740157480314961
          },
          {
            "number": 2,
            "time": 176.88778053333738,
            "value": 0.8661417322834646
          },
          {
            "number": 2,
            "time": 176.8894252666707,
            "value": 0.8661417322834646
          },
          {
            "number": 2,
            "time": 176.89107000000405,
            "value": 0.8661417322834646
          },
          {
            "number": 2,
            "time": 176.89271473333739,
            "value": 0.8582677165354331
          },
          {
            "number": 2,
            "time": 176.89435946667072,
            "value": 0.8582677165354331
          },
          {
            "number": 2,
            "time": 176.89600420000406,
            "value": 0.8582677165354331
          },
          {
            "number": 2,
            "time": 176.8976489333374,
            "value": 0.8503937007874016
          },
          {
            "number": 2,
            "time": 176.89929366667073,
            "value": 0.8503937007874016
          },
          {
            "number": 2,
            "time": 176.90093840000407,
            "value": 0.8503937007874016
          },
          {
            "number": 2,
            "time": 176.9025831333374,
            "value": 0.84251968503937
          },
          {
            "number": 2,
            "time": 176.90422786667074,
            "value": 0.84251968503937
          },
          {
            "number": 2,
            "time": 176.90587260000407,
            "value": 0.84251968503937
          },
          {
            "number": 2,
            "time": 176.9075173333374,
            "value": 0.8346456692913385
          },
          {
            "number": 2,
            "time": 176.90916206667075,
            "value": 0.8346456692913385
          },
          {
            "number": 2,
            "time": 176.91080680000408,
            "value": 0.8346456692913385
          },
          {
            "number": 2,
            "time": 176.91245153333742,
            "value": 0.8267716535433071
          },
          {
            "number": 2,
            "time": 176.91409626667075,
            "value": 0.8267716535433071
          },
          {
            "number": 2,
            "time": 176.9157410000041,
            "value": 0.8267716535433071
          },
          {
            "number": 2,
            "time": 176.91738573333743,
            "value": 0.8188976377952756
          },
          {
            "number": 2,
            "time": 176.91903046667076,
            "value": 0.8188976377952756
          },
          {
            "number": 2,
            "time": 176.9206752000041,
            "value": 0.8188976377952756
          },
          {
            "number": 2,
            "time": 176.92231993333743,
            "value": 0.8110236220472441
          },
          {
            "number": 2,
            "time": 176.92396466667077,
            "value": 0.8110236220472441
          },
          {
            "number": 2,
            "time": 176.9256094000041,
            "value": 0.8110236220472441
          },
          {
            "number": 2,
            "time": 176.92725413333744,
            "value": 0.8031496062992126
          },
          {
            "number": 2,
            "time": 176.92889886667078,
            "value": 0.8031496062992126
          },
          {
            "number": 2,
            "time": 176.9305436000041,
            "value": 0.8031496062992126
          },
          {
            "number": 2,
            "time": 176.93218833333745,
            "value": 0.7952755905511811
          },
          {
            "number": 2,
            "time": 176.9338330666708,
            "value": 0.7952755905511811
          },
          {
            "number": 2,
            "time": 176.93547780000412,
            "value": 0.7952755905511811
          },
          {
            "number": 2,
            "time": 176.93712253333746,
            "value": 0.7874015748031497
          },
          {
            "number": 2,
            "time": 176.9387672666708,
            "value": 0.7874015748031497
          },
          {
            "number": 2,
            "time": 176.94041200000413,
            "value": 0.7874015748031497
          },
          {
            "number": 2,
            "time": 176.94205673333747,
            "value": 0.7795275590551181
          },
          {
            "number": 2,
            "time": 176.9437014666708,
            "value": 0.7795275590551181
          },
          {
            "number": 2,
            "time": 176.94534620000414,
            "value": 0.7795275590551181
          },
          {
            "number": 2,
            "time": 176.94699093333747,
            "value": 0.7716535433070866
          },
          {
            "number": 2,
            "time": 176.9486356666708,
            "value": 0.7716535433070866
          },
          {
            "number": 2,
            "time": 176.95028040000415,
            "value": 0.7716535433070866
          },
          {
            "number": 2,
            "time": 176.95192513333748,
            "value": 0.7637795275590551
          },
          {
            "number": 2,
            "time": 176.95356986667082,
            "value": 0.7637795275590551
          },
          {
            "number": 2,
            "time": 176.95521460000415,
            "value": 0.7637795275590551
          },
          {
            "number": 2,
            "time": 176.9568593333375,
            "value": 0.7559055118110236
          },
          {
            "number": 2,
            "time": 176.95850406667083,
            "value": 0.7559055118110236
          },
          {
            "number": 2,
            "time": 176.96014880000416,
            "value": 0.7559055118110236
          },
          {
            "number": 2,
            "time": 176.9617935333375,
            "value": 0.7480314960629921
          },
          {
            "number": 2,
            "time": 176.96343826667083,
            "value": 0.7480314960629921
          },
          {
            "number": 2,
            "time": 176.96508300000417,
            "value": 0.7480314960629921
          },
          {
            "number": 2,
            "time": 176.9667277333375,
            "value": 0.7401574803149606
          },
          {
            "number": 2,
            "time": 176.96837246667084,
            "value": 0.7401574803149606
          },
          {
            "number": 2,
            "time": 176.97001720000418,
            "value": 0.7401574803149606
          },
          {
            "number": 2,
            "time": 176.97166193333751,
            "value": 0.7322834645669292
          },
          {
            "number": 2,
            "time": 176.97330666667085,
            "value": 0.7322834645669292
          },
          {
            "number": 2,
            "time": 176.9749514000042,
            "value": 0.7322834645669292
          },
          {
            "number": 2,
            "time": 176.97659613333752,
            "value": 0.7244094488188977
          },
          {
            "number": 2,
            "time": 176.97824086667086,
            "value": 0.7244094488188977
          },
          {
            "number": 2,
            "time": 176.9798856000042,
            "value": 0.7244094488188977
          },
          {
            "number": 2,
            "time": 176.98153033333753,
            "value": 0.7165354330708661
          },
          {
            "number": 2,
            "time": 176.98317506667087,
            "value": 0.7165354330708661
          },
          {
            "number": 2,
            "time": 176.9848198000042,
            "value": 0.7165354330708661
          },
          {
            "number": 2,
            "time": 176.98646453333754,
            "value": 0.7086614173228346
          },
          {
            "number": 2,
            "time": 176.98810926667088,
            "value": 0.7086614173228346
          },
          {
            "number": 2,
            "time": 176.9897540000042,
            "value": 0.7086614173228346
          },
          {
            "number": 2,
            "time": 176.99139873333755,
            "value": 0.7007874015748031
          },
          {
            "number": 2,
            "time": 176.99304346667088,
            "value": 0.7007874015748031
          },
          {
            "number": 2,
            "time": 176.99468820000422,
            "value": 0.7007874015748031
          },
          {
            "number": 2,
            "time": 176.99633293333756,
            "value": 0.6929133858267716
          },
          {
            "number": 2,
            "time": 176.9979776666709,
            "value": 0.6929133858267716
          },
          {
            "number": 2,
            "time": 176.99962240000423,
            "value": 0.6929133858267716
          },
          {
            "number": 2,
            "time": 177.00126713333756,
            "value": 0.6850393700787402
          },
          {
            "number": 2,
            "time": 177.0029118666709,
            "value": 0.6850393700787402
          },
          {
            "number": 2,
            "time": 177.00455660000424,
            "value": 0.6850393700787402
          },
          {
            "number": 2,
            "time": 177.00620133333757,
            "value": 0.6771653543307087
          },
          {
            "number": 2,
            "time": 177.0078460666709,
            "value": 0.6771653543307087
          },
          {
            "number": 2,
            "time": 177.00949080000424,
            "value": 0.6771653543307087
          },
          {
            "number": 2,
            "time": 177.01113553333758,
            "value": 0.6692913385826772
          },
          {
            "number": 2,
            "time": 177.01278026667092,
            "value": 0.6692913385826772
          },
          {
            "number": 2,
            "time": 177.01442500000425,
            "value": 0.6692913385826772
          },
          {
            "number": 2,
            "time": 177.0160697333376,
            "value": 0.6614173228346457
          },
          {
            "number": 2,
            "time": 177.01771446667092,
            "value": 0.6614173228346457
          },
          {
            "number": 2,
            "time": 177.01935920000426,
            "value": 0.6614173228346457
          },
          {
            "number": 2,
            "time": 177.0210039333376,
            "value": 0.6535433070866141
          },
          {
            "number": 2,
            "time": 177.02264866667093,
            "value": 0.6535433070866141
          },
          {
            "number": 2,
            "time": 177.02429340000427,
            "value": 0.6535433070866141
          },
          {
            "number": 2,
            "time": 177.0259381333376,
            "value": 0.6456692913385826
          },
          {
            "number": 2,
            "time": 177.02758286667094,
            "value": 0.6456692913385826
          },
          {
            "number": 2,
            "time": 177.02922760000428,
            "value": 0.6456692913385826
          },
          {
            "number": 2,
            "time": 177.0308723333376,
            "value": 0.6377952755905512
          },
          {
            "number": 2,
            "time": 177.03251706667095,
            "value": 0.6377952755905512
          },
          {
            "number": 2,
            "time": 177.03416180000428,
            "value": 0.6377952755905512
          },
          {
            "number": 2,
            "time": 177.03580653333762,
            "value": 0.6299212598425197
          },
          {
            "number": 2,
            "time": 177.03745126667096,
            "value": 0.6299212598425197
          },
          {
            "number": 2,
            "time": 177.2364640000043,
            "value": 0.6299212598425197
          },
          {
            "number": 2,
            "time": 178.02593600000432,
            "value": 0.6299212598425197
          },
          {
            "number": 2,
            "time": 178.42067200000432,
            "value": 0.9448818897637795
          },
          {
            "number": 2,
            "time": 178.42231673333765,
            "value": 0.937007874015748
          },
          {
            "number": 2,
            "time": 178.423961466671,
            "value": 0.937007874015748
          },
          {
            "number": 2,
            "time": 178.42560620000432,
            "value": 0.937007874015748
          },
          {
            "number": 2,
            "time": 178.42725093333766,
            "value": 0.9291338582677166
          },
          {
            "number": 2,
            "time": 178.428895666671,
            "value": 0.9291338582677166
          },
          {
            "number": 2,
            "time": 178.43054040000433,
            "value": 0.9291338582677166
          },
          {
            "number": 2,
            "time": 178.43218513333767,
            "value": 0.9212598425196851
          },
          {
            "number": 2,
            "time": 178.433829866671,
            "value": 0.9212598425196851
          },
          {
            "number": 2,
            "time": 178.43547460000434,
            "value": 0.9212598425196851
          },
          {
            "number": 2,
            "time": 178.43711933333768,
            "value": 0.9133858267716536
          },
          {
            "number": 2,
            "time": 178.438764066671,
            "value": 0.9133858267716536
          },
          {
            "number": 2,
            "time": 178.44040880000435,
            "value": 0.9133858267716536
          },
          {
            "number": 2,
            "time": 178.44205353333768,
            "value": 0.905511811023622
          },
          {
            "number": 2,
            "time": 178.44369826667102,
            "value": 0.905511811023622
          },
          {
            "number": 2,
            "time": 178.44534300000436,
            "value": 0.905511811023622
          },
          {
            "number": 2,
            "time": 178.4469877333377,
            "value": 0.8976377952755905
          },
          {
            "number": 2,
            "time": 178.44863246667103,
            "value": 0.8976377952755905
          },
          {
            "number": 2,
            "time": 178.45027720000436,
            "value": 0.8976377952755905
          },
          {
            "number": 2,
            "time": 178.4519219333377,
            "value": 0.889763779527559
          },
          {
            "number": 2,
            "time": 178.45356666667104,
            "value": 0.889763779527559
          },
          {
            "number": 2,
            "time": 178.45521140000437,
            "value": 0.889763779527559
          },
          {
            "number": 2,
            "time": 178.4568561333377,
            "value": 0.8818897637795275
          },
          {
            "number": 2,
            "time": 178.45850086667105,
            "value": 0.8818897637795275
          },
          {
            "number": 2,
            "time": 178.46014560000438,
            "value": 0.8818897637795275
          },
          {
            "number": 2,
            "time": 178.46179033333772,
            "value": 0.8740157480314961
          },
          {
            "number": 2,
            "time": 178.46343506667105,
            "value": 0.8740157480314961
          },
          {
            "number": 2,
            "time": 178.4650798000044,
            "value": 0.8740157480314961
          },
          {
            "number": 2,
            "time": 178.46672453333773,
            "value": 0.8661417322834646
          },
          {
            "number": 2,
            "time": 178.46836926667106,
            "value": 0.8661417322834646
          },
          {
            "number": 2,
            "time": 178.4700140000044,
            "value": 0.8661417322834646
          },
          {
            "number": 2,
            "time": 178.47165873333773,
            "value": 0.8582677165354331
          },
          {
            "number": 2,
            "time": 178.47330346667107,
            "value": 0.8582677165354331
          },
          {
            "number": 2,
            "time": 178.4749482000044,
            "value": 0.8582677165354331
          },
          {
            "number": 2,
            "time": 178.47659293333774,
            "value": 0.8503937007874016
          },
          {
            "number": 2,
            "time": 178.47823766667108,
            "value": 0.8503937007874016
          },
          {
            "number": 2,
            "time": 178.4798824000044,
            "value": 0.8503937007874016
          },
          {
            "number": 2,
            "time": 178.48152713333775,
            "value": 0.84251968503937
          },
          {
            "number": 2,
            "time": 178.48317186667109,
            "value": 0.84251968503937
          },
          {
            "number": 2,
            "time": 178.48481660000442,
            "value": 0.84251968503937
          },
          {
            "number": 2,
            "time": 178.48646133333776,
            "value": 0.8346456692913385
          },
          {
            "number": 2,
            "time": 178.4881060666711,
            "value": 0.8346456692913385
          },
          {
            "number": 2,
            "time": 178.48975080000443,
            "value": 0.8346456692913385
          },
          {
            "number": 2,
            "time": 178.49139553333777,
            "value": 0.8267716535433071
          },
          {
            "number": 2,
            "time": 178.4930402666711,
            "value": 0.8267716535433071
          },
          {
            "number": 2,
            "time": 178.49468500000444,
            "value": 0.8267716535433071
          },
          {
            "number": 2,
            "time": 178.49632973333777,
            "value": 0.8188976377952756
          },
          {
            "number": 2,
            "time": 178.4979744666711,
            "value": 0.8188976377952756
          },
          {
            "number": 2,
            "time": 178.49961920000445,
            "value": 0.8188976377952756
          },
          {
            "number": 2,
            "time": 178.50126393333778,
            "value": 0.8110236220472441
          },
          {
            "number": 2,
            "time": 178.50290866667112,
            "value": 0.8110236220472441
          },
          {
            "number": 2,
            "time": 178.50455340000445,
            "value": 0.8110236220472441
          },
          {
            "number": 2,
            "time": 178.5061981333378,
            "value": 0.8031496062992126
          },
          {
            "number": 2,
            "time": 178.50784286667113,
            "value": 0.8031496062992126
          },
          {
            "number": 2,
            "time": 178.50948760000446,
            "value": 0.8031496062992126
          },
          {
            "number": 2,
            "time": 178.5111323333378,
            "value": 0.7952755905511811
          },
          {
            "number": 2,
            "time": 178.51277706667113,
            "value": 0.7952755905511811
          },
          {
            "number": 2,
            "time": 178.51442180000447,
            "value": 0.7952755905511811
          },
          {
            "number": 2,
            "time": 178.5160665333378,
            "value": 0.7874015748031497
          },
          {
            "number": 2,
            "time": 178.51771126667114,
            "value": 0.7874015748031497
          },
          {
            "number": 2,
            "time": 178.51935600000448,
            "value": 0.7874015748031497
          },
          {
            "number": 2,
            "time": 178.52100073333781,
            "value": 0.7795275590551181
          },
          {
            "number": 2,
            "time": 178.52264546667115,
            "value": 0.7795275590551181
          },
          {
            "number": 2,
            "time": 178.5242902000045,
            "value": 0.7795275590551181
          },
          {
            "number": 2,
            "time": 178.52593493333782,
            "value": 0.7716535433070866
          },
          {
            "number": 2,
            "time": 178.52757966667116,
            "value": 0.7716535433070866
          },
          {
            "number": 2,
            "time": 178.5292244000045,
            "value": 0.7716535433070866
          },
          {
            "number": 2,
            "time": 178.53086913333783,
            "value": 0.7637795275590551
          },
          {
            "number": 2,
            "time": 178.53251386667117,
            "value": 0.7637795275590551
          },
          {
            "number": 2,
            "time": 178.5341586000045,
            "value": 0.7637795275590551
          },
          {
            "number": 2,
            "time": 178.53580333333784,
            "value": 0.7559055118110236
          },
          {
            "number": 2,
            "time": 178.53744806667117,
            "value": 0.7559055118110236
          },
          {
            "number": 2,
            "time": 178.5390928000045,
            "value": 0.7559055118110236
          },
          {
            "number": 2,
            "time": 178.54073753333785,
            "value": 0.7480314960629921
          },
          {
            "number": 2,
            "time": 178.54238226667118,
            "value": 0.7480314960629921
          },
          {
            "number": 2,
            "time": 178.54402700000452,
            "value": 0.7480314960629921
          },
          {
            "number": 2,
            "time": 178.54567173333785,
            "value": 0.7401574803149606
          },
          {
            "number": 2,
            "time": 178.5473164666712,
            "value": 0.7401574803149606
          },
          {
            "number": 2,
            "time": 178.54896120000453,
            "value": 0.7401574803149606
          },
          {
            "number": 2,
            "time": 178.55060593333786,
            "value": 0.7322834645669292
          },
          {
            "number": 2,
            "time": 178.5522506666712,
            "value": 0.7322834645669292
          },
          {
            "number": 2,
            "time": 178.55389540000454,
            "value": 0.7322834645669292
          },
          {
            "number": 2,
            "time": 178.55554013333787,
            "value": 0.7244094488188977
          },
          {
            "number": 2,
            "time": 178.5571848666712,
            "value": 0.7244094488188977
          },
          {
            "number": 2,
            "time": 178.55882960000454,
            "value": 0.7244094488188977
          },
          {
            "number": 2,
            "time": 178.56047433333788,
            "value": 0.7165354330708661
          },
          {
            "number": 2,
            "time": 178.56211906667122,
            "value": 0.7165354330708661
          },
          {
            "number": 2,
            "time": 178.56376380000455,
            "value": 0.7165354330708661
          },
          {
            "number": 2,
            "time": 178.5654085333379,
            "value": 0.7086614173228346
          },
          {
            "number": 2,
            "time": 178.56705326667122,
            "value": 0.7086614173228346
          },
          {
            "number": 2,
            "time": 178.56869800000456,
            "value": 0.7086614173228346
          },
          {
            "number": 2,
            "time": 178.5703427333379,
            "value": 0.7007874015748031
          },
          {
            "number": 2,
            "time": 178.57198746667123,
            "value": 0.7007874015748031
          },
          {
            "number": 2,
            "time": 178.57363220000457,
            "value": 0.7007874015748031
          },
          {
            "number": 2,
            "time": 178.5752769333379,
            "value": 0.6929133858267716
          },
          {
            "number": 2,
            "time": 178.57692166667124,
            "value": 0.6929133858267716
          },
          {
            "number": 2,
            "time": 178.57856640000458,
            "value": 0.6929133858267716
          },
          {
            "number": 2,
            "time": 178.5802111333379,
            "value": 0.6850393700787402
          },
          {
            "number": 2,
            "time": 178.58185586667125,
            "value": 0.6850393700787402
          },
          {
            "number": 2,
            "time": 178.58350060000458,
            "value": 0.6850393700787402
          },
          {
            "number": 2,
            "time": 178.58514533333792,
            "value": 0.6771653543307087
          },
          {
            "number": 2,
            "time": 178.58679006667126,
            "value": 0.6771653543307087
          },
          {
            "number": 2,
            "time": 178.5884348000046,
            "value": 0.6771653543307087
          },
          {
            "number": 2,
            "time": 178.59007953333793,
            "value": 0.6692913385826772
          },
          {
            "number": 2,
            "time": 178.59172426667126,
            "value": 0.6692913385826772
          },
          {
            "number": 2,
            "time": 178.5933690000046,
            "value": 0.6692913385826772
          },
          {
            "number": 2,
            "time": 178.59501373333794,
            "value": 0.6614173228346457
          },
          {
            "number": 2,
            "time": 178.59665846667127,
            "value": 0.6614173228346457
          },
          {
            "number": 2,
            "time": 178.5983032000046,
            "value": 0.6614173228346457
          },
          {
            "number": 2,
            "time": 178.59994793333794,
            "value": 0.6535433070866141
          },
          {
            "number": 2,
            "time": 178.60159266667128,
            "value": 0.6535433070866141
          },
          {
            "number": 2,
            "time": 178.60323740000462,
            "value": 0.6535433070866141
          },
          {
            "number": 2,
            "time": 178.60488213333795,
            "value": 0.6456692913385826
          },
          {
            "number": 2,
            "time": 178.6065268666713,
            "value": 0.6456692913385826
          },
          {
            "number": 2,
            "time": 178.60817160000462,
            "value": 0.6456692913385826
          },
          {
            "number": 2,
            "time": 178.60981633333796,
            "value": 0.6377952755905512
          },
          {
            "number": 2,
            "time": 178.6114610666713,
            "value": 0.6377952755905512
          },
          {
            "number": 2,
            "time": 178.61310580000463,
            "value": 0.6377952755905512
          },
          {
            "number": 2,
            "time": 178.61475053333797,
            "value": 0.6299212598425197
          },
          {
            "number": 2,
            "time": 178.6163952666713,
            "value": 0.6299212598425197
          },
          {
            "number": 2,
            "time": 178.81540800000465,
            "value": 0.6299212598425197
          },
          {
            "number": 2,
            "time": 179.60488000000467,
            "value": 0.6299212598425197
          },
          {
            "number": 2,
            "time": 179.99961600000466,
            "value": 0.6299212598425197
          },
          {
            "number": 2,
            "time": 179.99961600000466,
            "value": 0.9448818897637795
          },
          {
            "number": 2,
            "time": 180.001260733338,
            "value": 0.937007874015748
          },
          {
            "number": 2,
            "time": 180.00290546667134,
            "value": 0.937007874015748
          },
          {
            "number": 2,
            "time": 180.00455020000467,
            "value": 0.937007874015748
          },
          {
            "number": 2,
            "time": 180.006194933338,
            "value": 0.9291338582677166
          },
          {
            "number": 2,
            "time": 180.00783966667134,
            "value": 0.9291338582677166
          },
          {
            "number": 2,
            "time": 180.00948440000468,
            "value": 0.9291338582677166
          },
          {
            "number": 2,
            "time": 180.01112913333802,
            "value": 0.9212598425196851
          },
          {
            "number": 2,
            "time": 180.01277386667135,
            "value": 0.9212598425196851
          },
          {
            "number": 2,
            "time": 180.0144186000047,
            "value": 0.9212598425196851
          },
          {
            "number": 2,
            "time": 180.01606333333802,
            "value": 0.9133858267716536
          },
          {
            "number": 2,
            "time": 180.01770806667136,
            "value": 0.9133858267716536
          },
          {
            "number": 2,
            "time": 180.0193528000047,
            "value": 0.9133858267716536
          },
          {
            "number": 2,
            "time": 180.02099753333803,
            "value": 0.905511811023622
          },
          {
            "number": 2,
            "time": 180.02264226667137,
            "value": 0.905511811023622
          },
          {
            "number": 2,
            "time": 180.0242870000047,
            "value": 0.905511811023622
          },
          {
            "number": 2,
            "time": 180.02593173333804,
            "value": 0.8976377952755905
          },
          {
            "number": 2,
            "time": 180.02757646667138,
            "value": 0.8976377952755905
          },
          {
            "number": 2,
            "time": 180.0292212000047,
            "value": 0.8976377952755905
          },
          {
            "number": 2,
            "time": 180.03086593333805,
            "value": 0.889763779527559
          },
          {
            "number": 2,
            "time": 180.03251066667139,
            "value": 0.889763779527559
          },
          {
            "number": 2,
            "time": 180.03415540000472,
            "value": 0.889763779527559
          },
          {
            "number": 2,
            "time": 180.03580013333806,
            "value": 0.8818897637795275
          },
          {
            "number": 2,
            "time": 180.0374448666714,
            "value": 0.8818897637795275
          },
          {
            "number": 2,
            "time": 180.03908960000473,
            "value": 0.8818897637795275
          },
          {
            "number": 2,
            "time": 180.04073433333807,
            "value": 0.8740157480314961
          },
          {
            "number": 2,
            "time": 180.0423790666714,
            "value": 0.8740157480314961
          },
          {
            "number": 2,
            "time": 180.04402380000474,
            "value": 0.8740157480314961
          },
          {
            "number": 2,
            "time": 180.04566853333807,
            "value": 0.8661417322834646
          },
          {
            "number": 2,
            "time": 180.0473132666714,
            "value": 0.8661417322834646
          },
          {
            "number": 2,
            "time": 180.04895800000475,
            "value": 0.8661417322834646
          },
          {
            "number": 2,
            "time": 180.05060273333808,
            "value": 0.8582677165354331
          },
          {
            "number": 2,
            "time": 180.05224746667142,
            "value": 0.8582677165354331
          },
          {
            "number": 2,
            "time": 180.05389220000475,
            "value": 0.8582677165354331
          },
          {
            "number": 2,
            "time": 180.0555369333381,
            "value": 0.8503937007874016
          },
          {
            "number": 2,
            "time": 180.05718166667143,
            "value": 0.8503937007874016
          },
          {
            "number": 2,
            "time": 180.05882640000476,
            "value": 0.8503937007874016
          },
          {
            "number": 2,
            "time": 180.0604711333381,
            "value": 0.84251968503937
          },
          {
            "number": 2,
            "time": 180.06211586667143,
            "value": 0.84251968503937
          },
          {
            "number": 2,
            "time": 180.06376060000477,
            "value": 0.84251968503937
          },
          {
            "number": 2,
            "time": 180.0654053333381,
            "value": 0.8346456692913385
          },
          {
            "number": 2,
            "time": 180.06705006667144,
            "value": 0.8346456692913385
          },
          {
            "number": 2,
            "time": 180.06869480000478,
            "value": 0.8346456692913385
          },
          {
            "number": 2,
            "time": 180.0703395333381,
            "value": 0.8267716535433071
          },
          {
            "number": 2,
            "time": 180.07198426667145,
            "value": 0.8267716535433071
          },
          {
            "number": 2,
            "time": 180.0736290000048,
            "value": 0.8267716535433071
          },
          {
            "number": 2,
            "time": 180.07527373333812,
            "value": 0.8188976377952756
          },
          {
            "number": 2,
            "time": 180.07691846667146,
            "value": 0.8188976377952756
          },
          {
            "number": 2,
            "time": 180.0785632000048,
            "value": 0.8188976377952756
          },
          {
            "number": 2,
            "time": 180.08020793333813,
            "value": 0.8110236220472441
          },
          {
            "number": 2,
            "time": 180.08185266667147,
            "value": 0.8110236220472441
          },
          {
            "number": 2,
            "time": 180.0834974000048,
            "value": 0.8110236220472441
          },
          {
            "number": 2,
            "time": 180.08514213333814,
            "value": 0.8031496062992126
          },
          {
            "number": 2,
            "time": 180.08678686667147,
            "value": 0.8031496062992126
          },
          {
            "number": 2,
            "time": 180.0884316000048,
            "value": 0.8031496062992126
          },
          {
            "number": 2,
            "time": 180.09007633333815,
            "value": 0.7952755905511811
          },
          {
            "number": 2,
            "time": 180.09172106667148,
            "value": 0.7952755905511811
          },
          {
            "number": 2,
            "time": 180.09336580000482,
            "value": 0.7952755905511811
          },
          {
            "number": 2,
            "time": 180.09501053333815,
            "value": 0.7874015748031497
          },
          {
            "number": 2,
            "time": 180.0966552666715,
            "value": 0.7874015748031497
          },
          {
            "number": 2,
            "time": 180.09830000000483,
            "value": 0.7874015748031497
          },
          {
            "number": 2,
            "time": 180.09994473333816,
            "value": 0.7795275590551181
          },
          {
            "number": 2,
            "time": 180.1015894666715,
            "value": 0.7795275590551181
          },
          {
            "number": 2,
            "time": 180.10323420000483,
            "value": 0.7795275590551181
          },
          {
            "number": 2,
            "time": 180.10487893333817,
            "value": 0.7716535433070866
          },
          {
            "number": 2,
            "time": 180.1065236666715,
            "value": 0.7716535433070866
          },
          {
            "number": 2,
            "time": 180.10816840000484,
            "value": 0.7716535433070866
          },
          {
            "number": 2,
            "time": 180.10981313333818,
            "value": 0.7637795275590551
          },
          {
            "number": 2,
            "time": 180.11145786667151,
            "value": 0.7637795275590551
          },
          {
            "number": 2,
            "time": 180.11310260000485,
            "value": 0.7637795275590551
          },
          {
            "number": 2,
            "time": 180.1147473333382,
            "value": 0.7559055118110236
          },
          {
            "number": 2,
            "time": 180.11639206667152,
            "value": 0.7559055118110236
          },
          {
            "number": 2,
            "time": 180.11803680000486,
            "value": 0.7559055118110236
          },
          {
            "number": 2,
            "time": 180.1196815333382,
            "value": 0.7480314960629921
          },
          {
            "number": 2,
            "time": 180.12132626667153,
            "value": 0.7480314960629921
          },
          {
            "number": 2,
            "time": 180.12297100000487,
            "value": 0.7480314960629921
          },
          {
            "number": 2,
            "time": 180.1246157333382,
            "value": 0.7401574803149606
          },
          {
            "number": 2,
            "time": 180.12626046667154,
            "value": 0.7401574803149606
          },
          {
            "number": 2,
            "time": 180.12790520000488,
            "value": 0.7401574803149606
          },
          {
            "number": 2,
            "time": 180.1295499333382,
            "value": 0.7322834645669292
          },
          {
            "number": 2,
            "time": 180.13119466667155,
            "value": 0.7322834645669292
          },
          {
            "number": 2,
            "time": 180.13283940000488,
            "value": 0.7322834645669292
          },
          {
            "number": 2,
            "time": 180.13448413333822,
            "value": 0.7244094488188977
          },
          {
            "number": 2,
            "time": 180.13612886667156,
            "value": 0.7244094488188977
          },
          {
            "number": 2,
            "time": 180.1377736000049,
            "value": 0.7244094488188977
          },
          {
            "number": 2,
            "time": 180.13941833333823,
            "value": 0.7165354330708661
          },
          {
            "number": 2,
            "time": 180.14106306667156,
            "value": 0.7165354330708661
          },
          {
            "number": 2,
            "time": 180.1427078000049,
            "value": 0.7165354330708661
          },
          {
            "number": 2,
            "time": 180.14435253333824,
            "value": 0.7086614173228346
          },
          {
            "number": 2,
            "time": 180.14599726667157,
            "value": 0.7086614173228346
          },
          {
            "number": 2,
            "time": 180.1476420000049,
            "value": 0.7086614173228346
          },
          {
            "number": 2,
            "time": 180.14928673333824,
            "value": 0.7007874015748031
          },
          {
            "number": 2,
            "time": 180.15093146667158,
            "value": 0.7007874015748031
          },
          {
            "number": 2,
            "time": 180.15257620000492,
            "value": 0.7007874015748031
          },
          {
            "number": 2,
            "time": 180.15422093333825,
            "value": 0.6929133858267716
          },
          {
            "number": 2,
            "time": 180.1558656666716,
            "value": 0.6929133858267716
          },
          {
            "number": 2,
            "time": 180.15751040000492,
            "value": 0.6929133858267716
          },
          {
            "number": 2,
            "time": 180.15915513333826,
            "value": 0.6850393700787402
          },
          {
            "number": 2,
            "time": 180.1607998666716,
            "value": 0.6850393700787402
          },
          {
            "number": 2,
            "time": 180.16244460000493,
            "value": 0.6850393700787402
          },
          {
            "number": 2,
            "time": 180.16408933333827,
            "value": 0.6771653543307087
          },
          {
            "number": 2,
            "time": 180.1657340666716,
            "value": 0.6771653543307087
          },
          {
            "number": 2,
            "time": 180.16737880000494,
            "value": 0.6771653543307087
          },
          {
            "number": 2,
            "time": 180.16902353333828,
            "value": 0.6692913385826772
          },
          {
            "number": 2,
            "time": 180.1706682666716,
            "value": 0.6692913385826772
          },
          {
            "number": 2,
            "time": 180.17231300000495,
            "value": 0.6692913385826772
          },
          {
            "number": 2,
            "time": 180.17395773333828,
            "value": 0.6614173228346457
          },
          {
            "number": 2,
            "time": 180.17560246667162,
            "value": 0.6614173228346457
          },
          {
            "number": 2,
            "time": 180.17724720000496,
            "value": 0.6614173228346457
          },
          {
            "number": 2,
            "time": 180.1788919333383,
            "value": 0.6535433070866141
          },
          {
            "number": 2,
            "time": 180.18053666667163,
            "value": 0.6535433070866141
          },
          {
            "number": 2,
            "time": 180.18218140000496,
            "value": 0.6535433070866141
          },
          {
            "number": 2,
            "time": 180.1838261333383,
            "value": 0.6456692913385826
          },
          {
            "number": 2,
            "time": 180.18547086667164,
            "value": 0.6456692913385826
          },
          {
            "number": 2,
            "time": 180.18711560000497,
            "value": 0.6456692913385826
          },
          {
            "number": 2,
            "time": 180.1887603333383,
            "value": 0.6377952755905512
          },
          {
            "number": 2,
            "time": 180.19040506667164,
            "value": 0.6377952755905512
          },
          {
            "number": 2,
            "time": 180.19204980000498,
            "value": 0.6377952755905512
          },
          {
            "number": 2,
            "time": 180.19369453333832,
            "value": 0.6299212598425197
          },
          {
            "number": 2,
            "time": 180.19533926667165,
            "value": 0.6299212598425197
          },
          {
            "number": 2,
            "time": 180.394352000005,
            "value": 0.6299212598425197
          },
          {
            "number": 2,
            "time": 180.542378000005,
            "value": 0.6377952755905512
          },
          {
            "number": 2,
            "time": 181.08514000000497,
            "value": 0.6456692913385826
          },
          {
            "number": 2,
            "time": 181.18382400000496,
            "value": 0.6456692913385826
          },
          {
            "number": 2,
            "time": 181.57856000000496,
            "value": 0.968503937007874
          },
          {
            "number": 2,
            "time": 181.5802047333383,
            "value": 0.9606299212598425
          },
          {
            "number": 2,
            "time": 181.58184946667163,
            "value": 0.9606299212598425
          },
          {
            "number": 2,
            "time": 181.58349420000496,
            "value": 0.952755905511811
          },
          {
            "number": 2,
            "time": 181.5851389333383,
            "value": 0.952755905511811
          },
          {
            "number": 2,
            "time": 181.58678366667164,
            "value": 0.952755905511811
          },
          {
            "number": 2,
            "time": 181.58842840000497,
            "value": 0.9448818897637795
          },
          {
            "number": 2,
            "time": 181.5900731333383,
            "value": 0.9448818897637795
          },
          {
            "number": 2,
            "time": 181.59171786667164,
            "value": 0.9448818897637795
          },
          {
            "number": 2,
            "time": 181.59336260000498,
            "value": 0.937007874015748
          },
          {
            "number": 2,
            "time": 181.59500733333832,
            "value": 0.937007874015748
          },
          {
            "number": 2,
            "time": 181.59665206667165,
            "value": 0.937007874015748
          },
          {
            "number": 2,
            "time": 181.598296800005,
            "value": 0.9291338582677166
          },
          {
            "number": 2,
            "time": 181.59994153333832,
            "value": 0.9291338582677166
          },
          {
            "number": 2,
            "time": 181.60158626667166,
            "value": 0.9291338582677166
          },
          {
            "number": 2,
            "time": 181.603231000005,
            "value": 0.9212598425196851
          },
          {
            "number": 2,
            "time": 181.60487573333833,
            "value": 0.9212598425196851
          },
          {
            "number": 2,
            "time": 181.60652046667167,
            "value": 0.9212598425196851
          },
          {
            "number": 2,
            "time": 181.608165200005,
            "value": 0.9133858267716536
          },
          {
            "number": 2,
            "time": 181.60980993333834,
            "value": 0.9133858267716536
          },
          {
            "number": 2,
            "time": 181.61145466667168,
            "value": 0.9133858267716536
          },
          {
            "number": 2,
            "time": 181.613099400005,
            "value": 0.905511811023622
          },
          {
            "number": 2,
            "time": 181.61474413333835,
            "value": 0.905511811023622
          },
          {
            "number": 2,
            "time": 181.61638886667168,
            "value": 0.905511811023622
          },
          {
            "number": 2,
            "time": 181.61803360000502,
            "value": 0.8976377952755905
          },
          {
            "number": 2,
            "time": 181.61967833333836,
            "value": 0.8976377952755905
          },
          {
            "number": 2,
            "time": 181.6213230666717,
            "value": 0.8976377952755905
          },
          {
            "number": 2,
            "time": 181.62296780000503,
            "value": 0.889763779527559
          },
          {
            "number": 2,
            "time": 181.62461253333836,
            "value": 0.889763779527559
          },
          {
            "number": 2,
            "time": 181.6262572666717,
            "value": 0.889763779527559
          },
          {
            "number": 2,
            "time": 181.62790200000504,
            "value": 0.6535433070866141
          },
          {
            "number": 2,
            "time": 181.62790200000504,
            "value": 0.8976377952755905
          },
          {
            "number": 2,
            "time": 181.62954673333837,
            "value": 0.889763779527559
          },
          {
            "number": 2,
            "time": 181.6311914666717,
            "value": 0.889763779527559
          },
          {
            "number": 2,
            "time": 181.63283620000504,
            "value": 0.889763779527559
          },
          {
            "number": 2,
            "time": 181.63448093333838,
            "value": 0.8818897637795275
          },
          {
            "number": 2,
            "time": 181.63612566667172,
            "value": 0.8818897637795275
          },
          {
            "number": 2,
            "time": 181.63777040000505,
            "value": 0.8818897637795275
          },
          {
            "number": 2,
            "time": 181.6394151333384,
            "value": 0.8740157480314961
          },
          {
            "number": 2,
            "time": 181.64105986667172,
            "value": 0.8740157480314961
          },
          {
            "number": 2,
            "time": 181.64270460000506,
            "value": 0.8740157480314961
          },
          {
            "number": 2,
            "time": 181.6443493333384,
            "value": 0.8661417322834646
          },
          {
            "number": 2,
            "time": 181.64599406667173,
            "value": 0.8661417322834646
          },
          {
            "number": 2,
            "time": 181.64763880000507,
            "value": 0.8582677165354331
          },
          {
            "number": 2,
            "time": 181.6492835333384,
            "value": 0.8582677165354331
          },
          {
            "number": 2,
            "time": 181.65092826667174,
            "value": 0.8582677165354331
          },
          {
            "number": 2,
            "time": 181.65257300000508,
            "value": 0.8503937007874016
          },
          {
            "number": 2,
            "time": 181.6542177333384,
            "value": 0.8503937007874016
          },
          {
            "number": 2,
            "time": 181.65586246667175,
            "value": 0.8503937007874016
          },
          {
            "number": 2,
            "time": 181.65750720000509,
            "value": 0.84251968503937
          },
          {
            "number": 2,
            "time": 181.65915193333842,
            "value": 0.84251968503937
          },
          {
            "number": 2,
            "time": 181.66079666667176,
            "value": 0.84251968503937
          },
          {
            "number": 2,
            "time": 181.6624414000051,
            "value": 0.8346456692913385
          },
          {
            "number": 2,
            "time": 181.66408613333843,
            "value": 0.8346456692913385
          },
          {
            "number": 2,
            "time": 181.66573086667177,
            "value": 0.8346456692913385
          },
          {
            "number": 2,
            "time": 181.6673756000051,
            "value": 0.8267716535433071
          },
          {
            "number": 2,
            "time": 181.66902033333844,
            "value": 0.8267716535433071
          },
          {
            "number": 2,
            "time": 181.67066506667177,
            "value": 0.8267716535433071
          },
          {
            "number": 2,
            "time": 181.6723098000051,
            "value": 0.8188976377952756
          },
          {
            "number": 2,
            "time": 181.67395453333845,
            "value": 0.8188976377952756
          },
          {
            "number": 2,
            "time": 181.67559926667178,
            "value": 0.8188976377952756
          },
          {
            "number": 2,
            "time": 181.67724400000512,
            "value": 0.8110236220472441
          },
          {
            "number": 2,
            "time": 181.67888873333845,
            "value": 0.8110236220472441
          },
          {
            "number": 2,
            "time": 181.6805334666718,
            "value": 0.8110236220472441
          },
          {
            "number": 2,
            "time": 181.68217820000513,
            "value": 0.8031496062992126
          },
          {
            "number": 2,
            "time": 181.68382293333846,
            "value": 0.8031496062992126
          },
          {
            "number": 2,
            "time": 181.6854676666718,
            "value": 0.8031496062992126
          },
          {
            "number": 2,
            "time": 181.68711240000513,
            "value": 0.7952755905511811
          },
          {
            "number": 2,
            "time": 181.68875713333847,
            "value": 0.7952755905511811
          },
          {
            "number": 2,
            "time": 181.6904018666718,
            "value": 0.7874015748031497
          },
          {
            "number": 2,
            "time": 181.69204660000514,
            "value": 0.7874015748031497
          },
          {
            "number": 2,
            "time": 181.69369133333848,
            "value": 0.7874015748031497
          },
          {
            "number": 2,
            "time": 181.6953360666718,
            "value": 0.7795275590551181
          },
          {
            "number": 2,
            "time": 181.69698080000515,
            "value": 0.7795275590551181
          },
          {
            "number": 2,
            "time": 181.6986255333385,
            "value": 0.7795275590551181
          },
          {
            "number": 2,
            "time": 181.70027026667182,
            "value": 0.7716535433070866
          },
          {
            "number": 2,
            "time": 181.70191500000516,
            "value": 0.7716535433070866
          },
          {
            "number": 2,
            "time": 181.7035597333385,
            "value": 0.7716535433070866
          },
          {
            "number": 2,
            "time": 181.70520446667183,
            "value": 0.7637795275590551
          },
          {
            "number": 2,
            "time": 181.70684920000517,
            "value": 0.7637795275590551
          },
          {
            "number": 2,
            "time": 181.7084939333385,
            "value": 0.7637795275590551
          },
          {
            "number": 2,
            "time": 181.71013866667184,
            "value": 0.7559055118110236
          },
          {
            "number": 2,
            "time": 181.71178340000517,
            "value": 0.7559055118110236
          },
          {
            "number": 2,
            "time": 181.7134281333385,
            "value": 0.7559055118110236
          },
          {
            "number": 2,
            "time": 181.71507286667185,
            "value": 0.7480314960629921
          },
          {
            "number": 2,
            "time": 181.71671760000518,
            "value": 0.7480314960629921
          },
          {
            "number": 2,
            "time": 181.71836233333852,
            "value": 0.7480314960629921
          },
          {
            "number": 2,
            "time": 181.72000706667185,
            "value": 0.7401574803149606
          },
          {
            "number": 2,
            "time": 181.7216518000052,
            "value": 0.7401574803149606
          },
          {
            "number": 2,
            "time": 181.72329653333853,
            "value": 0.7401574803149606
          },
          {
            "number": 2,
            "time": 181.72494126667186,
            "value": 0.7322834645669292
          },
          {
            "number": 2,
            "time": 181.7265860000052,
            "value": 0.7322834645669292
          },
          {
            "number": 2,
            "time": 181.72823073333853,
            "value": 0.7322834645669292
          },
          {
            "number": 2,
            "time": 181.72987546667187,
            "value": 0.7244094488188977
          },
          {
            "number": 2,
            "time": 181.7315202000052,
            "value": 0.7244094488188977
          },
          {
            "number": 2,
            "time": 181.73316493333854,
            "value": 0.7165354330708661
          },
          {
            "number": 2,
            "time": 181.73480966667188,
            "value": 0.7165354330708661
          },
          {
            "number": 2,
            "time": 181.73645440000521,
            "value": 0.7165354330708661
          },
          {
            "number": 2,
            "time": 181.73809913333855,
            "value": 0.7086614173228346
          },
          {
            "number": 2,
            "time": 181.7397438666719,
            "value": 0.7086614173228346
          },
          {
            "number": 2,
            "time": 181.74138860000522,
            "value": 0.7086614173228346
          },
          {
            "number": 2,
            "time": 181.74303333333856,
            "value": 0.7007874015748031
          },
          {
            "number": 2,
            "time": 181.7446780666719,
            "value": 0.7007874015748031
          },
          {
            "number": 2,
            "time": 181.74632280000523,
            "value": 0.7007874015748031
          },
          {
            "number": 2,
            "time": 181.74796753333857,
            "value": 0.6929133858267716
          },
          {
            "number": 2,
            "time": 181.7496122666719,
            "value": 0.6929133858267716
          },
          {
            "number": 2,
            "time": 181.75125700000524,
            "value": 0.6929133858267716
          },
          {
            "number": 2,
            "time": 181.75290173333858,
            "value": 0.6850393700787402
          },
          {
            "number": 2,
            "time": 181.7545464666719,
            "value": 0.6850393700787402
          },
          {
            "number": 2,
            "time": 181.75619120000525,
            "value": 0.6850393700787402
          },
          {
            "number": 2,
            "time": 181.75783593333858,
            "value": 0.6771653543307087
          },
          {
            "number": 2,
            "time": 181.75948066667192,
            "value": 0.6771653543307087
          },
          {
            "number": 2,
            "time": 181.76112540000526,
            "value": 0.6771653543307087
          },
          {
            "number": 2,
            "time": 181.7627701333386,
            "value": 0.6692913385826772
          },
          {
            "number": 2,
            "time": 181.76441486667193,
            "value": 0.6692913385826772
          },
          {
            "number": 2,
            "time": 181.76605960000526,
            "value": 0.6692913385826772
          },
          {
            "number": 2,
            "time": 181.7677043333386,
            "value": 0.6614173228346457
          },
          {
            "number": 2,
            "time": 181.76934906667194,
            "value": 0.6614173228346457
          },
          {
            "number": 2,
            "time": 181.77099380000527,
            "value": 0.6614173228346457
          },
          {
            "number": 2,
            "time": 181.7726385333386,
            "value": 0.6535433070866141
          },
          {
            "number": 2,
            "time": 181.77428326667194,
            "value": 0.6535433070866141
          },
          {
            "number": 2,
            "time": 181.9732960000053,
            "value": 0.6535433070866141
          },
          {
            "number": 2,
            "time": 182.1706640000053,
            "value": 0.6614173228346457
          },
          {
            "number": 2,
            "time": 182.7134260000053,
            "value": 0.6692913385826772
          },
          {
            "number": 2,
            "time": 182.7627680000053,
            "value": 0.6692913385826772
          },
          {
            "number": 2,
            "time": 183.1575040000053,
            "value": 1
          },
          {
            "number": 2,
            "time": 183.15914873333864,
            "value": 1
          },
          {
            "number": 2,
            "time": 183.16079346667198,
            "value": 0.9921259842519685
          },
          {
            "number": 2,
            "time": 183.1624382000053,
            "value": 0.9921259842519685
          },
          {
            "number": 2,
            "time": 183.16408293333865,
            "value": 0.9921259842519685
          },
          {
            "number": 2,
            "time": 183.16572766667198,
            "value": 0.984251968503937
          },
          {
            "number": 2,
            "time": 183.16737240000532,
            "value": 0.984251968503937
          },
          {
            "number": 2,
            "time": 183.16901713333866,
            "value": 0.984251968503937
          },
          {
            "number": 2,
            "time": 183.170661866672,
            "value": 0.9763779527559056
          },
          {
            "number": 2,
            "time": 183.17230660000533,
            "value": 0.9763779527559056
          },
          {
            "number": 2,
            "time": 183.17395133333866,
            "value": 0.968503937007874
          },
          {
            "number": 2,
            "time": 183.175596066672,
            "value": 0.968503937007874
          },
          {
            "number": 2,
            "time": 183.17724080000534,
            "value": 0.968503937007874
          },
          {
            "number": 2,
            "time": 183.17888553333867,
            "value": 0.9606299212598425
          },
          {
            "number": 2,
            "time": 183.180530266672,
            "value": 0.9606299212598425
          },
          {
            "number": 2,
            "time": 183.18217500000534,
            "value": 0.9606299212598425
          },
          {
            "number": 2,
            "time": 183.18381973333868,
            "value": 0.952755905511811
          },
          {
            "number": 2,
            "time": 183.18546446667202,
            "value": 0.952755905511811
          },
          {
            "number": 2,
            "time": 183.18710920000535,
            "value": 0.952755905511811
          },
          {
            "number": 2,
            "time": 183.1887539333387,
            "value": 0.9448818897637795
          },
          {
            "number": 2,
            "time": 183.19039866667202,
            "value": 0.9448818897637795
          },
          {
            "number": 2,
            "time": 183.19204340000536,
            "value": 0.9448818897637795
          },
          {
            "number": 2,
            "time": 183.1936881333387,
            "value": 0.937007874015748
          },
          {
            "number": 2,
            "time": 183.19533286667203,
            "value": 0.937007874015748
          },
          {
            "number": 2,
            "time": 183.19697760000537,
            "value": 0.9291338582677166
          },
          {
            "number": 2,
            "time": 183.1986223333387,
            "value": 0.9291338582677166
          },
          {
            "number": 2,
            "time": 183.20026706667204,
            "value": 0.9291338582677166
          },
          {
            "number": 2,
            "time": 183.20191180000538,
            "value": 0.9212598425196851
          },
          {
            "number": 2,
            "time": 183.2035565333387,
            "value": 0.9212598425196851
          },
          {
            "number": 2,
            "time": 183.20520126667205,
            "value": 0.9212598425196851
          },
          {
            "number": 2,
            "time": 183.20684600000538,
            "value": 0.9133858267716536
          },
          {
            "number": 2,
            "time": 183.20849073333872,
            "value": 0.9133858267716536
          },
          {
            "number": 2,
            "time": 183.21013546667206,
            "value": 0.9133858267716536
          },
          {
            "number": 2,
            "time": 183.2117802000054,
            "value": 0.905511811023622
          },
          {
            "number": 2,
            "time": 183.21342493333873,
            "value": 0.905511811023622
          },
          {
            "number": 2,
            "time": 183.21506966667206,
            "value": 0.905511811023622
          },
          {
            "number": 2,
            "time": 183.2167144000054,
            "value": 0.8976377952755905
          },
          {
            "number": 2,
            "time": 183.21835913333874,
            "value": 0.8976377952755905
          },
          {
            "number": 2,
            "time": 183.22000386667207,
            "value": 0.8976377952755905
          },
          {
            "number": 2,
            "time": 183.2216486000054,
            "value": 0.889763779527559
          },
          {
            "number": 2,
            "time": 183.22329333333875,
            "value": 0.889763779527559
          },
          {
            "number": 2,
            "time": 183.22493806667208,
            "value": 0.8818897637795275
          },
          {
            "number": 2,
            "time": 183.22658280000542,
            "value": 0.8818897637795275
          },
          {
            "number": 2,
            "time": 183.22822753333875,
            "value": 0.8818897637795275
          },
          {
            "number": 2,
            "time": 183.2298722666721,
            "value": 0.8740157480314961
          },
          {
            "number": 2,
            "time": 183.23151700000543,
            "value": 0.8740157480314961
          },
          {
            "number": 2,
            "time": 183.23316173333876,
            "value": 0.8740157480314961
          },
          {
            "number": 2,
            "time": 183.2348064666721,
            "value": 0.8661417322834646
          },
          {
            "number": 2,
            "time": 183.23645120000543,
            "value": 0.8661417322834646
          },
          {
            "number": 2,
            "time": 183.23809593333877,
            "value": 0.8661417322834646
          },
          {
            "number": 2,
            "time": 183.2397406666721,
            "value": 0.8582677165354331
          },
          {
            "number": 2,
            "time": 183.24138540000544,
            "value": 0.8582677165354331
          },
          {
            "number": 2,
            "time": 183.24303013333878,
            "value": 0.8582677165354331
          },
          {
            "number": 2,
            "time": 183.2446748666721,
            "value": 0.8503937007874016
          },
          {
            "number": 2,
            "time": 183.24631960000545,
            "value": 0.8503937007874016
          },
          {
            "number": 2,
            "time": 183.24796433333879,
            "value": 0.8503937007874016
          },
          {
            "number": 2,
            "time": 183.24960906667212,
            "value": 0.84251968503937
          },
          {
            "number": 2,
            "time": 183.25125380000546,
            "value": 0.84251968503937
          },
          {
            "number": 2,
            "time": 183.2528985333388,
            "value": 0.8346456692913385
          },
          {
            "number": 2,
            "time": 183.25454326667213,
            "value": 0.8346456692913385
          },
          {
            "number": 2,
            "time": 183.25618800000547,
            "value": 0.6771653543307087
          },
          {
            "number": 2,
            "time": 183.25618800000547,
            "value": 0.84251968503937
          },
          {
            "number": 2,
            "time": 183.2578327333388,
            "value": 0.84251968503937
          },
          {
            "number": 2,
            "time": 183.25947746667214,
            "value": 0.8346456692913385
          },
          {
            "number": 2,
            "time": 183.26112220000547,
            "value": 0.8346456692913385
          },
          {
            "number": 2,
            "time": 183.2627669333388,
            "value": 0.8346456692913385
          },
          {
            "number": 2,
            "time": 183.26441166667215,
            "value": 0.8267716535433071
          },
          {
            "number": 2,
            "time": 183.26605640000548,
            "value": 0.8267716535433071
          },
          {
            "number": 2,
            "time": 183.26770113333882,
            "value": 0.8188976377952756
          },
          {
            "number": 2,
            "time": 183.26934586667215,
            "value": 0.8188976377952756
          },
          {
            "number": 2,
            "time": 183.2709906000055,
            "value": 0.8188976377952756
          },
          {
            "number": 2,
            "time": 183.27263533333883,
            "value": 0.8110236220472441
          },
          {
            "number": 2,
            "time": 183.27428006667216,
            "value": 0.8110236220472441
          },
          {
            "number": 2,
            "time": 183.2759248000055,
            "value": 0.8110236220472441
          },
          {
            "number": 2,
            "time": 183.27756953333883,
            "value": 0.8031496062992126
          },
          {
            "number": 2,
            "time": 183.27921426667217,
            "value": 0.8031496062992126
          },
          {
            "number": 2,
            "time": 183.2808590000055,
            "value": 0.8031496062992126
          },
          {
            "number": 2,
            "time": 183.28250373333884,
            "value": 0.7952755905511811
          },
          {
            "number": 2,
            "time": 183.28414846667218,
            "value": 0.7952755905511811
          },
          {
            "number": 2,
            "time": 183.28579320000551,
            "value": 0.7952755905511811
          },
          {
            "number": 2,
            "time": 183.28743793333885,
            "value": 0.7874015748031497
          },
          {
            "number": 2,
            "time": 183.2890826666722,
            "value": 0.7874015748031497
          },
          {
            "number": 2,
            "time": 183.29072740000552,
            "value": 0.7795275590551181
          },
          {
            "number": 2,
            "time": 183.29237213333886,
            "value": 0.7795275590551181
          },
          {
            "number": 2,
            "time": 183.2940168666722,
            "value": 0.7795275590551181
          },
          {
            "number": 2,
            "time": 183.29566160000553,
            "value": 0.7716535433070866
          },
          {
            "number": 2,
            "time": 183.29730633333887,
            "value": 0.7716535433070866
          },
          {
            "number": 2,
            "time": 183.2989510666722,
            "value": 0.7716535433070866
          },
          {
            "number": 2,
            "time": 183.30059580000554,
            "value": 0.7637795275590551
          },
          {
            "number": 2,
            "time": 183.30224053333887,
            "value": 0.7637795275590551
          },
          {
            "number": 2,
            "time": 183.3038852666722,
            "value": 0.7637795275590551
          },
          {
            "number": 2,
            "time": 183.30553000000555,
            "value": 0.7559055118110236
          },
          {
            "number": 2,
            "time": 183.30717473333888,
            "value": 0.7559055118110236
          },
          {
            "number": 2,
            "time": 183.30881946667222,
            "value": 0.7559055118110236
          },
          {
            "number": 2,
            "time": 183.31046420000555,
            "value": 0.7480314960629921
          },
          {
            "number": 2,
            "time": 183.3121089333389,
            "value": 0.7480314960629921
          },
          {
            "number": 2,
            "time": 183.31375366667223,
            "value": 0.7401574803149606
          },
          {
            "number": 2,
            "time": 183.31539840000556,
            "value": 0.7401574803149606
          },
          {
            "number": 2,
            "time": 183.3170431333389,
            "value": 0.7401574803149606
          },
          {
            "number": 2,
            "time": 183.31868786667224,
            "value": 0.7322834645669292
          },
          {
            "number": 2,
            "time": 183.32033260000557,
            "value": 0.7322834645669292
          },
          {
            "number": 2,
            "time": 183.3219773333389,
            "value": 0.7322834645669292
          },
          {
            "number": 2,
            "time": 183.32362206667224,
            "value": 0.7244094488188977
          },
          {
            "number": 2,
            "time": 183.32526680000558,
            "value": 0.7244094488188977
          },
          {
            "number": 2,
            "time": 183.32691153333892,
            "value": 0.7244094488188977
          },
          {
            "number": 2,
            "time": 183.32855626667225,
            "value": 0.7165354330708661
          },
          {
            "number": 2,
            "time": 183.3302010000056,
            "value": 0.7165354330708661
          },
          {
            "number": 2,
            "time": 183.33184573333892,
            "value": 0.7165354330708661
          },
          {
            "number": 2,
            "time": 183.33349046667226,
            "value": 0.7086614173228346
          },
          {
            "number": 2,
            "time": 183.3351352000056,
            "value": 0.7086614173228346
          },
          {
            "number": 2,
            "time": 183.33677993333893,
            "value": 0.7007874015748031
          },
          {
            "number": 2,
            "time": 183.33842466667227,
            "value": 0.7007874015748031
          },
          {
            "number": 2,
            "time": 183.3400694000056,
            "value": 0.7007874015748031
          },
          {
            "number": 2,
            "time": 183.34171413333894,
            "value": 0.6929133858267716
          },
          {
            "number": 2,
            "time": 183.34335886667228,
            "value": 0.6929133858267716
          },
          {
            "number": 2,
            "time": 183.3450036000056,
            "value": 0.6929133858267716
          },
          {
            "number": 2,
            "time": 183.34664833333895,
            "value": 0.6850393700787402
          },
          {
            "number": 2,
            "time": 183.34829306667228,
            "value": 0.6850393700787402
          },
          {
            "number": 2,
            "time": 183.34993780000562,
            "value": 0.6850393700787402
          },
          {
            "number": 2,
            "time": 183.35158253333896,
            "value": 0.6771653543307087
          },
          {
            "number": 2,
            "time": 183.3532272666723,
            "value": 0.6771653543307087
          },
          {
            "number": 2,
            "time": 183.55224000000564,
            "value": 0.6771653543307087
          },
          {
            "number": 2,
            "time": 183.79895000000565,
            "value": 0.6850393700787402
          },
          {
            "number": 2,
            "time": 184.34171200000566,
            "value": 0.6929133858267716
          },
          {
            "number": 2,
            "time": 184.73644800000565,
            "value": 1
          },
          {
            "number": 2,
            "time": 184.738092733339,
            "value": 1
          },
          {
            "number": 2,
            "time": 184.73973746667232,
            "value": 1
          },
          {
            "number": 2,
            "time": 184.74138220000566,
            "value": 1
          },
          {
            "number": 2,
            "time": 184.743026933339,
            "value": 1
          },
          {
            "number": 2,
            "time": 184.74467166667233,
            "value": 1
          },
          {
            "number": 2,
            "time": 184.74631640000567,
            "value": 1
          },
          {
            "number": 2,
            "time": 184.747961133339,
            "value": 1
          },
          {
            "number": 2,
            "time": 184.74960586667234,
            "value": 1
          },
          {
            "number": 2,
            "time": 184.75125060000568,
            "value": 1
          },
          {
            "number": 2,
            "time": 184.752895333339,
            "value": 1
          },
          {
            "number": 2,
            "time": 184.75454006667235,
            "value": 1
          },
          {
            "number": 2,
            "time": 184.75618480000568,
            "value": 1
          },
          {
            "number": 2,
            "time": 184.75782953333902,
            "value": 1
          },
          {
            "number": 2,
            "time": 184.75947426667236,
            "value": 0.9921259842519685
          },
          {
            "number": 2,
            "time": 184.7611190000057,
            "value": 0.9921259842519685
          },
          {
            "number": 2,
            "time": 184.76276373333903,
            "value": 0.9921259842519685
          },
          {
            "number": 2,
            "time": 184.76440846667236,
            "value": 0.984251968503937
          },
          {
            "number": 2,
            "time": 184.7660532000057,
            "value": 0.984251968503937
          },
          {
            "number": 2,
            "time": 184.76769793333904,
            "value": 0.984251968503937
          },
          {
            "number": 2,
            "time": 184.76934266667237,
            "value": 0.9763779527559056
          },
          {
            "number": 2,
            "time": 184.7709874000057,
            "value": 0.9763779527559056
          },
          {
            "number": 2,
            "time": 184.77263213333904,
            "value": 0.968503937007874
          },
          {
            "number": 2,
            "time": 184.77427686667238,
            "value": 0.968503937007874
          },
          {
            "number": 2,
            "time": 184.77592160000572,
            "value": 0.968503937007874
          },
          {
            "number": 2,
            "time": 184.77756633333905,
            "value": 0.9606299212598425
          },
          {
            "number": 2,
            "time": 184.7792110666724,
            "value": 0.9606299212598425
          },
          {
            "number": 2,
            "time": 184.78085580000572,
            "value": 0.9606299212598425
          },
          {
            "number": 2,
            "time": 184.78250053333906,
            "value": 0.952755905511811
          },
          {
            "number": 2,
            "time": 184.7841452666724,
            "value": 0.952755905511811
          },
          {
            "number": 2,
            "time": 184.78579000000573,
            "value": 0.952755905511811
          },
          {
            "number": 2,
            "time": 184.78743473333907,
            "value": 0.9448818897637795
          },
          {
            "number": 2,
            "time": 184.7890794666724,
            "value": 0.9448818897637795
          },
          {
            "number": 2,
            "time": 184.79072420000574,
            "value": 0.937007874015748
          },
          {
            "number": 2,
            "time": 184.79236893333908,
            "value": 0.937007874015748
          },
          {
            "number": 2,
            "time": 184.7940136666724,
            "value": 0.937007874015748
          },
          {
            "number": 2,
            "time": 184.79565840000575,
            "value": 0.9291338582677166
          },
          {
            "number": 2,
            "time": 184.79730313333908,
            "value": 0.9291338582677166
          },
          {
            "number": 2,
            "time": 184.79894786667242,
            "value": 0.9291338582677166
          },
          {
            "number": 2,
            "time": 184.80059260000576,
            "value": 0.9212598425196851
          },
          {
            "number": 2,
            "time": 184.8022373333391,
            "value": 0.9212598425196851
          },
          {
            "number": 2,
            "time": 184.80388206667243,
            "value": 0.9133858267716536
          },
          {
            "number": 2,
            "time": 184.80552680000577,
            "value": 0.9133858267716536
          },
          {
            "number": 2,
            "time": 184.8071715333391,
            "value": 0.9133858267716536
          },
          {
            "number": 2,
            "time": 184.80881626667244,
            "value": 0.905511811023622
          },
          {
            "number": 2,
            "time": 184.81046100000577,
            "value": 0.905511811023622
          },
          {
            "number": 2,
            "time": 184.8121057333391,
            "value": 0.905511811023622
          },
          {
            "number": 2,
            "time": 184.81375046667245,
            "value": 0.8976377952755905
          },
          {
            "number": 2,
            "time": 184.81539520000578,
            "value": 0.8976377952755905
          },
          {
            "number": 2,
            "time": 184.81703993333912,
            "value": 0.8976377952755905
          },
          {
            "number": 2,
            "time": 184.81868466667245,
            "value": 0.889763779527559
          },
          {
            "number": 2,
            "time": 184.8203294000058,
            "value": 0.889763779527559
          },
          {
            "number": 2,
            "time": 184.82197413333913,
            "value": 0.8818897637795275
          },
          {
            "number": 2,
            "time": 184.82361886667246,
            "value": 0.8818897637795275
          },
          {
            "number": 2,
            "time": 184.8252636000058,
            "value": 0.8818897637795275
          },
          {
            "number": 2,
            "time": 184.82690833333913,
            "value": 0.8740157480314961
          },
          {
            "number": 2,
            "time": 184.82855306667247,
            "value": 0.8740157480314961
          },
          {
            "number": 2,
            "time": 184.8301978000058,
            "value": 0.8740157480314961
          },
          {
            "number": 2,
            "time": 184.83184253333914,
            "value": 0.8661417322834646
          },
          {
            "number": 2,
            "time": 184.83348726667248,
            "value": 0.8661417322834646
          },
          {
            "number": 2,
            "time": 184.8351320000058,
            "value": 0.8661417322834646
          },
          {
            "number": 2,
            "time": 184.83677673333915,
            "value": 0.8582677165354331
          },
          {
            "number": 2,
            "time": 184.8384214666725,
            "value": 0.8582677165354331
          },
          {
            "number": 2,
            "time": 184.84006620000582,
            "value": 0.8503937007874016
          },
          {
            "number": 2,
            "time": 184.84171093333916,
            "value": 0.8503937007874016
          },
          {
            "number": 2,
            "time": 184.8433556666725,
            "value": 0.8503937007874016
          },
          {
            "number": 2,
            "time": 184.84500040000583,
            "value": 0.84251968503937
          },
          {
            "number": 2,
            "time": 184.84664513333917,
            "value": 0.84251968503937
          },
          {
            "number": 2,
            "time": 184.8482898666725,
            "value": 0.84251968503937
          },
          {
            "number": 2,
            "time": 184.84993460000584,
            "value": 0.8346456692913385
          },
          {
            "number": 2,
            "time": 184.85157933333917,
            "value": 0.8346456692913385
          },
          {
            "number": 2,
            "time": 184.8532240666725,
            "value": 0.8267716535433071
          },
          {
            "number": 2,
            "time": 184.85486880000585,
            "value": 0.8267716535433071
          },
          {
            "number": 2,
            "time": 184.85651353333918,
            "value": 0.8267716535433071
          },
          {
            "number": 2,
            "time": 184.85815826667252,
            "value": 0.8188976377952756
          },
          {
            "number": 2,
            "time": 184.85980300000585,
            "value": 0.8188976377952756
          },
          {
            "number": 2,
            "time": 184.8614477333392,
            "value": 0.8188976377952756
          },
          {
            "number": 2,
            "time": 184.86309246667253,
            "value": 0.8110236220472441
          },
          {
            "number": 2,
            "time": 184.86473720000586,
            "value": 0.8110236220472441
          },
          {
            "number": 2,
            "time": 184.8663819333392,
            "value": 0.8110236220472441
          },
          {
            "number": 2,
            "time": 184.86802666667253,
            "value": 0.8031496062992126
          },
          {
            "number": 2,
            "time": 184.86967140000587,
            "value": 0.8031496062992126
          },
          {
            "number": 2,
            "time": 184.8713161333392,
            "value": 0.7952755905511811
          },
          {
            "number": 2,
            "time": 184.87296086667254,
            "value": 0.7952755905511811
          },
          {
            "number": 2,
            "time": 184.87460560000588,
            "value": 0.7952755905511811
          },
          {
            "number": 2,
            "time": 184.87625033333921,
            "value": 0.7874015748031497
          },
          {
            "number": 2,
            "time": 184.87789506667255,
            "value": 0.7874015748031497
          },
          {
            "number": 2,
            "time": 184.8795398000059,
            "value": 0.7874015748031497
          },
          {
            "number": 2,
            "time": 184.88118453333922,
            "value": 0.7795275590551181
          },
          {
            "number": 2,
            "time": 184.88282926667256,
            "value": 0.7795275590551181
          },
          {
            "number": 2,
            "time": 184.8844740000059,
            "value": 0.7007874015748031
          },
          {
            "number": 2,
            "time": 184.8844740000059,
            "value": 0.7874015748031497
          },
          {
            "number": 2,
            "time": 184.88611873333923,
            "value": 0.7795275590551181
          },
          {
            "number": 2,
            "time": 184.88776346667257,
            "value": 0.7795275590551181
          },
          {
            "number": 2,
            "time": 184.8894082000059,
            "value": 0.7795275590551181
          },
          {
            "number": 2,
            "time": 184.89105293333924,
            "value": 0.7716535433070866
          },
          {
            "number": 2,
            "time": 184.89269766667257,
            "value": 0.7716535433070866
          },
          {
            "number": 2,
            "time": 184.8943424000059,
            "value": 0.7637795275590551
          },
          {
            "number": 2,
            "time": 184.89598713333925,
            "value": 0.7637795275590551
          },
          {
            "number": 2,
            "time": 184.89763186667258,
            "value": 0.7637795275590551
          },
          {
            "number": 2,
            "time": 184.89927660000592,
            "value": 0.7559055118110236
          },
          {
            "number": 2,
            "time": 184.90092133333926,
            "value": 0.7559055118110236
          },
          {
            "number": 2,
            "time": 184.9025660666726,
            "value": 0.7559055118110236
          },
          {
            "number": 2,
            "time": 184.90421080000593,
            "value": 0.7480314960629921
          },
          {
            "number": 2,
            "time": 184.90585553333926,
            "value": 0.7480314960629921
          },
          {
            "number": 2,
            "time": 184.9075002666726,
            "value": 0.7401574803149606
          },
          {
            "number": 2,
            "time": 184.90914500000594,
            "value": 0.7401574803149606
          },
          {
            "number": 2,
            "time": 184.91078973333927,
            "value": 0.7401574803149606
          },
          {
            "number": 2,
            "time": 184.9124344666726,
            "value": 0.7322834645669292
          },
          {
            "number": 2,
            "time": 184.91407920000594,
            "value": 0.7322834645669292
          },
          {
            "number": 2,
            "time": 184.91572393333928,
            "value": 0.7322834645669292
          },
          {
            "number": 2,
            "time": 184.91736866667262,
            "value": 0.7244094488188977
          },
          {
            "number": 2,
            "time": 184.91901340000595,
            "value": 0.7244094488188977
          },
          {
            "number": 2,
            "time": 184.9206581333393,
            "value": 0.7165354330708661
          },
          {
            "number": 2,
            "time": 184.92230286667262,
            "value": 0.7165354330708661
          },
          {
            "number": 2,
            "time": 184.92394760000596,
            "value": 0.7165354330708661
          },
          {
            "number": 2,
            "time": 184.9255923333393,
            "value": 0.7086614173228346
          },
          {
            "number": 2,
            "time": 184.92723706667263,
            "value": 0.7086614173228346
          },
          {
            "number": 2,
            "time": 184.92888180000597,
            "value": 0.7086614173228346
          },
          {
            "number": 2,
            "time": 184.9305265333393,
            "value": 0.7007874015748031
          },
          {
            "number": 2,
            "time": 184.93217126667264,
            "value": 0.7007874015748031
          },
          {
            "number": 2,
            "time": 185.131184000006,
            "value": 0.7007874015748031
          },
          {
            "number": 2,
            "time": 185.427236000006,
            "value": 0.7086614173228346
          },
          {
            "number": 2,
            "time": 185.92065600000598,
            "value": 0.7086614173228346
          },
          {
            "number": 2,
            "time": 185.96999800000597,
            "value": 0.7165354330708661
          },
          {
            "number": 2,
            "time": 186.31539200000597,
            "value": 1
          },
          {
            "number": 2,
            "time": 186.3170367333393,
            "value": 1
          },
          {
            "number": 2,
            "time": 186.31868146667264,
            "value": 1
          },
          {
            "number": 2,
            "time": 186.32032620000598,
            "value": 1
          },
          {
            "number": 2,
            "time": 186.32197093333932,
            "value": 1
          },
          {
            "number": 2,
            "time": 186.32361566667265,
            "value": 1
          },
          {
            "number": 2,
            "time": 186.325260400006,
            "value": 1
          },
          {
            "number": 2,
            "time": 186.32690513333932,
            "value": 1
          },
          {
            "number": 2,
            "time": 186.32854986667266,
            "value": 1
          },
          {
            "number": 2,
            "time": 186.330194600006,
            "value": 1
          },
          {
            "number": 2,
            "time": 186.33183933333933,
            "value": 1
          },
          {
            "number": 2,
            "time": 186.33348406667267,
            "value": 1
          },
          {
            "number": 2,
            "time": 186.335128800006,
            "value": 1
          },
          {
            "number": 2,
            "time": 186.33677353333934,
            "value": 1
          },
          {
            "number": 2,
            "time": 186.33841826667268,
            "value": 1
          },
          {
            "number": 2,
            "time": 186.340063000006,
            "value": 1
          },
          {
            "number": 2,
            "time": 186.34170773333935,
            "value": 1
          },
          {
            "number": 2,
            "time": 186.34335246667268,
            "value": 1
          },
          {
            "number": 2,
            "time": 186.34499720000602,
            "value": 1
          },
          {
            "number": 2,
            "time": 186.34664193333936,
            "value": 1
          },
          {
            "number": 2,
            "time": 186.3482866666727,
            "value": 1
          },
          {
            "number": 2,
            "time": 186.34993140000603,
            "value": 1
          },
          {
            "number": 2,
            "time": 186.35157613333936,
            "value": 1
          },
          {
            "number": 2,
            "time": 186.3532208666727,
            "value": 1
          },
          {
            "number": 2,
            "time": 186.35486560000604,
            "value": 1
          },
          {
            "number": 2,
            "time": 186.35651033333937,
            "value": 1
          },
          {
            "number": 2,
            "time": 186.3581550666727,
            "value": 0.9921259842519685
          },
          {
            "number": 2,
            "time": 186.35979980000604,
            "value": 0.9921259842519685
          },
          {
            "number": 2,
            "time": 186.36144453333938,
            "value": 0.984251968503937
          },
          {
            "number": 2,
            "time": 186.36308926667272,
            "value": 0.984251968503937
          },
          {
            "number": 2,
            "time": 186.36473400000605,
            "value": 0.984251968503937
          },
          {
            "number": 2,
            "time": 186.3663787333394,
            "value": 0.9763779527559056
          },
          {
            "number": 2,
            "time": 186.36802346667272,
            "value": 0.9763779527559056
          },
          {
            "number": 2,
            "time": 186.36966820000606,
            "value": 0.968503937007874
          },
          {
            "number": 2,
            "time": 186.3713129333394,
            "value": 0.968503937007874
          },
          {
            "number": 2,
            "time": 186.37295766667273,
            "value": 0.968503937007874
          },
          {
            "number": 2,
            "time": 186.37460240000607,
            "value": 0.9606299212598425
          },
          {
            "number": 2,
            "time": 186.3762471333394,
            "value": 0.9606299212598425
          },
          {
            "number": 2,
            "time": 186.37789186667274,
            "value": 0.9606299212598425
          },
          {
            "number": 2,
            "time": 186.37953660000608,
            "value": 0.952755905511811
          },
          {
            "number": 2,
            "time": 186.3811813333394,
            "value": 0.952755905511811
          },
          {
            "number": 2,
            "time": 186.38282606667275,
            "value": 0.9448818897637795
          },
          {
            "number": 2,
            "time": 186.38447080000608,
            "value": 0.9448818897637795
          },
          {
            "number": 2,
            "time": 186.38611553333942,
            "value": 0.9448818897637795
          },
          {
            "number": 2,
            "time": 186.38776026667276,
            "value": 0.937007874015748
          },
          {
            "number": 2,
            "time": 186.3894050000061,
            "value": 0.937007874015748
          },
          {
            "number": 2,
            "time": 186.39104973333943,
            "value": 0.937007874015748
          },
          {
            "number": 2,
            "time": 186.39269446667276,
            "value": 0.9291338582677166
          },
          {
            "number": 2,
            "time": 186.3943392000061,
            "value": 0.9291338582677166
          },
          {
            "number": 2,
            "time": 186.39598393333944,
            "value": 0.9212598425196851
          },
          {
            "number": 2,
            "time": 186.39762866667277,
            "value": 0.9212598425196851
          },
          {
            "number": 2,
            "time": 186.3992734000061,
            "value": 0.9212598425196851
          },
          {
            "number": 2,
            "time": 186.40091813333945,
            "value": 0.9133858267716536
          },
          {
            "number": 2,
            "time": 186.40256286667278,
            "value": 0.9133858267716536
          },
          {
            "number": 2,
            "time": 186.40420760000612,
            "value": 0.9133858267716536
          },
          {
            "number": 2,
            "time": 186.40585233333945,
            "value": 0.905511811023622
          },
          {
            "number": 2,
            "time": 186.4074970666728,
            "value": 0.905511811023622
          },
          {
            "number": 2,
            "time": 186.40914180000613,
            "value": 0.8976377952755905
          },
          {
            "number": 2,
            "time": 186.41078653333946,
            "value": 0.8976377952755905
          },
          {
            "number": 2,
            "time": 186.4124312666728,
            "value": 0.8976377952755905
          },
          {
            "number": 2,
            "time": 186.41407600000613,
            "value": 0.889763779527559
          },
          {
            "number": 2,
            "time": 186.41572073333947,
            "value": 0.889763779527559
          },
          {
            "number": 2,
            "time": 186.4173654666728,
            "value": 0.8818897637795275
          },
          {
            "number": 2,
            "time": 186.41901020000614,
            "value": 0.8818897637795275
          },
          {
            "number": 2,
            "time": 186.42065493333948,
            "value": 0.8818897637795275
          },
          {
            "number": 2,
            "time": 186.4222996666728,
            "value": 0.8740157480314961
          },
          {
            "number": 2,
            "time": 186.42394440000615,
            "value": 0.8740157480314961
          },
          {
            "number": 2,
            "time": 186.42558913333949,
            "value": 0.8740157480314961
          },
          {
            "number": 2,
            "time": 186.42723386667282,
            "value": 0.8661417322834646
          },
          {
            "number": 2,
            "time": 186.42887860000616,
            "value": 0.8661417322834646
          },
          {
            "number": 2,
            "time": 186.4305233333395,
            "value": 0.8582677165354331
          },
          {
            "number": 2,
            "time": 186.43216806667283,
            "value": 0.8582677165354331
          },
          {
            "number": 2,
            "time": 186.43381280000617,
            "value": 0.8582677165354331
          },
          {
            "number": 2,
            "time": 186.4354575333395,
            "value": 0.8503937007874016
          },
          {
            "number": 2,
            "time": 186.43710226667284,
            "value": 0.8503937007874016
          },
          {
            "number": 2,
            "time": 186.43874700000617,
            "value": 0.8503937007874016
          },
          {
            "number": 2,
            "time": 186.4403917333395,
            "value": 0.84251968503937
          },
          {
            "number": 2,
            "time": 186.44203646667285,
            "value": 0.84251968503937
          },
          {
            "number": 2,
            "time": 186.44368120000618,
            "value": 0.8346456692913385
          },
          {
            "number": 2,
            "time": 186.44532593333952,
            "value": 0.8346456692913385
          },
          {
            "number": 2,
            "time": 186.44697066667285,
            "value": 0.8346456692913385
          },
          {
            "number": 2,
            "time": 186.4486154000062,
            "value": 0.8267716535433071
          },
          {
            "number": 2,
            "time": 186.45026013333953,
            "value": 0.8267716535433071
          },
          {
            "number": 2,
            "time": 186.45190486667286,
            "value": 0.8267716535433071
          },
          {
            "number": 2,
            "time": 186.4535496000062,
            "value": 0.8188976377952756
          },
          {
            "number": 2,
            "time": 186.45519433333953,
            "value": 0.8188976377952756
          },
          {
            "number": 2,
            "time": 186.45683906667287,
            "value": 0.8110236220472441
          },
          {
            "number": 2,
            "time": 186.4584838000062,
            "value": 0.8110236220472441
          },
          {
            "number": 2,
            "time": 186.46012853333954,
            "value": 0.8110236220472441
          },
          {
            "number": 2,
            "time": 186.46177326667288,
            "value": 0.8031496062992126
          },
          {
            "number": 2,
            "time": 186.46341800000621,
            "value": 0.8031496062992126
          },
          {
            "number": 2,
            "time": 186.46506273333955,
            "value": 0.7952755905511811
          },
          {
            "number": 2,
            "time": 186.4667074666729,
            "value": 0.7952755905511811
          },
          {
            "number": 2,
            "time": 186.46835220000622,
            "value": 0.7952755905511811
          },
          {
            "number": 2,
            "time": 186.46999693333956,
            "value": 0.7874015748031497
          },
          {
            "number": 2,
            "time": 186.4716416666729,
            "value": 0.7874015748031497
          },
          {
            "number": 2,
            "time": 186.47328640000623,
            "value": 0.7874015748031497
          },
          {
            "number": 2,
            "time": 186.47493113333957,
            "value": 0.7795275590551181
          },
          {
            "number": 2,
            "time": 186.4765758666729,
            "value": 0.7795275590551181
          },
          {
            "number": 2,
            "time": 186.47822060000624,
            "value": 0.7716535433070866
          },
          {
            "number": 2,
            "time": 186.47986533333957,
            "value": 0.7716535433070866
          },
          {
            "number": 2,
            "time": 186.4815100666729,
            "value": 0.7716535433070866
          },
          {
            "number": 2,
            "time": 186.48315480000625,
            "value": 0.7637795275590551
          },
          {
            "number": 2,
            "time": 186.48479953333958,
            "value": 0.7637795275590551
          },
          {
            "number": 2,
            "time": 186.48644426667292,
            "value": 0.7637795275590551
          },
          {
            "number": 2,
            "time": 186.48808900000625,
            "value": 0.7559055118110236
          },
          {
            "number": 2,
            "time": 186.4897337333396,
            "value": 0.7559055118110236
          },
          {
            "number": 2,
            "time": 186.49137846667293,
            "value": 0.7480314960629921
          },
          {
            "number": 2,
            "time": 186.49302320000626,
            "value": 0.7480314960629921
          },
          {
            "number": 2,
            "time": 186.4946679333396,
            "value": 0.7480314960629921
          },
          {
            "number": 2,
            "time": 186.49631266667294,
            "value": 0.7401574803149606
          },
          {
            "number": 2,
            "time": 186.49795740000627,
            "value": 0.7401574803149606
          },
          {
            "number": 2,
            "time": 186.4996021333396,
            "value": 0.7401574803149606
          },
          {
            "number": 2,
            "time": 186.50124686667294,
            "value": 0.7322834645669292
          },
          {
            "number": 2,
            "time": 186.50289160000628,
            "value": 0.7322834645669292
          },
          {
            "number": 2,
            "time": 186.50453633333962,
            "value": 0.7244094488188977
          },
          {
            "number": 2,
            "time": 186.50618106667295,
            "value": 0.7244094488188977
          },
          {
            "number": 2,
            "time": 186.5078258000063,
            "value": 0.7244094488188977
          },
          {
            "number": 2,
            "time": 186.50947053333962,
            "value": 0.7165354330708661
          },
          {
            "number": 2,
            "time": 186.51111526667296,
            "value": 0.7165354330708661
          },
          {
            "number": 2,
            "time": 186.5127600000063,
            "value": 0.7244094488188977
          },
          {
            "number": 2,
            "time": 186.7101280000063,
            "value": 0.7244094488188977
          },
          {
            "number": 2,
            "time": 187.0555220000063,
            "value": 0.7322834645669292
          },
          {
            "number": 2,
            "time": 187.4996000000063,
            "value": 0.7322834645669292
          },
          {
            "number": 2,
            "time": 187.5982840000063,
            "value": 0.7401574803149606
          },
          {
            "number": 2,
            "time": 187.89433600000626,
            "value": 1
          },
          {
            "number": 2,
            "time": 187.8959807333396,
            "value": 1
          },
          {
            "number": 2,
            "time": 187.89762546667293,
            "value": 1
          },
          {
            "number": 2,
            "time": 187.89927020000627,
            "value": 1
          },
          {
            "number": 2,
            "time": 187.9009149333396,
            "value": 1
          },
          {
            "number": 2,
            "time": 187.90255966667294,
            "value": 1
          },
          {
            "number": 2,
            "time": 187.90420440000628,
            "value": 1
          },
          {
            "number": 2,
            "time": 187.90584913333961,
            "value": 1
          },
          {
            "number": 2,
            "time": 187.90749386667295,
            "value": 1
          },
          {
            "number": 2,
            "time": 187.9091386000063,
            "value": 1
          },
          {
            "number": 2,
            "time": 187.91078333333962,
            "value": 1
          },
          {
            "number": 2,
            "time": 187.91242806667296,
            "value": 1
          },
          {
            "number": 2,
            "time": 187.9140728000063,
            "value": 1
          },
          {
            "number": 2,
            "time": 187.91571753333963,
            "value": 1
          },
          {
            "number": 2,
            "time": 187.91736226667297,
            "value": 1
          },
          {
            "number": 2,
            "time": 187.9190070000063,
            "value": 1
          },
          {
            "number": 2,
            "time": 187.92065173333964,
            "value": 1
          },
          {
            "number": 2,
            "time": 187.92229646667298,
            "value": 1
          },
          {
            "number": 2,
            "time": 187.9239412000063,
            "value": 1
          },
          {
            "number": 2,
            "time": 187.92558593333965,
            "value": 1
          },
          {
            "number": 2,
            "time": 187.92723066667298,
            "value": 1
          },
          {
            "number": 2,
            "time": 187.92887540000632,
            "value": 1
          },
          {
            "number": 2,
            "time": 187.93052013333966,
            "value": 1
          },
          {
            "number": 2,
            "time": 187.932164866673,
            "value": 1
          },
          {
            "number": 2,
            "time": 187.93380960000633,
            "value": 1
          },
          {
            "number": 2,
            "time": 187.93545433333966,
            "value": 1
          },
          {
            "number": 2,
            "time": 187.937099066673,
            "value": 1
          },
          {
            "number": 2,
            "time": 187.93874380000634,
            "value": 1
          },
          {
            "number": 2,
            "time": 187.94038853333967,
            "value": 1
          },
          {
            "number": 2,
            "time": 187.942033266673,
            "value": 1
          },
          {
            "number": 2,
            "time": 187.94367800000634,
            "value": 1
          },
          {
            "number": 2,
            "time": 187.94532273333968,
            "value": 1
          },
          {
            "number": 2,
            "time": 187.94696746667302,
            "value": 1
          },
          {
            "number": 2,
            "time": 187.94861220000635,
            "value": 1
          },
          {
            "number": 2,
            "time": 187.9502569333397,
            "value": 1
          },
          {
            "number": 2,
            "time": 187.95190166667302,
            "value": 1
          },
          {
            "number": 2,
            "time": 187.95354640000636,
            "value": 0.9921259842519685
          },
          {
            "number": 2,
            "time": 187.9551911333397,
            "value": 0.9921259842519685
          },
          {
            "number": 2,
            "time": 187.95683586667303,
            "value": 0.9921259842519685
          },
          {
            "number": 2,
            "time": 187.95848060000637,
            "value": 0.984251968503937
          },
          {
            "number": 2,
            "time": 187.9601253333397,
            "value": 0.984251968503937
          },
          {
            "number": 2,
            "time": 187.96177006667304,
            "value": 0.9763779527559056
          },
          {
            "number": 2,
            "time": 187.96341480000638,
            "value": 0.9763779527559056
          },
          {
            "number": 2,
            "time": 187.9650595333397,
            "value": 0.9763779527559056
          },
          {
            "number": 2,
            "time": 187.96670426667305,
            "value": 0.968503937007874
          },
          {
            "number": 2,
            "time": 187.96834900000638,
            "value": 0.968503937007874
          },
          {
            "number": 2,
            "time": 187.96999373333972,
            "value": 0.9606299212598425
          },
          {
            "number": 2,
            "time": 187.97163846667306,
            "value": 0.9606299212598425
          },
          {
            "number": 2,
            "time": 187.9732832000064,
            "value": 0.9606299212598425
          },
          {
            "number": 2,
            "time": 187.97492793333973,
            "value": 0.952755905511811
          },
          {
            "number": 2,
            "time": 187.97657266667306,
            "value": 0.952755905511811
          },
          {
            "number": 2,
            "time": 187.9782174000064,
            "value": 0.952755905511811
          },
          {
            "number": 2,
            "time": 187.97986213333974,
            "value": 0.9448818897637795
          },
          {
            "number": 2,
            "time": 187.98150686667307,
            "value": 0.9448818897637795
          },
          {
            "number": 2,
            "time": 187.9831516000064,
            "value": 0.937007874015748
          },
          {
            "number": 2,
            "time": 187.98479633333974,
            "value": 0.937007874015748
          },
          {
            "number": 2,
            "time": 187.98644106667308,
            "value": 0.937007874015748
          },
          {
            "number": 2,
            "time": 187.98808580000642,
            "value": 0.9291338582677166
          },
          {
            "number": 2,
            "time": 187.98973053333975,
            "value": 0.9291338582677166
          },
          {
            "number": 2,
            "time": 187.9913752666731,
            "value": 0.9212598425196851
          },
          {
            "number": 2,
            "time": 187.99302000000642,
            "value": 0.9212598425196851
          },
          {
            "number": 2,
            "time": 187.99466473333976,
            "value": 0.9212598425196851
          },
          {
            "number": 2,
            "time": 187.9963094666731,
            "value": 0.9133858267716536
          },
          {
            "number": 2,
            "time": 187.99795420000643,
            "value": 0.9133858267716536
          },
          {
            "number": 2,
            "time": 187.99959893333977,
            "value": 0.905511811023622
          },
          {
            "number": 2,
            "time": 188.0012436666731,
            "value": 0.905511811023622
          },
          {
            "number": 2,
            "time": 188.00288840000644,
            "value": 0.905511811023622
          },
          {
            "number": 2,
            "time": 188.00453313333978,
            "value": 0.8976377952755905
          },
          {
            "number": 2,
            "time": 188.0061778666731,
            "value": 0.8976377952755905
          },
          {
            "number": 2,
            "time": 188.00782260000645,
            "value": 0.889763779527559
          },
          {
            "number": 2,
            "time": 188.00946733333979,
            "value": 0.889763779527559
          },
          {
            "number": 2,
            "time": 188.01111206667312,
            "value": 0.889763779527559
          },
          {
            "number": 2,
            "time": 188.01275680000646,
            "value": 0.8818897637795275
          },
          {
            "number": 2,
            "time": 188.0144015333398,
            "value": 0.8818897637795275
          },
          {
            "number": 2,
            "time": 188.01604626667313,
            "value": 0.8818897637795275
          },
          {
            "number": 2,
            "time": 188.01769100000647,
            "value": 0.8740157480314961
          },
          {
            "number": 2,
            "time": 188.0193357333398,
            "value": 0.8740157480314961
          },
          {
            "number": 2,
            "time": 188.02098046667314,
            "value": 0.8661417322834646
          },
          {
            "number": 2,
            "time": 188.02262520000647,
            "value": 0.8661417322834646
          },
          {
            "number": 2,
            "time": 188.0242699333398,
            "value": 0.8661417322834646
          },
          {
            "number": 2,
            "time": 188.02591466667315,
            "value": 0.8582677165354331
          },
          {
            "number": 2,
            "time": 188.02755940000648,
            "value": 0.8582677165354331
          },
          {
            "number": 2,
            "time": 188.02920413333982,
            "value": 0.8503937007874016
          },
          {
            "number": 2,
            "time": 188.03084886667315,
            "value": 0.8503937007874016
          },
          {
            "number": 2,
            "time": 188.0324936000065,
            "value": 0.8503937007874016
          },
          {
            "number": 2,
            "time": 188.03413833333983,
            "value": 0.84251968503937
          },
          {
            "number": 2,
            "time": 188.03578306667316,
            "value": 0.84251968503937
          },
          {
            "number": 2,
            "time": 188.0374278000065,
            "value": 0.8346456692913385
          },
          {
            "number": 2,
            "time": 188.03907253333983,
            "value": 0.8346456692913385
          },
          {
            "number": 2,
            "time": 188.04071726667317,
            "value": 0.8346456692913385
          },
          {
            "number": 2,
            "time": 188.0423620000065,
            "value": 0.8267716535433071
          },
          {
            "number": 2,
            "time": 188.04400673333984,
            "value": 0.8267716535433071
          },
          {
            "number": 2,
            "time": 188.04565146667318,
            "value": 0.8188976377952756
          },
          {
            "number": 2,
            "time": 188.0472962000065,
            "value": 0.8188976377952756
          },
          {
            "number": 2,
            "time": 188.04894093333985,
            "value": 0.8188976377952756
          },
          {
            "number": 2,
            "time": 188.0505856666732,
            "value": 0.8110236220472441
          },
          {
            "number": 2,
            "time": 188.05223040000652,
            "value": 0.8110236220472441
          },
          {
            "number": 2,
            "time": 188.05387513333986,
            "value": 0.8110236220472441
          },
          {
            "number": 2,
            "time": 188.0555198666732,
            "value": 0.8031496062992126
          },
          {
            "number": 2,
            "time": 188.05716460000653,
            "value": 0.8031496062992126
          },
          {
            "number": 2,
            "time": 188.05880933333987,
            "value": 0.7952755905511811
          },
          {
            "number": 2,
            "time": 188.0604540666732,
            "value": 0.7952755905511811
          },
          {
            "number": 2,
            "time": 188.06209880000654,
            "value": 0.7952755905511811
          },
          {
            "number": 2,
            "time": 188.06374353333987,
            "value": 0.7874015748031497
          },
          {
            "number": 2,
            "time": 188.0653882666732,
            "value": 0.7874015748031497
          },
          {
            "number": 2,
            "time": 188.06703300000655,
            "value": 0.7795275590551181
          },
          {
            "number": 2,
            "time": 188.06867773333988,
            "value": 0.7795275590551181
          },
          {
            "number": 2,
            "time": 188.07032246667322,
            "value": 0.7795275590551181
          },
          {
            "number": 2,
            "time": 188.07196720000655,
            "value": 0.7716535433070866
          },
          {
            "number": 2,
            "time": 188.0736119333399,
            "value": 0.7716535433070866
          },
          {
            "number": 2,
            "time": 188.07525666667323,
            "value": 0.7637795275590551
          },
          {
            "number": 2,
            "time": 188.07690140000656,
            "value": 0.7637795275590551
          },
          {
            "number": 2,
            "time": 188.0785461333399,
            "value": 0.7637795275590551
          },
          {
            "number": 2,
            "time": 188.08019086667323,
            "value": 0.7559055118110236
          },
          {
            "number": 2,
            "time": 188.08183560000657,
            "value": 0.7559055118110236
          },
          {
            "number": 2,
            "time": 188.0834803333399,
            "value": 0.7480314960629921
          },
          {
            "number": 2,
            "time": 188.08512506667324,
            "value": 0.7480314960629921
          },
          {
            "number": 2,
            "time": 188.08676980000658,
            "value": 0.7480314960629921
          },
          {
            "number": 2,
            "time": 188.08841453333991,
            "value": 0.7401574803149606
          },
          {
            "number": 2,
            "time": 188.09005926667325,
            "value": 0.7401574803149606
          },
          {
            "number": 2,
            "time": 188.14104600000658,
            "value": 0.7480314960629921
          },
          {
            "number": 2,
            "time": 188.6838080000066,
            "value": 0.7559055118110236
          },
          {
            "number": 2,
            "time": 188.6838080000066,
            "value": 1
          },
          {
            "number": 2,
            "time": 188.75453153333993,
            "value": 0.9921259842519685
          },
          {
            "number": 2,
            "time": 188.75946573333994,
            "value": 0.984251968503937
          },
          {
            "number": 2,
            "time": 188.7627552000066,
            "value": 0.9763779527559056
          },
          {
            "number": 2,
            "time": 188.76768940000662,
            "value": 0.968503937007874
          },
          {
            "number": 2,
            "time": 188.7709788666733,
            "value": 0.9606299212598425
          },
          {
            "number": 2,
            "time": 188.7759130666733,
            "value": 0.952755905511811
          },
          {
            "number": 2,
            "time": 188.77920253333997,
            "value": 0.9448818897637795
          },
          {
            "number": 2,
            "time": 188.78413673333998,
            "value": 0.937007874015748
          },
          {
            "number": 2,
            "time": 188.78742620000665,
            "value": 0.9291338582677166
          },
          {
            "number": 2,
            "time": 188.79236040000666,
            "value": 0.9212598425196851
          },
          {
            "number": 2,
            "time": 188.79564986667333,
            "value": 0.9133858267716536
          },
          {
            "number": 2,
            "time": 188.80058406667334,
            "value": 0.905511811023622
          },
          {
            "number": 2,
            "time": 188.80387353334,
            "value": 0.8976377952755905
          },
          {
            "number": 2,
            "time": 188.80880773334002,
            "value": 0.889763779527559
          },
          {
            "number": 2,
            "time": 188.8120972000067,
            "value": 0.8818897637795275
          },
          {
            "number": 2,
            "time": 188.8170314000067,
            "value": 0.8740157480314961
          },
          {
            "number": 2,
            "time": 188.82032086667337,
            "value": 0.8661417322834646
          },
          {
            "number": 2,
            "time": 188.82525506667338,
            "value": 0.8582677165354331
          },
          {
            "number": 2,
            "time": 188.82854453334005,
            "value": 0.8503937007874016
          },
          {
            "number": 2,
            "time": 188.83347873334006,
            "value": 0.84251968503937
          },
          {
            "number": 2,
            "time": 188.83676820000673,
            "value": 0.8346456692913385
          },
          {
            "number": 2,
            "time": 188.84170240000674,
            "value": 0.8267716535433071
          },
          {
            "number": 2,
            "time": 188.8449918666734,
            "value": 0.8188976377952756
          },
          {
            "number": 2,
            "time": 188.84992606667342,
            "value": 0.8110236220472441
          },
          {
            "number": 2,
            "time": 188.8532155333401,
            "value": 0.8031496062992126
          },
          {
            "number": 2,
            "time": 188.8581497333401,
            "value": 0.7952755905511811
          },
          {
            "number": 2,
            "time": 188.86143920000677,
            "value": 0.7874015748031497
          },
          {
            "number": 2,
            "time": 188.86637340000678,
            "value": 0.7795275590551181
          },
          {
            "number": 2,
            "time": 188.86966286667345,
            "value": 0.7716535433070866
          },
          {
            "number": 2,
            "time": 188.87459706667346,
            "value": 0.7637795275590551
          },
          {
            "number": 2,
            "time": 188.87788653334013,
            "value": 0.7559055118110236
          },
          {
            "number": 2,
            "time": 189.4732800000068,
            "value": 0.7559055118110236
          },
          {
            "number": 2,
            "time": 189.4732800000068,
            "value": 1
          },
          {
            "number": 2,
            "time": 189.47492473334015,
            "value": 1
          },
          {
            "number": 2,
            "time": 189.47656946667348,
            "value": 1
          },
          {
            "number": 2,
            "time": 189.47821420000682,
            "value": 1
          },
          {
            "number": 2,
            "time": 189.47985893334015,
            "value": 1
          },
          {
            "number": 2,
            "time": 189.4815036666735,
            "value": 1
          },
          {
            "number": 2,
            "time": 189.48314840000683,
            "value": 1
          },
          {
            "number": 2,
            "time": 189.48479313334016,
            "value": 1
          },
          {
            "number": 2,
            "time": 189.4864378666735,
            "value": 1
          },
          {
            "number": 2,
            "time": 189.48808260000683,
            "value": 1
          },
          {
            "number": 2,
            "time": 189.48972733334017,
            "value": 1
          },
          {
            "number": 2,
            "time": 189.4913720666735,
            "value": 1
          },
          {
            "number": 2,
            "time": 189.49301680000684,
            "value": 1
          },
          {
            "number": 2,
            "time": 189.49466153334018,
            "value": 1
          },
          {
            "number": 2,
            "time": 189.4963062666735,
            "value": 1
          },
          {
            "number": 2,
            "time": 189.49795100000685,
            "value": 1
          },
          {
            "number": 2,
            "time": 189.4995957333402,
            "value": 1
          },
          {
            "number": 2,
            "time": 189.50124046667352,
            "value": 1
          },
          {
            "number": 2,
            "time": 189.50288520000686,
            "value": 1
          },
          {
            "number": 2,
            "time": 189.5045299333402,
            "value": 1
          },
          {
            "number": 2,
            "time": 189.50617466667353,
            "value": 1
          },
          {
            "number": 2,
            "time": 189.50781940000687,
            "value": 1
          },
          {
            "number": 2,
            "time": 189.5094641333402,
            "value": 1
          },
          {
            "number": 2,
            "time": 189.51110886667354,
            "value": 1
          },
          {
            "number": 2,
            "time": 189.51275360000687,
            "value": 1
          },
          {
            "number": 2,
            "time": 189.5143983333402,
            "value": 1
          },
          {
            "number": 2,
            "time": 189.51604306667355,
            "value": 1
          },
          {
            "number": 2,
            "time": 189.51768780000688,
            "value": 1
          },
          {
            "number": 2,
            "time": 189.51933253334022,
            "value": 1
          },
          {
            "number": 2,
            "time": 189.52097726667355,
            "value": 1
          },
          {
            "number": 2,
            "time": 189.5226220000069,
            "value": 1
          },
          {
            "number": 2,
            "time": 189.52426673334023,
            "value": 1
          },
          {
            "number": 2,
            "time": 189.52591146667356,
            "value": 1
          },
          {
            "number": 2,
            "time": 189.5275562000069,
            "value": 1
          },
          {
            "number": 2,
            "time": 189.52920093334023,
            "value": 1
          },
          {
            "number": 2,
            "time": 189.53084566667357,
            "value": 1
          },
          {
            "number": 2,
            "time": 189.5324904000069,
            "value": 1
          },
          {
            "number": 2,
            "time": 189.53413513334024,
            "value": 1
          },
          {
            "number": 2,
            "time": 189.53577986667358,
            "value": 1
          },
          {
            "number": 2,
            "time": 189.53742460000691,
            "value": 1
          },
          {
            "number": 2,
            "time": 189.53906933334025,
            "value": 1
          },
          {
            "number": 2,
            "time": 189.5407140666736,
            "value": 1
          },
          {
            "number": 2,
            "time": 189.54235880000692,
            "value": 1
          },
          {
            "number": 2,
            "time": 189.54400353334026,
            "value": 0.9921259842519685
          },
          {
            "number": 2,
            "time": 189.5456482666736,
            "value": 0.9921259842519685
          },
          {
            "number": 2,
            "time": 189.54729300000693,
            "value": 0.9921259842519685
          },
          {
            "number": 2,
            "time": 189.54893773334027,
            "value": 0.984251968503937
          },
          {
            "number": 2,
            "time": 189.5505824666736,
            "value": 0.984251968503937
          },
          {
            "number": 2,
            "time": 189.55222720000694,
            "value": 0.9763779527559056
          },
          {
            "number": 2,
            "time": 189.55387193334028,
            "value": 0.9763779527559056
          },
          {
            "number": 2,
            "time": 189.5555166666736,
            "value": 0.9763779527559056
          },
          {
            "number": 2,
            "time": 189.55716140000695,
            "value": 0.968503937007874
          },
          {
            "number": 2,
            "time": 189.55880613334028,
            "value": 0.968503937007874
          },
          {
            "number": 2,
            "time": 189.56045086667362,
            "value": 0.9606299212598425
          },
          {
            "number": 2,
            "time": 189.56209560000696,
            "value": 0.9606299212598425
          },
          {
            "number": 2,
            "time": 189.5637403333403,
            "value": 0.9606299212598425
          },
          {
            "number": 2,
            "time": 189.56538506667363,
            "value": 0.952755905511811
          },
          {
            "number": 2,
            "time": 189.56702980000696,
            "value": 0.952755905511811
          },
          {
            "number": 2,
            "time": 189.5686745333403,
            "value": 0.9448818897637795
          },
          {
            "number": 2,
            "time": 189.57031926667364,
            "value": 0.9448818897637795
          },
          {
            "number": 2,
            "time": 189.57196400000697,
            "value": 0.9448818897637795
          },
          {
            "number": 2,
            "time": 189.5736087333403,
            "value": 0.937007874015748
          },
          {
            "number": 2,
            "time": 189.57525346667364,
            "value": 0.937007874015748
          },
          {
            "number": 2,
            "time": 189.57689820000698,
            "value": 0.9291338582677166
          },
          {
            "number": 2,
            "time": 189.57854293334032,
            "value": 0.9291338582677166
          },
          {
            "number": 2,
            "time": 189.58018766667365,
            "value": 0.9291338582677166
          },
          {
            "number": 2,
            "time": 189.581832400007,
            "value": 0.9212598425196851
          },
          {
            "number": 2,
            "time": 189.58347713334032,
            "value": 0.9212598425196851
          },
          {
            "number": 2,
            "time": 189.58512186667366,
            "value": 0.9133858267716536
          },
          {
            "number": 2,
            "time": 189.586766600007,
            "value": 0.9133858267716536
          },
          {
            "number": 2,
            "time": 189.58841133334033,
            "value": 0.9133858267716536
          },
          {
            "number": 2,
            "time": 189.59005606667367,
            "value": 0.905511811023622
          },
          {
            "number": 2,
            "time": 189.591700800007,
            "value": 0.905511811023622
          },
          {
            "number": 2,
            "time": 189.59334553334034,
            "value": 0.8976377952755905
          },
          {
            "number": 2,
            "time": 189.59499026667368,
            "value": 0.8976377952755905
          },
          {
            "number": 2,
            "time": 189.596635000007,
            "value": 0.8976377952755905
          },
          {
            "number": 2,
            "time": 189.59827973334035,
            "value": 0.889763779527559
          },
          {
            "number": 2,
            "time": 189.59992446667368,
            "value": 0.889763779527559
          },
          {
            "number": 2,
            "time": 189.60156920000702,
            "value": 0.8818897637795275
          },
          {
            "number": 2,
            "time": 189.60321393334036,
            "value": 0.8818897637795275
          },
          {
            "number": 2,
            "time": 189.6048586666737,
            "value": 0.8818897637795275
          },
          {
            "number": 2,
            "time": 189.60650340000703,
            "value": 0.8740157480314961
          },
          {
            "number": 2,
            "time": 189.60814813334036,
            "value": 0.8740157480314961
          },
          {
            "number": 2,
            "time": 189.6097928666737,
            "value": 0.8661417322834646
          },
          {
            "number": 2,
            "time": 189.61143760000704,
            "value": 0.8661417322834646
          },
          {
            "number": 2,
            "time": 189.61308233334037,
            "value": 0.8661417322834646
          },
          {
            "number": 2,
            "time": 189.6147270666737,
            "value": 0.8582677165354331
          },
          {
            "number": 2,
            "time": 189.61637180000704,
            "value": 0.8582677165354331
          },
          {
            "number": 2,
            "time": 189.61801653334038,
            "value": 0.8503937007874016
          },
          {
            "number": 2,
            "time": 189.61966126667372,
            "value": 0.8503937007874016
          },
          {
            "number": 2,
            "time": 189.62130600000705,
            "value": 0.8503937007874016
          },
          {
            "number": 2,
            "time": 189.6229507333404,
            "value": 0.84251968503937
          },
          {
            "number": 2,
            "time": 189.62459546667372,
            "value": 0.84251968503937
          },
          {
            "number": 2,
            "time": 189.62624020000706,
            "value": 0.8346456692913385
          },
          {
            "number": 2,
            "time": 189.6278849333404,
            "value": 0.8346456692913385
          },
          {
            "number": 2,
            "time": 189.62952966667373,
            "value": 0.8346456692913385
          },
          {
            "number": 2,
            "time": 189.63117440000707,
            "value": 0.8267716535433071
          },
          {
            "number": 2,
            "time": 189.6328191333404,
            "value": 0.8267716535433071
          },
          {
            "number": 2,
            "time": 189.63446386667374,
            "value": 0.8188976377952756
          },
          {
            "number": 2,
            "time": 189.63610860000708,
            "value": 0.8188976377952756
          },
          {
            "number": 2,
            "time": 189.6377533333404,
            "value": 0.8188976377952756
          },
          {
            "number": 2,
            "time": 189.63939806667375,
            "value": 0.8110236220472441
          },
          {
            "number": 2,
            "time": 189.64104280000709,
            "value": 0.8110236220472441
          },
          {
            "number": 2,
            "time": 189.64268753334042,
            "value": 0.8031496062992126
          },
          {
            "number": 2,
            "time": 189.64433226667376,
            "value": 0.8031496062992126
          },
          {
            "number": 2,
            "time": 189.6459770000071,
            "value": 0.8031496062992126
          },
          {
            "number": 2,
            "time": 189.64762173334043,
            "value": 0.7952755905511811
          },
          {
            "number": 2,
            "time": 189.64926646667377,
            "value": 0.7952755905511811
          },
          {
            "number": 2,
            "time": 189.6509112000071,
            "value": 0.7874015748031497
          },
          {
            "number": 2,
            "time": 189.65255593334044,
            "value": 0.7874015748031497
          },
          {
            "number": 2,
            "time": 189.65420066667377,
            "value": 0.7874015748031497
          },
          {
            "number": 2,
            "time": 189.6558454000071,
            "value": 0.7795275590551181
          },
          {
            "number": 2,
            "time": 189.65749013334045,
            "value": 0.7795275590551181
          },
          {
            "number": 2,
            "time": 189.65913486667378,
            "value": 0.7716535433070866
          },
          {
            "number": 2,
            "time": 189.66077960000712,
            "value": 0.7716535433070866
          },
          {
            "number": 2,
            "time": 189.66242433334045,
            "value": 0.7716535433070866
          },
          {
            "number": 2,
            "time": 189.6640690666738,
            "value": 0.7637795275590551
          },
          {
            "number": 2,
            "time": 189.66571380000713,
            "value": 0.7637795275590551
          },
          {
            "number": 2,
            "time": 189.66735853334046,
            "value": 0.7559055118110236
          },
          {
            "number": 2,
            "time": 189.6690032666738,
            "value": 0.7559055118110236
          },
          {
            "number": 2,
            "time": 190.26275200000714,
            "value": 1
          },
          {
            "number": 2,
            "time": 190.26439673334048,
            "value": 1
          },
          {
            "number": 2,
            "time": 190.2660414666738,
            "value": 1
          },
          {
            "number": 2,
            "time": 190.26768620000715,
            "value": 1
          },
          {
            "number": 2,
            "time": 190.26933093334048,
            "value": 1
          },
          {
            "number": 2,
            "time": 190.27097566667382,
            "value": 1
          },
          {
            "number": 2,
            "time": 190.27262040000716,
            "value": 1
          },
          {
            "number": 2,
            "time": 190.2742651333405,
            "value": 1
          },
          {
            "number": 2,
            "time": 190.27590986667383,
            "value": 1
          },
          {
            "number": 2,
            "time": 190.27755460000716,
            "value": 1
          },
          {
            "number": 2,
            "time": 190.2791993333405,
            "value": 1
          },
          {
            "number": 2,
            "time": 190.28084406667384,
            "value": 1
          },
          {
            "number": 2,
            "time": 190.28248880000717,
            "value": 1
          },
          {
            "number": 2,
            "time": 190.2841335333405,
            "value": 1
          },
          {
            "number": 2,
            "time": 190.28577826667384,
            "value": 1
          },
          {
            "number": 2,
            "time": 190.28742300000718,
            "value": 1
          },
          {
            "number": 2,
            "time": 190.28906773334052,
            "value": 1
          },
          {
            "number": 2,
            "time": 190.29071246667385,
            "value": 1
          },
          {
            "number": 2,
            "time": 190.2923572000072,
            "value": 1
          },
          {
            "number": 2,
            "time": 190.29400193334052,
            "value": 1
          },
          {
            "number": 2,
            "time": 190.29564666667386,
            "value": 1
          },
          {
            "number": 2,
            "time": 190.2972914000072,
            "value": 1
          },
          {
            "number": 2,
            "time": 190.29893613334053,
            "value": 1
          },
          {
            "number": 2,
            "time": 190.30058086667387,
            "value": 1
          },
          {
            "number": 2,
            "time": 190.3022256000072,
            "value": 1
          },
          {
            "number": 2,
            "time": 190.30387033334054,
            "value": 1
          },
          {
            "number": 2,
            "time": 190.30551506667388,
            "value": 1
          },
          {
            "number": 2,
            "time": 190.3071598000072,
            "value": 1
          },
          {
            "number": 2,
            "time": 190.30880453334055,
            "value": 1
          },
          {
            "number": 2,
            "time": 190.31044926667388,
            "value": 1
          },
          {
            "number": 2,
            "time": 190.31209400000722,
            "value": 1
          },
          {
            "number": 2,
            "time": 190.31373873334056,
            "value": 1
          },
          {
            "number": 2,
            "time": 190.3153834666739,
            "value": 1
          },
          {
            "number": 2,
            "time": 190.31702820000723,
            "value": 1
          },
          {
            "number": 2,
            "time": 190.31867293334057,
            "value": 1
          },
          {
            "number": 2,
            "time": 190.3203176666739,
            "value": 1
          },
          {
            "number": 2,
            "time": 190.32196240000724,
            "value": 1
          },
          {
            "number": 2,
            "time": 190.32360713334057,
            "value": 1
          },
          {
            "number": 2,
            "time": 190.3252518666739,
            "value": 1
          },
          {
            "number": 2,
            "time": 190.32689660000725,
            "value": 1
          },
          {
            "number": 2,
            "time": 190.32854133334058,
            "value": 1
          },
          {
            "number": 2,
            "time": 190.33018606667392,
            "value": 1
          },
          {
            "number": 2,
            "time": 190.33183080000725,
            "value": 1
          },
          {
            "number": 2,
            "time": 190.3334755333406,
            "value": 0.9921259842519685
          },
          {
            "number": 2,
            "time": 190.33512026667393,
            "value": 0.9921259842519685
          },
          {
            "number": 2,
            "time": 190.33676500000726,
            "value": 0.9921259842519685
          },
          {
            "number": 2,
            "time": 190.3384097333406,
            "value": 0.984251968503937
          },
          {
            "number": 2,
            "time": 190.34005446667393,
            "value": 0.984251968503937
          },
          {
            "number": 2,
            "time": 190.34169920000727,
            "value": 0.9763779527559056
          },
          {
            "number": 2,
            "time": 190.3433439333406,
            "value": 0.9763779527559056
          },
          {
            "number": 2,
            "time": 190.34498866667394,
            "value": 0.9763779527559056
          },
          {
            "number": 2,
            "time": 190.34663340000728,
            "value": 0.968503937007874
          },
          {
            "number": 2,
            "time": 190.3482781333406,
            "value": 0.968503937007874
          },
          {
            "number": 2,
            "time": 190.34992286667395,
            "value": 0.9606299212598425
          },
          {
            "number": 2,
            "time": 190.3515676000073,
            "value": 0.9606299212598425
          },
          {
            "number": 2,
            "time": 190.35321233334062,
            "value": 0.9606299212598425
          },
          {
            "number": 2,
            "time": 190.35485706667396,
            "value": 0.952755905511811
          },
          {
            "number": 2,
            "time": 190.3565018000073,
            "value": 0.952755905511811
          },
          {
            "number": 2,
            "time": 190.35814653334063,
            "value": 0.9448818897637795
          },
          {
            "number": 2,
            "time": 190.35979126667397,
            "value": 0.9448818897637795
          },
          {
            "number": 2,
            "time": 190.3614360000073,
            "value": 0.9448818897637795
          },
          {
            "number": 2,
            "time": 190.36308073334064,
            "value": 0.937007874015748
          },
          {
            "number": 2,
            "time": 190.36472546667397,
            "value": 0.937007874015748
          },
          {
            "number": 2,
            "time": 190.3663702000073,
            "value": 0.9291338582677166
          },
          {
            "number": 2,
            "time": 190.36801493334065,
            "value": 0.9291338582677166
          },
          {
            "number": 2,
            "time": 190.36965966667398,
            "value": 0.9291338582677166
          },
          {
            "number": 2,
            "time": 190.37130440000732,
            "value": 0.9212598425196851
          },
          {
            "number": 2,
            "time": 190.37294913334065,
            "value": 0.9212598425196851
          },
          {
            "number": 2,
            "time": 190.374593866674,
            "value": 0.9133858267716536
          },
          {
            "number": 2,
            "time": 190.37623860000733,
            "value": 0.9133858267716536
          },
          {
            "number": 2,
            "time": 190.37788333334066,
            "value": 0.9133858267716536
          },
          {
            "number": 2,
            "time": 190.379528066674,
            "value": 0.905511811023622
          },
          {
            "number": 2,
            "time": 190.38117280000733,
            "value": 0.905511811023622
          },
          {
            "number": 2,
            "time": 190.38281753334067,
            "value": 0.8976377952755905
          },
          {
            "number": 2,
            "time": 190.384462266674,
            "value": 0.8976377952755905
          },
          {
            "number": 2,
            "time": 190.38610700000734,
            "value": 0.8976377952755905
          },
          {
            "number": 2,
            "time": 190.38775173334068,
            "value": 0.889763779527559
          },
          {
            "number": 2,
            "time": 190.38939646667401,
            "value": 0.889763779527559
          },
          {
            "number": 2,
            "time": 190.39104120000735,
            "value": 0.8818897637795275
          },
          {
            "number": 2,
            "time": 190.3926859333407,
            "value": 0.8818897637795275
          },
          {
            "number": 2,
            "time": 190.39433066667402,
            "value": 0.8818897637795275
          },
          {
            "number": 2,
            "time": 190.39597540000736,
            "value": 0.8740157480314961
          },
          {
            "number": 2,
            "time": 190.3976201333407,
            "value": 0.8740157480314961
          },
          {
            "number": 2,
            "time": 190.39926486667403,
            "value": 0.8661417322834646
          },
          {
            "number": 2,
            "time": 190.40090960000737,
            "value": 0.8661417322834646
          },
          {
            "number": 2,
            "time": 190.4025543333407,
            "value": 0.8661417322834646
          },
          {
            "number": 2,
            "time": 190.40419906667404,
            "value": 0.8582677165354331
          },
          {
            "number": 2,
            "time": 190.40584380000737,
            "value": 0.8582677165354331
          },
          {
            "number": 2,
            "time": 190.4074885333407,
            "value": 0.8503937007874016
          },
          {
            "number": 2,
            "time": 190.40913326667405,
            "value": 0.8503937007874016
          },
          {
            "number": 2,
            "time": 190.41077800000738,
            "value": 0.8503937007874016
          },
          {
            "number": 2,
            "time": 190.41242273334072,
            "value": 0.84251968503937
          },
          {
            "number": 2,
            "time": 190.41406746667406,
            "value": 0.84251968503937
          },
          {
            "number": 2,
            "time": 190.4157122000074,
            "value": 0.8346456692913385
          },
          {
            "number": 2,
            "time": 190.41735693334073,
            "value": 0.8346456692913385
          },
          {
            "number": 2,
            "time": 190.41900166667406,
            "value": 0.8346456692913385
          },
          {
            "number": 2,
            "time": 190.4206464000074,
            "value": 0.8267716535433071
          },
          {
            "number": 2,
            "time": 190.42229113334074,
            "value": 0.8267716535433071
          },
          {
            "number": 2,
            "time": 190.42393586667407,
            "value": 0.8188976377952756
          },
          {
            "number": 2,
            "time": 190.4255806000074,
            "value": 0.8188976377952756
          },
          {
            "number": 2,
            "time": 190.42722533334074,
            "value": 0.8188976377952756
          },
          {
            "number": 2,
            "time": 190.42887006667408,
            "value": 0.8110236220472441
          },
          {
            "number": 2,
            "time": 190.43051480000742,
            "value": 0.8110236220472441
          },
          {
            "number": 2,
            "time": 190.43215953334075,
            "value": 0.8031496062992126
          },
          {
            "number": 2,
            "time": 190.4338042666741,
            "value": 0.8031496062992126
          },
          {
            "number": 2,
            "time": 190.43544900000742,
            "value": 0.8031496062992126
          },
          {
            "number": 2,
            "time": 190.43709373334076,
            "value": 0.7952755905511811
          },
          {
            "number": 2,
            "time": 190.4387384666741,
            "value": 0.7952755905511811
          },
          {
            "number": 2,
            "time": 190.44038320000743,
            "value": 0.7874015748031497
          },
          {
            "number": 2,
            "time": 190.44202793334077,
            "value": 0.7874015748031497
          },
          {
            "number": 2,
            "time": 190.4436726666741,
            "value": 0.7874015748031497
          },
          {
            "number": 2,
            "time": 190.44531740000744,
            "value": 0.7795275590551181
          },
          {
            "number": 2,
            "time": 190.44696213334078,
            "value": 0.7795275590551181
          },
          {
            "number": 2,
            "time": 190.4486068666741,
            "value": 0.7716535433070866
          },
          {
            "number": 2,
            "time": 190.45025160000745,
            "value": 0.7716535433070866
          },
          {
            "number": 2,
            "time": 190.45189633334078,
            "value": 0.7716535433070866
          },
          {
            "number": 2,
            "time": 190.45354106667412,
            "value": 0.7637795275590551
          },
          {
            "number": 2,
            "time": 190.45518580000746,
            "value": 0.7637795275590551
          },
          {
            "number": 2,
            "time": 190.4568305333408,
            "value": 0.7559055118110236
          },
          {
            "number": 2,
            "time": 190.45847526667413,
            "value": 0.7559055118110236
          },
          {
            "number": 2,
            "time": 191.05222400000747,
            "value": 1
          },
          {
            "number": 2,
            "time": 191.0538687333408,
            "value": 1
          },
          {
            "number": 2,
            "time": 191.05551346667414,
            "value": 1
          },
          {
            "number": 2,
            "time": 191.05715820000748,
            "value": 1
          },
          {
            "number": 2,
            "time": 191.05880293334081,
            "value": 1
          },
          {
            "number": 2,
            "time": 191.06044766667415,
            "value": 1
          },
          {
            "number": 2,
            "time": 191.0620924000075,
            "value": 1
          },
          {
            "number": 2,
            "time": 191.06373713334082,
            "value": 1
          },
          {
            "number": 2,
            "time": 191.06538186667416,
            "value": 1
          },
          {
            "number": 2,
            "time": 191.0670266000075,
            "value": 1
          },
          {
            "number": 2,
            "time": 191.06867133334083,
            "value": 1
          },
          {
            "number": 2,
            "time": 191.07031606667417,
            "value": 1
          },
          {
            "number": 2,
            "time": 191.0719608000075,
            "value": 1
          },
          {
            "number": 2,
            "time": 191.07360553334084,
            "value": 1
          },
          {
            "number": 2,
            "time": 191.07525026667417,
            "value": 1
          },
          {
            "number": 2,
            "time": 191.0768950000075,
            "value": 1
          },
          {
            "number": 2,
            "time": 191.07853973334085,
            "value": 1
          },
          {
            "number": 2,
            "time": 191.08018446667418,
            "value": 1
          },
          {
            "number": 2,
            "time": 191.08182920000752,
            "value": 1
          },
          {
            "number": 2,
            "time": 191.08347393334085,
            "value": 1
          },
          {
            "number": 2,
            "time": 191.0851186666742,
            "value": 1
          },
          {
            "number": 2,
            "time": 191.08676340000753,
            "value": 1
          },
          {
            "number": 2,
            "time": 191.08840813334086,
            "value": 1
          },
          {
            "number": 2,
            "time": 191.0900528666742,
            "value": 1
          },
          {
            "number": 2,
            "time": 191.09169760000754,
            "value": 1
          },
          {
            "number": 2,
            "time": 191.09334233334087,
            "value": 1
          },
          {
            "number": 2,
            "time": 191.0949870666742,
            "value": 1
          },
          {
            "number": 2,
            "time": 191.09663180000754,
            "value": 1
          },
          {
            "number": 2,
            "time": 191.09827653334088,
            "value": 1
          },
          {
            "number": 2,
            "time": 191.09992126667422,
            "value": 1
          },
          {
            "number": 2,
            "time": 191.10156600000755,
            "value": 1
          },
          {
            "number": 2,
            "time": 191.1032107333409,
            "value": 1
          },
          {
            "number": 2,
            "time": 191.10485546667422,
            "value": 1
          },
          {
            "number": 2,
            "time": 191.10650020000756,
            "value": 1
          },
          {
            "number": 2,
            "time": 191.1081449333409,
            "value": 1
          },
          {
            "number": 2,
            "time": 191.10978966667423,
            "value": 1
          },
          {
            "number": 2,
            "time": 191.11143440000757,
            "value": 1
          },
          {
            "number": 2,
            "time": 191.1130791333409,
            "value": 1
          },
          {
            "number": 2,
            "time": 191.11472386667424,
            "value": 1
          },
          {
            "number": 2,
            "time": 191.11636860000758,
            "value": 1
          },
          {
            "number": 2,
            "time": 191.1180133333409,
            "value": 1
          },
          {
            "number": 2,
            "time": 191.11965806667425,
            "value": 1
          },
          {
            "number": 2,
            "time": 191.12130280000758,
            "value": 1
          },
          {
            "number": 2,
            "time": 191.12294753334092,
            "value": 0.9921259842519685
          },
          {
            "number": 2,
            "time": 191.12459226667426,
            "value": 0.9921259842519685
          },
          {
            "number": 2,
            "time": 191.1262370000076,
            "value": 0.9921259842519685
          },
          {
            "number": 2,
            "time": 191.12788173334093,
            "value": 0.984251968503937
          },
          {
            "number": 2,
            "time": 191.12952646667426,
            "value": 0.984251968503937
          },
          {
            "number": 2,
            "time": 191.1311712000076,
            "value": 0.9763779527559056
          },
          {
            "number": 2,
            "time": 191.13281593334094,
            "value": 0.9763779527559056
          },
          {
            "number": 2,
            "time": 191.13446066667427,
            "value": 0.9763779527559056
          },
          {
            "number": 2,
            "time": 191.1361054000076,
            "value": 0.968503937007874
          },
          {
            "number": 2,
            "time": 191.13775013334094,
            "value": 0.968503937007874
          },
          {
            "number": 2,
            "time": 191.13939486667428,
            "value": 0.9606299212598425
          },
          {
            "number": 2,
            "time": 191.14103960000762,
            "value": 0.9606299212598425
          },
          {
            "number": 2,
            "time": 191.14268433334095,
            "value": 0.9606299212598425
          },
          {
            "number": 2,
            "time": 191.1443290666743,
            "value": 0.952755905511811
          },
          {
            "number": 2,
            "time": 191.14597380000762,
            "value": 0.952755905511811
          },
          {
            "number": 2,
            "time": 191.14761853334096,
            "value": 0.9448818897637795
          },
          {
            "number": 2,
            "time": 191.1492632666743,
            "value": 0.9448818897637795
          },
          {
            "number": 2,
            "time": 191.15090800000763,
            "value": 0.9448818897637795
          },
          {
            "number": 2,
            "time": 191.15255273334097,
            "value": 0.937007874015748
          },
          {
            "number": 2,
            "time": 191.1541974666743,
            "value": 0.937007874015748
          },
          {
            "number": 2,
            "time": 191.15584220000764,
            "value": 0.9291338582677166
          },
          {
            "number": 2,
            "time": 191.15748693334098,
            "value": 0.9291338582677166
          },
          {
            "number": 2,
            "time": 191.1591316666743,
            "value": 0.9291338582677166
          },
          {
            "number": 2,
            "time": 191.16077640000765,
            "value": 0.9212598425196851
          },
          {
            "number": 2,
            "time": 191.16242113334098,
            "value": 0.9212598425196851
          },
          {
            "number": 2,
            "time": 191.16406586667432,
            "value": 0.9133858267716536
          },
          {
            "number": 2,
            "time": 191.16571060000766,
            "value": 0.9133858267716536
          },
          {
            "number": 2,
            "time": 191.167355333341,
            "value": 0.9133858267716536
          },
          {
            "number": 2,
            "time": 191.16900006667433,
            "value": 0.905511811023622
          },
          {
            "number": 2,
            "time": 191.17064480000766,
            "value": 0.905511811023622
          },
          {
            "number": 2,
            "time": 191.172289533341,
            "value": 0.8976377952755905
          },
          {
            "number": 2,
            "time": 191.17393426667434,
            "value": 0.8976377952755905
          },
          {
            "number": 2,
            "time": 191.17557900000767,
            "value": 0.8976377952755905
          },
          {
            "number": 2,
            "time": 191.177223733341,
            "value": 0.889763779527559
          },
          {
            "number": 2,
            "time": 191.17886846667434,
            "value": 0.889763779527559
          },
          {
            "number": 2,
            "time": 191.18051320000768,
            "value": 0.8818897637795275
          },
          {
            "number": 2,
            "time": 191.18215793334102,
            "value": 0.8818897637795275
          },
          {
            "number": 2,
            "time": 191.18380266667435,
            "value": 0.8818897637795275
          },
          {
            "number": 2,
            "time": 191.1854474000077,
            "value": 0.8740157480314961
          },
          {
            "number": 2,
            "time": 191.18709213334103,
            "value": 0.8740157480314961
          },
          {
            "number": 2,
            "time": 191.18873686667436,
            "value": 0.8661417322834646
          },
          {
            "number": 2,
            "time": 191.1903816000077,
            "value": 0.8661417322834646
          },
          {
            "number": 2,
            "time": 191.19202633334103,
            "value": 0.8661417322834646
          },
          {
            "number": 2,
            "time": 191.19367106667437,
            "value": 0.8582677165354331
          },
          {
            "number": 2,
            "time": 191.1953158000077,
            "value": 0.8582677165354331
          },
          {
            "number": 2,
            "time": 191.19696053334104,
            "value": 0.8503937007874016
          },
          {
            "number": 2,
            "time": 191.19860526667438,
            "value": 0.8503937007874016
          },
          {
            "number": 2,
            "time": 191.2002500000077,
            "value": 0.8503937007874016
          },
          {
            "number": 2,
            "time": 191.20189473334105,
            "value": 0.84251968503937
          },
          {
            "number": 2,
            "time": 191.20353946667439,
            "value": 0.84251968503937
          },
          {
            "number": 2,
            "time": 191.20518420000772,
            "value": 0.8346456692913385
          },
          {
            "number": 2,
            "time": 191.20682893334106,
            "value": 0.8346456692913385
          },
          {
            "number": 2,
            "time": 191.2084736666744,
            "value": 0.8346456692913385
          },
          {
            "number": 2,
            "time": 191.21011840000773,
            "value": 0.8267716535433071
          },
          {
            "number": 2,
            "time": 191.21176313334107,
            "value": 0.8267716535433071
          },
          {
            "number": 2,
            "time": 191.2134078666744,
            "value": 0.8188976377952756
          },
          {
            "number": 2,
            "time": 191.21505260000774,
            "value": 0.8188976377952756
          },
          {
            "number": 2,
            "time": 191.21669733334107,
            "value": 0.8188976377952756
          },
          {
            "number": 2,
            "time": 191.2183420666744,
            "value": 0.8110236220472441
          },
          {
            "number": 2,
            "time": 191.21998680000775,
            "value": 0.8110236220472441
          },
          {
            "number": 2,
            "time": 191.22163153334108,
            "value": 0.8031496062992126
          },
          {
            "number": 2,
            "time": 191.22327626667442,
            "value": 0.8031496062992126
          },
          {
            "number": 2,
            "time": 191.22492100000775,
            "value": 0.8031496062992126
          },
          {
            "number": 2,
            "time": 191.2265657333411,
            "value": 0.7952755905511811
          },
          {
            "number": 2,
            "time": 191.22821046667443,
            "value": 0.7952755905511811
          },
          {
            "number": 2,
            "time": 191.22985520000776,
            "value": 0.7874015748031497
          },
          {
            "number": 2,
            "time": 191.2314999333411,
            "value": 0.7874015748031497
          },
          {
            "number": 2,
            "time": 191.23314466667443,
            "value": 0.7874015748031497
          },
          {
            "number": 2,
            "time": 191.23478940000777,
            "value": 0.7795275590551181
          },
          {
            "number": 2,
            "time": 191.2364341333411,
            "value": 0.7795275590551181
          },
          {
            "number": 2,
            "time": 191.23807886667444,
            "value": 0.7716535433070866
          },
          {
            "number": 2,
            "time": 191.23972360000778,
            "value": 0.7716535433070866
          },
          {
            "number": 2,
            "time": 191.24136833334111,
            "value": 0.7716535433070866
          },
          {
            "number": 2,
            "time": 191.24301306667445,
            "value": 0.7637795275590551
          },
          {
            "number": 2,
            "time": 191.2446578000078,
            "value": 0.7637795275590551
          },
          {
            "number": 2,
            "time": 191.24630253334112,
            "value": 0.7559055118110236
          },
          {
            "number": 2,
            "time": 191.24794726667446,
            "value": 0.7559055118110236
          },
          {
            "number": 2,
            "time": 191.31538133334112,
            "value": 0.7559055118110236
          },
          {
            "number": 2,
            "time": 191.57853866667446,
            "value": 0.7559055118110236
          },
          {
            "number": 2,
            "time": 191.8416960000078,
            "value": 0
          },
          {
            "number": 2,
            "time": 191.8416960000078,
            "value": 1
          },
          {
            "number": 2,
            "time": 191.84334073334114,
            "value": 0
          },
          {
            "number": 2,
            "time": 191.84334073334114,
            "value": 1
          },
          {
            "number": 2,
            "time": 191.84498546667447,
            "value": 0
          },
          {
            "number": 2,
            "time": 191.84498546667447,
            "value": 1
          },
          {
            "number": 2,
            "time": 191.8466302000078,
            "value": 0
          },
          {
            "number": 2,
            "time": 191.8466302000078,
            "value": 1
          },
          {
            "number": 2,
            "time": 191.84827493334114,
            "value": 0
          },
          {
            "number": 2,
            "time": 191.84827493334114,
            "value": 1
          },
          {
            "number": 2,
            "time": 191.84991966667448,
            "value": 0
          },
          {
            "number": 2,
            "time": 191.84991966667448,
            "value": 1
          },
          {
            "number": 2,
            "time": 191.85156440000782,
            "value": 0
          },
          {
            "number": 2,
            "time": 191.85156440000782,
            "value": 1
          },
          {
            "number": 2,
            "time": 191.85320913334115,
            "value": 0
          },
          {
            "number": 2,
            "time": 191.85320913334115,
            "value": 1
          },
          {
            "number": 2,
            "time": 191.8548538666745,
            "value": 0
          },
          {
            "number": 2,
            "time": 191.8548538666745,
            "value": 1
          },
          {
            "number": 2,
            "time": 191.85649860000782,
            "value": 0
          },
          {
            "number": 2,
            "time": 191.85649860000782,
            "value": 1
          },
          {
            "number": 2,
            "time": 191.85814333334116,
            "value": 0
          },
          {
            "number": 2,
            "time": 191.85814333334116,
            "value": 1
          },
          {
            "number": 2,
            "time": 191.8597880666745,
            "value": 0
          },
          {
            "number": 2,
            "time": 191.8597880666745,
            "value": 1
          },
          {
            "number": 2,
            "time": 191.86143280000783,
            "value": 0
          },
          {
            "number": 2,
            "time": 191.86143280000783,
            "value": 1
          },
          {
            "number": 2,
            "time": 191.86307753334117,
            "value": 0
          },
          {
            "number": 2,
            "time": 191.86307753334117,
            "value": 1
          },
          {
            "number": 2,
            "time": 191.8647222666745,
            "value": 0
          },
          {
            "number": 2,
            "time": 191.8647222666745,
            "value": 1
          },
          {
            "number": 2,
            "time": 191.86636700000784,
            "value": 0
          },
          {
            "number": 2,
            "time": 191.86636700000784,
            "value": 1
          },
          {
            "number": 2,
            "time": 191.86801173334118,
            "value": 0
          },
          {
            "number": 2,
            "time": 191.86801173334118,
            "value": 1
          },
          {
            "number": 2,
            "time": 191.8696564666745,
            "value": 0
          },
          {
            "number": 2,
            "time": 191.8696564666745,
            "value": 1
          },
          {
            "number": 2,
            "time": 191.87130120000785,
            "value": 0
          },
          {
            "number": 2,
            "time": 191.87130120000785,
            "value": 1
          },
          {
            "number": 2,
            "time": 191.87294593334119,
            "value": 0
          },
          {
            "number": 2,
            "time": 191.87294593334119,
            "value": 1
          },
          {
            "number": 2,
            "time": 191.87459066667452,
            "value": 0
          },
          {
            "number": 2,
            "time": 191.87459066667452,
            "value": 1
          },
          {
            "number": 2,
            "time": 191.87623540000786,
            "value": 0
          },
          {
            "number": 2,
            "time": 191.87623540000786,
            "value": 1
          },
          {
            "number": 2,
            "time": 191.8778801333412,
            "value": 0
          },
          {
            "number": 2,
            "time": 191.8778801333412,
            "value": 1
          },
          {
            "number": 2,
            "time": 191.87952486667453,
            "value": 0
          },
          {
            "number": 2,
            "time": 191.87952486667453,
            "value": 1
          },
          {
            "number": 2,
            "time": 191.88116960000787,
            "value": 0
          },
          {
            "number": 2,
            "time": 191.88116960000787,
            "value": 1
          },
          {
            "number": 2,
            "time": 191.8828143333412,
            "value": 0
          },
          {
            "number": 2,
            "time": 191.8828143333412,
            "value": 1
          },
          {
            "number": 2,
            "time": 191.88445906667454,
            "value": 0
          },
          {
            "number": 2,
            "time": 191.88445906667454,
            "value": 1
          },
          {
            "number": 2,
            "time": 191.88610380000787,
            "value": 0
          },
          {
            "number": 2,
            "time": 191.88610380000787,
            "value": 1
          },
          {
            "number": 2,
            "time": 191.8877485333412,
            "value": 0
          },
          {
            "number": 2,
            "time": 191.8877485333412,
            "value": 1
          },
          {
            "number": 2,
            "time": 191.88939326667455,
            "value": 0
          },
          {
            "number": 2,
            "time": 191.88939326667455,
            "value": 1
          },
          {
            "number": 2,
            "time": 191.89103800000788,
            "value": 0
          },
          {
            "number": 2,
            "time": 191.89103800000788,
            "value": 1
          },
          {
            "number": 2,
            "time": 191.89268273334122,
            "value": 0
          },
          {
            "number": 2,
            "time": 191.89268273334122,
            "value": 1
          },
          {
            "number": 2,
            "time": 191.89432746667455,
            "value": 0
          },
          {
            "number": 2,
            "time": 191.89432746667455,
            "value": 1
          },
          {
            "number": 2,
            "time": 191.8959722000079,
            "value": 0
          },
          {
            "number": 2,
            "time": 191.8959722000079,
            "value": 1
          },
          {
            "number": 2,
            "time": 191.89761693334123,
            "value": 0
          },
          {
            "number": 2,
            "time": 191.89761693334123,
            "value": 1
          },
          {
            "number": 2,
            "time": 191.89926166667456,
            "value": 0
          },
          {
            "number": 2,
            "time": 191.89926166667456,
            "value": 1
          },
          {
            "number": 2,
            "time": 191.9009064000079,
            "value": 0
          },
          {
            "number": 2,
            "time": 191.9009064000079,
            "value": 1
          },
          {
            "number": 2,
            "time": 191.90255113334123,
            "value": 0
          },
          {
            "number": 2,
            "time": 191.90255113334123,
            "value": 1
          },
          {
            "number": 2,
            "time": 191.90419586667457,
            "value": 0
          },
          {
            "number": 2,
            "time": 191.90419586667457,
            "value": 1
          },
          {
            "number": 2,
            "time": 191.9058406000079,
            "value": 0
          },
          {
            "number": 2,
            "time": 191.9058406000079,
            "value": 1
          },
          {
            "number": 2,
            "time": 191.90748533334124,
            "value": 0
          },
          {
            "number": 2,
            "time": 191.90748533334124,
            "value": 1
          },
          {
            "number": 2,
            "time": 191.90913006667458,
            "value": 0
          },
          {
            "number": 2,
            "time": 191.90913006667458,
            "value": 1
          },
          {
            "number": 2,
            "time": 191.9107748000079,
            "value": 0
          },
          {
            "number": 2,
            "time": 191.9107748000079,
            "value": 1
          },
          {
            "number": 2,
            "time": 191.91241953334125,
            "value": 0
          },
          {
            "number": 2,
            "time": 191.91241953334125,
            "value": 0.9921259842519685
          },
          {
            "number": 2,
            "time": 191.9140642666746,
            "value": 0
          },
          {
            "number": 2,
            "time": 191.9140642666746,
            "value": 0.9921259842519685
          },
          {
            "number": 2,
            "time": 191.91570900000792,
            "value": 0
          },
          {
            "number": 2,
            "time": 191.91570900000792,
            "value": 0.9921259842519685
          },
          {
            "number": 2,
            "time": 191.91735373334126,
            "value": 0
          },
          {
            "number": 2,
            "time": 191.91735373334126,
            "value": 0.984251968503937
          },
          {
            "number": 2,
            "time": 191.9189984666746,
            "value": 0
          },
          {
            "number": 2,
            "time": 191.9189984666746,
            "value": 0.984251968503937
          },
          {
            "number": 2,
            "time": 191.92064320000793,
            "value": 0
          },
          {
            "number": 2,
            "time": 191.92064320000793,
            "value": 0.9763779527559056
          },
          {
            "number": 2,
            "time": 191.92228793334127,
            "value": 0
          },
          {
            "number": 2,
            "time": 191.92228793334127,
            "value": 0.9763779527559056
          },
          {
            "number": 2,
            "time": 191.9239326666746,
            "value": 0
          },
          {
            "number": 2,
            "time": 191.9239326666746,
            "value": 0.9763779527559056
          },
          {
            "number": 2,
            "time": 191.92557740000794,
            "value": 0
          },
          {
            "number": 2,
            "time": 191.92557740000794,
            "value": 0.968503937007874
          },
          {
            "number": 2,
            "time": 191.92722213334127,
            "value": 0
          },
          {
            "number": 2,
            "time": 191.92722213334127,
            "value": 0.968503937007874
          },
          {
            "number": 2,
            "time": 191.9288668666746,
            "value": 0
          },
          {
            "number": 2,
            "time": 191.9288668666746,
            "value": 0.9606299212598425
          },
          {
            "number": 2,
            "time": 191.93051160000795,
            "value": 0
          },
          {
            "number": 2,
            "time": 191.93051160000795,
            "value": 0.9606299212598425
          },
          {
            "number": 2,
            "time": 191.93215633334128,
            "value": 0
          },
          {
            "number": 2,
            "time": 191.93215633334128,
            "value": 0.9606299212598425
          },
          {
            "number": 2,
            "time": 191.93380106667462,
            "value": 0
          },
          {
            "number": 2,
            "time": 191.93380106667462,
            "value": 0.952755905511811
          },
          {
            "number": 2,
            "time": 191.93544580000795,
            "value": 0
          },
          {
            "number": 2,
            "time": 191.93544580000795,
            "value": 0.952755905511811
          },
          {
            "number": 2,
            "time": 191.9370905333413,
            "value": 0
          },
          {
            "number": 2,
            "time": 191.9370905333413,
            "value": 0.9448818897637795
          },
          {
            "number": 2,
            "time": 191.93873526667463,
            "value": 0
          },
          {
            "number": 2,
            "time": 191.93873526667463,
            "value": 0.9448818897637795
          },
          {
            "number": 2,
            "time": 191.94038000000796,
            "value": 0
          },
          {
            "number": 2,
            "time": 191.94038000000796,
            "value": 0.9448818897637795
          },
          {
            "number": 2,
            "time": 191.9420247333413,
            "value": 0
          },
          {
            "number": 2,
            "time": 191.9420247333413,
            "value": 0.937007874015748
          },
          {
            "number": 2,
            "time": 191.94366946667463,
            "value": 0
          },
          {
            "number": 2,
            "time": 191.94366946667463,
            "value": 0.937007874015748
          },
          {
            "number": 2,
            "time": 191.94531420000797,
            "value": 0
          },
          {
            "number": 2,
            "time": 191.94531420000797,
            "value": 0.9291338582677166
          },
          {
            "number": 2,
            "time": 191.9469589333413,
            "value": 0
          },
          {
            "number": 2,
            "time": 191.9469589333413,
            "value": 0.9291338582677166
          },
          {
            "number": 2,
            "time": 191.94860366667464,
            "value": 0
          },
          {
            "number": 2,
            "time": 191.94860366667464,
            "value": 0.9291338582677166
          },
          {
            "number": 2,
            "time": 191.95024840000798,
            "value": 0
          },
          {
            "number": 2,
            "time": 191.95024840000798,
            "value": 0.9212598425196851
          },
          {
            "number": 2,
            "time": 191.95189313334131,
            "value": 0
          },
          {
            "number": 2,
            "time": 191.95189313334131,
            "value": 0.9212598425196851
          },
          {
            "number": 2,
            "time": 191.95353786667465,
            "value": 0
          },
          {
            "number": 2,
            "time": 191.95353786667465,
            "value": 0.9133858267716536
          },
          {
            "number": 2,
            "time": 191.955182600008,
            "value": 0
          },
          {
            "number": 2,
            "time": 191.955182600008,
            "value": 0.9133858267716536
          },
          {
            "number": 2,
            "time": 191.95682733334132,
            "value": 0
          },
          {
            "number": 2,
            "time": 191.95682733334132,
            "value": 0.9133858267716536
          },
          {
            "number": 2,
            "time": 191.95847206667466,
            "value": 0
          },
          {
            "number": 2,
            "time": 191.95847206667466,
            "value": 0.905511811023622
          },
          {
            "number": 2,
            "time": 191.960116800008,
            "value": 0
          },
          {
            "number": 2,
            "time": 191.960116800008,
            "value": 0.905511811023622
          },
          {
            "number": 2,
            "time": 191.96176153334133,
            "value": 0
          },
          {
            "number": 2,
            "time": 191.96176153334133,
            "value": 0.8976377952755905
          },
          {
            "number": 2,
            "time": 191.96340626667467,
            "value": 0
          },
          {
            "number": 2,
            "time": 191.96340626667467,
            "value": 0.8976377952755905
          },
          {
            "number": 2,
            "time": 191.965051000008,
            "value": 0
          },
          {
            "number": 2,
            "time": 191.965051000008,
            "value": 0.8976377952755905
          },
          {
            "number": 2,
            "time": 191.96669573334134,
            "value": 0
          },
          {
            "number": 2,
            "time": 191.96669573334134,
            "value": 0.889763779527559
          },
          {
            "number": 2,
            "time": 191.96834046667468,
            "value": 0
          },
          {
            "number": 2,
            "time": 191.96834046667468,
            "value": 0.889763779527559
          },
          {
            "number": 2,
            "time": 191.969985200008,
            "value": 0
          },
          {
            "number": 2,
            "time": 191.969985200008,
            "value": 0.8818897637795275
          },
          {
            "number": 2,
            "time": 191.97162993334135,
            "value": 0
          },
          {
            "number": 2,
            "time": 191.97162993334135,
            "value": 0.8818897637795275
          },
          {
            "number": 2,
            "time": 191.97327466667468,
            "value": 0
          },
          {
            "number": 2,
            "time": 191.97327466667468,
            "value": 0.8818897637795275
          },
          {
            "number": 2,
            "time": 191.97491940000802,
            "value": 0.8740157480314961
          },
          {
            "number": 2,
            "time": 191.97656413334136,
            "value": 0.8740157480314961
          },
          {
            "number": 2,
            "time": 191.9782088666747,
            "value": 0.8661417322834646
          },
          {
            "number": 2,
            "time": 191.97985360000803,
            "value": 0.8661417322834646
          },
          {
            "number": 2,
            "time": 191.98149833334136,
            "value": 0.8661417322834646
          },
          {
            "number": 2,
            "time": 191.9831430666747,
            "value": 0.8582677165354331
          },
          {
            "number": 2,
            "time": 191.98478780000804,
            "value": 0.8582677165354331
          },
          {
            "number": 2,
            "time": 191.98643253334137,
            "value": 0.8503937007874016
          },
          {
            "number": 2,
            "time": 191.9880772666747,
            "value": 0.8503937007874016
          },
          {
            "number": 2,
            "time": 191.98972200000804,
            "value": 0.8503937007874016
          },
          {
            "number": 2,
            "time": 191.99136673334138,
            "value": 0.84251968503937
          },
          {
            "number": 2,
            "time": 191.99301146667472,
            "value": 0.84251968503937
          },
          {
            "number": 2,
            "time": 191.99465620000805,
            "value": 0.8346456692913385
          },
          {
            "number": 2,
            "time": 191.9963009333414,
            "value": 0.8346456692913385
          },
          {
            "number": 2,
            "time": 191.99794566667472,
            "value": 0.8346456692913385
          },
          {
            "number": 2,
            "time": 191.99959040000806,
            "value": 0.8267716535433071
          },
          {
            "number": 2,
            "time": 192.0012351333414,
            "value": 0.8267716535433071
          },
          {
            "number": 2,
            "time": 192.00287986667473,
            "value": 0.8188976377952756
          },
          {
            "number": 2,
            "time": 192.00452460000807,
            "value": 0.8188976377952756
          },
          {
            "number": 2,
            "time": 192.0061693333414,
            "value": 0.8188976377952756
          },
          {
            "number": 2,
            "time": 192.00781406667474,
            "value": 0.8110236220472441
          },
          {
            "number": 2,
            "time": 192.00945880000808,
            "value": 0.8110236220472441
          },
          {
            "number": 2,
            "time": 192.0111035333414,
            "value": 0.8031496062992126
          },
          {
            "number": 2,
            "time": 192.01274826667475,
            "value": 0.8031496062992126
          },
          {
            "number": 2,
            "time": 192.01439300000808,
            "value": 0.8031496062992126
          },
          {
            "number": 2,
            "time": 192.01603773334142,
            "value": 0.7952755905511811
          },
          {
            "number": 2,
            "time": 192.01768246667476,
            "value": 0.7952755905511811
          },
          {
            "number": 2,
            "time": 192.0193272000081,
            "value": 0.7874015748031497
          },
          {
            "number": 2,
            "time": 192.02097193334143,
            "value": 0.7874015748031497
          },
          {
            "number": 2,
            "time": 192.02261666667476,
            "value": 0.7874015748031497
          },
          {
            "number": 2,
            "time": 192.0242614000081,
            "value": 0.7795275590551181
          },
          {
            "number": 2,
            "time": 192.02590613334144,
            "value": 0.7795275590551181
          },
          {
            "number": 2,
            "time": 192.02755086667477,
            "value": 0.7716535433070866
          },
          {
            "number": 2,
            "time": 192.0291956000081,
            "value": 0.7716535433070866
          },
          {
            "number": 2,
            "time": 192.03084033334144,
            "value": 0.7716535433070866
          },
          {
            "number": 2,
            "time": 192.03248506667478,
            "value": 0.7637795275590551
          },
          {
            "number": 2,
            "time": 192.03412980000812,
            "value": 0.7637795275590551
          },
          {
            "number": 2,
            "time": 192.03577453334145,
            "value": 0.7559055118110236
          },
          {
            "number": 2,
            "time": 192.0374192666748,
            "value": 0.7559055118110236
          },
          {
            "number": 2,
            "time": 192.10485333334145,
            "value": 0.7559055118110236
          },
          {
            "number": 2,
            "time": 192.3680106666748,
            "value": 0.7559055118110236
          },
          {
            "number": 2,
            "time": 194.60484800000813,
            "value": 0.6299212598425197
          },
          {
            "number": 2,
            "time": 194.99958400000813,
            "value": 0.6299212598425197
          },
          {
            "number": 2,
            "time": 195.39432000000812,
            "value": 0.6299212598425197
          },
          {
            "number": 2,
            "time": 196.97326400000813,
            "value": 0.6299212598425197
          },
          {
            "number": 2,
            "time": 197.36800000000812,
            "value": 0.6299212598425197
          },
          {
            "number": 2,
            "time": 198.1574720000081,
            "value": 0.6299212598425197
          },
          {
            "number": 2,
            "time": 200.9206240000081,
            "value": 0.6299212598425197
          },
          {
            "number": 2,
            "time": 201.7100960000081,
            "value": 0.6299212598425197
          },
          {
            "number": 2,
            "time": 202.1048320000081,
            "value": 0.6299212598425197
          },
          {
            "number": 2,
            "time": 203.2890400000081,
            "value": 0.6299212598425197
          },
          {
            "number": 2,
            "time": 203.6837760000081,
            "value": 0.6299212598425197
          },
          {
            "number": 2,
            "time": 204.47324800000808,
            "value": 0.6299212598425197
          },
          {
            "number": 2,
            "time": 207.23640000000808,
            "value": 0.6299212598425197
          },
          {
            "number": 2,
            "time": 208.02587200000806,
            "value": 0.6299212598425197
          },
          {
            "number": 2,
            "time": 208.42060800000806,
            "value": 0.6299212598425197
          },
          {
            "number": 2,
            "time": 209.21008000000805,
            "value": 0.6299212598425197
          },
          {
            "number": 2,
            "time": 209.99955200000804,
            "value": 0.6299212598425197
          },
          {
            "number": 2,
            "time": 211.18376000000805,
            "value": 0.6299212598425197
          },
          {
            "number": 2,
            "time": 211.57849600000804,
            "value": 0.6299212598425197
          },
          {
            "number": 2,
            "time": 212.36796800000803,
            "value": 0.6299212598425197
          },
          {
            "number": 2,
            "time": 212.63112533334137,
            "value": 0.6299212598425197
          },
          {
            "number": 2,
            "time": 213.15744000000805,
            "value": 0.6299212598425197
          },
          {
            "number": 2,
            "time": 213.25612400000804,
            "value": 0.6220472440944882
          },
          {
            "number": 2,
            "time": 213.35480800000803,
            "value": 0.6141732283464567
          },
          {
            "number": 2,
            "time": 213.45349200000803,
            "value": 0.6062992125984252
          },
          {
            "number": 2,
            "time": 213.55217600000802,
            "value": 0.5984251968503937
          },
          {
            "number": 2,
            "time": 213.650860000008,
            "value": 0.5905511811023622
          },
          {
            "number": 2,
            "time": 213.749544000008,
            "value": 0.5826771653543307
          },
          {
            "number": 2,
            "time": 213.848228000008,
            "value": 0.5748031496062992
          },
          {
            "number": 2,
            "time": 213.94691200000798,
            "value": 0.5669291338582677
          },
          {
            "number": 2,
            "time": 214.04559600000798,
            "value": 0.5590551181102362
          },
          {
            "number": 2,
            "time": 214.14428000000797,
            "value": 0.5511811023622047
          },
          {
            "number": 2,
            "time": 214.24296400000796,
            "value": 0.5433070866141733
          },
          {
            "number": 2,
            "time": 214.34164800000795,
            "value": 0.5354330708661418
          },
          {
            "number": 2,
            "time": 214.44033200000794,
            "value": 0.5275590551181102
          },
          {
            "number": 2,
            "time": 214.53901600000793,
            "value": 0.5196850393700787
          },
          {
            "number": 2,
            "time": 214.63770000000792,
            "value": 0.5118110236220472
          },
          {
            "number": 2,
            "time": 214.73638400000792,
            "value": 0.5039370078740157
          },
          {
            "number": 2,
            "time": 216.31532800000792,
            "value": 0.5039370078740157
          },
          {
            "number": 2,
            "time": 216.38934100000793,
            "value": 0.5118110236220472
          },
          {
            "number": 2,
            "time": 216.46335400000794,
            "value": 0.5196850393700787
          },
          {
            "number": 2,
            "time": 216.53736700000795,
            "value": 0.5275590551181102
          },
          {
            "number": 2,
            "time": 216.61138000000796,
            "value": 0.5354330708661418
          },
          {
            "number": 2,
            "time": 216.68539300000796,
            "value": 0.5433070866141733
          },
          {
            "number": 2,
            "time": 216.75940600000797,
            "value": 0.5511811023622047
          },
          {
            "number": 2,
            "time": 216.83341900000798,
            "value": 0.5590551181102362
          },
          {
            "number": 2,
            "time": 216.907432000008,
            "value": 0.5669291338582677
          },
          {
            "number": 2,
            "time": 216.981445000008,
            "value": 0.5748031496062992
          },
          {
            "number": 2,
            "time": 217.055458000008,
            "value": 0.5826771653543307
          },
          {
            "number": 2,
            "time": 217.104800000008,
            "value": 0.5826771653543307
          },
          {
            "number": 2,
            "time": 217.129471000008,
            "value": 0.5905511811023622
          },
          {
            "number": 2,
            "time": 217.20348400000802,
            "value": 0.5984251968503937
          },
          {
            "number": 2,
            "time": 217.27749700000803,
            "value": 0.6062992125984252
          },
          {
            "number": 2,
            "time": 217.35151000000803,
            "value": 0.6141732283464567
          },
          {
            "number": 2,
            "time": 217.42552300000804,
            "value": 0.6220472440944882
          },
          {
            "number": 2,
            "time": 217.49953600000805,
            "value": 0.6299212598425197
          },
          {
            "number": 2,
            "time": 217.57354900000806,
            "value": 0.6377952755905512
          },
          {
            "number": 2,
            "time": 217.64756200000807,
            "value": 0.6456692913385826
          },
          {
            "number": 2,
            "time": 217.72157500000807,
            "value": 0.6535433070866141
          },
          {
            "number": 2,
            "time": 217.79558800000808,
            "value": 0.6614173228346457
          },
          {
            "number": 2,
            "time": 217.8696010000081,
            "value": 0.6692913385826772
          },
          {
            "number": 2,
            "time": 217.8942720000081,
            "value": 0.6692913385826772
          },
          {
            "number": 2,
            "time": 217.9436140000081,
            "value": 0.6771653543307087
          },
          {
            "number": 2,
            "time": 218.0176270000081,
            "value": 0.6850393700787402
          },
          {
            "number": 2,
            "time": 218.0916400000081,
            "value": 0.6929133858267716
          },
          {
            "number": 2,
            "time": 218.16565300000812,
            "value": 0.7007874015748031
          },
          {
            "number": 2,
            "time": 218.23966600000813,
            "value": 0.7086614173228346
          },
          {
            "number": 2,
            "time": 218.31367900000814,
            "value": 0.7165354330708661
          },
          {
            "number": 2,
            "time": 218.38769200000814,
            "value": 0.7244094488188977
          },
          {
            "number": 2,
            "time": 218.46170500000815,
            "value": 0.7322834645669292
          },
          {
            "number": 2,
            "time": 218.53571800000816,
            "value": 0.7401574803149606
          },
          {
            "number": 2,
            "time": 218.60973100000817,
            "value": 0.7480314960629921
          },
          {
            "number": 2,
            "time": 218.68374400000818,
            "value": 0.7559055118110236
          },
          {
            "number": 2,
            "time": 219.47321600000816,
            "value": 0.7559055118110236
          },
          {
            "number": 2,
            "time": 220.65742400000818,
            "value": 0.7559055118110236
          },
          {
            "number": 2,
            "time": 221.05216000000817,
            "value": 0.7559055118110236
          },
          {
            "number": 2,
            "time": 222.23636800000818,
            "value": 0.7559055118110236
          },
          {
            "number": 2,
            "time": 222.63110400000818,
            "value": 0.7559055118110236
          },
          {
            "number": 2,
            "time": 223.42057600000817,
            "value": 0.7559055118110236
          },
          {
            "number": 2,
            "time": 223.81531200000816,
            "value": 0.7559055118110236
          },
          {
            "number": 2,
            "time": 224.21004800000816,
            "value": 0.7559055118110236
          },
          {
            "number": 2,
            "time": 226.18372800000816,
            "value": 0.7559055118110236
          },
          {
            "number": 2,
            "time": 226.57846400000815,
            "value": 0.7559055118110236
          },
          {
            "number": 2,
            "time": 226.97320000000815,
            "value": 0.7559055118110236
          },
          {
            "number": 2,
            "time": 227.36793600000814,
            "value": 0.7559055118110236
          },
          {
            "number": 2,
            "time": 228.15740800000813,
            "value": 0.7559055118110236
          },
          {
            "number": 2,
            "time": 228.94688000000812,
            "value": 0.7559055118110236
          },
          {
            "number": 2,
            "time": 229.7363520000081,
            "value": 0.7559055118110236
          },
          {
            "number": 2,
            "time": 230.5258240000081,
            "value": 0.7559055118110236
          },
          {
            "number": 2,
            "time": 232.1047680000081,
            "value": 1
          },
          {
            "number": 2,
            "time": 232.10641273334144,
            "value": 1
          },
          {
            "number": 2,
            "time": 232.10805746667478,
            "value": 1
          },
          {
            "number": 2,
            "time": 232.10970220000812,
            "value": 1
          },
          {
            "number": 2,
            "time": 232.11134693334145,
            "value": 1
          },
          {
            "number": 2,
            "time": 232.1129916666748,
            "value": 1
          },
          {
            "number": 2,
            "time": 232.11463640000812,
            "value": 1
          },
          {
            "number": 2,
            "time": 232.11628113334146,
            "value": 1
          },
          {
            "number": 2,
            "time": 232.1179258666748,
            "value": 1
          },
          {
            "number": 2,
            "time": 232.11957060000813,
            "value": 1
          },
          {
            "number": 2,
            "time": 232.12121533334147,
            "value": 1
          },
          {
            "number": 2,
            "time": 232.1228600666748,
            "value": 1
          },
          {
            "number": 2,
            "time": 232.12450480000814,
            "value": 1
          },
          {
            "number": 2,
            "time": 232.12614953334148,
            "value": 1
          },
          {
            "number": 2,
            "time": 232.1277942666748,
            "value": 1
          },
          {
            "number": 2,
            "time": 232.12943900000815,
            "value": 1
          },
          {
            "number": 2,
            "time": 232.13108373334148,
            "value": 1
          },
          {
            "number": 2,
            "time": 232.13272846667482,
            "value": 1
          },
          {
            "number": 2,
            "time": 232.13437320000816,
            "value": 1
          },
          {
            "number": 2,
            "time": 232.1360179333415,
            "value": 1
          },
          {
            "number": 2,
            "time": 232.13766266667483,
            "value": 1
          },
          {
            "number": 2,
            "time": 232.13930740000816,
            "value": 1
          },
          {
            "number": 2,
            "time": 232.1409521333415,
            "value": 1
          },
          {
            "number": 2,
            "time": 232.14259686667484,
            "value": 1
          },
          {
            "number": 2,
            "time": 232.14424160000817,
            "value": 1
          },
          {
            "number": 2,
            "time": 232.1458863333415,
            "value": 1
          },
          {
            "number": 2,
            "time": 232.14753106667484,
            "value": 1
          },
          {
            "number": 2,
            "time": 232.14917580000818,
            "value": 1
          },
          {
            "number": 2,
            "time": 232.15082053334152,
            "value": 1
          },
          {
            "number": 2,
            "time": 232.15246526667485,
            "value": 1
          },
          {
            "number": 2,
            "time": 232.1541100000082,
            "value": 1
          },
          {
            "number": 2,
            "time": 232.15575473334152,
            "value": 1
          },
          {
            "number": 2,
            "time": 232.15739946667486,
            "value": 1
          },
          {
            "number": 2,
            "time": 232.1590442000082,
            "value": 1
          },
          {
            "number": 2,
            "time": 232.16068893334153,
            "value": 1
          },
          {
            "number": 2,
            "time": 232.16233366667487,
            "value": 1
          },
          {
            "number": 2,
            "time": 232.1639784000082,
            "value": 1
          },
          {
            "number": 2,
            "time": 232.16562313334154,
            "value": 1
          },
          {
            "number": 2,
            "time": 232.16726786667488,
            "value": 1
          },
          {
            "number": 2,
            "time": 232.1689126000082,
            "value": 1
          },
          {
            "number": 2,
            "time": 232.17055733334155,
            "value": 1
          },
          {
            "number": 2,
            "time": 232.17220206667488,
            "value": 1
          },
          {
            "number": 2,
            "time": 232.17384680000822,
            "value": 1
          },
          {
            "number": 2,
            "time": 232.17549153334156,
            "value": 0.9921259842519685
          },
          {
            "number": 2,
            "time": 232.1771362666749,
            "value": 0.9921259842519685
          },
          {
            "number": 2,
            "time": 232.17878100000823,
            "value": 0.9921259842519685
          },
          {
            "number": 2,
            "time": 232.18042573334156,
            "value": 0.984251968503937
          },
          {
            "number": 2,
            "time": 232.1820704666749,
            "value": 0.984251968503937
          },
          {
            "number": 2,
            "time": 232.18371520000824,
            "value": 0.9763779527559056
          },
          {
            "number": 2,
            "time": 232.18535993334157,
            "value": 0.9763779527559056
          },
          {
            "number": 2,
            "time": 232.1870046666749,
            "value": 0.9763779527559056
          },
          {
            "number": 2,
            "time": 232.18864940000825,
            "value": 0.968503937007874
          },
          {
            "number": 2,
            "time": 232.19029413334158,
            "value": 0.968503937007874
          },
          {
            "number": 2,
            "time": 232.19193886667492,
            "value": 0.9606299212598425
          },
          {
            "number": 2,
            "time": 232.19358360000825,
            "value": 0.9606299212598425
          },
          {
            "number": 2,
            "time": 232.1952283333416,
            "value": 0.9606299212598425
          },
          {
            "number": 2,
            "time": 232.19687306667493,
            "value": 0.952755905511811
          },
          {
            "number": 2,
            "time": 232.19851780000826,
            "value": 0.952755905511811
          },
          {
            "number": 2,
            "time": 232.2001625333416,
            "value": 0.9448818897637795
          },
          {
            "number": 2,
            "time": 232.20180726667493,
            "value": 0.9448818897637795
          },
          {
            "number": 2,
            "time": 232.20345200000827,
            "value": 0.9448818897637795
          },
          {
            "number": 2,
            "time": 232.2050967333416,
            "value": 0.937007874015748
          },
          {
            "number": 2,
            "time": 232.20674146667494,
            "value": 0.937007874015748
          },
          {
            "number": 2,
            "time": 232.20838620000828,
            "value": 0.9291338582677166
          },
          {
            "number": 2,
            "time": 232.2100309333416,
            "value": 0.9291338582677166
          },
          {
            "number": 2,
            "time": 232.21167566667495,
            "value": 0.9291338582677166
          },
          {
            "number": 2,
            "time": 232.21332040000829,
            "value": 0.9212598425196851
          },
          {
            "number": 2,
            "time": 232.21496513334162,
            "value": 0.9212598425196851
          },
          {
            "number": 2,
            "time": 232.21660986667496,
            "value": 0.9133858267716536
          },
          {
            "number": 2,
            "time": 232.2182546000083,
            "value": 0.9133858267716536
          },
          {
            "number": 2,
            "time": 232.21989933334163,
            "value": 0.9133858267716536
          },
          {
            "number": 2,
            "time": 232.22154406667497,
            "value": 0.905511811023622
          },
          {
            "number": 2,
            "time": 232.2231888000083,
            "value": 0.905511811023622
          },
          {
            "number": 2,
            "time": 232.22483353334164,
            "value": 0.8976377952755905
          },
          {
            "number": 2,
            "time": 232.22647826667497,
            "value": 0.8976377952755905
          },
          {
            "number": 2,
            "time": 232.2281230000083,
            "value": 0.8976377952755905
          },
          {
            "number": 2,
            "time": 232.22976773334165,
            "value": 0.889763779527559
          },
          {
            "number": 2,
            "time": 232.23141246667498,
            "value": 0.889763779527559
          },
          {
            "number": 2,
            "time": 232.23305720000832,
            "value": 0.8818897637795275
          },
          {
            "number": 2,
            "time": 232.23470193334165,
            "value": 0.8818897637795275
          },
          {
            "number": 2,
            "time": 232.236346666675,
            "value": 0.8818897637795275
          },
          {
            "number": 2,
            "time": 232.23799140000833,
            "value": 0.8740157480314961
          },
          {
            "number": 2,
            "time": 232.23963613334166,
            "value": 0.8740157480314961
          },
          {
            "number": 2,
            "time": 232.241280866675,
            "value": 0.8661417322834646
          },
          {
            "number": 2,
            "time": 232.24292560000833,
            "value": 0.8661417322834646
          },
          {
            "number": 2,
            "time": 232.24457033334167,
            "value": 0.8661417322834646
          },
          {
            "number": 2,
            "time": 232.246215066675,
            "value": 0.8582677165354331
          },
          {
            "number": 2,
            "time": 232.24785980000834,
            "value": 0.8582677165354331
          },
          {
            "number": 2,
            "time": 232.24950453334168,
            "value": 0.8503937007874016
          },
          {
            "number": 2,
            "time": 232.25114926667501,
            "value": 0.8503937007874016
          },
          {
            "number": 2,
            "time": 232.25279400000835,
            "value": 0.8503937007874016
          },
          {
            "number": 2,
            "time": 232.2544387333417,
            "value": 0.84251968503937
          },
          {
            "number": 2,
            "time": 232.25608346667502,
            "value": 0.84251968503937
          },
          {
            "number": 2,
            "time": 232.25772820000836,
            "value": 0.8346456692913385
          },
          {
            "number": 2,
            "time": 232.2593729333417,
            "value": 0.8346456692913385
          },
          {
            "number": 2,
            "time": 232.26101766667503,
            "value": 0.8346456692913385
          },
          {
            "number": 2,
            "time": 232.26266240000837,
            "value": 0.8267716535433071
          },
          {
            "number": 2,
            "time": 232.2643071333417,
            "value": 0.8267716535433071
          },
          {
            "number": 2,
            "time": 232.26595186667504,
            "value": 0.8188976377952756
          },
          {
            "number": 2,
            "time": 232.26759660000837,
            "value": 0.8188976377952756
          },
          {
            "number": 2,
            "time": 232.2692413333417,
            "value": 0.8188976377952756
          },
          {
            "number": 2,
            "time": 232.27088606667505,
            "value": 0.8110236220472441
          },
          {
            "number": 2,
            "time": 232.27253080000838,
            "value": 0.8110236220472441
          },
          {
            "number": 2,
            "time": 232.27417553334172,
            "value": 0.8031496062992126
          },
          {
            "number": 2,
            "time": 232.27582026667505,
            "value": 0.8031496062992126
          },
          {
            "number": 2,
            "time": 232.2774650000084,
            "value": 0.8031496062992126
          },
          {
            "number": 2,
            "time": 232.27910973334173,
            "value": 0.7952755905511811
          },
          {
            "number": 2,
            "time": 232.28075446667506,
            "value": 0.7952755905511811
          },
          {
            "number": 2,
            "time": 232.2823992000084,
            "value": 0.7874015748031497
          },
          {
            "number": 2,
            "time": 232.28404393334174,
            "value": 0.7874015748031497
          },
          {
            "number": 2,
            "time": 232.28568866667507,
            "value": 0.7874015748031497
          },
          {
            "number": 2,
            "time": 232.2873334000084,
            "value": 0.7795275590551181
          },
          {
            "number": 2,
            "time": 232.28897813334174,
            "value": 0.7795275590551181
          },
          {
            "number": 2,
            "time": 232.29062286667508,
            "value": 0.7716535433070866
          },
          {
            "number": 2,
            "time": 232.29226760000842,
            "value": 0.7716535433070866
          },
          {
            "number": 2,
            "time": 232.29391233334175,
            "value": 0.7716535433070866
          },
          {
            "number": 2,
            "time": 232.2955570666751,
            "value": 0.7637795275590551
          },
          {
            "number": 2,
            "time": 232.29720180000842,
            "value": 0.7637795275590551
          },
          {
            "number": 2,
            "time": 232.29884653334176,
            "value": 0.7559055118110236
          },
          {
            "number": 2,
            "time": 232.3004912666751,
            "value": 0.7559055118110236
          },
          {
            "number": 2,
            "time": 232.49950400000844,
            "value": 0.7559055118110236
          },
          {
            "number": 2,
            "time": 233.28897600000846,
            "value": 0.7559055118110236
          },
          {
            "number": 2,
            "time": 233.68371200000846,
            "value": 1
          },
          {
            "number": 2,
            "time": 233.6853567333418,
            "value": 1
          },
          {
            "number": 2,
            "time": 233.68700146667513,
            "value": 1
          },
          {
            "number": 2,
            "time": 233.68864620000846,
            "value": 1
          },
          {
            "number": 2,
            "time": 233.6902909333418,
            "value": 1
          },
          {
            "number": 2,
            "time": 233.69193566667514,
            "value": 1
          },
          {
            "number": 2,
            "time": 233.69358040000847,
            "value": 1
          },
          {
            "number": 2,
            "time": 233.6952251333418,
            "value": 1
          },
          {
            "number": 2,
            "time": 233.69686986667514,
            "value": 1
          },
          {
            "number": 2,
            "time": 233.69851460000848,
            "value": 1
          },
          {
            "number": 2,
            "time": 233.70015933334182,
            "value": 1
          },
          {
            "number": 2,
            "time": 233.70180406667515,
            "value": 1
          },
          {
            "number": 2,
            "time": 233.7034488000085,
            "value": 1
          },
          {
            "number": 2,
            "time": 233.70509353334182,
            "value": 1
          },
          {
            "number": 2,
            "time": 233.70673826667516,
            "value": 1
          },
          {
            "number": 2,
            "time": 233.7083830000085,
            "value": 1
          },
          {
            "number": 2,
            "time": 233.71002773334183,
            "value": 1
          },
          {
            "number": 2,
            "time": 233.71167246667517,
            "value": 1
          },
          {
            "number": 2,
            "time": 233.7133172000085,
            "value": 1
          },
          {
            "number": 2,
            "time": 233.71496193334184,
            "value": 1
          },
          {
            "number": 2,
            "time": 233.71660666667518,
            "value": 1
          },
          {
            "number": 2,
            "time": 233.7182514000085,
            "value": 1
          },
          {
            "number": 2,
            "time": 233.71989613334185,
            "value": 1
          },
          {
            "number": 2,
            "time": 233.72154086667518,
            "value": 1
          },
          {
            "number": 2,
            "time": 233.72318560000852,
            "value": 1
          },
          {
            "number": 2,
            "time": 233.72483033334186,
            "value": 1
          },
          {
            "number": 2,
            "time": 233.7264750666752,
            "value": 1
          },
          {
            "number": 2,
            "time": 233.72811980000853,
            "value": 1
          },
          {
            "number": 2,
            "time": 233.72976453334186,
            "value": 1
          },
          {
            "number": 2,
            "time": 233.7314092666752,
            "value": 1
          },
          {
            "number": 2,
            "time": 233.73305400000854,
            "value": 1
          },
          {
            "number": 2,
            "time": 233.73469873334187,
            "value": 1
          },
          {
            "number": 2,
            "time": 233.7363434666752,
            "value": 1
          },
          {
            "number": 2,
            "time": 233.73798820000854,
            "value": 1
          },
          {
            "number": 2,
            "time": 233.73963293334188,
            "value": 1
          },
          {
            "number": 2,
            "time": 233.74127766667522,
            "value": 1
          },
          {
            "number": 2,
            "time": 233.74292240000855,
            "value": 1
          },
          {
            "number": 2,
            "time": 233.7445671333419,
            "value": 1
          },
          {
            "number": 2,
            "time": 233.74621186667522,
            "value": 1
          },
          {
            "number": 2,
            "time": 233.74785660000856,
            "value": 1
          },
          {
            "number": 2,
            "time": 233.7495013333419,
            "value": 1
          },
          {
            "number": 2,
            "time": 233.75114606667523,
            "value": 1
          },
          {
            "number": 2,
            "time": 233.75279080000857,
            "value": 1
          },
          {
            "number": 2,
            "time": 233.7544355333419,
            "value": 0.9921259842519685
          },
          {
            "number": 2,
            "time": 233.75608026667524,
            "value": 0.9921259842519685
          },
          {
            "number": 2,
            "time": 233.75772500000858,
            "value": 0.9921259842519685
          },
          {
            "number": 2,
            "time": 233.7593697333419,
            "value": 0.984251968503937
          },
          {
            "number": 2,
            "time": 233.76101446667525,
            "value": 0.984251968503937
          },
          {
            "number": 2,
            "time": 233.76265920000859,
            "value": 0.9763779527559056
          },
          {
            "number": 2,
            "time": 233.76430393334192,
            "value": 0.9763779527559056
          },
          {
            "number": 2,
            "time": 233.76594866667526,
            "value": 0.9763779527559056
          },
          {
            "number": 2,
            "time": 233.7675934000086,
            "value": 0.968503937007874
          },
          {
            "number": 2,
            "time": 233.76923813334193,
            "value": 0.968503937007874
          },
          {
            "number": 2,
            "time": 233.77088286667527,
            "value": 0.9606299212598425
          },
          {
            "number": 2,
            "time": 233.7725276000086,
            "value": 0.9606299212598425
          },
          {
            "number": 2,
            "time": 233.77417233334194,
            "value": 0.9606299212598425
          },
          {
            "number": 2,
            "time": 233.77581706667527,
            "value": 0.952755905511811
          },
          {
            "number": 2,
            "time": 233.7774618000086,
            "value": 0.952755905511811
          },
          {
            "number": 2,
            "time": 233.77910653334195,
            "value": 0.9448818897637795
          },
          {
            "number": 2,
            "time": 233.78075126667528,
            "value": 0.9448818897637795
          },
          {
            "number": 2,
            "time": 233.78239600000862,
            "value": 0.9448818897637795
          },
          {
            "number": 2,
            "time": 233.78404073334195,
            "value": 0.937007874015748
          },
          {
            "number": 2,
            "time": 233.7856854666753,
            "value": 0.937007874015748
          },
          {
            "number": 2,
            "time": 233.78733020000863,
            "value": 0.9291338582677166
          },
          {
            "number": 2,
            "time": 233.78897493334196,
            "value": 0.9291338582677166
          },
          {
            "number": 2,
            "time": 233.7906196666753,
            "value": 0.9291338582677166
          },
          {
            "number": 2,
            "time": 233.79226440000863,
            "value": 0.9212598425196851
          },
          {
            "number": 2,
            "time": 233.79390913334197,
            "value": 0.9212598425196851
          },
          {
            "number": 2,
            "time": 233.7955538666753,
            "value": 0.9133858267716536
          },
          {
            "number": 2,
            "time": 233.79719860000864,
            "value": 0.9133858267716536
          },
          {
            "number": 2,
            "time": 233.79884333334198,
            "value": 0.9133858267716536
          },
          {
            "number": 2,
            "time": 233.8004880666753,
            "value": 0.905511811023622
          },
          {
            "number": 2,
            "time": 233.80213280000865,
            "value": 0.905511811023622
          },
          {
            "number": 2,
            "time": 233.803777533342,
            "value": 0.8976377952755905
          },
          {
            "number": 2,
            "time": 233.80542226667532,
            "value": 0.8976377952755905
          },
          {
            "number": 2,
            "time": 233.80706700000866,
            "value": 0.8976377952755905
          },
          {
            "number": 2,
            "time": 233.808711733342,
            "value": 0.889763779527559
          },
          {
            "number": 2,
            "time": 233.81035646667533,
            "value": 0.889763779527559
          },
          {
            "number": 2,
            "time": 233.81200120000867,
            "value": 0.8818897637795275
          },
          {
            "number": 2,
            "time": 233.813645933342,
            "value": 0.8818897637795275
          },
          {
            "number": 2,
            "time": 233.81529066667534,
            "value": 0.8818897637795275
          },
          {
            "number": 2,
            "time": 233.81693540000867,
            "value": 0.8740157480314961
          },
          {
            "number": 2,
            "time": 233.818580133342,
            "value": 0.8740157480314961
          },
          {
            "number": 2,
            "time": 233.82022486667535,
            "value": 0.8661417322834646
          },
          {
            "number": 2,
            "time": 233.82186960000868,
            "value": 0.8661417322834646
          },
          {
            "number": 2,
            "time": 233.82351433334202,
            "value": 0.8661417322834646
          },
          {
            "number": 2,
            "time": 233.82515906667535,
            "value": 0.8582677165354331
          },
          {
            "number": 2,
            "time": 233.8268038000087,
            "value": 0.8582677165354331
          },
          {
            "number": 2,
            "time": 233.82844853334203,
            "value": 0.8503937007874016
          },
          {
            "number": 2,
            "time": 233.83009326667536,
            "value": 0.8503937007874016
          },
          {
            "number": 2,
            "time": 233.8317380000087,
            "value": 0.8503937007874016
          },
          {
            "number": 2,
            "time": 233.83338273334203,
            "value": 0.84251968503937
          },
          {
            "number": 2,
            "time": 233.83502746667537,
            "value": 0.84251968503937
          },
          {
            "number": 2,
            "time": 233.8366722000087,
            "value": 0.8346456692913385
          },
          {
            "number": 2,
            "time": 233.83831693334204,
            "value": 0.8346456692913385
          },
          {
            "number": 2,
            "time": 233.83996166667538,
            "value": 0.8346456692913385
          },
          {
            "number": 2,
            "time": 233.84160640000871,
            "value": 0.8267716535433071
          },
          {
            "number": 2,
            "time": 233.84325113334205,
            "value": 0.8267716535433071
          },
          {
            "number": 2,
            "time": 233.8448958666754,
            "value": 0.8188976377952756
          },
          {
            "number": 2,
            "time": 233.84654060000872,
            "value": 0.8188976377952756
          },
          {
            "number": 2,
            "time": 233.84818533334206,
            "value": 0.8188976377952756
          },
          {
            "number": 2,
            "time": 233.8498300666754,
            "value": 0.8110236220472441
          },
          {
            "number": 2,
            "time": 233.85147480000873,
            "value": 0.8110236220472441
          },
          {
            "number": 2,
            "time": 233.85311953334207,
            "value": 0.8031496062992126
          },
          {
            "number": 2,
            "time": 233.8547642666754,
            "value": 0.8031496062992126
          },
          {
            "number": 2,
            "time": 233.85640900000874,
            "value": 0.8031496062992126
          },
          {
            "number": 2,
            "time": 233.85805373334208,
            "value": 0.7952755905511811
          },
          {
            "number": 2,
            "time": 233.8596984666754,
            "value": 0.7952755905511811
          },
          {
            "number": 2,
            "time": 233.86134320000875,
            "value": 0.7874015748031497
          },
          {
            "number": 2,
            "time": 233.86298793334208,
            "value": 0.7874015748031497
          },
          {
            "number": 2,
            "time": 233.86463266667542,
            "value": 0.7874015748031497
          },
          {
            "number": 2,
            "time": 233.86627740000876,
            "value": 0.7795275590551181
          },
          {
            "number": 2,
            "time": 233.8679221333421,
            "value": 0.7795275590551181
          },
          {
            "number": 2,
            "time": 233.86956686667543,
            "value": 0.7716535433070866
          },
          {
            "number": 2,
            "time": 233.87121160000876,
            "value": 0.7716535433070866
          },
          {
            "number": 2,
            "time": 233.8728563333421,
            "value": 0.7716535433070866
          },
          {
            "number": 2,
            "time": 233.87450106667544,
            "value": 0.7637795275590551
          },
          {
            "number": 2,
            "time": 233.87614580000877,
            "value": 0.7637795275590551
          },
          {
            "number": 2,
            "time": 233.8777905333421,
            "value": 0.7559055118110236
          },
          {
            "number": 2,
            "time": 233.87943526667544,
            "value": 0.7559055118110236
          },
          {
            "number": 2,
            "time": 234.0784480000088,
            "value": 0.7559055118110236
          },
          {
            "number": 2,
            "time": 234.8679200000088,
            "value": 0.7559055118110236
          },
          {
            "number": 2,
            "time": 236.8416000000088,
            "value": 1
          },
          {
            "number": 2,
            "time": 236.84324473334215,
            "value": 1
          },
          {
            "number": 2,
            "time": 236.84488946667548,
            "value": 1
          },
          {
            "number": 2,
            "time": 236.84653420000882,
            "value": 1
          },
          {
            "number": 2,
            "time": 236.84817893334215,
            "value": 1
          },
          {
            "number": 2,
            "time": 236.8498236666755,
            "value": 1
          },
          {
            "number": 2,
            "time": 236.85146840000883,
            "value": 1
          },
          {
            "number": 2,
            "time": 236.85311313334216,
            "value": 1
          },
          {
            "number": 2,
            "time": 236.8547578666755,
            "value": 1
          },
          {
            "number": 2,
            "time": 236.85640260000883,
            "value": 1
          },
          {
            "number": 2,
            "time": 236.85804733334217,
            "value": 1
          },
          {
            "number": 2,
            "time": 236.8596920666755,
            "value": 1
          },
          {
            "number": 2,
            "time": 236.86133680000884,
            "value": 1
          },
          {
            "number": 2,
            "time": 236.86298153334218,
            "value": 1
          },
          {
            "number": 2,
            "time": 236.86462626667551,
            "value": 1
          },
          {
            "number": 2,
            "time": 236.86627100000885,
            "value": 1
          },
          {
            "number": 2,
            "time": 236.8679157333422,
            "value": 1
          },
          {
            "number": 2,
            "time": 236.86956046667552,
            "value": 1
          },
          {
            "number": 2,
            "time": 236.87120520000886,
            "value": 1
          },
          {
            "number": 2,
            "time": 236.8728499333422,
            "value": 1
          },
          {
            "number": 2,
            "time": 236.87449466667553,
            "value": 1
          },
          {
            "number": 2,
            "time": 236.87613940000887,
            "value": 1
          },
          {
            "number": 2,
            "time": 236.8777841333422,
            "value": 1
          },
          {
            "number": 2,
            "time": 236.87942886667554,
            "value": 1
          },
          {
            "number": 2,
            "time": 236.88107360000888,
            "value": 1
          },
          {
            "number": 2,
            "time": 236.8827183333422,
            "value": 1
          },
          {
            "number": 2,
            "time": 236.88436306667555,
            "value": 1
          },
          {
            "number": 2,
            "time": 236.88600780000888,
            "value": 1
          },
          {
            "number": 2,
            "time": 236.88765253334222,
            "value": 1
          },
          {
            "number": 2,
            "time": 236.88929726667556,
            "value": 1
          },
          {
            "number": 2,
            "time": 236.8909420000089,
            "value": 1
          },
          {
            "number": 2,
            "time": 236.89258673334223,
            "value": 1
          },
          {
            "number": 2,
            "time": 236.89423146667556,
            "value": 1
          },
          {
            "number": 2,
            "time": 236.8958762000089,
            "value": 1
          },
          {
            "number": 2,
            "time": 236.89752093334224,
            "value": 1
          },
          {
            "number": 2,
            "time": 236.89916566667557,
            "value": 1
          },
          {
            "number": 2,
            "time": 236.9008104000089,
            "value": 1
          },
          {
            "number": 2,
            "time": 236.90245513334224,
            "value": 1
          },
          {
            "number": 2,
            "time": 236.90409986667558,
            "value": 1
          },
          {
            "number": 2,
            "time": 236.90574460000892,
            "value": 1
          },
          {
            "number": 2,
            "time": 236.90738933334225,
            "value": 1
          },
          {
            "number": 2,
            "time": 236.9090340666756,
            "value": 1
          },
          {
            "number": 2,
            "time": 236.91067880000892,
            "value": 1
          },
          {
            "number": 2,
            "time": 236.91232353334226,
            "value": 0.9921259842519685
          },
          {
            "number": 2,
            "time": 236.9139682666756,
            "value": 0.9921259842519685
          },
          {
            "number": 2,
            "time": 236.91561300000893,
            "value": 0.9921259842519685
          },
          {
            "number": 2,
            "time": 236.91725773334227,
            "value": 0.984251968503937
          },
          {
            "number": 2,
            "time": 236.9189024666756,
            "value": 0.984251968503937
          },
          {
            "number": 2,
            "time": 236.92054720000894,
            "value": 0.9763779527559056
          },
          {
            "number": 2,
            "time": 236.92219193334228,
            "value": 0.9763779527559056
          },
          {
            "number": 2,
            "time": 236.9238366666756,
            "value": 0.9763779527559056
          },
          {
            "number": 2,
            "time": 236.92548140000895,
            "value": 0.968503937007874
          },
          {
            "number": 2,
            "time": 236.92712613334228,
            "value": 0.968503937007874
          },
          {
            "number": 2,
            "time": 236.92877086667562,
            "value": 0.9606299212598425
          },
          {
            "number": 2,
            "time": 236.93041560000896,
            "value": 0.9606299212598425
          },
          {
            "number": 2,
            "time": 236.9320603333423,
            "value": 0.9606299212598425
          },
          {
            "number": 2,
            "time": 236.93370506667563,
            "value": 0.952755905511811
          },
          {
            "number": 2,
            "time": 236.93534980000896,
            "value": 0.952755905511811
          },
          {
            "number": 2,
            "time": 236.9369945333423,
            "value": 0.9448818897637795
          },
          {
            "number": 2,
            "time": 236.93863926667564,
            "value": 0.9448818897637795
          },
          {
            "number": 2,
            "time": 236.94028400000897,
            "value": 0.9448818897637795
          },
          {
            "number": 2,
            "time": 236.9419287333423,
            "value": 0.937007874015748
          },
          {
            "number": 2,
            "time": 236.94357346667564,
            "value": 0.937007874015748
          },
          {
            "number": 2,
            "time": 236.94521820000898,
            "value": 0.9291338582677166
          },
          {
            "number": 2,
            "time": 236.94686293334232,
            "value": 0.9291338582677166
          },
          {
            "number": 2,
            "time": 236.94850766667565,
            "value": 0.9291338582677166
          },
          {
            "number": 2,
            "time": 236.950152400009,
            "value": 0.9212598425196851
          },
          {
            "number": 2,
            "time": 236.95179713334232,
            "value": 0.9212598425196851
          },
          {
            "number": 2,
            "time": 236.95344186667566,
            "value": 0.9133858267716536
          },
          {
            "number": 2,
            "time": 236.955086600009,
            "value": 0.9133858267716536
          },
          {
            "number": 2,
            "time": 236.95673133334233,
            "value": 0.9133858267716536
          },
          {
            "number": 2,
            "time": 236.95837606667567,
            "value": 0.905511811023622
          },
          {
            "number": 2,
            "time": 236.960020800009,
            "value": 0.905511811023622
          },
          {
            "number": 2,
            "time": 236.96166553334234,
            "value": 0.8976377952755905
          },
          {
            "number": 2,
            "time": 236.96331026667568,
            "value": 0.8976377952755905
          },
          {
            "number": 2,
            "time": 236.964955000009,
            "value": 0.8976377952755905
          },
          {
            "number": 2,
            "time": 236.96659973334235,
            "value": 0.889763779527559
          },
          {
            "number": 2,
            "time": 236.96824446667569,
            "value": 0.889763779527559
          },
          {
            "number": 2,
            "time": 236.96988920000902,
            "value": 0.8818897637795275
          },
          {
            "number": 2,
            "time": 236.97153393334236,
            "value": 0.8818897637795275
          },
          {
            "number": 2,
            "time": 236.9731786666757,
            "value": 0.8818897637795275
          },
          {
            "number": 2,
            "time": 236.97482340000903,
            "value": 0.8740157480314961
          },
          {
            "number": 2,
            "time": 236.97646813334237,
            "value": 0.8740157480314961
          },
          {
            "number": 2,
            "time": 236.9781128666757,
            "value": 0.8661417322834646
          },
          {
            "number": 2,
            "time": 236.97975760000904,
            "value": 0.8661417322834646
          },
          {
            "number": 2,
            "time": 236.98140233334237,
            "value": 0.8661417322834646
          },
          {
            "number": 2,
            "time": 236.9830470666757,
            "value": 0.8582677165354331
          },
          {
            "number": 2,
            "time": 236.98469180000905,
            "value": 0.8582677165354331
          },
          {
            "number": 2,
            "time": 236.98633653334238,
            "value": 0.8503937007874016
          },
          {
            "number": 2,
            "time": 236.98798126667572,
            "value": 0.8503937007874016
          },
          {
            "number": 2,
            "time": 236.98962600000905,
            "value": 0.8503937007874016
          },
          {
            "number": 2,
            "time": 236.9912707333424,
            "value": 0.84251968503937
          },
          {
            "number": 2,
            "time": 236.99291546667573,
            "value": 0.84251968503937
          },
          {
            "number": 2,
            "time": 236.99456020000906,
            "value": 0.8346456692913385
          },
          {
            "number": 2,
            "time": 236.9962049333424,
            "value": 0.8346456692913385
          },
          {
            "number": 2,
            "time": 236.99784966667573,
            "value": 0.8346456692913385
          },
          {
            "number": 2,
            "time": 236.99949440000907,
            "value": 0.8267716535433071
          },
          {
            "number": 2,
            "time": 237.0011391333424,
            "value": 0.8267716535433071
          },
          {
            "number": 2,
            "time": 237.00278386667574,
            "value": 0.8188976377952756
          },
          {
            "number": 2,
            "time": 237.00442860000908,
            "value": 0.8188976377952756
          },
          {
            "number": 2,
            "time": 237.0060733333424,
            "value": 0.8188976377952756
          },
          {
            "number": 2,
            "time": 237.00771806667575,
            "value": 0.8110236220472441
          },
          {
            "number": 2,
            "time": 237.0093628000091,
            "value": 0.8110236220472441
          },
          {
            "number": 2,
            "time": 237.01100753334242,
            "value": 0.8031496062992126
          },
          {
            "number": 2,
            "time": 237.01265226667576,
            "value": 0.8031496062992126
          },
          {
            "number": 2,
            "time": 237.0142970000091,
            "value": 0.8031496062992126
          },
          {
            "number": 2,
            "time": 237.01594173334243,
            "value": 0.7952755905511811
          },
          {
            "number": 2,
            "time": 237.01758646667577,
            "value": 0.7952755905511811
          },
          {
            "number": 2,
            "time": 237.0192312000091,
            "value": 0.7874015748031497
          },
          {
            "number": 2,
            "time": 237.02087593334244,
            "value": 0.7874015748031497
          },
          {
            "number": 2,
            "time": 237.02252066667577,
            "value": 0.7874015748031497
          },
          {
            "number": 2,
            "time": 237.0241654000091,
            "value": 0.7795275590551181
          },
          {
            "number": 2,
            "time": 237.02581013334245,
            "value": 0.7795275590551181
          },
          {
            "number": 2,
            "time": 237.02745486667578,
            "value": 0.7716535433070866
          },
          {
            "number": 2,
            "time": 237.02909960000912,
            "value": 0.7716535433070866
          },
          {
            "number": 2,
            "time": 237.03074433334245,
            "value": 0.7716535433070866
          },
          {
            "number": 2,
            "time": 237.0323890666758,
            "value": 0.7637795275590551
          },
          {
            "number": 2,
            "time": 237.03403380000913,
            "value": 0.7637795275590551
          },
          {
            "number": 2,
            "time": 237.03567853334246,
            "value": 0.7559055118110236
          },
          {
            "number": 2,
            "time": 237.0373232666758,
            "value": 0.7559055118110236
          }
        ],
        "7": [
          {
            "number": 7,
            "time": 0,
            "value": 0.7874015748031497
          },
          {
            "number": 7,
            "time": 0,
            "value": 0.7874015748031497
          },
          {
            "number": 7,
            "time": 0,
            "value": 0.7874015748031497
          }
        ],
        "10": [
          {
            "number": 10,
            "time": 0,
            "value": 0.49606299212598426
          },
          {
            "number": 10,
            "time": 0,
            "value": 0.5039370078740157
          },
          {
            "number": 10,
            "time": 0,
            "value": 0.5039370078740157
          }
        ],
        "91": [
          {
            "number": 91,
            "time": 0,
            "value": 0
          },
          {
            "number": 91,
            "time": 0,
            "value": 0
          },
          {
            "number": 91,
            "time": 0,
            "value": 0
          }
        ],
        "93": [
          {
            "number": 93,
            "time": 0,
            "value": 0
          },
          {
            "number": 93,
            "time": 0,
            "value": 0
          },
          {
            "number": 93,
            "time": 0,
            "value": 0
          }
        ],
        "121": [
          {
            "number": 121,
            "time": 0,
            "value": 0
          },
          {
            "number": 121,
            "time": 0,
            "value": 0
          },
          {
            "number": 121,
            "time": 0,
            "value": 0
          }
        ]
      },
      "id": 2,
      "name": "Viola",
      "instrumentNumber": 44,
      "instrument": "tremolo strings",
      "instrumentFamily": "strings",
      "channelNumber": 6,
      "isPercussion": false
    },
    {
      "startTime": 3.157888,
      "duration": 237.62942726667984,
      "length": 403,
      "notes": [
        {
          "name": "F4",
          "midi": 65,
          "time": 3.157888,
          "velocity": 0.3858267716535433,
          "duration": 0.7878272666666666
        },
        {
          "name": "A#3",
          "midi": 58,
          "time": 3.9473599999999998,
          "velocity": 0.3858267716535433,
          "duration": 2.3667712666666665
        },
        {
          "name": "F4",
          "midi": 65,
          "time": 3.9473599999999998,
          "velocity": 0.3858267716535433,
          "duration": 2.3667712666666665
        },
        {
          "name": "F3",
          "midi": 53,
          "time": 6.315776,
          "velocity": 0.5039370078740157,
          "duration": 0.7878272666666666
        },
        {
          "name": "E3",
          "midi": 52,
          "time": 7.105248,
          "velocity": 0.5039370078740157,
          "duration": 2.3667712666666674
        },
        {
          "name": "B3",
          "midi": 59,
          "time": 7.105248,
          "velocity": 0.5039370078740157,
          "duration": 2.3667712666666674
        },
        {
          "name": "A3",
          "midi": 57,
          "time": 9.473664,
          "velocity": 0.5039370078740157,
          "duration": 1.5772992666666674
        },
        {
          "name": "G#3",
          "midi": 56,
          "time": 11.052608,
          "velocity": 0.5039370078740157,
          "duration": 1.5772992666666674
        },
        {
          "name": "G3",
          "midi": 55,
          "time": 12.631552,
          "velocity": 0.5039370078740157,
          "duration": 0.7878272666666675
        },
        {
          "name": "E4",
          "midi": 64,
          "time": 13.421024,
          "velocity": 0.5039370078740157,
          "duration": 0.3930912666666675
        },
        {
          "name": "F#4",
          "midi": 66,
          "time": 13.81576,
          "velocity": 0.5039370078740157,
          "duration": 1.9720352666666674
        },
        {
          "name": "F4",
          "midi": 65,
          "time": 15.789439999999999,
          "velocity": 0.5039370078740157,
          "duration": 1.5772992666666674
        },
        {
          "name": "A#3",
          "midi": 58,
          "time": 17.368384,
          "velocity": 0.5039370078740157,
          "duration": 1.5772992666666674
        },
        {
          "name": "E4",
          "midi": 64,
          "time": 18.947328,
          "velocity": 0.5039370078740157,
          "duration": 3.1562432666666673
        },
        {
          "name": "F3",
          "midi": 53,
          "time": 22.105216,
          "velocity": 0.5039370078740157,
          "duration": 3.1562432666666673
        },
        {
          "name": "E3",
          "midi": 52,
          "time": 25.263104,
          "velocity": 0.5039370078740157,
          "duration": 1.1825632666666657
        },
        {
          "name": "A3",
          "midi": 57,
          "time": 26.447311999999997,
          "velocity": 0.5039370078740157,
          "duration": 1.9720352666666692
        },
        {
          "name": "F4",
          "midi": 65,
          "time": 28.420992,
          "velocity": 0.5039370078740157,
          "duration": 1.577299266666646
        },
        {
          "name": "E4",
          "midi": 64,
          "time": 29.999935999999977,
          "velocity": 0.6299212598425197,
          "duration": 1.5772992666666674
        },
        {
          "name": "D4",
          "midi": 62,
          "time": 31.578879999999977,
          "velocity": 0.6299212598425197,
          "duration": 1.5772992666666639
        },
        {
          "name": "D4",
          "midi": 62,
          "time": 33.15782399999998,
          "velocity": 0.6299212598425197,
          "duration": 0.3930912666666657
        },
        {
          "name": "A3",
          "midi": 57,
          "time": 33.55255999999998,
          "velocity": 0.6299212598425197,
          "duration": 0.3930912666666657
        },
        {
          "name": "F#3",
          "midi": 54,
          "time": 33.94729599999998,
          "velocity": 0.6299212598425197,
          "duration": 0.3930912666666657
        },
        {
          "name": "D3",
          "midi": 50,
          "time": 34.34203199999998,
          "velocity": 0.6299212598425197,
          "duration": 0.3930912666666657
        },
        {
          "name": "A#2",
          "midi": 46,
          "time": 34.736767999999984,
          "velocity": 0.6299212598425197,
          "duration": 1.5772992666666497
        },
        {
          "name": "A#3",
          "midi": 58,
          "time": 36.31571199999997,
          "velocity": 0.5669291338582677,
          "duration": 1.5772992666666497
        },
        {
          "name": "A2",
          "midi": 45,
          "time": 37.894655999999955,
          "velocity": 0.5039370078740157,
          "duration": 3.1562432666666638
        },
        {
          "name": "E3",
          "midi": 52,
          "time": 37.894655999999955,
          "velocity": 0.5039370078740157,
          "duration": 3.1562432666666638
        },
        {
          "name": "A#3",
          "midi": 58,
          "time": 41.052543999999955,
          "velocity": 0.5039370078740157,
          "duration": 3.1562432666666638
        },
        {
          "name": "A3",
          "midi": 57,
          "time": 44.210431999999955,
          "velocity": 0.5039370078740157,
          "duration": 2.3667712666666674
        },
        {
          "name": "G3",
          "midi": 55,
          "time": 46.57884799999996,
          "velocity": 0.5039370078740157,
          "duration": 0.7878272666666675
        },
        {
          "name": "E4",
          "midi": 64,
          "time": 47.36831999999996,
          "velocity": 0.6299212598425197,
          "duration": 0.3930912666666657
        },
        {
          "name": "A4",
          "midi": 69,
          "time": 47.76305599999996,
          "velocity": 0.6299212598425197,
          "duration": 0.3930912666666657
        },
        {
          "name": "G4",
          "midi": 67,
          "time": 48.157791999999965,
          "velocity": 0.6299212598425197,
          "duration": 0.3930912666666657
        },
        {
          "name": "A4",
          "midi": 69,
          "time": 48.55252799999997,
          "velocity": 0.6299212598425197,
          "duration": 0.3930912666666657
        },
        {
          "name": "B4",
          "midi": 71,
          "time": 48.94726399999997,
          "velocity": 0.6299212598425197,
          "duration": 1.1825632666666692
        },
        {
          "name": "G4",
          "midi": 67,
          "time": 50.131471999999974,
          "velocity": 0.6299212598425197,
          "duration": 0.3930912666666657
        },
        {
          "name": "E4",
          "midi": 64,
          "time": 50.526207999999976,
          "velocity": 0.6299212598425197,
          "duration": 0.0953945333333337
        },
        {
          "name": "E4",
          "midi": 64,
          "time": 50.623247266666645,
          "velocity": 0.6299212598425197,
          "duration": 0.0953945333333337
        },
        {
          "name": "E4",
          "midi": 64,
          "time": 50.721931266666644,
          "velocity": 0.6299212598425197,
          "duration": 0.0953945333333337
        },
        {
          "name": "E4",
          "midi": 64,
          "time": 50.818970533333314,
          "velocity": 0.6299212598425197,
          "duration": 0.0953945333333337
        },
        {
          "name": "E4",
          "midi": 64,
          "time": 50.91765453333331,
          "velocity": 0.6299212598425197,
          "duration": 0.0953945333333337
        },
        {
          "name": "E4",
          "midi": 64,
          "time": 51.01469379999998,
          "velocity": 0.6299212598425197,
          "duration": 0.0953945333333337
        },
        {
          "name": "E4",
          "midi": 64,
          "time": 51.11337779999998,
          "velocity": 0.6299212598425197,
          "duration": 0.0953945333333337
        },
        {
          "name": "E4",
          "midi": 64,
          "time": 51.21041706666665,
          "velocity": 0.6299212598425197,
          "duration": 0.0953945333333337
        },
        {
          "name": "E4",
          "midi": 64,
          "time": 51.30910106666665,
          "velocity": 0.6299212598425197,
          "duration": 0.0953945333333337
        },
        {
          "name": "E4",
          "midi": 64,
          "time": 51.40614033333332,
          "velocity": 0.6299212598425197,
          "duration": 0.0953945333333337
        },
        {
          "name": "E4",
          "midi": 64,
          "time": 51.50482433333332,
          "velocity": 0.6299212598425197,
          "duration": 0.0953945333333337
        },
        {
          "name": "E4",
          "midi": 64,
          "time": 51.60186359999999,
          "velocity": 0.6299212598425197,
          "duration": 0.0953945333333337
        },
        {
          "name": "E4",
          "midi": 64,
          "time": 51.700547599999986,
          "velocity": 0.6299212598425197,
          "duration": 0.0953945333333337
        },
        {
          "name": "E4",
          "midi": 64,
          "time": 51.797586866666656,
          "velocity": 0.6299212598425197,
          "duration": 0.0953945333333337
        },
        {
          "name": "E4",
          "midi": 64,
          "time": 51.896270866666654,
          "velocity": 0.6299212598425197,
          "duration": 0.0953945333333337
        },
        {
          "name": "E4",
          "midi": 64,
          "time": 51.993310133333324,
          "velocity": 0.6299212598425197,
          "duration": 0.0953945333333337
        },
        {
          "name": "D#4",
          "midi": 63,
          "time": 52.10515199999999,
          "velocity": 0.6299212598425197,
          "duration": 0.0953945333333337
        },
        {
          "name": "D#4",
          "midi": 63,
          "time": 52.20219126666666,
          "velocity": 0.6299212598425197,
          "duration": 0.0953945333333337
        },
        {
          "name": "D#4",
          "midi": 63,
          "time": 52.30087526666666,
          "velocity": 0.6299212598425197,
          "duration": 0.0953945333333337
        },
        {
          "name": "D#4",
          "midi": 63,
          "time": 52.39791453333333,
          "velocity": 0.6299212598425197,
          "duration": 0.0953945333333337
        },
        {
          "name": "D#4",
          "midi": 63,
          "time": 52.49659853333333,
          "velocity": 0.6299212598425197,
          "duration": 0.0953945333333337
        },
        {
          "name": "D#4",
          "midi": 63,
          "time": 52.593637799999996,
          "velocity": 0.6299212598425197,
          "duration": 0.0953945333333337
        },
        {
          "name": "D#4",
          "midi": 63,
          "time": 52.692321799999995,
          "velocity": 0.6299212598425197,
          "duration": 0.0953945333333337
        },
        {
          "name": "D#4",
          "midi": 63,
          "time": 52.789361066666665,
          "velocity": 0.6299212598425197,
          "duration": 0.0953945333333337
        },
        {
          "name": "D#4",
          "midi": 63,
          "time": 52.88804506666666,
          "velocity": 0.6299212598425197,
          "duration": 0.0953945333333337
        },
        {
          "name": "D#4",
          "midi": 63,
          "time": 52.98508433333333,
          "velocity": 0.6299212598425197,
          "duration": 0.0953945333333337
        },
        {
          "name": "D#4",
          "midi": 63,
          "time": 53.08376833333333,
          "velocity": 0.6299212598425197,
          "duration": 0.0953945333333337
        },
        {
          "name": "D#4",
          "midi": 63,
          "time": 53.1808076,
          "velocity": 0.6299212598425197,
          "duration": 0.0953945333333337
        },
        {
          "name": "D#4",
          "midi": 63,
          "time": 53.2794916,
          "velocity": 0.6299212598425197,
          "duration": 0.0953945333333337
        },
        {
          "name": "D#4",
          "midi": 63,
          "time": 53.37653086666667,
          "velocity": 0.6299212598425197,
          "duration": 0.0953945333333337
        },
        {
          "name": "D#4",
          "midi": 63,
          "time": 53.47521486666667,
          "velocity": 0.6299212598425197,
          "duration": 0.0953945333333337
        },
        {
          "name": "D#4",
          "midi": 63,
          "time": 53.57225413333334,
          "velocity": 0.6299212598425197,
          "duration": 0.0953945333333337
        },
        {
          "name": "D4",
          "midi": 62,
          "time": 53.684096000000004,
          "velocity": 0.5039370078740157,
          "duration": 0.0953945333333337
        },
        {
          "name": "D4",
          "midi": 62,
          "time": 53.78113526666667,
          "velocity": 0.5039370078740157,
          "duration": 0.0953945333333337
        },
        {
          "name": "D4",
          "midi": 62,
          "time": 53.87981926666667,
          "velocity": 0.5039370078740157,
          "duration": 0.0953945333333337
        },
        {
          "name": "D4",
          "midi": 62,
          "time": 53.97685853333334,
          "velocity": 0.5039370078740157,
          "duration": 0.0953945333333337
        },
        {
          "name": "D4",
          "midi": 62,
          "time": 54.07554253333334,
          "velocity": 0.5039370078740157,
          "duration": 0.0953945333333337
        },
        {
          "name": "D4",
          "midi": 62,
          "time": 54.17258180000001,
          "velocity": 0.5039370078740157,
          "duration": 0.0953945333333337
        },
        {
          "name": "D4",
          "midi": 62,
          "time": 54.27126580000001,
          "velocity": 0.5039370078740157,
          "duration": 0.0953945333333337
        },
        {
          "name": "D4",
          "midi": 62,
          "time": 54.36830506666668,
          "velocity": 0.5039370078740157,
          "duration": 0.0953945333333337
        },
        {
          "name": "D4",
          "midi": 62,
          "time": 54.46698906666668,
          "velocity": 0.5039370078740157,
          "duration": 0.0953945333333337
        },
        {
          "name": "D4",
          "midi": 62,
          "time": 54.56402833333335,
          "velocity": 0.5039370078740157,
          "duration": 0.0953945333333337
        },
        {
          "name": "D4",
          "midi": 62,
          "time": 54.662712333333346,
          "velocity": 0.5039370078740157,
          "duration": 0.0953945333333337
        },
        {
          "name": "D4",
          "midi": 62,
          "time": 54.759751600000016,
          "velocity": 0.5039370078740157,
          "duration": 0.0953945333333337
        },
        {
          "name": "D4",
          "midi": 62,
          "time": 54.858435600000014,
          "velocity": 0.5039370078740157,
          "duration": 0.0953945333333337
        },
        {
          "name": "D4",
          "midi": 62,
          "time": 54.955474866666684,
          "velocity": 0.5039370078740157,
          "duration": 0.0953945333333337
        },
        {
          "name": "D4",
          "midi": 62,
          "time": 55.05415886666668,
          "velocity": 0.5039370078740157,
          "duration": 0.0953945333333337
        },
        {
          "name": "D4",
          "midi": 62,
          "time": 55.15119813333335,
          "velocity": 0.5039370078740157,
          "duration": 0.0953945333333337
        },
        {
          "name": "D4",
          "midi": 62,
          "time": 55.24988213333335,
          "velocity": 0.5039370078740157,
          "duration": 0.0953945333333337
        },
        {
          "name": "D4",
          "midi": 62,
          "time": 55.34692140000002,
          "velocity": 0.5039370078740157,
          "duration": 0.0953945333333337
        },
        {
          "name": "D4",
          "midi": 62,
          "time": 55.44560540000002,
          "velocity": 0.5039370078740157,
          "duration": 0.0953945333333337
        },
        {
          "name": "D4",
          "midi": 62,
          "time": 55.54264466666669,
          "velocity": 0.5039370078740157,
          "duration": 0.0953945333333337
        },
        {
          "name": "D4",
          "midi": 62,
          "time": 55.64132866666669,
          "velocity": 0.5039370078740157,
          "duration": 0.0953945333333337
        },
        {
          "name": "D4",
          "midi": 62,
          "time": 55.73836793333336,
          "velocity": 0.5039370078740157,
          "duration": 0.0953945333333337
        },
        {
          "name": "D4",
          "midi": 62,
          "time": 55.837051933333356,
          "velocity": 0.5039370078740157,
          "duration": 0.0953945333333337
        },
        {
          "name": "D4",
          "midi": 62,
          "time": 55.934091200000026,
          "velocity": 0.5039370078740157,
          "duration": 0.0953945333333337
        },
        {
          "name": "D4",
          "midi": 62,
          "time": 56.032775200000025,
          "velocity": 0.5039370078740157,
          "duration": 0.0953945333333337
        },
        {
          "name": "D4",
          "midi": 62,
          "time": 56.13145920000002,
          "velocity": 0.5039370078740157,
          "duration": 0.0953945333333337
        },
        {
          "name": "D4",
          "midi": 62,
          "time": 56.22849846666669,
          "velocity": 0.5039370078740157,
          "duration": 0.0953945333333337
        },
        {
          "name": "D4",
          "midi": 62,
          "time": 56.32718246666669,
          "velocity": 0.5039370078740157,
          "duration": 0.0953945333333337
        },
        {
          "name": "D4",
          "midi": 62,
          "time": 56.42422173333336,
          "velocity": 0.5039370078740157,
          "duration": 0.0953945333333337
        },
        {
          "name": "D4",
          "midi": 62,
          "time": 56.52290573333336,
          "velocity": 0.5039370078740157,
          "duration": 0.0953945333333337
        },
        {
          "name": "D4",
          "midi": 62,
          "time": 56.61994500000003,
          "velocity": 0.5039370078740157,
          "duration": 0.0953945333333337
        },
        {
          "name": "D4",
          "midi": 62,
          "time": 56.71862900000003,
          "velocity": 0.5039370078740157,
          "duration": 0.0953945333333337
        },
        {
          "name": "E3",
          "midi": 52,
          "time": 56.84198400000003,
          "velocity": 0.5039370078740157,
          "duration": 3.1562432666666638
        },
        {
          "name": "E4",
          "midi": 64,
          "time": 59.99987200000003,
          "velocity": 0.6299212598425197,
          "duration": 1.1825632666666692
        },
        {
          "name": "F4",
          "midi": 65,
          "time": 61.18408000000004,
          "velocity": 0.6299212598425197,
          "duration": 0.3930912666666657
        },
        {
          "name": "E4",
          "midi": 64,
          "time": 61.57881600000004,
          "velocity": 0.6299212598425197,
          "duration": 1.1825632666666692
        },
        {
          "name": "F4",
          "midi": 65,
          "time": 62.763024000000044,
          "velocity": 0.6299212598425197,
          "duration": 0.3930912666666657
        },
        {
          "name": "E4",
          "midi": 64,
          "time": 63.157760000000046,
          "velocity": 0.6299212598425197,
          "duration": 0.3930912666666657
        },
        {
          "name": "C4",
          "midi": 60,
          "time": 63.55249600000005,
          "velocity": 0.6299212598425197,
          "duration": 0.3930912666666657
        },
        {
          "name": "F4",
          "midi": 65,
          "time": 63.94723200000005,
          "velocity": 0.6299212598425197,
          "duration": 0.3930912666666657
        },
        {
          "name": "E4",
          "midi": 64,
          "time": 64.34196800000005,
          "velocity": 0.6299212598425197,
          "duration": 1.1825632666666621
        },
        {
          "name": "B3",
          "midi": 59,
          "time": 65.92091200000004,
          "velocity": 0.6299212598425197,
          "duration": 0.3930912666666728
        },
        {
          "name": "A3",
          "midi": 57,
          "time": 66.31564800000005,
          "velocity": 0.6299212598425197,
          "duration": 0.3930912666666728
        },
        {
          "name": "E4",
          "midi": 64,
          "time": 66.71038400000006,
          "velocity": 0.6299212598425197,
          "duration": 0.3930912666666728
        },
        {
          "name": "D4",
          "midi": 62,
          "time": 67.10512000000007,
          "velocity": 0.6299212598425197,
          "duration": 0.3930912666666728
        },
        {
          "name": "C4",
          "midi": 60,
          "time": 67.49985600000008,
          "velocity": 0.6299212598425197,
          "duration": 0.3930912666666728
        },
        {
          "name": "D4",
          "midi": 62,
          "time": 67.89459200000009,
          "velocity": 0.6299212598425197,
          "duration": 0.7878272666666675
        },
        {
          "name": "G4",
          "midi": 67,
          "time": 68.68406400000009,
          "velocity": 0.6299212598425197,
          "duration": 0.7878272666666675
        },
        {
          "name": "E4",
          "midi": 64,
          "time": 69.4735360000001,
          "velocity": 0.6299212598425197,
          "duration": 0.7878272666667101
        },
        {
          "name": "F4",
          "midi": 65,
          "time": 70.26300800000014,
          "velocity": 0.5669291338582677,
          "duration": 0.7878272666667101
        },
        {
          "name": "E4",
          "midi": 64,
          "time": 71.05248000000019,
          "velocity": 0.5039370078740157,
          "duration": 0.7878272666666675
        },
        {
          "name": "E3",
          "midi": 52,
          "time": 71.84195200000019,
          "velocity": 0.5748031496062992,
          "duration": 0.1957232666666613
        },
        {
          "name": "D3",
          "midi": 50,
          "time": 72.03932000000019,
          "velocity": 0.5905511811023622,
          "duration": 0.1957232666666613
        },
        {
          "name": "C3",
          "midi": 48,
          "time": 72.23668800000019,
          "velocity": 0.6062992125984252,
          "duration": 0.1957232666666613
        },
        {
          "name": "B2",
          "midi": 47,
          "time": 72.43405600000018,
          "velocity": 0.6299212598425197,
          "duration": 0.1957232666666613
        },
        {
          "name": "F2",
          "midi": 41,
          "time": 72.63142400000018,
          "velocity": 0.6299212598425197,
          "duration": 0.1957232666666613
        },
        {
          "name": "C3",
          "midi": 48,
          "time": 72.82879200000018,
          "velocity": 0.6299212598425197,
          "duration": 0.1957232666666613
        },
        {
          "name": "G3",
          "midi": 55,
          "time": 73.02616000000017,
          "velocity": 0.6299212598425197,
          "duration": 0.1957232666666613
        },
        {
          "name": "A3",
          "midi": 57,
          "time": 73.22352800000017,
          "velocity": 0.6299212598425197,
          "duration": 0.1957232666666613
        },
        {
          "name": "C4",
          "midi": 60,
          "time": 73.42089600000017,
          "velocity": 0.6299212598425197,
          "duration": 0.1957232666666613
        },
        {
          "name": "A3",
          "midi": 57,
          "time": 73.61826400000017,
          "velocity": 0.6299212598425197,
          "duration": 0.1957232666666613
        },
        {
          "name": "G3",
          "midi": 55,
          "time": 73.81563200000016,
          "velocity": 0.6299212598425197,
          "duration": 0.1957232666666613
        },
        {
          "name": "F3",
          "midi": 53,
          "time": 74.01300000000016,
          "velocity": 0.6299212598425197,
          "duration": 0.1957232666666613
        },
        {
          "name": "B2",
          "midi": 47,
          "time": 74.21036800000016,
          "velocity": 0.6299212598425197,
          "duration": 0.1957232666666613
        },
        {
          "name": "D3",
          "midi": 50,
          "time": 74.40773600000016,
          "velocity": 0.6299212598425197,
          "duration": 0.1957232666666613
        },
        {
          "name": "E3",
          "midi": 52,
          "time": 74.60510400000015,
          "velocity": 0.6299212598425197,
          "duration": 0.1957232666666613
        },
        {
          "name": "G#3",
          "midi": 56,
          "time": 74.80247200000015,
          "velocity": 0.6299212598425197,
          "duration": 0.1957232666666613
        },
        {
          "name": "B3",
          "midi": 59,
          "time": 74.99984000000015,
          "velocity": 0.6299212598425197,
          "duration": 0.1957232666666613
        },
        {
          "name": "G#3",
          "midi": 56,
          "time": 75.19720800000015,
          "velocity": 0.6299212598425197,
          "duration": 0.1957232666666613
        },
        {
          "name": "E3",
          "midi": 52,
          "time": 75.39457600000014,
          "velocity": 0.6299212598425197,
          "duration": 0.1957232666666613
        },
        {
          "name": "D3",
          "midi": 50,
          "time": 75.59194400000014,
          "velocity": 0.6299212598425197,
          "duration": 0.1957232666666613
        },
        {
          "name": "E2",
          "midi": 40,
          "time": 75.78931200000014,
          "velocity": 0.6299212598425197,
          "duration": 0.1957232666666613
        },
        {
          "name": "D3",
          "midi": 50,
          "time": 75.98668000000013,
          "velocity": 0.6299212598425197,
          "duration": 0.1957232666666613
        },
        {
          "name": "G3",
          "midi": 55,
          "time": 76.18404800000013,
          "velocity": 0.6299212598425197,
          "duration": 0.1957232666666613
        },
        {
          "name": "F3",
          "midi": 53,
          "time": 76.38141600000013,
          "velocity": 0.6299212598425197,
          "duration": 0.1957232666666613
        },
        {
          "name": "E3",
          "midi": 52,
          "time": 76.57878400000013,
          "velocity": 0.6299212598425197,
          "duration": 0.1957232666666613
        },
        {
          "name": "D3",
          "midi": 50,
          "time": 76.77615200000012,
          "velocity": 0.6299212598425197,
          "duration": 0.1957232666666613
        },
        {
          "name": "A2",
          "midi": 45,
          "time": 76.97352000000012,
          "velocity": 0.6299212598425197,
          "duration": 1.9720352666666656
        },
        {
          "name": "F4",
          "midi": 65,
          "time": 78.94720000000012,
          "velocity": 0.5039370078740157,
          "duration": 1.577299266666671
        },
        {
          "name": "E4",
          "midi": 64,
          "time": 80.52614400000013,
          "velocity": 0.5039370078740157,
          "duration": 1.577299266666671
        },
        {
          "name": "D4",
          "midi": 62,
          "time": 82.10508800000014,
          "velocity": 0.5039370078740157,
          "duration": 3.1562432666666638
        },
        {
          "name": "A#2",
          "midi": 46,
          "time": 85.26297600000014,
          "velocity": 0.5039370078740157,
          "duration": 1.577299266666671
        },
        {
          "name": "C3",
          "midi": 48,
          "time": 86.84192000000014,
          "velocity": 0.5039370078740157,
          "duration": 1.577299266666671
        },
        {
          "name": "F3",
          "midi": 53,
          "time": 88.42086400000015,
          "velocity": 0.5039370078740157,
          "duration": 3.1562432666666638
        },
        {
          "name": "A#2",
          "midi": 46,
          "time": 91.57875200000015,
          "velocity": 0.5039370078740157,
          "duration": 4.735187266666713
        },
        {
          "name": "A2",
          "midi": 45,
          "time": 96.3155840000002,
          "velocity": 0.6299212598425197,
          "duration": 1.577299266666671
        },
        {
          "name": "A#2",
          "midi": 46,
          "time": 97.89452800000021,
          "velocity": 0.7559055118110236,
          "duration": 3.1562432666666638
        },
        {
          "name": "A#3",
          "midi": 58,
          "time": 97.89452800000021,
          "velocity": 0.7559055118110236,
          "duration": 3.1562432666666638
        },
        {
          "name": "A2",
          "midi": 45,
          "time": 101.0524160000002,
          "velocity": 0.7559055118110236,
          "duration": 6.314131266666664
        },
        {
          "name": "A3",
          "midi": 57,
          "time": 101.0524160000002,
          "velocity": 0.7559055118110236,
          "duration": 6.314131266666664
        },
        {
          "name": "G2",
          "midi": 43,
          "time": 107.3681920000002,
          "velocity": 0.7559055118110236,
          "duration": 3.1562432666666638
        },
        {
          "name": "G3",
          "midi": 55,
          "time": 107.3681920000002,
          "velocity": 0.7559055118110236,
          "duration": 3.1562432666666638
        },
        {
          "name": "F#2",
          "midi": 42,
          "time": 110.5260800000002,
          "velocity": 0.7559055118110236,
          "duration": 3.1562432666666638
        },
        {
          "name": "F#3",
          "midi": 54,
          "time": 110.5260800000002,
          "velocity": 0.7559055118110236,
          "duration": 3.1562432666666638
        },
        {
          "name": "F#2",
          "midi": 42,
          "time": 113.6839680000002,
          "velocity": 0.5039370078740157,
          "duration": 3.1562432666666638
        },
        {
          "name": "F3",
          "midi": 53,
          "time": 116.8418560000002,
          "velocity": 0.5039370078740157,
          "duration": 0.7878272666666675
        },
        {
          "name": "G3",
          "midi": 55,
          "time": 118.42080000000021,
          "velocity": 0.5039370078740157,
          "duration": 0.7878272666666675
        },
        {
          "name": "G#3",
          "midi": 56,
          "time": 119.99974400000022,
          "velocity": 0.5039370078740157,
          "duration": 0.7878272666666675
        },
        {
          "name": "A2",
          "midi": 45,
          "time": 121.57868800000023,
          "velocity": 0.5039370078740157,
          "duration": 0.7878272666665964
        },
        {
          "name": "A3",
          "midi": 57,
          "time": 121.57868800000023,
          "velocity": 0.5039370078740157,
          "duration": 0.7878272666665964
        },
        {
          "name": "G2",
          "midi": 43,
          "time": 122.36816000000016,
          "velocity": 0.7559055118110236,
          "duration": 0.7878272666666675
        },
        {
          "name": "G3",
          "midi": 55,
          "time": 122.36816000000016,
          "velocity": 0.7559055118110236,
          "duration": 0.7878272666666675
        },
        {
          "name": "F#2",
          "midi": 42,
          "time": 123.15763200000016,
          "velocity": 0.7559055118110236,
          "duration": 1.577299266666671
        },
        {
          "name": "F#3",
          "midi": 54,
          "time": 123.15763200000016,
          "velocity": 0.7559055118110236,
          "duration": 1.577299266666671
        },
        {
          "name": "C4",
          "midi": 60,
          "time": 124.73657600000017,
          "velocity": 0.7559055118110236,
          "duration": 0.3930912666666728
        },
        {
          "name": "A3",
          "midi": 57,
          "time": 125.13131200000018,
          "velocity": 0.7559055118110236,
          "duration": 0.3930912666666728
        },
        {
          "name": "F#3",
          "midi": 54,
          "time": 125.92078400000018,
          "velocity": 0.7559055118110236,
          "duration": 0.1957232666666613
        },
        {
          "name": "G#2",
          "midi": 44,
          "time": 126.31552000000018,
          "velocity": 1,
          "duration": 1.9720352666669925
        },
        {
          "name": "G#3",
          "midi": 56,
          "time": 126.31552000000018,
          "velocity": 1,
          "duration": 1.9720352666669925
        },
        {
          "name": "G#2",
          "midi": 44,
          "time": 128.2892000000005,
          "velocity": 0.7559055118110236,
          "duration": 0.1957232666666755
        },
        {
          "name": "G#3",
          "midi": 56,
          "time": 128.2892000000005,
          "velocity": 0.7559055118110236,
          "duration": 0.1957232666666755
        },
        {
          "name": "G#2",
          "midi": 44,
          "time": 128.6839360000005,
          "velocity": 0.7559055118110236,
          "duration": 0.1957232666666755
        },
        {
          "name": "G#3",
          "midi": 56,
          "time": 128.6839360000005,
          "velocity": 0.7559055118110236,
          "duration": 0.1957232666666755
        },
        {
          "name": "G#2",
          "midi": 44,
          "time": 129.0786720000005,
          "velocity": 0.7559055118110236,
          "duration": 0.1957232666666755
        },
        {
          "name": "G#3",
          "midi": 56,
          "time": 129.0786720000005,
          "velocity": 0.7559055118110236,
          "duration": 0.1957232666666755
        },
        {
          "name": "E2",
          "midi": 40,
          "time": 129.4734080000005,
          "velocity": 1,
          "duration": 0.09539453333337633
        },
        {
          "name": "E2",
          "midi": 40,
          "time": 129.5704472666672,
          "velocity": 1,
          "duration": 0.09539453333349002
        },
        {
          "name": "E2",
          "midi": 40,
          "time": 129.66913126666736,
          "velocity": 1,
          "duration": 0.09539453333331949
        },
        {
          "name": "E2",
          "midi": 40,
          "time": 129.76617053333402,
          "velocity": 1,
          "duration": 0.09539453333331949
        },
        {
          "name": "E2",
          "midi": 40,
          "time": 129.864854533334,
          "velocity": 1,
          "duration": 0.09539453333331949
        },
        {
          "name": "E2",
          "midi": 40,
          "time": 129.96189380000067,
          "velocity": 1,
          "duration": 0.09539453333331949
        },
        {
          "name": "E2",
          "midi": 40,
          "time": 130.06057780000066,
          "velocity": 1,
          "duration": 0.09539453333331949
        },
        {
          "name": "E2",
          "midi": 40,
          "time": 130.1576170666673,
          "velocity": 1,
          "duration": 0.09539453333331949
        },
        {
          "name": "E2",
          "midi": 40,
          "time": 130.2563010666673,
          "velocity": 1,
          "duration": 0.09539453333331949
        },
        {
          "name": "E2",
          "midi": 40,
          "time": 130.35334033333396,
          "velocity": 1,
          "duration": 0.09539453333331949
        },
        {
          "name": "E2",
          "midi": 40,
          "time": 130.45202433333395,
          "velocity": 1,
          "duration": 0.09539453333331949
        },
        {
          "name": "E2",
          "midi": 40,
          "time": 130.5490636000006,
          "velocity": 1,
          "duration": 0.09539453333331949
        },
        {
          "name": "E2",
          "midi": 40,
          "time": 130.6477476000006,
          "velocity": 1,
          "duration": 0.09539453333331949
        },
        {
          "name": "E2",
          "midi": 40,
          "time": 130.74478686666725,
          "velocity": 1,
          "duration": 0.09539453333331949
        },
        {
          "name": "E2",
          "midi": 40,
          "time": 130.84347086666725,
          "velocity": 1,
          "duration": 0.09539453333331949
        },
        {
          "name": "E2",
          "midi": 40,
          "time": 130.9405101333339,
          "velocity": 1,
          "duration": 0.09539453333331949
        },
        {
          "name": "E2",
          "midi": 40,
          "time": 131.0391941333339,
          "velocity": 1,
          "duration": 0.09539453333331949
        },
        {
          "name": "E2",
          "midi": 40,
          "time": 131.13623340000055,
          "velocity": 1,
          "duration": 0.09539453333331949
        },
        {
          "name": "E2",
          "midi": 40,
          "time": 131.23491740000054,
          "velocity": 1,
          "duration": 0.09539453333331949
        },
        {
          "name": "E2",
          "midi": 40,
          "time": 131.3319566666672,
          "velocity": 1,
          "duration": 0.09539453333331949
        },
        {
          "name": "E2",
          "midi": 40,
          "time": 131.4306406666672,
          "velocity": 1,
          "duration": 0.09539453333331949
        },
        {
          "name": "E2",
          "midi": 40,
          "time": 131.52767993333384,
          "velocity": 1,
          "duration": 0.09539453333331949
        },
        {
          "name": "E2",
          "midi": 40,
          "time": 131.62636393333383,
          "velocity": 1,
          "duration": 0.09539453333331949
        },
        {
          "name": "E2",
          "midi": 40,
          "time": 131.7234032000005,
          "velocity": 1,
          "duration": 0.09539453333331949
        },
        {
          "name": "E2",
          "midi": 40,
          "time": 131.82208720000048,
          "velocity": 1,
          "duration": 0.09539453333331949
        },
        {
          "name": "E2",
          "midi": 40,
          "time": 131.92077120000047,
          "velocity": 1,
          "duration": 0.09539453333331949
        },
        {
          "name": "E2",
          "midi": 40,
          "time": 132.01781046666713,
          "velocity": 1,
          "duration": 0.09539453333331949
        },
        {
          "name": "E2",
          "midi": 40,
          "time": 132.11649446666712,
          "velocity": 1,
          "duration": 0.09539453333331949
        },
        {
          "name": "E2",
          "midi": 40,
          "time": 132.21353373333378,
          "velocity": 1,
          "duration": 0.09539453333331949
        },
        {
          "name": "E2",
          "midi": 40,
          "time": 132.31221773333377,
          "velocity": 1,
          "duration": 0.09539453333331949
        },
        {
          "name": "E2",
          "midi": 40,
          "time": 132.40925700000042,
          "velocity": 1,
          "duration": 0.09539453333331949
        },
        {
          "name": "E2",
          "midi": 40,
          "time": 132.50794100000041,
          "velocity": 1,
          "duration": 0.09539453333331949
        },
        {
          "name": "A2",
          "midi": 45,
          "time": 132.6312960000004,
          "velocity": 0.9448818897637795,
          "duration": 0.3930912666669997
        },
        {
          "name": "A2",
          "midi": 45,
          "time": 133.02603200000073,
          "velocity": 0.6299212598425197,
          "duration": 0.1957232666666755
        },
        {
          "name": "A2",
          "midi": 45,
          "time": 133.81550400000074,
          "velocity": 0.6299212598425197,
          "duration": 0.1957232666666755
        },
        {
          "name": "A2",
          "midi": 45,
          "time": 134.21024000000074,
          "velocity": 0.9448818897637795,
          "duration": 0.3930912666669997
        },
        {
          "name": "A2",
          "midi": 45,
          "time": 134.60497600000107,
          "velocity": 0.6299212598425197,
          "duration": 0.1957232666666755
        },
        {
          "name": "A2",
          "midi": 45,
          "time": 135.3944480000011,
          "velocity": 0.6299212598425197,
          "duration": 0.1957232666666755
        },
        {
          "name": "A2",
          "midi": 45,
          "time": 135.7891840000011,
          "velocity": 0.9448818897637795,
          "duration": 0.3930912666669997
        },
        {
          "name": "A2",
          "midi": 45,
          "time": 136.18392000000142,
          "velocity": 0.6299212598425197,
          "duration": 0.1957232666666755
        },
        {
          "name": "A2",
          "midi": 45,
          "time": 136.97339200000144,
          "velocity": 0.6299212598425197,
          "duration": 0.1957232666666755
        },
        {
          "name": "A2",
          "midi": 45,
          "time": 137.36812800000143,
          "velocity": 0.9448818897637795,
          "duration": 0.3930912666669997
        },
        {
          "name": "A2",
          "midi": 45,
          "time": 137.76286400000177,
          "velocity": 0.6299212598425197,
          "duration": 0.1957232666666755
        },
        {
          "name": "A2",
          "midi": 45,
          "time": 138.5523360000018,
          "velocity": 0.6299212598425197,
          "duration": 0.1957232666666755
        },
        {
          "name": "A2",
          "midi": 45,
          "time": 138.94707200000178,
          "velocity": 0.7559055118110236,
          "duration": 0.39309126666697125
        },
        {
          "name": "A2",
          "midi": 45,
          "time": 139.3418080000021,
          "velocity": 0.5039370078740157,
          "duration": 0.1957232666666755
        },
        {
          "name": "A2",
          "midi": 45,
          "time": 140.1312800000021,
          "velocity": 0.5039370078740157,
          "duration": 0.1957232666666755
        },
        {
          "name": "G#2",
          "midi": 44,
          "time": 140.5260160000021,
          "velocity": 0.7559055118110236,
          "duration": 0.39309126666697125
        },
        {
          "name": "G#2",
          "midi": 44,
          "time": 140.9207520000024,
          "velocity": 0.5039370078740157,
          "duration": 0.1957232666666755
        },
        {
          "name": "G#2",
          "midi": 44,
          "time": 141.71022400000243,
          "velocity": 0.5039370078740157,
          "duration": 0.1957232666666755
        },
        {
          "name": "G2",
          "midi": 43,
          "time": 142.10496000000242,
          "velocity": 0.7559055118110236,
          "duration": 0.39309126666697125
        },
        {
          "name": "G2",
          "midi": 43,
          "time": 142.49969600000273,
          "velocity": 0.5039370078740157,
          "duration": 0.1957232666666755
        },
        {
          "name": "G2",
          "midi": 43,
          "time": 143.28916800000275,
          "velocity": 0.5039370078740157,
          "duration": 0.1957232666666755
        },
        {
          "name": "F#2",
          "midi": 42,
          "time": 143.68390400000274,
          "velocity": 0.7559055118110236,
          "duration": 0.39309126666697125
        },
        {
          "name": "F#2",
          "midi": 42,
          "time": 144.07864000000305,
          "velocity": 0.5039370078740157,
          "duration": 0.1957232666666755
        },
        {
          "name": "F#2",
          "midi": 42,
          "time": 144.86811200000307,
          "velocity": 0.5039370078740157,
          "duration": 0.1957232666666755
        },
        {
          "name": "F2",
          "midi": 41,
          "time": 145.26284800000306,
          "velocity": 0.7559055118110236,
          "duration": 0.39309126666697125
        },
        {
          "name": "F2",
          "midi": 41,
          "time": 145.65758400000337,
          "velocity": 0.5039370078740157,
          "duration": 0.1957232666666755
        },
        {
          "name": "F2",
          "midi": 41,
          "time": 146.44705600000339,
          "velocity": 0.5039370078740157,
          "duration": 0.1957232666666755
        },
        {
          "name": "A#2",
          "midi": 46,
          "time": 146.84179200000338,
          "velocity": 0.7559055118110236,
          "duration": 0.39309126666697125
        },
        {
          "name": "A#2",
          "midi": 46,
          "time": 147.2365280000037,
          "velocity": 0.5039370078740157,
          "duration": 0.1957232666666755
        },
        {
          "name": "A#2",
          "midi": 46,
          "time": 148.0260000000037,
          "velocity": 0.5039370078740157,
          "duration": 0.1957232666666755
        },
        {
          "name": "E2",
          "midi": 40,
          "time": 148.4207360000037,
          "velocity": 0.7559055118110236,
          "duration": 0.39309126666697125
        },
        {
          "name": "E2",
          "midi": 40,
          "time": 148.815472000004,
          "velocity": 0.5039370078740157,
          "duration": 0.1957232666666755
        },
        {
          "name": "E2",
          "midi": 40,
          "time": 149.60494400000402,
          "velocity": 0.5039370078740157,
          "duration": 0.1957232666666755
        },
        {
          "name": "E2",
          "midi": 40,
          "time": 149.99968000000402,
          "velocity": 0.7559055118110236,
          "duration": 0.39309126666697125
        },
        {
          "name": "E2",
          "midi": 40,
          "time": 150.39441600000433,
          "velocity": 0.5039370078740157,
          "duration": 0.1957232666666755
        },
        {
          "name": "E2",
          "midi": 40,
          "time": 151.18388800000434,
          "velocity": 0.5039370078740157,
          "duration": 0.1957232666666755
        },
        {
          "name": "F2",
          "midi": 41,
          "time": 151.57862400000434,
          "velocity": 0.7559055118110236,
          "duration": 0.39309126666697125
        },
        {
          "name": "F2",
          "midi": 41,
          "time": 151.97336000000465,
          "velocity": 0.5039370078740157,
          "duration": 0.1957232666666755
        },
        {
          "name": "F2",
          "midi": 41,
          "time": 152.76283200000466,
          "velocity": 0.5039370078740157,
          "duration": 0.1957232666666755
        },
        {
          "name": "F2",
          "midi": 41,
          "time": 153.15756800000466,
          "velocity": 0.7559055118110236,
          "duration": 0.39309126666697125
        },
        {
          "name": "F2",
          "midi": 41,
          "time": 153.55230400000497,
          "velocity": 0.5039370078740157,
          "duration": 0.1957232666666755
        },
        {
          "name": "F2",
          "midi": 41,
          "time": 154.34177600000498,
          "velocity": 0.5039370078740157,
          "duration": 0.1957232666666755
        },
        {
          "name": "E2",
          "midi": 40,
          "time": 154.73651200000498,
          "velocity": 0.7559055118110236,
          "duration": 0.39309126666697125
        },
        {
          "name": "E2",
          "midi": 40,
          "time": 155.1312480000053,
          "velocity": 0.5039370078740157,
          "duration": 0.1957232666666755
        },
        {
          "name": "E2",
          "midi": 40,
          "time": 155.9207200000053,
          "velocity": 0.5039370078740157,
          "duration": 0.1957232666666755
        },
        {
          "name": "A2",
          "midi": 45,
          "time": 156.3154560000053,
          "velocity": 0.7559055118110236,
          "duration": 0.39309126666697125
        },
        {
          "name": "A2",
          "midi": 45,
          "time": 156.7101920000056,
          "velocity": 0.5039370078740157,
          "duration": 0.1957232666666755
        },
        {
          "name": "A2",
          "midi": 45,
          "time": 157.49966400000562,
          "velocity": 0.5039370078740157,
          "duration": 0.1957232666666755
        },
        {
          "name": "F2",
          "midi": 41,
          "time": 157.89440000000562,
          "velocity": 0.7559055118110236,
          "duration": 0.39309126666697125
        },
        {
          "name": "F2",
          "midi": 41,
          "time": 158.28913600000593,
          "velocity": 0.5039370078740157,
          "duration": 0.1957232666666755
        },
        {
          "name": "F2",
          "midi": 41,
          "time": 159.07860800000594,
          "velocity": 0.5039370078740157,
          "duration": 0.1957232666666755
        },
        {
          "name": "E2",
          "midi": 40,
          "time": 159.47334400000594,
          "velocity": 0.7559055118110236,
          "duration": 0.39309126666697125
        },
        {
          "name": "E2",
          "midi": 40,
          "time": 159.86808000000624,
          "velocity": 0.5039370078740157,
          "duration": 0.1957232666666755
        },
        {
          "name": "E2",
          "midi": 40,
          "time": 160.65755200000626,
          "velocity": 0.5039370078740157,
          "duration": 0.1957232666666755
        },
        {
          "name": "D2",
          "midi": 38,
          "time": 161.05228800000626,
          "velocity": 0.7559055118110236,
          "duration": 0.39309126666697125
        },
        {
          "name": "D2",
          "midi": 38,
          "time": 161.44702400000656,
          "velocity": 0.5039370078740157,
          "duration": 0.1957232666666755
        },
        {
          "name": "D2",
          "midi": 38,
          "time": 162.23649600000658,
          "velocity": 0.5039370078740157,
          "duration": 0.1957232666666755
        },
        {
          "name": "D2",
          "midi": 38,
          "time": 162.63123200000658,
          "velocity": 0.7559055118110236,
          "duration": 0.39309126666697125
        },
        {
          "name": "D2",
          "midi": 38,
          "time": 163.02596800000688,
          "velocity": 0.5039370078740157,
          "duration": 0.1957232666666755
        },
        {
          "name": "D2",
          "midi": 38,
          "time": 163.8154400000069,
          "velocity": 0.5039370078740157,
          "duration": 0.1957232666666755
        },
        {
          "name": "A#2",
          "midi": 46,
          "time": 164.2101760000069,
          "velocity": 0.7559055118110236,
          "duration": 0.39309126666697125
        },
        {
          "name": "A#2",
          "midi": 46,
          "time": 164.6049120000072,
          "velocity": 0.5196850393700787,
          "duration": 0.1957232666666755
        },
        {
          "name": "A#2",
          "midi": 46,
          "time": 165.3943840000072,
          "velocity": 0.5511811023622047,
          "duration": 0.1957232666666755
        },
        {
          "name": "A#2",
          "midi": 46,
          "time": 165.78912000000722,
          "velocity": 0.8582677165354331,
          "duration": 0.3930912666669997
        },
        {
          "name": "A#2",
          "midi": 46,
          "time": 166.18385600000755,
          "velocity": 0.5905511811023622,
          "duration": 0.19572326666664708
        },
        {
          "name": "A#2",
          "midi": 46,
          "time": 166.97332800000754,
          "velocity": 0.6299212598425197,
          "duration": 0.1957232666666755
        },
        {
          "name": "A2",
          "midi": 45,
          "time": 167.36806400000754,
          "velocity": 0.9448818897637795,
          "duration": 0.3930912666669997
        },
        {
          "name": "A2",
          "midi": 45,
          "time": 167.76280000000787,
          "velocity": 0.6299212598425197,
          "duration": 0.1957232666666755
        },
        {
          "name": "A2",
          "midi": 45,
          "time": 168.5522720000079,
          "velocity": 0.6299212598425197,
          "duration": 0.1957232666666755
        },
        {
          "name": "E3",
          "midi": 52,
          "time": 168.94700800000788,
          "velocity": 0.9448818897637795,
          "duration": 0.3930912666669997
        },
        {
          "name": "A2",
          "midi": 45,
          "time": 169.34174400000822,
          "velocity": 0.6299212598425197,
          "duration": 0.1957232666666755
        },
        {
          "name": "A2",
          "midi": 45,
          "time": 170.13121600000824,
          "velocity": 0.6299212598425197,
          "duration": 0.1957232666666755
        },
        {
          "name": "D2",
          "midi": 38,
          "time": 170.52595200000823,
          "velocity": 0.9448818897637795,
          "duration": 0.3930912666669997
        },
        {
          "name": "D2",
          "midi": 38,
          "time": 170.92068800000857,
          "velocity": 0.6299212598425197,
          "duration": 0.1957232666666755
        },
        {
          "name": "D2",
          "midi": 38,
          "time": 171.71016000000859,
          "velocity": 0.6299212598425197,
          "duration": 0.1957232666666755
        },
        {
          "name": "F#2",
          "midi": 42,
          "time": 172.10489600000858,
          "velocity": 0.9448818897637795,
          "duration": 0.3930912666669997
        },
        {
          "name": "D2",
          "midi": 38,
          "time": 172.49963200000892,
          "velocity": 0.6299212598425197,
          "duration": 0.1957232666666755
        },
        {
          "name": "D2",
          "midi": 38,
          "time": 173.28910400000893,
          "velocity": 0.6299212598425197,
          "duration": 0.1957232666666755
        },
        {
          "name": "A#2",
          "midi": 46,
          "time": 173.68384000000893,
          "velocity": 0.9448818897637795,
          "duration": 0.3930912666669997
        },
        {
          "name": "A#2",
          "midi": 46,
          "time": 174.07857600000926,
          "velocity": 0.6299212598425197,
          "duration": 0.1957232666666755
        },
        {
          "name": "A#2",
          "midi": 46,
          "time": 174.86804800000928,
          "velocity": 0.6299212598425197,
          "duration": 0.1957232666666755
        },
        {
          "name": "D3",
          "midi": 50,
          "time": 175.26278400000928,
          "velocity": 0.9448818897637795,
          "duration": 0.3930912666669997
        },
        {
          "name": "A#2",
          "midi": 46,
          "time": 175.6575200000096,
          "velocity": 0.6299212598425197,
          "duration": 0.1957232666666755
        },
        {
          "name": "A#2",
          "midi": 46,
          "time": 176.44699200000963,
          "velocity": 0.6299212598425197,
          "duration": 0.1957232666666755
        },
        {
          "name": "E2",
          "midi": 40,
          "time": 176.84172800000962,
          "velocity": 0.9448818897637795,
          "duration": 0.3930912666669997
        },
        {
          "name": "E2",
          "midi": 40,
          "time": 177.23646400000996,
          "velocity": 0.6299212598425197,
          "duration": 0.1957232666666755
        },
        {
          "name": "E2",
          "midi": 40,
          "time": 178.02593600000998,
          "velocity": 0.6299212598425197,
          "duration": 0.1957232666666755
        },
        {
          "name": "G#2",
          "midi": 44,
          "time": 178.42067200000997,
          "velocity": 0.9448818897637795,
          "duration": 0.3930912666669997
        },
        {
          "name": "E2",
          "midi": 40,
          "time": 178.8154080000103,
          "velocity": 0.6299212598425197,
          "duration": 0.1957232666666755
        },
        {
          "name": "E2",
          "midi": 40,
          "time": 179.60488000001033,
          "velocity": 0.6299212598425197,
          "duration": 0.1957232666666755
        },
        {
          "name": "A2",
          "midi": 45,
          "time": 179.99961600001032,
          "velocity": 0.9448818897637795,
          "duration": 0.3930912666669997
        },
        {
          "name": "A2",
          "midi": 45,
          "time": 180.39435200001066,
          "velocity": 0.6299212598425197,
          "duration": 0.1957232666666755
        },
        {
          "name": "A2",
          "midi": 45,
          "time": 181.18382400001067,
          "velocity": 0.6456692913385826,
          "duration": 0.1957232666666755
        },
        {
          "name": "E3",
          "midi": 52,
          "time": 181.57856000001067,
          "velocity": 0.968503937007874,
          "duration": 0.3930912666669997
        },
        {
          "name": "A2",
          "midi": 45,
          "time": 181.973296000011,
          "velocity": 0.6535433070866141,
          "duration": 0.1957232666666755
        },
        {
          "name": "A2",
          "midi": 45,
          "time": 182.762768000011,
          "velocity": 0.6614173228346457,
          "duration": 0.1957232666666755
        },
        {
          "name": "F#2",
          "midi": 42,
          "time": 183.157504000011,
          "velocity": 1,
          "duration": 0.3930912666669997
        },
        {
          "name": "F#2",
          "midi": 42,
          "time": 183.55224000001132,
          "velocity": 0.6771653543307087,
          "duration": 0.1957232666666755
        },
        {
          "name": "F#2",
          "midi": 42,
          "time": 184.34171200001134,
          "velocity": 0.6850393700787402,
          "duration": 0.1957232666666755
        },
        {
          "name": "C3",
          "midi": 48,
          "time": 184.73644800001136,
          "velocity": 1,
          "duration": 0.3930912666669997
        },
        {
          "name": "F#2",
          "midi": 42,
          "time": 185.1311840000117,
          "velocity": 0.7007874015748031,
          "duration": 0.1957232666666755
        },
        {
          "name": "F#2",
          "midi": 42,
          "time": 185.92065600001172,
          "velocity": 0.7086614173228346,
          "duration": 0.1957232666666755
        },
        {
          "name": "D#2",
          "midi": 39,
          "time": 186.31539200001174,
          "velocity": 1,
          "duration": 0.3930912666669997
        },
        {
          "name": "D#2",
          "midi": 39,
          "time": 186.71012800001208,
          "velocity": 0.7165354330708661,
          "duration": 0.19572326666664708
        },
        {
          "name": "D#2",
          "midi": 39,
          "time": 187.49960000001207,
          "velocity": 0.7322834645669292,
          "duration": 0.1957232666666755
        },
        {
          "name": "D#2",
          "midi": 39,
          "time": 187.89433600001206,
          "velocity": 1,
          "duration": 0.3930912666669997
        },
        {
          "name": "D#2",
          "midi": 39,
          "time": 188.2890720000124,
          "velocity": 0.7401574803149606,
          "duration": 0.1957232666666755
        },
        {
          "name": "D#2",
          "midi": 39,
          "time": 189.07854400001239,
          "velocity": 0.7559055118110236,
          "duration": 0.1957232666666755
        },
        {
          "name": "E2",
          "midi": 40,
          "time": 189.47328000001238,
          "velocity": 1,
          "duration": 0.3930912666669997
        },
        {
          "name": "E3",
          "midi": 52,
          "time": 189.47328000001238,
          "velocity": 1,
          "duration": 0.3930912666669997
        },
        {
          "name": "E2",
          "midi": 40,
          "time": 189.86801600001272,
          "velocity": 0.7559055118110236,
          "duration": 0.1957232666666755
        },
        {
          "name": "E3",
          "midi": 52,
          "time": 189.86801600001272,
          "velocity": 0.7559055118110236,
          "duration": 0.1957232666666755
        },
        {
          "name": "E2",
          "midi": 40,
          "time": 190.65748800001273,
          "velocity": 0.7559055118110236,
          "duration": 0.1957232666666755
        },
        {
          "name": "E3",
          "midi": 52,
          "time": 190.65748800001273,
          "velocity": 0.7559055118110236,
          "duration": 0.1957232666666755
        },
        {
          "name": "E2",
          "midi": 40,
          "time": 191.05222400001273,
          "velocity": 0.7559055118110236,
          "duration": 0.2615126000000032
        },
        {
          "name": "E3",
          "midi": 52,
          "time": 191.05222400001273,
          "velocity": 0.7559055118110236,
          "duration": 0.2615126000000032
        },
        {
          "name": "E2",
          "midi": 40,
          "time": 191.31538133334607,
          "velocity": 0.7559055118110236,
          "duration": 0.2615126000000032
        },
        {
          "name": "E3",
          "midi": 52,
          "time": 191.31538133334607,
          "velocity": 0.7559055118110236,
          "duration": 0.2615126000000032
        },
        {
          "name": "E2",
          "midi": 40,
          "time": 191.5785386666794,
          "velocity": 0.7559055118110236,
          "duration": 0.2615126000000032
        },
        {
          "name": "E3",
          "midi": 52,
          "time": 191.5785386666794,
          "velocity": 0.7559055118110236,
          "duration": 0.2615126000000032
        },
        {
          "name": "E2",
          "midi": 40,
          "time": 191.84169600001275,
          "velocity": 0.7559055118110236,
          "duration": 0.2615126000000032
        },
        {
          "name": "E3",
          "midi": 52,
          "time": 191.84169600001275,
          "velocity": 0.7559055118110236,
          "duration": 0.2615126000000032
        },
        {
          "name": "E2",
          "midi": 40,
          "time": 192.10485333334609,
          "velocity": 0.7559055118110236,
          "duration": 0.2615126000000032
        },
        {
          "name": "E3",
          "midi": 52,
          "time": 192.10485333334609,
          "velocity": 0.7559055118110236,
          "duration": 0.2615126000000032
        },
        {
          "name": "E2",
          "midi": 40,
          "time": 192.36801066667942,
          "velocity": 0.7559055118110236,
          "duration": 0.2615126000000032
        },
        {
          "name": "E3",
          "midi": 52,
          "time": 192.36801066667942,
          "velocity": 0.7559055118110236,
          "duration": 0.2615126000000032
        },
        {
          "name": "F2",
          "midi": 41,
          "time": 194.21011200001277,
          "velocity": 0.5039370078740157,
          "duration": 0.3930912666666586
        },
        {
          "name": "F2",
          "midi": 41,
          "time": 194.99958400001276,
          "velocity": 0.5039370078740157,
          "duration": 0.3930912666666586
        },
        {
          "name": "F2",
          "midi": 41,
          "time": 195.78905600001275,
          "velocity": 0.5039370078740157,
          "duration": 0.3930912666666586
        },
        {
          "name": "F2",
          "midi": 41,
          "time": 196.57852800001274,
          "velocity": 0.5039370078740157,
          "duration": 0.3930912666666586
        },
        {
          "name": "E2",
          "midi": 40,
          "time": 197.36800000001273,
          "velocity": 0.5039370078740157,
          "duration": 0.3930912666666586
        },
        {
          "name": "E2",
          "midi": 40,
          "time": 198.15747200001272,
          "velocity": 0.5039370078740157,
          "duration": 0.3930912666666586
        },
        {
          "name": "E2",
          "midi": 40,
          "time": 198.9469440000127,
          "velocity": 0.5039370078740157,
          "duration": 0.3930912666666586
        },
        {
          "name": "E2",
          "midi": 40,
          "time": 199.7364160000127,
          "velocity": 0.5039370078740157,
          "duration": 0.3930912666666586
        },
        {
          "name": "A#2",
          "midi": 46,
          "time": 200.52588800001269,
          "velocity": 0.5039370078740157,
          "duration": 0.3930912666666586
        },
        {
          "name": "A#2",
          "midi": 46,
          "time": 201.31536000001267,
          "velocity": 0.5039370078740157,
          "duration": 0.3930912666666586
        },
        {
          "name": "A#2",
          "midi": 46,
          "time": 202.10483200001266,
          "velocity": 0.5039370078740157,
          "duration": 0.3930912666666586
        },
        {
          "name": "A#2",
          "midi": 46,
          "time": 202.89430400001265,
          "velocity": 0.5039370078740157,
          "duration": 0.3930912666666586
        },
        {
          "name": "A2",
          "midi": 45,
          "time": 203.68377600001264,
          "velocity": 0.5039370078740157,
          "duration": 0.3930912666666586
        },
        {
          "name": "A2",
          "midi": 45,
          "time": 204.47324800001263,
          "velocity": 0.5039370078740157,
          "duration": 0.3930912666666586
        },
        {
          "name": "A2",
          "midi": 45,
          "time": 205.26272000001262,
          "velocity": 0.5039370078740157,
          "duration": 0.3930912666666586
        },
        {
          "name": "A2",
          "midi": 45,
          "time": 206.0521920000126,
          "velocity": 0.5039370078740157,
          "duration": 0.3930912666666586
        },
        {
          "name": "F2",
          "midi": 41,
          "time": 206.8416640000126,
          "velocity": 0.5039370078740157,
          "duration": 0.3930912666666586
        },
        {
          "name": "F2",
          "midi": 41,
          "time": 207.6311360000126,
          "velocity": 0.5039370078740157,
          "duration": 0.3930912666666586
        },
        {
          "name": "F2",
          "midi": 41,
          "time": 208.42060800001258,
          "velocity": 0.5039370078740157,
          "duration": 0.3930912666666586
        },
        {
          "name": "F2",
          "midi": 41,
          "time": 209.21008000001257,
          "velocity": 0.5039370078740157,
          "duration": 0.3930912666666586
        },
        {
          "name": "E2",
          "midi": 40,
          "time": 209.99955200001256,
          "velocity": 0.5039370078740157,
          "duration": 0.3930912666666302
        },
        {
          "name": "E2",
          "midi": 40,
          "time": 210.7890240000125,
          "velocity": 0.5433070866141733,
          "duration": 0.3930912666666586
        },
        {
          "name": "D#2",
          "midi": 39,
          "time": 211.57849600001245,
          "velocity": 0.5826771653543307,
          "duration": 0.3930912666666302
        },
        {
          "name": "D#2",
          "midi": 39,
          "time": 212.36796800001238,
          "velocity": 0.6299212598425197,
          "duration": 0.3930912666666586
        },
        {
          "name": "F2",
          "midi": 41,
          "time": 213.15744000001237,
          "velocity": 0.6299212598425197,
          "duration": 1.5772992666665289
        },
        {
          "name": "D3",
          "midi": 50,
          "time": 213.15744000001237,
          "velocity": 0.6299212598425197,
          "duration": 1.5772992666665289
        },
        {
          "name": "C3",
          "midi": 48,
          "time": 214.73638400001224,
          "velocity": 0.5039370078740157,
          "duration": 1.577299266666671
        },
        {
          "name": "C4",
          "midi": 60,
          "time": 214.73638400001224,
          "velocity": 0.5039370078740157,
          "duration": 1.577299266666671
        },
        {
          "name": "B2",
          "midi": 47,
          "time": 216.31532800001224,
          "velocity": 0.5039370078740157,
          "duration": 1.5772992666665289
        },
        {
          "name": "B3",
          "midi": 59,
          "time": 216.31532800001224,
          "velocity": 0.5039370078740157,
          "duration": 1.5772992666665289
        },
        {
          "name": "E2",
          "midi": 40,
          "time": 217.8942720000121,
          "velocity": 0.7559055118110236,
          "duration": 1.577299266666671
        },
        {
          "name": "E3",
          "midi": 52,
          "time": 217.8942720000121,
          "velocity": 0.7559055118110236,
          "duration": 1.577299266666671
        },
        {
          "name": "A2",
          "midi": 45,
          "time": 219.47321600001212,
          "velocity": 0.7559055118110236,
          "duration": 1.577299266666671
        },
        {
          "name": "A3",
          "midi": 57,
          "time": 219.47321600001212,
          "velocity": 0.7559055118110236,
          "duration": 1.577299266666671
        },
        {
          "name": "G#2",
          "midi": 44,
          "time": 221.05216000001212,
          "velocity": 0.7559055118110236,
          "duration": 2.3667712666666603
        },
        {
          "name": "G#3",
          "midi": 56,
          "time": 221.05216000001212,
          "velocity": 0.7559055118110236,
          "duration": 2.3667712666666603
        },
        {
          "name": "G2",
          "midi": 43,
          "time": 223.42057600001212,
          "velocity": 0.7559055118110236,
          "duration": 0.7878272666666533
        },
        {
          "name": "G3",
          "midi": 55,
          "time": 223.42057600001212,
          "velocity": 0.7559055118110236,
          "duration": 0.7878272666666533
        },
        {
          "name": "F#2",
          "midi": 42,
          "time": 224.2100480000121,
          "velocity": 0.7559055118110236,
          "duration": 0.5246699333333424
        },
        {
          "name": "F#3",
          "midi": 54,
          "time": 224.2100480000121,
          "velocity": 0.7559055118110236,
          "duration": 0.5246699333333424
        },
        {
          "name": "D2",
          "midi": 38,
          "time": 224.7363626666788,
          "velocity": 0.7559055118110236,
          "duration": 0.5246699333333424
        },
        {
          "name": "D3",
          "midi": 50,
          "time": 224.7363626666788,
          "velocity": 0.7559055118110236,
          "duration": 0.5246699333333424
        },
        {
          "name": "F#2",
          "midi": 42,
          "time": 225.26267733334547,
          "velocity": 0.7559055118110236,
          "duration": 0.5246699333333424
        },
        {
          "name": "F#3",
          "midi": 54,
          "time": 225.26267733334547,
          "velocity": 0.7559055118110236,
          "duration": 0.5246699333333424
        },
        {
          "name": "F2",
          "midi": 41,
          "time": 225.78899200001214,
          "velocity": 0.7559055118110236,
          "duration": 1.577299266666671
        },
        {
          "name": "F3",
          "midi": 53,
          "time": 225.78899200001214,
          "velocity": 0.7559055118110236,
          "duration": 1.577299266666671
        },
        {
          "name": "A#2",
          "midi": 46,
          "time": 227.36793600001215,
          "velocity": 0.7559055118110236,
          "duration": 1.577299266666671
        },
        {
          "name": "A#3",
          "midi": 58,
          "time": 227.36793600001215,
          "velocity": 0.7559055118110236,
          "duration": 1.577299266666671
        },
        {
          "name": "E2",
          "midi": 40,
          "time": 228.94688000001216,
          "velocity": 0.7559055118110236,
          "duration": 0.7878272666666533
        },
        {
          "name": "E3",
          "midi": 52,
          "time": 228.94688000001216,
          "velocity": 0.7559055118110236,
          "duration": 0.7878272666666533
        },
        {
          "name": "D#2",
          "midi": 39,
          "time": 229.73635200001215,
          "velocity": 0.7559055118110236,
          "duration": 0.7878272666666533
        },
        {
          "name": "D#3",
          "midi": 51,
          "time": 229.73635200001215,
          "velocity": 0.7559055118110236,
          "duration": 0.7878272666666533
        },
        {
          "name": "E2",
          "midi": 40,
          "time": 230.52582400001214,
          "velocity": 0.7559055118110236,
          "duration": 1.577299266666671
        },
        {
          "name": "E3",
          "midi": 52,
          "time": 230.52582400001214,
          "velocity": 0.7559055118110236,
          "duration": 1.577299266666671
        },
        {
          "name": "F2",
          "midi": 41,
          "time": 232.10476800001214,
          "velocity": 1,
          "duration": 0.3930912666669997
        },
        {
          "name": "F2",
          "midi": 41,
          "time": 232.49950400001248,
          "velocity": 0.7559055118110236,
          "duration": 0.1957232666666755
        },
        {
          "name": "F2",
          "midi": 41,
          "time": 233.2889760000125,
          "velocity": 0.7559055118110236,
          "duration": 0.1957232666666755
        },
        {
          "name": "F2",
          "midi": 41,
          "time": 233.6837120000125,
          "velocity": 1,
          "duration": 0.3930912666669997
        },
        {
          "name": "F2",
          "midi": 41,
          "time": 234.07844800001283,
          "velocity": 0.7559055118110236,
          "duration": 0.1957232666666755
        },
        {
          "name": "F2",
          "midi": 41,
          "time": 234.86792000001284,
          "velocity": 0.7559055118110236,
          "duration": 0.1957232666666755
        },
        {
          "name": "A2",
          "midi": 45,
          "time": 236.84160000001285,
          "velocity": 1,
          "duration": 0.7878272666669943
        }
      ],
      "controlChanges": {
        "2": [
          {
            "number": 2,
            "time": 3.157888,
            "value": 0.3858267716535433
          },
          {
            "number": 2,
            "time": 3.9473599999999998,
            "value": 0.3858267716535433
          },
          {
            "number": 2,
            "time": 6.315776,
            "value": 0.5039370078740157
          },
          {
            "number": 2,
            "time": 7.105248,
            "value": 0.5039370078740157
          },
          {
            "number": 2,
            "time": 9.473664,
            "value": 0.5039370078740157
          },
          {
            "number": 2,
            "time": 11.052608,
            "value": 0.5039370078740157
          },
          {
            "number": 2,
            "time": 12.631552,
            "value": 0.5039370078740157
          },
          {
            "number": 2,
            "time": 13.421024,
            "value": 0.5039370078740157
          },
          {
            "number": 2,
            "time": 13.81576,
            "value": 0.5039370078740157
          },
          {
            "number": 2,
            "time": 14.210496,
            "value": 0.5039370078740157
          },
          {
            "number": 2,
            "time": 15.789439999999999,
            "value": 0.5039370078740157
          },
          {
            "number": 2,
            "time": 17.368384,
            "value": 0.5039370078740157
          },
          {
            "number": 2,
            "time": 18.947328,
            "value": 0.5039370078740157
          },
          {
            "number": 2,
            "time": 22.105216,
            "value": 0.5039370078740157
          },
          {
            "number": 2,
            "time": 25.263104,
            "value": 0.5039370078740157
          },
          {
            "number": 2,
            "time": 26.447311999999997,
            "value": 0.5039370078740157
          },
          {
            "number": 2,
            "time": 26.842048,
            "value": 0.5039370078740157
          },
          {
            "number": 2,
            "time": 28.420992,
            "value": 0.5039370078740157
          },
          {
            "number": 2,
            "time": 28.519675999999997,
            "value": 0.5118110236220472
          },
          {
            "number": 2,
            "time": 28.618359999999996,
            "value": 0.5196850393700787
          },
          {
            "number": 2,
            "time": 28.717043999999994,
            "value": 0.5275590551181102
          },
          {
            "number": 2,
            "time": 28.815727999999993,
            "value": 0.5354330708661418
          },
          {
            "number": 2,
            "time": 28.91441199999999,
            "value": 0.5433070866141733
          },
          {
            "number": 2,
            "time": 29.01309599999999,
            "value": 0.5511811023622047
          },
          {
            "number": 2,
            "time": 29.11177999999999,
            "value": 0.5590551181102362
          },
          {
            "number": 2,
            "time": 29.210463999999988,
            "value": 0.5669291338582677
          },
          {
            "number": 2,
            "time": 29.309147999999986,
            "value": 0.5748031496062992
          },
          {
            "number": 2,
            "time": 29.407831999999985,
            "value": 0.5826771653543307
          },
          {
            "number": 2,
            "time": 29.506515999999984,
            "value": 0.5905511811023622
          },
          {
            "number": 2,
            "time": 29.605199999999982,
            "value": 0.5984251968503937
          },
          {
            "number": 2,
            "time": 29.70388399999998,
            "value": 0.6062992125984252
          },
          {
            "number": 2,
            "time": 29.80256799999998,
            "value": 0.6141732283464567
          },
          {
            "number": 2,
            "time": 29.901251999999978,
            "value": 0.6220472440944882
          },
          {
            "number": 2,
            "time": 29.999935999999977,
            "value": 0.6299212598425197
          },
          {
            "number": 2,
            "time": 31.578879999999977,
            "value": 0.6299212598425197
          },
          {
            "number": 2,
            "time": 31.578879999999977,
            "value": 0.6299212598425197
          },
          {
            "number": 2,
            "time": 33.15782399999998,
            "value": 0.6299212598425197
          },
          {
            "number": 2,
            "time": 34.736767999999984,
            "value": 0.6299212598425197
          },
          {
            "number": 2,
            "time": 34.93413599999998,
            "value": 0.6220472440944882
          },
          {
            "number": 2,
            "time": 35.13150399999998,
            "value": 0.6141732283464567
          },
          {
            "number": 2,
            "time": 35.328871999999976,
            "value": 0.6062992125984252
          },
          {
            "number": 2,
            "time": 35.52623999999997,
            "value": 0.5984251968503937
          },
          {
            "number": 2,
            "time": 35.72360799999997,
            "value": 0.5905511811023622
          },
          {
            "number": 2,
            "time": 35.92097599999997,
            "value": 0.5826771653543307
          },
          {
            "number": 2,
            "time": 36.118343999999965,
            "value": 0.5748031496062992
          },
          {
            "number": 2,
            "time": 36.31571199999997,
            "value": 0.5669291338582677
          },
          {
            "number": 2,
            "time": 36.51307999999997,
            "value": 0.5590551181102362
          },
          {
            "number": 2,
            "time": 36.710447999999964,
            "value": 0.5511811023622047
          },
          {
            "number": 2,
            "time": 36.90781599999996,
            "value": 0.5433070866141733
          },
          {
            "number": 2,
            "time": 37.10518399999996,
            "value": 0.5354330708661418
          },
          {
            "number": 2,
            "time": 37.302551999999956,
            "value": 0.5275590551181102
          },
          {
            "number": 2,
            "time": 37.49991999999995,
            "value": 0.5196850393700787
          },
          {
            "number": 2,
            "time": 37.69728799999995,
            "value": 0.5118110236220472
          },
          {
            "number": 2,
            "time": 37.894655999999955,
            "value": 0.5039370078740157
          },
          {
            "number": 2,
            "time": 41.052543999999955,
            "value": 0.5039370078740157
          },
          {
            "number": 2,
            "time": 44.210431999999955,
            "value": 0.5039370078740157
          },
          {
            "number": 2,
            "time": 46.57884799999996,
            "value": 0.5039370078740157
          },
          {
            "number": 2,
            "time": 47.36831999999996,
            "value": 0.6299212598425197
          },
          {
            "number": 2,
            "time": 47.76305599999996,
            "value": 0.6299212598425197
          },
          {
            "number": 2,
            "time": 48.157791999999965,
            "value": 0.6299212598425197
          },
          {
            "number": 2,
            "time": 48.55252799999997,
            "value": 0.6299212598425197
          },
          {
            "number": 2,
            "time": 48.94726399999997,
            "value": 0.6299212598425197
          },
          {
            "number": 2,
            "time": 50.526207999999976,
            "value": 0.6299212598425197
          },
          {
            "number": 2,
            "time": 52.10515199999999,
            "value": 0.6299212598425197
          },
          {
            "number": 2,
            "time": 53.684096000000004,
            "value": 0.5039370078740157
          },
          {
            "number": 2,
            "time": 56.84198400000003,
            "value": 0.5039370078740157
          },
          {
            "number": 2,
            "time": 59.99987200000003,
            "value": 0.6299212598425197
          },
          {
            "number": 2,
            "time": 61.18408000000004,
            "value": 0.6299212598425197
          },
          {
            "number": 2,
            "time": 61.57881600000004,
            "value": 0.6299212598425197
          },
          {
            "number": 2,
            "time": 62.763024000000044,
            "value": 0.6299212598425197
          },
          {
            "number": 2,
            "time": 63.157760000000046,
            "value": 0.6299212598425197
          },
          {
            "number": 2,
            "time": 63.55249600000005,
            "value": 0.6299212598425197
          },
          {
            "number": 2,
            "time": 63.94723200000005,
            "value": 0.6299212598425197
          },
          {
            "number": 2,
            "time": 64.34196800000005,
            "value": 0.6299212598425197
          },
          {
            "number": 2,
            "time": 65.92091200000004,
            "value": 0.6299212598425197
          },
          {
            "number": 2,
            "time": 66.31564800000005,
            "value": 0.6299212598425197
          },
          {
            "number": 2,
            "time": 66.71038400000006,
            "value": 0.6299212598425197
          },
          {
            "number": 2,
            "time": 67.10512000000007,
            "value": 0.6299212598425197
          },
          {
            "number": 2,
            "time": 67.49985600000008,
            "value": 0.6299212598425197
          },
          {
            "number": 2,
            "time": 67.89459200000009,
            "value": 0.6299212598425197
          },
          {
            "number": 2,
            "time": 69.4735360000001,
            "value": 0.6299212598425197
          },
          {
            "number": 2,
            "time": 69.5722200000001,
            "value": 0.6220472440944882
          },
          {
            "number": 2,
            "time": 69.6709040000001,
            "value": 0.6141732283464567
          },
          {
            "number": 2,
            "time": 69.76958800000011,
            "value": 0.6062992125984252
          },
          {
            "number": 2,
            "time": 69.86827200000012,
            "value": 0.5984251968503937
          },
          {
            "number": 2,
            "time": 69.96695600000012,
            "value": 0.5905511811023622
          },
          {
            "number": 2,
            "time": 70.06564000000013,
            "value": 0.5826771653543307
          },
          {
            "number": 2,
            "time": 70.16432400000014,
            "value": 0.5748031496062992
          },
          {
            "number": 2,
            "time": 70.26300800000014,
            "value": 0.5669291338582677
          },
          {
            "number": 2,
            "time": 70.36169200000015,
            "value": 0.5590551181102362
          },
          {
            "number": 2,
            "time": 70.46037600000015,
            "value": 0.5511811023622047
          },
          {
            "number": 2,
            "time": 70.55906000000016,
            "value": 0.5433070866141733
          },
          {
            "number": 2,
            "time": 70.65774400000016,
            "value": 0.5354330708661418
          },
          {
            "number": 2,
            "time": 70.75642800000017,
            "value": 0.5275590551181102
          },
          {
            "number": 2,
            "time": 70.85511200000018,
            "value": 0.5196850393700787
          },
          {
            "number": 2,
            "time": 70.95379600000018,
            "value": 0.5118110236220472
          },
          {
            "number": 2,
            "time": 71.05248000000019,
            "value": 0.5039370078740157
          },
          {
            "number": 2,
            "time": 71.13965086666686,
            "value": 0.5118110236220472
          },
          {
            "number": 2,
            "time": 71.22517700000019,
            "value": 0.5196850393700787
          },
          {
            "number": 2,
            "time": 71.31234786666685,
            "value": 0.5275590551181102
          },
          {
            "number": 2,
            "time": 71.39787400000019,
            "value": 0.5354330708661418
          },
          {
            "number": 2,
            "time": 71.48504486666685,
            "value": 0.5433070866141733
          },
          {
            "number": 2,
            "time": 71.57057100000019,
            "value": 0.5511811023622047
          },
          {
            "number": 2,
            "time": 71.65774186666685,
            "value": 0.5590551181102362
          },
          {
            "number": 2,
            "time": 71.74326800000019,
            "value": 0.5669291338582677
          },
          {
            "number": 2,
            "time": 71.83043886666685,
            "value": 0.5748031496062992
          },
          {
            "number": 2,
            "time": 71.84195200000019,
            "value": 0.5748031496062992
          },
          {
            "number": 2,
            "time": 71.91596500000018,
            "value": 0.5826771653543307
          },
          {
            "number": 2,
            "time": 72.00313586666685,
            "value": 0.5905511811023622
          },
          {
            "number": 2,
            "time": 72.03932000000019,
            "value": 0.5905511811023622
          },
          {
            "number": 2,
            "time": 72.08866200000018,
            "value": 0.5984251968503937
          },
          {
            "number": 2,
            "time": 72.17583286666685,
            "value": 0.6062992125984252
          },
          {
            "number": 2,
            "time": 72.23668800000019,
            "value": 0.6062992125984252
          },
          {
            "number": 2,
            "time": 72.26135900000018,
            "value": 0.6141732283464567
          },
          {
            "number": 2,
            "time": 72.34852986666685,
            "value": 0.6220472440944882
          },
          {
            "number": 2,
            "time": 72.43405600000018,
            "value": 0.6299212598425197
          },
          {
            "number": 2,
            "time": 72.63142400000018,
            "value": 0.6299212598425197
          },
          {
            "number": 2,
            "time": 73.42089600000017,
            "value": 0.6299212598425197
          },
          {
            "number": 2,
            "time": 73.81563200000016,
            "value": 0.6299212598425197
          },
          {
            "number": 2,
            "time": 74.21036800000016,
            "value": 0.6299212598425197
          },
          {
            "number": 2,
            "time": 74.99984000000015,
            "value": 0.6299212598425197
          },
          {
            "number": 2,
            "time": 75.39457600000014,
            "value": 0.6299212598425197
          },
          {
            "number": 2,
            "time": 75.78931200000014,
            "value": 0.6299212598425197
          },
          {
            "number": 2,
            "time": 76.18404800000013,
            "value": 0.6299212598425197
          },
          {
            "number": 2,
            "time": 76.57878400000013,
            "value": 0.6299212598425197
          },
          {
            "number": 2,
            "time": 76.97352000000012,
            "value": 0.6299212598425197
          },
          {
            "number": 2,
            "time": 77.36825600000012,
            "value": 0.6299212598425197
          },
          {
            "number": 2,
            "time": 78.94720000000012,
            "value": 0.5039370078740157
          },
          {
            "number": 2,
            "time": 80.52614400000013,
            "value": 0.5039370078740157
          },
          {
            "number": 2,
            "time": 82.10508800000014,
            "value": 0.5039370078740157
          },
          {
            "number": 2,
            "time": 85.26297600000014,
            "value": 0.5039370078740157
          },
          {
            "number": 2,
            "time": 86.84192000000014,
            "value": 0.5039370078740157
          },
          {
            "number": 2,
            "time": 88.42086400000015,
            "value": 0.5039370078740157
          },
          {
            "number": 2,
            "time": 91.57875200000015,
            "value": 0.5039370078740157
          },
          {
            "number": 2,
            "time": 91.87480400000015,
            "value": 0.5118110236220472
          },
          {
            "number": 2,
            "time": 92.17085600000016,
            "value": 0.5196850393700787
          },
          {
            "number": 2,
            "time": 92.46690800000016,
            "value": 0.5275590551181102
          },
          {
            "number": 2,
            "time": 92.76296000000016,
            "value": 0.5354330708661418
          },
          {
            "number": 2,
            "time": 93.05901200000017,
            "value": 0.5433070866141733
          },
          {
            "number": 2,
            "time": 93.35506400000017,
            "value": 0.5511811023622047
          },
          {
            "number": 2,
            "time": 93.65111600000017,
            "value": 0.5590551181102362
          },
          {
            "number": 2,
            "time": 93.94716800000018,
            "value": 0.5669291338582677
          },
          {
            "number": 2,
            "time": 94.24322000000018,
            "value": 0.5748031496062992
          },
          {
            "number": 2,
            "time": 94.53927200000018,
            "value": 0.5826771653543307
          },
          {
            "number": 2,
            "time": 94.73664000000018,
            "value": 0.5826771653543307
          },
          {
            "number": 2,
            "time": 94.83532400000018,
            "value": 0.5905511811023622
          },
          {
            "number": 2,
            "time": 95.13137600000019,
            "value": 0.5984251968503937
          },
          {
            "number": 2,
            "time": 95.42742800000019,
            "value": 0.6062992125984252
          },
          {
            "number": 2,
            "time": 95.7234800000002,
            "value": 0.6141732283464567
          },
          {
            "number": 2,
            "time": 96.0195320000002,
            "value": 0.6220472440944882
          },
          {
            "number": 2,
            "time": 96.3155840000002,
            "value": 0.6299212598425197
          },
          {
            "number": 2,
            "time": 97.89452800000021,
            "value": 0.7559055118110236
          },
          {
            "number": 2,
            "time": 101.0524160000002,
            "value": 0.7559055118110236
          },
          {
            "number": 2,
            "time": 104.2103040000002,
            "value": 0.7559055118110236
          },
          {
            "number": 2,
            "time": 107.3681920000002,
            "value": 0.7559055118110236
          },
          {
            "number": 2,
            "time": 110.5260800000002,
            "value": 0.7559055118110236
          },
          {
            "number": 2,
            "time": 113.6839680000002,
            "value": 0.5039370078740157
          },
          {
            "number": 2,
            "time": 116.8418560000002,
            "value": 0.5039370078740157
          },
          {
            "number": 2,
            "time": 118.42080000000021,
            "value": 0.5039370078740157
          },
          {
            "number": 2,
            "time": 119.99974400000022,
            "value": 0.5039370078740157
          },
          {
            "number": 2,
            "time": 121.57868800000023,
            "value": 0.5039370078740157
          },
          {
            "number": 2,
            "time": 121.60335900000022,
            "value": 0.5118110236220472
          },
          {
            "number": 2,
            "time": 121.62803000000022,
            "value": 0.5196850393700787
          },
          {
            "number": 2,
            "time": 121.65270100000022,
            "value": 0.5275590551181102
          },
          {
            "number": 2,
            "time": 121.67737200000022,
            "value": 0.5354330708661418
          },
          {
            "number": 2,
            "time": 121.70204300000022,
            "value": 0.5433070866141733
          },
          {
            "number": 2,
            "time": 121.72671400000021,
            "value": 0.5511811023622047
          },
          {
            "number": 2,
            "time": 121.75138500000021,
            "value": 0.5590551181102362
          },
          {
            "number": 2,
            "time": 121.77605600000021,
            "value": 0.5669291338582677
          },
          {
            "number": 2,
            "time": 121.80072700000021,
            "value": 0.5748031496062992
          },
          {
            "number": 2,
            "time": 121.8253980000002,
            "value": 0.5826771653543307
          },
          {
            "number": 2,
            "time": 121.8500690000002,
            "value": 0.5905511811023622
          },
          {
            "number": 2,
            "time": 121.8747400000002,
            "value": 0.5984251968503937
          },
          {
            "number": 2,
            "time": 121.8994110000002,
            "value": 0.6062992125984252
          },
          {
            "number": 2,
            "time": 121.9240820000002,
            "value": 0.6141732283464567
          },
          {
            "number": 2,
            "time": 121.9487530000002,
            "value": 0.6220472440944882
          },
          {
            "number": 2,
            "time": 121.9734240000002,
            "value": 0.6299212598425197
          },
          {
            "number": 2,
            "time": 121.99809500000019,
            "value": 0.6377952755905512
          },
          {
            "number": 2,
            "time": 122.02276600000019,
            "value": 0.6456692913385826
          },
          {
            "number": 2,
            "time": 122.04743700000019,
            "value": 0.6535433070866141
          },
          {
            "number": 2,
            "time": 122.07210800000018,
            "value": 0.6614173228346457
          },
          {
            "number": 2,
            "time": 122.09677900000018,
            "value": 0.6692913385826772
          },
          {
            "number": 2,
            "time": 122.12145000000018,
            "value": 0.6771653543307087
          },
          {
            "number": 2,
            "time": 122.14612100000018,
            "value": 0.6850393700787402
          },
          {
            "number": 2,
            "time": 122.17079200000018,
            "value": 0.6929133858267716
          },
          {
            "number": 2,
            "time": 122.19546300000017,
            "value": 0.7007874015748031
          },
          {
            "number": 2,
            "time": 122.22013400000017,
            "value": 0.7086614173228346
          },
          {
            "number": 2,
            "time": 122.24480500000017,
            "value": 0.7165354330708661
          },
          {
            "number": 2,
            "time": 122.26947600000017,
            "value": 0.7244094488188977
          },
          {
            "number": 2,
            "time": 122.29414700000017,
            "value": 0.7322834645669292
          },
          {
            "number": 2,
            "time": 122.31881800000016,
            "value": 0.7401574803149606
          },
          {
            "number": 2,
            "time": 122.34348900000016,
            "value": 0.7480314960629921
          },
          {
            "number": 2,
            "time": 122.36816000000016,
            "value": 0.7559055118110236
          },
          {
            "number": 2,
            "time": 123.15763200000016,
            "value": 0.7559055118110236
          },
          {
            "number": 2,
            "time": 124.73657600000017,
            "value": 0.7559055118110236
          },
          {
            "number": 2,
            "time": 125.92078400000018,
            "value": 0.7559055118110236
          },
          {
            "number": 2,
            "time": 126.31552000000018,
            "value": 1
          },
          {
            "number": 2,
            "time": 126.31716473333351,
            "value": 1
          },
          {
            "number": 2,
            "time": 126.31880946666685,
            "value": 1
          },
          {
            "number": 2,
            "time": 126.32045420000019,
            "value": 1
          },
          {
            "number": 2,
            "time": 126.32209893333352,
            "value": 1
          },
          {
            "number": 2,
            "time": 126.32374366666686,
            "value": 1
          },
          {
            "number": 2,
            "time": 126.3253884000002,
            "value": 1
          },
          {
            "number": 2,
            "time": 126.32703313333353,
            "value": 1
          },
          {
            "number": 2,
            "time": 126.32867786666687,
            "value": 1
          },
          {
            "number": 2,
            "time": 126.3303226000002,
            "value": 1
          },
          {
            "number": 2,
            "time": 126.33196733333354,
            "value": 1
          },
          {
            "number": 2,
            "time": 126.33361206666687,
            "value": 1
          },
          {
            "number": 2,
            "time": 126.33525680000021,
            "value": 1
          },
          {
            "number": 2,
            "time": 126.33690153333355,
            "value": 1
          },
          {
            "number": 2,
            "time": 126.33854626666688,
            "value": 1
          },
          {
            "number": 2,
            "time": 126.34019100000022,
            "value": 1
          },
          {
            "number": 2,
            "time": 126.34183573333355,
            "value": 1
          },
          {
            "number": 2,
            "time": 126.34348046666689,
            "value": 1
          },
          {
            "number": 2,
            "time": 126.34512520000023,
            "value": 1
          },
          {
            "number": 2,
            "time": 126.34676993333356,
            "value": 1
          },
          {
            "number": 2,
            "time": 126.3484146666669,
            "value": 1
          },
          {
            "number": 2,
            "time": 126.35005940000023,
            "value": 1
          },
          {
            "number": 2,
            "time": 126.35170413333357,
            "value": 1
          },
          {
            "number": 2,
            "time": 126.3533488666669,
            "value": 1
          },
          {
            "number": 2,
            "time": 126.35499360000024,
            "value": 1
          },
          {
            "number": 2,
            "time": 126.35663833333358,
            "value": 1
          },
          {
            "number": 2,
            "time": 126.35828306666691,
            "value": 1
          },
          {
            "number": 2,
            "time": 126.35992780000025,
            "value": 1
          },
          {
            "number": 2,
            "time": 126.36157253333359,
            "value": 1
          },
          {
            "number": 2,
            "time": 126.36321726666692,
            "value": 1
          },
          {
            "number": 2,
            "time": 126.36486200000026,
            "value": 1
          },
          {
            "number": 2,
            "time": 126.3665067333336,
            "value": 1
          },
          {
            "number": 2,
            "time": 126.36815146666693,
            "value": 1
          },
          {
            "number": 2,
            "time": 126.36979620000027,
            "value": 1
          },
          {
            "number": 2,
            "time": 126.3714409333336,
            "value": 1
          },
          {
            "number": 2,
            "time": 126.37308566666694,
            "value": 1
          },
          {
            "number": 2,
            "time": 126.37473040000027,
            "value": 1
          },
          {
            "number": 2,
            "time": 126.37637513333361,
            "value": 1
          },
          {
            "number": 2,
            "time": 126.37801986666695,
            "value": 1
          },
          {
            "number": 2,
            "time": 126.37966460000028,
            "value": 1
          },
          {
            "number": 2,
            "time": 126.38130933333362,
            "value": 1
          },
          {
            "number": 2,
            "time": 126.38295406666695,
            "value": 1
          },
          {
            "number": 2,
            "time": 126.38459880000029,
            "value": 1
          },
          {
            "number": 2,
            "time": 126.38624353333363,
            "value": 0.9921259842519685
          },
          {
            "number": 2,
            "time": 126.38788826666696,
            "value": 0.9921259842519685
          },
          {
            "number": 2,
            "time": 126.3895330000003,
            "value": 0.9921259842519685
          },
          {
            "number": 2,
            "time": 126.39117773333363,
            "value": 0.984251968503937
          },
          {
            "number": 2,
            "time": 126.39282246666697,
            "value": 0.984251968503937
          },
          {
            "number": 2,
            "time": 126.3944672000003,
            "value": 0.9763779527559056
          },
          {
            "number": 2,
            "time": 126.39611193333364,
            "value": 0.9763779527559056
          },
          {
            "number": 2,
            "time": 126.39775666666698,
            "value": 0.9763779527559056
          },
          {
            "number": 2,
            "time": 126.39940140000031,
            "value": 0.968503937007874
          },
          {
            "number": 2,
            "time": 126.40104613333365,
            "value": 0.968503937007874
          },
          {
            "number": 2,
            "time": 126.40269086666699,
            "value": 0.9606299212598425
          },
          {
            "number": 2,
            "time": 126.40433560000032,
            "value": 0.9606299212598425
          },
          {
            "number": 2,
            "time": 126.40598033333366,
            "value": 0.9606299212598425
          },
          {
            "number": 2,
            "time": 126.407625066667,
            "value": 0.952755905511811
          },
          {
            "number": 2,
            "time": 126.40926980000033,
            "value": 0.952755905511811
          },
          {
            "number": 2,
            "time": 126.41091453333367,
            "value": 0.9448818897637795
          },
          {
            "number": 2,
            "time": 126.412559266667,
            "value": 0.9448818897637795
          },
          {
            "number": 2,
            "time": 126.41420400000034,
            "value": 0.9448818897637795
          },
          {
            "number": 2,
            "time": 126.41584873333368,
            "value": 0.937007874015748
          },
          {
            "number": 2,
            "time": 126.41749346666701,
            "value": 0.937007874015748
          },
          {
            "number": 2,
            "time": 126.41913820000035,
            "value": 0.9291338582677166
          },
          {
            "number": 2,
            "time": 126.42078293333368,
            "value": 0.9291338582677166
          },
          {
            "number": 2,
            "time": 126.42242766666702,
            "value": 0.9291338582677166
          },
          {
            "number": 2,
            "time": 126.42407240000036,
            "value": 0.9212598425196851
          },
          {
            "number": 2,
            "time": 126.42571713333369,
            "value": 0.9212598425196851
          },
          {
            "number": 2,
            "time": 126.42736186666703,
            "value": 0.9133858267716536
          },
          {
            "number": 2,
            "time": 126.42900660000036,
            "value": 0.9133858267716536
          },
          {
            "number": 2,
            "time": 126.4306513333337,
            "value": 0.9133858267716536
          },
          {
            "number": 2,
            "time": 126.43229606666704,
            "value": 0.905511811023622
          },
          {
            "number": 2,
            "time": 126.43394080000037,
            "value": 0.905511811023622
          },
          {
            "number": 2,
            "time": 126.43558553333371,
            "value": 0.8976377952755905
          },
          {
            "number": 2,
            "time": 126.43723026666704,
            "value": 0.8976377952755905
          },
          {
            "number": 2,
            "time": 126.43887500000038,
            "value": 0.8976377952755905
          },
          {
            "number": 2,
            "time": 126.44051973333372,
            "value": 0.889763779527559
          },
          {
            "number": 2,
            "time": 126.44216446666705,
            "value": 0.889763779527559
          },
          {
            "number": 2,
            "time": 126.44380920000039,
            "value": 0.8818897637795275
          },
          {
            "number": 2,
            "time": 126.44545393333372,
            "value": 0.8818897637795275
          },
          {
            "number": 2,
            "time": 126.44709866666706,
            "value": 0.8818897637795275
          },
          {
            "number": 2,
            "time": 126.4487434000004,
            "value": 0.8740157480314961
          },
          {
            "number": 2,
            "time": 126.45038813333373,
            "value": 0.8740157480314961
          },
          {
            "number": 2,
            "time": 126.45203286666707,
            "value": 0.8661417322834646
          },
          {
            "number": 2,
            "time": 126.4536776000004,
            "value": 0.8661417322834646
          },
          {
            "number": 2,
            "time": 126.45532233333374,
            "value": 0.8661417322834646
          },
          {
            "number": 2,
            "time": 126.45696706666708,
            "value": 0.8582677165354331
          },
          {
            "number": 2,
            "time": 126.45861180000041,
            "value": 0.8582677165354331
          },
          {
            "number": 2,
            "time": 126.46025653333375,
            "value": 0.8503937007874016
          },
          {
            "number": 2,
            "time": 126.46190126666708,
            "value": 0.8503937007874016
          },
          {
            "number": 2,
            "time": 126.46354600000042,
            "value": 0.8503937007874016
          },
          {
            "number": 2,
            "time": 126.46519073333376,
            "value": 0.84251968503937
          },
          {
            "number": 2,
            "time": 126.46683546666709,
            "value": 0.84251968503937
          },
          {
            "number": 2,
            "time": 126.46848020000043,
            "value": 0.8346456692913385
          },
          {
            "number": 2,
            "time": 126.47012493333376,
            "value": 0.8346456692913385
          },
          {
            "number": 2,
            "time": 126.4717696666671,
            "value": 0.8346456692913385
          },
          {
            "number": 2,
            "time": 126.47341440000044,
            "value": 0.8267716535433071
          },
          {
            "number": 2,
            "time": 126.47505913333377,
            "value": 0.8267716535433071
          },
          {
            "number": 2,
            "time": 126.47670386666711,
            "value": 0.8188976377952756
          },
          {
            "number": 2,
            "time": 126.47834860000044,
            "value": 0.8188976377952756
          },
          {
            "number": 2,
            "time": 126.47999333333378,
            "value": 0.8188976377952756
          },
          {
            "number": 2,
            "time": 126.48163806666712,
            "value": 0.8110236220472441
          },
          {
            "number": 2,
            "time": 126.48328280000045,
            "value": 0.8110236220472441
          },
          {
            "number": 2,
            "time": 126.48492753333379,
            "value": 0.8031496062992126
          },
          {
            "number": 2,
            "time": 126.48657226666712,
            "value": 0.8031496062992126
          },
          {
            "number": 2,
            "time": 126.48821700000046,
            "value": 0.8031496062992126
          },
          {
            "number": 2,
            "time": 126.4898617333338,
            "value": 0.7952755905511811
          },
          {
            "number": 2,
            "time": 126.49150646666713,
            "value": 0.7952755905511811
          },
          {
            "number": 2,
            "time": 126.49315120000047,
            "value": 0.7874015748031497
          },
          {
            "number": 2,
            "time": 126.4947959333338,
            "value": 0.7874015748031497
          },
          {
            "number": 2,
            "time": 126.49644066666714,
            "value": 0.7874015748031497
          },
          {
            "number": 2,
            "time": 126.49808540000048,
            "value": 0.7795275590551181
          },
          {
            "number": 2,
            "time": 126.49973013333381,
            "value": 0.7795275590551181
          },
          {
            "number": 2,
            "time": 126.50137486666715,
            "value": 0.7716535433070866
          },
          {
            "number": 2,
            "time": 126.50301960000048,
            "value": 0.7716535433070866
          },
          {
            "number": 2,
            "time": 126.50466433333382,
            "value": 0.7716535433070866
          },
          {
            "number": 2,
            "time": 126.50630906666716,
            "value": 0.7637795275590551
          },
          {
            "number": 2,
            "time": 126.5079538000005,
            "value": 0.7637795275590551
          },
          {
            "number": 2,
            "time": 126.50959853333383,
            "value": 0.7559055118110236
          },
          {
            "number": 2,
            "time": 126.51124326666717,
            "value": 0.7559055118110236
          },
          {
            "number": 2,
            "time": 127.8944640000005,
            "value": 0.7559055118110236
          },
          {
            "number": 2,
            "time": 128.2892000000005,
            "value": 0.7559055118110236
          },
          {
            "number": 2,
            "time": 129.4734080000005,
            "value": 1
          },
          {
            "number": 2,
            "time": 129.54413153333383,
            "value": 0.9921259842519685
          },
          {
            "number": 2,
            "time": 129.54906573333383,
            "value": 0.984251968503937
          },
          {
            "number": 2,
            "time": 129.5523552000005,
            "value": 0.9763779527559056
          },
          {
            "number": 2,
            "time": 129.5572894000005,
            "value": 0.968503937007874
          },
          {
            "number": 2,
            "time": 129.56057886666719,
            "value": 0.9606299212598425
          },
          {
            "number": 2,
            "time": 129.5655130666672,
            "value": 0.952755905511811
          },
          {
            "number": 2,
            "time": 129.56880253333387,
            "value": 0.9448818897637795
          },
          {
            "number": 2,
            "time": 129.57373673333387,
            "value": 0.937007874015748
          },
          {
            "number": 2,
            "time": 129.57702620000055,
            "value": 0.9291338582677166
          },
          {
            "number": 2,
            "time": 129.58196040000055,
            "value": 0.9212598425196851
          },
          {
            "number": 2,
            "time": 129.58524986666723,
            "value": 0.9133858267716536
          },
          {
            "number": 2,
            "time": 129.59018406666723,
            "value": 0.905511811023622
          },
          {
            "number": 2,
            "time": 129.5934735333339,
            "value": 0.8976377952755905
          },
          {
            "number": 2,
            "time": 129.59840773333391,
            "value": 0.889763779527559
          },
          {
            "number": 2,
            "time": 129.6016972000006,
            "value": 0.8818897637795275
          },
          {
            "number": 2,
            "time": 129.6066314000006,
            "value": 0.8740157480314961
          },
          {
            "number": 2,
            "time": 129.60992086666727,
            "value": 0.8661417322834646
          },
          {
            "number": 2,
            "time": 129.61485506666727,
            "value": 0.8582677165354331
          },
          {
            "number": 2,
            "time": 129.61814453333395,
            "value": 0.8503937007874016
          },
          {
            "number": 2,
            "time": 129.62307873333395,
            "value": 0.84251968503937
          },
          {
            "number": 2,
            "time": 129.62636820000063,
            "value": 0.8346456692913385
          },
          {
            "number": 2,
            "time": 129.63130240000064,
            "value": 0.8267716535433071
          },
          {
            "number": 2,
            "time": 129.6345918666673,
            "value": 0.8188976377952756
          },
          {
            "number": 2,
            "time": 129.63952606666732,
            "value": 0.8110236220472441
          },
          {
            "number": 2,
            "time": 129.642815533334,
            "value": 0.8031496062992126
          },
          {
            "number": 2,
            "time": 129.647749733334,
            "value": 0.7952755905511811
          },
          {
            "number": 2,
            "time": 129.65103920000067,
            "value": 0.7874015748031497
          },
          {
            "number": 2,
            "time": 129.65597340000068,
            "value": 0.7795275590551181
          },
          {
            "number": 2,
            "time": 129.65926286666735,
            "value": 0.7716535433070866
          },
          {
            "number": 2,
            "time": 129.66419706666736,
            "value": 0.7637795275590551
          },
          {
            "number": 2,
            "time": 129.66748653333403,
            "value": 0.7559055118110236
          },
          {
            "number": 2,
            "time": 132.6312960000004,
            "value": 0.6299212598425197
          },
          {
            "number": 2,
            "time": 132.6312960000004,
            "value": 0.9448818897637795
          },
          {
            "number": 2,
            "time": 132.63294073333373,
            "value": 0.937007874015748
          },
          {
            "number": 2,
            "time": 132.63458546666706,
            "value": 0.937007874015748
          },
          {
            "number": 2,
            "time": 132.6362302000004,
            "value": 0.937007874015748
          },
          {
            "number": 2,
            "time": 132.63787493333373,
            "value": 0.9291338582677166
          },
          {
            "number": 2,
            "time": 132.63951966666707,
            "value": 0.9291338582677166
          },
          {
            "number": 2,
            "time": 132.6411644000004,
            "value": 0.9291338582677166
          },
          {
            "number": 2,
            "time": 132.64280913333374,
            "value": 0.9212598425196851
          },
          {
            "number": 2,
            "time": 132.64445386666708,
            "value": 0.9212598425196851
          },
          {
            "number": 2,
            "time": 132.6460986000004,
            "value": 0.9212598425196851
          },
          {
            "number": 2,
            "time": 132.64774333333375,
            "value": 0.9133858267716536
          },
          {
            "number": 2,
            "time": 132.6493880666671,
            "value": 0.9133858267716536
          },
          {
            "number": 2,
            "time": 132.65103280000042,
            "value": 0.9133858267716536
          },
          {
            "number": 2,
            "time": 132.65267753333376,
            "value": 0.905511811023622
          },
          {
            "number": 2,
            "time": 132.6543222666671,
            "value": 0.905511811023622
          },
          {
            "number": 2,
            "time": 132.65596700000043,
            "value": 0.905511811023622
          },
          {
            "number": 2,
            "time": 132.65761173333377,
            "value": 0.8976377952755905
          },
          {
            "number": 2,
            "time": 132.6592564666671,
            "value": 0.8976377952755905
          },
          {
            "number": 2,
            "time": 132.66090120000044,
            "value": 0.8976377952755905
          },
          {
            "number": 2,
            "time": 132.66254593333377,
            "value": 0.889763779527559
          },
          {
            "number": 2,
            "time": 132.6641906666671,
            "value": 0.889763779527559
          },
          {
            "number": 2,
            "time": 132.66583540000045,
            "value": 0.889763779527559
          },
          {
            "number": 2,
            "time": 132.66748013333378,
            "value": 0.8818897637795275
          },
          {
            "number": 2,
            "time": 132.66912486666712,
            "value": 0.8818897637795275
          },
          {
            "number": 2,
            "time": 132.67076960000045,
            "value": 0.8818897637795275
          },
          {
            "number": 2,
            "time": 132.6724143333338,
            "value": 0.8740157480314961
          },
          {
            "number": 2,
            "time": 132.67405906666713,
            "value": 0.8740157480314961
          },
          {
            "number": 2,
            "time": 132.67570380000046,
            "value": 0.8740157480314961
          },
          {
            "number": 2,
            "time": 132.6773485333338,
            "value": 0.8661417322834646
          },
          {
            "number": 2,
            "time": 132.67899326666713,
            "value": 0.8661417322834646
          },
          {
            "number": 2,
            "time": 132.68063800000047,
            "value": 0.8661417322834646
          },
          {
            "number": 2,
            "time": 132.6822827333338,
            "value": 0.8582677165354331
          },
          {
            "number": 2,
            "time": 132.68392746666714,
            "value": 0.8582677165354331
          },
          {
            "number": 2,
            "time": 132.68557220000048,
            "value": 0.8582677165354331
          },
          {
            "number": 2,
            "time": 132.68721693333381,
            "value": 0.8503937007874016
          },
          {
            "number": 2,
            "time": 132.68886166666715,
            "value": 0.8503937007874016
          },
          {
            "number": 2,
            "time": 132.6905064000005,
            "value": 0.8503937007874016
          },
          {
            "number": 2,
            "time": 132.69215113333382,
            "value": 0.84251968503937
          },
          {
            "number": 2,
            "time": 132.69379586666716,
            "value": 0.84251968503937
          },
          {
            "number": 2,
            "time": 132.6954406000005,
            "value": 0.84251968503937
          },
          {
            "number": 2,
            "time": 132.69708533333383,
            "value": 0.8346456692913385
          },
          {
            "number": 2,
            "time": 132.69873006666717,
            "value": 0.8346456692913385
          },
          {
            "number": 2,
            "time": 132.7003748000005,
            "value": 0.8346456692913385
          },
          {
            "number": 2,
            "time": 132.70201953333384,
            "value": 0.8267716535433071
          },
          {
            "number": 2,
            "time": 132.70366426666718,
            "value": 0.8267716535433071
          },
          {
            "number": 2,
            "time": 132.7053090000005,
            "value": 0.8267716535433071
          },
          {
            "number": 2,
            "time": 132.70695373333385,
            "value": 0.8188976377952756
          },
          {
            "number": 2,
            "time": 132.70859846666718,
            "value": 0.8188976377952756
          },
          {
            "number": 2,
            "time": 132.71024320000052,
            "value": 0.8188976377952756
          },
          {
            "number": 2,
            "time": 132.71188793333386,
            "value": 0.8110236220472441
          },
          {
            "number": 2,
            "time": 132.7135326666672,
            "value": 0.8110236220472441
          },
          {
            "number": 2,
            "time": 132.71517740000053,
            "value": 0.8110236220472441
          },
          {
            "number": 2,
            "time": 132.71682213333386,
            "value": 0.8031496062992126
          },
          {
            "number": 2,
            "time": 132.7184668666672,
            "value": 0.8031496062992126
          },
          {
            "number": 2,
            "time": 132.72011160000054,
            "value": 0.8031496062992126
          },
          {
            "number": 2,
            "time": 132.72175633333387,
            "value": 0.7952755905511811
          },
          {
            "number": 2,
            "time": 132.7234010666672,
            "value": 0.7952755905511811
          },
          {
            "number": 2,
            "time": 132.72504580000054,
            "value": 0.7952755905511811
          },
          {
            "number": 2,
            "time": 132.72669053333388,
            "value": 0.7874015748031497
          },
          {
            "number": 2,
            "time": 132.72833526666722,
            "value": 0.7874015748031497
          },
          {
            "number": 2,
            "time": 132.72998000000055,
            "value": 0.7874015748031497
          },
          {
            "number": 2,
            "time": 132.7316247333339,
            "value": 0.7795275590551181
          },
          {
            "number": 2,
            "time": 132.73326946666722,
            "value": 0.7795275590551181
          },
          {
            "number": 2,
            "time": 132.73491420000056,
            "value": 0.7795275590551181
          },
          {
            "number": 2,
            "time": 132.7365589333339,
            "value": 0.7716535433070866
          },
          {
            "number": 2,
            "time": 132.73820366666723,
            "value": 0.7716535433070866
          },
          {
            "number": 2,
            "time": 132.73984840000057,
            "value": 0.7716535433070866
          },
          {
            "number": 2,
            "time": 132.7414931333339,
            "value": 0.7637795275590551
          },
          {
            "number": 2,
            "time": 132.74313786666724,
            "value": 0.7637795275590551
          },
          {
            "number": 2,
            "time": 132.74478260000058,
            "value": 0.7637795275590551
          },
          {
            "number": 2,
            "time": 132.7464273333339,
            "value": 0.7559055118110236
          },
          {
            "number": 2,
            "time": 132.74807206666725,
            "value": 0.7559055118110236
          },
          {
            "number": 2,
            "time": 132.74971680000058,
            "value": 0.7559055118110236
          },
          {
            "number": 2,
            "time": 132.75136153333392,
            "value": 0.7480314960629921
          },
          {
            "number": 2,
            "time": 132.75300626666726,
            "value": 0.7480314960629921
          },
          {
            "number": 2,
            "time": 132.7546510000006,
            "value": 0.7480314960629921
          },
          {
            "number": 2,
            "time": 132.75629573333393,
            "value": 0.7401574803149606
          },
          {
            "number": 2,
            "time": 132.75794046666726,
            "value": 0.7401574803149606
          },
          {
            "number": 2,
            "time": 132.7595852000006,
            "value": 0.7401574803149606
          },
          {
            "number": 2,
            "time": 132.76122993333394,
            "value": 0.7322834645669292
          },
          {
            "number": 2,
            "time": 132.76287466666727,
            "value": 0.7322834645669292
          },
          {
            "number": 2,
            "time": 132.7645194000006,
            "value": 0.7322834645669292
          },
          {
            "number": 2,
            "time": 132.76616413333394,
            "value": 0.7244094488188977
          },
          {
            "number": 2,
            "time": 132.76780886666728,
            "value": 0.7244094488188977
          },
          {
            "number": 2,
            "time": 132.76945360000062,
            "value": 0.7244094488188977
          },
          {
            "number": 2,
            "time": 132.77109833333395,
            "value": 0.7165354330708661
          },
          {
            "number": 2,
            "time": 132.7727430666673,
            "value": 0.7165354330708661
          },
          {
            "number": 2,
            "time": 132.77438780000062,
            "value": 0.7165354330708661
          },
          {
            "number": 2,
            "time": 132.77603253333396,
            "value": 0.7086614173228346
          },
          {
            "number": 2,
            "time": 132.7776772666673,
            "value": 0.7086614173228346
          },
          {
            "number": 2,
            "time": 132.77932200000063,
            "value": 0.7086614173228346
          },
          {
            "number": 2,
            "time": 132.78096673333397,
            "value": 0.7007874015748031
          },
          {
            "number": 2,
            "time": 132.7826114666673,
            "value": 0.7007874015748031
          },
          {
            "number": 2,
            "time": 132.78425620000064,
            "value": 0.7007874015748031
          },
          {
            "number": 2,
            "time": 132.78590093333398,
            "value": 0.6929133858267716
          },
          {
            "number": 2,
            "time": 132.7875456666673,
            "value": 0.6929133858267716
          },
          {
            "number": 2,
            "time": 132.78919040000065,
            "value": 0.6929133858267716
          },
          {
            "number": 2,
            "time": 132.79083513333399,
            "value": 0.6850393700787402
          },
          {
            "number": 2,
            "time": 132.79247986666732,
            "value": 0.6850393700787402
          },
          {
            "number": 2,
            "time": 132.79412460000066,
            "value": 0.6850393700787402
          },
          {
            "number": 2,
            "time": 132.795769333334,
            "value": 0.6771653543307087
          },
          {
            "number": 2,
            "time": 132.79741406666733,
            "value": 0.6771653543307087
          },
          {
            "number": 2,
            "time": 132.79905880000067,
            "value": 0.6771653543307087
          },
          {
            "number": 2,
            "time": 132.800703533334,
            "value": 0.6692913385826772
          },
          {
            "number": 2,
            "time": 132.80234826666734,
            "value": 0.6692913385826772
          },
          {
            "number": 2,
            "time": 132.80399300000067,
            "value": 0.6692913385826772
          },
          {
            "number": 2,
            "time": 132.805637733334,
            "value": 0.6614173228346457
          },
          {
            "number": 2,
            "time": 132.80728246666735,
            "value": 0.6614173228346457
          },
          {
            "number": 2,
            "time": 132.80892720000068,
            "value": 0.6614173228346457
          },
          {
            "number": 2,
            "time": 132.81057193333402,
            "value": 0.6535433070866141
          },
          {
            "number": 2,
            "time": 132.81221666666735,
            "value": 0.6535433070866141
          },
          {
            "number": 2,
            "time": 132.8138614000007,
            "value": 0.6535433070866141
          },
          {
            "number": 2,
            "time": 132.81550613333403,
            "value": 0.6456692913385826
          },
          {
            "number": 2,
            "time": 132.81715086666736,
            "value": 0.6456692913385826
          },
          {
            "number": 2,
            "time": 132.8187956000007,
            "value": 0.6456692913385826
          },
          {
            "number": 2,
            "time": 132.82044033333403,
            "value": 0.6377952755905512
          },
          {
            "number": 2,
            "time": 132.82208506666737,
            "value": 0.6377952755905512
          },
          {
            "number": 2,
            "time": 132.8237298000007,
            "value": 0.6377952755905512
          },
          {
            "number": 2,
            "time": 132.82537453333404,
            "value": 0.6299212598425197
          },
          {
            "number": 2,
            "time": 132.82701926666738,
            "value": 0.6299212598425197
          },
          {
            "number": 2,
            "time": 133.02603200000073,
            "value": 0.6299212598425197
          },
          {
            "number": 2,
            "time": 133.81550400000074,
            "value": 0.6299212598425197
          },
          {
            "number": 2,
            "time": 134.21024000000074,
            "value": 0.9448818897637795
          },
          {
            "number": 2,
            "time": 134.21188473333407,
            "value": 0.937007874015748
          },
          {
            "number": 2,
            "time": 134.2135294666674,
            "value": 0.937007874015748
          },
          {
            "number": 2,
            "time": 134.21517420000075,
            "value": 0.937007874015748
          },
          {
            "number": 2,
            "time": 134.21681893333408,
            "value": 0.9291338582677166
          },
          {
            "number": 2,
            "time": 134.21846366666742,
            "value": 0.9291338582677166
          },
          {
            "number": 2,
            "time": 134.22010840000075,
            "value": 0.9291338582677166
          },
          {
            "number": 2,
            "time": 134.2217531333341,
            "value": 0.9212598425196851
          },
          {
            "number": 2,
            "time": 134.22339786666743,
            "value": 0.9212598425196851
          },
          {
            "number": 2,
            "time": 134.22504260000076,
            "value": 0.9212598425196851
          },
          {
            "number": 2,
            "time": 134.2266873333341,
            "value": 0.9133858267716536
          },
          {
            "number": 2,
            "time": 134.22833206666743,
            "value": 0.9133858267716536
          },
          {
            "number": 2,
            "time": 134.22997680000077,
            "value": 0.9133858267716536
          },
          {
            "number": 2,
            "time": 134.2316215333341,
            "value": 0.905511811023622
          },
          {
            "number": 2,
            "time": 134.23326626666744,
            "value": 0.905511811023622
          },
          {
            "number": 2,
            "time": 134.23491100000078,
            "value": 0.905511811023622
          },
          {
            "number": 2,
            "time": 134.23655573333411,
            "value": 0.8976377952755905
          },
          {
            "number": 2,
            "time": 134.23820046666745,
            "value": 0.8976377952755905
          },
          {
            "number": 2,
            "time": 134.2398452000008,
            "value": 0.8976377952755905
          },
          {
            "number": 2,
            "time": 134.24148993333412,
            "value": 0.889763779527559
          },
          {
            "number": 2,
            "time": 134.24313466666746,
            "value": 0.889763779527559
          },
          {
            "number": 2,
            "time": 134.2447794000008,
            "value": 0.889763779527559
          },
          {
            "number": 2,
            "time": 134.24642413333413,
            "value": 0.8818897637795275
          },
          {
            "number": 2,
            "time": 134.24806886666747,
            "value": 0.8818897637795275
          },
          {
            "number": 2,
            "time": 134.2497136000008,
            "value": 0.8818897637795275
          },
          {
            "number": 2,
            "time": 134.25135833333414,
            "value": 0.8740157480314961
          },
          {
            "number": 2,
            "time": 134.25300306666747,
            "value": 0.8740157480314961
          },
          {
            "number": 2,
            "time": 134.2546478000008,
            "value": 0.8740157480314961
          },
          {
            "number": 2,
            "time": 134.25629253333415,
            "value": 0.8661417322834646
          },
          {
            "number": 2,
            "time": 134.25793726666748,
            "value": 0.8661417322834646
          },
          {
            "number": 2,
            "time": 134.25958200000082,
            "value": 0.8661417322834646
          },
          {
            "number": 2,
            "time": 134.26122673333415,
            "value": 0.8582677165354331
          },
          {
            "number": 2,
            "time": 134.2628714666675,
            "value": 0.8582677165354331
          },
          {
            "number": 2,
            "time": 134.26451620000083,
            "value": 0.8582677165354331
          },
          {
            "number": 2,
            "time": 134.26616093333416,
            "value": 0.8503937007874016
          },
          {
            "number": 2,
            "time": 134.2678056666675,
            "value": 0.8503937007874016
          },
          {
            "number": 2,
            "time": 134.26945040000084,
            "value": 0.8503937007874016
          },
          {
            "number": 2,
            "time": 134.27109513333417,
            "value": 0.84251968503937
          },
          {
            "number": 2,
            "time": 134.2727398666675,
            "value": 0.84251968503937
          },
          {
            "number": 2,
            "time": 134.27438460000084,
            "value": 0.84251968503937
          },
          {
            "number": 2,
            "time": 134.27602933333418,
            "value": 0.8346456692913385
          },
          {
            "number": 2,
            "time": 134.27767406666752,
            "value": 0.8346456692913385
          },
          {
            "number": 2,
            "time": 134.27931880000085,
            "value": 0.8346456692913385
          },
          {
            "number": 2,
            "time": 134.2809635333342,
            "value": 0.8267716535433071
          },
          {
            "number": 2,
            "time": 134.28260826666752,
            "value": 0.8267716535433071
          },
          {
            "number": 2,
            "time": 134.28425300000086,
            "value": 0.8267716535433071
          },
          {
            "number": 2,
            "time": 134.2858977333342,
            "value": 0.8188976377952756
          },
          {
            "number": 2,
            "time": 134.28754246666753,
            "value": 0.8188976377952756
          },
          {
            "number": 2,
            "time": 134.28918720000087,
            "value": 0.8188976377952756
          },
          {
            "number": 2,
            "time": 134.2908319333342,
            "value": 0.8110236220472441
          },
          {
            "number": 2,
            "time": 134.29247666666754,
            "value": 0.8110236220472441
          },
          {
            "number": 2,
            "time": 134.29412140000088,
            "value": 0.8110236220472441
          },
          {
            "number": 2,
            "time": 134.2957661333342,
            "value": 0.8031496062992126
          },
          {
            "number": 2,
            "time": 134.29741086666755,
            "value": 0.8031496062992126
          },
          {
            "number": 2,
            "time": 134.29905560000088,
            "value": 0.8031496062992126
          },
          {
            "number": 2,
            "time": 134.30070033333422,
            "value": 0.7952755905511811
          },
          {
            "number": 2,
            "time": 134.30234506666756,
            "value": 0.7952755905511811
          },
          {
            "number": 2,
            "time": 134.3039898000009,
            "value": 0.7952755905511811
          },
          {
            "number": 2,
            "time": 134.30563453333423,
            "value": 0.7874015748031497
          },
          {
            "number": 2,
            "time": 134.30727926666756,
            "value": 0.7874015748031497
          },
          {
            "number": 2,
            "time": 134.3089240000009,
            "value": 0.7874015748031497
          },
          {
            "number": 2,
            "time": 134.31056873333424,
            "value": 0.7795275590551181
          },
          {
            "number": 2,
            "time": 134.31221346666757,
            "value": 0.7795275590551181
          },
          {
            "number": 2,
            "time": 134.3138582000009,
            "value": 0.7795275590551181
          },
          {
            "number": 2,
            "time": 134.31550293333424,
            "value": 0.7716535433070866
          },
          {
            "number": 2,
            "time": 134.31714766666758,
            "value": 0.7716535433070866
          },
          {
            "number": 2,
            "time": 134.31879240000092,
            "value": 0.7716535433070866
          },
          {
            "number": 2,
            "time": 134.32043713333425,
            "value": 0.7637795275590551
          },
          {
            "number": 2,
            "time": 134.3220818666676,
            "value": 0.7637795275590551
          },
          {
            "number": 2,
            "time": 134.32372660000092,
            "value": 0.7637795275590551
          },
          {
            "number": 2,
            "time": 134.32537133333426,
            "value": 0.7559055118110236
          },
          {
            "number": 2,
            "time": 134.3270160666676,
            "value": 0.7559055118110236
          },
          {
            "number": 2,
            "time": 134.32866080000093,
            "value": 0.7559055118110236
          },
          {
            "number": 2,
            "time": 134.33030553333427,
            "value": 0.7480314960629921
          },
          {
            "number": 2,
            "time": 134.3319502666676,
            "value": 0.7480314960629921
          },
          {
            "number": 2,
            "time": 134.33359500000094,
            "value": 0.7480314960629921
          },
          {
            "number": 2,
            "time": 134.33523973333428,
            "value": 0.7401574803149606
          },
          {
            "number": 2,
            "time": 134.3368844666676,
            "value": 0.7401574803149606
          },
          {
            "number": 2,
            "time": 134.33852920000095,
            "value": 0.7401574803149606
          },
          {
            "number": 2,
            "time": 134.34017393333428,
            "value": 0.7322834645669292
          },
          {
            "number": 2,
            "time": 134.34181866666762,
            "value": 0.7322834645669292
          },
          {
            "number": 2,
            "time": 134.34346340000096,
            "value": 0.7322834645669292
          },
          {
            "number": 2,
            "time": 134.3451081333343,
            "value": 0.7244094488188977
          },
          {
            "number": 2,
            "time": 134.34675286666763,
            "value": 0.7244094488188977
          },
          {
            "number": 2,
            "time": 134.34839760000096,
            "value": 0.7244094488188977
          },
          {
            "number": 2,
            "time": 134.3500423333343,
            "value": 0.7165354330708661
          },
          {
            "number": 2,
            "time": 134.35168706666764,
            "value": 0.7165354330708661
          },
          {
            "number": 2,
            "time": 134.35333180000097,
            "value": 0.7165354330708661
          },
          {
            "number": 2,
            "time": 134.3549765333343,
            "value": 0.7086614173228346
          },
          {
            "number": 2,
            "time": 134.35662126666764,
            "value": 0.7086614173228346
          },
          {
            "number": 2,
            "time": 134.35826600000098,
            "value": 0.7086614173228346
          },
          {
            "number": 2,
            "time": 134.35991073333432,
            "value": 0.7007874015748031
          },
          {
            "number": 2,
            "time": 134.36155546666765,
            "value": 0.7007874015748031
          },
          {
            "number": 2,
            "time": 134.363200200001,
            "value": 0.7007874015748031
          },
          {
            "number": 2,
            "time": 134.36484493333433,
            "value": 0.6929133858267716
          },
          {
            "number": 2,
            "time": 134.36648966666766,
            "value": 0.6929133858267716
          },
          {
            "number": 2,
            "time": 134.368134400001,
            "value": 0.6929133858267716
          },
          {
            "number": 2,
            "time": 134.36977913333433,
            "value": 0.6850393700787402
          },
          {
            "number": 2,
            "time": 134.37142386666767,
            "value": 0.6850393700787402
          },
          {
            "number": 2,
            "time": 134.373068600001,
            "value": 0.6850393700787402
          },
          {
            "number": 2,
            "time": 134.37471333333434,
            "value": 0.6771653543307087
          },
          {
            "number": 2,
            "time": 134.37635806666768,
            "value": 0.6771653543307087
          },
          {
            "number": 2,
            "time": 134.378002800001,
            "value": 0.6771653543307087
          },
          {
            "number": 2,
            "time": 134.37964753333435,
            "value": 0.6692913385826772
          },
          {
            "number": 2,
            "time": 134.38129226666769,
            "value": 0.6692913385826772
          },
          {
            "number": 2,
            "time": 134.38293700000102,
            "value": 0.6692913385826772
          },
          {
            "number": 2,
            "time": 134.38458173333436,
            "value": 0.6614173228346457
          },
          {
            "number": 2,
            "time": 134.3862264666677,
            "value": 0.6614173228346457
          },
          {
            "number": 2,
            "time": 134.38787120000103,
            "value": 0.6614173228346457
          },
          {
            "number": 2,
            "time": 134.38951593333437,
            "value": 0.6535433070866141
          },
          {
            "number": 2,
            "time": 134.3911606666677,
            "value": 0.6535433070866141
          },
          {
            "number": 2,
            "time": 134.39280540000104,
            "value": 0.6535433070866141
          },
          {
            "number": 2,
            "time": 134.39445013333437,
            "value": 0.6456692913385826
          },
          {
            "number": 2,
            "time": 134.3960948666677,
            "value": 0.6456692913385826
          },
          {
            "number": 2,
            "time": 134.39773960000105,
            "value": 0.6456692913385826
          },
          {
            "number": 2,
            "time": 134.39938433333438,
            "value": 0.6377952755905512
          },
          {
            "number": 2,
            "time": 134.40102906666772,
            "value": 0.6377952755905512
          },
          {
            "number": 2,
            "time": 134.40267380000105,
            "value": 0.6377952755905512
          },
          {
            "number": 2,
            "time": 134.4043185333344,
            "value": 0.6299212598425197
          },
          {
            "number": 2,
            "time": 134.40596326666773,
            "value": 0.6299212598425197
          },
          {
            "number": 2,
            "time": 134.60497600000107,
            "value": 0.6299212598425197
          },
          {
            "number": 2,
            "time": 135.3944480000011,
            "value": 0.6299212598425197
          },
          {
            "number": 2,
            "time": 135.7891840000011,
            "value": 0.9448818897637795
          },
          {
            "number": 2,
            "time": 135.79082873333442,
            "value": 0.937007874015748
          },
          {
            "number": 2,
            "time": 135.79247346666776,
            "value": 0.937007874015748
          },
          {
            "number": 2,
            "time": 135.7941182000011,
            "value": 0.937007874015748
          },
          {
            "number": 2,
            "time": 135.79576293333443,
            "value": 0.9291338582677166
          },
          {
            "number": 2,
            "time": 135.79740766666777,
            "value": 0.9291338582677166
          },
          {
            "number": 2,
            "time": 135.7990524000011,
            "value": 0.9291338582677166
          },
          {
            "number": 2,
            "time": 135.80069713333444,
            "value": 0.9212598425196851
          },
          {
            "number": 2,
            "time": 135.80234186666777,
            "value": 0.9212598425196851
          },
          {
            "number": 2,
            "time": 135.8039866000011,
            "value": 0.9212598425196851
          },
          {
            "number": 2,
            "time": 135.80563133333445,
            "value": 0.9133858267716536
          },
          {
            "number": 2,
            "time": 135.80727606666778,
            "value": 0.9133858267716536
          },
          {
            "number": 2,
            "time": 135.80892080000112,
            "value": 0.9133858267716536
          },
          {
            "number": 2,
            "time": 135.81056553333445,
            "value": 0.905511811023622
          },
          {
            "number": 2,
            "time": 135.8122102666678,
            "value": 0.905511811023622
          },
          {
            "number": 2,
            "time": 135.81385500000113,
            "value": 0.905511811023622
          },
          {
            "number": 2,
            "time": 135.81549973333446,
            "value": 0.8976377952755905
          },
          {
            "number": 2,
            "time": 135.8171444666678,
            "value": 0.8976377952755905
          },
          {
            "number": 2,
            "time": 135.81878920000113,
            "value": 0.8976377952755905
          },
          {
            "number": 2,
            "time": 135.82043393333447,
            "value": 0.889763779527559
          },
          {
            "number": 2,
            "time": 135.8220786666678,
            "value": 0.889763779527559
          },
          {
            "number": 2,
            "time": 135.82372340000114,
            "value": 0.889763779527559
          },
          {
            "number": 2,
            "time": 135.82536813333448,
            "value": 0.8818897637795275
          },
          {
            "number": 2,
            "time": 135.82701286666781,
            "value": 0.8818897637795275
          },
          {
            "number": 2,
            "time": 135.82865760000115,
            "value": 0.8818897637795275
          },
          {
            "number": 2,
            "time": 135.8303023333345,
            "value": 0.8740157480314961
          },
          {
            "number": 2,
            "time": 135.83194706666782,
            "value": 0.8740157480314961
          },
          {
            "number": 2,
            "time": 135.83359180000116,
            "value": 0.8740157480314961
          },
          {
            "number": 2,
            "time": 135.8352365333345,
            "value": 0.8661417322834646
          },
          {
            "number": 2,
            "time": 135.83688126666783,
            "value": 0.8661417322834646
          },
          {
            "number": 2,
            "time": 135.83852600000117,
            "value": 0.8661417322834646
          },
          {
            "number": 2,
            "time": 135.8401707333345,
            "value": 0.8582677165354331
          },
          {
            "number": 2,
            "time": 135.84181546666784,
            "value": 0.8582677165354331
          },
          {
            "number": 2,
            "time": 135.84346020000118,
            "value": 0.8582677165354331
          },
          {
            "number": 2,
            "time": 135.8451049333345,
            "value": 0.8503937007874016
          },
          {
            "number": 2,
            "time": 135.84674966666785,
            "value": 0.8503937007874016
          },
          {
            "number": 2,
            "time": 135.84839440000118,
            "value": 0.8503937007874016
          },
          {
            "number": 2,
            "time": 135.85003913333452,
            "value": 0.84251968503937
          },
          {
            "number": 2,
            "time": 135.85168386666786,
            "value": 0.84251968503937
          },
          {
            "number": 2,
            "time": 135.8533286000012,
            "value": 0.84251968503937
          },
          {
            "number": 2,
            "time": 135.85497333333453,
            "value": 0.8346456692913385
          },
          {
            "number": 2,
            "time": 135.85661806666786,
            "value": 0.8346456692913385
          },
          {
            "number": 2,
            "time": 135.8582628000012,
            "value": 0.8346456692913385
          },
          {
            "number": 2,
            "time": 135.85990753333454,
            "value": 0.8267716535433071
          },
          {
            "number": 2,
            "time": 135.86155226666787,
            "value": 0.8267716535433071
          },
          {
            "number": 2,
            "time": 135.8631970000012,
            "value": 0.8267716535433071
          },
          {
            "number": 2,
            "time": 135.86484173333454,
            "value": 0.8188976377952756
          },
          {
            "number": 2,
            "time": 135.86648646666788,
            "value": 0.8188976377952756
          },
          {
            "number": 2,
            "time": 135.86813120000122,
            "value": 0.8188976377952756
          },
          {
            "number": 2,
            "time": 135.86977593333455,
            "value": 0.8110236220472441
          },
          {
            "number": 2,
            "time": 135.8714206666679,
            "value": 0.8110236220472441
          },
          {
            "number": 2,
            "time": 135.87306540000122,
            "value": 0.8110236220472441
          },
          {
            "number": 2,
            "time": 135.87471013333456,
            "value": 0.8031496062992126
          },
          {
            "number": 2,
            "time": 135.8763548666679,
            "value": 0.8031496062992126
          },
          {
            "number": 2,
            "time": 135.87799960000123,
            "value": 0.8031496062992126
          },
          {
            "number": 2,
            "time": 135.87964433333457,
            "value": 0.7952755905511811
          },
          {
            "number": 2,
            "time": 135.8812890666679,
            "value": 0.7952755905511811
          },
          {
            "number": 2,
            "time": 135.88293380000124,
            "value": 0.7952755905511811
          },
          {
            "number": 2,
            "time": 135.88457853333458,
            "value": 0.7874015748031497
          },
          {
            "number": 2,
            "time": 135.8862232666679,
            "value": 0.7874015748031497
          },
          {
            "number": 2,
            "time": 135.88786800000125,
            "value": 0.7874015748031497
          },
          {
            "number": 2,
            "time": 135.88951273333458,
            "value": 0.7795275590551181
          },
          {
            "number": 2,
            "time": 135.89115746666792,
            "value": 0.7795275590551181
          },
          {
            "number": 2,
            "time": 135.89280220000126,
            "value": 0.7795275590551181
          },
          {
            "number": 2,
            "time": 135.8944469333346,
            "value": 0.7716535433070866
          },
          {
            "number": 2,
            "time": 135.89609166666793,
            "value": 0.7716535433070866
          },
          {
            "number": 2,
            "time": 135.89773640000126,
            "value": 0.7716535433070866
          },
          {
            "number": 2,
            "time": 135.8993811333346,
            "value": 0.7637795275590551
          },
          {
            "number": 2,
            "time": 135.90102586666794,
            "value": 0.7637795275590551
          },
          {
            "number": 2,
            "time": 135.90267060000127,
            "value": 0.7637795275590551
          },
          {
            "number": 2,
            "time": 135.9043153333346,
            "value": 0.7559055118110236
          },
          {
            "number": 2,
            "time": 135.90596006666794,
            "value": 0.7559055118110236
          },
          {
            "number": 2,
            "time": 135.90760480000128,
            "value": 0.7559055118110236
          },
          {
            "number": 2,
            "time": 135.90924953333462,
            "value": 0.7480314960629921
          },
          {
            "number": 2,
            "time": 135.91089426666795,
            "value": 0.7480314960629921
          },
          {
            "number": 2,
            "time": 135.9125390000013,
            "value": 0.7480314960629921
          },
          {
            "number": 2,
            "time": 135.91418373333462,
            "value": 0.7401574803149606
          },
          {
            "number": 2,
            "time": 135.91582846666796,
            "value": 0.7401574803149606
          },
          {
            "number": 2,
            "time": 135.9174732000013,
            "value": 0.7401574803149606
          },
          {
            "number": 2,
            "time": 135.91911793333463,
            "value": 0.7322834645669292
          },
          {
            "number": 2,
            "time": 135.92076266666797,
            "value": 0.7322834645669292
          },
          {
            "number": 2,
            "time": 135.9224074000013,
            "value": 0.7322834645669292
          },
          {
            "number": 2,
            "time": 135.92405213333464,
            "value": 0.7244094488188977
          },
          {
            "number": 2,
            "time": 135.92569686666798,
            "value": 0.7244094488188977
          },
          {
            "number": 2,
            "time": 135.9273416000013,
            "value": 0.7244094488188977
          },
          {
            "number": 2,
            "time": 135.92898633333465,
            "value": 0.7165354330708661
          },
          {
            "number": 2,
            "time": 135.93063106666798,
            "value": 0.7165354330708661
          },
          {
            "number": 2,
            "time": 135.93227580000132,
            "value": 0.7165354330708661
          },
          {
            "number": 2,
            "time": 135.93392053333466,
            "value": 0.7086614173228346
          },
          {
            "number": 2,
            "time": 135.935565266668,
            "value": 0.7086614173228346
          },
          {
            "number": 2,
            "time": 135.93721000000133,
            "value": 0.7086614173228346
          },
          {
            "number": 2,
            "time": 135.93885473333467,
            "value": 0.7007874015748031
          },
          {
            "number": 2,
            "time": 135.940499466668,
            "value": 0.7007874015748031
          },
          {
            "number": 2,
            "time": 135.94214420000134,
            "value": 0.7007874015748031
          },
          {
            "number": 2,
            "time": 135.94378893333467,
            "value": 0.6929133858267716
          },
          {
            "number": 2,
            "time": 135.945433666668,
            "value": 0.6929133858267716
          },
          {
            "number": 2,
            "time": 135.94707840000135,
            "value": 0.6929133858267716
          },
          {
            "number": 2,
            "time": 135.94872313333468,
            "value": 0.6850393700787402
          },
          {
            "number": 2,
            "time": 135.95036786666802,
            "value": 0.6850393700787402
          },
          {
            "number": 2,
            "time": 135.95201260000135,
            "value": 0.6850393700787402
          },
          {
            "number": 2,
            "time": 135.9536573333347,
            "value": 0.6771653543307087
          },
          {
            "number": 2,
            "time": 135.95530206666803,
            "value": 0.6771653543307087
          },
          {
            "number": 2,
            "time": 135.95694680000136,
            "value": 0.6771653543307087
          },
          {
            "number": 2,
            "time": 135.9585915333347,
            "value": 0.6692913385826772
          },
          {
            "number": 2,
            "time": 135.96023626666803,
            "value": 0.6692913385826772
          },
          {
            "number": 2,
            "time": 135.96188100000137,
            "value": 0.6692913385826772
          },
          {
            "number": 2,
            "time": 135.9635257333347,
            "value": 0.6614173228346457
          },
          {
            "number": 2,
            "time": 135.96517046666804,
            "value": 0.6614173228346457
          },
          {
            "number": 2,
            "time": 135.96681520000138,
            "value": 0.6614173228346457
          },
          {
            "number": 2,
            "time": 135.9684599333347,
            "value": 0.6535433070866141
          },
          {
            "number": 2,
            "time": 135.97010466666805,
            "value": 0.6535433070866141
          },
          {
            "number": 2,
            "time": 135.97174940000139,
            "value": 0.6535433070866141
          },
          {
            "number": 2,
            "time": 135.97339413333472,
            "value": 0.6456692913385826
          },
          {
            "number": 2,
            "time": 135.97503886666806,
            "value": 0.6456692913385826
          },
          {
            "number": 2,
            "time": 135.9766836000014,
            "value": 0.6456692913385826
          },
          {
            "number": 2,
            "time": 135.97832833333473,
            "value": 0.6377952755905512
          },
          {
            "number": 2,
            "time": 135.97997306666807,
            "value": 0.6377952755905512
          },
          {
            "number": 2,
            "time": 135.9816178000014,
            "value": 0.6377952755905512
          },
          {
            "number": 2,
            "time": 135.98326253333474,
            "value": 0.6299212598425197
          },
          {
            "number": 2,
            "time": 135.98490726666807,
            "value": 0.6299212598425197
          },
          {
            "number": 2,
            "time": 136.18392000000142,
            "value": 0.6299212598425197
          },
          {
            "number": 2,
            "time": 136.97339200000144,
            "value": 0.6299212598425197
          },
          {
            "number": 2,
            "time": 137.36812800000143,
            "value": 0.9448818897637795
          },
          {
            "number": 2,
            "time": 137.36977273333477,
            "value": 0.937007874015748
          },
          {
            "number": 2,
            "time": 137.3714174666681,
            "value": 0.937007874015748
          },
          {
            "number": 2,
            "time": 137.37306220000144,
            "value": 0.937007874015748
          },
          {
            "number": 2,
            "time": 137.37470693333478,
            "value": 0.9291338582677166
          },
          {
            "number": 2,
            "time": 137.3763516666681,
            "value": 0.9291338582677166
          },
          {
            "number": 2,
            "time": 137.37799640000145,
            "value": 0.9291338582677166
          },
          {
            "number": 2,
            "time": 137.3796411333348,
            "value": 0.9212598425196851
          },
          {
            "number": 2,
            "time": 137.38128586666812,
            "value": 0.9212598425196851
          },
          {
            "number": 2,
            "time": 137.38293060000146,
            "value": 0.9212598425196851
          },
          {
            "number": 2,
            "time": 137.3845753333348,
            "value": 0.9133858267716536
          },
          {
            "number": 2,
            "time": 137.38622006666813,
            "value": 0.9133858267716536
          },
          {
            "number": 2,
            "time": 137.38786480000147,
            "value": 0.9133858267716536
          },
          {
            "number": 2,
            "time": 137.3895095333348,
            "value": 0.905511811023622
          },
          {
            "number": 2,
            "time": 137.39115426666814,
            "value": 0.905511811023622
          },
          {
            "number": 2,
            "time": 137.39279900000147,
            "value": 0.905511811023622
          },
          {
            "number": 2,
            "time": 137.3944437333348,
            "value": 0.8976377952755905
          },
          {
            "number": 2,
            "time": 137.39608846666815,
            "value": 0.8976377952755905
          },
          {
            "number": 2,
            "time": 137.39773320000148,
            "value": 0.8976377952755905
          },
          {
            "number": 2,
            "time": 137.39937793333482,
            "value": 0.889763779527559
          },
          {
            "number": 2,
            "time": 137.40102266666815,
            "value": 0.889763779527559
          },
          {
            "number": 2,
            "time": 137.4026674000015,
            "value": 0.889763779527559
          },
          {
            "number": 2,
            "time": 137.40431213333483,
            "value": 0.8818897637795275
          },
          {
            "number": 2,
            "time": 137.40595686666816,
            "value": 0.8818897637795275
          },
          {
            "number": 2,
            "time": 137.4076016000015,
            "value": 0.8818897637795275
          },
          {
            "number": 2,
            "time": 137.40924633333483,
            "value": 0.8740157480314961
          },
          {
            "number": 2,
            "time": 137.41089106666817,
            "value": 0.8740157480314961
          },
          {
            "number": 2,
            "time": 137.4125358000015,
            "value": 0.8740157480314961
          },
          {
            "number": 2,
            "time": 137.41418053333484,
            "value": 0.8661417322834646
          },
          {
            "number": 2,
            "time": 137.41582526666818,
            "value": 0.8661417322834646
          },
          {
            "number": 2,
            "time": 137.41747000000152,
            "value": 0.8661417322834646
          },
          {
            "number": 2,
            "time": 137.41911473333485,
            "value": 0.8582677165354331
          },
          {
            "number": 2,
            "time": 137.4207594666682,
            "value": 0.8582677165354331
          },
          {
            "number": 2,
            "time": 137.42240420000152,
            "value": 0.8582677165354331
          },
          {
            "number": 2,
            "time": 137.42404893333486,
            "value": 0.8503937007874016
          },
          {
            "number": 2,
            "time": 137.4256936666682,
            "value": 0.8503937007874016
          },
          {
            "number": 2,
            "time": 137.42733840000153,
            "value": 0.8503937007874016
          },
          {
            "number": 2,
            "time": 137.42898313333487,
            "value": 0.84251968503937
          },
          {
            "number": 2,
            "time": 137.4306278666682,
            "value": 0.84251968503937
          },
          {
            "number": 2,
            "time": 137.43227260000154,
            "value": 0.84251968503937
          },
          {
            "number": 2,
            "time": 137.43391733333488,
            "value": 0.8346456692913385
          },
          {
            "number": 2,
            "time": 137.4355620666682,
            "value": 0.8346456692913385
          },
          {
            "number": 2,
            "time": 137.43720680000155,
            "value": 0.8346456692913385
          },
          {
            "number": 2,
            "time": 137.43885153333488,
            "value": 0.8267716535433071
          },
          {
            "number": 2,
            "time": 137.44049626666822,
            "value": 0.8267716535433071
          },
          {
            "number": 2,
            "time": 137.44214100000156,
            "value": 0.8267716535433071
          },
          {
            "number": 2,
            "time": 137.4437857333349,
            "value": 0.8188976377952756
          },
          {
            "number": 2,
            "time": 137.44543046666823,
            "value": 0.8188976377952756
          },
          {
            "number": 2,
            "time": 137.44707520000156,
            "value": 0.8188976377952756
          },
          {
            "number": 2,
            "time": 137.4487199333349,
            "value": 0.8110236220472441
          },
          {
            "number": 2,
            "time": 137.45036466666824,
            "value": 0.8110236220472441
          },
          {
            "number": 2,
            "time": 137.45200940000157,
            "value": 0.8110236220472441
          },
          {
            "number": 2,
            "time": 137.4536541333349,
            "value": 0.8031496062992126
          },
          {
            "number": 2,
            "time": 137.45529886666824,
            "value": 0.8031496062992126
          },
          {
            "number": 2,
            "time": 137.45694360000158,
            "value": 0.8031496062992126
          },
          {
            "number": 2,
            "time": 137.45858833333492,
            "value": 0.7952755905511811
          },
          {
            "number": 2,
            "time": 137.46023306666825,
            "value": 0.7952755905511811
          },
          {
            "number": 2,
            "time": 137.4618778000016,
            "value": 0.7952755905511811
          },
          {
            "number": 2,
            "time": 137.46352253333492,
            "value": 0.7874015748031497
          },
          {
            "number": 2,
            "time": 137.46516726666826,
            "value": 0.7874015748031497
          },
          {
            "number": 2,
            "time": 137.4668120000016,
            "value": 0.7874015748031497
          },
          {
            "number": 2,
            "time": 137.46845673333493,
            "value": 0.7795275590551181
          },
          {
            "number": 2,
            "time": 137.47010146666827,
            "value": 0.7795275590551181
          },
          {
            "number": 2,
            "time": 137.4717462000016,
            "value": 0.7795275590551181
          },
          {
            "number": 2,
            "time": 137.47339093333494,
            "value": 0.7716535433070866
          },
          {
            "number": 2,
            "time": 137.47503566666828,
            "value": 0.7716535433070866
          },
          {
            "number": 2,
            "time": 137.4766804000016,
            "value": 0.7716535433070866
          },
          {
            "number": 2,
            "time": 137.47832513333495,
            "value": 0.7637795275590551
          },
          {
            "number": 2,
            "time": 137.47996986666828,
            "value": 0.7637795275590551
          },
          {
            "number": 2,
            "time": 137.48161460000162,
            "value": 0.7637795275590551
          },
          {
            "number": 2,
            "time": 137.48325933333496,
            "value": 0.7559055118110236
          },
          {
            "number": 2,
            "time": 137.4849040666683,
            "value": 0.7559055118110236
          },
          {
            "number": 2,
            "time": 137.48654880000163,
            "value": 0.7559055118110236
          },
          {
            "number": 2,
            "time": 137.48819353333496,
            "value": 0.7480314960629921
          },
          {
            "number": 2,
            "time": 137.4898382666683,
            "value": 0.7480314960629921
          },
          {
            "number": 2,
            "time": 137.49148300000164,
            "value": 0.7480314960629921
          },
          {
            "number": 2,
            "time": 137.49312773333497,
            "value": 0.7401574803149606
          },
          {
            "number": 2,
            "time": 137.4947724666683,
            "value": 0.7401574803149606
          },
          {
            "number": 2,
            "time": 137.49641720000164,
            "value": 0.7401574803149606
          },
          {
            "number": 2,
            "time": 137.49806193333498,
            "value": 0.7322834645669292
          },
          {
            "number": 2,
            "time": 137.49970666666832,
            "value": 0.7322834645669292
          },
          {
            "number": 2,
            "time": 137.50135140000165,
            "value": 0.7322834645669292
          },
          {
            "number": 2,
            "time": 137.502996133335,
            "value": 0.7244094488188977
          },
          {
            "number": 2,
            "time": 137.50464086666832,
            "value": 0.7244094488188977
          },
          {
            "number": 2,
            "time": 137.50628560000166,
            "value": 0.7244094488188977
          },
          {
            "number": 2,
            "time": 137.507930333335,
            "value": 0.7165354330708661
          },
          {
            "number": 2,
            "time": 137.50957506666833,
            "value": 0.7165354330708661
          },
          {
            "number": 2,
            "time": 137.51121980000167,
            "value": 0.7165354330708661
          },
          {
            "number": 2,
            "time": 137.512864533335,
            "value": 0.7086614173228346
          },
          {
            "number": 2,
            "time": 137.51450926666834,
            "value": 0.7086614173228346
          },
          {
            "number": 2,
            "time": 137.51615400000168,
            "value": 0.7086614173228346
          },
          {
            "number": 2,
            "time": 137.517798733335,
            "value": 0.7007874015748031
          },
          {
            "number": 2,
            "time": 137.51944346666835,
            "value": 0.7007874015748031
          },
          {
            "number": 2,
            "time": 137.52108820000169,
            "value": 0.7007874015748031
          },
          {
            "number": 2,
            "time": 137.52273293333502,
            "value": 0.6929133858267716
          },
          {
            "number": 2,
            "time": 137.52437766666836,
            "value": 0.6929133858267716
          },
          {
            "number": 2,
            "time": 137.5260224000017,
            "value": 0.6929133858267716
          },
          {
            "number": 2,
            "time": 137.52766713333503,
            "value": 0.6850393700787402
          },
          {
            "number": 2,
            "time": 137.52931186666837,
            "value": 0.6850393700787402
          },
          {
            "number": 2,
            "time": 137.5309566000017,
            "value": 0.6850393700787402
          },
          {
            "number": 2,
            "time": 137.53260133333504,
            "value": 0.6771653543307087
          },
          {
            "number": 2,
            "time": 137.53424606666837,
            "value": 0.6771653543307087
          },
          {
            "number": 2,
            "time": 137.5358908000017,
            "value": 0.6771653543307087
          },
          {
            "number": 2,
            "time": 137.53753553333505,
            "value": 0.6692913385826772
          },
          {
            "number": 2,
            "time": 137.53918026666838,
            "value": 0.6692913385826772
          },
          {
            "number": 2,
            "time": 137.54082500000172,
            "value": 0.6692913385826772
          },
          {
            "number": 2,
            "time": 137.54246973333505,
            "value": 0.6614173228346457
          },
          {
            "number": 2,
            "time": 137.5441144666684,
            "value": 0.6614173228346457
          },
          {
            "number": 2,
            "time": 137.54575920000173,
            "value": 0.6614173228346457
          },
          {
            "number": 2,
            "time": 137.54740393333506,
            "value": 0.6535433070866141
          },
          {
            "number": 2,
            "time": 137.5490486666684,
            "value": 0.6535433070866141
          },
          {
            "number": 2,
            "time": 137.55069340000173,
            "value": 0.6535433070866141
          },
          {
            "number": 2,
            "time": 137.55233813333507,
            "value": 0.6456692913385826
          },
          {
            "number": 2,
            "time": 137.5539828666684,
            "value": 0.6456692913385826
          },
          {
            "number": 2,
            "time": 137.55562760000174,
            "value": 0.6456692913385826
          },
          {
            "number": 2,
            "time": 137.55727233333508,
            "value": 0.6377952755905512
          },
          {
            "number": 2,
            "time": 137.5589170666684,
            "value": 0.6377952755905512
          },
          {
            "number": 2,
            "time": 137.56056180000175,
            "value": 0.6377952755905512
          },
          {
            "number": 2,
            "time": 137.5622065333351,
            "value": 0.6299212598425197
          },
          {
            "number": 2,
            "time": 137.56385126666842,
            "value": 0.6299212598425197
          },
          {
            "number": 2,
            "time": 137.76286400000177,
            "value": 0.6299212598425197
          },
          {
            "number": 2,
            "time": 138.5523360000018,
            "value": 0.6299212598425197
          },
          {
            "number": 2,
            "time": 138.94707200000178,
            "value": 0.5039370078740157
          },
          {
            "number": 2,
            "time": 138.94707200000178,
            "value": 0.7559055118110236
          },
          {
            "number": 2,
            "time": 138.94871673333512,
            "value": 0.7480314960629921
          },
          {
            "number": 2,
            "time": 138.95365093333513,
            "value": 0.7401574803149606
          },
          {
            "number": 2,
            "time": 138.96022986666847,
            "value": 0.7322834645669292
          },
          {
            "number": 2,
            "time": 138.96680880000181,
            "value": 0.7244094488188977
          },
          {
            "number": 2,
            "time": 138.97338773333516,
            "value": 0.7165354330708661
          },
          {
            "number": 2,
            "time": 138.97832193333517,
            "value": 0.7086614173228346
          },
          {
            "number": 2,
            "time": 138.9849008666685,
            "value": 0.7007874015748031
          },
          {
            "number": 2,
            "time": 138.99147980000185,
            "value": 0.6929133858267716
          },
          {
            "number": 2,
            "time": 138.9980587333352,
            "value": 0.6850393700787402
          },
          {
            "number": 2,
            "time": 139.0029929333352,
            "value": 0.6771653543307087
          },
          {
            "number": 2,
            "time": 139.00957186666855,
            "value": 0.6692913385826772
          },
          {
            "number": 2,
            "time": 139.0161508000019,
            "value": 0.6614173228346457
          },
          {
            "number": 2,
            "time": 139.02272973333524,
            "value": 0.6535433070866141
          },
          {
            "number": 2,
            "time": 139.02766393333525,
            "value": 0.6456692913385826
          },
          {
            "number": 2,
            "time": 139.0342428666686,
            "value": 0.6377952755905512
          },
          {
            "number": 2,
            "time": 139.04082180000194,
            "value": 0.6299212598425197
          },
          {
            "number": 2,
            "time": 139.04740073333528,
            "value": 0.6220472440944882
          },
          {
            "number": 2,
            "time": 139.0523349333353,
            "value": 0.6141732283464567
          },
          {
            "number": 2,
            "time": 139.05891386666863,
            "value": 0.6062992125984252
          },
          {
            "number": 2,
            "time": 139.06549280000198,
            "value": 0.5984251968503937
          },
          {
            "number": 2,
            "time": 139.07207173333532,
            "value": 0.5905511811023622
          },
          {
            "number": 2,
            "time": 139.07700593333533,
            "value": 0.5826771653543307
          },
          {
            "number": 2,
            "time": 139.08358486666867,
            "value": 0.5748031496062992
          },
          {
            "number": 2,
            "time": 139.09016380000202,
            "value": 0.5669291338582677
          },
          {
            "number": 2,
            "time": 139.09674273333536,
            "value": 0.5590551181102362
          },
          {
            "number": 2,
            "time": 139.10167693333537,
            "value": 0.5511811023622047
          },
          {
            "number": 2,
            "time": 139.1082558666687,
            "value": 0.5433070866141733
          },
          {
            "number": 2,
            "time": 139.11483480000206,
            "value": 0.5354330708661418
          },
          {
            "number": 2,
            "time": 139.1214137333354,
            "value": 0.5275590551181102
          },
          {
            "number": 2,
            "time": 139.1263479333354,
            "value": 0.5196850393700787
          },
          {
            "number": 2,
            "time": 139.13292686666875,
            "value": 0.5118110236220472
          },
          {
            "number": 2,
            "time": 139.1395058000021,
            "value": 0.5039370078740157
          },
          {
            "number": 2,
            "time": 139.3418080000021,
            "value": 0.5039370078740157
          },
          {
            "number": 2,
            "time": 140.1312800000021,
            "value": 0.5039370078740157
          },
          {
            "number": 2,
            "time": 140.5260160000021,
            "value": 0.7559055118110236
          },
          {
            "number": 2,
            "time": 140.52766073333544,
            "value": 0.7480314960629921
          },
          {
            "number": 2,
            "time": 140.53259493333545,
            "value": 0.7401574803149606
          },
          {
            "number": 2,
            "time": 140.5391738666688,
            "value": 0.7322834645669292
          },
          {
            "number": 2,
            "time": 140.54575280000213,
            "value": 0.7244094488188977
          },
          {
            "number": 2,
            "time": 140.55233173333548,
            "value": 0.7165354330708661
          },
          {
            "number": 2,
            "time": 140.5572659333355,
            "value": 0.7086614173228346
          },
          {
            "number": 2,
            "time": 140.56384486666883,
            "value": 0.7007874015748031
          },
          {
            "number": 2,
            "time": 140.57042380000217,
            "value": 0.6929133858267716
          },
          {
            "number": 2,
            "time": 140.57700273333552,
            "value": 0.6850393700787402
          },
          {
            "number": 2,
            "time": 140.58193693333553,
            "value": 0.6771653543307087
          },
          {
            "number": 2,
            "time": 140.58851586666887,
            "value": 0.6692913385826772
          },
          {
            "number": 2,
            "time": 140.59509480000222,
            "value": 0.6614173228346457
          },
          {
            "number": 2,
            "time": 140.60167373333556,
            "value": 0.6535433070866141
          },
          {
            "number": 2,
            "time": 140.60660793333557,
            "value": 0.6456692913385826
          },
          {
            "number": 2,
            "time": 140.6131868666689,
            "value": 0.6377952755905512
          },
          {
            "number": 2,
            "time": 140.61976580000226,
            "value": 0.6299212598425197
          },
          {
            "number": 2,
            "time": 140.6263447333356,
            "value": 0.6220472440944882
          },
          {
            "number": 2,
            "time": 140.6312789333356,
            "value": 0.6141732283464567
          },
          {
            "number": 2,
            "time": 140.63785786666895,
            "value": 0.6062992125984252
          },
          {
            "number": 2,
            "time": 140.6444368000023,
            "value": 0.5984251968503937
          },
          {
            "number": 2,
            "time": 140.65101573333564,
            "value": 0.5905511811023622
          },
          {
            "number": 2,
            "time": 140.65594993333565,
            "value": 0.5826771653543307
          },
          {
            "number": 2,
            "time": 140.662528866669,
            "value": 0.5748031496062992
          },
          {
            "number": 2,
            "time": 140.66910780000234,
            "value": 0.5669291338582677
          },
          {
            "number": 2,
            "time": 140.67568673333568,
            "value": 0.5590551181102362
          },
          {
            "number": 2,
            "time": 140.6806209333357,
            "value": 0.5511811023622047
          },
          {
            "number": 2,
            "time": 140.68719986666903,
            "value": 0.5433070866141733
          },
          {
            "number": 2,
            "time": 140.69377880000238,
            "value": 0.5354330708661418
          },
          {
            "number": 2,
            "time": 140.70035773333572,
            "value": 0.5275590551181102
          },
          {
            "number": 2,
            "time": 140.70529193333573,
            "value": 0.5196850393700787
          },
          {
            "number": 2,
            "time": 140.71187086666907,
            "value": 0.5118110236220472
          },
          {
            "number": 2,
            "time": 140.71844980000242,
            "value": 0.5039370078740157
          },
          {
            "number": 2,
            "time": 140.9207520000024,
            "value": 0.5039370078740157
          },
          {
            "number": 2,
            "time": 141.71022400000243,
            "value": 0.5039370078740157
          },
          {
            "number": 2,
            "time": 142.10496000000242,
            "value": 0.7559055118110236
          },
          {
            "number": 2,
            "time": 142.10660473333576,
            "value": 0.7480314960629921
          },
          {
            "number": 2,
            "time": 142.11153893333577,
            "value": 0.7401574803149606
          },
          {
            "number": 2,
            "time": 142.1181178666691,
            "value": 0.7322834645669292
          },
          {
            "number": 2,
            "time": 142.12469680000245,
            "value": 0.7244094488188977
          },
          {
            "number": 2,
            "time": 142.1312757333358,
            "value": 0.7165354330708661
          },
          {
            "number": 2,
            "time": 142.1362099333358,
            "value": 0.7086614173228346
          },
          {
            "number": 2,
            "time": 142.14278886666915,
            "value": 0.7007874015748031
          },
          {
            "number": 2,
            "time": 142.1493678000025,
            "value": 0.6929133858267716
          },
          {
            "number": 2,
            "time": 142.15594673333584,
            "value": 0.6850393700787402
          },
          {
            "number": 2,
            "time": 142.16088093333585,
            "value": 0.6771653543307087
          },
          {
            "number": 2,
            "time": 142.1674598666692,
            "value": 0.6692913385826772
          },
          {
            "number": 2,
            "time": 142.17403880000253,
            "value": 0.6614173228346457
          },
          {
            "number": 2,
            "time": 142.18061773333588,
            "value": 0.6535433070866141
          },
          {
            "number": 2,
            "time": 142.1855519333359,
            "value": 0.6456692913385826
          },
          {
            "number": 2,
            "time": 142.19213086666923,
            "value": 0.6377952755905512
          },
          {
            "number": 2,
            "time": 142.19870980000258,
            "value": 0.6299212598425197
          },
          {
            "number": 2,
            "time": 142.20528873333592,
            "value": 0.6220472440944882
          },
          {
            "number": 2,
            "time": 142.21022293333593,
            "value": 0.6141732283464567
          },
          {
            "number": 2,
            "time": 142.21680186666927,
            "value": 0.6062992125984252
          },
          {
            "number": 2,
            "time": 142.22338080000262,
            "value": 0.5984251968503937
          },
          {
            "number": 2,
            "time": 142.22995973333596,
            "value": 0.5905511811023622
          },
          {
            "number": 2,
            "time": 142.23489393333597,
            "value": 0.5826771653543307
          },
          {
            "number": 2,
            "time": 142.2414728666693,
            "value": 0.5748031496062992
          },
          {
            "number": 2,
            "time": 142.24805180000266,
            "value": 0.5669291338582677
          },
          {
            "number": 2,
            "time": 142.254630733336,
            "value": 0.5590551181102362
          },
          {
            "number": 2,
            "time": 142.259564933336,
            "value": 0.5511811023622047
          },
          {
            "number": 2,
            "time": 142.26614386666935,
            "value": 0.5433070866141733
          },
          {
            "number": 2,
            "time": 142.2727228000027,
            "value": 0.5354330708661418
          },
          {
            "number": 2,
            "time": 142.27930173333604,
            "value": 0.5275590551181102
          },
          {
            "number": 2,
            "time": 142.28423593333605,
            "value": 0.5196850393700787
          },
          {
            "number": 2,
            "time": 142.2908148666694,
            "value": 0.5118110236220472
          },
          {
            "number": 2,
            "time": 142.29739380000274,
            "value": 0.5039370078740157
          },
          {
            "number": 2,
            "time": 142.49969600000273,
            "value": 0.5039370078740157
          },
          {
            "number": 2,
            "time": 143.28916800000275,
            "value": 0.5039370078740157
          },
          {
            "number": 2,
            "time": 143.68390400000274,
            "value": 0.7559055118110236
          },
          {
            "number": 2,
            "time": 143.68554873333608,
            "value": 0.7480314960629921
          },
          {
            "number": 2,
            "time": 143.69048293333609,
            "value": 0.7401574803149606
          },
          {
            "number": 2,
            "time": 143.69706186666943,
            "value": 0.7322834645669292
          },
          {
            "number": 2,
            "time": 143.70364080000277,
            "value": 0.7244094488188977
          },
          {
            "number": 2,
            "time": 143.71021973333612,
            "value": 0.7165354330708661
          },
          {
            "number": 2,
            "time": 143.71515393333613,
            "value": 0.7086614173228346
          },
          {
            "number": 2,
            "time": 143.72173286666947,
            "value": 0.7007874015748031
          },
          {
            "number": 2,
            "time": 143.7283118000028,
            "value": 0.6929133858267716
          },
          {
            "number": 2,
            "time": 143.73489073333616,
            "value": 0.6850393700787402
          },
          {
            "number": 2,
            "time": 143.73982493333617,
            "value": 0.6771653543307087
          },
          {
            "number": 2,
            "time": 143.7464038666695,
            "value": 0.6692913385826772
          },
          {
            "number": 2,
            "time": 143.75298280000285,
            "value": 0.6614173228346457
          },
          {
            "number": 2,
            "time": 143.7595617333362,
            "value": 0.6535433070866141
          },
          {
            "number": 2,
            "time": 143.7644959333362,
            "value": 0.6456692913385826
          },
          {
            "number": 2,
            "time": 143.77107486666955,
            "value": 0.6377952755905512
          },
          {
            "number": 2,
            "time": 143.7776538000029,
            "value": 0.6299212598425197
          },
          {
            "number": 2,
            "time": 143.78423273333624,
            "value": 0.6220472440944882
          },
          {
            "number": 2,
            "time": 143.78916693333625,
            "value": 0.6141732283464567
          },
          {
            "number": 2,
            "time": 143.7957458666696,
            "value": 0.6062992125984252
          },
          {
            "number": 2,
            "time": 143.80232480000294,
            "value": 0.5984251968503937
          },
          {
            "number": 2,
            "time": 143.80890373333628,
            "value": 0.5905511811023622
          },
          {
            "number": 2,
            "time": 143.8138379333363,
            "value": 0.5826771653543307
          },
          {
            "number": 2,
            "time": 143.82041686666963,
            "value": 0.5748031496062992
          },
          {
            "number": 2,
            "time": 143.82699580000298,
            "value": 0.5669291338582677
          },
          {
            "number": 2,
            "time": 143.83357473333632,
            "value": 0.5590551181102362
          },
          {
            "number": 2,
            "time": 143.83850893333633,
            "value": 0.5511811023622047
          },
          {
            "number": 2,
            "time": 143.84508786666967,
            "value": 0.5433070866141733
          },
          {
            "number": 2,
            "time": 143.85166680000302,
            "value": 0.5354330708661418
          },
          {
            "number": 2,
            "time": 143.85824573333636,
            "value": 0.5275590551181102
          },
          {
            "number": 2,
            "time": 143.86317993333637,
            "value": 0.5196850393700787
          },
          {
            "number": 2,
            "time": 143.8697588666697,
            "value": 0.5118110236220472
          },
          {
            "number": 2,
            "time": 143.87633780000306,
            "value": 0.5039370078740157
          },
          {
            "number": 2,
            "time": 144.07864000000305,
            "value": 0.5039370078740157
          },
          {
            "number": 2,
            "time": 144.86811200000307,
            "value": 0.5039370078740157
          },
          {
            "number": 2,
            "time": 145.26284800000306,
            "value": 0.7559055118110236
          },
          {
            "number": 2,
            "time": 145.2644927333364,
            "value": 0.7480314960629921
          },
          {
            "number": 2,
            "time": 145.2694269333364,
            "value": 0.7401574803149606
          },
          {
            "number": 2,
            "time": 145.27600586666975,
            "value": 0.7322834645669292
          },
          {
            "number": 2,
            "time": 145.2825848000031,
            "value": 0.7244094488188977
          },
          {
            "number": 2,
            "time": 145.28916373333644,
            "value": 0.7165354330708661
          },
          {
            "number": 2,
            "time": 145.29409793333645,
            "value": 0.7086614173228346
          },
          {
            "number": 2,
            "time": 145.3006768666698,
            "value": 0.7007874015748031
          },
          {
            "number": 2,
            "time": 145.30725580000313,
            "value": 0.6929133858267716
          },
          {
            "number": 2,
            "time": 145.31383473333648,
            "value": 0.6850393700787402
          },
          {
            "number": 2,
            "time": 145.3187689333365,
            "value": 0.6771653543307087
          },
          {
            "number": 2,
            "time": 145.32534786666983,
            "value": 0.6692913385826772
          },
          {
            "number": 2,
            "time": 145.33192680000317,
            "value": 0.6614173228346457
          },
          {
            "number": 2,
            "time": 145.33850573333652,
            "value": 0.6535433070866141
          },
          {
            "number": 2,
            "time": 145.34343993333653,
            "value": 0.6456692913385826
          },
          {
            "number": 2,
            "time": 145.35001886666987,
            "value": 0.6377952755905512
          },
          {
            "number": 2,
            "time": 145.35659780000321,
            "value": 0.6299212598425197
          },
          {
            "number": 2,
            "time": 145.36317673333656,
            "value": 0.6220472440944882
          },
          {
            "number": 2,
            "time": 145.36811093333657,
            "value": 0.6141732283464567
          },
          {
            "number": 2,
            "time": 145.3746898666699,
            "value": 0.6062992125984252
          },
          {
            "number": 2,
            "time": 145.38126880000326,
            "value": 0.5984251968503937
          },
          {
            "number": 2,
            "time": 145.3878477333366,
            "value": 0.5905511811023622
          },
          {
            "number": 2,
            "time": 145.3927819333366,
            "value": 0.5826771653543307
          },
          {
            "number": 2,
            "time": 145.39936086666995,
            "value": 0.5748031496062992
          },
          {
            "number": 2,
            "time": 145.4059398000033,
            "value": 0.5669291338582677
          },
          {
            "number": 2,
            "time": 145.41251873333664,
            "value": 0.5590551181102362
          },
          {
            "number": 2,
            "time": 145.41745293333665,
            "value": 0.5511811023622047
          },
          {
            "number": 2,
            "time": 145.42403186667,
            "value": 0.5433070866141733
          },
          {
            "number": 2,
            "time": 145.43061080000334,
            "value": 0.5354330708661418
          },
          {
            "number": 2,
            "time": 145.43718973333668,
            "value": 0.5275590551181102
          },
          {
            "number": 2,
            "time": 145.4421239333367,
            "value": 0.5196850393700787
          },
          {
            "number": 2,
            "time": 145.44870286667003,
            "value": 0.5118110236220472
          },
          {
            "number": 2,
            "time": 145.45528180000338,
            "value": 0.5039370078740157
          },
          {
            "number": 2,
            "time": 145.65758400000337,
            "value": 0.5039370078740157
          },
          {
            "number": 2,
            "time": 146.44705600000339,
            "value": 0.5039370078740157
          },
          {
            "number": 2,
            "time": 146.84179200000338,
            "value": 0.7559055118110236
          },
          {
            "number": 2,
            "time": 146.84343673333672,
            "value": 0.7480314960629921
          },
          {
            "number": 2,
            "time": 146.84837093333672,
            "value": 0.7401574803149606
          },
          {
            "number": 2,
            "time": 146.85494986667007,
            "value": 0.7322834645669292
          },
          {
            "number": 2,
            "time": 146.8615288000034,
            "value": 0.7244094488188977
          },
          {
            "number": 2,
            "time": 146.86810773333676,
            "value": 0.7165354330708661
          },
          {
            "number": 2,
            "time": 146.87304193333676,
            "value": 0.7086614173228346
          },
          {
            "number": 2,
            "time": 146.8796208666701,
            "value": 0.7007874015748031
          },
          {
            "number": 2,
            "time": 146.88619980000345,
            "value": 0.6929133858267716
          },
          {
            "number": 2,
            "time": 146.8927787333368,
            "value": 0.6850393700787402
          },
          {
            "number": 2,
            "time": 146.8977129333368,
            "value": 0.6771653543307087
          },
          {
            "number": 2,
            "time": 146.90429186667015,
            "value": 0.6692913385826772
          },
          {
            "number": 2,
            "time": 146.9108708000035,
            "value": 0.6614173228346457
          },
          {
            "number": 2,
            "time": 146.91744973333684,
            "value": 0.6535433070866141
          },
          {
            "number": 2,
            "time": 146.92238393333685,
            "value": 0.6456692913385826
          },
          {
            "number": 2,
            "time": 146.9289628666702,
            "value": 0.6377952755905512
          },
          {
            "number": 2,
            "time": 146.93554180000353,
            "value": 0.6299212598425197
          },
          {
            "number": 2,
            "time": 146.94212073333688,
            "value": 0.6220472440944882
          },
          {
            "number": 2,
            "time": 146.9470549333369,
            "value": 0.6141732283464567
          },
          {
            "number": 2,
            "time": 146.95363386667023,
            "value": 0.6062992125984252
          },
          {
            "number": 2,
            "time": 146.96021280000357,
            "value": 0.5984251968503937
          },
          {
            "number": 2,
            "time": 146.96679173333692,
            "value": 0.5905511811023622
          },
          {
            "number": 2,
            "time": 146.97172593333693,
            "value": 0.5826771653543307
          },
          {
            "number": 2,
            "time": 146.97830486667027,
            "value": 0.5748031496062992
          },
          {
            "number": 2,
            "time": 146.98488380000362,
            "value": 0.5669291338582677
          },
          {
            "number": 2,
            "time": 146.99146273333696,
            "value": 0.5590551181102362
          },
          {
            "number": 2,
            "time": 146.99639693333697,
            "value": 0.5511811023622047
          },
          {
            "number": 2,
            "time": 147.0029758666703,
            "value": 0.5433070866141733
          },
          {
            "number": 2,
            "time": 147.00955480000366,
            "value": 0.5354330708661418
          },
          {
            "number": 2,
            "time": 147.016133733337,
            "value": 0.5275590551181102
          },
          {
            "number": 2,
            "time": 147.021067933337,
            "value": 0.5196850393700787
          },
          {
            "number": 2,
            "time": 147.02764686667035,
            "value": 0.5118110236220472
          },
          {
            "number": 2,
            "time": 147.0342258000037,
            "value": 0.5039370078740157
          },
          {
            "number": 2,
            "time": 147.2365280000037,
            "value": 0.5039370078740157
          },
          {
            "number": 2,
            "time": 148.0260000000037,
            "value": 0.5039370078740157
          },
          {
            "number": 2,
            "time": 148.4207360000037,
            "value": 0.7559055118110236
          },
          {
            "number": 2,
            "time": 148.42238073333704,
            "value": 0.7480314960629921
          },
          {
            "number": 2,
            "time": 148.42731493333704,
            "value": 0.7401574803149606
          },
          {
            "number": 2,
            "time": 148.4338938666704,
            "value": 0.7322834645669292
          },
          {
            "number": 2,
            "time": 148.44047280000373,
            "value": 0.7244094488188977
          },
          {
            "number": 2,
            "time": 148.44705173333708,
            "value": 0.7165354330708661
          },
          {
            "number": 2,
            "time": 148.45198593333708,
            "value": 0.7086614173228346
          },
          {
            "number": 2,
            "time": 148.45856486667043,
            "value": 0.7007874015748031
          },
          {
            "number": 2,
            "time": 148.46514380000377,
            "value": 0.6929133858267716
          },
          {
            "number": 2,
            "time": 148.47172273333712,
            "value": 0.6850393700787402
          },
          {
            "number": 2,
            "time": 148.47665693333713,
            "value": 0.6771653543307087
          },
          {
            "number": 2,
            "time": 148.48323586667047,
            "value": 0.6692913385826772
          },
          {
            "number": 2,
            "time": 148.4898148000038,
            "value": 0.6614173228346457
          },
          {
            "number": 2,
            "time": 148.49639373333716,
            "value": 0.6535433070866141
          },
          {
            "number": 2,
            "time": 148.50132793333717,
            "value": 0.6456692913385826
          },
          {
            "number": 2,
            "time": 148.5079068666705,
            "value": 0.6377952755905512
          },
          {
            "number": 2,
            "time": 148.51448580000385,
            "value": 0.6299212598425197
          },
          {
            "number": 2,
            "time": 148.5210647333372,
            "value": 0.6220472440944882
          },
          {
            "number": 2,
            "time": 148.5259989333372,
            "value": 0.6141732283464567
          },
          {
            "number": 2,
            "time": 148.53257786667055,
            "value": 0.6062992125984252
          },
          {
            "number": 2,
            "time": 148.5391568000039,
            "value": 0.5984251968503937
          },
          {
            "number": 2,
            "time": 148.54573573333724,
            "value": 0.5905511811023622
          },
          {
            "number": 2,
            "time": 148.55066993333725,
            "value": 0.5826771653543307
          },
          {
            "number": 2,
            "time": 148.5572488666706,
            "value": 0.5748031496062992
          },
          {
            "number": 2,
            "time": 148.56382780000393,
            "value": 0.5669291338582677
          },
          {
            "number": 2,
            "time": 148.57040673333728,
            "value": 0.5590551181102362
          },
          {
            "number": 2,
            "time": 148.5753409333373,
            "value": 0.5511811023622047
          },
          {
            "number": 2,
            "time": 148.58191986667063,
            "value": 0.5433070866141733
          },
          {
            "number": 2,
            "time": 148.58849880000398,
            "value": 0.5354330708661418
          },
          {
            "number": 2,
            "time": 148.59507773333732,
            "value": 0.5275590551181102
          },
          {
            "number": 2,
            "time": 148.60001193333733,
            "value": 0.5196850393700787
          },
          {
            "number": 2,
            "time": 148.60659086667067,
            "value": 0.5118110236220472
          },
          {
            "number": 2,
            "time": 148.61316980000402,
            "value": 0.5039370078740157
          },
          {
            "number": 2,
            "time": 148.815472000004,
            "value": 0.5039370078740157
          },
          {
            "number": 2,
            "time": 149.60494400000402,
            "value": 0.5039370078740157
          },
          {
            "number": 2,
            "time": 149.99968000000402,
            "value": 0.7559055118110236
          },
          {
            "number": 2,
            "time": 150.00132473333736,
            "value": 0.7480314960629921
          },
          {
            "number": 2,
            "time": 150.00625893333736,
            "value": 0.7401574803149606
          },
          {
            "number": 2,
            "time": 150.0128378666707,
            "value": 0.7322834645669292
          },
          {
            "number": 2,
            "time": 150.01941680000405,
            "value": 0.7244094488188977
          },
          {
            "number": 2,
            "time": 150.0259957333374,
            "value": 0.7165354330708661
          },
          {
            "number": 2,
            "time": 150.0309299333374,
            "value": 0.7086614173228346
          },
          {
            "number": 2,
            "time": 150.03750886667075,
            "value": 0.7007874015748031
          },
          {
            "number": 2,
            "time": 150.0440878000041,
            "value": 0.6929133858267716
          },
          {
            "number": 2,
            "time": 150.05066673333744,
            "value": 0.6850393700787402
          },
          {
            "number": 2,
            "time": 150.05560093333744,
            "value": 0.6771653543307087
          },
          {
            "number": 2,
            "time": 150.0621798666708,
            "value": 0.6692913385826772
          },
          {
            "number": 2,
            "time": 150.06875880000413,
            "value": 0.6614173228346457
          },
          {
            "number": 2,
            "time": 150.07533773333748,
            "value": 0.6535433070866141
          },
          {
            "number": 2,
            "time": 150.08027193333749,
            "value": 0.6456692913385826
          },
          {
            "number": 2,
            "time": 150.08685086667083,
            "value": 0.6377952755905512
          },
          {
            "number": 2,
            "time": 150.09342980000417,
            "value": 0.6299212598425197
          },
          {
            "number": 2,
            "time": 150.10000873333752,
            "value": 0.6220472440944882
          },
          {
            "number": 2,
            "time": 150.10494293333753,
            "value": 0.6141732283464567
          },
          {
            "number": 2,
            "time": 150.11152186667087,
            "value": 0.6062992125984252
          },
          {
            "number": 2,
            "time": 150.1181008000042,
            "value": 0.5984251968503937
          },
          {
            "number": 2,
            "time": 150.12467973333756,
            "value": 0.5905511811023622
          },
          {
            "number": 2,
            "time": 150.12961393333757,
            "value": 0.5826771653543307
          },
          {
            "number": 2,
            "time": 150.1361928666709,
            "value": 0.5748031496062992
          },
          {
            "number": 2,
            "time": 150.14277180000425,
            "value": 0.5669291338582677
          },
          {
            "number": 2,
            "time": 150.1493507333376,
            "value": 0.5590551181102362
          },
          {
            "number": 2,
            "time": 150.1542849333376,
            "value": 0.5511811023622047
          },
          {
            "number": 2,
            "time": 150.16086386667095,
            "value": 0.5433070866141733
          },
          {
            "number": 2,
            "time": 150.1674428000043,
            "value": 0.5354330708661418
          },
          {
            "number": 2,
            "time": 150.17402173333764,
            "value": 0.5275590551181102
          },
          {
            "number": 2,
            "time": 150.17895593333765,
            "value": 0.5196850393700787
          },
          {
            "number": 2,
            "time": 150.185534866671,
            "value": 0.5118110236220472
          },
          {
            "number": 2,
            "time": 150.19211380000434,
            "value": 0.5039370078740157
          },
          {
            "number": 2,
            "time": 150.39441600000433,
            "value": 0.5039370078740157
          },
          {
            "number": 2,
            "time": 151.18388800000434,
            "value": 0.5039370078740157
          },
          {
            "number": 2,
            "time": 151.57862400000434,
            "value": 0.7559055118110236
          },
          {
            "number": 2,
            "time": 151.58026873333768,
            "value": 0.7480314960629921
          },
          {
            "number": 2,
            "time": 151.58520293333768,
            "value": 0.7401574803149606
          },
          {
            "number": 2,
            "time": 151.59178186667103,
            "value": 0.7322834645669292
          },
          {
            "number": 2,
            "time": 151.59836080000437,
            "value": 0.7244094488188977
          },
          {
            "number": 2,
            "time": 151.60493973333772,
            "value": 0.7165354330708661
          },
          {
            "number": 2,
            "time": 151.60987393333772,
            "value": 0.7086614173228346
          },
          {
            "number": 2,
            "time": 151.61645286667107,
            "value": 0.7007874015748031
          },
          {
            "number": 2,
            "time": 151.6230318000044,
            "value": 0.6929133858267716
          },
          {
            "number": 2,
            "time": 151.62961073333776,
            "value": 0.6850393700787402
          },
          {
            "number": 2,
            "time": 151.63454493333776,
            "value": 0.6771653543307087
          },
          {
            "number": 2,
            "time": 151.6411238666711,
            "value": 0.6692913385826772
          },
          {
            "number": 2,
            "time": 151.64770280000445,
            "value": 0.6614173228346457
          },
          {
            "number": 2,
            "time": 151.6542817333378,
            "value": 0.6535433070866141
          },
          {
            "number": 2,
            "time": 151.6592159333378,
            "value": 0.6456692913385826
          },
          {
            "number": 2,
            "time": 151.66579486667115,
            "value": 0.6377952755905512
          },
          {
            "number": 2,
            "time": 151.6723738000045,
            "value": 0.6299212598425197
          },
          {
            "number": 2,
            "time": 151.67895273333784,
            "value": 0.6220472440944882
          },
          {
            "number": 2,
            "time": 151.68388693333785,
            "value": 0.6141732283464567
          },
          {
            "number": 2,
            "time": 151.6904658666712,
            "value": 0.6062992125984252
          },
          {
            "number": 2,
            "time": 151.69704480000453,
            "value": 0.5984251968503937
          },
          {
            "number": 2,
            "time": 151.70362373333788,
            "value": 0.5905511811023622
          },
          {
            "number": 2,
            "time": 151.7085579333379,
            "value": 0.5826771653543307
          },
          {
            "number": 2,
            "time": 151.71513686667123,
            "value": 0.5748031496062992
          },
          {
            "number": 2,
            "time": 151.72171580000457,
            "value": 0.5669291338582677
          },
          {
            "number": 2,
            "time": 151.72829473333792,
            "value": 0.5590551181102362
          },
          {
            "number": 2,
            "time": 151.73322893333793,
            "value": 0.5511811023622047
          },
          {
            "number": 2,
            "time": 151.73980786667127,
            "value": 0.5433070866141733
          },
          {
            "number": 2,
            "time": 151.74638680000461,
            "value": 0.5354330708661418
          },
          {
            "number": 2,
            "time": 151.75296573333796,
            "value": 0.5275590551181102
          },
          {
            "number": 2,
            "time": 151.75789993333797,
            "value": 0.5196850393700787
          },
          {
            "number": 2,
            "time": 151.7644788666713,
            "value": 0.5118110236220472
          },
          {
            "number": 2,
            "time": 151.77105780000466,
            "value": 0.5039370078740157
          },
          {
            "number": 2,
            "time": 151.97336000000465,
            "value": 0.5039370078740157
          },
          {
            "number": 2,
            "time": 152.76283200000466,
            "value": 0.5039370078740157
          },
          {
            "number": 2,
            "time": 153.15756800000466,
            "value": 0.7559055118110236
          },
          {
            "number": 2,
            "time": 153.159212733338,
            "value": 0.7480314960629921
          },
          {
            "number": 2,
            "time": 153.164146933338,
            "value": 0.7401574803149606
          },
          {
            "number": 2,
            "time": 153.17072586667135,
            "value": 0.7322834645669292
          },
          {
            "number": 2,
            "time": 153.1773048000047,
            "value": 0.7244094488188977
          },
          {
            "number": 2,
            "time": 153.18388373333804,
            "value": 0.7165354330708661
          },
          {
            "number": 2,
            "time": 153.18881793333804,
            "value": 0.7086614173228346
          },
          {
            "number": 2,
            "time": 153.1953968666714,
            "value": 0.7007874015748031
          },
          {
            "number": 2,
            "time": 153.20197580000473,
            "value": 0.6929133858267716
          },
          {
            "number": 2,
            "time": 153.20855473333808,
            "value": 0.6850393700787402
          },
          {
            "number": 2,
            "time": 153.21348893333808,
            "value": 0.6771653543307087
          },
          {
            "number": 2,
            "time": 153.22006786667143,
            "value": 0.6692913385826772
          },
          {
            "number": 2,
            "time": 153.22664680000477,
            "value": 0.6614173228346457
          },
          {
            "number": 2,
            "time": 153.23322573333812,
            "value": 0.6535433070866141
          },
          {
            "number": 2,
            "time": 153.23815993333812,
            "value": 0.6456692913385826
          },
          {
            "number": 2,
            "time": 153.24473886667147,
            "value": 0.6377952755905512
          },
          {
            "number": 2,
            "time": 153.2513178000048,
            "value": 0.6299212598425197
          },
          {
            "number": 2,
            "time": 153.25789673333816,
            "value": 0.6220472440944882
          },
          {
            "number": 2,
            "time": 153.26283093333817,
            "value": 0.6141732283464567
          },
          {
            "number": 2,
            "time": 153.2694098666715,
            "value": 0.6062992125984252
          },
          {
            "number": 2,
            "time": 153.27598880000485,
            "value": 0.5984251968503937
          },
          {
            "number": 2,
            "time": 153.2825677333382,
            "value": 0.5905511811023622
          },
          {
            "number": 2,
            "time": 153.2875019333382,
            "value": 0.5826771653543307
          },
          {
            "number": 2,
            "time": 153.29408086667155,
            "value": 0.5748031496062992
          },
          {
            "number": 2,
            "time": 153.3006598000049,
            "value": 0.5669291338582677
          },
          {
            "number": 2,
            "time": 153.30723873333824,
            "value": 0.5590551181102362
          },
          {
            "number": 2,
            "time": 153.31217293333825,
            "value": 0.5511811023622047
          },
          {
            "number": 2,
            "time": 153.3187518666716,
            "value": 0.5433070866141733
          },
          {
            "number": 2,
            "time": 153.32533080000493,
            "value": 0.5354330708661418
          },
          {
            "number": 2,
            "time": 153.33190973333828,
            "value": 0.5275590551181102
          },
          {
            "number": 2,
            "time": 153.3368439333383,
            "value": 0.5196850393700787
          },
          {
            "number": 2,
            "time": 153.34342286667163,
            "value": 0.5118110236220472
          },
          {
            "number": 2,
            "time": 153.35000180000497,
            "value": 0.5039370078740157
          },
          {
            "number": 2,
            "time": 153.55230400000497,
            "value": 0.5039370078740157
          },
          {
            "number": 2,
            "time": 154.34177600000498,
            "value": 0.5039370078740157
          },
          {
            "number": 2,
            "time": 154.73651200000498,
            "value": 0.7559055118110236
          },
          {
            "number": 2,
            "time": 154.73815673333831,
            "value": 0.7480314960629921
          },
          {
            "number": 2,
            "time": 154.74309093333832,
            "value": 0.7401574803149606
          },
          {
            "number": 2,
            "time": 154.74966986667167,
            "value": 0.7322834645669292
          },
          {
            "number": 2,
            "time": 154.756248800005,
            "value": 0.7244094488188977
          },
          {
            "number": 2,
            "time": 154.76282773333836,
            "value": 0.7165354330708661
          },
          {
            "number": 2,
            "time": 154.76776193333836,
            "value": 0.7086614173228346
          },
          {
            "number": 2,
            "time": 154.7743408666717,
            "value": 0.7007874015748031
          },
          {
            "number": 2,
            "time": 154.78091980000505,
            "value": 0.6929133858267716
          },
          {
            "number": 2,
            "time": 154.7874987333384,
            "value": 0.6850393700787402
          },
          {
            "number": 2,
            "time": 154.7924329333384,
            "value": 0.6771653543307087
          },
          {
            "number": 2,
            "time": 154.79901186667175,
            "value": 0.6692913385826772
          },
          {
            "number": 2,
            "time": 154.8055908000051,
            "value": 0.6614173228346457
          },
          {
            "number": 2,
            "time": 154.81216973333844,
            "value": 0.6535433070866141
          },
          {
            "number": 2,
            "time": 154.81710393333844,
            "value": 0.6456692913385826
          },
          {
            "number": 2,
            "time": 154.8236828666718,
            "value": 0.6377952755905512
          },
          {
            "number": 2,
            "time": 154.83026180000513,
            "value": 0.6299212598425197
          },
          {
            "number": 2,
            "time": 154.83684073333848,
            "value": 0.6220472440944882
          },
          {
            "number": 2,
            "time": 154.84177493333848,
            "value": 0.6141732283464567
          },
          {
            "number": 2,
            "time": 154.84835386667183,
            "value": 0.6062992125984252
          },
          {
            "number": 2,
            "time": 154.85493280000517,
            "value": 0.5984251968503937
          },
          {
            "number": 2,
            "time": 154.86151173333852,
            "value": 0.5905511811023622
          },
          {
            "number": 2,
            "time": 154.86644593333853,
            "value": 0.5826771653543307
          },
          {
            "number": 2,
            "time": 154.87302486667187,
            "value": 0.5748031496062992
          },
          {
            "number": 2,
            "time": 154.8796038000052,
            "value": 0.5669291338582677
          },
          {
            "number": 2,
            "time": 154.88618273333856,
            "value": 0.5590551181102362
          },
          {
            "number": 2,
            "time": 154.89111693333857,
            "value": 0.5511811023622047
          },
          {
            "number": 2,
            "time": 154.8976958666719,
            "value": 0.5433070866141733
          },
          {
            "number": 2,
            "time": 154.90427480000525,
            "value": 0.5354330708661418
          },
          {
            "number": 2,
            "time": 154.9108537333386,
            "value": 0.5275590551181102
          },
          {
            "number": 2,
            "time": 154.9157879333386,
            "value": 0.5196850393700787
          },
          {
            "number": 2,
            "time": 154.92236686667195,
            "value": 0.5118110236220472
          },
          {
            "number": 2,
            "time": 154.9289458000053,
            "value": 0.5039370078740157
          },
          {
            "number": 2,
            "time": 155.1312480000053,
            "value": 0.5039370078740157
          },
          {
            "number": 2,
            "time": 155.9207200000053,
            "value": 0.5039370078740157
          },
          {
            "number": 2,
            "time": 156.3154560000053,
            "value": 0.7559055118110236
          },
          {
            "number": 2,
            "time": 156.31710073333863,
            "value": 0.7480314960629921
          },
          {
            "number": 2,
            "time": 156.32203493333864,
            "value": 0.7401574803149606
          },
          {
            "number": 2,
            "time": 156.328613866672,
            "value": 0.7322834645669292
          },
          {
            "number": 2,
            "time": 156.33519280000533,
            "value": 0.7244094488188977
          },
          {
            "number": 2,
            "time": 156.34177173333867,
            "value": 0.7165354330708661
          },
          {
            "number": 2,
            "time": 156.34670593333868,
            "value": 0.7086614173228346
          },
          {
            "number": 2,
            "time": 156.35328486667203,
            "value": 0.7007874015748031
          },
          {
            "number": 2,
            "time": 156.35986380000537,
            "value": 0.6929133858267716
          },
          {
            "number": 2,
            "time": 156.36644273333872,
            "value": 0.6850393700787402
          },
          {
            "number": 2,
            "time": 156.37137693333872,
            "value": 0.6771653543307087
          },
          {
            "number": 2,
            "time": 156.37795586667207,
            "value": 0.6692913385826772
          },
          {
            "number": 2,
            "time": 156.3845348000054,
            "value": 0.6614173228346457
          },
          {
            "number": 2,
            "time": 156.39111373333876,
            "value": 0.6535433070866141
          },
          {
            "number": 2,
            "time": 156.39604793333876,
            "value": 0.6456692913385826
          },
          {
            "number": 2,
            "time": 156.4026268666721,
            "value": 0.6377952755905512
          },
          {
            "number": 2,
            "time": 156.40920580000545,
            "value": 0.6299212598425197
          },
          {
            "number": 2,
            "time": 156.4157847333388,
            "value": 0.6220472440944882
          },
          {
            "number": 2,
            "time": 156.4207189333388,
            "value": 0.6141732283464567
          },
          {
            "number": 2,
            "time": 156.42729786667215,
            "value": 0.6062992125984252
          },
          {
            "number": 2,
            "time": 156.4338768000055,
            "value": 0.5984251968503937
          },
          {
            "number": 2,
            "time": 156.44045573333884,
            "value": 0.5905511811023622
          },
          {
            "number": 2,
            "time": 156.44538993333884,
            "value": 0.5826771653543307
          },
          {
            "number": 2,
            "time": 156.4519688666722,
            "value": 0.5748031496062992
          },
          {
            "number": 2,
            "time": 156.45854780000553,
            "value": 0.5669291338582677
          },
          {
            "number": 2,
            "time": 156.46512673333888,
            "value": 0.5590551181102362
          },
          {
            "number": 2,
            "time": 156.47006093333889,
            "value": 0.5511811023622047
          },
          {
            "number": 2,
            "time": 156.47663986667223,
            "value": 0.5433070866141733
          },
          {
            "number": 2,
            "time": 156.48321880000557,
            "value": 0.5354330708661418
          },
          {
            "number": 2,
            "time": 156.48979773333892,
            "value": 0.5275590551181102
          },
          {
            "number": 2,
            "time": 156.49473193333893,
            "value": 0.5196850393700787
          },
          {
            "number": 2,
            "time": 156.50131086667227,
            "value": 0.5118110236220472
          },
          {
            "number": 2,
            "time": 156.50788980000561,
            "value": 0.5039370078740157
          },
          {
            "number": 2,
            "time": 156.7101920000056,
            "value": 0.5039370078740157
          },
          {
            "number": 2,
            "time": 157.49966400000562,
            "value": 0.5039370078740157
          },
          {
            "number": 2,
            "time": 157.89440000000562,
            "value": 0.7559055118110236
          },
          {
            "number": 2,
            "time": 157.89604473333895,
            "value": 0.7480314960629921
          },
          {
            "number": 2,
            "time": 157.90097893333896,
            "value": 0.7401574803149606
          },
          {
            "number": 2,
            "time": 157.9075578666723,
            "value": 0.7322834645669292
          },
          {
            "number": 2,
            "time": 157.91413680000565,
            "value": 0.7244094488188977
          },
          {
            "number": 2,
            "time": 157.920715733339,
            "value": 0.7165354330708661
          },
          {
            "number": 2,
            "time": 157.925649933339,
            "value": 0.7086614173228346
          },
          {
            "number": 2,
            "time": 157.93222886667235,
            "value": 0.7007874015748031
          },
          {
            "number": 2,
            "time": 157.9388078000057,
            "value": 0.6929133858267716
          },
          {
            "number": 2,
            "time": 157.94538673333903,
            "value": 0.6850393700787402
          },
          {
            "number": 2,
            "time": 157.95032093333904,
            "value": 0.6771653543307087
          },
          {
            "number": 2,
            "time": 157.9568998666724,
            "value": 0.6692913385826772
          },
          {
            "number": 2,
            "time": 157.96347880000573,
            "value": 0.6614173228346457
          },
          {
            "number": 2,
            "time": 157.97005773333908,
            "value": 0.6535433070866141
          },
          {
            "number": 2,
            "time": 157.97499193333908,
            "value": 0.6456692913385826
          },
          {
            "number": 2,
            "time": 157.98157086667243,
            "value": 0.6377952755905512
          },
          {
            "number": 2,
            "time": 157.98814980000577,
            "value": 0.6299212598425197
          },
          {
            "number": 2,
            "time": 157.99472873333912,
            "value": 0.6220472440944882
          },
          {
            "number": 2,
            "time": 157.99966293333912,
            "value": 0.6141732283464567
          },
          {
            "number": 2,
            "time": 158.00624186667247,
            "value": 0.6062992125984252
          },
          {
            "number": 2,
            "time": 158.0128208000058,
            "value": 0.5984251968503937
          },
          {
            "number": 2,
            "time": 158.01939973333916,
            "value": 0.5905511811023622
          },
          {
            "number": 2,
            "time": 158.02433393333916,
            "value": 0.5826771653543307
          },
          {
            "number": 2,
            "time": 158.0309128666725,
            "value": 0.5748031496062992
          },
          {
            "number": 2,
            "time": 158.03749180000585,
            "value": 0.5669291338582677
          },
          {
            "number": 2,
            "time": 158.0440707333392,
            "value": 0.5590551181102362
          },
          {
            "number": 2,
            "time": 158.0490049333392,
            "value": 0.5511811023622047
          },
          {
            "number": 2,
            "time": 158.05558386667255,
            "value": 0.5433070866141733
          },
          {
            "number": 2,
            "time": 158.0621628000059,
            "value": 0.5354330708661418
          },
          {
            "number": 2,
            "time": 158.06874173333924,
            "value": 0.5275590551181102
          },
          {
            "number": 2,
            "time": 158.07367593333925,
            "value": 0.5196850393700787
          },
          {
            "number": 2,
            "time": 158.0802548666726,
            "value": 0.5118110236220472
          },
          {
            "number": 2,
            "time": 158.08683380000593,
            "value": 0.5039370078740157
          },
          {
            "number": 2,
            "time": 158.28913600000593,
            "value": 0.5039370078740157
          },
          {
            "number": 2,
            "time": 159.07860800000594,
            "value": 0.5039370078740157
          },
          {
            "number": 2,
            "time": 159.47334400000594,
            "value": 0.7559055118110236
          },
          {
            "number": 2,
            "time": 159.47498873333927,
            "value": 0.7480314960629921
          },
          {
            "number": 2,
            "time": 159.47992293333928,
            "value": 0.7401574803149606
          },
          {
            "number": 2,
            "time": 159.48650186667263,
            "value": 0.7322834645669292
          },
          {
            "number": 2,
            "time": 159.49308080000597,
            "value": 0.7244094488188977
          },
          {
            "number": 2,
            "time": 159.4996597333393,
            "value": 0.7165354330708661
          },
          {
            "number": 2,
            "time": 159.50459393333932,
            "value": 0.7086614173228346
          },
          {
            "number": 2,
            "time": 159.51117286667267,
            "value": 0.7007874015748031
          },
          {
            "number": 2,
            "time": 159.517751800006,
            "value": 0.6929133858267716
          },
          {
            "number": 2,
            "time": 159.52433073333935,
            "value": 0.6850393700787402
          },
          {
            "number": 2,
            "time": 159.52926493333936,
            "value": 0.6771653543307087
          },
          {
            "number": 2,
            "time": 159.5358438666727,
            "value": 0.6692913385826772
          },
          {
            "number": 2,
            "time": 159.54242280000605,
            "value": 0.6614173228346457
          },
          {
            "number": 2,
            "time": 159.5490017333394,
            "value": 0.6535433070866141
          },
          {
            "number": 2,
            "time": 159.5539359333394,
            "value": 0.6456692913385826
          },
          {
            "number": 2,
            "time": 159.56051486667275,
            "value": 0.6377952755905512
          },
          {
            "number": 2,
            "time": 159.5670938000061,
            "value": 0.6299212598425197
          },
          {
            "number": 2,
            "time": 159.57367273333944,
            "value": 0.6220472440944882
          },
          {
            "number": 2,
            "time": 159.57860693333944,
            "value": 0.6141732283464567
          },
          {
            "number": 2,
            "time": 159.5851858666728,
            "value": 0.6062992125984252
          },
          {
            "number": 2,
            "time": 159.59176480000613,
            "value": 0.5984251968503937
          },
          {
            "number": 2,
            "time": 159.59834373333948,
            "value": 0.5905511811023622
          },
          {
            "number": 2,
            "time": 159.60327793333948,
            "value": 0.5826771653543307
          },
          {
            "number": 2,
            "time": 159.60985686667283,
            "value": 0.5748031496062992
          },
          {
            "number": 2,
            "time": 159.61643580000617,
            "value": 0.5669291338582677
          },
          {
            "number": 2,
            "time": 159.62301473333952,
            "value": 0.5590551181102362
          },
          {
            "number": 2,
            "time": 159.62794893333952,
            "value": 0.5511811023622047
          },
          {
            "number": 2,
            "time": 159.63452786667287,
            "value": 0.5433070866141733
          },
          {
            "number": 2,
            "time": 159.6411068000062,
            "value": 0.5354330708661418
          },
          {
            "number": 2,
            "time": 159.64768573333956,
            "value": 0.5275590551181102
          },
          {
            "number": 2,
            "time": 159.65261993333957,
            "value": 0.5196850393700787
          },
          {
            "number": 2,
            "time": 159.6591988666729,
            "value": 0.5118110236220472
          },
          {
            "number": 2,
            "time": 159.66577780000625,
            "value": 0.5039370078740157
          },
          {
            "number": 2,
            "time": 159.86808000000624,
            "value": 0.5039370078740157
          },
          {
            "number": 2,
            "time": 160.65755200000626,
            "value": 0.5039370078740157
          },
          {
            "number": 2,
            "time": 161.05228800000626,
            "value": 0.7559055118110236
          },
          {
            "number": 2,
            "time": 161.0539327333396,
            "value": 0.7480314960629921
          },
          {
            "number": 2,
            "time": 161.0588669333396,
            "value": 0.7401574803149606
          },
          {
            "number": 2,
            "time": 161.06544586667295,
            "value": 0.7322834645669292
          },
          {
            "number": 2,
            "time": 161.0720248000063,
            "value": 0.7244094488188977
          },
          {
            "number": 2,
            "time": 161.07860373333963,
            "value": 0.7165354330708661
          },
          {
            "number": 2,
            "time": 161.08353793333964,
            "value": 0.7086614173228346
          },
          {
            "number": 2,
            "time": 161.090116866673,
            "value": 0.7007874015748031
          },
          {
            "number": 2,
            "time": 161.09669580000633,
            "value": 0.6929133858267716
          },
          {
            "number": 2,
            "time": 161.10163000000634,
            "value": 0.6929133858267716
          },
          {
            "number": 2,
            "time": 161.10327473333967,
            "value": 0.6850393700787402
          },
          {
            "number": 2,
            "time": 161.10820893333968,
            "value": 0.6771653543307087
          },
          {
            "number": 2,
            "time": 161.11478786667303,
            "value": 0.6692913385826772
          },
          {
            "number": 2,
            "time": 161.12136680000637,
            "value": 0.6614173228346457
          },
          {
            "number": 2,
            "time": 161.12794573333971,
            "value": 0.6535433070866141
          },
          {
            "number": 2,
            "time": 161.13287993333972,
            "value": 0.6456692913385826
          },
          {
            "number": 2,
            "time": 161.13945886667307,
            "value": 0.6377952755905512
          },
          {
            "number": 2,
            "time": 161.1460378000064,
            "value": 0.6299212598425197
          },
          {
            "number": 2,
            "time": 161.15097200000642,
            "value": 0.6299212598425197
          },
          {
            "number": 2,
            "time": 161.15261673333976,
            "value": 0.6220472440944882
          },
          {
            "number": 2,
            "time": 161.15755093333976,
            "value": 0.6141732283464567
          },
          {
            "number": 2,
            "time": 161.1641298666731,
            "value": 0.6062992125984252
          },
          {
            "number": 2,
            "time": 161.17070880000645,
            "value": 0.5984251968503937
          },
          {
            "number": 2,
            "time": 161.1772877333398,
            "value": 0.5905511811023622
          },
          {
            "number": 2,
            "time": 161.1822219333398,
            "value": 0.5826771653543307
          },
          {
            "number": 2,
            "time": 161.18880086667315,
            "value": 0.5748031496062992
          },
          {
            "number": 2,
            "time": 161.1953798000065,
            "value": 0.5669291338582677
          },
          {
            "number": 2,
            "time": 161.2003140000065,
            "value": 0.5669291338582677
          },
          {
            "number": 2,
            "time": 161.20195873333984,
            "value": 0.5590551181102362
          },
          {
            "number": 2,
            "time": 161.20689293333984,
            "value": 0.5511811023622047
          },
          {
            "number": 2,
            "time": 161.2134718666732,
            "value": 0.5433070866141733
          },
          {
            "number": 2,
            "time": 161.22005080000653,
            "value": 0.5354330708661418
          },
          {
            "number": 2,
            "time": 161.22662973333988,
            "value": 0.5275590551181102
          },
          {
            "number": 2,
            "time": 161.23156393333988,
            "value": 0.5196850393700787
          },
          {
            "number": 2,
            "time": 161.23814286667323,
            "value": 0.5118110236220472
          },
          {
            "number": 2,
            "time": 161.24472180000657,
            "value": 0.5039370078740157
          },
          {
            "number": 2,
            "time": 161.44702400000656,
            "value": 0.5039370078740157
          },
          {
            "number": 2,
            "time": 162.23649600000658,
            "value": 0.5039370078740157
          },
          {
            "number": 2,
            "time": 162.63123200000658,
            "value": 0.7559055118110236
          },
          {
            "number": 2,
            "time": 162.6328767333399,
            "value": 0.7480314960629921
          },
          {
            "number": 2,
            "time": 162.63781093333992,
            "value": 0.7401574803149606
          },
          {
            "number": 2,
            "time": 162.64438986667327,
            "value": 0.7322834645669292
          },
          {
            "number": 2,
            "time": 162.6509688000066,
            "value": 0.7244094488188977
          },
          {
            "number": 2,
            "time": 162.65754773333995,
            "value": 0.7165354330708661
          },
          {
            "number": 2,
            "time": 162.66248193333996,
            "value": 0.7086614173228346
          },
          {
            "number": 2,
            "time": 162.6690608666733,
            "value": 0.7007874015748031
          },
          {
            "number": 2,
            "time": 162.67563980000665,
            "value": 0.6929133858267716
          },
          {
            "number": 2,
            "time": 162.68221873334,
            "value": 0.6850393700787402
          },
          {
            "number": 2,
            "time": 162.68715293334,
            "value": 0.6771653543307087
          },
          {
            "number": 2,
            "time": 162.69373186667335,
            "value": 0.6692913385826772
          },
          {
            "number": 2,
            "time": 162.7003108000067,
            "value": 0.6614173228346457
          },
          {
            "number": 2,
            "time": 162.70688973334003,
            "value": 0.6535433070866141
          },
          {
            "number": 2,
            "time": 162.71182393334004,
            "value": 0.6456692913385826
          },
          {
            "number": 2,
            "time": 162.7184028666734,
            "value": 0.6377952755905512
          },
          {
            "number": 2,
            "time": 162.72498180000673,
            "value": 0.6299212598425197
          },
          {
            "number": 2,
            "time": 162.73156073334007,
            "value": 0.6220472440944882
          },
          {
            "number": 2,
            "time": 162.73649493334008,
            "value": 0.6141732283464567
          },
          {
            "number": 2,
            "time": 162.74307386667343,
            "value": 0.6062992125984252
          },
          {
            "number": 2,
            "time": 162.74965280000677,
            "value": 0.5984251968503937
          },
          {
            "number": 2,
            "time": 162.75623173334012,
            "value": 0.5905511811023622
          },
          {
            "number": 2,
            "time": 162.76116593334012,
            "value": 0.5826771653543307
          },
          {
            "number": 2,
            "time": 162.76774486667347,
            "value": 0.5748031496062992
          },
          {
            "number": 2,
            "time": 162.7743238000068,
            "value": 0.5669291338582677
          },
          {
            "number": 2,
            "time": 162.78090273334016,
            "value": 0.5590551181102362
          },
          {
            "number": 2,
            "time": 162.78583693334016,
            "value": 0.5511811023622047
          },
          {
            "number": 2,
            "time": 162.7924158666735,
            "value": 0.5433070866141733
          },
          {
            "number": 2,
            "time": 162.79899480000685,
            "value": 0.5354330708661418
          },
          {
            "number": 2,
            "time": 162.8055737333402,
            "value": 0.5275590551181102
          },
          {
            "number": 2,
            "time": 162.8105079333402,
            "value": 0.5196850393700787
          },
          {
            "number": 2,
            "time": 162.81708686667355,
            "value": 0.5118110236220472
          },
          {
            "number": 2,
            "time": 162.8236658000069,
            "value": 0.5039370078740157
          },
          {
            "number": 2,
            "time": 163.02596800000688,
            "value": 0.5039370078740157
          },
          {
            "number": 2,
            "time": 163.8154400000069,
            "value": 0.5039370078740157
          },
          {
            "number": 2,
            "time": 164.2101760000069,
            "value": 0.5039370078740157
          },
          {
            "number": 2,
            "time": 164.2101760000069,
            "value": 0.7559055118110236
          },
          {
            "number": 2,
            "time": 164.21182073334023,
            "value": 0.7480314960629921
          },
          {
            "number": 2,
            "time": 164.21675493334024,
            "value": 0.7401574803149606
          },
          {
            "number": 2,
            "time": 164.22333386667358,
            "value": 0.7322834645669292
          },
          {
            "number": 2,
            "time": 164.22991280000693,
            "value": 0.7244094488188977
          },
          {
            "number": 2,
            "time": 164.23649173334027,
            "value": 0.7165354330708661
          },
          {
            "number": 2,
            "time": 164.24142593334028,
            "value": 0.7086614173228346
          },
          {
            "number": 2,
            "time": 164.24800486667363,
            "value": 0.7007874015748031
          },
          {
            "number": 2,
            "time": 164.25458380000697,
            "value": 0.6929133858267716
          },
          {
            "number": 2,
            "time": 164.2611627333403,
            "value": 0.6850393700787402
          },
          {
            "number": 2,
            "time": 164.26609693334032,
            "value": 0.6771653543307087
          },
          {
            "number": 2,
            "time": 164.27267586667367,
            "value": 0.6692913385826772
          },
          {
            "number": 2,
            "time": 164.279254800007,
            "value": 0.6614173228346457
          },
          {
            "number": 2,
            "time": 164.28583373334035,
            "value": 0.6535433070866141
          },
          {
            "number": 2,
            "time": 164.29076793334036,
            "value": 0.6456692913385826
          },
          {
            "number": 2,
            "time": 164.2973468666737,
            "value": 0.6377952755905512
          },
          {
            "number": 2,
            "time": 164.30392580000705,
            "value": 0.6299212598425197
          },
          {
            "number": 2,
            "time": 164.3105047333404,
            "value": 0.6220472440944882
          },
          {
            "number": 2,
            "time": 164.3154389333404,
            "value": 0.6141732283464567
          },
          {
            "number": 2,
            "time": 164.32201786667375,
            "value": 0.6062992125984252
          },
          {
            "number": 2,
            "time": 164.3285968000071,
            "value": 0.5984251968503937
          },
          {
            "number": 2,
            "time": 164.33517573334044,
            "value": 0.5905511811023622
          },
          {
            "number": 2,
            "time": 164.34010993334044,
            "value": 0.5826771653543307
          },
          {
            "number": 2,
            "time": 164.3466888666738,
            "value": 0.5748031496062992
          },
          {
            "number": 2,
            "time": 164.35326780000713,
            "value": 0.5669291338582677
          },
          {
            "number": 2,
            "time": 164.35984673334048,
            "value": 0.5590551181102362
          },
          {
            "number": 2,
            "time": 164.36478093334048,
            "value": 0.5511811023622047
          },
          {
            "number": 2,
            "time": 164.37135986667383,
            "value": 0.5433070866141733
          },
          {
            "number": 2,
            "time": 164.37793880000717,
            "value": 0.5354330708661418
          },
          {
            "number": 2,
            "time": 164.38287300000718,
            "value": 0.5433070866141733
          },
          {
            "number": 2,
            "time": 164.38451773334052,
            "value": 0.5354330708661418
          },
          {
            "number": 2,
            "time": 164.38945193334052,
            "value": 0.5275590551181102
          },
          {
            "number": 2,
            "time": 164.39603086667387,
            "value": 0.5196850393700787
          },
          {
            "number": 2,
            "time": 164.4026098000072,
            "value": 0.5118110236220472
          },
          {
            "number": 2,
            "time": 164.5555700000072,
            "value": 0.5196850393700787
          },
          {
            "number": 2,
            "time": 164.6049120000072,
            "value": 0.5196850393700787
          },
          {
            "number": 2,
            "time": 164.7282670000072,
            "value": 0.5275590551181102
          },
          {
            "number": 2,
            "time": 164.9009640000072,
            "value": 0.5354330708661418
          },
          {
            "number": 2,
            "time": 165.0736610000072,
            "value": 0.5433070866141733
          },
          {
            "number": 2,
            "time": 165.2463580000072,
            "value": 0.5511811023622047
          },
          {
            "number": 2,
            "time": 165.3943840000072,
            "value": 0.5511811023622047
          },
          {
            "number": 2,
            "time": 165.4190550000072,
            "value": 0.5590551181102362
          },
          {
            "number": 2,
            "time": 165.5917520000072,
            "value": 0.5669291338582677
          },
          {
            "number": 2,
            "time": 165.7644490000072,
            "value": 0.5748031496062992
          },
          {
            "number": 2,
            "time": 165.78912000000722,
            "value": 0.8582677165354331
          },
          {
            "number": 2,
            "time": 165.7924094666739,
            "value": 0.8503937007874016
          },
          {
            "number": 2,
            "time": 165.7973436666739,
            "value": 0.84251968503937
          },
          {
            "number": 2,
            "time": 165.80392260000724,
            "value": 0.8346456692913385
          },
          {
            "number": 2,
            "time": 165.80885680000725,
            "value": 0.8267716535433071
          },
          {
            "number": 2,
            "time": 165.81379100000726,
            "value": 0.8188976377952756
          },
          {
            "number": 2,
            "time": 165.8203699333406,
            "value": 0.8110236220472441
          },
          {
            "number": 2,
            "time": 165.8253041333406,
            "value": 0.8031496062992126
          },
          {
            "number": 2,
            "time": 165.83023833334062,
            "value": 0.7952755905511811
          },
          {
            "number": 2,
            "time": 165.83517253334063,
            "value": 0.7874015748031497
          },
          {
            "number": 2,
            "time": 165.84175146667397,
            "value": 0.7795275590551181
          },
          {
            "number": 2,
            "time": 165.84668566667398,
            "value": 0.7716535433070866
          },
          {
            "number": 2,
            "time": 165.85161986667399,
            "value": 0.7637795275590551
          },
          {
            "number": 2,
            "time": 165.85819880000733,
            "value": 0.7559055118110236
          },
          {
            "number": 2,
            "time": 165.86313300000734,
            "value": 0.7480314960629921
          },
          {
            "number": 2,
            "time": 165.86806720000735,
            "value": 0.7401574803149606
          },
          {
            "number": 2,
            "time": 165.87300140000735,
            "value": 0.7322834645669292
          },
          {
            "number": 2,
            "time": 165.8795803333407,
            "value": 0.7244094488188977
          },
          {
            "number": 2,
            "time": 165.8845145333407,
            "value": 0.7165354330708661
          },
          {
            "number": 2,
            "time": 165.8894487333407,
            "value": 0.7086614173228346
          },
          {
            "number": 2,
            "time": 165.89602766667406,
            "value": 0.7007874015748031
          },
          {
            "number": 2,
            "time": 165.90096186667407,
            "value": 0.6929133858267716
          },
          {
            "number": 2,
            "time": 165.90589606667407,
            "value": 0.6850393700787402
          },
          {
            "number": 2,
            "time": 165.91083026667408,
            "value": 0.6771653543307087
          },
          {
            "number": 2,
            "time": 165.91740920000743,
            "value": 0.6692913385826772
          },
          {
            "number": 2,
            "time": 165.92234340000743,
            "value": 0.6614173228346457
          },
          {
            "number": 2,
            "time": 165.92727760000744,
            "value": 0.6535433070866141
          },
          {
            "number": 2,
            "time": 165.9338565333408,
            "value": 0.6456692913385826
          },
          {
            "number": 2,
            "time": 165.93714600000746,
            "value": 0.5826771653543307
          },
          {
            "number": 2,
            "time": 165.93714600000746,
            "value": 0.6535433070866141
          },
          {
            "number": 2,
            "time": 165.9387907333408,
            "value": 0.6456692913385826
          },
          {
            "number": 2,
            "time": 165.94536966667414,
            "value": 0.6377952755905512
          },
          {
            "number": 2,
            "time": 165.95030386667415,
            "value": 0.6299212598425197
          },
          {
            "number": 2,
            "time": 165.95523806667416,
            "value": 0.6220472440944882
          },
          {
            "number": 2,
            "time": 165.96017226667416,
            "value": 0.6141732283464567
          },
          {
            "number": 2,
            "time": 165.9667512000075,
            "value": 0.6062992125984252
          },
          {
            "number": 2,
            "time": 165.97168540000752,
            "value": 0.5984251968503937
          },
          {
            "number": 2,
            "time": 165.97661960000752,
            "value": 0.5905511811023622
          },
          {
            "number": 2,
            "time": 165.98155380000753,
            "value": 0.5826771653543307
          },
          {
            "number": 2,
            "time": 166.10984300000754,
            "value": 0.5905511811023622
          },
          {
            "number": 2,
            "time": 166.18385600000755,
            "value": 0.5905511811023622
          },
          {
            "number": 2,
            "time": 166.28254000000754,
            "value": 0.5984251968503937
          },
          {
            "number": 2,
            "time": 166.45523700000754,
            "value": 0.6062992125984252
          },
          {
            "number": 2,
            "time": 166.62793400000754,
            "value": 0.6141732283464567
          },
          {
            "number": 2,
            "time": 166.80063100000754,
            "value": 0.6220472440944882
          },
          {
            "number": 2,
            "time": 166.97332800000754,
            "value": 0.6299212598425197
          },
          {
            "number": 2,
            "time": 167.36806400000754,
            "value": 0.6299212598425197
          },
          {
            "number": 2,
            "time": 167.36806400000754,
            "value": 0.9448818897637795
          },
          {
            "number": 2,
            "time": 167.36970873334087,
            "value": 0.937007874015748
          },
          {
            "number": 2,
            "time": 167.3713534666742,
            "value": 0.937007874015748
          },
          {
            "number": 2,
            "time": 167.37299820000754,
            "value": 0.937007874015748
          },
          {
            "number": 2,
            "time": 167.37464293334088,
            "value": 0.9291338582677166
          },
          {
            "number": 2,
            "time": 167.37628766667422,
            "value": 0.9291338582677166
          },
          {
            "number": 2,
            "time": 167.37793240000755,
            "value": 0.9291338582677166
          },
          {
            "number": 2,
            "time": 167.3795771333409,
            "value": 0.9212598425196851
          },
          {
            "number": 2,
            "time": 167.38122186667422,
            "value": 0.9212598425196851
          },
          {
            "number": 2,
            "time": 167.38286660000756,
            "value": 0.9212598425196851
          },
          {
            "number": 2,
            "time": 167.3845113333409,
            "value": 0.9133858267716536
          },
          {
            "number": 2,
            "time": 167.38615606667423,
            "value": 0.9133858267716536
          },
          {
            "number": 2,
            "time": 167.38780080000757,
            "value": 0.9133858267716536
          },
          {
            "number": 2,
            "time": 167.3894455333409,
            "value": 0.905511811023622
          },
          {
            "number": 2,
            "time": 167.39109026667424,
            "value": 0.905511811023622
          },
          {
            "number": 2,
            "time": 167.39273500000758,
            "value": 0.905511811023622
          },
          {
            "number": 2,
            "time": 167.3943797333409,
            "value": 0.8976377952755905
          },
          {
            "number": 2,
            "time": 167.39602446667425,
            "value": 0.8976377952755905
          },
          {
            "number": 2,
            "time": 167.39766920000758,
            "value": 0.8976377952755905
          },
          {
            "number": 2,
            "time": 167.39931393334092,
            "value": 0.889763779527559
          },
          {
            "number": 2,
            "time": 167.40095866667426,
            "value": 0.889763779527559
          },
          {
            "number": 2,
            "time": 167.4026034000076,
            "value": 0.889763779527559
          },
          {
            "number": 2,
            "time": 167.40424813334093,
            "value": 0.8818897637795275
          },
          {
            "number": 2,
            "time": 167.40589286667426,
            "value": 0.8818897637795275
          },
          {
            "number": 2,
            "time": 167.4075376000076,
            "value": 0.8818897637795275
          },
          {
            "number": 2,
            "time": 167.40918233334094,
            "value": 0.8740157480314961
          },
          {
            "number": 2,
            "time": 167.41082706667427,
            "value": 0.8740157480314961
          },
          {
            "number": 2,
            "time": 167.4124718000076,
            "value": 0.8740157480314961
          },
          {
            "number": 2,
            "time": 167.41411653334094,
            "value": 0.8661417322834646
          },
          {
            "number": 2,
            "time": 167.41576126667428,
            "value": 0.8661417322834646
          },
          {
            "number": 2,
            "time": 167.41740600000762,
            "value": 0.8661417322834646
          },
          {
            "number": 2,
            "time": 167.41905073334095,
            "value": 0.8582677165354331
          },
          {
            "number": 2,
            "time": 167.4206954666743,
            "value": 0.8582677165354331
          },
          {
            "number": 2,
            "time": 167.42234020000762,
            "value": 0.8582677165354331
          },
          {
            "number": 2,
            "time": 167.42398493334096,
            "value": 0.8503937007874016
          },
          {
            "number": 2,
            "time": 167.4256296666743,
            "value": 0.8503937007874016
          },
          {
            "number": 2,
            "time": 167.42727440000763,
            "value": 0.8503937007874016
          },
          {
            "number": 2,
            "time": 167.42891913334097,
            "value": 0.84251968503937
          },
          {
            "number": 2,
            "time": 167.4305638666743,
            "value": 0.84251968503937
          },
          {
            "number": 2,
            "time": 167.43220860000764,
            "value": 0.84251968503937
          },
          {
            "number": 2,
            "time": 167.43385333334098,
            "value": 0.8346456692913385
          },
          {
            "number": 2,
            "time": 167.4354980666743,
            "value": 0.8346456692913385
          },
          {
            "number": 2,
            "time": 167.43714280000765,
            "value": 0.8346456692913385
          },
          {
            "number": 2,
            "time": 167.43878753334099,
            "value": 0.8267716535433071
          },
          {
            "number": 2,
            "time": 167.44043226667432,
            "value": 0.8267716535433071
          },
          {
            "number": 2,
            "time": 167.44207700000766,
            "value": 0.8267716535433071
          },
          {
            "number": 2,
            "time": 167.443721733341,
            "value": 0.8188976377952756
          },
          {
            "number": 2,
            "time": 167.44536646667433,
            "value": 0.8188976377952756
          },
          {
            "number": 2,
            "time": 167.44701120000767,
            "value": 0.8188976377952756
          },
          {
            "number": 2,
            "time": 167.448655933341,
            "value": 0.8110236220472441
          },
          {
            "number": 2,
            "time": 167.45030066667434,
            "value": 0.8110236220472441
          },
          {
            "number": 2,
            "time": 167.45194540000767,
            "value": 0.8110236220472441
          },
          {
            "number": 2,
            "time": 167.453590133341,
            "value": 0.8031496062992126
          },
          {
            "number": 2,
            "time": 167.45523486667435,
            "value": 0.8031496062992126
          },
          {
            "number": 2,
            "time": 167.45687960000768,
            "value": 0.8031496062992126
          },
          {
            "number": 2,
            "time": 167.45852433334102,
            "value": 0.7952755905511811
          },
          {
            "number": 2,
            "time": 167.46016906667435,
            "value": 0.7952755905511811
          },
          {
            "number": 2,
            "time": 167.4618138000077,
            "value": 0.7952755905511811
          },
          {
            "number": 2,
            "time": 167.46345853334103,
            "value": 0.7874015748031497
          },
          {
            "number": 2,
            "time": 167.46510326667436,
            "value": 0.7874015748031497
          },
          {
            "number": 2,
            "time": 167.4667480000077,
            "value": 0.7874015748031497
          },
          {
            "number": 2,
            "time": 167.46839273334103,
            "value": 0.7795275590551181
          },
          {
            "number": 2,
            "time": 167.47003746667437,
            "value": 0.7795275590551181
          },
          {
            "number": 2,
            "time": 167.4716822000077,
            "value": 0.7795275590551181
          },
          {
            "number": 2,
            "time": 167.47332693334104,
            "value": 0.7716535433070866
          },
          {
            "number": 2,
            "time": 167.47497166667438,
            "value": 0.7716535433070866
          },
          {
            "number": 2,
            "time": 167.4766164000077,
            "value": 0.7716535433070866
          },
          {
            "number": 2,
            "time": 167.47826113334105,
            "value": 0.7637795275590551
          },
          {
            "number": 2,
            "time": 167.4799058666744,
            "value": 0.7637795275590551
          },
          {
            "number": 2,
            "time": 167.48155060000772,
            "value": 0.7637795275590551
          },
          {
            "number": 2,
            "time": 167.48319533334106,
            "value": 0.7559055118110236
          },
          {
            "number": 2,
            "time": 167.4848400666744,
            "value": 0.7559055118110236
          },
          {
            "number": 2,
            "time": 167.48648480000773,
            "value": 0.7559055118110236
          },
          {
            "number": 2,
            "time": 167.48812953334107,
            "value": 0.7480314960629921
          },
          {
            "number": 2,
            "time": 167.4897742666744,
            "value": 0.7480314960629921
          },
          {
            "number": 2,
            "time": 167.49141900000774,
            "value": 0.7480314960629921
          },
          {
            "number": 2,
            "time": 167.49306373334107,
            "value": 0.7401574803149606
          },
          {
            "number": 2,
            "time": 167.4947084666744,
            "value": 0.7401574803149606
          },
          {
            "number": 2,
            "time": 167.49635320000775,
            "value": 0.7401574803149606
          },
          {
            "number": 2,
            "time": 167.49799793334108,
            "value": 0.7322834645669292
          },
          {
            "number": 2,
            "time": 167.49964266667442,
            "value": 0.7322834645669292
          },
          {
            "number": 2,
            "time": 167.50128740000775,
            "value": 0.7322834645669292
          },
          {
            "number": 2,
            "time": 167.5029321333411,
            "value": 0.7244094488188977
          },
          {
            "number": 2,
            "time": 167.50457686667443,
            "value": 0.7244094488188977
          },
          {
            "number": 2,
            "time": 167.50622160000776,
            "value": 0.7244094488188977
          },
          {
            "number": 2,
            "time": 167.5078663333411,
            "value": 0.7165354330708661
          },
          {
            "number": 2,
            "time": 167.50951106667443,
            "value": 0.7165354330708661
          },
          {
            "number": 2,
            "time": 167.51115580000777,
            "value": 0.7165354330708661
          },
          {
            "number": 2,
            "time": 167.5128005333411,
            "value": 0.7086614173228346
          },
          {
            "number": 2,
            "time": 167.51444526667444,
            "value": 0.7086614173228346
          },
          {
            "number": 2,
            "time": 167.51609000000778,
            "value": 0.7086614173228346
          },
          {
            "number": 2,
            "time": 167.51773473334111,
            "value": 0.7007874015748031
          },
          {
            "number": 2,
            "time": 167.51937946667445,
            "value": 0.7007874015748031
          },
          {
            "number": 2,
            "time": 167.5210242000078,
            "value": 0.7007874015748031
          },
          {
            "number": 2,
            "time": 167.52266893334112,
            "value": 0.6929133858267716
          },
          {
            "number": 2,
            "time": 167.52431366667446,
            "value": 0.6929133858267716
          },
          {
            "number": 2,
            "time": 167.5259584000078,
            "value": 0.6929133858267716
          },
          {
            "number": 2,
            "time": 167.52760313334113,
            "value": 0.6850393700787402
          },
          {
            "number": 2,
            "time": 167.52924786667447,
            "value": 0.6850393700787402
          },
          {
            "number": 2,
            "time": 167.5308926000078,
            "value": 0.6850393700787402
          },
          {
            "number": 2,
            "time": 167.53253733334114,
            "value": 0.6771653543307087
          },
          {
            "number": 2,
            "time": 167.53418206667448,
            "value": 0.6771653543307087
          },
          {
            "number": 2,
            "time": 167.5358268000078,
            "value": 0.6771653543307087
          },
          {
            "number": 2,
            "time": 167.53747153334115,
            "value": 0.6692913385826772
          },
          {
            "number": 2,
            "time": 167.53911626667448,
            "value": 0.6692913385826772
          },
          {
            "number": 2,
            "time": 167.54076100000782,
            "value": 0.6692913385826772
          },
          {
            "number": 2,
            "time": 167.54240573334116,
            "value": 0.6614173228346457
          },
          {
            "number": 2,
            "time": 167.5440504666745,
            "value": 0.6614173228346457
          },
          {
            "number": 2,
            "time": 167.54569520000783,
            "value": 0.6614173228346457
          },
          {
            "number": 2,
            "time": 167.54733993334116,
            "value": 0.6535433070866141
          },
          {
            "number": 2,
            "time": 167.5489846666745,
            "value": 0.6535433070866141
          },
          {
            "number": 2,
            "time": 167.55062940000784,
            "value": 0.6535433070866141
          },
          {
            "number": 2,
            "time": 167.55227413334117,
            "value": 0.6456692913385826
          },
          {
            "number": 2,
            "time": 167.5539188666745,
            "value": 0.6456692913385826
          },
          {
            "number": 2,
            "time": 167.55556360000784,
            "value": 0.6456692913385826
          },
          {
            "number": 2,
            "time": 167.55720833334118,
            "value": 0.6377952755905512
          },
          {
            "number": 2,
            "time": 167.55885306667452,
            "value": 0.6377952755905512
          },
          {
            "number": 2,
            "time": 167.56049780000785,
            "value": 0.6377952755905512
          },
          {
            "number": 2,
            "time": 167.5621425333412,
            "value": 0.6299212598425197
          },
          {
            "number": 2,
            "time": 167.56378726667452,
            "value": 0.6299212598425197
          },
          {
            "number": 2,
            "time": 167.76280000000787,
            "value": 0.6299212598425197
          },
          {
            "number": 2,
            "time": 168.5522720000079,
            "value": 0.6299212598425197
          },
          {
            "number": 2,
            "time": 168.94700800000788,
            "value": 0.9448818897637795
          },
          {
            "number": 2,
            "time": 168.94865273334122,
            "value": 0.937007874015748
          },
          {
            "number": 2,
            "time": 168.95029746667456,
            "value": 0.937007874015748
          },
          {
            "number": 2,
            "time": 168.9519422000079,
            "value": 0.937007874015748
          },
          {
            "number": 2,
            "time": 168.95358693334123,
            "value": 0.9291338582677166
          },
          {
            "number": 2,
            "time": 168.95523166667456,
            "value": 0.9291338582677166
          },
          {
            "number": 2,
            "time": 168.9568764000079,
            "value": 0.9291338582677166
          },
          {
            "number": 2,
            "time": 168.95852113334124,
            "value": 0.9212598425196851
          },
          {
            "number": 2,
            "time": 168.96016586667457,
            "value": 0.9212598425196851
          },
          {
            "number": 2,
            "time": 168.9618106000079,
            "value": 0.9212598425196851
          },
          {
            "number": 2,
            "time": 168.96345533334124,
            "value": 0.9133858267716536
          },
          {
            "number": 2,
            "time": 168.96510006667458,
            "value": 0.9133858267716536
          },
          {
            "number": 2,
            "time": 168.96674480000792,
            "value": 0.9133858267716536
          },
          {
            "number": 2,
            "time": 168.96838953334125,
            "value": 0.905511811023622
          },
          {
            "number": 2,
            "time": 168.9700342666746,
            "value": 0.905511811023622
          },
          {
            "number": 2,
            "time": 168.97167900000792,
            "value": 0.905511811023622
          },
          {
            "number": 2,
            "time": 168.97332373334126,
            "value": 0.8976377952755905
          },
          {
            "number": 2,
            "time": 168.9749684666746,
            "value": 0.8976377952755905
          },
          {
            "number": 2,
            "time": 168.97661320000793,
            "value": 0.8976377952755905
          },
          {
            "number": 2,
            "time": 168.97825793334127,
            "value": 0.889763779527559
          },
          {
            "number": 2,
            "time": 168.9799026666746,
            "value": 0.889763779527559
          },
          {
            "number": 2,
            "time": 168.98154740000794,
            "value": 0.889763779527559
          },
          {
            "number": 2,
            "time": 168.98319213334128,
            "value": 0.8818897637795275
          },
          {
            "number": 2,
            "time": 168.9848368666746,
            "value": 0.8818897637795275
          },
          {
            "number": 2,
            "time": 168.98648160000795,
            "value": 0.8818897637795275
          },
          {
            "number": 2,
            "time": 168.98812633334128,
            "value": 0.8740157480314961
          },
          {
            "number": 2,
            "time": 168.98977106667462,
            "value": 0.8740157480314961
          },
          {
            "number": 2,
            "time": 168.99141580000796,
            "value": 0.8740157480314961
          },
          {
            "number": 2,
            "time": 168.9930605333413,
            "value": 0.8661417322834646
          },
          {
            "number": 2,
            "time": 168.99470526667463,
            "value": 0.8661417322834646
          },
          {
            "number": 2,
            "time": 168.99635000000796,
            "value": 0.8661417322834646
          },
          {
            "number": 2,
            "time": 168.9979947333413,
            "value": 0.8582677165354331
          },
          {
            "number": 2,
            "time": 168.99963946667464,
            "value": 0.8582677165354331
          },
          {
            "number": 2,
            "time": 169.00128420000797,
            "value": 0.8582677165354331
          },
          {
            "number": 2,
            "time": 169.0029289333413,
            "value": 0.8503937007874016
          },
          {
            "number": 2,
            "time": 169.00457366667464,
            "value": 0.8503937007874016
          },
          {
            "number": 2,
            "time": 169.00621840000798,
            "value": 0.8503937007874016
          },
          {
            "number": 2,
            "time": 169.00786313334132,
            "value": 0.84251968503937
          },
          {
            "number": 2,
            "time": 169.00950786667465,
            "value": 0.84251968503937
          },
          {
            "number": 2,
            "time": 169.011152600008,
            "value": 0.84251968503937
          },
          {
            "number": 2,
            "time": 169.01279733334133,
            "value": 0.8346456692913385
          },
          {
            "number": 2,
            "time": 169.01444206667466,
            "value": 0.8346456692913385
          },
          {
            "number": 2,
            "time": 169.016086800008,
            "value": 0.8346456692913385
          },
          {
            "number": 2,
            "time": 169.01773153334133,
            "value": 0.8267716535433071
          },
          {
            "number": 2,
            "time": 169.01937626667467,
            "value": 0.8267716535433071
          },
          {
            "number": 2,
            "time": 169.021021000008,
            "value": 0.8267716535433071
          },
          {
            "number": 2,
            "time": 169.02266573334134,
            "value": 0.8188976377952756
          },
          {
            "number": 2,
            "time": 169.02431046667468,
            "value": 0.8188976377952756
          },
          {
            "number": 2,
            "time": 169.025955200008,
            "value": 0.8188976377952756
          },
          {
            "number": 2,
            "time": 169.02759993334135,
            "value": 0.8110236220472441
          },
          {
            "number": 2,
            "time": 169.02924466667469,
            "value": 0.8110236220472441
          },
          {
            "number": 2,
            "time": 169.03088940000802,
            "value": 0.8110236220472441
          },
          {
            "number": 2,
            "time": 169.03253413334136,
            "value": 0.8031496062992126
          },
          {
            "number": 2,
            "time": 169.0341788666747,
            "value": 0.8031496062992126
          },
          {
            "number": 2,
            "time": 169.03582360000803,
            "value": 0.8031496062992126
          },
          {
            "number": 2,
            "time": 169.03746833334137,
            "value": 0.7952755905511811
          },
          {
            "number": 2,
            "time": 169.0391130666747,
            "value": 0.7952755905511811
          },
          {
            "number": 2,
            "time": 169.04075780000804,
            "value": 0.7952755905511811
          },
          {
            "number": 2,
            "time": 169.04240253334137,
            "value": 0.7874015748031497
          },
          {
            "number": 2,
            "time": 169.0440472666747,
            "value": 0.7874015748031497
          },
          {
            "number": 2,
            "time": 169.04569200000805,
            "value": 0.7874015748031497
          },
          {
            "number": 2,
            "time": 169.04733673334138,
            "value": 0.7795275590551181
          },
          {
            "number": 2,
            "time": 169.04898146667472,
            "value": 0.7795275590551181
          },
          {
            "number": 2,
            "time": 169.05062620000805,
            "value": 0.7795275590551181
          },
          {
            "number": 2,
            "time": 169.0522709333414,
            "value": 0.7716535433070866
          },
          {
            "number": 2,
            "time": 169.05391566667473,
            "value": 0.7716535433070866
          },
          {
            "number": 2,
            "time": 169.05556040000806,
            "value": 0.7716535433070866
          },
          {
            "number": 2,
            "time": 169.0572051333414,
            "value": 0.7637795275590551
          },
          {
            "number": 2,
            "time": 169.05884986667473,
            "value": 0.7637795275590551
          },
          {
            "number": 2,
            "time": 169.06049460000807,
            "value": 0.7637795275590551
          },
          {
            "number": 2,
            "time": 169.0621393333414,
            "value": 0.7559055118110236
          },
          {
            "number": 2,
            "time": 169.06378406667474,
            "value": 0.7559055118110236
          },
          {
            "number": 2,
            "time": 169.06542880000808,
            "value": 0.7559055118110236
          },
          {
            "number": 2,
            "time": 169.06707353334141,
            "value": 0.7480314960629921
          },
          {
            "number": 2,
            "time": 169.06871826667475,
            "value": 0.7480314960629921
          },
          {
            "number": 2,
            "time": 169.0703630000081,
            "value": 0.7480314960629921
          },
          {
            "number": 2,
            "time": 169.07200773334142,
            "value": 0.7401574803149606
          },
          {
            "number": 2,
            "time": 169.07365246667476,
            "value": 0.7401574803149606
          },
          {
            "number": 2,
            "time": 169.0752972000081,
            "value": 0.7401574803149606
          },
          {
            "number": 2,
            "time": 169.07694193334143,
            "value": 0.7322834645669292
          },
          {
            "number": 2,
            "time": 169.07858666667477,
            "value": 0.7322834645669292
          },
          {
            "number": 2,
            "time": 169.0802314000081,
            "value": 0.7322834645669292
          },
          {
            "number": 2,
            "time": 169.08187613334144,
            "value": 0.7244094488188977
          },
          {
            "number": 2,
            "time": 169.08352086667477,
            "value": 0.7244094488188977
          },
          {
            "number": 2,
            "time": 169.0851656000081,
            "value": 0.7244094488188977
          },
          {
            "number": 2,
            "time": 169.08681033334145,
            "value": 0.7165354330708661
          },
          {
            "number": 2,
            "time": 169.08845506667478,
            "value": 0.7165354330708661
          },
          {
            "number": 2,
            "time": 169.09009980000812,
            "value": 0.7165354330708661
          },
          {
            "number": 2,
            "time": 169.09174453334145,
            "value": 0.7086614173228346
          },
          {
            "number": 2,
            "time": 169.0933892666748,
            "value": 0.7086614173228346
          },
          {
            "number": 2,
            "time": 169.09503400000813,
            "value": 0.7086614173228346
          },
          {
            "number": 2,
            "time": 169.09667873334146,
            "value": 0.7007874015748031
          },
          {
            "number": 2,
            "time": 169.0983234666748,
            "value": 0.7007874015748031
          },
          {
            "number": 2,
            "time": 169.09996820000813,
            "value": 0.7007874015748031
          },
          {
            "number": 2,
            "time": 169.10161293334147,
            "value": 0.6929133858267716
          },
          {
            "number": 2,
            "time": 169.1032576666748,
            "value": 0.6929133858267716
          },
          {
            "number": 2,
            "time": 169.10490240000814,
            "value": 0.6929133858267716
          },
          {
            "number": 2,
            "time": 169.10654713334148,
            "value": 0.6850393700787402
          },
          {
            "number": 2,
            "time": 169.10819186667482,
            "value": 0.6850393700787402
          },
          {
            "number": 2,
            "time": 169.10983660000815,
            "value": 0.6850393700787402
          },
          {
            "number": 2,
            "time": 169.1114813333415,
            "value": 0.6771653543307087
          },
          {
            "number": 2,
            "time": 169.11312606667482,
            "value": 0.6771653543307087
          },
          {
            "number": 2,
            "time": 169.11477080000816,
            "value": 0.6771653543307087
          },
          {
            "number": 2,
            "time": 169.1164155333415,
            "value": 0.6692913385826772
          },
          {
            "number": 2,
            "time": 169.11806026667483,
            "value": 0.6692913385826772
          },
          {
            "number": 2,
            "time": 169.11970500000817,
            "value": 0.6692913385826772
          },
          {
            "number": 2,
            "time": 169.1213497333415,
            "value": 0.6614173228346457
          },
          {
            "number": 2,
            "time": 169.12299446667484,
            "value": 0.6614173228346457
          },
          {
            "number": 2,
            "time": 169.12463920000818,
            "value": 0.6614173228346457
          },
          {
            "number": 2,
            "time": 169.1262839333415,
            "value": 0.6535433070866141
          },
          {
            "number": 2,
            "time": 169.12792866667485,
            "value": 0.6535433070866141
          },
          {
            "number": 2,
            "time": 169.12957340000818,
            "value": 0.6535433070866141
          },
          {
            "number": 2,
            "time": 169.13121813334152,
            "value": 0.6456692913385826
          },
          {
            "number": 2,
            "time": 169.13286286667486,
            "value": 0.6456692913385826
          },
          {
            "number": 2,
            "time": 169.1345076000082,
            "value": 0.6456692913385826
          },
          {
            "number": 2,
            "time": 169.13615233334153,
            "value": 0.6377952755905512
          },
          {
            "number": 2,
            "time": 169.13779706667486,
            "value": 0.6377952755905512
          },
          {
            "number": 2,
            "time": 169.1394418000082,
            "value": 0.6377952755905512
          },
          {
            "number": 2,
            "time": 169.14108653334154,
            "value": 0.6299212598425197
          },
          {
            "number": 2,
            "time": 169.14273126667487,
            "value": 0.6299212598425197
          },
          {
            "number": 2,
            "time": 169.34174400000822,
            "value": 0.6299212598425197
          },
          {
            "number": 2,
            "time": 170.13121600000824,
            "value": 0.6299212598425197
          },
          {
            "number": 2,
            "time": 170.52595200000823,
            "value": 0.6299212598425197
          },
          {
            "number": 2,
            "time": 170.52595200000823,
            "value": 0.9448818897637795
          },
          {
            "number": 2,
            "time": 170.52759673334157,
            "value": 0.937007874015748
          },
          {
            "number": 2,
            "time": 170.5292414666749,
            "value": 0.937007874015748
          },
          {
            "number": 2,
            "time": 170.53088620000824,
            "value": 0.937007874015748
          },
          {
            "number": 2,
            "time": 170.53253093334158,
            "value": 0.9291338582677166
          },
          {
            "number": 2,
            "time": 170.5341756666749,
            "value": 0.9291338582677166
          },
          {
            "number": 2,
            "time": 170.53582040000825,
            "value": 0.9291338582677166
          },
          {
            "number": 2,
            "time": 170.53746513334158,
            "value": 0.9212598425196851
          },
          {
            "number": 2,
            "time": 170.53910986667492,
            "value": 0.9212598425196851
          },
          {
            "number": 2,
            "time": 170.54075460000826,
            "value": 0.9212598425196851
          },
          {
            "number": 2,
            "time": 170.5423993333416,
            "value": 0.9133858267716536
          },
          {
            "number": 2,
            "time": 170.54404406667493,
            "value": 0.9133858267716536
          },
          {
            "number": 2,
            "time": 170.54568880000826,
            "value": 0.9133858267716536
          },
          {
            "number": 2,
            "time": 170.5473335333416,
            "value": 0.905511811023622
          },
          {
            "number": 2,
            "time": 170.54897826667494,
            "value": 0.905511811023622
          },
          {
            "number": 2,
            "time": 170.55062300000827,
            "value": 0.905511811023622
          },
          {
            "number": 2,
            "time": 170.5522677333416,
            "value": 0.8976377952755905
          },
          {
            "number": 2,
            "time": 170.55391246667494,
            "value": 0.8976377952755905
          },
          {
            "number": 2,
            "time": 170.55555720000828,
            "value": 0.8976377952755905
          },
          {
            "number": 2,
            "time": 170.55720193334162,
            "value": 0.889763779527559
          },
          {
            "number": 2,
            "time": 170.55884666667495,
            "value": 0.889763779527559
          },
          {
            "number": 2,
            "time": 170.5604914000083,
            "value": 0.889763779527559
          },
          {
            "number": 2,
            "time": 170.56213613334162,
            "value": 0.8818897637795275
          },
          {
            "number": 2,
            "time": 170.56378086667496,
            "value": 0.8818897637795275
          },
          {
            "number": 2,
            "time": 170.5654256000083,
            "value": 0.8818897637795275
          },
          {
            "number": 2,
            "time": 170.56707033334163,
            "value": 0.8740157480314961
          },
          {
            "number": 2,
            "time": 170.56871506667497,
            "value": 0.8740157480314961
          },
          {
            "number": 2,
            "time": 170.5703598000083,
            "value": 0.8740157480314961
          },
          {
            "number": 2,
            "time": 170.57200453334164,
            "value": 0.8661417322834646
          },
          {
            "number": 2,
            "time": 170.57364926667498,
            "value": 0.8661417322834646
          },
          {
            "number": 2,
            "time": 170.5752940000083,
            "value": 0.8661417322834646
          },
          {
            "number": 2,
            "time": 170.57693873334165,
            "value": 0.8582677165354331
          },
          {
            "number": 2,
            "time": 170.57858346667498,
            "value": 0.8582677165354331
          },
          {
            "number": 2,
            "time": 170.58022820000832,
            "value": 0.8582677165354331
          },
          {
            "number": 2,
            "time": 170.58187293334166,
            "value": 0.8503937007874016
          },
          {
            "number": 2,
            "time": 170.583517666675,
            "value": 0.8503937007874016
          },
          {
            "number": 2,
            "time": 170.58516240000833,
            "value": 0.8503937007874016
          },
          {
            "number": 2,
            "time": 170.58680713334167,
            "value": 0.84251968503937
          },
          {
            "number": 2,
            "time": 170.588451866675,
            "value": 0.84251968503937
          },
          {
            "number": 2,
            "time": 170.59009660000834,
            "value": 0.84251968503937
          },
          {
            "number": 2,
            "time": 170.59174133334167,
            "value": 0.8346456692913385
          },
          {
            "number": 2,
            "time": 170.593386066675,
            "value": 0.8346456692913385
          },
          {
            "number": 2,
            "time": 170.59503080000835,
            "value": 0.8346456692913385
          },
          {
            "number": 2,
            "time": 170.59667553334168,
            "value": 0.8267716535433071
          },
          {
            "number": 2,
            "time": 170.59832026667502,
            "value": 0.8267716535433071
          },
          {
            "number": 2,
            "time": 170.59996500000835,
            "value": 0.8267716535433071
          },
          {
            "number": 2,
            "time": 170.6016097333417,
            "value": 0.8188976377952756
          },
          {
            "number": 2,
            "time": 170.60325446667503,
            "value": 0.8188976377952756
          },
          {
            "number": 2,
            "time": 170.60489920000836,
            "value": 0.8188976377952756
          },
          {
            "number": 2,
            "time": 170.6065439333417,
            "value": 0.8110236220472441
          },
          {
            "number": 2,
            "time": 170.60818866667503,
            "value": 0.8110236220472441
          },
          {
            "number": 2,
            "time": 170.60983340000837,
            "value": 0.8110236220472441
          },
          {
            "number": 2,
            "time": 170.6114781333417,
            "value": 0.8031496062992126
          },
          {
            "number": 2,
            "time": 170.61312286667504,
            "value": 0.8031496062992126
          },
          {
            "number": 2,
            "time": 170.61476760000838,
            "value": 0.8031496062992126
          },
          {
            "number": 2,
            "time": 170.6164123333417,
            "value": 0.7952755905511811
          },
          {
            "number": 2,
            "time": 170.61805706667505,
            "value": 0.7952755905511811
          },
          {
            "number": 2,
            "time": 170.6197018000084,
            "value": 0.7952755905511811
          },
          {
            "number": 2,
            "time": 170.62134653334172,
            "value": 0.7874015748031497
          },
          {
            "number": 2,
            "time": 170.62299126667506,
            "value": 0.7874015748031497
          },
          {
            "number": 2,
            "time": 170.6246360000084,
            "value": 0.7874015748031497
          },
          {
            "number": 2,
            "time": 170.62628073334173,
            "value": 0.7795275590551181
          },
          {
            "number": 2,
            "time": 170.62792546667507,
            "value": 0.7795275590551181
          },
          {
            "number": 2,
            "time": 170.6295702000084,
            "value": 0.7795275590551181
          },
          {
            "number": 2,
            "time": 170.63121493334174,
            "value": 0.7716535433070866
          },
          {
            "number": 2,
            "time": 170.63285966667507,
            "value": 0.7716535433070866
          },
          {
            "number": 2,
            "time": 170.6345044000084,
            "value": 0.7716535433070866
          },
          {
            "number": 2,
            "time": 170.63614913334175,
            "value": 0.7637795275590551
          },
          {
            "number": 2,
            "time": 170.63779386667508,
            "value": 0.7637795275590551
          },
          {
            "number": 2,
            "time": 170.63943860000842,
            "value": 0.7637795275590551
          },
          {
            "number": 2,
            "time": 170.64108333334175,
            "value": 0.7559055118110236
          },
          {
            "number": 2,
            "time": 170.6427280666751,
            "value": 0.7559055118110236
          },
          {
            "number": 2,
            "time": 170.64437280000843,
            "value": 0.7559055118110236
          },
          {
            "number": 2,
            "time": 170.64601753334176,
            "value": 0.7480314960629921
          },
          {
            "number": 2,
            "time": 170.6476622666751,
            "value": 0.7480314960629921
          },
          {
            "number": 2,
            "time": 170.64930700000843,
            "value": 0.7480314960629921
          },
          {
            "number": 2,
            "time": 170.65095173334177,
            "value": 0.7401574803149606
          },
          {
            "number": 2,
            "time": 170.6525964666751,
            "value": 0.7401574803149606
          },
          {
            "number": 2,
            "time": 170.65424120000844,
            "value": 0.7401574803149606
          },
          {
            "number": 2,
            "time": 170.65588593334178,
            "value": 0.7322834645669292
          },
          {
            "number": 2,
            "time": 170.65753066667511,
            "value": 0.7322834645669292
          },
          {
            "number": 2,
            "time": 170.65917540000845,
            "value": 0.7322834645669292
          },
          {
            "number": 2,
            "time": 170.6608201333418,
            "value": 0.7244094488188977
          },
          {
            "number": 2,
            "time": 170.66246486667512,
            "value": 0.7244094488188977
          },
          {
            "number": 2,
            "time": 170.66410960000846,
            "value": 0.7244094488188977
          },
          {
            "number": 2,
            "time": 170.6657543333418,
            "value": 0.7165354330708661
          },
          {
            "number": 2,
            "time": 170.66739906667513,
            "value": 0.7165354330708661
          },
          {
            "number": 2,
            "time": 170.66904380000847,
            "value": 0.7165354330708661
          },
          {
            "number": 2,
            "time": 170.6706885333418,
            "value": 0.7086614173228346
          },
          {
            "number": 2,
            "time": 170.67233326667514,
            "value": 0.7086614173228346
          },
          {
            "number": 2,
            "time": 170.67397800000847,
            "value": 0.7086614173228346
          },
          {
            "number": 2,
            "time": 170.6756227333418,
            "value": 0.7007874015748031
          },
          {
            "number": 2,
            "time": 170.67726746667515,
            "value": 0.7007874015748031
          },
          {
            "number": 2,
            "time": 170.67891220000848,
            "value": 0.7007874015748031
          },
          {
            "number": 2,
            "time": 170.68055693334182,
            "value": 0.6929133858267716
          },
          {
            "number": 2,
            "time": 170.68220166667516,
            "value": 0.6929133858267716
          },
          {
            "number": 2,
            "time": 170.6838464000085,
            "value": 0.6929133858267716
          },
          {
            "number": 2,
            "time": 170.68549113334183,
            "value": 0.6850393700787402
          },
          {
            "number": 2,
            "time": 170.68713586667516,
            "value": 0.6850393700787402
          },
          {
            "number": 2,
            "time": 170.6887806000085,
            "value": 0.6850393700787402
          },
          {
            "number": 2,
            "time": 170.69042533334184,
            "value": 0.6771653543307087
          },
          {
            "number": 2,
            "time": 170.69207006667517,
            "value": 0.6771653543307087
          },
          {
            "number": 2,
            "time": 170.6937148000085,
            "value": 0.6771653543307087
          },
          {
            "number": 2,
            "time": 170.69535953334184,
            "value": 0.6692913385826772
          },
          {
            "number": 2,
            "time": 170.69700426667518,
            "value": 0.6692913385826772
          },
          {
            "number": 2,
            "time": 170.69864900000852,
            "value": 0.6692913385826772
          },
          {
            "number": 2,
            "time": 170.70029373334185,
            "value": 0.6614173228346457
          },
          {
            "number": 2,
            "time": 170.7019384666752,
            "value": 0.6614173228346457
          },
          {
            "number": 2,
            "time": 170.70358320000852,
            "value": 0.6614173228346457
          },
          {
            "number": 2,
            "time": 170.70522793334186,
            "value": 0.6535433070866141
          },
          {
            "number": 2,
            "time": 170.7068726666752,
            "value": 0.6535433070866141
          },
          {
            "number": 2,
            "time": 170.70851740000853,
            "value": 0.6535433070866141
          },
          {
            "number": 2,
            "time": 170.71016213334187,
            "value": 0.6456692913385826
          },
          {
            "number": 2,
            "time": 170.7118068666752,
            "value": 0.6456692913385826
          },
          {
            "number": 2,
            "time": 170.71345160000854,
            "value": 0.6456692913385826
          },
          {
            "number": 2,
            "time": 170.71509633334188,
            "value": 0.6377952755905512
          },
          {
            "number": 2,
            "time": 170.7167410666752,
            "value": 0.6377952755905512
          },
          {
            "number": 2,
            "time": 170.71838580000855,
            "value": 0.6377952755905512
          },
          {
            "number": 2,
            "time": 170.72003053334188,
            "value": 0.6299212598425197
          },
          {
            "number": 2,
            "time": 170.72167526667522,
            "value": 0.6299212598425197
          },
          {
            "number": 2,
            "time": 170.92068800000857,
            "value": 0.6299212598425197
          },
          {
            "number": 2,
            "time": 171.71016000000859,
            "value": 0.6299212598425197
          },
          {
            "number": 2,
            "time": 172.10489600000858,
            "value": 0.9448818897637795
          },
          {
            "number": 2,
            "time": 172.10654073334192,
            "value": 0.937007874015748
          },
          {
            "number": 2,
            "time": 172.10818546667525,
            "value": 0.937007874015748
          },
          {
            "number": 2,
            "time": 172.1098302000086,
            "value": 0.937007874015748
          },
          {
            "number": 2,
            "time": 172.11147493334192,
            "value": 0.9291338582677166
          },
          {
            "number": 2,
            "time": 172.11311966667526,
            "value": 0.9291338582677166
          },
          {
            "number": 2,
            "time": 172.1147644000086,
            "value": 0.9291338582677166
          },
          {
            "number": 2,
            "time": 172.11640913334193,
            "value": 0.9212598425196851
          },
          {
            "number": 2,
            "time": 172.11805386667527,
            "value": 0.9212598425196851
          },
          {
            "number": 2,
            "time": 172.1196986000086,
            "value": 0.9212598425196851
          },
          {
            "number": 2,
            "time": 172.12134333334194,
            "value": 0.9133858267716536
          },
          {
            "number": 2,
            "time": 172.12298806667528,
            "value": 0.9133858267716536
          },
          {
            "number": 2,
            "time": 172.1246328000086,
            "value": 0.9133858267716536
          },
          {
            "number": 2,
            "time": 172.12627753334195,
            "value": 0.905511811023622
          },
          {
            "number": 2,
            "time": 172.12792226667528,
            "value": 0.905511811023622
          },
          {
            "number": 2,
            "time": 172.12956700000862,
            "value": 0.905511811023622
          },
          {
            "number": 2,
            "time": 172.13121173334196,
            "value": 0.8976377952755905
          },
          {
            "number": 2,
            "time": 172.1328564666753,
            "value": 0.8976377952755905
          },
          {
            "number": 2,
            "time": 172.13450120000863,
            "value": 0.8976377952755905
          },
          {
            "number": 2,
            "time": 172.13614593334196,
            "value": 0.889763779527559
          },
          {
            "number": 2,
            "time": 172.1377906666753,
            "value": 0.889763779527559
          },
          {
            "number": 2,
            "time": 172.13943540000864,
            "value": 0.889763779527559
          },
          {
            "number": 2,
            "time": 172.14108013334197,
            "value": 0.8818897637795275
          },
          {
            "number": 2,
            "time": 172.1427248666753,
            "value": 0.8818897637795275
          },
          {
            "number": 2,
            "time": 172.14436960000864,
            "value": 0.8818897637795275
          },
          {
            "number": 2,
            "time": 172.14601433334198,
            "value": 0.8740157480314961
          },
          {
            "number": 2,
            "time": 172.14765906667532,
            "value": 0.8740157480314961
          },
          {
            "number": 2,
            "time": 172.14930380000865,
            "value": 0.8740157480314961
          },
          {
            "number": 2,
            "time": 172.150948533342,
            "value": 0.8661417322834646
          },
          {
            "number": 2,
            "time": 172.15259326667532,
            "value": 0.8661417322834646
          },
          {
            "number": 2,
            "time": 172.15423800000866,
            "value": 0.8661417322834646
          },
          {
            "number": 2,
            "time": 172.155882733342,
            "value": 0.8582677165354331
          },
          {
            "number": 2,
            "time": 172.15752746667533,
            "value": 0.8582677165354331
          },
          {
            "number": 2,
            "time": 172.15917220000867,
            "value": 0.8582677165354331
          },
          {
            "number": 2,
            "time": 172.160816933342,
            "value": 0.8503937007874016
          },
          {
            "number": 2,
            "time": 172.16246166667534,
            "value": 0.8503937007874016
          },
          {
            "number": 2,
            "time": 172.16410640000868,
            "value": 0.8503937007874016
          },
          {
            "number": 2,
            "time": 172.165751133342,
            "value": 0.84251968503937
          },
          {
            "number": 2,
            "time": 172.16739586667535,
            "value": 0.84251968503937
          },
          {
            "number": 2,
            "time": 172.16904060000869,
            "value": 0.84251968503937
          },
          {
            "number": 2,
            "time": 172.17068533334202,
            "value": 0.8346456692913385
          },
          {
            "number": 2,
            "time": 172.17233006667536,
            "value": 0.8346456692913385
          },
          {
            "number": 2,
            "time": 172.1739748000087,
            "value": 0.8346456692913385
          },
          {
            "number": 2,
            "time": 172.17561953334203,
            "value": 0.8267716535433071
          },
          {
            "number": 2,
            "time": 172.17726426667537,
            "value": 0.8267716535433071
          },
          {
            "number": 2,
            "time": 172.1789090000087,
            "value": 0.8267716535433071
          },
          {
            "number": 2,
            "time": 172.18055373334204,
            "value": 0.8188976377952756
          },
          {
            "number": 2,
            "time": 172.18219846667537,
            "value": 0.8188976377952756
          },
          {
            "number": 2,
            "time": 172.1838432000087,
            "value": 0.8188976377952756
          },
          {
            "number": 2,
            "time": 172.18548793334205,
            "value": 0.8110236220472441
          },
          {
            "number": 2,
            "time": 172.18713266667538,
            "value": 0.8110236220472441
          },
          {
            "number": 2,
            "time": 172.18877740000872,
            "value": 0.8110236220472441
          },
          {
            "number": 2,
            "time": 172.19042213334205,
            "value": 0.8031496062992126
          },
          {
            "number": 2,
            "time": 172.1920668666754,
            "value": 0.8031496062992126
          },
          {
            "number": 2,
            "time": 172.19371160000873,
            "value": 0.8031496062992126
          },
          {
            "number": 2,
            "time": 172.19535633334206,
            "value": 0.7952755905511811
          },
          {
            "number": 2,
            "time": 172.1970010666754,
            "value": 0.7952755905511811
          },
          {
            "number": 2,
            "time": 172.19864580000873,
            "value": 0.7952755905511811
          },
          {
            "number": 2,
            "time": 172.20029053334207,
            "value": 0.7874015748031497
          },
          {
            "number": 2,
            "time": 172.2019352666754,
            "value": 0.7874015748031497
          },
          {
            "number": 2,
            "time": 172.20358000000874,
            "value": 0.7874015748031497
          },
          {
            "number": 2,
            "time": 172.20522473334208,
            "value": 0.7795275590551181
          },
          {
            "number": 2,
            "time": 172.2068694666754,
            "value": 0.7795275590551181
          },
          {
            "number": 2,
            "time": 172.20851420000875,
            "value": 0.7795275590551181
          },
          {
            "number": 2,
            "time": 172.2101589333421,
            "value": 0.7716535433070866
          },
          {
            "number": 2,
            "time": 172.21180366667542,
            "value": 0.7716535433070866
          },
          {
            "number": 2,
            "time": 172.21344840000876,
            "value": 0.7716535433070866
          },
          {
            "number": 2,
            "time": 172.2150931333421,
            "value": 0.7637795275590551
          },
          {
            "number": 2,
            "time": 172.21673786667543,
            "value": 0.7637795275590551
          },
          {
            "number": 2,
            "time": 172.21838260000877,
            "value": 0.7637795275590551
          },
          {
            "number": 2,
            "time": 172.2200273333421,
            "value": 0.7559055118110236
          },
          {
            "number": 2,
            "time": 172.22167206667544,
            "value": 0.7559055118110236
          },
          {
            "number": 2,
            "time": 172.22331680000877,
            "value": 0.7559055118110236
          },
          {
            "number": 2,
            "time": 172.2249615333421,
            "value": 0.7480314960629921
          },
          {
            "number": 2,
            "time": 172.22660626667545,
            "value": 0.7480314960629921
          },
          {
            "number": 2,
            "time": 172.22825100000878,
            "value": 0.7480314960629921
          },
          {
            "number": 2,
            "time": 172.22989573334212,
            "value": 0.7401574803149606
          },
          {
            "number": 2,
            "time": 172.23154046667545,
            "value": 0.7401574803149606
          },
          {
            "number": 2,
            "time": 172.2331852000088,
            "value": 0.7401574803149606
          },
          {
            "number": 2,
            "time": 172.23482993334213,
            "value": 0.7322834645669292
          },
          {
            "number": 2,
            "time": 172.23647466667546,
            "value": 0.7322834645669292
          },
          {
            "number": 2,
            "time": 172.2381194000088,
            "value": 0.7322834645669292
          },
          {
            "number": 2,
            "time": 172.23976413334213,
            "value": 0.7244094488188977
          },
          {
            "number": 2,
            "time": 172.24140886667547,
            "value": 0.7244094488188977
          },
          {
            "number": 2,
            "time": 172.2430536000088,
            "value": 0.7244094488188977
          },
          {
            "number": 2,
            "time": 172.24469833334214,
            "value": 0.7165354330708661
          },
          {
            "number": 2,
            "time": 172.24634306667548,
            "value": 0.7165354330708661
          },
          {
            "number": 2,
            "time": 172.24798780000881,
            "value": 0.7165354330708661
          },
          {
            "number": 2,
            "time": 172.24963253334215,
            "value": 0.7086614173228346
          },
          {
            "number": 2,
            "time": 172.2512772666755,
            "value": 0.7086614173228346
          },
          {
            "number": 2,
            "time": 172.25292200000882,
            "value": 0.7086614173228346
          },
          {
            "number": 2,
            "time": 172.25456673334216,
            "value": 0.7007874015748031
          },
          {
            "number": 2,
            "time": 172.2562114666755,
            "value": 0.7007874015748031
          },
          {
            "number": 2,
            "time": 172.25785620000883,
            "value": 0.7007874015748031
          },
          {
            "number": 2,
            "time": 172.25950093334217,
            "value": 0.6929133858267716
          },
          {
            "number": 2,
            "time": 172.2611456666755,
            "value": 0.6929133858267716
          },
          {
            "number": 2,
            "time": 172.26279040000884,
            "value": 0.6929133858267716
          },
          {
            "number": 2,
            "time": 172.26443513334218,
            "value": 0.6850393700787402
          },
          {
            "number": 2,
            "time": 172.2660798666755,
            "value": 0.6850393700787402
          },
          {
            "number": 2,
            "time": 172.26772460000885,
            "value": 0.6850393700787402
          },
          {
            "number": 2,
            "time": 172.26936933334218,
            "value": 0.6771653543307087
          },
          {
            "number": 2,
            "time": 172.27101406667552,
            "value": 0.6771653543307087
          },
          {
            "number": 2,
            "time": 172.27265880000886,
            "value": 0.6771653543307087
          },
          {
            "number": 2,
            "time": 172.2743035333422,
            "value": 0.6692913385826772
          },
          {
            "number": 2,
            "time": 172.27594826667553,
            "value": 0.6692913385826772
          },
          {
            "number": 2,
            "time": 172.27759300000886,
            "value": 0.6692913385826772
          },
          {
            "number": 2,
            "time": 172.2792377333422,
            "value": 0.6614173228346457
          },
          {
            "number": 2,
            "time": 172.28088246667554,
            "value": 0.6614173228346457
          },
          {
            "number": 2,
            "time": 172.28252720000887,
            "value": 0.6614173228346457
          },
          {
            "number": 2,
            "time": 172.2841719333422,
            "value": 0.6535433070866141
          },
          {
            "number": 2,
            "time": 172.28581666667554,
            "value": 0.6535433070866141
          },
          {
            "number": 2,
            "time": 172.28746140000888,
            "value": 0.6535433070866141
          },
          {
            "number": 2,
            "time": 172.28910613334222,
            "value": 0.6456692913385826
          },
          {
            "number": 2,
            "time": 172.29075086667555,
            "value": 0.6456692913385826
          },
          {
            "number": 2,
            "time": 172.2923956000089,
            "value": 0.6456692913385826
          },
          {
            "number": 2,
            "time": 172.29404033334222,
            "value": 0.6377952755905512
          },
          {
            "number": 2,
            "time": 172.29568506667556,
            "value": 0.6377952755905512
          },
          {
            "number": 2,
            "time": 172.2973298000089,
            "value": 0.6377952755905512
          },
          {
            "number": 2,
            "time": 172.29897453334223,
            "value": 0.6299212598425197
          },
          {
            "number": 2,
            "time": 172.30061926667557,
            "value": 0.6299212598425197
          },
          {
            "number": 2,
            "time": 172.49963200000892,
            "value": 0.6299212598425197
          },
          {
            "number": 2,
            "time": 173.28910400000893,
            "value": 0.6299212598425197
          },
          {
            "number": 2,
            "time": 173.68384000000893,
            "value": 0.9448818897637795
          },
          {
            "number": 2,
            "time": 173.68548473334226,
            "value": 0.937007874015748
          },
          {
            "number": 2,
            "time": 173.6871294666756,
            "value": 0.937007874015748
          },
          {
            "number": 2,
            "time": 173.68877420000894,
            "value": 0.937007874015748
          },
          {
            "number": 2,
            "time": 173.69041893334227,
            "value": 0.9291338582677166
          },
          {
            "number": 2,
            "time": 173.6920636666756,
            "value": 0.9291338582677166
          },
          {
            "number": 2,
            "time": 173.69370840000894,
            "value": 0.9291338582677166
          },
          {
            "number": 2,
            "time": 173.69535313334228,
            "value": 0.9212598425196851
          },
          {
            "number": 2,
            "time": 173.69699786667562,
            "value": 0.9212598425196851
          },
          {
            "number": 2,
            "time": 173.69864260000895,
            "value": 0.9212598425196851
          },
          {
            "number": 2,
            "time": 173.7002873333423,
            "value": 0.9133858267716536
          },
          {
            "number": 2,
            "time": 173.70193206667562,
            "value": 0.9133858267716536
          },
          {
            "number": 2,
            "time": 173.70357680000896,
            "value": 0.9133858267716536
          },
          {
            "number": 2,
            "time": 173.7052215333423,
            "value": 0.905511811023622
          },
          {
            "number": 2,
            "time": 173.70686626667563,
            "value": 0.905511811023622
          },
          {
            "number": 2,
            "time": 173.70851100000897,
            "value": 0.905511811023622
          },
          {
            "number": 2,
            "time": 173.7101557333423,
            "value": 0.8976377952755905
          },
          {
            "number": 2,
            "time": 173.71180046667564,
            "value": 0.8976377952755905
          },
          {
            "number": 2,
            "time": 173.71344520000898,
            "value": 0.8976377952755905
          },
          {
            "number": 2,
            "time": 173.7150899333423,
            "value": 0.889763779527559
          },
          {
            "number": 2,
            "time": 173.71673466667565,
            "value": 0.889763779527559
          },
          {
            "number": 2,
            "time": 173.71837940000898,
            "value": 0.889763779527559
          },
          {
            "number": 2,
            "time": 173.72002413334232,
            "value": 0.8818897637795275
          },
          {
            "number": 2,
            "time": 173.72166886667566,
            "value": 0.8818897637795275
          },
          {
            "number": 2,
            "time": 173.723313600009,
            "value": 0.8818897637795275
          },
          {
            "number": 2,
            "time": 173.72495833334233,
            "value": 0.8740157480314961
          },
          {
            "number": 2,
            "time": 173.72660306667566,
            "value": 0.8740157480314961
          },
          {
            "number": 2,
            "time": 173.728247800009,
            "value": 0.8740157480314961
          },
          {
            "number": 2,
            "time": 173.72989253334234,
            "value": 0.8661417322834646
          },
          {
            "number": 2,
            "time": 173.73153726667567,
            "value": 0.8661417322834646
          },
          {
            "number": 2,
            "time": 173.733182000009,
            "value": 0.8661417322834646
          },
          {
            "number": 2,
            "time": 173.73482673334235,
            "value": 0.8582677165354331
          },
          {
            "number": 2,
            "time": 173.73647146667568,
            "value": 0.8582677165354331
          },
          {
            "number": 2,
            "time": 173.73811620000902,
            "value": 0.8582677165354331
          },
          {
            "number": 2,
            "time": 173.73976093334235,
            "value": 0.8503937007874016
          },
          {
            "number": 2,
            "time": 173.7414056666757,
            "value": 0.8503937007874016
          },
          {
            "number": 2,
            "time": 173.74305040000903,
            "value": 0.8503937007874016
          },
          {
            "number": 2,
            "time": 173.74469513334236,
            "value": 0.84251968503937
          },
          {
            "number": 2,
            "time": 173.7463398666757,
            "value": 0.84251968503937
          },
          {
            "number": 2,
            "time": 173.74798460000903,
            "value": 0.84251968503937
          },
          {
            "number": 2,
            "time": 173.74962933334237,
            "value": 0.8346456692913385
          },
          {
            "number": 2,
            "time": 173.7512740666757,
            "value": 0.8346456692913385
          },
          {
            "number": 2,
            "time": 173.75291880000904,
            "value": 0.8346456692913385
          },
          {
            "number": 2,
            "time": 173.75456353334238,
            "value": 0.8267716535433071
          },
          {
            "number": 2,
            "time": 173.7562082666757,
            "value": 0.8267716535433071
          },
          {
            "number": 2,
            "time": 173.75785300000905,
            "value": 0.8267716535433071
          },
          {
            "number": 2,
            "time": 173.75949773334239,
            "value": 0.8188976377952756
          },
          {
            "number": 2,
            "time": 173.76114246667572,
            "value": 0.8188976377952756
          },
          {
            "number": 2,
            "time": 173.76278720000906,
            "value": 0.8188976377952756
          },
          {
            "number": 2,
            "time": 173.7644319333424,
            "value": 0.8110236220472441
          },
          {
            "number": 2,
            "time": 173.76607666667573,
            "value": 0.8110236220472441
          },
          {
            "number": 2,
            "time": 173.76772140000907,
            "value": 0.8110236220472441
          },
          {
            "number": 2,
            "time": 173.7693661333424,
            "value": 0.8031496062992126
          },
          {
            "number": 2,
            "time": 173.77101086667574,
            "value": 0.8031496062992126
          },
          {
            "number": 2,
            "time": 173.77265560000907,
            "value": 0.8031496062992126
          },
          {
            "number": 2,
            "time": 173.7743003333424,
            "value": 0.7952755905511811
          },
          {
            "number": 2,
            "time": 173.77594506667575,
            "value": 0.7952755905511811
          },
          {
            "number": 2,
            "time": 173.77758980000908,
            "value": 0.7952755905511811
          },
          {
            "number": 2,
            "time": 173.77923453334242,
            "value": 0.7874015748031497
          },
          {
            "number": 2,
            "time": 173.78087926667575,
            "value": 0.7874015748031497
          },
          {
            "number": 2,
            "time": 173.7825240000091,
            "value": 0.7874015748031497
          },
          {
            "number": 2,
            "time": 173.78416873334243,
            "value": 0.7795275590551181
          },
          {
            "number": 2,
            "time": 173.78581346667576,
            "value": 0.7795275590551181
          },
          {
            "number": 2,
            "time": 173.7874582000091,
            "value": 0.7795275590551181
          },
          {
            "number": 2,
            "time": 173.78910293334243,
            "value": 0.7716535433070866
          },
          {
            "number": 2,
            "time": 173.79074766667577,
            "value": 0.7716535433070866
          },
          {
            "number": 2,
            "time": 173.7923924000091,
            "value": 0.7716535433070866
          },
          {
            "number": 2,
            "time": 173.79403713334244,
            "value": 0.7637795275590551
          },
          {
            "number": 2,
            "time": 173.79568186667578,
            "value": 0.7637795275590551
          },
          {
            "number": 2,
            "time": 173.79732660000911,
            "value": 0.7637795275590551
          },
          {
            "number": 2,
            "time": 173.79897133334245,
            "value": 0.7559055118110236
          },
          {
            "number": 2,
            "time": 173.8006160666758,
            "value": 0.7559055118110236
          },
          {
            "number": 2,
            "time": 173.80226080000912,
            "value": 0.7559055118110236
          },
          {
            "number": 2,
            "time": 173.80390553334246,
            "value": 0.7480314960629921
          },
          {
            "number": 2,
            "time": 173.8055502666758,
            "value": 0.7480314960629921
          },
          {
            "number": 2,
            "time": 173.80719500000913,
            "value": 0.7480314960629921
          },
          {
            "number": 2,
            "time": 173.80883973334247,
            "value": 0.7401574803149606
          },
          {
            "number": 2,
            "time": 173.8104844666758,
            "value": 0.7401574803149606
          },
          {
            "number": 2,
            "time": 173.81212920000914,
            "value": 0.7401574803149606
          },
          {
            "number": 2,
            "time": 173.81377393334247,
            "value": 0.7322834645669292
          },
          {
            "number": 2,
            "time": 173.8154186666758,
            "value": 0.7322834645669292
          },
          {
            "number": 2,
            "time": 173.81706340000915,
            "value": 0.7322834645669292
          },
          {
            "number": 2,
            "time": 173.81870813334248,
            "value": 0.7244094488188977
          },
          {
            "number": 2,
            "time": 173.82035286667582,
            "value": 0.7244094488188977
          },
          {
            "number": 2,
            "time": 173.82199760000915,
            "value": 0.7244094488188977
          },
          {
            "number": 2,
            "time": 173.8236423333425,
            "value": 0.7165354330708661
          },
          {
            "number": 2,
            "time": 173.82528706667583,
            "value": 0.7165354330708661
          },
          {
            "number": 2,
            "time": 173.82693180000916,
            "value": 0.7165354330708661
          },
          {
            "number": 2,
            "time": 173.8285765333425,
            "value": 0.7086614173228346
          },
          {
            "number": 2,
            "time": 173.83022126667584,
            "value": 0.7086614173228346
          },
          {
            "number": 2,
            "time": 173.83186600000917,
            "value": 0.7086614173228346
          },
          {
            "number": 2,
            "time": 173.8335107333425,
            "value": 0.7007874015748031
          },
          {
            "number": 2,
            "time": 173.83515546667584,
            "value": 0.7007874015748031
          },
          {
            "number": 2,
            "time": 173.83680020000918,
            "value": 0.7007874015748031
          },
          {
            "number": 2,
            "time": 173.83844493334252,
            "value": 0.6929133858267716
          },
          {
            "number": 2,
            "time": 173.84008966667585,
            "value": 0.6929133858267716
          },
          {
            "number": 2,
            "time": 173.8417344000092,
            "value": 0.6929133858267716
          },
          {
            "number": 2,
            "time": 173.84337913334252,
            "value": 0.6850393700787402
          },
          {
            "number": 2,
            "time": 173.84502386667586,
            "value": 0.6850393700787402
          },
          {
            "number": 2,
            "time": 173.8466686000092,
            "value": 0.6850393700787402
          },
          {
            "number": 2,
            "time": 173.84831333334253,
            "value": 0.6771653543307087
          },
          {
            "number": 2,
            "time": 173.84995806667587,
            "value": 0.6771653543307087
          },
          {
            "number": 2,
            "time": 173.8516028000092,
            "value": 0.6771653543307087
          },
          {
            "number": 2,
            "time": 173.85324753334254,
            "value": 0.6692913385826772
          },
          {
            "number": 2,
            "time": 173.85489226667588,
            "value": 0.6692913385826772
          },
          {
            "number": 2,
            "time": 173.8565370000092,
            "value": 0.6692913385826772
          },
          {
            "number": 2,
            "time": 173.85818173334255,
            "value": 0.6614173228346457
          },
          {
            "number": 2,
            "time": 173.85982646667588,
            "value": 0.6614173228346457
          },
          {
            "number": 2,
            "time": 173.86147120000922,
            "value": 0.6614173228346457
          },
          {
            "number": 2,
            "time": 173.86311593334256,
            "value": 0.6535433070866141
          },
          {
            "number": 2,
            "time": 173.8647606666759,
            "value": 0.6535433070866141
          },
          {
            "number": 2,
            "time": 173.86640540000923,
            "value": 0.6535433070866141
          },
          {
            "number": 2,
            "time": 173.86805013334256,
            "value": 0.6456692913385826
          },
          {
            "number": 2,
            "time": 173.8696948666759,
            "value": 0.6456692913385826
          },
          {
            "number": 2,
            "time": 173.87133960000924,
            "value": 0.6456692913385826
          },
          {
            "number": 2,
            "time": 173.87298433334257,
            "value": 0.6377952755905512
          },
          {
            "number": 2,
            "time": 173.8746290666759,
            "value": 0.6377952755905512
          },
          {
            "number": 2,
            "time": 173.87627380000924,
            "value": 0.6377952755905512
          },
          {
            "number": 2,
            "time": 173.87791853334258,
            "value": 0.6299212598425197
          },
          {
            "number": 2,
            "time": 173.87956326667592,
            "value": 0.6299212598425197
          },
          {
            "number": 2,
            "time": 174.07857600000926,
            "value": 0.6299212598425197
          },
          {
            "number": 2,
            "time": 174.86804800000928,
            "value": 0.6299212598425197
          },
          {
            "number": 2,
            "time": 175.26278400000928,
            "value": 0.9448818897637795
          },
          {
            "number": 2,
            "time": 175.2644287333426,
            "value": 0.937007874015748
          },
          {
            "number": 2,
            "time": 175.26607346667595,
            "value": 0.937007874015748
          },
          {
            "number": 2,
            "time": 175.26771820000928,
            "value": 0.937007874015748
          },
          {
            "number": 2,
            "time": 175.26936293334262,
            "value": 0.9291338582677166
          },
          {
            "number": 2,
            "time": 175.27100766667596,
            "value": 0.9291338582677166
          },
          {
            "number": 2,
            "time": 175.2726524000093,
            "value": 0.9291338582677166
          },
          {
            "number": 2,
            "time": 175.27429713334263,
            "value": 0.9212598425196851
          },
          {
            "number": 2,
            "time": 175.27594186667596,
            "value": 0.9212598425196851
          },
          {
            "number": 2,
            "time": 175.2775866000093,
            "value": 0.9212598425196851
          },
          {
            "number": 2,
            "time": 175.27923133334264,
            "value": 0.9133858267716536
          },
          {
            "number": 2,
            "time": 175.28087606667597,
            "value": 0.9133858267716536
          },
          {
            "number": 2,
            "time": 175.2825208000093,
            "value": 0.9133858267716536
          },
          {
            "number": 2,
            "time": 175.28416553334264,
            "value": 0.905511811023622
          },
          {
            "number": 2,
            "time": 175.28581026667598,
            "value": 0.905511811023622
          },
          {
            "number": 2,
            "time": 175.28745500000932,
            "value": 0.905511811023622
          },
          {
            "number": 2,
            "time": 175.28909973334265,
            "value": 0.8976377952755905
          },
          {
            "number": 2,
            "time": 175.290744466676,
            "value": 0.8976377952755905
          },
          {
            "number": 2,
            "time": 175.29238920000932,
            "value": 0.8976377952755905
          },
          {
            "number": 2,
            "time": 175.29403393334266,
            "value": 0.889763779527559
          },
          {
            "number": 2,
            "time": 175.295678666676,
            "value": 0.889763779527559
          },
          {
            "number": 2,
            "time": 175.29732340000933,
            "value": 0.889763779527559
          },
          {
            "number": 2,
            "time": 175.29896813334267,
            "value": 0.8818897637795275
          },
          {
            "number": 2,
            "time": 175.300612866676,
            "value": 0.8818897637795275
          },
          {
            "number": 2,
            "time": 175.30225760000934,
            "value": 0.8818897637795275
          },
          {
            "number": 2,
            "time": 175.30390233334268,
            "value": 0.8740157480314961
          },
          {
            "number": 2,
            "time": 175.305547066676,
            "value": 0.8740157480314961
          },
          {
            "number": 2,
            "time": 175.30719180000935,
            "value": 0.8740157480314961
          },
          {
            "number": 2,
            "time": 175.30883653334269,
            "value": 0.8661417322834646
          },
          {
            "number": 2,
            "time": 175.31048126667602,
            "value": 0.8661417322834646
          },
          {
            "number": 2,
            "time": 175.31212600000936,
            "value": 0.8661417322834646
          },
          {
            "number": 2,
            "time": 175.3137707333427,
            "value": 0.8582677165354331
          },
          {
            "number": 2,
            "time": 175.31541546667603,
            "value": 0.8582677165354331
          },
          {
            "number": 2,
            "time": 175.31706020000937,
            "value": 0.8582677165354331
          },
          {
            "number": 2,
            "time": 175.3187049333427,
            "value": 0.8503937007874016
          },
          {
            "number": 2,
            "time": 175.32034966667604,
            "value": 0.8503937007874016
          },
          {
            "number": 2,
            "time": 175.32199440000937,
            "value": 0.8503937007874016
          },
          {
            "number": 2,
            "time": 175.3236391333427,
            "value": 0.84251968503937
          },
          {
            "number": 2,
            "time": 175.32528386667605,
            "value": 0.84251968503937
          },
          {
            "number": 2,
            "time": 175.32692860000938,
            "value": 0.84251968503937
          },
          {
            "number": 2,
            "time": 175.32857333334272,
            "value": 0.8346456692913385
          },
          {
            "number": 2,
            "time": 175.33021806667605,
            "value": 0.8346456692913385
          },
          {
            "number": 2,
            "time": 175.3318628000094,
            "value": 0.8346456692913385
          },
          {
            "number": 2,
            "time": 175.33350753334273,
            "value": 0.8267716535433071
          },
          {
            "number": 2,
            "time": 175.33515226667606,
            "value": 0.8267716535433071
          },
          {
            "number": 2,
            "time": 175.3367970000094,
            "value": 0.8267716535433071
          },
          {
            "number": 2,
            "time": 175.33844173334273,
            "value": 0.8188976377952756
          },
          {
            "number": 2,
            "time": 175.34008646667607,
            "value": 0.8188976377952756
          },
          {
            "number": 2,
            "time": 175.3417312000094,
            "value": 0.8188976377952756
          },
          {
            "number": 2,
            "time": 175.34337593334274,
            "value": 0.8110236220472441
          },
          {
            "number": 2,
            "time": 175.34502066667608,
            "value": 0.8110236220472441
          },
          {
            "number": 2,
            "time": 175.3466654000094,
            "value": 0.8110236220472441
          },
          {
            "number": 2,
            "time": 175.34831013334275,
            "value": 0.8031496062992126
          },
          {
            "number": 2,
            "time": 175.3499548666761,
            "value": 0.8031496062992126
          },
          {
            "number": 2,
            "time": 175.35159960000942,
            "value": 0.8031496062992126
          },
          {
            "number": 2,
            "time": 175.35324433334276,
            "value": 0.7952755905511811
          },
          {
            "number": 2,
            "time": 175.3548890666761,
            "value": 0.7952755905511811
          },
          {
            "number": 2,
            "time": 175.35653380000943,
            "value": 0.7952755905511811
          },
          {
            "number": 2,
            "time": 175.35817853334277,
            "value": 0.7874015748031497
          },
          {
            "number": 2,
            "time": 175.3598232666761,
            "value": 0.7874015748031497
          },
          {
            "number": 2,
            "time": 175.36146800000944,
            "value": 0.7874015748031497
          },
          {
            "number": 2,
            "time": 175.36311273334277,
            "value": 0.7795275590551181
          },
          {
            "number": 2,
            "time": 175.3647574666761,
            "value": 0.7795275590551181
          },
          {
            "number": 2,
            "time": 175.36640220000945,
            "value": 0.7795275590551181
          },
          {
            "number": 2,
            "time": 175.36804693334278,
            "value": 0.7716535433070866
          },
          {
            "number": 2,
            "time": 175.36969166667612,
            "value": 0.7716535433070866
          },
          {
            "number": 2,
            "time": 175.37133640000945,
            "value": 0.7716535433070866
          },
          {
            "number": 2,
            "time": 175.3729811333428,
            "value": 0.7637795275590551
          },
          {
            "number": 2,
            "time": 175.37462586667613,
            "value": 0.7637795275590551
          },
          {
            "number": 2,
            "time": 175.37627060000946,
            "value": 0.7637795275590551
          },
          {
            "number": 2,
            "time": 175.3779153333428,
            "value": 0.7559055118110236
          },
          {
            "number": 2,
            "time": 175.37956006667613,
            "value": 0.7559055118110236
          },
          {
            "number": 2,
            "time": 175.38120480000947,
            "value": 0.7559055118110236
          },
          {
            "number": 2,
            "time": 175.3828495333428,
            "value": 0.7480314960629921
          },
          {
            "number": 2,
            "time": 175.38449426667614,
            "value": 0.7480314960629921
          },
          {
            "number": 2,
            "time": 175.38613900000948,
            "value": 0.7480314960629921
          },
          {
            "number": 2,
            "time": 175.38778373334281,
            "value": 0.7401574803149606
          },
          {
            "number": 2,
            "time": 175.38942846667615,
            "value": 0.7401574803149606
          },
          {
            "number": 2,
            "time": 175.3910732000095,
            "value": 0.7401574803149606
          },
          {
            "number": 2,
            "time": 175.39271793334282,
            "value": 0.7322834645669292
          },
          {
            "number": 2,
            "time": 175.39436266667616,
            "value": 0.7322834645669292
          },
          {
            "number": 2,
            "time": 175.3960074000095,
            "value": 0.7322834645669292
          },
          {
            "number": 2,
            "time": 175.39765213334283,
            "value": 0.7244094488188977
          },
          {
            "number": 2,
            "time": 175.39929686667617,
            "value": 0.7244094488188977
          },
          {
            "number": 2,
            "time": 175.4009416000095,
            "value": 0.7244094488188977
          },
          {
            "number": 2,
            "time": 175.40258633334284,
            "value": 0.7165354330708661
          },
          {
            "number": 2,
            "time": 175.40423106667618,
            "value": 0.7165354330708661
          },
          {
            "number": 2,
            "time": 175.4058758000095,
            "value": 0.7165354330708661
          },
          {
            "number": 2,
            "time": 175.40752053334285,
            "value": 0.7086614173228346
          },
          {
            "number": 2,
            "time": 175.40916526667618,
            "value": 0.7086614173228346
          },
          {
            "number": 2,
            "time": 175.41081000000952,
            "value": 0.7086614173228346
          },
          {
            "number": 2,
            "time": 175.41245473334286,
            "value": 0.7007874015748031
          },
          {
            "number": 2,
            "time": 175.4140994666762,
            "value": 0.7007874015748031
          },
          {
            "number": 2,
            "time": 175.41574420000953,
            "value": 0.7007874015748031
          },
          {
            "number": 2,
            "time": 175.41738893334286,
            "value": 0.6929133858267716
          },
          {
            "number": 2,
            "time": 175.4190336666762,
            "value": 0.6929133858267716
          },
          {
            "number": 2,
            "time": 175.42067840000954,
            "value": 0.6929133858267716
          },
          {
            "number": 2,
            "time": 175.42232313334287,
            "value": 0.6850393700787402
          },
          {
            "number": 2,
            "time": 175.4239678666762,
            "value": 0.6850393700787402
          },
          {
            "number": 2,
            "time": 175.42561260000954,
            "value": 0.6850393700787402
          },
          {
            "number": 2,
            "time": 175.42725733334288,
            "value": 0.6771653543307087
          },
          {
            "number": 2,
            "time": 175.42890206667622,
            "value": 0.6771653543307087
          },
          {
            "number": 2,
            "time": 175.43054680000955,
            "value": 0.6771653543307087
          },
          {
            "number": 2,
            "time": 175.4321915333429,
            "value": 0.6692913385826772
          },
          {
            "number": 2,
            "time": 175.43383626667622,
            "value": 0.6692913385826772
          },
          {
            "number": 2,
            "time": 175.43548100000956,
            "value": 0.6692913385826772
          },
          {
            "number": 2,
            "time": 175.4371257333429,
            "value": 0.6614173228346457
          },
          {
            "number": 2,
            "time": 175.43877046667623,
            "value": 0.6614173228346457
          },
          {
            "number": 2,
            "time": 175.44041520000957,
            "value": 0.6614173228346457
          },
          {
            "number": 2,
            "time": 175.4420599333429,
            "value": 0.6535433070866141
          },
          {
            "number": 2,
            "time": 175.44370466667624,
            "value": 0.6535433070866141
          },
          {
            "number": 2,
            "time": 175.44534940000958,
            "value": 0.6535433070866141
          },
          {
            "number": 2,
            "time": 175.4469941333429,
            "value": 0.6456692913385826
          },
          {
            "number": 2,
            "time": 175.44863886667625,
            "value": 0.6456692913385826
          },
          {
            "number": 2,
            "time": 175.45028360000958,
            "value": 0.6456692913385826
          },
          {
            "number": 2,
            "time": 175.45192833334292,
            "value": 0.6377952755905512
          },
          {
            "number": 2,
            "time": 175.45357306667626,
            "value": 0.6377952755905512
          },
          {
            "number": 2,
            "time": 175.4552178000096,
            "value": 0.6377952755905512
          },
          {
            "number": 2,
            "time": 175.45686253334293,
            "value": 0.6299212598425197
          },
          {
            "number": 2,
            "time": 175.45850726667626,
            "value": 0.6299212598425197
          },
          {
            "number": 2,
            "time": 175.6575200000096,
            "value": 0.6299212598425197
          },
          {
            "number": 2,
            "time": 176.44699200000963,
            "value": 0.6299212598425197
          },
          {
            "number": 2,
            "time": 176.84172800000962,
            "value": 0.9448818897637795
          },
          {
            "number": 2,
            "time": 176.84337273334296,
            "value": 0.937007874015748
          },
          {
            "number": 2,
            "time": 176.8450174666763,
            "value": 0.937007874015748
          },
          {
            "number": 2,
            "time": 176.84666220000963,
            "value": 0.937007874015748
          },
          {
            "number": 2,
            "time": 176.84830693334297,
            "value": 0.9291338582677166
          },
          {
            "number": 2,
            "time": 176.8499516666763,
            "value": 0.9291338582677166
          },
          {
            "number": 2,
            "time": 176.85159640000964,
            "value": 0.9291338582677166
          },
          {
            "number": 2,
            "time": 176.85324113334298,
            "value": 0.9212598425196851
          },
          {
            "number": 2,
            "time": 176.8548858666763,
            "value": 0.9212598425196851
          },
          {
            "number": 2,
            "time": 176.85653060000965,
            "value": 0.9212598425196851
          },
          {
            "number": 2,
            "time": 176.85817533334298,
            "value": 0.9133858267716536
          },
          {
            "number": 2,
            "time": 176.85982006667632,
            "value": 0.9133858267716536
          },
          {
            "number": 2,
            "time": 176.86146480000966,
            "value": 0.9133858267716536
          },
          {
            "number": 2,
            "time": 176.863109533343,
            "value": 0.905511811023622
          },
          {
            "number": 2,
            "time": 176.86475426667633,
            "value": 0.905511811023622
          },
          {
            "number": 2,
            "time": 176.86639900000966,
            "value": 0.905511811023622
          },
          {
            "number": 2,
            "time": 176.868043733343,
            "value": 0.8976377952755905
          },
          {
            "number": 2,
            "time": 176.86968846667634,
            "value": 0.8976377952755905
          },
          {
            "number": 2,
            "time": 176.87133320000967,
            "value": 0.8976377952755905
          },
          {
            "number": 2,
            "time": 176.872977933343,
            "value": 0.889763779527559
          },
          {
            "number": 2,
            "time": 176.87462266667634,
            "value": 0.889763779527559
          },
          {
            "number": 2,
            "time": 176.87626740000968,
            "value": 0.889763779527559
          },
          {
            "number": 2,
            "time": 176.87791213334302,
            "value": 0.8818897637795275
          },
          {
            "number": 2,
            "time": 176.87955686667635,
            "value": 0.8818897637795275
          },
          {
            "number": 2,
            "time": 176.8812016000097,
            "value": 0.8818897637795275
          },
          {
            "number": 2,
            "time": 176.88284633334302,
            "value": 0.8740157480314961
          },
          {
            "number": 2,
            "time": 176.88449106667636,
            "value": 0.8740157480314961
          },
          {
            "number": 2,
            "time": 176.8861358000097,
            "value": 0.8740157480314961
          },
          {
            "number": 2,
            "time": 176.88778053334303,
            "value": 0.8661417322834646
          },
          {
            "number": 2,
            "time": 176.88942526667637,
            "value": 0.8661417322834646
          },
          {
            "number": 2,
            "time": 176.8910700000097,
            "value": 0.8661417322834646
          },
          {
            "number": 2,
            "time": 176.89271473334304,
            "value": 0.8582677165354331
          },
          {
            "number": 2,
            "time": 176.89435946667638,
            "value": 0.8582677165354331
          },
          {
            "number": 2,
            "time": 176.8960042000097,
            "value": 0.8582677165354331
          },
          {
            "number": 2,
            "time": 176.89764893334305,
            "value": 0.8503937007874016
          },
          {
            "number": 2,
            "time": 176.89929366667639,
            "value": 0.8503937007874016
          },
          {
            "number": 2,
            "time": 176.90093840000972,
            "value": 0.8503937007874016
          },
          {
            "number": 2,
            "time": 176.90258313334306,
            "value": 0.84251968503937
          },
          {
            "number": 2,
            "time": 176.9042278666764,
            "value": 0.84251968503937
          },
          {
            "number": 2,
            "time": 176.90587260000973,
            "value": 0.84251968503937
          },
          {
            "number": 2,
            "time": 176.90751733334307,
            "value": 0.8346456692913385
          },
          {
            "number": 2,
            "time": 176.9091620666764,
            "value": 0.8346456692913385
          },
          {
            "number": 2,
            "time": 176.91080680000974,
            "value": 0.8346456692913385
          },
          {
            "number": 2,
            "time": 176.91245153334307,
            "value": 0.8267716535433071
          },
          {
            "number": 2,
            "time": 176.9140962666764,
            "value": 0.8267716535433071
          },
          {
            "number": 2,
            "time": 176.91574100000975,
            "value": 0.8267716535433071
          },
          {
            "number": 2,
            "time": 176.91738573334308,
            "value": 0.8188976377952756
          },
          {
            "number": 2,
            "time": 176.91903046667642,
            "value": 0.8188976377952756
          },
          {
            "number": 2,
            "time": 176.92067520000975,
            "value": 0.8188976377952756
          },
          {
            "number": 2,
            "time": 176.9223199333431,
            "value": 0.8110236220472441
          },
          {
            "number": 2,
            "time": 176.92396466667643,
            "value": 0.8110236220472441
          },
          {
            "number": 2,
            "time": 176.92560940000976,
            "value": 0.8110236220472441
          },
          {
            "number": 2,
            "time": 176.9272541333431,
            "value": 0.8031496062992126
          },
          {
            "number": 2,
            "time": 176.92889886667643,
            "value": 0.8031496062992126
          },
          {
            "number": 2,
            "time": 176.93054360000977,
            "value": 0.8031496062992126
          },
          {
            "number": 2,
            "time": 176.9321883333431,
            "value": 0.7952755905511811
          },
          {
            "number": 2,
            "time": 176.93383306667644,
            "value": 0.7952755905511811
          },
          {
            "number": 2,
            "time": 176.93547780000978,
            "value": 0.7952755905511811
          },
          {
            "number": 2,
            "time": 176.9371225333431,
            "value": 0.7874015748031497
          },
          {
            "number": 2,
            "time": 176.93876726667645,
            "value": 0.7874015748031497
          },
          {
            "number": 2,
            "time": 176.9404120000098,
            "value": 0.7874015748031497
          },
          {
            "number": 2,
            "time": 176.94205673334312,
            "value": 0.7795275590551181
          },
          {
            "number": 2,
            "time": 176.94370146667646,
            "value": 0.7795275590551181
          },
          {
            "number": 2,
            "time": 176.9453462000098,
            "value": 0.7795275590551181
          },
          {
            "number": 2,
            "time": 176.94699093334313,
            "value": 0.7716535433070866
          },
          {
            "number": 2,
            "time": 176.94863566667647,
            "value": 0.7716535433070866
          },
          {
            "number": 2,
            "time": 176.9502804000098,
            "value": 0.7716535433070866
          },
          {
            "number": 2,
            "time": 176.95192513334314,
            "value": 0.7637795275590551
          },
          {
            "number": 2,
            "time": 176.95356986667647,
            "value": 0.7637795275590551
          },
          {
            "number": 2,
            "time": 176.9552146000098,
            "value": 0.7637795275590551
          },
          {
            "number": 2,
            "time": 176.95685933334315,
            "value": 0.7559055118110236
          },
          {
            "number": 2,
            "time": 176.95850406667648,
            "value": 0.7559055118110236
          },
          {
            "number": 2,
            "time": 176.96014880000982,
            "value": 0.7559055118110236
          },
          {
            "number": 2,
            "time": 176.96179353334315,
            "value": 0.7480314960629921
          },
          {
            "number": 2,
            "time": 176.9634382666765,
            "value": 0.7480314960629921
          },
          {
            "number": 2,
            "time": 176.96508300000983,
            "value": 0.7480314960629921
          },
          {
            "number": 2,
            "time": 176.96672773334316,
            "value": 0.7401574803149606
          },
          {
            "number": 2,
            "time": 176.9683724666765,
            "value": 0.7401574803149606
          },
          {
            "number": 2,
            "time": 176.97001720000983,
            "value": 0.7401574803149606
          },
          {
            "number": 2,
            "time": 176.97166193334317,
            "value": 0.7322834645669292
          },
          {
            "number": 2,
            "time": 176.9733066666765,
            "value": 0.7322834645669292
          },
          {
            "number": 2,
            "time": 176.97495140000984,
            "value": 0.7322834645669292
          },
          {
            "number": 2,
            "time": 176.97659613334318,
            "value": 0.7244094488188977
          },
          {
            "number": 2,
            "time": 176.97824086667651,
            "value": 0.7244094488188977
          },
          {
            "number": 2,
            "time": 176.97988560000985,
            "value": 0.7244094488188977
          },
          {
            "number": 2,
            "time": 176.9815303333432,
            "value": 0.7165354330708661
          },
          {
            "number": 2,
            "time": 176.98317506667652,
            "value": 0.7165354330708661
          },
          {
            "number": 2,
            "time": 176.98481980000986,
            "value": 0.7165354330708661
          },
          {
            "number": 2,
            "time": 176.9864645333432,
            "value": 0.7086614173228346
          },
          {
            "number": 2,
            "time": 176.98810926667653,
            "value": 0.7086614173228346
          },
          {
            "number": 2,
            "time": 176.98975400000987,
            "value": 0.7086614173228346
          },
          {
            "number": 2,
            "time": 176.9913987333432,
            "value": 0.7007874015748031
          },
          {
            "number": 2,
            "time": 176.99304346667654,
            "value": 0.7007874015748031
          },
          {
            "number": 2,
            "time": 176.99468820000988,
            "value": 0.7007874015748031
          },
          {
            "number": 2,
            "time": 176.9963329333432,
            "value": 0.6929133858267716
          },
          {
            "number": 2,
            "time": 176.99797766667655,
            "value": 0.6929133858267716
          },
          {
            "number": 2,
            "time": 176.99962240000988,
            "value": 0.6929133858267716
          },
          {
            "number": 2,
            "time": 177.00126713334322,
            "value": 0.6850393700787402
          },
          {
            "number": 2,
            "time": 177.00291186667656,
            "value": 0.6850393700787402
          },
          {
            "number": 2,
            "time": 177.0045566000099,
            "value": 0.6850393700787402
          },
          {
            "number": 2,
            "time": 177.00620133334323,
            "value": 0.6771653543307087
          },
          {
            "number": 2,
            "time": 177.00784606667656,
            "value": 0.6771653543307087
          },
          {
            "number": 2,
            "time": 177.0094908000099,
            "value": 0.6771653543307087
          },
          {
            "number": 2,
            "time": 177.01113553334324,
            "value": 0.6692913385826772
          },
          {
            "number": 2,
            "time": 177.01278026667657,
            "value": 0.6692913385826772
          },
          {
            "number": 2,
            "time": 177.0144250000099,
            "value": 0.6692913385826772
          },
          {
            "number": 2,
            "time": 177.01606973334324,
            "value": 0.6614173228346457
          },
          {
            "number": 2,
            "time": 177.01771446667658,
            "value": 0.6614173228346457
          },
          {
            "number": 2,
            "time": 177.01935920000992,
            "value": 0.6614173228346457
          },
          {
            "number": 2,
            "time": 177.02100393334325,
            "value": 0.6535433070866141
          },
          {
            "number": 2,
            "time": 177.0226486666766,
            "value": 0.6535433070866141
          },
          {
            "number": 2,
            "time": 177.02429340000992,
            "value": 0.6535433070866141
          },
          {
            "number": 2,
            "time": 177.02593813334326,
            "value": 0.6456692913385826
          },
          {
            "number": 2,
            "time": 177.0275828666766,
            "value": 0.6456692913385826
          },
          {
            "number": 2,
            "time": 177.02922760000993,
            "value": 0.6456692913385826
          },
          {
            "number": 2,
            "time": 177.03087233334327,
            "value": 0.6377952755905512
          },
          {
            "number": 2,
            "time": 177.0325170666766,
            "value": 0.6377952755905512
          },
          {
            "number": 2,
            "time": 177.03416180000994,
            "value": 0.6377952755905512
          },
          {
            "number": 2,
            "time": 177.03580653334328,
            "value": 0.6299212598425197
          },
          {
            "number": 2,
            "time": 177.0374512666766,
            "value": 0.6299212598425197
          },
          {
            "number": 2,
            "time": 177.23646400000996,
            "value": 0.6299212598425197
          },
          {
            "number": 2,
            "time": 178.02593600000998,
            "value": 0.6299212598425197
          },
          {
            "number": 2,
            "time": 178.42067200000997,
            "value": 0.9448818897637795
          },
          {
            "number": 2,
            "time": 178.4223167333433,
            "value": 0.937007874015748
          },
          {
            "number": 2,
            "time": 178.42396146667664,
            "value": 0.937007874015748
          },
          {
            "number": 2,
            "time": 178.42560620000998,
            "value": 0.937007874015748
          },
          {
            "number": 2,
            "time": 178.42725093334332,
            "value": 0.9291338582677166
          },
          {
            "number": 2,
            "time": 178.42889566667665,
            "value": 0.9291338582677166
          },
          {
            "number": 2,
            "time": 178.43054040001,
            "value": 0.9291338582677166
          },
          {
            "number": 2,
            "time": 178.43218513334332,
            "value": 0.9212598425196851
          },
          {
            "number": 2,
            "time": 178.43382986667666,
            "value": 0.9212598425196851
          },
          {
            "number": 2,
            "time": 178.43547460001,
            "value": 0.9212598425196851
          },
          {
            "number": 2,
            "time": 178.43711933334333,
            "value": 0.9133858267716536
          },
          {
            "number": 2,
            "time": 178.43876406667667,
            "value": 0.9133858267716536
          },
          {
            "number": 2,
            "time": 178.44040880001,
            "value": 0.9133858267716536
          },
          {
            "number": 2,
            "time": 178.44205353334334,
            "value": 0.905511811023622
          },
          {
            "number": 2,
            "time": 178.44369826667668,
            "value": 0.905511811023622
          },
          {
            "number": 2,
            "time": 178.44534300001,
            "value": 0.905511811023622
          },
          {
            "number": 2,
            "time": 178.44698773334335,
            "value": 0.8976377952755905
          },
          {
            "number": 2,
            "time": 178.44863246667668,
            "value": 0.8976377952755905
          },
          {
            "number": 2,
            "time": 178.45027720001002,
            "value": 0.8976377952755905
          },
          {
            "number": 2,
            "time": 178.45192193334336,
            "value": 0.889763779527559
          },
          {
            "number": 2,
            "time": 178.4535666666767,
            "value": 0.889763779527559
          },
          {
            "number": 2,
            "time": 178.45521140001003,
            "value": 0.889763779527559
          },
          {
            "number": 2,
            "time": 178.45685613334336,
            "value": 0.8818897637795275
          },
          {
            "number": 2,
            "time": 178.4585008666767,
            "value": 0.8818897637795275
          },
          {
            "number": 2,
            "time": 178.46014560001004,
            "value": 0.8818897637795275
          },
          {
            "number": 2,
            "time": 178.46179033334337,
            "value": 0.8740157480314961
          },
          {
            "number": 2,
            "time": 178.4634350666767,
            "value": 0.8740157480314961
          },
          {
            "number": 2,
            "time": 178.46507980001005,
            "value": 0.8740157480314961
          },
          {
            "number": 2,
            "time": 178.46672453334338,
            "value": 0.8661417322834646
          },
          {
            "number": 2,
            "time": 178.46836926667672,
            "value": 0.8661417322834646
          },
          {
            "number": 2,
            "time": 178.47001400001005,
            "value": 0.8661417322834646
          },
          {
            "number": 2,
            "time": 178.4716587333434,
            "value": 0.8582677165354331
          },
          {
            "number": 2,
            "time": 178.47330346667673,
            "value": 0.8582677165354331
          },
          {
            "number": 2,
            "time": 178.47494820001006,
            "value": 0.8582677165354331
          },
          {
            "number": 2,
            "time": 178.4765929333434,
            "value": 0.8503937007874016
          },
          {
            "number": 2,
            "time": 178.47823766667673,
            "value": 0.8503937007874016
          },
          {
            "number": 2,
            "time": 178.47988240001007,
            "value": 0.8503937007874016
          },
          {
            "number": 2,
            "time": 178.4815271333434,
            "value": 0.84251968503937
          },
          {
            "number": 2,
            "time": 178.48317186667674,
            "value": 0.84251968503937
          },
          {
            "number": 2,
            "time": 178.48481660001008,
            "value": 0.84251968503937
          },
          {
            "number": 2,
            "time": 178.4864613333434,
            "value": 0.8346456692913385
          },
          {
            "number": 2,
            "time": 178.48810606667675,
            "value": 0.8346456692913385
          },
          {
            "number": 2,
            "time": 178.48975080001009,
            "value": 0.8346456692913385
          },
          {
            "number": 2,
            "time": 178.49139553334342,
            "value": 0.8267716535433071
          },
          {
            "number": 2,
            "time": 178.49304026667676,
            "value": 0.8267716535433071
          },
          {
            "number": 2,
            "time": 178.4946850000101,
            "value": 0.8267716535433071
          },
          {
            "number": 2,
            "time": 178.49632973334343,
            "value": 0.8188976377952756
          },
          {
            "number": 2,
            "time": 178.49797446667677,
            "value": 0.8188976377952756
          },
          {
            "number": 2,
            "time": 178.4996192000101,
            "value": 0.8188976377952756
          },
          {
            "number": 2,
            "time": 178.50126393334344,
            "value": 0.8110236220472441
          },
          {
            "number": 2,
            "time": 178.50290866667677,
            "value": 0.8110236220472441
          },
          {
            "number": 2,
            "time": 178.5045534000101,
            "value": 0.8110236220472441
          },
          {
            "number": 2,
            "time": 178.50619813334345,
            "value": 0.8031496062992126
          },
          {
            "number": 2,
            "time": 178.50784286667678,
            "value": 0.8031496062992126
          },
          {
            "number": 2,
            "time": 178.50948760001012,
            "value": 0.8031496062992126
          },
          {
            "number": 2,
            "time": 178.51113233334345,
            "value": 0.7952755905511811
          },
          {
            "number": 2,
            "time": 178.5127770666768,
            "value": 0.7952755905511811
          },
          {
            "number": 2,
            "time": 178.51442180001013,
            "value": 0.7952755905511811
          },
          {
            "number": 2,
            "time": 178.51606653334346,
            "value": 0.7874015748031497
          },
          {
            "number": 2,
            "time": 178.5177112666768,
            "value": 0.7874015748031497
          },
          {
            "number": 2,
            "time": 178.51935600001013,
            "value": 0.7874015748031497
          },
          {
            "number": 2,
            "time": 178.52100073334347,
            "value": 0.7795275590551181
          },
          {
            "number": 2,
            "time": 178.5226454666768,
            "value": 0.7795275590551181
          },
          {
            "number": 2,
            "time": 178.52429020001014,
            "value": 0.7795275590551181
          },
          {
            "number": 2,
            "time": 178.52593493334348,
            "value": 0.7716535433070866
          },
          {
            "number": 2,
            "time": 178.52757966667681,
            "value": 0.7716535433070866
          },
          {
            "number": 2,
            "time": 178.52922440001015,
            "value": 0.7716535433070866
          },
          {
            "number": 2,
            "time": 178.5308691333435,
            "value": 0.7637795275590551
          },
          {
            "number": 2,
            "time": 178.53251386667682,
            "value": 0.7637795275590551
          },
          {
            "number": 2,
            "time": 178.53415860001016,
            "value": 0.7637795275590551
          },
          {
            "number": 2,
            "time": 178.5358033333435,
            "value": 0.7559055118110236
          },
          {
            "number": 2,
            "time": 178.53744806667683,
            "value": 0.7559055118110236
          },
          {
            "number": 2,
            "time": 178.53909280001017,
            "value": 0.7559055118110236
          },
          {
            "number": 2,
            "time": 178.5407375333435,
            "value": 0.7480314960629921
          },
          {
            "number": 2,
            "time": 178.54238226667684,
            "value": 0.7480314960629921
          },
          {
            "number": 2,
            "time": 178.54402700001017,
            "value": 0.7480314960629921
          },
          {
            "number": 2,
            "time": 178.5456717333435,
            "value": 0.7401574803149606
          },
          {
            "number": 2,
            "time": 178.54731646667685,
            "value": 0.7401574803149606
          },
          {
            "number": 2,
            "time": 178.54896120001018,
            "value": 0.7401574803149606
          },
          {
            "number": 2,
            "time": 178.55060593334352,
            "value": 0.7322834645669292
          },
          {
            "number": 2,
            "time": 178.55225066667685,
            "value": 0.7322834645669292
          },
          {
            "number": 2,
            "time": 178.5538954000102,
            "value": 0.7322834645669292
          },
          {
            "number": 2,
            "time": 178.55554013334353,
            "value": 0.7244094488188977
          },
          {
            "number": 2,
            "time": 178.55718486667686,
            "value": 0.7244094488188977
          },
          {
            "number": 2,
            "time": 178.5588296000102,
            "value": 0.7244094488188977
          },
          {
            "number": 2,
            "time": 178.56047433334354,
            "value": 0.7165354330708661
          },
          {
            "number": 2,
            "time": 178.56211906667687,
            "value": 0.7165354330708661
          },
          {
            "number": 2,
            "time": 178.5637638000102,
            "value": 0.7165354330708661
          },
          {
            "number": 2,
            "time": 178.56540853334354,
            "value": 0.7086614173228346
          },
          {
            "number": 2,
            "time": 178.56705326667688,
            "value": 0.7086614173228346
          },
          {
            "number": 2,
            "time": 178.56869800001022,
            "value": 0.7086614173228346
          },
          {
            "number": 2,
            "time": 178.57034273334355,
            "value": 0.7007874015748031
          },
          {
            "number": 2,
            "time": 178.5719874666769,
            "value": 0.7007874015748031
          },
          {
            "number": 2,
            "time": 178.57363220001022,
            "value": 0.7007874015748031
          },
          {
            "number": 2,
            "time": 178.57527693334356,
            "value": 0.6929133858267716
          },
          {
            "number": 2,
            "time": 178.5769216666769,
            "value": 0.6929133858267716
          },
          {
            "number": 2,
            "time": 178.57856640001023,
            "value": 0.6929133858267716
          },
          {
            "number": 2,
            "time": 178.58021113334357,
            "value": 0.6850393700787402
          },
          {
            "number": 2,
            "time": 178.5818558666769,
            "value": 0.6850393700787402
          },
          {
            "number": 2,
            "time": 178.58350060001024,
            "value": 0.6850393700787402
          },
          {
            "number": 2,
            "time": 178.58514533334358,
            "value": 0.6771653543307087
          },
          {
            "number": 2,
            "time": 178.5867900666769,
            "value": 0.6771653543307087
          },
          {
            "number": 2,
            "time": 178.58843480001025,
            "value": 0.6771653543307087
          },
          {
            "number": 2,
            "time": 178.59007953334358,
            "value": 0.6692913385826772
          },
          {
            "number": 2,
            "time": 178.59172426667692,
            "value": 0.6692913385826772
          },
          {
            "number": 2,
            "time": 178.59336900001026,
            "value": 0.6692913385826772
          },
          {
            "number": 2,
            "time": 178.5950137333436,
            "value": 0.6614173228346457
          },
          {
            "number": 2,
            "time": 178.59665846667693,
            "value": 0.6614173228346457
          },
          {
            "number": 2,
            "time": 178.59830320001026,
            "value": 0.6614173228346457
          },
          {
            "number": 2,
            "time": 178.5999479333436,
            "value": 0.6535433070866141
          },
          {
            "number": 2,
            "time": 178.60159266667694,
            "value": 0.6535433070866141
          },
          {
            "number": 2,
            "time": 178.60323740001027,
            "value": 0.6535433070866141
          },
          {
            "number": 2,
            "time": 178.6048821333436,
            "value": 0.6456692913385826
          },
          {
            "number": 2,
            "time": 178.60652686667694,
            "value": 0.6456692913385826
          },
          {
            "number": 2,
            "time": 178.60817160001028,
            "value": 0.6456692913385826
          },
          {
            "number": 2,
            "time": 178.60981633334362,
            "value": 0.6377952755905512
          },
          {
            "number": 2,
            "time": 178.61146106667695,
            "value": 0.6377952755905512
          },
          {
            "number": 2,
            "time": 178.6131058000103,
            "value": 0.6377952755905512
          },
          {
            "number": 2,
            "time": 178.61475053334362,
            "value": 0.6299212598425197
          },
          {
            "number": 2,
            "time": 178.61639526667696,
            "value": 0.6299212598425197
          },
          {
            "number": 2,
            "time": 178.8154080000103,
            "value": 0.6299212598425197
          },
          {
            "number": 2,
            "time": 179.60488000001033,
            "value": 0.6299212598425197
          },
          {
            "number": 2,
            "time": 179.99961600001032,
            "value": 0.6299212598425197
          },
          {
            "number": 2,
            "time": 179.99961600001032,
            "value": 0.9448818897637795
          },
          {
            "number": 2,
            "time": 180.00126073334366,
            "value": 0.937007874015748
          },
          {
            "number": 2,
            "time": 180.002905466677,
            "value": 0.937007874015748
          },
          {
            "number": 2,
            "time": 180.00455020001033,
            "value": 0.937007874015748
          },
          {
            "number": 2,
            "time": 180.00619493334366,
            "value": 0.9291338582677166
          },
          {
            "number": 2,
            "time": 180.007839666677,
            "value": 0.9291338582677166
          },
          {
            "number": 2,
            "time": 180.00948440001034,
            "value": 0.9291338582677166
          },
          {
            "number": 2,
            "time": 180.01112913334367,
            "value": 0.9212598425196851
          },
          {
            "number": 2,
            "time": 180.012773866677,
            "value": 0.9212598425196851
          },
          {
            "number": 2,
            "time": 180.01441860001034,
            "value": 0.9212598425196851
          },
          {
            "number": 2,
            "time": 180.01606333334368,
            "value": 0.9133858267716536
          },
          {
            "number": 2,
            "time": 180.01770806667702,
            "value": 0.9133858267716536
          },
          {
            "number": 2,
            "time": 180.01935280001035,
            "value": 0.9133858267716536
          },
          {
            "number": 2,
            "time": 180.0209975333437,
            "value": 0.905511811023622
          },
          {
            "number": 2,
            "time": 180.02264226667702,
            "value": 0.905511811023622
          },
          {
            "number": 2,
            "time": 180.02428700001036,
            "value": 0.905511811023622
          },
          {
            "number": 2,
            "time": 180.0259317333437,
            "value": 0.8976377952755905
          },
          {
            "number": 2,
            "time": 180.02757646667703,
            "value": 0.8976377952755905
          },
          {
            "number": 2,
            "time": 180.02922120001037,
            "value": 0.8976377952755905
          },
          {
            "number": 2,
            "time": 180.0308659333437,
            "value": 0.889763779527559
          },
          {
            "number": 2,
            "time": 180.03251066667704,
            "value": 0.889763779527559
          },
          {
            "number": 2,
            "time": 180.03415540001038,
            "value": 0.889763779527559
          },
          {
            "number": 2,
            "time": 180.0358001333437,
            "value": 0.8818897637795275
          },
          {
            "number": 2,
            "time": 180.03744486667705,
            "value": 0.8818897637795275
          },
          {
            "number": 2,
            "time": 180.03908960001039,
            "value": 0.8818897637795275
          },
          {
            "number": 2,
            "time": 180.04073433334372,
            "value": 0.8740157480314961
          },
          {
            "number": 2,
            "time": 180.04237906667706,
            "value": 0.8740157480314961
          },
          {
            "number": 2,
            "time": 180.0440238000104,
            "value": 0.8740157480314961
          },
          {
            "number": 2,
            "time": 180.04566853334373,
            "value": 0.8661417322834646
          },
          {
            "number": 2,
            "time": 180.04731326667707,
            "value": 0.8661417322834646
          },
          {
            "number": 2,
            "time": 180.0489580000104,
            "value": 0.8661417322834646
          },
          {
            "number": 2,
            "time": 180.05060273334374,
            "value": 0.8582677165354331
          },
          {
            "number": 2,
            "time": 180.05224746667707,
            "value": 0.8582677165354331
          },
          {
            "number": 2,
            "time": 180.0538922000104,
            "value": 0.8582677165354331
          },
          {
            "number": 2,
            "time": 180.05553693334375,
            "value": 0.8503937007874016
          },
          {
            "number": 2,
            "time": 180.05718166667708,
            "value": 0.8503937007874016
          },
          {
            "number": 2,
            "time": 180.05882640001042,
            "value": 0.8503937007874016
          },
          {
            "number": 2,
            "time": 180.06047113334375,
            "value": 0.84251968503937
          },
          {
            "number": 2,
            "time": 180.0621158666771,
            "value": 0.84251968503937
          },
          {
            "number": 2,
            "time": 180.06376060001043,
            "value": 0.84251968503937
          },
          {
            "number": 2,
            "time": 180.06540533334376,
            "value": 0.8346456692913385
          },
          {
            "number": 2,
            "time": 180.0670500666771,
            "value": 0.8346456692913385
          },
          {
            "number": 2,
            "time": 180.06869480001043,
            "value": 0.8346456692913385
          },
          {
            "number": 2,
            "time": 180.07033953334377,
            "value": 0.8267716535433071
          },
          {
            "number": 2,
            "time": 180.0719842666771,
            "value": 0.8267716535433071
          },
          {
            "number": 2,
            "time": 180.07362900001044,
            "value": 0.8267716535433071
          },
          {
            "number": 2,
            "time": 180.07527373334378,
            "value": 0.8188976377952756
          },
          {
            "number": 2,
            "time": 180.0769184666771,
            "value": 0.8188976377952756
          },
          {
            "number": 2,
            "time": 180.07856320001045,
            "value": 0.8188976377952756
          },
          {
            "number": 2,
            "time": 180.0802079333438,
            "value": 0.8110236220472441
          },
          {
            "number": 2,
            "time": 180.08185266667712,
            "value": 0.8110236220472441
          },
          {
            "number": 2,
            "time": 180.08349740001046,
            "value": 0.8110236220472441
          },
          {
            "number": 2,
            "time": 180.0851421333438,
            "value": 0.8031496062992126
          },
          {
            "number": 2,
            "time": 180.08678686667713,
            "value": 0.8031496062992126
          },
          {
            "number": 2,
            "time": 180.08843160001047,
            "value": 0.8031496062992126
          },
          {
            "number": 2,
            "time": 180.0900763333438,
            "value": 0.7952755905511811
          },
          {
            "number": 2,
            "time": 180.09172106667714,
            "value": 0.7952755905511811
          },
          {
            "number": 2,
            "time": 180.09336580001047,
            "value": 0.7952755905511811
          },
          {
            "number": 2,
            "time": 180.0950105333438,
            "value": 0.7874015748031497
          },
          {
            "number": 2,
            "time": 180.09665526667715,
            "value": 0.7874015748031497
          },
          {
            "number": 2,
            "time": 180.09830000001048,
            "value": 0.7874015748031497
          },
          {
            "number": 2,
            "time": 180.09994473334382,
            "value": 0.7795275590551181
          },
          {
            "number": 2,
            "time": 180.10158946667715,
            "value": 0.7795275590551181
          },
          {
            "number": 2,
            "time": 180.1032342000105,
            "value": 0.7795275590551181
          },
          {
            "number": 2,
            "time": 180.10487893334383,
            "value": 0.7716535433070866
          },
          {
            "number": 2,
            "time": 180.10652366667716,
            "value": 0.7716535433070866
          },
          {
            "number": 2,
            "time": 180.1081684000105,
            "value": 0.7716535433070866
          },
          {
            "number": 2,
            "time": 180.10981313334383,
            "value": 0.7637795275590551
          },
          {
            "number": 2,
            "time": 180.11145786667717,
            "value": 0.7637795275590551
          },
          {
            "number": 2,
            "time": 180.1131026000105,
            "value": 0.7637795275590551
          },
          {
            "number": 2,
            "time": 180.11474733334384,
            "value": 0.7559055118110236
          },
          {
            "number": 2,
            "time": 180.11639206667718,
            "value": 0.7559055118110236
          },
          {
            "number": 2,
            "time": 180.11803680001051,
            "value": 0.7559055118110236
          },
          {
            "number": 2,
            "time": 180.11968153334385,
            "value": 0.7480314960629921
          },
          {
            "number": 2,
            "time": 180.1213262666772,
            "value": 0.7480314960629921
          },
          {
            "number": 2,
            "time": 180.12297100001052,
            "value": 0.7480314960629921
          },
          {
            "number": 2,
            "time": 180.12461573334386,
            "value": 0.7401574803149606
          },
          {
            "number": 2,
            "time": 180.1262604666772,
            "value": 0.7401574803149606
          },
          {
            "number": 2,
            "time": 180.12790520001053,
            "value": 0.7401574803149606
          },
          {
            "number": 2,
            "time": 180.12954993334387,
            "value": 0.7322834645669292
          },
          {
            "number": 2,
            "time": 180.1311946666772,
            "value": 0.7322834645669292
          },
          {
            "number": 2,
            "time": 180.13283940001054,
            "value": 0.7322834645669292
          },
          {
            "number": 2,
            "time": 180.13448413334388,
            "value": 0.7244094488188977
          },
          {
            "number": 2,
            "time": 180.1361288666772,
            "value": 0.7244094488188977
          },
          {
            "number": 2,
            "time": 180.13777360001055,
            "value": 0.7244094488188977
          },
          {
            "number": 2,
            "time": 180.13941833334388,
            "value": 0.7165354330708661
          },
          {
            "number": 2,
            "time": 180.14106306667722,
            "value": 0.7165354330708661
          },
          {
            "number": 2,
            "time": 180.14270780001056,
            "value": 0.7165354330708661
          },
          {
            "number": 2,
            "time": 180.1443525333439,
            "value": 0.7086614173228346
          },
          {
            "number": 2,
            "time": 180.14599726667723,
            "value": 0.7086614173228346
          },
          {
            "number": 2,
            "time": 180.14764200001056,
            "value": 0.7086614173228346
          },
          {
            "number": 2,
            "time": 180.1492867333439,
            "value": 0.7007874015748031
          },
          {
            "number": 2,
            "time": 180.15093146667724,
            "value": 0.7007874015748031
          },
          {
            "number": 2,
            "time": 180.15257620001057,
            "value": 0.7007874015748031
          },
          {
            "number": 2,
            "time": 180.1542209333439,
            "value": 0.6929133858267716
          },
          {
            "number": 2,
            "time": 180.15586566667724,
            "value": 0.6929133858267716
          },
          {
            "number": 2,
            "time": 180.15751040001058,
            "value": 0.6929133858267716
          },
          {
            "number": 2,
            "time": 180.15915513334392,
            "value": 0.6850393700787402
          },
          {
            "number": 2,
            "time": 180.16079986667725,
            "value": 0.6850393700787402
          },
          {
            "number": 2,
            "time": 180.1624446000106,
            "value": 0.6850393700787402
          },
          {
            "number": 2,
            "time": 180.16408933334392,
            "value": 0.6771653543307087
          },
          {
            "number": 2,
            "time": 180.16573406667726,
            "value": 0.6771653543307087
          },
          {
            "number": 2,
            "time": 180.1673788000106,
            "value": 0.6771653543307087
          },
          {
            "number": 2,
            "time": 180.16902353334393,
            "value": 0.6692913385826772
          },
          {
            "number": 2,
            "time": 180.17066826667727,
            "value": 0.6692913385826772
          },
          {
            "number": 2,
            "time": 180.1723130000106,
            "value": 0.6692913385826772
          },
          {
            "number": 2,
            "time": 180.17395773334394,
            "value": 0.6614173228346457
          },
          {
            "number": 2,
            "time": 180.17560246667728,
            "value": 0.6614173228346457
          },
          {
            "number": 2,
            "time": 180.1772472000106,
            "value": 0.6614173228346457
          },
          {
            "number": 2,
            "time": 180.17889193334395,
            "value": 0.6535433070866141
          },
          {
            "number": 2,
            "time": 180.18053666667728,
            "value": 0.6535433070866141
          },
          {
            "number": 2,
            "time": 180.18218140001062,
            "value": 0.6535433070866141
          },
          {
            "number": 2,
            "time": 180.18382613334396,
            "value": 0.6456692913385826
          },
          {
            "number": 2,
            "time": 180.1854708666773,
            "value": 0.6456692913385826
          },
          {
            "number": 2,
            "time": 180.18711560001063,
            "value": 0.6456692913385826
          },
          {
            "number": 2,
            "time": 180.18876033334396,
            "value": 0.6377952755905512
          },
          {
            "number": 2,
            "time": 180.1904050666773,
            "value": 0.6377952755905512
          },
          {
            "number": 2,
            "time": 180.19204980001064,
            "value": 0.6377952755905512
          },
          {
            "number": 2,
            "time": 180.19369453334397,
            "value": 0.6299212598425197
          },
          {
            "number": 2,
            "time": 180.1953392666773,
            "value": 0.6299212598425197
          },
          {
            "number": 2,
            "time": 180.39435200001066,
            "value": 0.6299212598425197
          },
          {
            "number": 2,
            "time": 180.56704900001066,
            "value": 0.6377952755905512
          },
          {
            "number": 2,
            "time": 181.13448200001068,
            "value": 0.6456692913385826
          },
          {
            "number": 2,
            "time": 181.18382400001067,
            "value": 0.6456692913385826
          },
          {
            "number": 2,
            "time": 181.57856000001067,
            "value": 0.968503937007874
          },
          {
            "number": 2,
            "time": 181.580204733344,
            "value": 0.9606299212598425
          },
          {
            "number": 2,
            "time": 181.58184946667734,
            "value": 0.9606299212598425
          },
          {
            "number": 2,
            "time": 181.58349420001068,
            "value": 0.952755905511811
          },
          {
            "number": 2,
            "time": 181.585138933344,
            "value": 0.952755905511811
          },
          {
            "number": 2,
            "time": 181.58678366667735,
            "value": 0.952755905511811
          },
          {
            "number": 2,
            "time": 181.58842840001068,
            "value": 0.9448818897637795
          },
          {
            "number": 2,
            "time": 181.59007313334402,
            "value": 0.9448818897637795
          },
          {
            "number": 2,
            "time": 181.59171786667736,
            "value": 0.9448818897637795
          },
          {
            "number": 2,
            "time": 181.5933626000107,
            "value": 0.937007874015748
          },
          {
            "number": 2,
            "time": 181.59500733334403,
            "value": 0.937007874015748
          },
          {
            "number": 2,
            "time": 181.59665206667736,
            "value": 0.937007874015748
          },
          {
            "number": 2,
            "time": 181.5982968000107,
            "value": 0.9291338582677166
          },
          {
            "number": 2,
            "time": 181.59994153334404,
            "value": 0.9291338582677166
          },
          {
            "number": 2,
            "time": 181.60158626667737,
            "value": 0.9291338582677166
          },
          {
            "number": 2,
            "time": 181.6032310000107,
            "value": 0.9212598425196851
          },
          {
            "number": 2,
            "time": 181.60487573334404,
            "value": 0.9212598425196851
          },
          {
            "number": 2,
            "time": 181.60652046667738,
            "value": 0.9212598425196851
          },
          {
            "number": 2,
            "time": 181.60816520001072,
            "value": 0.9133858267716536
          },
          {
            "number": 2,
            "time": 181.60980993334405,
            "value": 0.9133858267716536
          },
          {
            "number": 2,
            "time": 181.6114546666774,
            "value": 0.9133858267716536
          },
          {
            "number": 2,
            "time": 181.61309940001073,
            "value": 0.905511811023622
          },
          {
            "number": 2,
            "time": 181.61474413334406,
            "value": 0.905511811023622
          },
          {
            "number": 2,
            "time": 181.6163888666774,
            "value": 0.905511811023622
          },
          {
            "number": 2,
            "time": 181.61803360001073,
            "value": 0.8976377952755905
          },
          {
            "number": 2,
            "time": 181.61967833334407,
            "value": 0.8976377952755905
          },
          {
            "number": 2,
            "time": 181.6213230666774,
            "value": 0.8976377952755905
          },
          {
            "number": 2,
            "time": 181.62296780001074,
            "value": 0.889763779527559
          },
          {
            "number": 2,
            "time": 181.62461253334408,
            "value": 0.889763779527559
          },
          {
            "number": 2,
            "time": 181.6262572666774,
            "value": 0.889763779527559
          },
          {
            "number": 2,
            "time": 181.62790200001075,
            "value": 0.8818897637795275
          },
          {
            "number": 2,
            "time": 181.62954673334409,
            "value": 0.8818897637795275
          },
          {
            "number": 2,
            "time": 181.63119146667742,
            "value": 0.8818897637795275
          },
          {
            "number": 2,
            "time": 181.63283620001076,
            "value": 0.8740157480314961
          },
          {
            "number": 2,
            "time": 181.6344809333441,
            "value": 0.8740157480314961
          },
          {
            "number": 2,
            "time": 181.63612566667743,
            "value": 0.8740157480314961
          },
          {
            "number": 2,
            "time": 181.63777040001077,
            "value": 0.8661417322834646
          },
          {
            "number": 2,
            "time": 181.6394151333441,
            "value": 0.8661417322834646
          },
          {
            "number": 2,
            "time": 181.64105986667744,
            "value": 0.8661417322834646
          },
          {
            "number": 2,
            "time": 181.64270460001077,
            "value": 0.8582677165354331
          },
          {
            "number": 2,
            "time": 181.6443493333441,
            "value": 0.8582677165354331
          },
          {
            "number": 2,
            "time": 181.64599406667745,
            "value": 0.8503937007874016
          },
          {
            "number": 2,
            "time": 181.64763880001078,
            "value": 0.8503937007874016
          },
          {
            "number": 2,
            "time": 181.64928353334412,
            "value": 0.8503937007874016
          },
          {
            "number": 2,
            "time": 181.65092826667745,
            "value": 0.84251968503937
          },
          {
            "number": 2,
            "time": 181.6525730000108,
            "value": 0.84251968503937
          },
          {
            "number": 2,
            "time": 181.65421773334413,
            "value": 0.84251968503937
          },
          {
            "number": 2,
            "time": 181.65586246667746,
            "value": 0.8346456692913385
          },
          {
            "number": 2,
            "time": 181.6575072000108,
            "value": 0.8346456692913385
          },
          {
            "number": 2,
            "time": 181.65915193334413,
            "value": 0.8346456692913385
          },
          {
            "number": 2,
            "time": 181.66079666667747,
            "value": 0.8267716535433071
          },
          {
            "number": 2,
            "time": 181.6624414000108,
            "value": 0.8267716535433071
          },
          {
            "number": 2,
            "time": 181.66408613334414,
            "value": 0.8267716535433071
          },
          {
            "number": 2,
            "time": 181.66573086667748,
            "value": 0.8188976377952756
          },
          {
            "number": 2,
            "time": 181.6673756000108,
            "value": 0.8188976377952756
          },
          {
            "number": 2,
            "time": 181.66902033334415,
            "value": 0.8188976377952756
          },
          {
            "number": 2,
            "time": 181.6706650666775,
            "value": 0.8110236220472441
          },
          {
            "number": 2,
            "time": 181.67230980001082,
            "value": 0.8110236220472441
          },
          {
            "number": 2,
            "time": 181.67395453334416,
            "value": 0.8110236220472441
          },
          {
            "number": 2,
            "time": 181.6755992666775,
            "value": 0.8031496062992126
          },
          {
            "number": 2,
            "time": 181.67724400001083,
            "value": 0.8031496062992126
          },
          {
            "number": 2,
            "time": 181.67888873334417,
            "value": 0.8031496062992126
          },
          {
            "number": 2,
            "time": 181.6805334666775,
            "value": 0.7952755905511811
          },
          {
            "number": 2,
            "time": 181.68217820001084,
            "value": 0.7952755905511811
          },
          {
            "number": 2,
            "time": 181.68382293334417,
            "value": 0.7952755905511811
          },
          {
            "number": 2,
            "time": 181.6854676666775,
            "value": 0.7874015748031497
          },
          {
            "number": 2,
            "time": 181.68711240001085,
            "value": 0.7874015748031497
          },
          {
            "number": 2,
            "time": 181.68875713334418,
            "value": 0.7874015748031497
          },
          {
            "number": 2,
            "time": 181.69040186667752,
            "value": 0.7795275590551181
          },
          {
            "number": 2,
            "time": 181.69204660001085,
            "value": 0.7795275590551181
          },
          {
            "number": 2,
            "time": 181.6936913333442,
            "value": 0.7795275590551181
          },
          {
            "number": 2,
            "time": 181.69533606667753,
            "value": 0.7716535433070866
          },
          {
            "number": 2,
            "time": 181.69698080001086,
            "value": 0.7716535433070866
          },
          {
            "number": 2,
            "time": 181.6986255333442,
            "value": 0.7716535433070866
          },
          {
            "number": 2,
            "time": 181.70027026667753,
            "value": 0.7637795275590551
          },
          {
            "number": 2,
            "time": 181.70191500001087,
            "value": 0.6535433070866141
          },
          {
            "number": 2,
            "time": 181.70191500001087,
            "value": 0.7716535433070866
          },
          {
            "number": 2,
            "time": 181.7035597333442,
            "value": 0.7716535433070866
          },
          {
            "number": 2,
            "time": 181.70520446667754,
            "value": 0.7637795275590551
          },
          {
            "number": 2,
            "time": 181.70684920001088,
            "value": 0.7637795275590551
          },
          {
            "number": 2,
            "time": 181.70849393334422,
            "value": 0.7637795275590551
          },
          {
            "number": 2,
            "time": 181.71013866667755,
            "value": 0.7559055118110236
          },
          {
            "number": 2,
            "time": 181.7117834000109,
            "value": 0.7559055118110236
          },
          {
            "number": 2,
            "time": 181.71342813334422,
            "value": 0.7559055118110236
          },
          {
            "number": 2,
            "time": 181.71507286667756,
            "value": 0.7480314960629921
          },
          {
            "number": 2,
            "time": 181.7167176000109,
            "value": 0.7480314960629921
          },
          {
            "number": 2,
            "time": 181.71836233334423,
            "value": 0.7480314960629921
          },
          {
            "number": 2,
            "time": 181.72000706667757,
            "value": 0.7401574803149606
          },
          {
            "number": 2,
            "time": 181.7216518000109,
            "value": 0.7401574803149606
          },
          {
            "number": 2,
            "time": 181.72329653334424,
            "value": 0.7401574803149606
          },
          {
            "number": 2,
            "time": 181.72494126667758,
            "value": 0.7322834645669292
          },
          {
            "number": 2,
            "time": 181.7265860000109,
            "value": 0.7322834645669292
          },
          {
            "number": 2,
            "time": 181.72823073334425,
            "value": 0.7322834645669292
          },
          {
            "number": 2,
            "time": 181.72987546667758,
            "value": 0.7244094488188977
          },
          {
            "number": 2,
            "time": 181.73152020001092,
            "value": 0.7244094488188977
          },
          {
            "number": 2,
            "time": 181.73316493334426,
            "value": 0.7165354330708661
          },
          {
            "number": 2,
            "time": 181.7348096666776,
            "value": 0.7165354330708661
          },
          {
            "number": 2,
            "time": 181.73645440001093,
            "value": 0.7165354330708661
          },
          {
            "number": 2,
            "time": 181.73809913334426,
            "value": 0.7086614173228346
          },
          {
            "number": 2,
            "time": 181.7397438666776,
            "value": 0.7086614173228346
          },
          {
            "number": 2,
            "time": 181.74138860001094,
            "value": 0.7086614173228346
          },
          {
            "number": 2,
            "time": 181.74303333334427,
            "value": 0.7007874015748031
          },
          {
            "number": 2,
            "time": 181.7446780666776,
            "value": 0.7007874015748031
          },
          {
            "number": 2,
            "time": 181.74632280001094,
            "value": 0.7007874015748031
          },
          {
            "number": 2,
            "time": 181.74796753334428,
            "value": 0.6929133858267716
          },
          {
            "number": 2,
            "time": 181.74961226667762,
            "value": 0.6929133858267716
          },
          {
            "number": 2,
            "time": 181.75125700001095,
            "value": 0.6929133858267716
          },
          {
            "number": 2,
            "time": 181.7529017333443,
            "value": 0.6850393700787402
          },
          {
            "number": 2,
            "time": 181.75454646667762,
            "value": 0.6850393700787402
          },
          {
            "number": 2,
            "time": 181.75619120001096,
            "value": 0.6850393700787402
          },
          {
            "number": 2,
            "time": 181.7578359333443,
            "value": 0.6771653543307087
          },
          {
            "number": 2,
            "time": 181.75948066667763,
            "value": 0.6771653543307087
          },
          {
            "number": 2,
            "time": 181.76112540001097,
            "value": 0.6771653543307087
          },
          {
            "number": 2,
            "time": 181.7627701333443,
            "value": 0.6692913385826772
          },
          {
            "number": 2,
            "time": 181.76441486667764,
            "value": 0.6692913385826772
          },
          {
            "number": 2,
            "time": 181.76605960001098,
            "value": 0.6692913385826772
          },
          {
            "number": 2,
            "time": 181.7677043333443,
            "value": 0.6614173228346457
          },
          {
            "number": 2,
            "time": 181.76934906667765,
            "value": 0.6614173228346457
          },
          {
            "number": 2,
            "time": 181.77099380001098,
            "value": 0.6614173228346457
          },
          {
            "number": 2,
            "time": 181.77263853334432,
            "value": 0.6535433070866141
          },
          {
            "number": 2,
            "time": 181.77428326667766,
            "value": 0.6535433070866141
          },
          {
            "number": 2,
            "time": 181.973296000011,
            "value": 0.6535433070866141
          },
          {
            "number": 2,
            "time": 182.269348000011,
            "value": 0.6614173228346457
          },
          {
            "number": 2,
            "time": 182.762768000011,
            "value": 0.6614173228346457
          },
          {
            "number": 2,
            "time": 182.836781000011,
            "value": 0.6692913385826772
          },
          {
            "number": 2,
            "time": 183.157504000011,
            "value": 1
          },
          {
            "number": 2,
            "time": 183.15914873334432,
            "value": 1
          },
          {
            "number": 2,
            "time": 183.16079346667766,
            "value": 0.9921259842519685
          },
          {
            "number": 2,
            "time": 183.162438200011,
            "value": 0.9921259842519685
          },
          {
            "number": 2,
            "time": 183.16408293334433,
            "value": 0.9921259842519685
          },
          {
            "number": 2,
            "time": 183.16572766667767,
            "value": 0.984251968503937
          },
          {
            "number": 2,
            "time": 183.167372400011,
            "value": 0.984251968503937
          },
          {
            "number": 2,
            "time": 183.16901713334434,
            "value": 0.984251968503937
          },
          {
            "number": 2,
            "time": 183.17066186667768,
            "value": 0.9763779527559056
          },
          {
            "number": 2,
            "time": 183.172306600011,
            "value": 0.9763779527559056
          },
          {
            "number": 2,
            "time": 183.17395133334435,
            "value": 0.968503937007874
          },
          {
            "number": 2,
            "time": 183.17559606667768,
            "value": 0.968503937007874
          },
          {
            "number": 2,
            "time": 183.17724080001102,
            "value": 0.968503937007874
          },
          {
            "number": 2,
            "time": 183.17888553334436,
            "value": 0.9606299212598425
          },
          {
            "number": 2,
            "time": 183.1805302666777,
            "value": 0.9606299212598425
          },
          {
            "number": 2,
            "time": 183.18217500001103,
            "value": 0.9606299212598425
          },
          {
            "number": 2,
            "time": 183.18381973334436,
            "value": 0.952755905511811
          },
          {
            "number": 2,
            "time": 183.1854644666777,
            "value": 0.952755905511811
          },
          {
            "number": 2,
            "time": 183.18710920001104,
            "value": 0.952755905511811
          },
          {
            "number": 2,
            "time": 183.18875393334437,
            "value": 0.9448818897637795
          },
          {
            "number": 2,
            "time": 183.1903986666777,
            "value": 0.9448818897637795
          },
          {
            "number": 2,
            "time": 183.19204340001104,
            "value": 0.9448818897637795
          },
          {
            "number": 2,
            "time": 183.19368813334438,
            "value": 0.937007874015748
          },
          {
            "number": 2,
            "time": 183.19533286667772,
            "value": 0.937007874015748
          },
          {
            "number": 2,
            "time": 183.19697760001105,
            "value": 0.9291338582677166
          },
          {
            "number": 2,
            "time": 183.1986223333444,
            "value": 0.9291338582677166
          },
          {
            "number": 2,
            "time": 183.20026706667772,
            "value": 0.9291338582677166
          },
          {
            "number": 2,
            "time": 183.20191180001106,
            "value": 0.9212598425196851
          },
          {
            "number": 2,
            "time": 183.2035565333444,
            "value": 0.9212598425196851
          },
          {
            "number": 2,
            "time": 183.20520126667773,
            "value": 0.9212598425196851
          },
          {
            "number": 2,
            "time": 183.20684600001107,
            "value": 0.9133858267716536
          },
          {
            "number": 2,
            "time": 183.2084907333444,
            "value": 0.9133858267716536
          },
          {
            "number": 2,
            "time": 183.21013546667774,
            "value": 0.9133858267716536
          },
          {
            "number": 2,
            "time": 183.21178020001108,
            "value": 0.905511811023622
          },
          {
            "number": 2,
            "time": 183.2134249333444,
            "value": 0.905511811023622
          },
          {
            "number": 2,
            "time": 183.21506966667775,
            "value": 0.905511811023622
          },
          {
            "number": 2,
            "time": 183.21671440001109,
            "value": 0.8976377952755905
          },
          {
            "number": 2,
            "time": 183.21835913334442,
            "value": 0.8976377952755905
          },
          {
            "number": 2,
            "time": 183.22000386667776,
            "value": 0.8976377952755905
          },
          {
            "number": 2,
            "time": 183.2216486000111,
            "value": 0.889763779527559
          },
          {
            "number": 2,
            "time": 183.22329333334443,
            "value": 0.889763779527559
          },
          {
            "number": 2,
            "time": 183.22493806667777,
            "value": 0.8818897637795275
          },
          {
            "number": 2,
            "time": 183.2265828000111,
            "value": 0.8818897637795275
          },
          {
            "number": 2,
            "time": 183.22822753334444,
            "value": 0.8818897637795275
          },
          {
            "number": 2,
            "time": 183.22987226667777,
            "value": 0.8740157480314961
          },
          {
            "number": 2,
            "time": 183.2315170000111,
            "value": 0.8740157480314961
          },
          {
            "number": 2,
            "time": 183.23316173334445,
            "value": 0.8740157480314961
          },
          {
            "number": 2,
            "time": 183.23480646667778,
            "value": 0.8661417322834646
          },
          {
            "number": 2,
            "time": 183.23645120001112,
            "value": 0.8661417322834646
          },
          {
            "number": 2,
            "time": 183.23809593334445,
            "value": 0.8661417322834646
          },
          {
            "number": 2,
            "time": 183.2397406666778,
            "value": 0.8582677165354331
          },
          {
            "number": 2,
            "time": 183.24138540001113,
            "value": 0.8582677165354331
          },
          {
            "number": 2,
            "time": 183.24303013334446,
            "value": 0.8582677165354331
          },
          {
            "number": 2,
            "time": 183.2446748666778,
            "value": 0.8503937007874016
          },
          {
            "number": 2,
            "time": 183.24631960001113,
            "value": 0.8503937007874016
          },
          {
            "number": 2,
            "time": 183.24796433334447,
            "value": 0.8503937007874016
          },
          {
            "number": 2,
            "time": 183.2496090666778,
            "value": 0.84251968503937
          },
          {
            "number": 2,
            "time": 183.25125380001114,
            "value": 0.84251968503937
          },
          {
            "number": 2,
            "time": 183.25289853334448,
            "value": 0.8346456692913385
          },
          {
            "number": 2,
            "time": 183.2545432666778,
            "value": 0.8346456692913385
          },
          {
            "number": 2,
            "time": 183.25618800001115,
            "value": 0.8346456692913385
          },
          {
            "number": 2,
            "time": 183.2578327333445,
            "value": 0.8267716535433071
          },
          {
            "number": 2,
            "time": 183.25947746667782,
            "value": 0.8267716535433071
          },
          {
            "number": 2,
            "time": 183.26112220001116,
            "value": 0.8267716535433071
          },
          {
            "number": 2,
            "time": 183.2627669333445,
            "value": 0.8188976377952756
          },
          {
            "number": 2,
            "time": 183.26441166667783,
            "value": 0.8188976377952756
          },
          {
            "number": 2,
            "time": 183.26605640001117,
            "value": 0.8188976377952756
          },
          {
            "number": 2,
            "time": 183.2677011333445,
            "value": 0.8110236220472441
          },
          {
            "number": 2,
            "time": 183.26934586667784,
            "value": 0.8110236220472441
          },
          {
            "number": 2,
            "time": 183.27099060001117,
            "value": 0.8110236220472441
          },
          {
            "number": 2,
            "time": 183.2726353333445,
            "value": 0.8031496062992126
          },
          {
            "number": 2,
            "time": 183.27428006667785,
            "value": 0.8031496062992126
          },
          {
            "number": 2,
            "time": 183.27592480001118,
            "value": 0.8031496062992126
          },
          {
            "number": 2,
            "time": 183.27756953334452,
            "value": 0.7952755905511811
          },
          {
            "number": 2,
            "time": 183.27921426667785,
            "value": 0.7952755905511811
          },
          {
            "number": 2,
            "time": 183.2808590000112,
            "value": 0.7874015748031497
          },
          {
            "number": 2,
            "time": 183.28250373334453,
            "value": 0.7874015748031497
          },
          {
            "number": 2,
            "time": 183.28414846667786,
            "value": 0.7874015748031497
          },
          {
            "number": 2,
            "time": 183.2857932000112,
            "value": 0.7795275590551181
          },
          {
            "number": 2,
            "time": 183.28743793334453,
            "value": 0.7795275590551181
          },
          {
            "number": 2,
            "time": 183.28908266667787,
            "value": 0.7795275590551181
          },
          {
            "number": 2,
            "time": 183.2907274000112,
            "value": 0.7716535433070866
          },
          {
            "number": 2,
            "time": 183.29237213334454,
            "value": 0.7716535433070866
          },
          {
            "number": 2,
            "time": 183.29401686667788,
            "value": 0.7716535433070866
          },
          {
            "number": 2,
            "time": 183.29566160001121,
            "value": 0.7637795275590551
          },
          {
            "number": 2,
            "time": 183.29730633334455,
            "value": 0.7637795275590551
          },
          {
            "number": 2,
            "time": 183.2989510666779,
            "value": 0.7637795275590551
          },
          {
            "number": 2,
            "time": 183.30059580001122,
            "value": 0.7559055118110236
          },
          {
            "number": 2,
            "time": 183.30224053334456,
            "value": 0.7559055118110236
          },
          {
            "number": 2,
            "time": 183.3038852666779,
            "value": 0.7480314960629921
          },
          {
            "number": 2,
            "time": 183.30553000001123,
            "value": 0.7480314960629921
          },
          {
            "number": 2,
            "time": 183.30717473334457,
            "value": 0.7480314960629921
          },
          {
            "number": 2,
            "time": 183.3088194666779,
            "value": 0.7401574803149606
          },
          {
            "number": 2,
            "time": 183.31046420001124,
            "value": 0.7401574803149606
          },
          {
            "number": 2,
            "time": 183.31210893334458,
            "value": 0.7401574803149606
          },
          {
            "number": 2,
            "time": 183.3137536666779,
            "value": 0.7322834645669292
          },
          {
            "number": 2,
            "time": 183.31539840001125,
            "value": 0.7322834645669292
          },
          {
            "number": 2,
            "time": 183.31704313334458,
            "value": 0.7322834645669292
          },
          {
            "number": 2,
            "time": 183.31868786667792,
            "value": 0.7244094488188977
          },
          {
            "number": 2,
            "time": 183.32033260001126,
            "value": 0.7244094488188977
          },
          {
            "number": 2,
            "time": 183.3219773333446,
            "value": 0.7244094488188977
          },
          {
            "number": 2,
            "time": 183.32362206667793,
            "value": 0.7165354330708661
          },
          {
            "number": 2,
            "time": 183.32526680001126,
            "value": 0.7165354330708661
          },
          {
            "number": 2,
            "time": 183.3269115333446,
            "value": 0.7165354330708661
          },
          {
            "number": 2,
            "time": 183.32855626667794,
            "value": 0.7086614173228346
          },
          {
            "number": 2,
            "time": 183.33020100001127,
            "value": 0.7086614173228346
          },
          {
            "number": 2,
            "time": 183.3318457333446,
            "value": 0.7007874015748031
          },
          {
            "number": 2,
            "time": 183.33349046667794,
            "value": 0.7007874015748031
          },
          {
            "number": 2,
            "time": 183.33513520001128,
            "value": 0.7007874015748031
          },
          {
            "number": 2,
            "time": 183.33677993334462,
            "value": 0.6929133858267716
          },
          {
            "number": 2,
            "time": 183.33842466667795,
            "value": 0.6929133858267716
          },
          {
            "number": 2,
            "time": 183.3400694000113,
            "value": 0.6929133858267716
          },
          {
            "number": 2,
            "time": 183.34171413334462,
            "value": 0.6850393700787402
          },
          {
            "number": 2,
            "time": 183.34335886667796,
            "value": 0.6850393700787402
          },
          {
            "number": 2,
            "time": 183.3450036000113,
            "value": 0.6850393700787402
          },
          {
            "number": 2,
            "time": 183.34664833334463,
            "value": 0.6771653543307087
          },
          {
            "number": 2,
            "time": 183.34829306667797,
            "value": 0.6771653543307087
          },
          {
            "number": 2,
            "time": 183.3499378000113,
            "value": 0.6771653543307087
          },
          {
            "number": 2,
            "time": 183.35158253334464,
            "value": 0.6692913385826772
          },
          {
            "number": 2,
            "time": 183.35322726667798,
            "value": 0.6692913385826772
          },
          {
            "number": 2,
            "time": 183.4042140000113,
            "value": 0.6771653543307087
          },
          {
            "number": 2,
            "time": 183.55224000001132,
            "value": 0.6771653543307087
          },
          {
            "number": 2,
            "time": 183.97164700001133,
            "value": 0.6850393700787402
          },
          {
            "number": 2,
            "time": 184.34171200001134,
            "value": 0.6850393700787402
          },
          {
            "number": 2,
            "time": 184.53908000001135,
            "value": 0.6929133858267716
          },
          {
            "number": 2,
            "time": 184.73644800001136,
            "value": 1
          },
          {
            "number": 2,
            "time": 184.7380927333447,
            "value": 1
          },
          {
            "number": 2,
            "time": 184.73973746667804,
            "value": 1
          },
          {
            "number": 2,
            "time": 184.74138220001137,
            "value": 1
          },
          {
            "number": 2,
            "time": 184.7430269333447,
            "value": 1
          },
          {
            "number": 2,
            "time": 184.74467166667804,
            "value": 1
          },
          {
            "number": 2,
            "time": 184.74631640001138,
            "value": 1
          },
          {
            "number": 2,
            "time": 184.74796113334472,
            "value": 1
          },
          {
            "number": 2,
            "time": 184.74960586667805,
            "value": 1
          },
          {
            "number": 2,
            "time": 184.7512506000114,
            "value": 1
          },
          {
            "number": 2,
            "time": 184.75289533334472,
            "value": 1
          },
          {
            "number": 2,
            "time": 184.75454006667806,
            "value": 1
          },
          {
            "number": 2,
            "time": 184.7561848000114,
            "value": 1
          },
          {
            "number": 2,
            "time": 184.75782953334473,
            "value": 1
          },
          {
            "number": 2,
            "time": 184.75947426667807,
            "value": 0.9921259842519685
          },
          {
            "number": 2,
            "time": 184.7611190000114,
            "value": 0.9921259842519685
          },
          {
            "number": 2,
            "time": 184.76276373334474,
            "value": 0.9921259842519685
          },
          {
            "number": 2,
            "time": 184.76440846667808,
            "value": 0.984251968503937
          },
          {
            "number": 2,
            "time": 184.7660532000114,
            "value": 0.984251968503937
          },
          {
            "number": 2,
            "time": 184.76769793334475,
            "value": 0.984251968503937
          },
          {
            "number": 2,
            "time": 184.76934266667809,
            "value": 0.9763779527559056
          },
          {
            "number": 2,
            "time": 184.77098740001142,
            "value": 0.9763779527559056
          },
          {
            "number": 2,
            "time": 184.77263213334476,
            "value": 0.968503937007874
          },
          {
            "number": 2,
            "time": 184.7742768666781,
            "value": 0.968503937007874
          },
          {
            "number": 2,
            "time": 184.77592160001143,
            "value": 0.968503937007874
          },
          {
            "number": 2,
            "time": 184.77756633334477,
            "value": 0.9606299212598425
          },
          {
            "number": 2,
            "time": 184.7792110666781,
            "value": 0.9606299212598425
          },
          {
            "number": 2,
            "time": 184.78085580001144,
            "value": 0.9606299212598425
          },
          {
            "number": 2,
            "time": 184.78250053334477,
            "value": 0.952755905511811
          },
          {
            "number": 2,
            "time": 184.7841452666781,
            "value": 0.952755905511811
          },
          {
            "number": 2,
            "time": 184.78579000001145,
            "value": 0.952755905511811
          },
          {
            "number": 2,
            "time": 184.78743473334478,
            "value": 0.9448818897637795
          },
          {
            "number": 2,
            "time": 184.78907946667812,
            "value": 0.9448818897637795
          },
          {
            "number": 2,
            "time": 184.79072420001145,
            "value": 0.937007874015748
          },
          {
            "number": 2,
            "time": 184.7923689333448,
            "value": 0.937007874015748
          },
          {
            "number": 2,
            "time": 184.79401366667813,
            "value": 0.937007874015748
          },
          {
            "number": 2,
            "time": 184.79565840001146,
            "value": 0.9291338582677166
          },
          {
            "number": 2,
            "time": 184.7973031333448,
            "value": 0.9291338582677166
          },
          {
            "number": 2,
            "time": 184.79894786667813,
            "value": 0.9291338582677166
          },
          {
            "number": 2,
            "time": 184.80059260001147,
            "value": 0.9212598425196851
          },
          {
            "number": 2,
            "time": 184.8022373333448,
            "value": 0.9212598425196851
          },
          {
            "number": 2,
            "time": 184.80388206667814,
            "value": 0.9133858267716536
          },
          {
            "number": 2,
            "time": 184.80552680001148,
            "value": 0.9133858267716536
          },
          {
            "number": 2,
            "time": 184.8071715333448,
            "value": 0.9133858267716536
          },
          {
            "number": 2,
            "time": 184.80881626667815,
            "value": 0.905511811023622
          },
          {
            "number": 2,
            "time": 184.8104610000115,
            "value": 0.905511811023622
          },
          {
            "number": 2,
            "time": 184.81210573334482,
            "value": 0.905511811023622
          },
          {
            "number": 2,
            "time": 184.81375046667816,
            "value": 0.8976377952755905
          },
          {
            "number": 2,
            "time": 184.8153952000115,
            "value": 0.8976377952755905
          },
          {
            "number": 2,
            "time": 184.81703993334483,
            "value": 0.8976377952755905
          },
          {
            "number": 2,
            "time": 184.81868466667817,
            "value": 0.889763779527559
          },
          {
            "number": 2,
            "time": 184.8203294000115,
            "value": 0.889763779527559
          },
          {
            "number": 2,
            "time": 184.82197413334484,
            "value": 0.8818897637795275
          },
          {
            "number": 2,
            "time": 184.82361886667817,
            "value": 0.8818897637795275
          },
          {
            "number": 2,
            "time": 184.8252636000115,
            "value": 0.8818897637795275
          },
          {
            "number": 2,
            "time": 184.82690833334485,
            "value": 0.8740157480314961
          },
          {
            "number": 2,
            "time": 184.82855306667818,
            "value": 0.8740157480314961
          },
          {
            "number": 2,
            "time": 184.83019780001152,
            "value": 0.8740157480314961
          },
          {
            "number": 2,
            "time": 184.83184253334485,
            "value": 0.8661417322834646
          },
          {
            "number": 2,
            "time": 184.8334872666782,
            "value": 0.8661417322834646
          },
          {
            "number": 2,
            "time": 184.83513200001153,
            "value": 0.8661417322834646
          },
          {
            "number": 2,
            "time": 184.83677673334486,
            "value": 0.8582677165354331
          },
          {
            "number": 2,
            "time": 184.8384214666782,
            "value": 0.8582677165354331
          },
          {
            "number": 2,
            "time": 184.84006620001153,
            "value": 0.8503937007874016
          },
          {
            "number": 2,
            "time": 184.84171093334487,
            "value": 0.8503937007874016
          },
          {
            "number": 2,
            "time": 184.8433556666782,
            "value": 0.8503937007874016
          },
          {
            "number": 2,
            "time": 184.84500040001154,
            "value": 0.84251968503937
          },
          {
            "number": 2,
            "time": 184.84664513334488,
            "value": 0.84251968503937
          },
          {
            "number": 2,
            "time": 184.84828986667821,
            "value": 0.84251968503937
          },
          {
            "number": 2,
            "time": 184.84993460001155,
            "value": 0.8346456692913385
          },
          {
            "number": 2,
            "time": 184.8515793333449,
            "value": 0.8346456692913385
          },
          {
            "number": 2,
            "time": 184.85322406667822,
            "value": 0.8267716535433071
          },
          {
            "number": 2,
            "time": 184.85486880001156,
            "value": 0.8267716535433071
          },
          {
            "number": 2,
            "time": 184.8565135333449,
            "value": 0.8267716535433071
          },
          {
            "number": 2,
            "time": 184.85815826667823,
            "value": 0.8188976377952756
          },
          {
            "number": 2,
            "time": 184.85980300001157,
            "value": 0.8188976377952756
          },
          {
            "number": 2,
            "time": 184.8614477333449,
            "value": 0.8188976377952756
          },
          {
            "number": 2,
            "time": 184.86309246667824,
            "value": 0.8110236220472441
          },
          {
            "number": 2,
            "time": 184.86473720001158,
            "value": 0.8110236220472441
          },
          {
            "number": 2,
            "time": 184.8663819333449,
            "value": 0.8110236220472441
          },
          {
            "number": 2,
            "time": 184.86802666667825,
            "value": 0.8031496062992126
          },
          {
            "number": 2,
            "time": 184.86967140001158,
            "value": 0.8031496062992126
          },
          {
            "number": 2,
            "time": 184.87131613334492,
            "value": 0.7952755905511811
          },
          {
            "number": 2,
            "time": 184.87296086667826,
            "value": 0.7952755905511811
          },
          {
            "number": 2,
            "time": 184.8746056000116,
            "value": 0.7952755905511811
          },
          {
            "number": 2,
            "time": 184.87625033334493,
            "value": 0.7874015748031497
          },
          {
            "number": 2,
            "time": 184.87789506667826,
            "value": 0.7874015748031497
          },
          {
            "number": 2,
            "time": 184.8795398000116,
            "value": 0.7874015748031497
          },
          {
            "number": 2,
            "time": 184.88118453334494,
            "value": 0.7795275590551181
          },
          {
            "number": 2,
            "time": 184.88282926667827,
            "value": 0.7795275590551181
          },
          {
            "number": 2,
            "time": 184.8844740000116,
            "value": 0.7795275590551181
          },
          {
            "number": 2,
            "time": 184.88611873334494,
            "value": 0.7716535433070866
          },
          {
            "number": 2,
            "time": 184.88776346667828,
            "value": 0.7716535433070866
          },
          {
            "number": 2,
            "time": 184.88940820001162,
            "value": 0.7637795275590551
          },
          {
            "number": 2,
            "time": 184.89105293334495,
            "value": 0.7637795275590551
          },
          {
            "number": 2,
            "time": 184.8926976666783,
            "value": 0.7637795275590551
          },
          {
            "number": 2,
            "time": 184.89434240001162,
            "value": 0.7559055118110236
          },
          {
            "number": 2,
            "time": 184.89598713334496,
            "value": 0.7559055118110236
          },
          {
            "number": 2,
            "time": 184.8976318666783,
            "value": 0.7559055118110236
          },
          {
            "number": 2,
            "time": 184.89927660001163,
            "value": 0.7480314960629921
          },
          {
            "number": 2,
            "time": 184.90092133334497,
            "value": 0.7480314960629921
          },
          {
            "number": 2,
            "time": 184.9025660666783,
            "value": 0.7401574803149606
          },
          {
            "number": 2,
            "time": 184.90421080001164,
            "value": 0.7401574803149606
          },
          {
            "number": 2,
            "time": 184.90585553334498,
            "value": 0.7401574803149606
          },
          {
            "number": 2,
            "time": 184.9075002666783,
            "value": 0.7322834645669292
          },
          {
            "number": 2,
            "time": 184.90914500001165,
            "value": 0.7322834645669292
          },
          {
            "number": 2,
            "time": 184.91078973334498,
            "value": 0.7322834645669292
          },
          {
            "number": 2,
            "time": 184.91243446667832,
            "value": 0.7244094488188977
          },
          {
            "number": 2,
            "time": 184.91407920001166,
            "value": 0.7244094488188977
          },
          {
            "number": 2,
            "time": 184.915723933345,
            "value": 0.7244094488188977
          },
          {
            "number": 2,
            "time": 184.91736866667833,
            "value": 0.7165354330708661
          },
          {
            "number": 2,
            "time": 184.91901340001166,
            "value": 0.7165354330708661
          },
          {
            "number": 2,
            "time": 184.920658133345,
            "value": 0.7086614173228346
          },
          {
            "number": 2,
            "time": 184.92230286667834,
            "value": 0.7086614173228346
          },
          {
            "number": 2,
            "time": 184.92394760001167,
            "value": 0.7086614173228346
          },
          {
            "number": 2,
            "time": 184.925592333345,
            "value": 0.7007874015748031
          },
          {
            "number": 2,
            "time": 184.92723706667834,
            "value": 0.7007874015748031
          },
          {
            "number": 2,
            "time": 184.92888180001168,
            "value": 0.7007874015748031
          },
          {
            "number": 2,
            "time": 184.93052653334502,
            "value": 0.6929133858267716
          },
          {
            "number": 2,
            "time": 184.93217126667835,
            "value": 0.6929133858267716
          },
          {
            "number": 2,
            "time": 185.1065130000117,
            "value": 0.7007874015748031
          },
          {
            "number": 2,
            "time": 185.1311840000117,
            "value": 0.7007874015748031
          },
          {
            "number": 2,
            "time": 185.6739460000117,
            "value": 0.7086614173228346
          },
          {
            "number": 2,
            "time": 185.92065600001172,
            "value": 0.7086614173228346
          },
          {
            "number": 2,
            "time": 186.24137900001173,
            "value": 0.7165354330708661
          },
          {
            "number": 2,
            "time": 186.31539200001174,
            "value": 1
          },
          {
            "number": 2,
            "time": 186.31703673334508,
            "value": 1
          },
          {
            "number": 2,
            "time": 186.3186814666784,
            "value": 1
          },
          {
            "number": 2,
            "time": 186.32032620001175,
            "value": 1
          },
          {
            "number": 2,
            "time": 186.32197093334509,
            "value": 1
          },
          {
            "number": 2,
            "time": 186.32361566667842,
            "value": 1
          },
          {
            "number": 2,
            "time": 186.32526040001176,
            "value": 1
          },
          {
            "number": 2,
            "time": 186.3269051333451,
            "value": 1
          },
          {
            "number": 2,
            "time": 186.32854986667843,
            "value": 1
          },
          {
            "number": 2,
            "time": 186.33019460001177,
            "value": 1
          },
          {
            "number": 2,
            "time": 186.3318393333451,
            "value": 1
          },
          {
            "number": 2,
            "time": 186.33348406667844,
            "value": 1
          },
          {
            "number": 2,
            "time": 186.33512880001177,
            "value": 1
          },
          {
            "number": 2,
            "time": 186.3367735333451,
            "value": 1
          },
          {
            "number": 2,
            "time": 186.33841826667845,
            "value": 1
          },
          {
            "number": 2,
            "time": 186.34006300001178,
            "value": 1
          },
          {
            "number": 2,
            "time": 186.34170773334512,
            "value": 1
          },
          {
            "number": 2,
            "time": 186.34335246667845,
            "value": 1
          },
          {
            "number": 2,
            "time": 186.3449972000118,
            "value": 1
          },
          {
            "number": 2,
            "time": 186.34664193334513,
            "value": 1
          },
          {
            "number": 2,
            "time": 186.34828666667846,
            "value": 1
          },
          {
            "number": 2,
            "time": 186.3499314000118,
            "value": 1
          },
          {
            "number": 2,
            "time": 186.35157613334513,
            "value": 1
          },
          {
            "number": 2,
            "time": 186.35322086667847,
            "value": 1
          },
          {
            "number": 2,
            "time": 186.3548656000118,
            "value": 1
          },
          {
            "number": 2,
            "time": 186.35651033334514,
            "value": 1
          },
          {
            "number": 2,
            "time": 186.35815506667848,
            "value": 0.9921259842519685
          },
          {
            "number": 2,
            "time": 186.3597998000118,
            "value": 0.9921259842519685
          },
          {
            "number": 2,
            "time": 186.36144453334515,
            "value": 0.984251968503937
          },
          {
            "number": 2,
            "time": 186.3630892666785,
            "value": 0.984251968503937
          },
          {
            "number": 2,
            "time": 186.36473400001182,
            "value": 0.984251968503937
          },
          {
            "number": 2,
            "time": 186.36637873334516,
            "value": 0.9763779527559056
          },
          {
            "number": 2,
            "time": 186.3680234666785,
            "value": 0.9763779527559056
          },
          {
            "number": 2,
            "time": 186.36966820001183,
            "value": 0.968503937007874
          },
          {
            "number": 2,
            "time": 186.37131293334517,
            "value": 0.968503937007874
          },
          {
            "number": 2,
            "time": 186.3729576666785,
            "value": 0.968503937007874
          },
          {
            "number": 2,
            "time": 186.37460240001184,
            "value": 0.9606299212598425
          },
          {
            "number": 2,
            "time": 186.37624713334517,
            "value": 0.9606299212598425
          },
          {
            "number": 2,
            "time": 186.3778918666785,
            "value": 0.9606299212598425
          },
          {
            "number": 2,
            "time": 186.37953660001185,
            "value": 0.952755905511811
          },
          {
            "number": 2,
            "time": 186.38118133334518,
            "value": 0.952755905511811
          },
          {
            "number": 2,
            "time": 186.38282606667852,
            "value": 0.9448818897637795
          },
          {
            "number": 2,
            "time": 186.38447080001185,
            "value": 0.9448818897637795
          },
          {
            "number": 2,
            "time": 186.3861155333452,
            "value": 0.9448818897637795
          },
          {
            "number": 2,
            "time": 186.38776026667853,
            "value": 0.937007874015748
          },
          {
            "number": 2,
            "time": 186.38940500001186,
            "value": 0.937007874015748
          },
          {
            "number": 2,
            "time": 186.3910497333452,
            "value": 0.937007874015748
          },
          {
            "number": 2,
            "time": 186.39269446667853,
            "value": 0.9291338582677166
          },
          {
            "number": 2,
            "time": 186.39433920001187,
            "value": 0.9291338582677166
          },
          {
            "number": 2,
            "time": 186.3959839333452,
            "value": 0.9212598425196851
          },
          {
            "number": 2,
            "time": 186.39762866667854,
            "value": 0.9212598425196851
          },
          {
            "number": 2,
            "time": 186.39927340001188,
            "value": 0.9212598425196851
          },
          {
            "number": 2,
            "time": 186.40091813334521,
            "value": 0.9133858267716536
          },
          {
            "number": 2,
            "time": 186.40256286667855,
            "value": 0.9133858267716536
          },
          {
            "number": 2,
            "time": 186.4042076000119,
            "value": 0.9133858267716536
          },
          {
            "number": 2,
            "time": 186.40585233334522,
            "value": 0.905511811023622
          },
          {
            "number": 2,
            "time": 186.40749706667856,
            "value": 0.905511811023622
          },
          {
            "number": 2,
            "time": 186.4091418000119,
            "value": 0.8976377952755905
          },
          {
            "number": 2,
            "time": 186.41078653334523,
            "value": 0.8976377952755905
          },
          {
            "number": 2,
            "time": 186.41243126667857,
            "value": 0.8976377952755905
          },
          {
            "number": 2,
            "time": 186.4140760000119,
            "value": 0.889763779527559
          },
          {
            "number": 2,
            "time": 186.41572073334524,
            "value": 0.889763779527559
          },
          {
            "number": 2,
            "time": 186.41736546667858,
            "value": 0.8818897637795275
          },
          {
            "number": 2,
            "time": 186.4190102000119,
            "value": 0.8818897637795275
          },
          {
            "number": 2,
            "time": 186.42065493334525,
            "value": 0.8818897637795275
          },
          {
            "number": 2,
            "time": 186.42229966667858,
            "value": 0.8740157480314961
          },
          {
            "number": 2,
            "time": 186.42394440001192,
            "value": 0.8740157480314961
          },
          {
            "number": 2,
            "time": 186.42558913334526,
            "value": 0.8740157480314961
          },
          {
            "number": 2,
            "time": 186.4272338666786,
            "value": 0.8661417322834646
          },
          {
            "number": 2,
            "time": 186.42887860001193,
            "value": 0.8661417322834646
          },
          {
            "number": 2,
            "time": 186.43052333334526,
            "value": 0.8582677165354331
          },
          {
            "number": 2,
            "time": 186.4321680666786,
            "value": 0.8582677165354331
          },
          {
            "number": 2,
            "time": 186.43381280001194,
            "value": 0.8582677165354331
          },
          {
            "number": 2,
            "time": 186.43545753334527,
            "value": 0.8503937007874016
          },
          {
            "number": 2,
            "time": 186.4371022666786,
            "value": 0.8503937007874016
          },
          {
            "number": 2,
            "time": 186.43874700001194,
            "value": 0.8503937007874016
          },
          {
            "number": 2,
            "time": 186.44039173334528,
            "value": 0.84251968503937
          },
          {
            "number": 2,
            "time": 186.44203646667862,
            "value": 0.84251968503937
          },
          {
            "number": 2,
            "time": 186.44368120001195,
            "value": 0.8346456692913385
          },
          {
            "number": 2,
            "time": 186.4453259333453,
            "value": 0.8346456692913385
          },
          {
            "number": 2,
            "time": 186.44697066667862,
            "value": 0.8346456692913385
          },
          {
            "number": 2,
            "time": 186.44861540001196,
            "value": 0.8267716535433071
          },
          {
            "number": 2,
            "time": 186.4502601333453,
            "value": 0.8267716535433071
          },
          {
            "number": 2,
            "time": 186.45190486667863,
            "value": 0.8267716535433071
          },
          {
            "number": 2,
            "time": 186.45354960001197,
            "value": 0.8188976377952756
          },
          {
            "number": 2,
            "time": 186.4551943333453,
            "value": 0.8188976377952756
          },
          {
            "number": 2,
            "time": 186.45683906667864,
            "value": 0.8110236220472441
          },
          {
            "number": 2,
            "time": 186.45848380001198,
            "value": 0.8110236220472441
          },
          {
            "number": 2,
            "time": 186.4601285333453,
            "value": 0.8110236220472441
          },
          {
            "number": 2,
            "time": 186.46177326667865,
            "value": 0.8031496062992126
          },
          {
            "number": 2,
            "time": 186.46341800001198,
            "value": 0.8031496062992126
          },
          {
            "number": 2,
            "time": 186.46506273334532,
            "value": 0.7952755905511811
          },
          {
            "number": 2,
            "time": 186.46670746667866,
            "value": 0.7952755905511811
          },
          {
            "number": 2,
            "time": 186.468352200012,
            "value": 0.7952755905511811
          },
          {
            "number": 2,
            "time": 186.46999693334533,
            "value": 0.7874015748031497
          },
          {
            "number": 2,
            "time": 186.47164166667866,
            "value": 0.7874015748031497
          },
          {
            "number": 2,
            "time": 186.473286400012,
            "value": 0.7874015748031497
          },
          {
            "number": 2,
            "time": 186.47493113334534,
            "value": 0.7795275590551181
          },
          {
            "number": 2,
            "time": 186.47657586667867,
            "value": 0.7795275590551181
          },
          {
            "number": 2,
            "time": 186.478220600012,
            "value": 0.7716535433070866
          },
          {
            "number": 2,
            "time": 186.47986533334534,
            "value": 0.7716535433070866
          },
          {
            "number": 2,
            "time": 186.48151006667868,
            "value": 0.7716535433070866
          },
          {
            "number": 2,
            "time": 186.48315480001202,
            "value": 0.7637795275590551
          },
          {
            "number": 2,
            "time": 186.48479953334535,
            "value": 0.7637795275590551
          },
          {
            "number": 2,
            "time": 186.4864442666787,
            "value": 0.7637795275590551
          },
          {
            "number": 2,
            "time": 186.48808900001202,
            "value": 0.7559055118110236
          },
          {
            "number": 2,
            "time": 186.48973373334536,
            "value": 0.7559055118110236
          },
          {
            "number": 2,
            "time": 186.4913784666787,
            "value": 0.7480314960629921
          },
          {
            "number": 2,
            "time": 186.49302320001203,
            "value": 0.7480314960629921
          },
          {
            "number": 2,
            "time": 186.49466793334537,
            "value": 0.7480314960629921
          },
          {
            "number": 2,
            "time": 186.4963126666787,
            "value": 0.7401574803149606
          },
          {
            "number": 2,
            "time": 186.49795740001204,
            "value": 0.7401574803149606
          },
          {
            "number": 2,
            "time": 186.49960213334538,
            "value": 0.7401574803149606
          },
          {
            "number": 2,
            "time": 186.5012468666787,
            "value": 0.7322834645669292
          },
          {
            "number": 2,
            "time": 186.50289160001205,
            "value": 0.7322834645669292
          },
          {
            "number": 2,
            "time": 186.50453633334538,
            "value": 0.7244094488188977
          },
          {
            "number": 2,
            "time": 186.50618106667872,
            "value": 0.7244094488188977
          },
          {
            "number": 2,
            "time": 186.50782580001206,
            "value": 0.7244094488188977
          },
          {
            "number": 2,
            "time": 186.5094705333454,
            "value": 0.7165354330708661
          },
          {
            "number": 2,
            "time": 186.51111526667873,
            "value": 0.7165354330708661
          },
          {
            "number": 2,
            "time": 186.71012800001208,
            "value": 0.7165354330708661
          },
          {
            "number": 2,
            "time": 186.80881200001207,
            "value": 0.7244094488188977
          },
          {
            "number": 2,
            "time": 187.37624500001206,
            "value": 0.7322834645669292
          },
          {
            "number": 2,
            "time": 187.49960000001207,
            "value": 0.7322834645669292
          },
          {
            "number": 2,
            "time": 187.89433600001206,
            "value": 1
          },
          {
            "number": 2,
            "time": 187.8959807333454,
            "value": 1
          },
          {
            "number": 2,
            "time": 187.89762546667873,
            "value": 1
          },
          {
            "number": 2,
            "time": 187.89927020001207,
            "value": 1
          },
          {
            "number": 2,
            "time": 187.9009149333454,
            "value": 1
          },
          {
            "number": 2,
            "time": 187.90255966667874,
            "value": 1
          },
          {
            "number": 2,
            "time": 187.90420440001208,
            "value": 1
          },
          {
            "number": 2,
            "time": 187.9058491333454,
            "value": 1
          },
          {
            "number": 2,
            "time": 187.90749386667875,
            "value": 1
          },
          {
            "number": 2,
            "time": 187.90913860001208,
            "value": 1
          },
          {
            "number": 2,
            "time": 187.91078333334542,
            "value": 1
          },
          {
            "number": 2,
            "time": 187.91242806667876,
            "value": 1
          },
          {
            "number": 2,
            "time": 187.9140728000121,
            "value": 1
          },
          {
            "number": 2,
            "time": 187.91571753334543,
            "value": 1
          },
          {
            "number": 2,
            "time": 187.91736226667877,
            "value": 1
          },
          {
            "number": 2,
            "time": 187.9190070000121,
            "value": 1
          },
          {
            "number": 2,
            "time": 187.92065173334544,
            "value": 1
          },
          {
            "number": 2,
            "time": 187.92229646667877,
            "value": 1
          },
          {
            "number": 2,
            "time": 187.9239412000121,
            "value": 1
          },
          {
            "number": 2,
            "time": 187.92558593334545,
            "value": 1
          },
          {
            "number": 2,
            "time": 187.92723066667878,
            "value": 1
          },
          {
            "number": 2,
            "time": 187.92887540001212,
            "value": 1
          },
          {
            "number": 2,
            "time": 187.93052013334545,
            "value": 1
          },
          {
            "number": 2,
            "time": 187.9321648666788,
            "value": 1
          },
          {
            "number": 2,
            "time": 187.93380960001213,
            "value": 1
          },
          {
            "number": 2,
            "time": 187.93545433334546,
            "value": 1
          },
          {
            "number": 2,
            "time": 187.9370990666788,
            "value": 1
          },
          {
            "number": 2,
            "time": 187.93874380001213,
            "value": 1
          },
          {
            "number": 2,
            "time": 187.94038853334547,
            "value": 1
          },
          {
            "number": 2,
            "time": 187.9420332666788,
            "value": 1
          },
          {
            "number": 2,
            "time": 187.94367800001214,
            "value": 0.7401574803149606
          },
          {
            "number": 2,
            "time": 187.94367800001214,
            "value": 1
          },
          {
            "number": 2,
            "time": 187.94532273334548,
            "value": 1
          },
          {
            "number": 2,
            "time": 187.9469674666788,
            "value": 1
          },
          {
            "number": 2,
            "time": 187.94861220001215,
            "value": 1
          },
          {
            "number": 2,
            "time": 187.95025693334549,
            "value": 1
          },
          {
            "number": 2,
            "time": 187.95190166667882,
            "value": 1
          },
          {
            "number": 2,
            "time": 187.95354640001216,
            "value": 0.9921259842519685
          },
          {
            "number": 2,
            "time": 187.9551911333455,
            "value": 0.9921259842519685
          },
          {
            "number": 2,
            "time": 187.95683586667883,
            "value": 0.9921259842519685
          },
          {
            "number": 2,
            "time": 187.95848060001217,
            "value": 0.984251968503937
          },
          {
            "number": 2,
            "time": 187.9601253333455,
            "value": 0.984251968503937
          },
          {
            "number": 2,
            "time": 187.96177006667884,
            "value": 0.9763779527559056
          },
          {
            "number": 2,
            "time": 187.96341480001217,
            "value": 0.9763779527559056
          },
          {
            "number": 2,
            "time": 187.9650595333455,
            "value": 0.9763779527559056
          },
          {
            "number": 2,
            "time": 187.96670426667885,
            "value": 0.968503937007874
          },
          {
            "number": 2,
            "time": 187.96834900001218,
            "value": 0.968503937007874
          },
          {
            "number": 2,
            "time": 187.96999373334552,
            "value": 0.9606299212598425
          },
          {
            "number": 2,
            "time": 187.97163846667885,
            "value": 0.9606299212598425
          },
          {
            "number": 2,
            "time": 187.9732832000122,
            "value": 0.9606299212598425
          },
          {
            "number": 2,
            "time": 187.97492793334553,
            "value": 0.952755905511811
          },
          {
            "number": 2,
            "time": 187.97657266667886,
            "value": 0.952755905511811
          },
          {
            "number": 2,
            "time": 187.9782174000122,
            "value": 0.952755905511811
          },
          {
            "number": 2,
            "time": 187.97986213334553,
            "value": 0.9448818897637795
          },
          {
            "number": 2,
            "time": 187.98150686667887,
            "value": 0.9448818897637795
          },
          {
            "number": 2,
            "time": 187.9831516000122,
            "value": 0.937007874015748
          },
          {
            "number": 2,
            "time": 187.98479633334554,
            "value": 0.937007874015748
          },
          {
            "number": 2,
            "time": 187.98644106667888,
            "value": 0.937007874015748
          },
          {
            "number": 2,
            "time": 187.98808580001221,
            "value": 0.9291338582677166
          },
          {
            "number": 2,
            "time": 187.98973053334555,
            "value": 0.9291338582677166
          },
          {
            "number": 2,
            "time": 187.9913752666789,
            "value": 0.9212598425196851
          },
          {
            "number": 2,
            "time": 187.99302000001222,
            "value": 0.9212598425196851
          },
          {
            "number": 2,
            "time": 187.99466473334556,
            "value": 0.9212598425196851
          },
          {
            "number": 2,
            "time": 187.9963094666789,
            "value": 0.9133858267716536
          },
          {
            "number": 2,
            "time": 187.99795420001223,
            "value": 0.9133858267716536
          },
          {
            "number": 2,
            "time": 187.99959893334557,
            "value": 0.905511811023622
          },
          {
            "number": 2,
            "time": 188.0012436666789,
            "value": 0.905511811023622
          },
          {
            "number": 2,
            "time": 188.00288840001224,
            "value": 0.905511811023622
          },
          {
            "number": 2,
            "time": 188.00453313334557,
            "value": 0.8976377952755905
          },
          {
            "number": 2,
            "time": 188.0061778666789,
            "value": 0.8976377952755905
          },
          {
            "number": 2,
            "time": 188.00782260001225,
            "value": 0.889763779527559
          },
          {
            "number": 2,
            "time": 188.00946733334558,
            "value": 0.889763779527559
          },
          {
            "number": 2,
            "time": 188.01111206667892,
            "value": 0.889763779527559
          },
          {
            "number": 2,
            "time": 188.01275680001226,
            "value": 0.8818897637795275
          },
          {
            "number": 2,
            "time": 188.0144015333456,
            "value": 0.8818897637795275
          },
          {
            "number": 2,
            "time": 188.01604626667893,
            "value": 0.8818897637795275
          },
          {
            "number": 2,
            "time": 188.01769100001226,
            "value": 0.8740157480314961
          },
          {
            "number": 2,
            "time": 188.0193357333456,
            "value": 0.8740157480314961
          },
          {
            "number": 2,
            "time": 188.02098046667894,
            "value": 0.8661417322834646
          },
          {
            "number": 2,
            "time": 188.02262520001227,
            "value": 0.8661417322834646
          },
          {
            "number": 2,
            "time": 188.0242699333456,
            "value": 0.8661417322834646
          },
          {
            "number": 2,
            "time": 188.02591466667894,
            "value": 0.8582677165354331
          },
          {
            "number": 2,
            "time": 188.02755940001228,
            "value": 0.8582677165354331
          },
          {
            "number": 2,
            "time": 188.02920413334562,
            "value": 0.8503937007874016
          },
          {
            "number": 2,
            "time": 188.03084886667895,
            "value": 0.8503937007874016
          },
          {
            "number": 2,
            "time": 188.0324936000123,
            "value": 0.8503937007874016
          },
          {
            "number": 2,
            "time": 188.03413833334562,
            "value": 0.84251968503937
          },
          {
            "number": 2,
            "time": 188.03578306667896,
            "value": 0.84251968503937
          },
          {
            "number": 2,
            "time": 188.0374278000123,
            "value": 0.8346456692913385
          },
          {
            "number": 2,
            "time": 188.03907253334563,
            "value": 0.8346456692913385
          },
          {
            "number": 2,
            "time": 188.04071726667897,
            "value": 0.8346456692913385
          },
          {
            "number": 2,
            "time": 188.0423620000123,
            "value": 0.8267716535433071
          },
          {
            "number": 2,
            "time": 188.04400673334564,
            "value": 0.8267716535433071
          },
          {
            "number": 2,
            "time": 188.04565146667898,
            "value": 0.8188976377952756
          },
          {
            "number": 2,
            "time": 188.0472962000123,
            "value": 0.8188976377952756
          },
          {
            "number": 2,
            "time": 188.04894093334565,
            "value": 0.8188976377952756
          },
          {
            "number": 2,
            "time": 188.05058566667898,
            "value": 0.8110236220472441
          },
          {
            "number": 2,
            "time": 188.05223040001232,
            "value": 0.8110236220472441
          },
          {
            "number": 2,
            "time": 188.05387513334566,
            "value": 0.8110236220472441
          },
          {
            "number": 2,
            "time": 188.055519866679,
            "value": 0.8031496062992126
          },
          {
            "number": 2,
            "time": 188.05716460001233,
            "value": 0.8031496062992126
          },
          {
            "number": 2,
            "time": 188.05880933334566,
            "value": 0.7952755905511811
          },
          {
            "number": 2,
            "time": 188.060454066679,
            "value": 0.7952755905511811
          },
          {
            "number": 2,
            "time": 188.06209880001234,
            "value": 0.7952755905511811
          },
          {
            "number": 2,
            "time": 188.06374353334567,
            "value": 0.7874015748031497
          },
          {
            "number": 2,
            "time": 188.065388266679,
            "value": 0.7874015748031497
          },
          {
            "number": 2,
            "time": 188.06703300001234,
            "value": 0.7795275590551181
          },
          {
            "number": 2,
            "time": 188.06867773334568,
            "value": 0.7795275590551181
          },
          {
            "number": 2,
            "time": 188.07032246667902,
            "value": 0.7795275590551181
          },
          {
            "number": 2,
            "time": 188.07196720001235,
            "value": 0.7716535433070866
          },
          {
            "number": 2,
            "time": 188.0736119333457,
            "value": 0.7716535433070866
          },
          {
            "number": 2,
            "time": 188.07525666667902,
            "value": 0.7637795275590551
          },
          {
            "number": 2,
            "time": 188.07690140001236,
            "value": 0.7637795275590551
          },
          {
            "number": 2,
            "time": 188.0785461333457,
            "value": 0.7637795275590551
          },
          {
            "number": 2,
            "time": 188.08019086667903,
            "value": 0.7559055118110236
          },
          {
            "number": 2,
            "time": 188.08183560001237,
            "value": 0.7559055118110236
          },
          {
            "number": 2,
            "time": 188.0834803333457,
            "value": 0.7480314960629921
          },
          {
            "number": 2,
            "time": 188.08512506667904,
            "value": 0.7480314960629921
          },
          {
            "number": 2,
            "time": 188.08676980001238,
            "value": 0.7480314960629921
          },
          {
            "number": 2,
            "time": 188.0884145333457,
            "value": 0.7401574803149606
          },
          {
            "number": 2,
            "time": 188.09005926667905,
            "value": 0.7401574803149606
          },
          {
            "number": 2,
            "time": 188.2890720000124,
            "value": 0.7401574803149606
          },
          {
            "number": 2,
            "time": 188.5111110000124,
            "value": 0.7480314960629921
          },
          {
            "number": 2,
            "time": 189.07854400001239,
            "value": 0.7559055118110236
          },
          {
            "number": 2,
            "time": 189.47328000001238,
            "value": 0.7559055118110236
          },
          {
            "number": 2,
            "time": 189.47328000001238,
            "value": 1
          },
          {
            "number": 2,
            "time": 189.47492473334572,
            "value": 1
          },
          {
            "number": 2,
            "time": 189.47656946667905,
            "value": 1
          },
          {
            "number": 2,
            "time": 189.4782142000124,
            "value": 1
          },
          {
            "number": 2,
            "time": 189.47985893334572,
            "value": 1
          },
          {
            "number": 2,
            "time": 189.48150366667906,
            "value": 1
          },
          {
            "number": 2,
            "time": 189.4831484000124,
            "value": 1
          },
          {
            "number": 2,
            "time": 189.48479313334573,
            "value": 1
          },
          {
            "number": 2,
            "time": 189.48643786667907,
            "value": 1
          },
          {
            "number": 2,
            "time": 189.4880826000124,
            "value": 1
          },
          {
            "number": 2,
            "time": 189.48972733334574,
            "value": 1
          },
          {
            "number": 2,
            "time": 189.49137206667908,
            "value": 1
          },
          {
            "number": 2,
            "time": 189.4930168000124,
            "value": 1
          },
          {
            "number": 2,
            "time": 189.49466153334575,
            "value": 1
          },
          {
            "number": 2,
            "time": 189.49630626667908,
            "value": 1
          },
          {
            "number": 2,
            "time": 189.49795100001242,
            "value": 1
          },
          {
            "number": 2,
            "time": 189.49959573334576,
            "value": 1
          },
          {
            "number": 2,
            "time": 189.5012404666791,
            "value": 1
          },
          {
            "number": 2,
            "time": 189.50288520001243,
            "value": 1
          },
          {
            "number": 2,
            "time": 189.50452993334576,
            "value": 1
          },
          {
            "number": 2,
            "time": 189.5061746666791,
            "value": 1
          },
          {
            "number": 2,
            "time": 189.50781940001244,
            "value": 1
          },
          {
            "number": 2,
            "time": 189.50946413334577,
            "value": 1
          },
          {
            "number": 2,
            "time": 189.5111088666791,
            "value": 1
          },
          {
            "number": 2,
            "time": 189.51275360001245,
            "value": 1
          },
          {
            "number": 2,
            "time": 189.51439833334578,
            "value": 1
          },
          {
            "number": 2,
            "time": 189.51604306667912,
            "value": 1
          },
          {
            "number": 2,
            "time": 189.51768780001245,
            "value": 1
          },
          {
            "number": 2,
            "time": 189.5193325333458,
            "value": 1
          },
          {
            "number": 2,
            "time": 189.52097726667913,
            "value": 1
          },
          {
            "number": 2,
            "time": 189.52262200001246,
            "value": 1
          },
          {
            "number": 2,
            "time": 189.5242667333458,
            "value": 1
          },
          {
            "number": 2,
            "time": 189.52591146667913,
            "value": 1
          },
          {
            "number": 2,
            "time": 189.52755620001247,
            "value": 1
          },
          {
            "number": 2,
            "time": 189.5292009333458,
            "value": 1
          },
          {
            "number": 2,
            "time": 189.53084566667914,
            "value": 1
          },
          {
            "number": 2,
            "time": 189.53249040001248,
            "value": 1
          },
          {
            "number": 2,
            "time": 189.5341351333458,
            "value": 1
          },
          {
            "number": 2,
            "time": 189.53577986667915,
            "value": 1
          },
          {
            "number": 2,
            "time": 189.53742460001249,
            "value": 1
          },
          {
            "number": 2,
            "time": 189.53906933334582,
            "value": 1
          },
          {
            "number": 2,
            "time": 189.54071406667916,
            "value": 1
          },
          {
            "number": 2,
            "time": 189.5423588000125,
            "value": 1
          },
          {
            "number": 2,
            "time": 189.54400353334583,
            "value": 0.9921259842519685
          },
          {
            "number": 2,
            "time": 189.54564826667917,
            "value": 0.9921259842519685
          },
          {
            "number": 2,
            "time": 189.5472930000125,
            "value": 0.9921259842519685
          },
          {
            "number": 2,
            "time": 189.54893773334584,
            "value": 0.984251968503937
          },
          {
            "number": 2,
            "time": 189.55058246667917,
            "value": 0.984251968503937
          },
          {
            "number": 2,
            "time": 189.5522272000125,
            "value": 0.9763779527559056
          },
          {
            "number": 2,
            "time": 189.55387193334585,
            "value": 0.9763779527559056
          },
          {
            "number": 2,
            "time": 189.55551666667918,
            "value": 0.9763779527559056
          },
          {
            "number": 2,
            "time": 189.55716140001252,
            "value": 0.968503937007874
          },
          {
            "number": 2,
            "time": 189.55880613334585,
            "value": 0.968503937007874
          },
          {
            "number": 2,
            "time": 189.5604508666792,
            "value": 0.9606299212598425
          },
          {
            "number": 2,
            "time": 189.56209560001253,
            "value": 0.9606299212598425
          },
          {
            "number": 2,
            "time": 189.56374033334586,
            "value": 0.9606299212598425
          },
          {
            "number": 2,
            "time": 189.5653850666792,
            "value": 0.952755905511811
          },
          {
            "number": 2,
            "time": 189.56702980001253,
            "value": 0.952755905511811
          },
          {
            "number": 2,
            "time": 189.56867453334587,
            "value": 0.9448818897637795
          },
          {
            "number": 2,
            "time": 189.5703192666792,
            "value": 0.9448818897637795
          },
          {
            "number": 2,
            "time": 189.57196400001254,
            "value": 0.9448818897637795
          },
          {
            "number": 2,
            "time": 189.57360873334588,
            "value": 0.937007874015748
          },
          {
            "number": 2,
            "time": 189.57525346667921,
            "value": 0.937007874015748
          },
          {
            "number": 2,
            "time": 189.57689820001255,
            "value": 0.9291338582677166
          },
          {
            "number": 2,
            "time": 189.5785429333459,
            "value": 0.9291338582677166
          },
          {
            "number": 2,
            "time": 189.58018766667922,
            "value": 0.9291338582677166
          },
          {
            "number": 2,
            "time": 189.58183240001256,
            "value": 0.9212598425196851
          },
          {
            "number": 2,
            "time": 189.5834771333459,
            "value": 0.9212598425196851
          },
          {
            "number": 2,
            "time": 189.58512186667923,
            "value": 0.9133858267716536
          },
          {
            "number": 2,
            "time": 189.58676660001257,
            "value": 0.9133858267716536
          },
          {
            "number": 2,
            "time": 189.5884113333459,
            "value": 0.9133858267716536
          },
          {
            "number": 2,
            "time": 189.59005606667924,
            "value": 0.905511811023622
          },
          {
            "number": 2,
            "time": 189.59170080001257,
            "value": 0.905511811023622
          },
          {
            "number": 2,
            "time": 189.5933455333459,
            "value": 0.8976377952755905
          },
          {
            "number": 2,
            "time": 189.59499026667925,
            "value": 0.8976377952755905
          },
          {
            "number": 2,
            "time": 189.59663500001258,
            "value": 0.8976377952755905
          },
          {
            "number": 2,
            "time": 189.59827973334592,
            "value": 0.889763779527559
          },
          {
            "number": 2,
            "time": 189.59992446667925,
            "value": 0.889763779527559
          },
          {
            "number": 2,
            "time": 189.6015692000126,
            "value": 0.8818897637795275
          },
          {
            "number": 2,
            "time": 189.60321393334593,
            "value": 0.8818897637795275
          },
          {
            "number": 2,
            "time": 189.60485866667926,
            "value": 0.8818897637795275
          },
          {
            "number": 2,
            "time": 189.6065034000126,
            "value": 0.8740157480314961
          },
          {
            "number": 2,
            "time": 189.60814813334594,
            "value": 0.8740157480314961
          },
          {
            "number": 2,
            "time": 189.60979286667927,
            "value": 0.8661417322834646
          },
          {
            "number": 2,
            "time": 189.6114376000126,
            "value": 0.8661417322834646
          },
          {
            "number": 2,
            "time": 189.61308233334594,
            "value": 0.8661417322834646
          },
          {
            "number": 2,
            "time": 189.61472706667928,
            "value": 0.8582677165354331
          },
          {
            "number": 2,
            "time": 189.61637180001262,
            "value": 0.8582677165354331
          },
          {
            "number": 2,
            "time": 189.61801653334595,
            "value": 0.8503937007874016
          },
          {
            "number": 2,
            "time": 189.6196612666793,
            "value": 0.8503937007874016
          },
          {
            "number": 2,
            "time": 189.62130600001262,
            "value": 0.8503937007874016
          },
          {
            "number": 2,
            "time": 189.62295073334596,
            "value": 0.84251968503937
          },
          {
            "number": 2,
            "time": 189.6245954666793,
            "value": 0.84251968503937
          },
          {
            "number": 2,
            "time": 189.62624020001263,
            "value": 0.8346456692913385
          },
          {
            "number": 2,
            "time": 189.62788493334597,
            "value": 0.8346456692913385
          },
          {
            "number": 2,
            "time": 189.6295296666793,
            "value": 0.8346456692913385
          },
          {
            "number": 2,
            "time": 189.63117440001264,
            "value": 0.8267716535433071
          },
          {
            "number": 2,
            "time": 189.63281913334598,
            "value": 0.8267716535433071
          },
          {
            "number": 2,
            "time": 189.6344638666793,
            "value": 0.8188976377952756
          },
          {
            "number": 2,
            "time": 189.63610860001265,
            "value": 0.8188976377952756
          },
          {
            "number": 2,
            "time": 189.63775333334598,
            "value": 0.8188976377952756
          },
          {
            "number": 2,
            "time": 189.63939806667932,
            "value": 0.8110236220472441
          },
          {
            "number": 2,
            "time": 189.64104280001266,
            "value": 0.8110236220472441
          },
          {
            "number": 2,
            "time": 189.642687533346,
            "value": 0.8031496062992126
          },
          {
            "number": 2,
            "time": 189.64433226667933,
            "value": 0.8031496062992126
          },
          {
            "number": 2,
            "time": 189.64597700001266,
            "value": 0.8031496062992126
          },
          {
            "number": 2,
            "time": 189.647621733346,
            "value": 0.7952755905511811
          },
          {
            "number": 2,
            "time": 189.64926646667934,
            "value": 0.7952755905511811
          },
          {
            "number": 2,
            "time": 189.65091120001267,
            "value": 0.7874015748031497
          },
          {
            "number": 2,
            "time": 189.652555933346,
            "value": 0.7874015748031497
          },
          {
            "number": 2,
            "time": 189.65420066667934,
            "value": 0.7874015748031497
          },
          {
            "number": 2,
            "time": 189.65584540001268,
            "value": 0.7795275590551181
          },
          {
            "number": 2,
            "time": 189.65749013334602,
            "value": 0.7795275590551181
          },
          {
            "number": 2,
            "time": 189.65913486667935,
            "value": 0.7716535433070866
          },
          {
            "number": 2,
            "time": 189.6607796000127,
            "value": 0.7716535433070866
          },
          {
            "number": 2,
            "time": 189.66242433334602,
            "value": 0.7716535433070866
          },
          {
            "number": 2,
            "time": 189.66406906667936,
            "value": 0.7637795275590551
          },
          {
            "number": 2,
            "time": 189.6657138000127,
            "value": 0.7637795275590551
          },
          {
            "number": 2,
            "time": 189.66735853334603,
            "value": 0.7559055118110236
          },
          {
            "number": 2,
            "time": 189.66900326667937,
            "value": 0.7559055118110236
          },
          {
            "number": 2,
            "time": 190.65748800001273,
            "value": 0.7559055118110236
          },
          {
            "number": 2,
            "time": 191.05222400001273,
            "value": 0.7559055118110236
          },
          {
            "number": 2,
            "time": 191.31538133334607,
            "value": 0.7559055118110236
          },
          {
            "number": 2,
            "time": 191.5785386666794,
            "value": 0.7559055118110236
          },
          {
            "number": 2,
            "time": 191.84169600001275,
            "value": 0.7559055118110236
          },
          {
            "number": 2,
            "time": 192.10485333334609,
            "value": 0.7559055118110236
          },
          {
            "number": 2,
            "time": 192.36801066667942,
            "value": 0.7559055118110236
          },
          {
            "number": 2,
            "time": 194.21011200001277,
            "value": 0.5039370078740157
          },
          {
            "number": 2,
            "time": 194.99958400001276,
            "value": 0.5039370078740157
          },
          {
            "number": 2,
            "time": 195.78905600001275,
            "value": 0.5039370078740157
          },
          {
            "number": 2,
            "time": 197.36800000001273,
            "value": 0.5039370078740157
          },
          {
            "number": 2,
            "time": 198.15747200001272,
            "value": 0.5039370078740157
          },
          {
            "number": 2,
            "time": 198.9469440000127,
            "value": 0.5039370078740157
          },
          {
            "number": 2,
            "time": 199.7364160000127,
            "value": 0.5039370078740157
          },
          {
            "number": 2,
            "time": 200.52588800001269,
            "value": 0.5039370078740157
          },
          {
            "number": 2,
            "time": 201.31536000001267,
            "value": 0.5039370078740157
          },
          {
            "number": 2,
            "time": 202.10483200001266,
            "value": 0.5039370078740157
          },
          {
            "number": 2,
            "time": 203.68377600001264,
            "value": 0.5039370078740157
          },
          {
            "number": 2,
            "time": 204.47324800001263,
            "value": 0.5039370078740157
          },
          {
            "number": 2,
            "time": 205.26272000001262,
            "value": 0.5039370078740157
          },
          {
            "number": 2,
            "time": 206.0521920000126,
            "value": 0.5039370078740157
          },
          {
            "number": 2,
            "time": 206.8416640000126,
            "value": 0.5039370078740157
          },
          {
            "number": 2,
            "time": 207.6311360000126,
            "value": 0.5039370078740157
          },
          {
            "number": 2,
            "time": 208.42060800001258,
            "value": 0.5039370078740157
          },
          {
            "number": 2,
            "time": 209.21008000001257,
            "value": 0.5039370078740157
          },
          {
            "number": 2,
            "time": 209.99955200001256,
            "value": 0.5039370078740157
          },
          {
            "number": 2,
            "time": 210.14757800001254,
            "value": 0.5118110236220472
          },
          {
            "number": 2,
            "time": 210.29560400001253,
            "value": 0.5196850393700787
          },
          {
            "number": 2,
            "time": 210.44363000001252,
            "value": 0.5275590551181102
          },
          {
            "number": 2,
            "time": 210.5916560000125,
            "value": 0.5354330708661418
          },
          {
            "number": 2,
            "time": 210.7396820000125,
            "value": 0.5433070866141733
          },
          {
            "number": 2,
            "time": 210.7890240000125,
            "value": 0.5433070866141733
          },
          {
            "number": 2,
            "time": 210.88770800001248,
            "value": 0.5511811023622047
          },
          {
            "number": 2,
            "time": 211.03573400001247,
            "value": 0.5590551181102362
          },
          {
            "number": 2,
            "time": 211.18376000001248,
            "value": 0.5669291338582677
          },
          {
            "number": 2,
            "time": 211.33178600001247,
            "value": 0.5748031496062992
          },
          {
            "number": 2,
            "time": 211.47981200001246,
            "value": 0.5826771653543307
          },
          {
            "number": 2,
            "time": 211.57849600001245,
            "value": 0.5826771653543307
          },
          {
            "number": 2,
            "time": 211.62783800001245,
            "value": 0.5905511811023622
          },
          {
            "number": 2,
            "time": 211.77586400001243,
            "value": 0.5984251968503937
          },
          {
            "number": 2,
            "time": 211.92389000001242,
            "value": 0.6062992125984252
          },
          {
            "number": 2,
            "time": 212.0719160000124,
            "value": 0.6141732283464567
          },
          {
            "number": 2,
            "time": 212.2199420000124,
            "value": 0.6220472440944882
          },
          {
            "number": 2,
            "time": 212.36796800001238,
            "value": 0.6299212598425197
          },
          {
            "number": 2,
            "time": 213.15744000001237,
            "value": 0.6299212598425197
          },
          {
            "number": 2,
            "time": 213.25612400001236,
            "value": 0.6220472440944882
          },
          {
            "number": 2,
            "time": 213.35480800001235,
            "value": 0.6141732283464567
          },
          {
            "number": 2,
            "time": 213.45349200001235,
            "value": 0.6062992125984252
          },
          {
            "number": 2,
            "time": 213.55217600001234,
            "value": 0.5984251968503937
          },
          {
            "number": 2,
            "time": 213.65086000001233,
            "value": 0.5905511811023622
          },
          {
            "number": 2,
            "time": 213.74954400001232,
            "value": 0.5826771653543307
          },
          {
            "number": 2,
            "time": 213.8482280000123,
            "value": 0.5748031496062992
          },
          {
            "number": 2,
            "time": 213.9469120000123,
            "value": 0.5669291338582677
          },
          {
            "number": 2,
            "time": 214.0455960000123,
            "value": 0.5590551181102362
          },
          {
            "number": 2,
            "time": 214.1442800000123,
            "value": 0.5511811023622047
          },
          {
            "number": 2,
            "time": 214.24296400001228,
            "value": 0.5433070866141733
          },
          {
            "number": 2,
            "time": 214.34164800001227,
            "value": 0.5354330708661418
          },
          {
            "number": 2,
            "time": 214.44033200001226,
            "value": 0.5275590551181102
          },
          {
            "number": 2,
            "time": 214.53901600001225,
            "value": 0.5196850393700787
          },
          {
            "number": 2,
            "time": 214.63770000001225,
            "value": 0.5118110236220472
          },
          {
            "number": 2,
            "time": 214.73638400001224,
            "value": 0.5039370078740157
          },
          {
            "number": 2,
            "time": 216.31532800001224,
            "value": 0.5039370078740157
          },
          {
            "number": 2,
            "time": 216.36467000001224,
            "value": 0.5118110236220472
          },
          {
            "number": 2,
            "time": 216.41401200001224,
            "value": 0.5196850393700787
          },
          {
            "number": 2,
            "time": 216.46335400001223,
            "value": 0.5275590551181102
          },
          {
            "number": 2,
            "time": 216.51269600001223,
            "value": 0.5354330708661418
          },
          {
            "number": 2,
            "time": 216.56203800001222,
            "value": 0.5433070866141733
          },
          {
            "number": 2,
            "time": 216.61138000001222,
            "value": 0.5511811023622047
          },
          {
            "number": 2,
            "time": 216.6607220000122,
            "value": 0.5590551181102362
          },
          {
            "number": 2,
            "time": 216.7100640000122,
            "value": 0.5669291338582677
          },
          {
            "number": 2,
            "time": 216.7594060000122,
            "value": 0.5748031496062992
          },
          {
            "number": 2,
            "time": 216.8087480000122,
            "value": 0.5826771653543307
          },
          {
            "number": 2,
            "time": 216.8580900000122,
            "value": 0.5905511811023622
          },
          {
            "number": 2,
            "time": 216.9074320000122,
            "value": 0.5984251968503937
          },
          {
            "number": 2,
            "time": 216.9567740000122,
            "value": 0.6062992125984252
          },
          {
            "number": 2,
            "time": 217.00611600001218,
            "value": 0.6141732283464567
          },
          {
            "number": 2,
            "time": 217.05545800001218,
            "value": 0.6220472440944882
          },
          {
            "number": 2,
            "time": 217.10480000001218,
            "value": 0.6299212598425197
          },
          {
            "number": 2,
            "time": 217.15414200001217,
            "value": 0.6377952755905512
          },
          {
            "number": 2,
            "time": 217.20348400001217,
            "value": 0.6456692913385826
          },
          {
            "number": 2,
            "time": 217.25282600001216,
            "value": 0.6535433070866141
          },
          {
            "number": 2,
            "time": 217.30216800001216,
            "value": 0.6614173228346457
          },
          {
            "number": 2,
            "time": 217.35151000001215,
            "value": 0.6692913385826772
          },
          {
            "number": 2,
            "time": 217.40085200001215,
            "value": 0.6771653543307087
          },
          {
            "number": 2,
            "time": 217.45019400001215,
            "value": 0.6850393700787402
          },
          {
            "number": 2,
            "time": 217.49953600001214,
            "value": 0.6929133858267716
          },
          {
            "number": 2,
            "time": 217.54887800001214,
            "value": 0.7007874015748031
          },
          {
            "number": 2,
            "time": 217.59822000001213,
            "value": 0.7086614173228346
          },
          {
            "number": 2,
            "time": 217.64756200001213,
            "value": 0.7165354330708661
          },
          {
            "number": 2,
            "time": 217.69690400001213,
            "value": 0.7244094488188977
          },
          {
            "number": 2,
            "time": 217.74624600001212,
            "value": 0.7322834645669292
          },
          {
            "number": 2,
            "time": 217.79558800001212,
            "value": 0.7401574803149606
          },
          {
            "number": 2,
            "time": 217.8449300000121,
            "value": 0.7480314960629921
          },
          {
            "number": 2,
            "time": 217.8942720000121,
            "value": 0.7559055118110236
          },
          {
            "number": 2,
            "time": 219.47321600001212,
            "value": 0.7559055118110236
          },
          {
            "number": 2,
            "time": 221.05216000001212,
            "value": 0.7559055118110236
          },
          {
            "number": 2,
            "time": 222.63110400001213,
            "value": 0.7559055118110236
          },
          {
            "number": 2,
            "time": 223.42057600001212,
            "value": 0.7559055118110236
          },
          {
            "number": 2,
            "time": 224.2100480000121,
            "value": 0.7559055118110236
          },
          {
            "number": 2,
            "time": 225.78899200001214,
            "value": 0.7559055118110236
          },
          {
            "number": 2,
            "time": 227.36793600001215,
            "value": 0.7559055118110236
          },
          {
            "number": 2,
            "time": 228.94688000001216,
            "value": 0.7559055118110236
          },
          {
            "number": 2,
            "time": 229.73635200001215,
            "value": 0.7559055118110236
          },
          {
            "number": 2,
            "time": 230.52582400001214,
            "value": 0.7559055118110236
          },
          {
            "number": 2,
            "time": 232.10476800001214,
            "value": 1
          },
          {
            "number": 2,
            "time": 232.10641273334548,
            "value": 1
          },
          {
            "number": 2,
            "time": 232.10805746667882,
            "value": 1
          },
          {
            "number": 2,
            "time": 232.10970220001215,
            "value": 1
          },
          {
            "number": 2,
            "time": 232.1113469333455,
            "value": 1
          },
          {
            "number": 2,
            "time": 232.11299166667882,
            "value": 1
          },
          {
            "number": 2,
            "time": 232.11463640001216,
            "value": 1
          },
          {
            "number": 2,
            "time": 232.1162811333455,
            "value": 1
          },
          {
            "number": 2,
            "time": 232.11792586667883,
            "value": 1
          },
          {
            "number": 2,
            "time": 232.11957060001217,
            "value": 1
          },
          {
            "number": 2,
            "time": 232.1212153333455,
            "value": 1
          },
          {
            "number": 2,
            "time": 232.12286006667884,
            "value": 1
          },
          {
            "number": 2,
            "time": 232.12450480001218,
            "value": 1
          },
          {
            "number": 2,
            "time": 232.1261495333455,
            "value": 1
          },
          {
            "number": 2,
            "time": 232.12779426667885,
            "value": 1
          },
          {
            "number": 2,
            "time": 232.12943900001218,
            "value": 1
          },
          {
            "number": 2,
            "time": 232.13108373334552,
            "value": 1
          },
          {
            "number": 2,
            "time": 232.13272846667886,
            "value": 1
          },
          {
            "number": 2,
            "time": 232.1343732000122,
            "value": 1
          },
          {
            "number": 2,
            "time": 232.13601793334553,
            "value": 1
          },
          {
            "number": 2,
            "time": 232.13766266667886,
            "value": 1
          },
          {
            "number": 2,
            "time": 232.1393074000122,
            "value": 1
          },
          {
            "number": 2,
            "time": 232.14095213334554,
            "value": 1
          },
          {
            "number": 2,
            "time": 232.14259686667887,
            "value": 1
          },
          {
            "number": 2,
            "time": 232.1442416000122,
            "value": 1
          },
          {
            "number": 2,
            "time": 232.14588633334554,
            "value": 1
          },
          {
            "number": 2,
            "time": 232.14753106667888,
            "value": 1
          },
          {
            "number": 2,
            "time": 232.14917580001222,
            "value": 1
          },
          {
            "number": 2,
            "time": 232.15082053334555,
            "value": 1
          },
          {
            "number": 2,
            "time": 232.1524652666789,
            "value": 1
          },
          {
            "number": 2,
            "time": 232.15411000001222,
            "value": 1
          },
          {
            "number": 2,
            "time": 232.15575473334556,
            "value": 1
          },
          {
            "number": 2,
            "time": 232.1573994666789,
            "value": 1
          },
          {
            "number": 2,
            "time": 232.15904420001223,
            "value": 1
          },
          {
            "number": 2,
            "time": 232.16068893334557,
            "value": 1
          },
          {
            "number": 2,
            "time": 232.1623336666789,
            "value": 1
          },
          {
            "number": 2,
            "time": 232.16397840001224,
            "value": 1
          },
          {
            "number": 2,
            "time": 232.16562313334558,
            "value": 1
          },
          {
            "number": 2,
            "time": 232.1672678666789,
            "value": 1
          },
          {
            "number": 2,
            "time": 232.16891260001225,
            "value": 1
          },
          {
            "number": 2,
            "time": 232.17055733334558,
            "value": 1
          },
          {
            "number": 2,
            "time": 232.17220206667892,
            "value": 1
          },
          {
            "number": 2,
            "time": 232.17384680001226,
            "value": 1
          },
          {
            "number": 2,
            "time": 232.1754915333456,
            "value": 0.9921259842519685
          },
          {
            "number": 2,
            "time": 232.17713626667893,
            "value": 0.9921259842519685
          },
          {
            "number": 2,
            "time": 232.17878100001226,
            "value": 0.9921259842519685
          },
          {
            "number": 2,
            "time": 232.1804257333456,
            "value": 0.984251968503937
          },
          {
            "number": 2,
            "time": 232.18207046667894,
            "value": 0.984251968503937
          },
          {
            "number": 2,
            "time": 232.18371520001227,
            "value": 0.9763779527559056
          },
          {
            "number": 2,
            "time": 232.1853599333456,
            "value": 0.9763779527559056
          },
          {
            "number": 2,
            "time": 232.18700466667894,
            "value": 0.9763779527559056
          },
          {
            "number": 2,
            "time": 232.18864940001228,
            "value": 0.968503937007874
          },
          {
            "number": 2,
            "time": 232.19029413334562,
            "value": 0.968503937007874
          },
          {
            "number": 2,
            "time": 232.19193886667895,
            "value": 0.9606299212598425
          },
          {
            "number": 2,
            "time": 232.1935836000123,
            "value": 0.9606299212598425
          },
          {
            "number": 2,
            "time": 232.19522833334563,
            "value": 0.9606299212598425
          },
          {
            "number": 2,
            "time": 232.19687306667896,
            "value": 0.952755905511811
          },
          {
            "number": 2,
            "time": 232.1985178000123,
            "value": 0.952755905511811
          },
          {
            "number": 2,
            "time": 232.20016253334563,
            "value": 0.9448818897637795
          },
          {
            "number": 2,
            "time": 232.20180726667897,
            "value": 0.9448818897637795
          },
          {
            "number": 2,
            "time": 232.2034520000123,
            "value": 0.9448818897637795
          },
          {
            "number": 2,
            "time": 232.20509673334564,
            "value": 0.937007874015748
          },
          {
            "number": 2,
            "time": 232.20674146667898,
            "value": 0.937007874015748
          },
          {
            "number": 2,
            "time": 232.2083862000123,
            "value": 0.9291338582677166
          },
          {
            "number": 2,
            "time": 232.21003093334565,
            "value": 0.9291338582677166
          },
          {
            "number": 2,
            "time": 232.21167566667899,
            "value": 0.9291338582677166
          },
          {
            "number": 2,
            "time": 232.21332040001232,
            "value": 0.9212598425196851
          },
          {
            "number": 2,
            "time": 232.21496513334566,
            "value": 0.9212598425196851
          },
          {
            "number": 2,
            "time": 232.216609866679,
            "value": 0.9133858267716536
          },
          {
            "number": 2,
            "time": 232.21825460001233,
            "value": 0.9133858267716536
          },
          {
            "number": 2,
            "time": 232.21989933334567,
            "value": 0.9133858267716536
          },
          {
            "number": 2,
            "time": 232.221544066679,
            "value": 0.905511811023622
          },
          {
            "number": 2,
            "time": 232.22318880001234,
            "value": 0.905511811023622
          },
          {
            "number": 2,
            "time": 232.22483353334567,
            "value": 0.8976377952755905
          },
          {
            "number": 2,
            "time": 232.226478266679,
            "value": 0.8976377952755905
          },
          {
            "number": 2,
            "time": 232.22812300001235,
            "value": 0.8976377952755905
          },
          {
            "number": 2,
            "time": 232.22976773334568,
            "value": 0.889763779527559
          },
          {
            "number": 2,
            "time": 232.23141246667902,
            "value": 0.889763779527559
          },
          {
            "number": 2,
            "time": 232.23305720001235,
            "value": 0.8818897637795275
          },
          {
            "number": 2,
            "time": 232.2347019333457,
            "value": 0.8818897637795275
          },
          {
            "number": 2,
            "time": 232.23634666667903,
            "value": 0.8818897637795275
          },
          {
            "number": 2,
            "time": 232.23799140001236,
            "value": 0.8740157480314961
          },
          {
            "number": 2,
            "time": 232.2396361333457,
            "value": 0.8740157480314961
          },
          {
            "number": 2,
            "time": 232.24128086667903,
            "value": 0.8661417322834646
          },
          {
            "number": 2,
            "time": 232.24292560001237,
            "value": 0.8661417322834646
          },
          {
            "number": 2,
            "time": 232.2445703333457,
            "value": 0.8661417322834646
          },
          {
            "number": 2,
            "time": 232.24621506667904,
            "value": 0.8582677165354331
          },
          {
            "number": 2,
            "time": 232.24785980001238,
            "value": 0.8582677165354331
          },
          {
            "number": 2,
            "time": 232.2495045333457,
            "value": 0.8503937007874016
          },
          {
            "number": 2,
            "time": 232.25114926667905,
            "value": 0.8503937007874016
          },
          {
            "number": 2,
            "time": 232.2527940000124,
            "value": 0.8503937007874016
          },
          {
            "number": 2,
            "time": 232.25443873334572,
            "value": 0.84251968503937
          },
          {
            "number": 2,
            "time": 232.25608346667906,
            "value": 0.84251968503937
          },
          {
            "number": 2,
            "time": 232.2577282000124,
            "value": 0.8346456692913385
          },
          {
            "number": 2,
            "time": 232.25937293334573,
            "value": 0.8346456692913385
          },
          {
            "number": 2,
            "time": 232.26101766667907,
            "value": 0.8346456692913385
          },
          {
            "number": 2,
            "time": 232.2626624000124,
            "value": 0.8267716535433071
          },
          {
            "number": 2,
            "time": 232.26430713334574,
            "value": 0.8267716535433071
          },
          {
            "number": 2,
            "time": 232.26595186667907,
            "value": 0.8188976377952756
          },
          {
            "number": 2,
            "time": 232.2675966000124,
            "value": 0.8188976377952756
          },
          {
            "number": 2,
            "time": 232.26924133334575,
            "value": 0.8188976377952756
          },
          {
            "number": 2,
            "time": 232.27088606667908,
            "value": 0.8110236220472441
          },
          {
            "number": 2,
            "time": 232.27253080001242,
            "value": 0.8110236220472441
          },
          {
            "number": 2,
            "time": 232.27417553334575,
            "value": 0.8031496062992126
          },
          {
            "number": 2,
            "time": 232.2758202666791,
            "value": 0.8031496062992126
          },
          {
            "number": 2,
            "time": 232.27746500001243,
            "value": 0.8031496062992126
          },
          {
            "number": 2,
            "time": 232.27910973334576,
            "value": 0.7952755905511811
          },
          {
            "number": 2,
            "time": 232.2807544666791,
            "value": 0.7952755905511811
          },
          {
            "number": 2,
            "time": 232.28239920001243,
            "value": 0.7874015748031497
          },
          {
            "number": 2,
            "time": 232.28404393334577,
            "value": 0.7874015748031497
          },
          {
            "number": 2,
            "time": 232.2856886666791,
            "value": 0.7874015748031497
          },
          {
            "number": 2,
            "time": 232.28733340001244,
            "value": 0.7795275590551181
          },
          {
            "number": 2,
            "time": 232.28897813334578,
            "value": 0.7795275590551181
          },
          {
            "number": 2,
            "time": 232.29062286667912,
            "value": 0.7716535433070866
          },
          {
            "number": 2,
            "time": 232.29226760001245,
            "value": 0.7716535433070866
          },
          {
            "number": 2,
            "time": 232.2939123333458,
            "value": 0.7716535433070866
          },
          {
            "number": 2,
            "time": 232.29555706667912,
            "value": 0.7637795275590551
          },
          {
            "number": 2,
            "time": 232.29720180001246,
            "value": 0.7637795275590551
          },
          {
            "number": 2,
            "time": 232.2988465333458,
            "value": 0.7559055118110236
          },
          {
            "number": 2,
            "time": 232.30049126667913,
            "value": 0.7559055118110236
          },
          {
            "number": 2,
            "time": 232.49950400001248,
            "value": 0.7559055118110236
          },
          {
            "number": 2,
            "time": 233.2889760000125,
            "value": 0.7559055118110236
          },
          {
            "number": 2,
            "time": 233.6837120000125,
            "value": 1
          },
          {
            "number": 2,
            "time": 233.68535673334583,
            "value": 1
          },
          {
            "number": 2,
            "time": 233.68700146667916,
            "value": 1
          },
          {
            "number": 2,
            "time": 233.6886462000125,
            "value": 1
          },
          {
            "number": 2,
            "time": 233.69029093334584,
            "value": 1
          },
          {
            "number": 2,
            "time": 233.69193566667917,
            "value": 1
          },
          {
            "number": 2,
            "time": 233.6935804000125,
            "value": 1
          },
          {
            "number": 2,
            "time": 233.69522513334584,
            "value": 1
          },
          {
            "number": 2,
            "time": 233.69686986667918,
            "value": 1
          },
          {
            "number": 2,
            "time": 233.69851460001252,
            "value": 1
          },
          {
            "number": 2,
            "time": 233.70015933334585,
            "value": 1
          },
          {
            "number": 2,
            "time": 233.7018040666792,
            "value": 1
          },
          {
            "number": 2,
            "time": 233.70344880001252,
            "value": 1
          },
          {
            "number": 2,
            "time": 233.70509353334586,
            "value": 1
          },
          {
            "number": 2,
            "time": 233.7067382666792,
            "value": 1
          },
          {
            "number": 2,
            "time": 233.70838300001253,
            "value": 1
          },
          {
            "number": 2,
            "time": 233.71002773334587,
            "value": 1
          },
          {
            "number": 2,
            "time": 233.7116724666792,
            "value": 1
          },
          {
            "number": 2,
            "time": 233.71331720001254,
            "value": 1
          },
          {
            "number": 2,
            "time": 233.71496193334588,
            "value": 1
          },
          {
            "number": 2,
            "time": 233.7166066666792,
            "value": 1
          },
          {
            "number": 2,
            "time": 233.71825140001255,
            "value": 1
          },
          {
            "number": 2,
            "time": 233.71989613334588,
            "value": 1
          },
          {
            "number": 2,
            "time": 233.72154086667922,
            "value": 1
          },
          {
            "number": 2,
            "time": 233.72318560001256,
            "value": 1
          },
          {
            "number": 2,
            "time": 233.7248303333459,
            "value": 1
          },
          {
            "number": 2,
            "time": 233.72647506667923,
            "value": 1
          },
          {
            "number": 2,
            "time": 233.72811980001256,
            "value": 1
          },
          {
            "number": 2,
            "time": 233.7297645333459,
            "value": 1
          },
          {
            "number": 2,
            "time": 233.73140926667924,
            "value": 1
          },
          {
            "number": 2,
            "time": 233.73305400001257,
            "value": 1
          },
          {
            "number": 2,
            "time": 233.7346987333459,
            "value": 1
          },
          {
            "number": 2,
            "time": 233.73634346667924,
            "value": 1
          },
          {
            "number": 2,
            "time": 233.73798820001258,
            "value": 1
          },
          {
            "number": 2,
            "time": 233.73963293334592,
            "value": 1
          },
          {
            "number": 2,
            "time": 233.74127766667925,
            "value": 1
          },
          {
            "number": 2,
            "time": 233.7429224000126,
            "value": 1
          },
          {
            "number": 2,
            "time": 233.74456713334592,
            "value": 1
          },
          {
            "number": 2,
            "time": 233.74621186667926,
            "value": 1
          },
          {
            "number": 2,
            "time": 233.7478566000126,
            "value": 1
          },
          {
            "number": 2,
            "time": 233.74950133334593,
            "value": 1
          },
          {
            "number": 2,
            "time": 233.75114606667927,
            "value": 1
          },
          {
            "number": 2,
            "time": 233.7527908000126,
            "value": 1
          },
          {
            "number": 2,
            "time": 233.75443553334594,
            "value": 0.9921259842519685
          },
          {
            "number": 2,
            "time": 233.75608026667928,
            "value": 0.9921259842519685
          },
          {
            "number": 2,
            "time": 233.7577250000126,
            "value": 0.9921259842519685
          },
          {
            "number": 2,
            "time": 233.75936973334595,
            "value": 0.984251968503937
          },
          {
            "number": 2,
            "time": 233.76101446667928,
            "value": 0.984251968503937
          },
          {
            "number": 2,
            "time": 233.76265920001262,
            "value": 0.9763779527559056
          },
          {
            "number": 2,
            "time": 233.76430393334596,
            "value": 0.9763779527559056
          },
          {
            "number": 2,
            "time": 233.7659486666793,
            "value": 0.9763779527559056
          },
          {
            "number": 2,
            "time": 233.76759340001263,
            "value": 0.968503937007874
          },
          {
            "number": 2,
            "time": 233.76923813334597,
            "value": 0.968503937007874
          },
          {
            "number": 2,
            "time": 233.7708828666793,
            "value": 0.9606299212598425
          },
          {
            "number": 2,
            "time": 233.77252760001264,
            "value": 0.9606299212598425
          },
          {
            "number": 2,
            "time": 233.77417233334597,
            "value": 0.9606299212598425
          },
          {
            "number": 2,
            "time": 233.7758170666793,
            "value": 0.952755905511811
          },
          {
            "number": 2,
            "time": 233.77746180001265,
            "value": 0.952755905511811
          },
          {
            "number": 2,
            "time": 233.77910653334598,
            "value": 0.9448818897637795
          },
          {
            "number": 2,
            "time": 233.78075126667932,
            "value": 0.9448818897637795
          },
          {
            "number": 2,
            "time": 233.78239600001265,
            "value": 0.9448818897637795
          },
          {
            "number": 2,
            "time": 233.784040733346,
            "value": 0.937007874015748
          },
          {
            "number": 2,
            "time": 233.78568546667933,
            "value": 0.937007874015748
          },
          {
            "number": 2,
            "time": 233.78733020001266,
            "value": 0.9291338582677166
          },
          {
            "number": 2,
            "time": 233.788974933346,
            "value": 0.9291338582677166
          },
          {
            "number": 2,
            "time": 233.79061966667933,
            "value": 0.9291338582677166
          },
          {
            "number": 2,
            "time": 233.79226440001267,
            "value": 0.9212598425196851
          },
          {
            "number": 2,
            "time": 233.793909133346,
            "value": 0.9212598425196851
          },
          {
            "number": 2,
            "time": 233.79555386667934,
            "value": 0.9133858267716536
          },
          {
            "number": 2,
            "time": 233.79719860001268,
            "value": 0.9133858267716536
          },
          {
            "number": 2,
            "time": 233.798843333346,
            "value": 0.9133858267716536
          },
          {
            "number": 2,
            "time": 233.80048806667935,
            "value": 0.905511811023622
          },
          {
            "number": 2,
            "time": 233.80213280001269,
            "value": 0.905511811023622
          },
          {
            "number": 2,
            "time": 233.80377753334602,
            "value": 0.8976377952755905
          },
          {
            "number": 2,
            "time": 233.80542226667936,
            "value": 0.8976377952755905
          },
          {
            "number": 2,
            "time": 233.8070670000127,
            "value": 0.8976377952755905
          },
          {
            "number": 2,
            "time": 233.80871173334603,
            "value": 0.889763779527559
          },
          {
            "number": 2,
            "time": 233.81035646667937,
            "value": 0.889763779527559
          },
          {
            "number": 2,
            "time": 233.8120012000127,
            "value": 0.8818897637795275
          },
          {
            "number": 2,
            "time": 233.81364593334604,
            "value": 0.8818897637795275
          },
          {
            "number": 2,
            "time": 233.81529066667937,
            "value": 0.8818897637795275
          },
          {
            "number": 2,
            "time": 233.8169354000127,
            "value": 0.8740157480314961
          },
          {
            "number": 2,
            "time": 233.81858013334605,
            "value": 0.8740157480314961
          },
          {
            "number": 2,
            "time": 233.82022486667938,
            "value": 0.8661417322834646
          },
          {
            "number": 2,
            "time": 233.82186960001272,
            "value": 0.8661417322834646
          },
          {
            "number": 2,
            "time": 233.82351433334605,
            "value": 0.8661417322834646
          },
          {
            "number": 2,
            "time": 233.8251590666794,
            "value": 0.8582677165354331
          },
          {
            "number": 2,
            "time": 233.82680380001273,
            "value": 0.8582677165354331
          },
          {
            "number": 2,
            "time": 233.82844853334606,
            "value": 0.8503937007874016
          },
          {
            "number": 2,
            "time": 233.8300932666794,
            "value": 0.8503937007874016
          },
          {
            "number": 2,
            "time": 233.83173800001273,
            "value": 0.8503937007874016
          },
          {
            "number": 2,
            "time": 233.83338273334607,
            "value": 0.84251968503937
          },
          {
            "number": 2,
            "time": 233.8350274666794,
            "value": 0.84251968503937
          },
          {
            "number": 2,
            "time": 233.83667220001274,
            "value": 0.8346456692913385
          },
          {
            "number": 2,
            "time": 233.83831693334608,
            "value": 0.8346456692913385
          },
          {
            "number": 2,
            "time": 233.83996166667941,
            "value": 0.8346456692913385
          },
          {
            "number": 2,
            "time": 233.84160640001275,
            "value": 0.8267716535433071
          },
          {
            "number": 2,
            "time": 233.8432511333461,
            "value": 0.8267716535433071
          },
          {
            "number": 2,
            "time": 233.84489586667942,
            "value": 0.8188976377952756
          },
          {
            "number": 2,
            "time": 233.84654060001276,
            "value": 0.8188976377952756
          },
          {
            "number": 2,
            "time": 233.8481853333461,
            "value": 0.8188976377952756
          },
          {
            "number": 2,
            "time": 233.84983006667943,
            "value": 0.8110236220472441
          },
          {
            "number": 2,
            "time": 233.85147480001277,
            "value": 0.8110236220472441
          },
          {
            "number": 2,
            "time": 233.8531195333461,
            "value": 0.8031496062992126
          },
          {
            "number": 2,
            "time": 233.85476426667944,
            "value": 0.8031496062992126
          },
          {
            "number": 2,
            "time": 233.85640900001277,
            "value": 0.8031496062992126
          },
          {
            "number": 2,
            "time": 233.8580537333461,
            "value": 0.7952755905511811
          },
          {
            "number": 2,
            "time": 233.85969846667945,
            "value": 0.7952755905511811
          },
          {
            "number": 2,
            "time": 233.86134320001278,
            "value": 0.7874015748031497
          },
          {
            "number": 2,
            "time": 233.86298793334612,
            "value": 0.7874015748031497
          },
          {
            "number": 2,
            "time": 233.86463266667946,
            "value": 0.7874015748031497
          },
          {
            "number": 2,
            "time": 233.8662774000128,
            "value": 0.7795275590551181
          },
          {
            "number": 2,
            "time": 233.86792213334613,
            "value": 0.7795275590551181
          },
          {
            "number": 2,
            "time": 233.86956686667946,
            "value": 0.7716535433070866
          },
          {
            "number": 2,
            "time": 233.8712116000128,
            "value": 0.7716535433070866
          },
          {
            "number": 2,
            "time": 233.87285633334614,
            "value": 0.7716535433070866
          },
          {
            "number": 2,
            "time": 233.87450106667947,
            "value": 0.7637795275590551
          },
          {
            "number": 2,
            "time": 233.8761458000128,
            "value": 0.7637795275590551
          },
          {
            "number": 2,
            "time": 233.87779053334614,
            "value": 0.7559055118110236
          },
          {
            "number": 2,
            "time": 233.87943526667948,
            "value": 0.7559055118110236
          },
          {
            "number": 2,
            "time": 234.07844800001283,
            "value": 0.7559055118110236
          },
          {
            "number": 2,
            "time": 234.86792000001284,
            "value": 0.7559055118110236
          },
          {
            "number": 2,
            "time": 236.84160000001285,
            "value": 1
          },
          {
            "number": 2,
            "time": 236.84324473334618,
            "value": 1
          },
          {
            "number": 2,
            "time": 236.84488946667952,
            "value": 1
          },
          {
            "number": 2,
            "time": 236.84653420001285,
            "value": 1
          },
          {
            "number": 2,
            "time": 236.8481789333462,
            "value": 1
          },
          {
            "number": 2,
            "time": 236.84982366667953,
            "value": 1
          },
          {
            "number": 2,
            "time": 236.85146840001286,
            "value": 1
          },
          {
            "number": 2,
            "time": 236.8531131333462,
            "value": 1
          },
          {
            "number": 2,
            "time": 236.85475786667953,
            "value": 1
          },
          {
            "number": 2,
            "time": 236.85640260001287,
            "value": 1
          },
          {
            "number": 2,
            "time": 236.8580473333462,
            "value": 1
          },
          {
            "number": 2,
            "time": 236.85969206667954,
            "value": 1
          },
          {
            "number": 2,
            "time": 236.86133680001288,
            "value": 1
          },
          {
            "number": 2,
            "time": 236.86298153334621,
            "value": 1
          },
          {
            "number": 2,
            "time": 236.86462626667955,
            "value": 1
          },
          {
            "number": 2,
            "time": 236.8662710000129,
            "value": 1
          },
          {
            "number": 2,
            "time": 236.86791573334622,
            "value": 1
          },
          {
            "number": 2,
            "time": 236.86956046667956,
            "value": 1
          },
          {
            "number": 2,
            "time": 236.8712052000129,
            "value": 1
          },
          {
            "number": 2,
            "time": 236.87284993334623,
            "value": 1
          },
          {
            "number": 2,
            "time": 236.87449466667957,
            "value": 1
          },
          {
            "number": 2,
            "time": 236.8761394000129,
            "value": 1
          },
          {
            "number": 2,
            "time": 236.87778413334624,
            "value": 1
          },
          {
            "number": 2,
            "time": 236.87942886667958,
            "value": 1
          },
          {
            "number": 2,
            "time": 236.8810736000129,
            "value": 1
          },
          {
            "number": 2,
            "time": 236.88271833334625,
            "value": 1
          },
          {
            "number": 2,
            "time": 236.88436306667958,
            "value": 1
          },
          {
            "number": 2,
            "time": 236.88600780001292,
            "value": 1
          },
          {
            "number": 2,
            "time": 236.88765253334626,
            "value": 1
          },
          {
            "number": 2,
            "time": 236.8892972666796,
            "value": 1
          },
          {
            "number": 2,
            "time": 236.89094200001293,
            "value": 1
          },
          {
            "number": 2,
            "time": 236.89258673334626,
            "value": 1
          },
          {
            "number": 2,
            "time": 236.8942314666796,
            "value": 1
          },
          {
            "number": 2,
            "time": 236.89587620001294,
            "value": 1
          },
          {
            "number": 2,
            "time": 236.89752093334627,
            "value": 1
          },
          {
            "number": 2,
            "time": 236.8991656666796,
            "value": 1
          },
          {
            "number": 2,
            "time": 236.90081040001294,
            "value": 1
          },
          {
            "number": 2,
            "time": 236.90245513334628,
            "value": 1
          },
          {
            "number": 2,
            "time": 236.90409986667962,
            "value": 1
          },
          {
            "number": 2,
            "time": 236.90574460001295,
            "value": 1
          },
          {
            "number": 2,
            "time": 236.9073893333463,
            "value": 1
          },
          {
            "number": 2,
            "time": 236.90903406667962,
            "value": 1
          },
          {
            "number": 2,
            "time": 236.91067880001296,
            "value": 1
          },
          {
            "number": 2,
            "time": 236.9123235333463,
            "value": 0.9921259842519685
          },
          {
            "number": 2,
            "time": 236.91396826667963,
            "value": 0.9921259842519685
          },
          {
            "number": 2,
            "time": 236.91561300001297,
            "value": 0.9921259842519685
          },
          {
            "number": 2,
            "time": 236.9172577333463,
            "value": 0.984251968503937
          },
          {
            "number": 2,
            "time": 236.91890246667964,
            "value": 0.984251968503937
          },
          {
            "number": 2,
            "time": 236.92054720001298,
            "value": 0.9763779527559056
          },
          {
            "number": 2,
            "time": 236.9221919333463,
            "value": 0.9763779527559056
          },
          {
            "number": 2,
            "time": 236.92383666667965,
            "value": 0.9763779527559056
          },
          {
            "number": 2,
            "time": 236.92548140001298,
            "value": 0.968503937007874
          },
          {
            "number": 2,
            "time": 236.92712613334632,
            "value": 0.968503937007874
          },
          {
            "number": 2,
            "time": 236.92877086667966,
            "value": 0.9606299212598425
          },
          {
            "number": 2,
            "time": 236.930415600013,
            "value": 0.9606299212598425
          },
          {
            "number": 2,
            "time": 236.93206033334633,
            "value": 0.9606299212598425
          },
          {
            "number": 2,
            "time": 236.93370506667966,
            "value": 0.952755905511811
          },
          {
            "number": 2,
            "time": 236.935349800013,
            "value": 0.952755905511811
          },
          {
            "number": 2,
            "time": 236.93699453334634,
            "value": 0.9448818897637795
          },
          {
            "number": 2,
            "time": 236.93863926667967,
            "value": 0.9448818897637795
          },
          {
            "number": 2,
            "time": 236.940284000013,
            "value": 0.9448818897637795
          },
          {
            "number": 2,
            "time": 236.94192873334634,
            "value": 0.937007874015748
          },
          {
            "number": 2,
            "time": 236.94357346667968,
            "value": 0.937007874015748
          },
          {
            "number": 2,
            "time": 236.94521820001302,
            "value": 0.9291338582677166
          },
          {
            "number": 2,
            "time": 236.94686293334635,
            "value": 0.9291338582677166
          },
          {
            "number": 2,
            "time": 236.9485076666797,
            "value": 0.9291338582677166
          },
          {
            "number": 2,
            "time": 236.95015240001302,
            "value": 0.9212598425196851
          },
          {
            "number": 2,
            "time": 236.95179713334636,
            "value": 0.9212598425196851
          },
          {
            "number": 2,
            "time": 236.9534418666797,
            "value": 0.9133858267716536
          },
          {
            "number": 2,
            "time": 236.95508660001303,
            "value": 0.9133858267716536
          },
          {
            "number": 2,
            "time": 236.95673133334637,
            "value": 0.9133858267716536
          },
          {
            "number": 2,
            "time": 236.9583760666797,
            "value": 0.905511811023622
          },
          {
            "number": 2,
            "time": 236.96002080001304,
            "value": 0.905511811023622
          },
          {
            "number": 2,
            "time": 236.96166553334638,
            "value": 0.8976377952755905
          },
          {
            "number": 2,
            "time": 236.9633102666797,
            "value": 0.8976377952755905
          },
          {
            "number": 2,
            "time": 236.96495500001305,
            "value": 0.8976377952755905
          },
          {
            "number": 2,
            "time": 236.96659973334638,
            "value": 0.889763779527559
          },
          {
            "number": 2,
            "time": 236.96824446667972,
            "value": 0.889763779527559
          },
          {
            "number": 2,
            "time": 236.96988920001306,
            "value": 0.8818897637795275
          },
          {
            "number": 2,
            "time": 236.9715339333464,
            "value": 0.8818897637795275
          },
          {
            "number": 2,
            "time": 236.97317866667973,
            "value": 0.8818897637795275
          },
          {
            "number": 2,
            "time": 236.97482340001307,
            "value": 0.8740157480314961
          },
          {
            "number": 2,
            "time": 236.9764681333464,
            "value": 0.8740157480314961
          },
          {
            "number": 2,
            "time": 236.97811286667974,
            "value": 0.8661417322834646
          },
          {
            "number": 2,
            "time": 236.97975760001307,
            "value": 0.8661417322834646
          },
          {
            "number": 2,
            "time": 236.9814023333464,
            "value": 0.8661417322834646
          },
          {
            "number": 2,
            "time": 236.98304706667975,
            "value": 0.8582677165354331
          },
          {
            "number": 2,
            "time": 236.98469180001308,
            "value": 0.8582677165354331
          },
          {
            "number": 2,
            "time": 236.98633653334642,
            "value": 0.8503937007874016
          },
          {
            "number": 2,
            "time": 236.98798126667975,
            "value": 0.8503937007874016
          },
          {
            "number": 2,
            "time": 236.9896260000131,
            "value": 0.8503937007874016
          },
          {
            "number": 2,
            "time": 236.99127073334643,
            "value": 0.84251968503937
          },
          {
            "number": 2,
            "time": 236.99291546667976,
            "value": 0.84251968503937
          },
          {
            "number": 2,
            "time": 236.9945602000131,
            "value": 0.8346456692913385
          },
          {
            "number": 2,
            "time": 236.99620493334643,
            "value": 0.8346456692913385
          },
          {
            "number": 2,
            "time": 236.99784966667977,
            "value": 0.8346456692913385
          },
          {
            "number": 2,
            "time": 236.9994944000131,
            "value": 0.8267716535433071
          },
          {
            "number": 2,
            "time": 237.00113913334644,
            "value": 0.8267716535433071
          },
          {
            "number": 2,
            "time": 237.00278386667978,
            "value": 0.8188976377952756
          },
          {
            "number": 2,
            "time": 237.0044286000131,
            "value": 0.8188976377952756
          },
          {
            "number": 2,
            "time": 237.00607333334645,
            "value": 0.8188976377952756
          },
          {
            "number": 2,
            "time": 237.0077180666798,
            "value": 0.8110236220472441
          },
          {
            "number": 2,
            "time": 237.00936280001312,
            "value": 0.8110236220472441
          },
          {
            "number": 2,
            "time": 237.01100753334646,
            "value": 0.8031496062992126
          },
          {
            "number": 2,
            "time": 237.0126522666798,
            "value": 0.8031496062992126
          },
          {
            "number": 2,
            "time": 237.01429700001313,
            "value": 0.8031496062992126
          },
          {
            "number": 2,
            "time": 237.01594173334647,
            "value": 0.7952755905511811
          },
          {
            "number": 2,
            "time": 237.0175864666798,
            "value": 0.7952755905511811
          },
          {
            "number": 2,
            "time": 237.01923120001314,
            "value": 0.7874015748031497
          },
          {
            "number": 2,
            "time": 237.02087593334647,
            "value": 0.7874015748031497
          },
          {
            "number": 2,
            "time": 237.0225206666798,
            "value": 0.7874015748031497
          },
          {
            "number": 2,
            "time": 237.02416540001315,
            "value": 0.7795275590551181
          },
          {
            "number": 2,
            "time": 237.02581013334648,
            "value": 0.7795275590551181
          },
          {
            "number": 2,
            "time": 237.02745486667982,
            "value": 0.7716535433070866
          },
          {
            "number": 2,
            "time": 237.02909960001315,
            "value": 0.7716535433070866
          },
          {
            "number": 2,
            "time": 237.0307443333465,
            "value": 0.7716535433070866
          },
          {
            "number": 2,
            "time": 237.03238906667983,
            "value": 0.7637795275590551
          },
          {
            "number": 2,
            "time": 237.03403380001316,
            "value": 0.7637795275590551
          },
          {
            "number": 2,
            "time": 237.0356785333465,
            "value": 0.7559055118110236
          },
          {
            "number": 2,
            "time": 237.03732326667983,
            "value": 0.7559055118110236
          }
        ],
        "7": [
          {
            "number": 7,
            "time": 0,
            "value": 0.7874015748031497
          },
          {
            "number": 7,
            "time": 0,
            "value": 0.7874015748031497
          },
          {
            "number": 7,
            "time": 0,
            "value": 0.7874015748031497
          }
        ],
        "10": [
          {
            "number": 10,
            "time": 0,
            "value": 0.49606299212598426
          },
          {
            "number": 10,
            "time": 0,
            "value": 0.5039370078740157
          },
          {
            "number": 10,
            "time": 0,
            "value": 0.5039370078740157
          }
        ],
        "91": [
          {
            "number": 91,
            "time": 0,
            "value": 0
          },
          {
            "number": 91,
            "time": 0,
            "value": 0
          },
          {
            "number": 91,
            "time": 0,
            "value": 0
          }
        ],
        "93": [
          {
            "number": 93,
            "time": 0,
            "value": 0
          },
          {
            "number": 93,
            "time": 0,
            "value": 0
          },
          {
            "number": 93,
            "time": 0,
            "value": 0
          }
        ],
        "121": [
          {
            "number": 121,
            "time": 0,
            "value": 0
          },
          {
            "number": 121,
            "time": 0,
            "value": 0
          },
          {
            "number": 121,
            "time": 0,
            "value": 0
          }
        ]
      },
      "id": 3,
      "name": "Violoncello",
      "instrumentNumber": 44,
      "instrumentFamily": "drums",
      "channelNumber": 10,
      "isPercussion": true
    }
  ]
}