{
  "header": {
    "PPQ": 480,
    "timeSignature": [
      4,
      4
    ],
    "bpm": 76.00016213367923,
    "name": ""
  },
  "tempo": [
    {
      "absoluteTime": 0,
      "seconds": 0,
      "bpm": 76.00016213367923
    }
  ],
  "timeSignature": [
    {
      "absoluteTime": 0,
      "seconds": 0,
      "numerator": 4,
      "denominator": 2,
      "click": 24,
      "notesQ": 8
    }
  ],
  "startTime": 0,
  "duration": 78.83700286666665,
  "tracks": [
    {
      "startTime": 0,
      "duration": 78.83700286666665,
      "length": 192,
      "notes": [
        {
          "name": "G5",
          "midi": 79,
          "time": 0,
          "velocity": 0.6299212598425197,
          "duration": 0.7483536666666666
        },
        {
          "name": "A5",
          "midi": 81,
          "time": 0,
          "velocity": 0.6299212598425197,
          "duration": 0.7483536666666666
        },
        {
          "name": "E6",
          "midi": 88,
          "time": 0,
          "velocity": 0.6299212598425197,
          "duration": 0.7483536666666666
        },
        {
          "name": "A4",
          "midi": 69,
          "time": 0.789472,
          "velocity": 0.6299212598425197,
          "duration": 1.1233528666666666
        },
        {
          "name": "C5",
          "midi": 72,
          "time": 0.789472,
          "velocity": 0.6299212598425197,
          "duration": 1.1233528666666666
        },
        {
          "name": "G5",
          "midi": 79,
          "time": 0.789472,
          "velocity": 0.6299212598425197,
          "duration": 1.1233528666666666
        },
        {
          "name": "C4",
          "midi": 60,
          "time": 1.9736799999999999,
          "velocity": 0.6299212598425197,
          "duration": 0.3733544666666666
        },
        {
          "name": "C5",
          "midi": 72,
          "time": 1.9736799999999999,
          "velocity": 0.6299212598425197,
          "duration": 0.3733544666666666
        },
        {
          "name": "D4",
          "midi": 62,
          "time": 2.368416,
          "velocity": 0.6299212598425197,
          "duration": 0.3733544666666666
        },
        {
          "name": "D5",
          "midi": 74,
          "time": 2.368416,
          "velocity": 0.6299212598425197,
          "duration": 0.3733544666666666
        },
        {
          "name": "E4",
          "midi": 64,
          "time": 2.763152,
          "velocity": 0.6299212598425197,
          "duration": 0.3733544666666666
        },
        {
          "name": "E5",
          "midi": 76,
          "time": 2.763152,
          "velocity": 0.6299212598425197,
          "duration": 0.3733544666666666
        },
        {
          "name": "A4",
          "midi": 69,
          "time": 3.157888,
          "velocity": 0.6299212598425197,
          "duration": 0.7483536666666666
        },
        {
          "name": "E5",
          "midi": 76,
          "time": 3.157888,
          "velocity": 0.6299212598425197,
          "duration": 0.7483536666666666
        },
        {
          "name": "D4",
          "midi": 62,
          "time": 3.9473599999999998,
          "velocity": 0.6299212598425197,
          "duration": 1.4983520666666665
        },
        {
          "name": "G4",
          "midi": 67,
          "time": 3.9473599999999998,
          "velocity": 0.6299212598425197,
          "duration": 1.4983520666666665
        },
        {
          "name": "D4",
          "midi": 62,
          "time": 5.526304,
          "velocity": 0.6299212598425197,
          "duration": 0.7483536666666666
        },
        {
          "name": "F4",
          "midi": 65,
          "time": 5.526304,
          "velocity": 0.6299212598425197,
          "duration": 0.7483536666666666
        },
        {
          "name": "E4",
          "midi": 64,
          "time": 6.315776,
          "velocity": 0.6299212598425197,
          "duration": 0.394736
        },
        {
          "name": "E5",
          "midi": 76,
          "time": 6.315776,
          "velocity": 0.6299212598425197,
          "duration": 1.123352866666667
        },
        {
          "name": "F5",
          "midi": 77,
          "time": 7.4999839999999995,
          "velocity": 0.6299212598425197,
          "duration": 0.37335446666666705
        },
        {
          "name": "E5",
          "midi": 76,
          "time": 7.8947199999999995,
          "velocity": 0.6299212598425197,
          "duration": 1.1233528666666661
        },
        {
          "name": "F5",
          "midi": 77,
          "time": 9.078928,
          "velocity": 0.6299212598425197,
          "duration": 0.37335446666666705
        },
        {
          "name": "E5",
          "midi": 76,
          "time": 9.473664,
          "velocity": 0.6299212598425197,
          "duration": 0.37335446666666705
        },
        {
          "name": "C5",
          "midi": 72,
          "time": 9.8684,
          "velocity": 0.6299212598425197,
          "duration": 0.37335446666666705
        },
        {
          "name": "F5",
          "midi": 77,
          "time": 10.263136,
          "velocity": 0.6299212598425197,
          "duration": 0.37335446666666705
        },
        {
          "name": "C5",
          "midi": 72,
          "time": 10.657872,
          "velocity": 0.6299212598425197,
          "duration": 0.7483536666666666
        },
        {
          "name": "E5",
          "midi": 76,
          "time": 10.657872,
          "velocity": 0.6299212598425197,
          "duration": 0.7483536666666666
        },
        {
          "name": "C4",
          "midi": 60,
          "time": 11.447344,
          "velocity": 0.6299212598425197,
          "duration": 0.37335446666666705
        },
        {
          "name": "E4",
          "midi": 64,
          "time": 11.84208,
          "velocity": 0.6299212598425197,
          "duration": 0.37335446666666705
        },
        {
          "name": "B4",
          "midi": 71,
          "time": 12.236816,
          "velocity": 0.6299212598425197,
          "duration": 0.37335446666666705
        },
        {
          "name": "A4",
          "midi": 69,
          "time": 12.631552,
          "velocity": 0.6299212598425197,
          "duration": 0.37335446666666705
        },
        {
          "name": "E5",
          "midi": 76,
          "time": 13.026288,
          "velocity": 0.6299212598425197,
          "duration": 0.37335446666666705
        },
        {
          "name": "E6",
          "midi": 88,
          "time": 13.026288,
          "velocity": 0.6299212598425197,
          "duration": 0.37335446666666705
        },
        {
          "name": "D5",
          "midi": 74,
          "time": 13.421024,
          "velocity": 0.6299212598425197,
          "duration": 0.37335446666666705
        },
        {
          "name": "D6",
          "midi": 86,
          "time": 13.421024,
          "velocity": 0.6299212598425197,
          "duration": 0.37335446666666705
        },
        {
          "name": "C5",
          "midi": 72,
          "time": 13.81576,
          "velocity": 0.6299212598425197,
          "duration": 0.37335446666666705
        },
        {
          "name": "C6",
          "midi": 84,
          "time": 13.81576,
          "velocity": 0.6299212598425197,
          "duration": 0.37335446666666705
        },
        {
          "name": "D5",
          "midi": 74,
          "time": 14.210496,
          "velocity": 0.6299212598425197,
          "duration": 0.7483536666666666
        },
        {
          "name": "D6",
          "midi": 86,
          "time": 14.210496,
          "velocity": 0.6299212598425197,
          "duration": 0.7483536666666666
        },
        {
          "name": "G5",
          "midi": 79,
          "time": 14.999967999999999,
          "velocity": 0.6299212598425197,
          "duration": 0.7483536666666666
        },
        {
          "name": "G6",
          "midi": 91,
          "time": 14.999967999999999,
          "velocity": 0.6299212598425197,
          "duration": 0.7483536666666666
        },
        {
          "name": "E5",
          "midi": 76,
          "time": 15.789439999999999,
          "velocity": 0.6299212598425197,
          "duration": 0.7483536666666666
        },
        {
          "name": "E6",
          "midi": 88,
          "time": 15.789439999999999,
          "velocity": 0.6299212598425197,
          "duration": 0.7483536666666666
        },
        {
          "name": "F5",
          "midi": 77,
          "time": 16.578912,
          "velocity": 0.6299212598425197,
          "duration": 0.7483536666666666
        },
        {
          "name": "F6",
          "midi": 89,
          "time": 16.578912,
          "velocity": 0.6299212598425197,
          "duration": 0.7483536666666666
        },
        {
          "name": "E5",
          "midi": 76,
          "time": 17.368384,
          "velocity": 0.6299212598425197,
          "duration": 1.4983520666666656
        },
        {
          "name": "E6",
          "midi": 88,
          "time": 17.368384,
          "velocity": 0.6299212598425197,
          "duration": 1.4983520666666656
        },
        {
          "name": "E5",
          "midi": 76,
          "time": 18.947328,
          "velocity": 0.6299212598425197,
          "duration": 1.123352866666668
        },
        {
          "name": "F5",
          "midi": 77,
          "time": 20.131536,
          "velocity": 0.6299212598425197,
          "duration": 0.3733544666666653
        },
        {
          "name": "E5",
          "midi": 76,
          "time": 20.526272,
          "velocity": 0.6299212598425197,
          "duration": 1.123352866666668
        },
        {
          "name": "F5",
          "midi": 77,
          "time": 21.71048,
          "velocity": 0.6299212598425197,
          "duration": 0.3733544666666653
        },
        {
          "name": "E5",
          "midi": 76,
          "time": 22.105216,
          "velocity": 0.6299212598425197,
          "duration": 0.7483536666666666
        },
        {
          "name": "E5",
          "midi": 76,
          "time": 22.894688,
          "velocity": 0.6299212598425197,
          "duration": 0.3733544666666653
        },
        {
          "name": "B5",
          "midi": 83,
          "time": 22.894688,
          "velocity": 0.6299212598425197,
          "duration": 0.3733544666666653
        },
        {
          "name": "C#5",
          "midi": 73,
          "time": 23.289423999999997,
          "velocity": 0.6299212598425197,
          "duration": 0.7483536666666666
        },
        {
          "name": "A5",
          "midi": 81,
          "time": 23.289423999999997,
          "velocity": 0.6299212598425197,
          "duration": 0.7483536666666666
        },
        {
          "name": "E4",
          "midi": 64,
          "time": 24.078895999999997,
          "velocity": 0.6299212598425197,
          "duration": 0.3733544666666653
        },
        {
          "name": "A4",
          "midi": 69,
          "time": 24.473631999999995,
          "velocity": 0.6299212598425197,
          "duration": 0.3733544666666653
        },
        {
          "name": "E5",
          "midi": 76,
          "time": 24.868367999999993,
          "velocity": 0.6299212598425197,
          "duration": 0.3733544666666653
        },
        {
          "name": "A5",
          "midi": 81,
          "time": 25.657839999999993,
          "velocity": 0.6299212598425197,
          "duration": 0.3733544666666653
        },
        {
          "name": "A6",
          "midi": 93,
          "time": 25.657839999999993,
          "velocity": 0.6299212598425197,
          "duration": 0.3733544666666653
        },
        {
          "name": "G5",
          "midi": 79,
          "time": 26.05257599999999,
          "velocity": 0.6299212598425197,
          "duration": 0.3733544666666653
        },
        {
          "name": "G6",
          "midi": 91,
          "time": 26.05257599999999,
          "velocity": 0.6299212598425197,
          "duration": 0.3733544666666653
        },
        {
          "name": "A5",
          "midi": 81,
          "time": 26.44731199999999,
          "velocity": 0.6299212598425197,
          "duration": 0.3733544666666653
        },
        {
          "name": "A6",
          "midi": 93,
          "time": 26.44731199999999,
          "velocity": 0.6299212598425197,
          "duration": 0.3733544666666653
        },
        {
          "name": "B5",
          "midi": 83,
          "time": 26.842047999999988,
          "velocity": 0.6299212598425197,
          "duration": 0.7483536666666666
        },
        {
          "name": "B6",
          "midi": 95,
          "time": 26.842047999999988,
          "velocity": 0.6299212598425197,
          "duration": 0.7483536666666666
        },
        {
          "name": "G5",
          "midi": 79,
          "time": 27.631519999999988,
          "velocity": 0.6299212598425197,
          "duration": 0.7483536666666666
        },
        {
          "name": "G6",
          "midi": 91,
          "time": 27.631519999999988,
          "velocity": 0.6299212598425197,
          "duration": 0.7483536666666666
        },
        {
          "name": "A5",
          "midi": 81,
          "time": 28.420991999999988,
          "velocity": 0.6299212598425197,
          "duration": 0.5608540666666677
        },
        {
          "name": "A6",
          "midi": 93,
          "time": 28.420991999999988,
          "velocity": 0.6299212598425197,
          "duration": 0.5608540666666677
        },
        {
          "name": "G5",
          "midi": 79,
          "time": 29.01309599999999,
          "velocity": 0.6299212598425197,
          "duration": 0.1858548666666664
        },
        {
          "name": "G6",
          "midi": 91,
          "time": 29.01309599999999,
          "velocity": 0.6299212598425197,
          "duration": 0.1858548666666664
        },
        {
          "name": "A5",
          "midi": 81,
          "time": 29.21046399999999,
          "velocity": 0.6299212598425197,
          "duration": 2.2483504666666683
        },
        {
          "name": "A6",
          "midi": 93,
          "time": 29.21046399999999,
          "velocity": 0.6299212598425197,
          "duration": 2.2483504666666683
        },
        {
          "name": "A3",
          "midi": 57,
          "time": 31.57887999999999,
          "velocity": 0.6299212598425197,
          "duration": 0.3733544666666653
        },
        {
          "name": "E4",
          "midi": 64,
          "time": 31.97361599999999,
          "velocity": 0.6299212598425197,
          "duration": 0.3733544666666653
        },
        {
          "name": "D4",
          "midi": 62,
          "time": 32.36835199999999,
          "velocity": 0.6299212598425197,
          "duration": 0.3733544666666688
        },
        {
          "name": "C4",
          "midi": 60,
          "time": 32.76308799999999,
          "velocity": 0.6299212598425197,
          "duration": 0.3733544666666688
        },
        {
          "name": "D4",
          "midi": 62,
          "time": 33.15782399999999,
          "velocity": 0.6299212598425197,
          "duration": 1.1233528666666643
        },
        {
          "name": "G4",
          "midi": 67,
          "time": 33.15782399999999,
          "velocity": 0.6299212598425197,
          "duration": 1.1233528666666643
        },
        {
          "name": "A4",
          "midi": 69,
          "time": 34.34203199999999,
          "velocity": 0.6299212598425197,
          "duration": 0.3733544666666688
        },
        {
          "name": "B3",
          "midi": 59,
          "time": 34.73676799999999,
          "velocity": 0.6299212598425197,
          "duration": 0.7483536666666666
        },
        {
          "name": "D4",
          "midi": 62,
          "time": 34.73676799999999,
          "velocity": 0.6299212598425197,
          "duration": 0.7483536666666666
        },
        {
          "name": "C4",
          "midi": 60,
          "time": 35.52623999999999,
          "velocity": 0.6299212598425197,
          "duration": 2.2483504666666647
        },
        {
          "name": "E4",
          "midi": 64,
          "time": 35.52623999999999,
          "velocity": 0.6299212598425197,
          "duration": 2.2483504666666647
        },
        {
          "name": "A4",
          "midi": 69,
          "time": 37.89465599999998,
          "velocity": 0.6299212598425197,
          "duration": 0.3733544666666688
        },
        {
          "name": "E5",
          "midi": 76,
          "time": 38.289391999999985,
          "velocity": 0.6299212598425197,
          "duration": 0.3733544666666688
        },
        {
          "name": "D5",
          "midi": 74,
          "time": 38.68412799999999,
          "velocity": 0.6299212598425197,
          "duration": 0.3733544666666688
        },
        {
          "name": "C5",
          "midi": 72,
          "time": 39.07886399999999,
          "velocity": 0.6299212598425197,
          "duration": 0.3733544666666688
        },
        {
          "name": "D5",
          "midi": 74,
          "time": 39.47359999999999,
          "velocity": 0.6299212598425197,
          "duration": 0.7483536666666666
        },
        {
          "name": "G5",
          "midi": 79,
          "time": 40.26307199999999,
          "velocity": 0.6299212598425197,
          "duration": 0.7483536666666666
        },
        {
          "name": "A4",
          "midi": 69,
          "time": 41.05254399999998,
          "velocity": 0.6299212598425197,
          "duration": 0.7483536666666666
        },
        {
          "name": "D5",
          "midi": 74,
          "time": 41.05254399999998,
          "velocity": 0.6299212598425197,
          "duration": 0.7483536666666666
        },
        {
          "name": "E5",
          "midi": 76,
          "time": 41.05254399999998,
          "velocity": 0.6299212598425197,
          "duration": 0.7483536666666666
        },
        {
          "name": "A4",
          "midi": 69,
          "time": 41.84201599999998,
          "velocity": 0.6299212598425197,
          "duration": 2.2483504666666647
        },
        {
          "name": "C5",
          "midi": 72,
          "time": 41.84201599999998,
          "velocity": 0.6299212598425197,
          "duration": 2.2483504666666647
        },
        {
          "name": "E5",
          "midi": 76,
          "time": 41.84201599999998,
          "velocity": 0.6299212598425197,
          "duration": 2.2483504666666647
        },
        {
          "name": "A5",
          "midi": 81,
          "time": 41.84201599999998,
          "velocity": 0.6299212598425197,
          "duration": 2.2483504666666647
        },
        {
          "name": "F4",
          "midi": 65,
          "time": 44.210431999999976,
          "velocity": 0.6299212598425197,
          "duration": 0.3733544666666688
        },
        {
          "name": "A4",
          "midi": 69,
          "time": 44.210431999999976,
          "velocity": 0.6299212598425197,
          "duration": 0.3733544666666688
        },
        {
          "name": "C5",
          "midi": 72,
          "time": 44.210431999999976,
          "velocity": 0.6299212598425197,
          "duration": 0.3733544666666688
        },
        {
          "name": "E5",
          "midi": 76,
          "time": 44.210431999999976,
          "velocity": 0.6299212598425197,
          "duration": 0.3733544666666688
        },
        {
          "name": "A5",
          "midi": 81,
          "time": 44.60516799999998,
          "velocity": 0.6299212598425197,
          "duration": 0.3733544666666688
        },
        {
          "name": "G5",
          "midi": 79,
          "time": 44.99990399999998,
          "velocity": 0.6299212598425197,
          "duration": 0.3733544666666688
        },
        {
          "name": "A5",
          "midi": 81,
          "time": 45.39463999999998,
          "velocity": 0.6299212598425197,
          "duration": 0.3733544666666688
        },
        {
          "name": "B4",
          "midi": 71,
          "time": 45.78937599999998,
          "velocity": 0.6299212598425197,
          "duration": 1.1233528666666643
        },
        {
          "name": "D5",
          "midi": 74,
          "time": 45.78937599999998,
          "velocity": 0.6299212598425197,
          "duration": 1.1233528666666643
        },
        {
          "name": "G5",
          "midi": 79,
          "time": 45.78937599999998,
          "velocity": 0.6299212598425197,
          "duration": 1.1233528666666643
        },
        {
          "name": "B5",
          "midi": 83,
          "time": 45.78937599999998,
          "velocity": 0.6299212598425197,
          "duration": 1.1233528666666643
        },
        {
          "name": "G5",
          "midi": 79,
          "time": 46.97358399999998,
          "velocity": 0.6299212598425197,
          "duration": 0.3733544666666688
        },
        {
          "name": "A4",
          "midi": 69,
          "time": 47.36831999999998,
          "velocity": 0.6299212598425197,
          "duration": 1.1233528666666643
        },
        {
          "name": "C#5",
          "midi": 73,
          "time": 47.36831999999998,
          "velocity": 0.6299212598425197,
          "duration": 1.1233528666666643
        },
        {
          "name": "A5",
          "midi": 81,
          "time": 47.36831999999998,
          "velocity": 0.6299212598425197,
          "duration": 1.1233528666666643
        },
        {
          "name": "G5",
          "midi": 79,
          "time": 48.55252799999998,
          "velocity": 0.6299212598425197,
          "duration": 0.3733544666666688
        },
        {
          "name": "C5",
          "midi": 72,
          "time": 48.94726399999998,
          "velocity": 0.6299212598425197,
          "duration": 1.1233528666666643
        },
        {
          "name": "A5",
          "midi": 81,
          "time": 48.94726399999998,
          "velocity": 0.6299212598425197,
          "duration": 1.1233528666666643
        },
        {
          "name": "G5",
          "midi": 79,
          "time": 50.13147199999998,
          "velocity": 0.6299212598425197,
          "duration": 0.12335499999999655
        },
        {
          "name": "A5",
          "midi": 81,
          "time": 50.26305066666664,
          "velocity": 0.6299212598425197,
          "duration": 0.12335499999999655
        },
        {
          "name": "G5",
          "midi": 79,
          "time": 50.394629333333306,
          "velocity": 0.6299212598425197,
          "duration": 0.12335499999999655
        },
        {
          "name": "E5",
          "midi": 76,
          "time": 50.52620799999997,
          "velocity": 0.6299212598425197,
          "duration": 1.4983520666666692
        },
        {
          "name": "E5",
          "midi": 76,
          "time": 52.10515199999997,
          "velocity": 0.6299212598425197,
          "duration": 1.498352066666662
        },
        {
          "name": "C5",
          "midi": 72,
          "time": 52.10515199999997,
          "velocity": 0.6299212598425197,
          "duration": 0.7483536666666666
        },
        {
          "name": "B4",
          "midi": 71,
          "time": 52.894623999999965,
          "velocity": 0.6299212598425197,
          "duration": 0.7483536666666666
        },
        {
          "name": "E5",
          "midi": 76,
          "time": 53.68409599999996,
          "velocity": 0.6299212598425197,
          "duration": 1.1233528666666643
        },
        {
          "name": "E6",
          "midi": 88,
          "time": 53.68409599999996,
          "velocity": 0.6299212598425197,
          "duration": 1.1233528666666643
        },
        {
          "name": "F5",
          "midi": 77,
          "time": 54.86830399999996,
          "velocity": 0.6299212598425197,
          "duration": 0.3733544666666688
        },
        {
          "name": "F6",
          "midi": 89,
          "time": 54.86830399999996,
          "velocity": 0.6299212598425197,
          "duration": 0.3733544666666688
        },
        {
          "name": "E5",
          "midi": 76,
          "time": 55.26303999999996,
          "velocity": 0.6299212598425197,
          "duration": 1.1233528666666643
        },
        {
          "name": "E6",
          "midi": 88,
          "time": 55.26303999999996,
          "velocity": 0.6299212598425197,
          "duration": 1.1233528666666643
        },
        {
          "name": "F5",
          "midi": 77,
          "time": 56.44724799999996,
          "velocity": 0.6299212598425197,
          "duration": 0.3733544666666688
        },
        {
          "name": "F6",
          "midi": 89,
          "time": 56.44724799999996,
          "velocity": 0.6299212598425197,
          "duration": 0.3733544666666688
        },
        {
          "name": "E5",
          "midi": 76,
          "time": 56.84198399999996,
          "velocity": 0.6299212598425197,
          "duration": 0.7483536666666666
        },
        {
          "name": "E6",
          "midi": 88,
          "time": 56.84198399999996,
          "velocity": 0.6299212598425197,
          "duration": 0.7483536666666666
        },
        {
          "name": "F5",
          "midi": 77,
          "time": 57.63145599999996,
          "velocity": 0.6299212598425197,
          "duration": 0.3733544666666688
        },
        {
          "name": "F6",
          "midi": 89,
          "time": 57.63145599999996,
          "velocity": 0.6299212598425197,
          "duration": 0.3733544666666688
        },
        {
          "name": "E5",
          "midi": 76,
          "time": 58.02619199999996,
          "velocity": 0.6299212598425197,
          "duration": 0.7483536666666666
        },
        {
          "name": "E6",
          "midi": 88,
          "time": 58.02619199999996,
          "velocity": 0.6299212598425197,
          "duration": 0.7483536666666666
        },
        {
          "name": "C4",
          "midi": 60,
          "time": 58.815663999999956,
          "velocity": 0.6299212598425197,
          "duration": 0.7088800666666657
        },
        {
          "name": "E4",
          "midi": 64,
          "time": 59.21039999999996,
          "velocity": 0.6299212598425197,
          "duration": 0.3733544666666617
        },
        {
          "name": "B4",
          "midi": 71,
          "time": 59.60513599999995,
          "velocity": 0.6299212598425197,
          "duration": 0.3733544666666688
        },
        {
          "name": "A4",
          "midi": 69,
          "time": 59.999871999999954,
          "velocity": 0.6299212598425197,
          "duration": 0.3733544666666688
        },
        {
          "name": "E5",
          "midi": 76,
          "time": 60.394607999999955,
          "velocity": 0.6299212598425197,
          "duration": 0.3733544666666688
        },
        {
          "name": "E6",
          "midi": 88,
          "time": 60.394607999999955,
          "velocity": 0.6299212598425197,
          "duration": 0.3733544666666688
        },
        {
          "name": "D5",
          "midi": 74,
          "time": 60.78934399999996,
          "velocity": 0.6299212598425197,
          "duration": 0.3733544666666688
        },
        {
          "name": "D6",
          "midi": 86,
          "time": 60.78934399999996,
          "velocity": 0.6299212598425197,
          "duration": 0.3733544666666688
        },
        {
          "name": "C5",
          "midi": 72,
          "time": 61.18407999999996,
          "velocity": 0.6299212598425197,
          "duration": 0.3733544666666688
        },
        {
          "name": "C6",
          "midi": 84,
          "time": 61.18407999999996,
          "velocity": 0.6299212598425197,
          "duration": 0.3733544666666688
        },
        {
          "name": "D5",
          "midi": 74,
          "time": 61.57881599999996,
          "velocity": 0.6299212598425197,
          "duration": 0.7483536666666666
        },
        {
          "name": "D6",
          "midi": 86,
          "time": 61.57881599999996,
          "velocity": 0.6299212598425197,
          "duration": 0.7483536666666666
        },
        {
          "name": "G5",
          "midi": 79,
          "time": 62.36828799999996,
          "velocity": 0.6299212598425197,
          "duration": 0.7483536666666666
        },
        {
          "name": "G6",
          "midi": 91,
          "time": 62.36828799999996,
          "velocity": 0.6299212598425197,
          "duration": 0.7483536666666666
        },
        {
          "name": "E5",
          "midi": 76,
          "time": 63.15775999999995,
          "velocity": 0.6299212598425197,
          "duration": 0.7483536666666666
        },
        {
          "name": "E6",
          "midi": 88,
          "time": 63.15775999999995,
          "velocity": 0.6299212598425197,
          "duration": 0.7483536666666666
        },
        {
          "name": "F5",
          "midi": 77,
          "time": 63.94723199999995,
          "velocity": 0.6299212598425197,
          "duration": 0.7483536666666666
        },
        {
          "name": "F6",
          "midi": 89,
          "time": 63.94723199999995,
          "velocity": 0.6299212598425197,
          "duration": 0.7483536666666666
        },
        {
          "name": "E5",
          "midi": 76,
          "time": 64.73670399999995,
          "velocity": 0.6299212598425197,
          "duration": 1.4983520666666692
        },
        {
          "name": "E6",
          "midi": 88,
          "time": 64.73670399999995,
          "velocity": 0.6299212598425197,
          "duration": 1.4983520666666692
        },
        {
          "name": "E5",
          "midi": 76,
          "time": 66.31564799999995,
          "velocity": 0.6299212598425197,
          "duration": 1.1233528666666643
        },
        {
          "name": "C6",
          "midi": 84,
          "time": 66.31564799999995,
          "velocity": 0.6299212598425197,
          "duration": 1.1233528666666643
        },
        {
          "name": "E6",
          "midi": 88,
          "time": 66.31564799999995,
          "velocity": 0.6299212598425197,
          "duration": 1.1233528666666643
        },
        {
          "name": "F5",
          "midi": 77,
          "time": 67.49985599999995,
          "velocity": 0.6299212598425197,
          "duration": 0.3733544666666688
        },
        {
          "name": "F6",
          "midi": 89,
          "time": 67.49985599999995,
          "velocity": 0.6299212598425197,
          "duration": 0.3733544666666688
        },
        {
          "name": "E5",
          "midi": 76,
          "time": 67.89459199999996,
          "velocity": 0.6299212598425197,
          "duration": 1.1233528666666643
        },
        {
          "name": "B5",
          "midi": 83,
          "time": 67.89459199999996,
          "velocity": 0.6299212598425197,
          "duration": 1.1233528666666643
        },
        {
          "name": "E6",
          "midi": 88,
          "time": 67.89459199999996,
          "velocity": 0.6299212598425197,
          "duration": 1.1233528666666643
        },
        {
          "name": "F5",
          "midi": 77,
          "time": 69.07879999999996,
          "velocity": 0.6299212598425197,
          "duration": 0.3733544666666688
        },
        {
          "name": "E5",
          "midi": 76,
          "time": 69.47353599999997,
          "velocity": 0.6299212598425197,
          "duration": 0.7483536666666737
        },
        {
          "name": "B5",
          "midi": 83,
          "time": 70.26300799999997,
          "velocity": 0.6299212598425197,
          "duration": 0.3733544666666688
        },
        {
          "name": "B6",
          "midi": 95,
          "time": 70.26300799999997,
          "velocity": 0.6299212598425197,
          "duration": 0.3733544666666688
        },
        {
          "name": "A5",
          "midi": 81,
          "time": 70.65774399999998,
          "velocity": 0.6299212598425197,
          "duration": 1.1233528666666643
        },
        {
          "name": "A6",
          "midi": 93,
          "time": 70.65774399999998,
          "velocity": 0.6299212598425197,
          "duration": 1.1233528666666643
        },
        {
          "name": "E6",
          "midi": 88,
          "time": 71.84195199999998,
          "velocity": 0.6299212598425197,
          "duration": 0.7878272666666533
        },
        {
          "name": "A6",
          "midi": 93,
          "time": 71.9077413333333,
          "velocity": 0.6299212598425197,
          "duration": 0.7203931999999895
        },
        {
          "name": "E7",
          "midi": 100,
          "time": 71.97353066666663,
          "velocity": 0.6299212598425197,
          "duration": 0.6546038666666618
        },
        {
          "name": "A5",
          "midi": 81,
          "time": 73.02615999999996,
          "velocity": 0.6299212598425197,
          "duration": 0.3733544666666688
        },
        {
          "name": "A6",
          "midi": 93,
          "time": 73.02615999999996,
          "velocity": 0.6299212598425197,
          "duration": 0.3733544666666688
        },
        {
          "name": "G5",
          "midi": 79,
          "time": 73.42089599999997,
          "velocity": 0.6299212598425197,
          "duration": 0.3733544666666688
        },
        {
          "name": "G6",
          "midi": 91,
          "time": 73.42089599999997,
          "velocity": 0.6299212598425197,
          "duration": 0.3733544666666688
        },
        {
          "name": "A5",
          "midi": 81,
          "time": 73.81563199999998,
          "velocity": 0.6299212598425197,
          "duration": 0.3733544666666688
        },
        {
          "name": "A6",
          "midi": 93,
          "time": 73.81563199999998,
          "velocity": 0.6299212598425197,
          "duration": 0.3733544666666688
        },
        {
          "name": "B5",
          "midi": 83,
          "time": 74.21036799999999,
          "velocity": 0.6299212598425197,
          "duration": 0.7483536666666737
        },
        {
          "name": "B6",
          "midi": 95,
          "time": 74.21036799999999,
          "velocity": 0.6299212598425197,
          "duration": 0.7483536666666737
        },
        {
          "name": "G5",
          "midi": 79,
          "time": 74.99983999999999,
          "velocity": 0.6299212598425197,
          "duration": 0.7483536666666595
        },
        {
          "name": "G6",
          "midi": 91,
          "time": 74.99983999999999,
          "velocity": 0.6299212598425197,
          "duration": 0.7483536666666595
        },
        {
          "name": "A5",
          "midi": 81,
          "time": 75.78931199999998,
          "velocity": 0.6299212598425197,
          "duration": 0.7483536666666595
        },
        {
          "name": "A6",
          "midi": 93,
          "time": 75.78931199999998,
          "velocity": 0.6299212598425197,
          "duration": 0.7483536666666595
        },
        {
          "name": "G5",
          "midi": 79,
          "time": 76.57878399999997,
          "velocity": 0.6299212598425197,
          "duration": 0.1858548666666735
        },
        {
          "name": "G6",
          "midi": 91,
          "time": 76.57878399999997,
          "velocity": 0.6299212598425197,
          "duration": 0.1858548666666735
        },
        {
          "name": "A5",
          "midi": 81,
          "time": 76.77615199999998,
          "velocity": 0.6299212598425197,
          "duration": 2.0608508666666694
        },
        {
          "name": "A6",
          "midi": 93,
          "time": 76.77615199999998,
          "velocity": 0.6299212598425197,
          "duration": 2.0608508666666694
        }
      ],
      "controlChanges": {
        "7": [
          {
            "number": 7,
            "time": 0,
            "value": 0.7874015748031497
          }
        ],
        "10": [
          {
            "number": 10,
            "time": 0,
            "value": 0.5039370078740157
          }
        ],
        "91": [
          {
            "number": 91,
            "time": 0,
            "value": 0
          }
        ],
        "93": [
          {
            "number": 93,
            "time": 0,
            "value": 0
          }
        ],
        "121": [
          {
            "number": 121,
            "time": 0,
            "value": 0
          }
        ]
      },
      "id": 0,
      "name": "Piano",
      "instrumentNumber": 0,
      "instrument": "acoustic grand piano",
      "instrumentFamily": "piano",
      "channelNumber": 0,
      "isPercussion": false
    },
    {
      "startTime": 0,
      "duration": 78.7876608666667,
      "length": 152,
      "notes": [
        {
          "name": "F4",
          "midi": 65,
          "time": 0,
          "velocity": 0.6299212598425197,
          "duration": 0.7483536666666666
        },
        {
          "name": "A#3",
          "midi": 58,
          "time": 0.789472,
          "velocity": 0.6299212598425197,
          "duration": 2.2483504666666665
        },
        {
          "name": "F3",
          "midi": 53,
          "time": 3.157888,
          "velocity": 0.6299212598425197,
          "duration": 0.7483536666666666
        },
        {
          "name": "A3",
          "midi": 57,
          "time": 3.157888,
          "velocity": 0.6299212598425197,
          "duration": 0.7483536666666666
        },
        {
          "name": "C4",
          "midi": 60,
          "time": 3.157888,
          "velocity": 0.6299212598425197,
          "duration": 0.7483536666666666
        },
        {
          "name": "E4",
          "midi": 64,
          "time": 3.157888,
          "velocity": 0.6299212598425197,
          "duration": 0.7483536666666666
        },
        {
          "name": "E3",
          "midi": 52,
          "time": 3.9473599999999998,
          "velocity": 0.6299212598425197,
          "duration": 2.2483504666666665
        },
        {
          "name": "G3",
          "midi": 55,
          "time": 3.9473599999999998,
          "velocity": 0.6299212598425197,
          "duration": 2.2483504666666665
        },
        {
          "name": "B3",
          "midi": 59,
          "time": 3.9473599999999998,
          "velocity": 0.6299212598425197,
          "duration": 2.2483504666666665
        },
        {
          "name": "A3",
          "midi": 57,
          "time": 6.315776,
          "velocity": 0.6299212598425197,
          "duration": 0.37335446666666705
        },
        {
          "name": "E4",
          "midi": 64,
          "time": 6.710512,
          "velocity": 0.6299212598425197,
          "duration": 0.728616866666667
        },
        {
          "name": "C5",
          "midi": 72,
          "time": 7.105248,
          "velocity": 0.6299212598425197,
          "duration": 0.7483536666666666
        },
        {
          "name": "G#3",
          "midi": 56,
          "time": 7.8947199999999995,
          "velocity": 0.6299212598425197,
          "duration": 0.37335446666666705
        },
        {
          "name": "E4",
          "midi": 64,
          "time": 8.289456,
          "velocity": 0.6299212598425197,
          "duration": 0.37335446666666705
        },
        {
          "name": "C5",
          "midi": 72,
          "time": 8.684192,
          "velocity": 0.6299212598425197,
          "duration": 0.7483536666666666
        },
        {
          "name": "G3",
          "midi": 55,
          "time": 9.473664,
          "velocity": 0.6299212598425197,
          "duration": 0.37335446666666705
        },
        {
          "name": "E4",
          "midi": 64,
          "time": 9.8684,
          "velocity": 0.6299212598425197,
          "duration": 0.37335446666666705
        },
        {
          "name": "G3",
          "midi": 55,
          "time": 10.263136,
          "velocity": 0.6299212598425197,
          "duration": 0.37335446666666705
        },
        {
          "name": "F#3",
          "midi": 54,
          "time": 10.657872,
          "velocity": 0.6299212598425197,
          "duration": 0.7483536666666666
        },
        {
          "name": "E4",
          "midi": 64,
          "time": 10.657872,
          "velocity": 0.6299212598425197,
          "duration": 0.7483536666666666
        },
        {
          "name": "F3",
          "midi": 53,
          "time": 12.631552,
          "velocity": 0.6299212598425197,
          "duration": 1.4983520666666656
        },
        {
          "name": "A3",
          "midi": 57,
          "time": 12.631552,
          "velocity": 0.6299212598425197,
          "duration": 1.4983520666666656
        },
        {
          "name": "A#3",
          "midi": 58,
          "time": 14.210495999999997,
          "velocity": 0.6299212598425197,
          "duration": 1.4983520666666674
        },
        {
          "name": "B3",
          "midi": 59,
          "time": 15.789439999999997,
          "velocity": 0.6299212598425197,
          "duration": 0.7878272666666657
        },
        {
          "name": "E3",
          "midi": 52,
          "time": 15.789439999999997,
          "velocity": 0.6299212598425197,
          "duration": 2.9983488666666656
        },
        {
          "name": "G#4",
          "midi": 68,
          "time": 15.85522933333333,
          "velocity": 0.6299212598425197,
          "duration": 0.7203932000000002
        },
        {
          "name": "C4",
          "midi": 60,
          "time": 16.578911999999995,
          "velocity": 0.6299212598425197,
          "duration": 0.7483536666666666
        },
        {
          "name": "B3",
          "midi": 59,
          "time": 17.368383999999995,
          "velocity": 0.6299212598425197,
          "duration": 1.4983520666666656
        },
        {
          "name": "G#4",
          "midi": 68,
          "time": 17.368383999999995,
          "velocity": 0.6299212598425197,
          "duration": 1.4983520666666656
        },
        {
          "name": "F3",
          "midi": 53,
          "time": 18.947327999999995,
          "velocity": 0.6299212598425197,
          "duration": 0.3733544666666653
        },
        {
          "name": "C4",
          "midi": 60,
          "time": 19.342063999999993,
          "velocity": 0.6299212598425197,
          "duration": 0.3733544666666653
        },
        {
          "name": "F4",
          "midi": 65,
          "time": 19.73679999999999,
          "velocity": 0.6299212598425197,
          "duration": 0.7483536666666666
        },
        {
          "name": "A4",
          "midi": 69,
          "time": 19.73679999999999,
          "velocity": 0.6299212598425197,
          "duration": 0.7483536666666666
        },
        {
          "name": "C5",
          "midi": 72,
          "time": 19.73679999999999,
          "velocity": 0.6299212598425197,
          "duration": 0.7483536666666666
        },
        {
          "name": "F3",
          "midi": 53,
          "time": 20.52627199999999,
          "velocity": 0.6299212598425197,
          "duration": 0.3733544666666653
        },
        {
          "name": "B3",
          "midi": 59,
          "time": 20.92100799999999,
          "velocity": 0.6299212598425197,
          "duration": 0.3733544666666653
        },
        {
          "name": "D4",
          "midi": 62,
          "time": 21.315743999999988,
          "velocity": 0.6299212598425197,
          "duration": 0.7483536666666666
        },
        {
          "name": "G#4",
          "midi": 68,
          "time": 21.315743999999988,
          "velocity": 0.6299212598425197,
          "duration": 0.7483536666666666
        },
        {
          "name": "B4",
          "midi": 71,
          "time": 21.315743999999988,
          "velocity": 0.6299212598425197,
          "duration": 0.7483536666666666
        },
        {
          "name": "E3",
          "midi": 52,
          "time": 22.105215999999988,
          "velocity": 0.6299212598425197,
          "duration": 0.3733544666666653
        },
        {
          "name": "D4",
          "midi": 62,
          "time": 22.499951999999986,
          "velocity": 0.6299212598425197,
          "duration": 0.3733544666666653
        },
        {
          "name": "G4",
          "midi": 67,
          "time": 22.894687999999984,
          "velocity": 0.6299212598425197,
          "duration": 0.3733544666666653
        },
        {
          "name": "G4",
          "midi": 67,
          "time": 23.289423999999983,
          "velocity": 0.6299212598425197,
          "duration": 0.7483536666666666
        },
        {
          "name": "F4",
          "midi": 65,
          "time": 25.263103999999984,
          "velocity": 0.6299212598425197,
          "duration": 1.4983520666666656
        },
        {
          "name": "A4",
          "midi": 69,
          "time": 25.263103999999984,
          "velocity": 0.6299212598425197,
          "duration": 1.4983520666666656
        },
        {
          "name": "D#5",
          "midi": 75,
          "time": 25.263103999999984,
          "velocity": 0.6299212598425197,
          "duration": 1.4983520666666656
        },
        {
          "name": "E4",
          "midi": 64,
          "time": 26.842047999999984,
          "velocity": 0.6299212598425197,
          "duration": 0.7483536666666666
        },
        {
          "name": "G4",
          "midi": 67,
          "time": 26.842047999999984,
          "velocity": 0.6299212598425197,
          "duration": 0.7483536666666666
        },
        {
          "name": "B4",
          "midi": 71,
          "time": 26.842047999999984,
          "velocity": 0.6299212598425197,
          "duration": 0.7483536666666666
        },
        {
          "name": "D5",
          "midi": 74,
          "time": 26.842047999999984,
          "velocity": 0.6299212598425197,
          "duration": 0.7483536666666666
        },
        {
          "name": "B4",
          "midi": 71,
          "time": 27.631519999999984,
          "velocity": 0.6299212598425197,
          "duration": 0.7483536666666666
        },
        {
          "name": "D4",
          "midi": 62,
          "time": 28.420991999999984,
          "velocity": 0.6299212598425197,
          "duration": 3.1562432666666673
        },
        {
          "name": "A4",
          "midi": 69,
          "time": 28.48349186666665,
          "velocity": 0.6299212598425197,
          "duration": 3.0920986666666685
        },
        {
          "name": "D5",
          "midi": 74,
          "time": 28.549281199999985,
          "velocity": 0.6299212598425197,
          "duration": 3.0263093333333337
        },
        {
          "name": "F#5",
          "midi": 78,
          "time": 28.618359999999985,
          "velocity": 0.6299212598425197,
          "duration": 2.957230533333334
        },
        {
          "name": "A#2",
          "midi": 46,
          "time": 31.578879999999984,
          "velocity": 0.6299212598425197,
          "duration": 3.156243266666671
        },
        {
          "name": "D3",
          "midi": 50,
          "time": 31.64137986666665,
          "velocity": 0.6299212598425197,
          "duration": 3.0920986666666685
        },
        {
          "name": "F3",
          "midi": 53,
          "time": 31.707169199999985,
          "velocity": 0.6299212598425197,
          "duration": 3.0263093333333337
        },
        {
          "name": "A2",
          "midi": 45,
          "time": 34.73676799999999,
          "velocity": 0.6299212598425197,
          "duration": 2.9983488666666673
        },
        {
          "name": "C3",
          "midi": 48,
          "time": 34.73676799999999,
          "velocity": 0.6299212598425197,
          "duration": 2.9983488666666673
        },
        {
          "name": "E3",
          "midi": 52,
          "time": 34.73676799999999,
          "velocity": 0.6299212598425197,
          "duration": 2.9983488666666673
        },
        {
          "name": "A#3",
          "midi": 58,
          "time": 37.89465599999999,
          "velocity": 0.6299212598425197,
          "duration": 2.9983488666666673
        },
        {
          "name": "D4",
          "midi": 62,
          "time": 37.89465599999999,
          "velocity": 0.6299212598425197,
          "duration": 2.9983488666666673
        },
        {
          "name": "F4",
          "midi": 65,
          "time": 37.89465599999999,
          "velocity": 0.6299212598425197,
          "duration": 2.9983488666666673
        },
        {
          "name": "A3",
          "midi": 57,
          "time": 41.05254399999999,
          "velocity": 0.6299212598425197,
          "duration": 0.7483536666666666
        },
        {
          "name": "C4",
          "midi": 60,
          "time": 41.05254399999999,
          "velocity": 0.6299212598425197,
          "duration": 0.7483536666666666
        },
        {
          "name": "E4",
          "midi": 64,
          "time": 41.05254399999999,
          "velocity": 0.6299212598425197,
          "duration": 0.7483536666666666
        },
        {
          "name": "A3",
          "midi": 57,
          "time": 41.84201599999999,
          "velocity": 0.6299212598425197,
          "duration": 1.4983520666666692
        },
        {
          "name": "C4",
          "midi": 60,
          "time": 41.84201599999999,
          "velocity": 0.6299212598425197,
          "duration": 1.4983520666666692
        },
        {
          "name": "E4",
          "midi": 64,
          "time": 41.84201599999999,
          "velocity": 0.6299212598425197,
          "duration": 1.4983520666666692
        },
        {
          "name": "G3",
          "midi": 55,
          "time": 43.42095999999999,
          "velocity": 0.6299212598425197,
          "duration": 0.7483536666666666
        },
        {
          "name": "F3",
          "midi": 53,
          "time": 44.21043199999998,
          "velocity": 0.6299212598425197,
          "duration": 0.3733544666666688
        },
        {
          "name": "C4",
          "midi": 60,
          "time": 44.605167999999985,
          "velocity": 0.6299212598425197,
          "duration": 0.3733544666666688
        },
        {
          "name": "E4",
          "midi": 64,
          "time": 44.99990399999999,
          "velocity": 0.6299212598425197,
          "duration": 0.7483536666666666
        },
        {
          "name": "F3",
          "midi": 53,
          "time": 45.78937599999998,
          "velocity": 0.6299212598425197,
          "duration": 1.1233528666666643
        },
        {
          "name": "G3",
          "midi": 55,
          "time": 45.78937599999998,
          "velocity": 0.6299212598425197,
          "duration": 1.1233528666666643
        },
        {
          "name": "B3",
          "midi": 59,
          "time": 45.78937599999998,
          "velocity": 0.6299212598425197,
          "duration": 1.1233528666666643
        },
        {
          "name": "D4",
          "midi": 62,
          "time": 45.78937599999998,
          "velocity": 0.6299212598425197,
          "duration": 1.1233528666666643
        },
        {
          "name": "E3",
          "midi": 52,
          "time": 47.36831999999998,
          "velocity": 0.6299212598425197,
          "duration": 1.4983520666666692
        },
        {
          "name": "A3",
          "midi": 57,
          "time": 47.36831999999998,
          "velocity": 0.6299212598425197,
          "duration": 1.4983520666666692
        },
        {
          "name": "C#4",
          "midi": 61,
          "time": 47.36831999999998,
          "velocity": 0.6299212598425197,
          "duration": 1.4983520666666692
        },
        {
          "name": "D#4",
          "midi": 63,
          "time": 48.94726399999998,
          "velocity": 0.6299212598425197,
          "duration": 1.4983520666666692
        },
        {
          "name": "D4",
          "midi": 62,
          "time": 50.52620799999998,
          "velocity": 0.6299212598425197,
          "duration": 1.4983520666666692
        },
        {
          "name": "A4",
          "midi": 69,
          "time": 50.52620799999998,
          "velocity": 0.6299212598425197,
          "duration": 1.4983520666666692
        },
        {
          "name": "G#3",
          "midi": 56,
          "time": 52.10515199999998,
          "velocity": 0.6299212598425197,
          "duration": 1.4983520666666692
        },
        {
          "name": "B3",
          "midi": 59,
          "time": 52.10515199999998,
          "velocity": 0.6299212598425197,
          "duration": 1.4983520666666692
        },
        {
          "name": "E4",
          "midi": 64,
          "time": 52.10515199999998,
          "velocity": 0.6299212598425197,
          "duration": 1.4983520666666692
        },
        {
          "name": "A3",
          "midi": 57,
          "time": 53.68409599999998,
          "velocity": 0.6299212598425197,
          "duration": 1.4983520666666692
        },
        {
          "name": "E4",
          "midi": 64,
          "time": 54.078831999999984,
          "velocity": 0.6299212598425197,
          "duration": 0.3733544666666688
        },
        {
          "name": "A4",
          "midi": 69,
          "time": 54.078831999999984,
          "velocity": 0.6299212598425197,
          "duration": 0.3733544666666688
        },
        {
          "name": "A4",
          "midi": 69,
          "time": 54.473567999999986,
          "velocity": 0.6299212598425197,
          "duration": 0.7483536666666666
        },
        {
          "name": "C5",
          "midi": 72,
          "time": 54.473567999999986,
          "velocity": 0.6299212598425197,
          "duration": 0.7483536666666666
        },
        {
          "name": "G#3",
          "midi": 56,
          "time": 55.26303999999998,
          "velocity": 0.6299212598425197,
          "duration": 1.4983520666666692
        },
        {
          "name": "C4",
          "midi": 60,
          "time": 55.657775999999984,
          "velocity": 0.6299212598425197,
          "duration": 0.3733544666666688
        },
        {
          "name": "E4",
          "midi": 64,
          "time": 55.657775999999984,
          "velocity": 0.6299212598425197,
          "duration": 0.3733544666666688
        },
        {
          "name": "G#4",
          "midi": 68,
          "time": 56.052511999999986,
          "velocity": 0.6299212598425197,
          "duration": 0.7483536666666666
        },
        {
          "name": "C5",
          "midi": 72,
          "time": 56.052511999999986,
          "velocity": 0.6299212598425197,
          "duration": 0.7483536666666666
        },
        {
          "name": "G3",
          "midi": 55,
          "time": 56.84198399999998,
          "velocity": 0.6299212598425197,
          "duration": 0.3733544666666688
        },
        {
          "name": "C4",
          "midi": 60,
          "time": 57.236719999999984,
          "velocity": 0.6299212598425197,
          "duration": 0.7483536666666666
        },
        {
          "name": "F#3",
          "midi": 54,
          "time": 58.02619199999998,
          "velocity": 0.6299212598425197,
          "duration": 1.4983520666666692
        },
        {
          "name": "A3",
          "midi": 57,
          "time": 58.02619199999998,
          "velocity": 0.6299212598425197,
          "duration": 1.4983520666666692
        },
        {
          "name": "C4",
          "midi": 60,
          "time": 58.02619199999998,
          "velocity": 0.6299212598425197,
          "duration": 0.7894720000000035
        },
        {
          "name": "F3",
          "midi": 53,
          "time": 59.99987199999998,
          "velocity": 0.6299212598425197,
          "duration": 1.4983520666666692
        },
        {
          "name": "A3",
          "midi": 57,
          "time": 59.99987199999998,
          "velocity": 0.6299212598425197,
          "duration": 1.4983520666666692
        },
        {
          "name": "C4",
          "midi": 60,
          "time": 59.99987199999998,
          "velocity": 0.6299212598425197,
          "duration": 1.4983520666666692
        },
        {
          "name": "A#2",
          "midi": 46,
          "time": 61.57881599999998,
          "velocity": 0.6299212598425197,
          "duration": 1.5772992666666639
        },
        {
          "name": "F3",
          "midi": 53,
          "time": 61.64296059999998,
          "velocity": 0.6299212598425197,
          "duration": 1.511509933333329
        },
        {
          "name": "A#3",
          "midi": 58,
          "time": 61.710394666666645,
          "velocity": 0.6299212598425197,
          "duration": 1.4440758666666653
        },
        {
          "name": "D4",
          "midi": 62,
          "time": 61.77618399999998,
          "velocity": 0.6299212598425197,
          "duration": 1.3782865333333305
        },
        {
          "name": "B2",
          "midi": 47,
          "time": 63.15775999999998,
          "velocity": 0.6299212598425197,
          "duration": 0.7483536666666666
        },
        {
          "name": "E3",
          "midi": 52,
          "time": 63.15775999999998,
          "velocity": 0.6299212598425197,
          "duration": 0.7483536666666666
        },
        {
          "name": "G#3",
          "midi": 56,
          "time": 63.15775999999998,
          "velocity": 0.6299212598425197,
          "duration": 0.7483536666666666
        },
        {
          "name": "C3",
          "midi": 48,
          "time": 63.94723199999998,
          "velocity": 0.6299212598425197,
          "duration": 0.7483536666666666
        },
        {
          "name": "F3",
          "midi": 53,
          "time": 63.94723199999998,
          "velocity": 0.6299212598425197,
          "duration": 0.7483536666666666
        },
        {
          "name": "A3",
          "midi": 57,
          "time": 63.94723199999998,
          "velocity": 0.6299212598425197,
          "duration": 0.7483536666666666
        },
        {
          "name": "B2",
          "midi": 47,
          "time": 64.73670399999997,
          "velocity": 0.6299212598425197,
          "duration": 1.4983520666666692
        },
        {
          "name": "E3",
          "midi": 52,
          "time": 64.73670399999997,
          "velocity": 0.6299212598425197,
          "duration": 1.4983520666666692
        },
        {
          "name": "G#3",
          "midi": 56,
          "time": 64.73670399999997,
          "velocity": 0.6299212598425197,
          "duration": 1.4983520666666692
        },
        {
          "name": "A4",
          "midi": 69,
          "time": 66.31564799999998,
          "velocity": 0.6299212598425197,
          "duration": 0.3733544666666688
        },
        {
          "name": "C5",
          "midi": 72,
          "time": 66.31564799999998,
          "velocity": 0.6299212598425197,
          "duration": 0.3733544666666688
        },
        {
          "name": "C4",
          "midi": 60,
          "time": 66.71038399999999,
          "velocity": 0.6299212598425197,
          "duration": 0.3733544666666688
        },
        {
          "name": "F4",
          "midi": 65,
          "time": 67.10512,
          "velocity": 0.6299212598425197,
          "duration": 0.7483536666666737
        },
        {
          "name": "A4",
          "midi": 69,
          "time": 67.10512,
          "velocity": 0.6299212598425197,
          "duration": 0.7483536666666737
        },
        {
          "name": "C5",
          "midi": 72,
          "time": 67.10512,
          "velocity": 0.6299212598425197,
          "duration": 0.7483536666666737
        },
        {
          "name": "G#4",
          "midi": 68,
          "time": 67.894592,
          "velocity": 0.6299212598425197,
          "duration": 0.3733544666666688
        },
        {
          "name": "B4",
          "midi": 71,
          "time": 67.894592,
          "velocity": 0.6299212598425197,
          "duration": 0.3733544666666688
        },
        {
          "name": "B3",
          "midi": 59,
          "time": 68.28932800000001,
          "velocity": 0.6299212598425197,
          "duration": 0.3733544666666688
        },
        {
          "name": "E4",
          "midi": 64,
          "time": 68.68406400000002,
          "velocity": 0.6299212598425197,
          "duration": 0.7483536666666595
        },
        {
          "name": "G#4",
          "midi": 68,
          "time": 68.68406400000002,
          "velocity": 0.6299212598425197,
          "duration": 0.7483536666666595
        },
        {
          "name": "B4",
          "midi": 71,
          "time": 68.68406400000002,
          "velocity": 0.6299212598425197,
          "duration": 0.7483536666666595
        },
        {
          "name": "G4",
          "midi": 67,
          "time": 69.47353600000001,
          "velocity": 0.6299212598425197,
          "duration": 0.3733544666666688
        },
        {
          "name": "B4",
          "midi": 71,
          "time": 69.47353600000001,
          "velocity": 0.6299212598425197,
          "duration": 0.3733544666666688
        },
        {
          "name": "B3",
          "midi": 59,
          "time": 69.86827200000002,
          "velocity": 0.6299212598425197,
          "duration": 0.3733544666666688
        },
        {
          "name": "G4",
          "midi": 67,
          "time": 70.26300800000003,
          "velocity": 0.6299212598425197,
          "duration": 0.3733544666666688
        },
        {
          "name": "B4",
          "midi": 71,
          "time": 70.26300800000003,
          "velocity": 0.6299212598425197,
          "duration": 0.3733544666666688
        },
        {
          "name": "A3",
          "midi": 57,
          "time": 70.65774400000004,
          "velocity": 0.6299212598425197,
          "duration": 1.4983520666666692
        },
        {
          "name": "C#4",
          "midi": 61,
          "time": 70.65774400000004,
          "velocity": 0.6299212598425197,
          "duration": 1.4983520666666692
        },
        {
          "name": "E4",
          "midi": 64,
          "time": 70.65774400000004,
          "velocity": 0.6299212598425197,
          "duration": 1.4983520666666692
        },
        {
          "name": "A4",
          "midi": 69,
          "time": 70.65774400000004,
          "velocity": 0.6299212598425197,
          "duration": 1.4983520666666692
        },
        {
          "name": "F4",
          "midi": 65,
          "time": 72.63142400000004,
          "velocity": 0.6299212598425197,
          "duration": 1.4983520666666692
        },
        {
          "name": "A4",
          "midi": 69,
          "time": 72.63142400000004,
          "velocity": 0.6299212598425197,
          "duration": 1.4983520666666692
        },
        {
          "name": "D#5",
          "midi": 75,
          "time": 72.63142400000004,
          "velocity": 0.6299212598425197,
          "duration": 1.4983520666666692
        },
        {
          "name": "E4",
          "midi": 64,
          "time": 74.21036800000005,
          "velocity": 0.6299212598425197,
          "duration": 0.7483536666666737
        },
        {
          "name": "G4",
          "midi": 67,
          "time": 74.21036800000005,
          "velocity": 0.6299212598425197,
          "duration": 0.7483536666666737
        },
        {
          "name": "B4",
          "midi": 71,
          "time": 74.21036800000005,
          "velocity": 0.6299212598425197,
          "duration": 0.7483536666666737
        },
        {
          "name": "D5",
          "midi": 74,
          "time": 74.21036800000005,
          "velocity": 0.6299212598425197,
          "duration": 0.7483536666666737
        },
        {
          "name": "B4",
          "midi": 71,
          "time": 74.99984000000005,
          "velocity": 0.6299212598425197,
          "duration": 0.7483536666666595
        },
        {
          "name": "C#4",
          "midi": 61,
          "time": 75.78931200000004,
          "velocity": 0.6299212598425197,
          "duration": 2.9983488666666602
        },
        {
          "name": "E4",
          "midi": 64,
          "time": 75.78931200000004,
          "velocity": 0.6299212598425197,
          "duration": 2.9983488666666602
        },
        {
          "name": "A4",
          "midi": 69,
          "time": 75.78931200000004,
          "velocity": 0.6299212598425197,
          "duration": 2.9983488666666602
        },
        {
          "name": "B4",
          "midi": 71,
          "time": 75.78931200000004,
          "velocity": 0.6299212598425197,
          "duration": 2.9983488666666602
        },
        {
          "name": "C#5",
          "midi": 73,
          "time": 75.78931200000004,
          "velocity": 0.6299212598425197,
          "duration": 2.9983488666666602
        }
      ],
      "controlChanges": {},
      "id": 1,
      "name": "Piano",
      "channelNumber": 0,
      "isPercussion": false
    }
  ]
}