{
  "header": {
    "PPQ": 480,
    "timeSignature": [
      3,
      4
    ],
    "bpm": 109.99990833340972,
    "name": ""
  },
  "tempo": [
    {
      "absoluteTime": 0,
      "seconds": 0,
      "bpm": 109.99990833340972
    }
  ],
  "timeSignature": [
    {
      "absoluteTime": 0,
      "seconds": 0,
      "numerator": 3,
      "denominator": 2,
      "click": 24,
      "notesQ": 8
    }
  ],
  "startTime": 0,
  "duration": 117.81714363541664,
  "tracks": [
    {
      "startTime": 24.00002,
      "duration": 117.81714363541576,
      "length": 311,
      "notes": [
        {
          "name": "D#5",
          "midi": 75,
          "time": 24.00002,
          "velocity": 0.25984251968503935,
          "duration": 0.18068196875000098
        },
        {
          "name": "C5",
          "midi": 72,
          "time": 24.181838333333335,
          "velocity": 0.25984251968503935,
          "duration": 0.18068196875000098
        },
        {
          "name": "G#4",
          "midi": 68,
          "time": 24.36365666666667,
          "velocity": 0.25984251968503935,
          "duration": 0.18068196875000098
        },
        {
          "name": "A#4",
          "midi": 70,
          "time": 24.545475000000007,
          "velocity": 0.25984251968503935,
          "duration": 0.8170461354166676
        },
        {
          "name": "G#4",
          "midi": 68,
          "time": 25.36365750000001,
          "velocity": 0.25984251968503935,
          "duration": 0.5443186354166656
        },
        {
          "name": "A#4",
          "midi": 70,
          "time": 25.90911250000001,
          "velocity": 0.25984251968503935,
          "duration": 0.27159113541666713
        },
        {
          "name": "A#4",
          "midi": 70,
          "time": 26.18184000000001,
          "velocity": 0.25984251968503935,
          "duration": 0.8170461354166676
        },
        {
          "name": "C5",
          "midi": 72,
          "time": 27.000022500000014,
          "velocity": 0.25984251968503935,
          "duration": 0.27159113541666713
        },
        {
          "name": "G4",
          "midi": 67,
          "time": 27.272750000000016,
          "velocity": 0.25984251968503935,
          "duration": 0.5443186354166656
        },
        {
          "name": "G#4",
          "midi": 68,
          "time": 27.818205000000017,
          "velocity": 0.25984251968503935,
          "duration": 0.5443186354166656
        },
        {
          "name": "G4",
          "midi": 67,
          "time": 28.363660000000017,
          "velocity": 0.25984251968503935,
          "duration": 0.5443186354166656
        },
        {
          "name": "G#4",
          "midi": 68,
          "time": 28.909115000000018,
          "velocity": 0.25984251968503935,
          "duration": 0.5443186354166656
        },
        {
          "name": "F4",
          "midi": 65,
          "time": 29.454570000000018,
          "velocity": 0.25984251968503935,
          "duration": 1.6352286354166665
        },
        {
          "name": "D#4",
          "midi": 63,
          "time": 36.00003000000002,
          "velocity": 0.25984251968503935,
          "duration": 0.8170461354166534
        },
        {
          "name": "F4",
          "midi": 65,
          "time": 36.8182125,
          "velocity": 0.31496062992125984,
          "duration": 0.2715911354166636
        },
        {
          "name": "G4",
          "midi": 67,
          "time": 37.090939999999996,
          "velocity": 0.33858267716535434,
          "duration": 0.8170461354166534
        },
        {
          "name": "F4",
          "midi": 65,
          "time": 37.90912249999998,
          "velocity": 0.4015748031496063,
          "duration": 0.2715911354166636
        },
        {
          "name": "G4",
          "midi": 67,
          "time": 38.181849999999976,
          "velocity": 0.41732283464566927,
          "duration": 0.2715911354166636
        },
        {
          "name": "G#4",
          "midi": 68,
          "time": 38.45457749999997,
          "velocity": 0.4409448818897638,
          "duration": 0.2715911354166636
        },
        {
          "name": "C4",
          "midi": 60,
          "time": 38.727304999999966,
          "velocity": 0.4566929133858268,
          "duration": 0.2715911354166636
        },
        {
          "name": "G#4",
          "midi": 68,
          "time": 39.00003249999996,
          "velocity": 0.48031496062992124,
          "duration": 0.2715911354166707
        },
        {
          "name": "G4",
          "midi": 67,
          "time": 39.27275999999996,
          "velocity": 0.5039370078740157,
          "duration": 0.18068196875000098
        },
        {
          "name": "C4",
          "midi": 60,
          "time": 39.454578333333295,
          "velocity": 0.5039370078740157,
          "duration": 0.18068196875000098
        },
        {
          "name": "A#3",
          "midi": 58,
          "time": 39.63639666666663,
          "velocity": 0.5039370078740157,
          "duration": 0.18068196875000098
        },
        {
          "name": "G3",
          "midi": 55,
          "time": 39.81821499999996,
          "velocity": 0.5118110236220472,
          "duration": 0.18068196875000098
        },
        {
          "name": "F4",
          "midi": 65,
          "time": 40.00003333333329,
          "velocity": 0.5118110236220472,
          "duration": 0.18068196875000098
        },
        {
          "name": "E4",
          "midi": 64,
          "time": 40.181851666666624,
          "velocity": 0.5196850393700787,
          "duration": 0.18068196875000098
        },
        {
          "name": "G4",
          "midi": 67,
          "time": 40.363669999999956,
          "velocity": 0.5196850393700787,
          "duration": 0.18068196875000098
        },
        {
          "name": "C#4",
          "midi": 61,
          "time": 40.54548833333329,
          "velocity": 0.5275590551181102,
          "duration": 0.18068196875000098
        },
        {
          "name": "C4",
          "midi": 60,
          "time": 40.72730666666662,
          "velocity": 0.5275590551181102,
          "duration": 0.18068196875000098
        },
        {
          "name": "G#4",
          "midi": 68,
          "time": 40.90912499999995,
          "velocity": 0.5354330708661418,
          "duration": 0.18068196875000098
        },
        {
          "name": "C#4",
          "midi": 61,
          "time": 41.090943333333286,
          "velocity": 0.5354330708661418,
          "duration": 0.18068196875000098
        },
        {
          "name": "C4",
          "midi": 60,
          "time": 41.27276166666662,
          "velocity": 0.5433070866141733,
          "duration": 0.18068196875000098
        },
        {
          "name": "G#4",
          "midi": 68,
          "time": 41.45457999999995,
          "velocity": 0.5433070866141733,
          "duration": 0.18068196875000098
        },
        {
          "name": "G4",
          "midi": 67,
          "time": 41.63639833333328,
          "velocity": 0.5511811023622047,
          "duration": 0.18068196875000098
        },
        {
          "name": "F4",
          "midi": 65,
          "time": 41.818216666666615,
          "velocity": 0.5511811023622047,
          "duration": 0.18068196875000098
        },
        {
          "name": "G#4",
          "midi": 68,
          "time": 42.00003499999995,
          "velocity": 0.5511811023622047,
          "duration": 0.18068196875000098
        },
        {
          "name": "C#4",
          "midi": 61,
          "time": 42.18185333333328,
          "velocity": 0.5590551181102362,
          "duration": 0.18068196875000098
        },
        {
          "name": "C4",
          "midi": 60,
          "time": 42.36367166666661,
          "velocity": 0.5590551181102362,
          "duration": 0.18068196875000098
        },
        {
          "name": "C5",
          "midi": 72,
          "time": 42.545489999999944,
          "velocity": 0.5669291338582677,
          "duration": 0.18068196875000098
        },
        {
          "name": "A#4",
          "midi": 70,
          "time": 42.727308333333276,
          "velocity": 0.5669291338582677,
          "duration": 0.18068196875000098
        },
        {
          "name": "C#4",
          "midi": 61,
          "time": 42.90912666666661,
          "velocity": 0.5748031496062992,
          "duration": 0.18068196875000098
        },
        {
          "name": "C4",
          "midi": 60,
          "time": 43.09094499999994,
          "velocity": 0.5748031496062992,
          "duration": 0.18068196874999387
        },
        {
          "name": "G#4",
          "midi": 68,
          "time": 43.272763333333266,
          "velocity": 0.5826771653543307,
          "duration": 0.18068196875000098
        },
        {
          "name": "G4",
          "midi": 67,
          "time": 43.4545816666666,
          "velocity": 0.5826771653543307,
          "duration": 0.18068196874999387
        },
        {
          "name": "A#4",
          "midi": 70,
          "time": 43.636399999999924,
          "velocity": 0.5905511811023622,
          "duration": 0.18068196875000098
        },
        {
          "name": "C#4",
          "midi": 61,
          "time": 43.818218333333256,
          "velocity": 0.5905511811023622,
          "duration": 0.18068196875000098
        },
        {
          "name": "C4",
          "midi": 60,
          "time": 44.00003666666659,
          "velocity": 0.5984251968503937,
          "duration": 0.18068196875000098
        },
        {
          "name": "C#5",
          "midi": 73,
          "time": 44.18185499999992,
          "velocity": 0.5984251968503937,
          "duration": 0.18068196875000098
        },
        {
          "name": "C5",
          "midi": 72,
          "time": 44.36367333333325,
          "velocity": 0.5984251968503937,
          "duration": 0.18068196874999387
        },
        {
          "name": "F4",
          "midi": 65,
          "time": 44.54549166666658,
          "velocity": 0.6062992125984252,
          "duration": 0.18068196875000098
        },
        {
          "name": "C5",
          "midi": 72,
          "time": 44.72730999999991,
          "velocity": 0.6062992125984252,
          "duration": 0.18068196874999387
        },
        {
          "name": "G#4",
          "midi": 68,
          "time": 44.909128333333236,
          "velocity": 0.6141732283464567,
          "duration": 0.18068196875000098
        },
        {
          "name": "F4",
          "midi": 65,
          "time": 45.09094666666657,
          "velocity": 0.6141732283464567,
          "duration": 0.18068196875000098
        },
        {
          "name": "C5",
          "midi": 72,
          "time": 45.2727649999999,
          "velocity": 0.6220472440944882,
          "duration": 0.18068196875000098
        },
        {
          "name": "C#5",
          "midi": 73,
          "time": 45.45458333333323,
          "velocity": 0.6220472440944882,
          "duration": 0.18068196875000098
        },
        {
          "name": "D#5",
          "midi": 75,
          "time": 45.636401666666565,
          "velocity": 0.6299212598425197,
          "duration": 0.18068196875000098
        },
        {
          "name": "F5",
          "midi": 77,
          "time": 45.8182199999999,
          "velocity": 0.6299212598425197,
          "duration": 0.18068196875000098
        },
        {
          "name": "G#4",
          "midi": 68,
          "time": 46.00003833333323,
          "velocity": 0.6377952755905512,
          "duration": 0.18068196875000098
        },
        {
          "name": "G4",
          "midi": 67,
          "time": 46.18185666666656,
          "velocity": 0.6377952755905512,
          "duration": 0.18068196875000098
        },
        {
          "name": "F4",
          "midi": 65,
          "time": 46.363674999999894,
          "velocity": 0.6456692913385826,
          "duration": 0.18068196875000098
        },
        {
          "name": "D#5",
          "midi": 75,
          "time": 46.545493333333226,
          "velocity": 0.6456692913385826,
          "duration": 0.18068196875000098
        },
        {
          "name": "C#5",
          "midi": 73,
          "time": 46.72731166666656,
          "velocity": 0.6535433070866141,
          "duration": 0.18068196875000098
        },
        {
          "name": "F5",
          "midi": 77,
          "time": 46.90912999999989,
          "velocity": 0.6535433070866141,
          "duration": 0.18068196875000098
        },
        {
          "name": "D#5",
          "midi": 75,
          "time": 47.09094833333322,
          "velocity": 0.6535433070866141,
          "duration": 0.18068196875000098
        },
        {
          "name": "C#5",
          "midi": 73,
          "time": 47.272766666666556,
          "velocity": 0.6614173228346457,
          "duration": 0.18068196875000098
        },
        {
          "name": "G5",
          "midi": 79,
          "time": 47.45458499999989,
          "velocity": 0.6614173228346457,
          "duration": 0.18068196875000098
        },
        {
          "name": "C#5",
          "midi": 73,
          "time": 47.63640333333322,
          "velocity": 0.6692913385826772,
          "duration": 0.18068196875000098
        },
        {
          "name": "C5",
          "midi": 72,
          "time": 47.81822166666655,
          "velocity": 0.6692913385826772,
          "duration": 0.18068196875000098
        },
        {
          "name": "G4",
          "midi": 67,
          "time": 48.000039999999885,
          "velocity": 0.6771653543307087,
          "duration": 0.18068196875000098
        },
        {
          "name": "F5",
          "midi": 77,
          "time": 48.18185833333322,
          "velocity": 0.6771653543307087,
          "duration": 0.18068196875000098
        },
        {
          "name": "D#5",
          "midi": 75,
          "time": 48.36367666666655,
          "velocity": 0.6850393700787402,
          "duration": 0.18068196875000098
        },
        {
          "name": "G5",
          "midi": 79,
          "time": 48.54549499999988,
          "velocity": 0.6850393700787402,
          "duration": 0.18068196875000098
        },
        {
          "name": "C#5",
          "midi": 73,
          "time": 48.727313333333214,
          "velocity": 0.6929133858267716,
          "duration": 0.18068196875000098
        },
        {
          "name": "C5",
          "midi": 72,
          "time": 48.909131666666546,
          "velocity": 0.6929133858267716,
          "duration": 0.18068196875000098
        },
        {
          "name": "G#5",
          "midi": 80,
          "time": 49.09094999999988,
          "velocity": 0.7007874015748031,
          "duration": 0.18068196875000098
        },
        {
          "name": "F5",
          "midi": 77,
          "time": 49.27276833333321,
          "velocity": 0.7007874015748031,
          "duration": 0.18068196875000098
        },
        {
          "name": "C5",
          "midi": 72,
          "time": 49.45458666666654,
          "velocity": 0.7007874015748031,
          "duration": 0.18068196875000098
        },
        {
          "name": "G#5",
          "midi": 80,
          "time": 49.636404999999876,
          "velocity": 0.7086614173228346,
          "duration": 0.18068196875000098
        },
        {
          "name": "G5",
          "midi": 79,
          "time": 49.81822333333321,
          "velocity": 0.7086614173228346,
          "duration": 0.18068196875000098
        },
        {
          "name": "F5",
          "midi": 77,
          "time": 50.00004166666654,
          "velocity": 0.7165354330708661,
          "duration": 0.18068196875000098
        },
        {
          "name": "G#5",
          "midi": 80,
          "time": 50.18185999999987,
          "velocity": 0.7165354330708661,
          "duration": 0.18068196875000098
        },
        {
          "name": "F5",
          "midi": 77,
          "time": 50.363678333333205,
          "velocity": 0.7244094488188977,
          "duration": 0.18068196875000098
        },
        {
          "name": "C5",
          "midi": 72,
          "time": 50.54549666666654,
          "velocity": 0.7244094488188977,
          "duration": 0.18068196875000098
        },
        {
          "name": "G#5",
          "midi": 80,
          "time": 50.72731499999987,
          "velocity": 0.7322834645669292,
          "duration": 0.18068196875000098
        },
        {
          "name": "G5",
          "midi": 79,
          "time": 50.9091333333332,
          "velocity": 0.7322834645669292,
          "duration": 0.18068196875000098
        },
        {
          "name": "F5",
          "midi": 77,
          "time": 51.090951666666534,
          "velocity": 0.7401574803149606,
          "duration": 0.18068196875000098
        },
        {
          "name": "A#5",
          "midi": 82,
          "time": 51.272769999999866,
          "velocity": 0.7401574803149606,
          "duration": 0.18068196875000098
        },
        {
          "name": "G#5",
          "midi": 80,
          "time": 51.4545883333332,
          "velocity": 0.7480314960629921,
          "duration": 0.18068196875000098
        },
        {
          "name": "G5",
          "midi": 79,
          "time": 51.63640666666653,
          "velocity": 0.7480314960629921,
          "duration": 0.18068196875000098
        },
        {
          "name": "C6",
          "midi": 84,
          "time": 51.81822499999986,
          "velocity": 0.7559055118110236,
          "duration": 0.18068196875000098
        },
        {
          "name": "A#5",
          "midi": 82,
          "time": 52.000043333333196,
          "velocity": 0.7559055118110236,
          "duration": 0.18068196875000098
        },
        {
          "name": "G#5",
          "midi": 80,
          "time": 52.18186166666653,
          "velocity": 0.7559055118110236,
          "duration": 0.18068196875000098
        },
        {
          "name": "G5",
          "midi": 79,
          "time": 52.36367999999986,
          "velocity": 0.6299212598425197,
          "duration": 0.18068196875000098
        },
        {
          "name": "C5",
          "midi": 72,
          "time": 52.54549833333319,
          "velocity": 0.6299212598425197,
          "duration": 0.18068196875000098
        },
        {
          "name": "A#4",
          "midi": 70,
          "time": 52.727316666666525,
          "velocity": 0.6299212598425197,
          "duration": 0.18068196875000098
        },
        {
          "name": "G4",
          "midi": 67,
          "time": 52.90913499999986,
          "velocity": 0.6299212598425197,
          "duration": 0.18068196875000098
        },
        {
          "name": "F5",
          "midi": 77,
          "time": 53.09095333333319,
          "velocity": 0.6299212598425197,
          "duration": 0.18068196875000098
        },
        {
          "name": "E5",
          "midi": 76,
          "time": 53.27277166666652,
          "velocity": 0.6299212598425197,
          "duration": 0.18068196875000098
        },
        {
          "name": "G5",
          "midi": 79,
          "time": 53.454589999999854,
          "velocity": 0.6299212598425197,
          "duration": 0.18068196875000098
        },
        {
          "name": "C#5",
          "midi": 73,
          "time": 53.636408333333186,
          "velocity": 0.6299212598425197,
          "duration": 0.18068196875000098
        },
        {
          "name": "C5",
          "midi": 72,
          "time": 53.81822666666652,
          "velocity": 0.6299212598425197,
          "duration": 0.18068196875000098
        },
        {
          "name": "G#5",
          "midi": 80,
          "time": 54.00004499999985,
          "velocity": 0.6299212598425197,
          "duration": 0.18068196875000098
        },
        {
          "name": "C#5",
          "midi": 73,
          "time": 54.18186333333318,
          "velocity": 0.6299212598425197,
          "duration": 0.18068196875000098
        },
        {
          "name": "C5",
          "midi": 72,
          "time": 54.363681666666515,
          "velocity": 0.6299212598425197,
          "duration": 0.18068196875000098
        },
        {
          "name": "G#4",
          "midi": 68,
          "time": 54.54549999999985,
          "velocity": 0.6299212598425197,
          "duration": 0.18068196875000098
        },
        {
          "name": "A#4",
          "midi": 70,
          "time": 54.72731833333318,
          "velocity": 0.6299212598425197,
          "duration": 0.18068196875000098
        },
        {
          "name": "G4",
          "midi": 67,
          "time": 54.90913666666651,
          "velocity": 0.6299212598425197,
          "duration": 0.18068196875000098
        },
        {
          "name": "F4",
          "midi": 65,
          "time": 55.090954999999845,
          "velocity": 0.6299212598425197,
          "duration": 0.18068196875000098
        },
        {
          "name": "C#5",
          "midi": 73,
          "time": 55.27277333333318,
          "velocity": 0.6299212598425197,
          "duration": 0.18068196875000098
        },
        {
          "name": "F5",
          "midi": 77,
          "time": 55.45459166666651,
          "velocity": 0.6299212598425197,
          "duration": 0.18068196875000098
        },
        {
          "name": "G5",
          "midi": 79,
          "time": 55.63640999999984,
          "velocity": 0.6299212598425197,
          "duration": 0.18068196875000098
        },
        {
          "name": "G5",
          "midi": 79,
          "time": 55.818228333333174,
          "velocity": 0.6299212598425197,
          "duration": 0.18068196875000098
        },
        {
          "name": "C5",
          "midi": 72,
          "time": 56.000046666666506,
          "velocity": 0.6299212598425197,
          "duration": 0.18068196875000098
        },
        {
          "name": "C6",
          "midi": 84,
          "time": 56.18186499999984,
          "velocity": 0.6299212598425197,
          "duration": 0.18068196875000098
        },
        {
          "name": "C6",
          "midi": 84,
          "time": 56.36368333333317,
          "velocity": 0.6299212598425197,
          "duration": 0.18068196875000098
        },
        {
          "name": "C5",
          "midi": 72,
          "time": 56.5455016666665,
          "velocity": 0.6299212598425197,
          "duration": 0.18068196875000098
        },
        {
          "name": "G5",
          "midi": 79,
          "time": 56.727319999999835,
          "velocity": 0.6299212598425197,
          "duration": 0.18068196875000098
        },
        {
          "name": "G5",
          "midi": 79,
          "time": 56.90913833333317,
          "velocity": 0.6299212598425197,
          "duration": 0.18068196875000098
        },
        {
          "name": "A#5",
          "midi": 82,
          "time": 57.0909566666665,
          "velocity": 0.6299212598425197,
          "duration": 0.18068196875000098
        },
        {
          "name": "G#5",
          "midi": 80,
          "time": 57.27277499999983,
          "velocity": 0.6299212598425197,
          "duration": 0.18068196875000098
        },
        {
          "name": "G5",
          "midi": 79,
          "time": 57.454593333333165,
          "velocity": 0.6299212598425197,
          "duration": 0.18068196875000098
        },
        {
          "name": "F5",
          "midi": 77,
          "time": 57.6364116666665,
          "velocity": 0.6299212598425197,
          "duration": 0.18068196875000098
        },
        {
          "name": "G#5",
          "midi": 80,
          "time": 57.81822999999983,
          "velocity": 0.6299212598425197,
          "duration": 0.18068196875000098
        },
        {
          "name": "G5",
          "midi": 79,
          "time": 58.00004833333316,
          "velocity": 0.6299212598425197,
          "duration": 0.18068196875000098
        },
        {
          "name": "F5",
          "midi": 77,
          "time": 58.181866666666494,
          "velocity": 0.6299212598425197,
          "duration": 0.18068196875000098
        },
        {
          "name": "G5",
          "midi": 79,
          "time": 58.363684999999826,
          "velocity": 0.6299212598425197,
          "duration": 0.18068196875000098
        },
        {
          "name": "G#5",
          "midi": 80,
          "time": 58.54550333333316,
          "velocity": 0.6299212598425197,
          "duration": 0.18068196875000098
        },
        {
          "name": "F5",
          "midi": 77,
          "time": 58.72732166666649,
          "velocity": 0.6299212598425197,
          "duration": 0.18068196875000098
        },
        {
          "name": "A#5",
          "midi": 82,
          "time": 58.90913999999982,
          "velocity": 0.6299212598425197,
          "duration": 0.18068196875000098
        },
        {
          "name": "G#5",
          "midi": 80,
          "time": 59.090958333333155,
          "velocity": 0.6299212598425197,
          "duration": 0.18068196875000098
        },
        {
          "name": "G5",
          "midi": 79,
          "time": 59.27277666666649,
          "velocity": 0.6299212598425197,
          "duration": 0.18068196875000098
        },
        {
          "name": "F5",
          "midi": 77,
          "time": 59.45459499999982,
          "velocity": 0.6299212598425197,
          "duration": 0.18068196875000098
        },
        {
          "name": "G5",
          "midi": 79,
          "time": 59.63641333333315,
          "velocity": 0.6299212598425197,
          "duration": 0.18068196875000098
        },
        {
          "name": "D#5",
          "midi": 75,
          "time": 59.818231666666485,
          "velocity": 0.6299212598425197,
          "duration": 0.18068196875000098
        },
        {
          "name": "C#5",
          "midi": 73,
          "time": 60.00004999999982,
          "velocity": 0.6299212598425197,
          "duration": 0.18068196875000098
        },
        {
          "name": "D#5",
          "midi": 75,
          "time": 60.18186833333315,
          "velocity": 0.6299212598425197,
          "duration": 0.08977280208333127
        },
        {
          "name": "F5",
          "midi": 77,
          "time": 60.27277749999981,
          "velocity": 0.6299212598425197,
          "duration": 0.08977280208333127
        },
        {
          "name": "G5",
          "midi": 79,
          "time": 60.363686666666474,
          "velocity": 0.6299212598425197,
          "duration": 0.08977280208333127
        },
        {
          "name": "G#5",
          "midi": 80,
          "time": 60.45459583333314,
          "velocity": 0.6299212598425197,
          "duration": 0.08977280208333127
        },
        {
          "name": "A#5",
          "midi": 82,
          "time": 60.5455049999998,
          "velocity": 0.6299212598425197,
          "duration": 0.18068196875000098
        },
        {
          "name": "G#5",
          "midi": 80,
          "time": 60.72732333333313,
          "velocity": 0.6299212598425197,
          "duration": 0.18068196875000098
        },
        {
          "name": "G5",
          "midi": 79,
          "time": 60.909141666666464,
          "velocity": 0.6299212598425197,
          "duration": 0.18068196875000098
        },
        {
          "name": "F5",
          "midi": 77,
          "time": 61.0909599999998,
          "velocity": 0.6299212598425197,
          "duration": 0.18068196875000098
        },
        {
          "name": "G5",
          "midi": 79,
          "time": 61.27277833333313,
          "velocity": 0.6299212598425197,
          "duration": 0.18068196875000098
        },
        {
          "name": "D#5",
          "midi": 75,
          "time": 61.45459666666646,
          "velocity": 0.6299212598425197,
          "duration": 0.18068196875000098
        },
        {
          "name": "C5",
          "midi": 72,
          "time": 61.63641499999979,
          "velocity": 0.6299212598425197,
          "duration": 0.18068196875000098
        },
        {
          "name": "G5",
          "midi": 79,
          "time": 61.818233333333126,
          "velocity": 0.6299212598425197,
          "duration": 0.18068196875000098
        },
        {
          "name": "G#5",
          "midi": 80,
          "time": 62.00005166666646,
          "velocity": 0.6299212598425197,
          "duration": 0.18068196875000098
        },
        {
          "name": "G#5",
          "midi": 80,
          "time": 62.18186999999979,
          "velocity": 0.6299212598425197,
          "duration": 0.18068196875000098
        },
        {
          "name": "F5",
          "midi": 77,
          "time": 62.36368833333312,
          "velocity": 0.6299212598425197,
          "duration": 0.18068196875000098
        },
        {
          "name": "C5",
          "midi": 72,
          "time": 62.545506666666455,
          "velocity": 0.6299212598425197,
          "duration": 0.18068196875000098
        },
        {
          "name": "G#5",
          "midi": 80,
          "time": 62.72732499999979,
          "velocity": 0.6299212598425197,
          "duration": 0.18068196875000098
        },
        {
          "name": "F5",
          "midi": 77,
          "time": 62.90914333333312,
          "velocity": 0.6299212598425197,
          "duration": 0.18068196875000098
        },
        {
          "name": "C5",
          "midi": 72,
          "time": 63.09096166666645,
          "velocity": 0.6299212598425197,
          "duration": 0.18068196875000098
        },
        {
          "name": "G#5",
          "midi": 80,
          "time": 63.272779999999784,
          "velocity": 0.6299212598425197,
          "duration": 0.18068196875000098
        },
        {
          "name": "F5",
          "midi": 77,
          "time": 63.45459833333312,
          "velocity": 0.6299212598425197,
          "duration": 0.18068196875000098
        },
        {
          "name": "C5",
          "midi": 72,
          "time": 63.63641666666645,
          "velocity": 0.6299212598425197,
          "duration": 0.18068196875000098
        },
        {
          "name": "C6",
          "midi": 84,
          "time": 63.81823499999978,
          "velocity": 0.6299212598425197,
          "duration": 0.08977280208333127
        },
        {
          "name": "C6",
          "midi": 84,
          "time": 63.909144166666444,
          "velocity": 0.6299212598425197,
          "duration": 0.08977280208333127
        },
        {
          "name": "A5",
          "midi": 81,
          "time": 64.00005333333311,
          "velocity": 0.6299212598425197,
          "duration": 0.08977280208333127
        },
        {
          "name": "A5",
          "midi": 81,
          "time": 64.09096249999978,
          "velocity": 0.6299212598425197,
          "duration": 0.08977280208333127
        },
        {
          "name": "F5",
          "midi": 77,
          "time": 64.18187166666644,
          "velocity": 0.6299212598425197,
          "duration": 0.08977280208333127
        },
        {
          "name": "F5",
          "midi": 77,
          "time": 64.2727808333331,
          "velocity": 0.6299212598425197,
          "duration": 0.08977280208333127
        },
        {
          "name": "C6",
          "midi": 84,
          "time": 64.36368999999976,
          "velocity": 0.6299212598425197,
          "duration": 0.08977280208333127
        },
        {
          "name": "C6",
          "midi": 84,
          "time": 64.45459916666643,
          "velocity": 0.6299212598425197,
          "duration": 0.08977280208333127
        },
        {
          "name": "A5",
          "midi": 81,
          "time": 64.54550833333309,
          "velocity": 0.6299212598425197,
          "duration": 0.08977280208333127
        },
        {
          "name": "A5",
          "midi": 81,
          "time": 64.63641749999975,
          "velocity": 0.6299212598425197,
          "duration": 0.08977280208333127
        },
        {
          "name": "F5",
          "midi": 77,
          "time": 64.72732666666641,
          "velocity": 0.6299212598425197,
          "duration": 0.08977280208333127
        },
        {
          "name": "F5",
          "midi": 77,
          "time": 64.81823583333308,
          "velocity": 0.6299212598425197,
          "duration": 0.08977280208333127
        },
        {
          "name": "C6",
          "midi": 84,
          "time": 64.90914499999974,
          "velocity": 0.6299212598425197,
          "duration": 0.08977280208333127
        },
        {
          "name": "C6",
          "midi": 84,
          "time": 65.0000541666664,
          "velocity": 0.6299212598425197,
          "duration": 0.08977280208333127
        },
        {
          "name": "A5",
          "midi": 81,
          "time": 65.09096333333306,
          "velocity": 0.6299212598425197,
          "duration": 0.08977280208333127
        },
        {
          "name": "A5",
          "midi": 81,
          "time": 65.18187249999973,
          "velocity": 0.6299212598425197,
          "duration": 0.08977280208333127
        },
        {
          "name": "F5",
          "midi": 77,
          "time": 65.27278166666639,
          "velocity": 0.6299212598425197,
          "duration": 0.08977280208333127
        },
        {
          "name": "F5",
          "midi": 77,
          "time": 65.36369083333305,
          "velocity": 0.6299212598425197,
          "duration": 0.08977280208333127
        },
        {
          "name": "C6",
          "midi": 84,
          "time": 65.45459999999972,
          "velocity": 0.6299212598425197,
          "duration": 0.5443186354166727
        },
        {
          "name": "C#6",
          "midi": 85,
          "time": 66.00005499999972,
          "velocity": 0.6299212598425197,
          "duration": 1.0897736354166625
        },
        {
          "name": "C#6",
          "midi": 85,
          "time": 67.09096499999971,
          "velocity": 0.6299212598425197,
          "duration": 0.5443186354166727
        },
        {
          "name": "D#6",
          "midi": 87,
          "time": 67.63641999999972,
          "velocity": 0.6299212598425197,
          "duration": 2.1806836354166705
        },
        {
          "name": "C#6",
          "midi": 85,
          "time": 69.81823999999972,
          "velocity": 0.6299212598425197,
          "duration": 0.5443186354166727
        },
        {
          "name": "F6",
          "midi": 89,
          "time": 70.36369499999972,
          "velocity": 0.6299212598425197,
          "duration": 0.8170461354166605
        },
        {
          "name": "C#5",
          "midi": 73,
          "time": 71.18187749999971,
          "velocity": 0.6299212598425197,
          "duration": 0.2715911354166707
        },
        {
          "name": "D#5",
          "midi": 75,
          "time": 71.45460499999972,
          "velocity": 0.6299212598425197,
          "duration": 0.2715911354166707
        },
        {
          "name": "G#5",
          "midi": 80,
          "time": 71.72733249999972,
          "velocity": 0.6299212598425197,
          "duration": 0.2715911354166707
        },
        {
          "name": "C6",
          "midi": 84,
          "time": 72.00005999999972,
          "velocity": 0.6299212598425197,
          "duration": 0.5443186354166727
        },
        {
          "name": "C#6",
          "midi": 85,
          "time": 72.54551499999972,
          "velocity": 0.6299212598425197,
          "duration": 1.0897736354166625
        },
        {
          "name": "C#6",
          "midi": 85,
          "time": 73.63642499999972,
          "velocity": 0.6299212598425197,
          "duration": 0.5443186354166727
        },
        {
          "name": "D#6",
          "midi": 87,
          "time": 74.18187999999972,
          "velocity": 0.6299212598425197,
          "duration": 1.0897736354166625
        },
        {
          "name": "D#6",
          "midi": 87,
          "time": 75.27278999999972,
          "velocity": 0.6299212598425197,
          "duration": 0.5443186354166727
        },
        {
          "name": "F6",
          "midi": 89,
          "time": 75.81824499999972,
          "velocity": 0.6299212598425197,
          "duration": 1.6352286354166665
        },
        {
          "name": "F6",
          "midi": 89,
          "time": 77.45460999999972,
          "velocity": 0.6299212598425197,
          "duration": 1.0897736354166625
        },
        {
          "name": "F#6",
          "midi": 90,
          "time": 79.36370249999972,
          "velocity": 0.6299212598425197,
          "duration": 0.2715911354166707
        },
        {
          "name": "F#6",
          "midi": 90,
          "time": 79.63642999999972,
          "velocity": 0.6299212598425197,
          "duration": 0.18068196874999387
        },
        {
          "name": "D#6",
          "midi": 87,
          "time": 79.81824833333305,
          "velocity": 0.6299212598425197,
          "duration": 0.18068196874999387
        },
        {
          "name": "F6",
          "midi": 89,
          "time": 80.00006666666637,
          "velocity": 0.6299212598425197,
          "duration": 0.9988644687499999
        },
        {
          "name": "C#6",
          "midi": 85,
          "time": 81.0000674999997,
          "velocity": 0.6299212598425197,
          "duration": 0.2715911354166707
        },
        {
          "name": "C6",
          "midi": 84,
          "time": 81.2727949999997,
          "velocity": 0.6299212598425197,
          "duration": 0.2715911354166707
        },
        {
          "name": "C6",
          "midi": 84,
          "time": 81.5455224999997,
          "velocity": 0.6299212598425197,
          "duration": 1.0897736354166625
        },
        {
          "name": "C6",
          "midi": 84,
          "time": 82.6364324999997,
          "velocity": 0.6299212598425197,
          "duration": 0.2715911354166707
        },
        {
          "name": "D#6",
          "midi": 87,
          "time": 82.9091599999997,
          "velocity": 0.6299212598425197,
          "duration": 0.2715911354166707
        },
        {
          "name": "F6",
          "midi": 89,
          "time": 83.1818874999997,
          "velocity": 0.6299212598425197,
          "duration": 1.0897736354166625
        },
        {
          "name": "F#6",
          "midi": 90,
          "time": 84.2727974999997,
          "velocity": 0.6299212598425197,
          "duration": 0.13522738541666968
        },
        {
          "name": "F6",
          "midi": 89,
          "time": 84.4091612499997,
          "velocity": 0.6299212598425197,
          "duration": 0.13522738541666968
        },
        {
          "name": "D#6",
          "midi": 87,
          "time": 84.5455249999997,
          "velocity": 0.6299212598425197,
          "duration": 1.0897736354166625
        },
        {
          "name": "C6",
          "midi": 84,
          "time": 85.9091624999997,
          "velocity": 0.6299212598425197,
          "duration": 0.2715911354166707
        },
        {
          "name": "C#6",
          "midi": 85,
          "time": 86.1818899999997,
          "velocity": 0.6299212598425197,
          "duration": 0.18068196874999387
        },
        {
          "name": "D#6",
          "midi": 87,
          "time": 86.36370833333302,
          "velocity": 0.6299212598425197,
          "duration": 0.18068196874999387
        },
        {
          "name": "F6",
          "midi": 89,
          "time": 86.54552666666635,
          "velocity": 0.6299212598425197,
          "duration": 0.9988644687499999
        },
        {
          "name": "D#6",
          "midi": 87,
          "time": 87.54552749999968,
          "velocity": 0.6299212598425197,
          "duration": 0.2715911354166707
        },
        {
          "name": "C#6",
          "midi": 85,
          "time": 87.81825499999968,
          "velocity": 0.6299212598425197,
          "duration": 0.2715911354166707
        },
        {
          "name": "G#6",
          "midi": 92,
          "time": 88.09098249999968,
          "velocity": 0.6299212598425197,
          "duration": 1.0897736354166625
        },
        {
          "name": "D#6",
          "midi": 87,
          "time": 89.18189249999968,
          "velocity": 0.6299212598425197,
          "duration": 0.2715911354166707
        },
        {
          "name": "C#6",
          "midi": 85,
          "time": 89.45461999999968,
          "velocity": 0.6299212598425197,
          "duration": 0.2715911354166707
        },
        {
          "name": "F#5",
          "midi": 78,
          "time": 89.72734749999968,
          "velocity": 0.6299212598425197,
          "duration": 0.2715911354166707
        },
        {
          "name": "C6",
          "midi": 84,
          "time": 89.72734749999968,
          "velocity": 0.6299212598425197,
          "duration": 1.3625011354166645
        },
        {
          "name": "G#5",
          "midi": 80,
          "time": 90.00007499999968,
          "velocity": 0.6299212598425197,
          "duration": 1.0897736354166625
        },
        {
          "name": "A#5",
          "midi": 82,
          "time": 91.36371249999968,
          "velocity": 0.6299212598425197,
          "duration": 0.2715911354166707
        },
        {
          "name": "C6",
          "midi": 84,
          "time": 91.63643999999968,
          "velocity": 0.6299212598425197,
          "duration": 0.18068196874999387
        },
        {
          "name": "A#5",
          "midi": 82,
          "time": 91.818258333333,
          "velocity": 0.6299212598425197,
          "duration": 0.18068196874999387
        },
        {
          "name": "F#5",
          "midi": 78,
          "time": 92.00007666666633,
          "velocity": 0.6299212598425197,
          "duration": 0.18068196874999387
        },
        {
          "name": "C#5",
          "midi": 73,
          "time": 92.18189499999966,
          "velocity": 0.6299212598425197,
          "duration": 0.18068196874999387
        },
        {
          "name": "F#5",
          "midi": 78,
          "time": 92.36371333333298,
          "velocity": 0.6299212598425197,
          "duration": 0.18068196874999387
        },
        {
          "name": "A#5",
          "midi": 82,
          "time": 92.5455316666663,
          "velocity": 0.6299212598425197,
          "duration": 0.18068196874999387
        },
        {
          "name": "C#6",
          "midi": 85,
          "time": 92.72734999999963,
          "velocity": 0.6299212598425197,
          "duration": 0.18068196874999387
        },
        {
          "name": "A#5",
          "midi": 82,
          "time": 92.90916833333296,
          "velocity": 0.6299212598425197,
          "duration": 0.18068196874999387
        },
        {
          "name": "C#6",
          "midi": 85,
          "time": 93.09098666666628,
          "velocity": 0.6299212598425197,
          "duration": 0.18068196874999387
        },
        {
          "name": "C#6",
          "midi": 85,
          "time": 93.27280499999961,
          "velocity": 0.6299212598425197,
          "duration": 0.18068196874999387
        },
        {
          "name": "A#5",
          "midi": 82,
          "time": 93.45462333333293,
          "velocity": 0.6299212598425197,
          "duration": 0.18068196874999387
        },
        {
          "name": "F5",
          "midi": 77,
          "time": 93.63644166666626,
          "velocity": 0.6299212598425197,
          "duration": 0.18068196874999387
        },
        {
          "name": "C#5",
          "midi": 73,
          "time": 93.81825999999958,
          "velocity": 0.6299212598425197,
          "duration": 0.18068196874999387
        },
        {
          "name": "F5",
          "midi": 77,
          "time": 94.00007833333291,
          "velocity": 0.6299212598425197,
          "duration": 0.18068196874999387
        },
        {
          "name": "A#5",
          "midi": 82,
          "time": 94.18189666666623,
          "velocity": 0.6299212598425197,
          "duration": 0.18068196874999387
        },
        {
          "name": "C#6",
          "midi": 85,
          "time": 94.36371499999956,
          "velocity": 0.6299212598425197,
          "duration": 0.18068196874999387
        },
        {
          "name": "A#5",
          "midi": 82,
          "time": 94.54553333333288,
          "velocity": 0.6299212598425197,
          "duration": 0.18068196874999387
        },
        {
          "name": "C#6",
          "midi": 85,
          "time": 94.72735166666621,
          "velocity": 0.6299212598425197,
          "duration": 0.18068196874999387
        },
        {
          "name": "C#6",
          "midi": 85,
          "time": 94.90916999999953,
          "velocity": 0.6299212598425197,
          "duration": 0.18068196874999387
        },
        {
          "name": "C6",
          "midi": 84,
          "time": 95.09098833333286,
          "velocity": 0.6299212598425197,
          "duration": 0.18068196874999387
        },
        {
          "name": "G#5",
          "midi": 80,
          "time": 95.27280666666618,
          "velocity": 0.6299212598425197,
          "duration": 0.18068196874999387
        },
        {
          "name": "D#5",
          "midi": 75,
          "time": 95.45462499999951,
          "velocity": 0.6299212598425197,
          "duration": 0.18068196874999387
        },
        {
          "name": "G#5",
          "midi": 80,
          "time": 95.63644333333283,
          "velocity": 0.6299212598425197,
          "duration": 0.18068196874999387
        },
        {
          "name": "C6",
          "midi": 84,
          "time": 95.81826166666616,
          "velocity": 0.6299212598425197,
          "duration": 0.18068196874999387
        },
        {
          "name": "C#6",
          "midi": 85,
          "time": 96.00007999999949,
          "velocity": 0.6299212598425197,
          "duration": 0.18068196874999387
        },
        {
          "name": "A#5",
          "midi": 82,
          "time": 96.18189833333281,
          "velocity": 0.6299212598425197,
          "duration": 0.18068196874999387
        },
        {
          "name": "D#6",
          "midi": 87,
          "time": 96.36371666666614,
          "velocity": 0.6299212598425197,
          "duration": 0.18068196874999387
        },
        {
          "name": "C6",
          "midi": 84,
          "time": 96.54553499999946,
          "velocity": 0.6299212598425197,
          "duration": 0.18068196874999387
        },
        {
          "name": "D#5",
          "midi": 75,
          "time": 96.72735333333279,
          "velocity": 0.6299212598425197,
          "duration": 0.18068196874999387
        },
        {
          "name": "C5",
          "midi": 72,
          "time": 96.90917166666611,
          "velocity": 0.6299212598425197,
          "duration": 0.18068196874999387
        },
        {
          "name": "C#5",
          "midi": 73,
          "time": 97.09098999999944,
          "velocity": 0.6299212598425197,
          "duration": 0.18068196874999387
        },
        {
          "name": "D#5",
          "midi": 75,
          "time": 97.27280833333276,
          "velocity": 0.6299212598425197,
          "duration": 0.18068196874999387
        },
        {
          "name": "F5",
          "midi": 77,
          "time": 97.45462666666609,
          "velocity": 0.6299212598425197,
          "duration": 0.18068196874999387
        },
        {
          "name": "F#5",
          "midi": 78,
          "time": 97.63644499999941,
          "velocity": 0.6299212598425197,
          "duration": 0.18068196874999387
        },
        {
          "name": "G#5",
          "midi": 80,
          "time": 97.81826333333274,
          "velocity": 0.6299212598425197,
          "duration": 0.18068196874999387
        },
        {
          "name": "A#5",
          "midi": 82,
          "time": 98.00008166666606,
          "velocity": 0.6299212598425197,
          "duration": 0.18068196874999387
        },
        {
          "name": "C6",
          "midi": 84,
          "time": 98.18189999999939,
          "velocity": 0.6299212598425197,
          "duration": 0.18068196874999387
        },
        {
          "name": "A#5",
          "midi": 82,
          "time": 98.36371833333271,
          "velocity": 0.6299212598425197,
          "duration": 0.18068196874999387
        },
        {
          "name": "F#5",
          "midi": 78,
          "time": 98.54553666666604,
          "velocity": 0.6299212598425197,
          "duration": 0.18068196874999387
        },
        {
          "name": "C#5",
          "midi": 73,
          "time": 98.72735499999936,
          "velocity": 0.6299212598425197,
          "duration": 0.18068196874999387
        },
        {
          "name": "F#5",
          "midi": 78,
          "time": 98.90917333333269,
          "velocity": 0.6299212598425197,
          "duration": 0.18068196874999387
        },
        {
          "name": "A#5",
          "midi": 82,
          "time": 99.09099166666601,
          "velocity": 0.6299212598425197,
          "duration": 0.18068196874999387
        },
        {
          "name": "C#6",
          "midi": 85,
          "time": 99.27280999999934,
          "velocity": 0.6299212598425197,
          "duration": 0.18068196874999387
        },
        {
          "name": "A#5",
          "midi": 82,
          "time": 99.45462833333266,
          "velocity": 0.6299212598425197,
          "duration": 0.18068196874999387
        },
        {
          "name": "C#6",
          "midi": 85,
          "time": 99.63644666666599,
          "velocity": 0.6299212598425197,
          "duration": 0.18068196874999387
        },
        {
          "name": "C#6",
          "midi": 85,
          "time": 99.81826499999931,
          "velocity": 0.6299212598425197,
          "duration": 0.18068196874999387
        },
        {
          "name": "A#5",
          "midi": 82,
          "time": 100.00008333333264,
          "velocity": 0.6299212598425197,
          "duration": 0.18068196874999387
        },
        {
          "name": "F5",
          "midi": 77,
          "time": 100.18190166666596,
          "velocity": 0.6299212598425197,
          "duration": 0.18068196874999387
        },
        {
          "name": "C#5",
          "midi": 73,
          "time": 100.36371999999929,
          "velocity": 0.6299212598425197,
          "duration": 0.18068196874999387
        },
        {
          "name": "F5",
          "midi": 77,
          "time": 100.54553833333262,
          "velocity": 0.6299212598425197,
          "duration": 0.18068196874999387
        },
        {
          "name": "A#5",
          "midi": 82,
          "time": 100.72735666666594,
          "velocity": 0.6299212598425197,
          "duration": 0.18068196874999387
        },
        {
          "name": "C#6",
          "midi": 85,
          "time": 100.90917499999927,
          "velocity": 0.6299212598425197,
          "duration": 0.18068196874999387
        },
        {
          "name": "A#5",
          "midi": 82,
          "time": 101.09099333333259,
          "velocity": 0.6299212598425197,
          "duration": 0.18068196874999387
        },
        {
          "name": "C#6",
          "midi": 85,
          "time": 101.27281166666592,
          "velocity": 0.6299212598425197,
          "duration": 0.18068196874999387
        },
        {
          "name": "C#6",
          "midi": 85,
          "time": 101.45462999999924,
          "velocity": 0.6299212598425197,
          "duration": 0.18068196874999387
        },
        {
          "name": "D#6",
          "midi": 87,
          "time": 101.63644833333257,
          "velocity": 0.6299212598425197,
          "duration": 0.18068196874999387
        },
        {
          "name": "C#6",
          "midi": 85,
          "time": 101.81826666666589,
          "velocity": 0.6299212598425197,
          "duration": 0.18068196874999387
        },
        {
          "name": "C6",
          "midi": 84,
          "time": 102.00008499999922,
          "velocity": 0.6299212598425197,
          "duration": 0.18068196874999387
        },
        {
          "name": "C#6",
          "midi": 85,
          "time": 102.18190333333254,
          "velocity": 0.6299212598425197,
          "duration": 0.18068196874999387
        },
        {
          "name": "D#6",
          "midi": 87,
          "time": 102.36372166666587,
          "velocity": 0.6299212598425197,
          "duration": 0.18068196874999387
        },
        {
          "name": "G#5",
          "midi": 80,
          "time": 102.54553999999919,
          "velocity": 0.6299212598425197,
          "duration": 0.18068196874999387
        },
        {
          "name": "C6",
          "midi": 84,
          "time": 102.72735833333252,
          "velocity": 0.6299212598425197,
          "duration": 0.18068196874999387
        },
        {
          "name": "D#6",
          "midi": 87,
          "time": 102.90917666666584,
          "velocity": 0.6299212598425197,
          "duration": 0.18068196874999387
        },
        {
          "name": "F6",
          "midi": 89,
          "time": 103.09099499999917,
          "velocity": 0.6299212598425197,
          "duration": 0.18068196874999387
        },
        {
          "name": "F5",
          "midi": 77,
          "time": 103.2728133333325,
          "velocity": 0.6299212598425197,
          "duration": 0.18068196874999387
        },
        {
          "name": "F6",
          "midi": 89,
          "time": 103.45463166666582,
          "velocity": 0.6299212598425197,
          "duration": 0.18068196874999387
        },
        {
          "name": "F6",
          "midi": 89,
          "time": 103.63644999999914,
          "velocity": 0.6299212598425197,
          "duration": 0.18068196874999387
        },
        {
          "name": "F5",
          "midi": 77,
          "time": 103.81826833333247,
          "velocity": 0.6299212598425197,
          "duration": 0.18068196874999387
        },
        {
          "name": "F6",
          "midi": 89,
          "time": 104.0000866666658,
          "velocity": 0.6299212598425197,
          "duration": 0.18068196874999387
        },
        {
          "name": "F6",
          "midi": 89,
          "time": 104.18190499999912,
          "velocity": 0.6299212598425197,
          "duration": 0.18068196874999387
        },
        {
          "name": "F5",
          "midi": 77,
          "time": 104.36372333333244,
          "velocity": 0.6299212598425197,
          "duration": 0.18068196874999387
        },
        {
          "name": "F6",
          "midi": 89,
          "time": 104.54554166666577,
          "velocity": 0.6299212598425197,
          "duration": 0.18068196874999387
        },
        {
          "name": "F#6",
          "midi": 90,
          "time": 104.7273599999991,
          "velocity": 0.6299212598425197,
          "duration": 0.5443186354166727
        },
        {
          "name": "F#6",
          "midi": 90,
          "time": 105.5455424999991,
          "velocity": 0.6299212598425197,
          "duration": 0.2715911354166707
        },
        {
          "name": "F#6",
          "midi": 90,
          "time": 105.8182699999991,
          "velocity": 0.6299212598425197,
          "duration": 0.18068196874999387
        },
        {
          "name": "F6",
          "midi": 89,
          "time": 106.00008833333243,
          "velocity": 0.6299212598425197,
          "duration": 0.18068196874999387
        },
        {
          "name": "F6",
          "midi": 89,
          "time": 106.18190666666575,
          "velocity": 0.6299212598425197,
          "duration": 0.9988644687499999
        },
        {
          "name": "D#6",
          "midi": 87,
          "time": 107.18190749999908,
          "velocity": 0.6299212598425197,
          "duration": 0.2715911354166707
        },
        {
          "name": "C#6",
          "midi": 85,
          "time": 107.45463499999909,
          "velocity": 0.6299212598425197,
          "duration": 0.2715911354166707
        },
        {
          "name": "D#6",
          "midi": 87,
          "time": 107.72736249999909,
          "velocity": 0.6299212598425197,
          "duration": 1.0897736354166625
        },
        {
          "name": "D#6",
          "midi": 87,
          "time": 108.81827249999908,
          "velocity": 0.6299212598425197,
          "duration": 0.2715911354166707
        },
        {
          "name": "C#6",
          "midi": 85,
          "time": 109.09099999999908,
          "velocity": 0.6299212598425197,
          "duration": 0.2715911354166707
        },
        {
          "name": "F6",
          "midi": 89,
          "time": 109.36372749999909,
          "velocity": 0.6299212598425197,
          "duration": 1.0897736354166625
        },
        {
          "name": "F#6",
          "midi": 90,
          "time": 110.45463749999908,
          "velocity": 0.6299212598425197,
          "duration": 0.13522738541666968
        },
        {
          "name": "F6",
          "midi": 89,
          "time": 110.59100124999908,
          "velocity": 0.6299212598425197,
          "duration": 0.13522738541666968
        },
        {
          "name": "D#6",
          "midi": 87,
          "time": 110.72736499999908,
          "velocity": 0.6299212598425197,
          "duration": 1.0897736354166767
        },
        {
          "name": "F#6",
          "midi": 90,
          "time": 112.09100249999909,
          "velocity": 0.6299212598425197,
          "duration": 0.2715911354166707
        },
        {
          "name": "F#6",
          "midi": 90,
          "time": 112.3637299999991,
          "velocity": 0.6299212598425197,
          "duration": 0.18068196874999387
        },
        {
          "name": "F6",
          "midi": 89,
          "time": 112.54554833333242,
          "velocity": 0.6299212598425197,
          "duration": 0.18068196874999387
        },
        {
          "name": "F6",
          "midi": 89,
          "time": 112.72736666666574,
          "velocity": 0.6299212598425197,
          "duration": 0.9988644687500141
        },
        {
          "name": "D#6",
          "midi": 87,
          "time": 113.72736749999909,
          "velocity": 0.6299212598425197,
          "duration": 0.2715911354166707
        },
        {
          "name": "C#6",
          "midi": 85,
          "time": 114.00009499999909,
          "velocity": 0.6299212598425197,
          "duration": 0.2715911354166707
        },
        {
          "name": "G#6",
          "midi": 92,
          "time": 114.2728224999991,
          "velocity": 0.6299212598425197,
          "duration": 3.5443211354166664
        }
      ],
      "controlChanges": {
        "2": [
          {
            "number": 2,
            "time": 24.00002,
            "value": 0.25984251968503935
          },
          {
            "number": 2,
            "time": 24.181838333333335,
            "value": 0.25984251968503935
          },
          {
            "number": 2,
            "time": 24.36365666666667,
            "value": 0.25984251968503935
          },
          {
            "number": 2,
            "time": 24.545475000000007,
            "value": 0.25984251968503935
          },
          {
            "number": 2,
            "time": 25.36365750000001,
            "value": 0.25984251968503935
          },
          {
            "number": 2,
            "time": 25.90911250000001,
            "value": 0.25984251968503935
          },
          {
            "number": 2,
            "time": 26.18184000000001,
            "value": 0.25984251968503935
          },
          {
            "number": 2,
            "time": 27.000022500000014,
            "value": 0.25984251968503935
          },
          {
            "number": 2,
            "time": 27.272750000000016,
            "value": 0.25984251968503935
          },
          {
            "number": 2,
            "time": 27.818205000000017,
            "value": 0.25984251968503935
          },
          {
            "number": 2,
            "time": 28.363660000000017,
            "value": 0.25984251968503935
          },
          {
            "number": 2,
            "time": 28.909115000000018,
            "value": 0.25984251968503935
          },
          {
            "number": 2,
            "time": 29.454570000000018,
            "value": 0.25984251968503935
          },
          {
            "number": 2,
            "time": 36.00003000000002,
            "value": 0.25984251968503935
          },
          {
            "number": 2,
            "time": 36.105711906250015,
            "value": 0.2677165354330709
          },
          {
            "number": 2,
            "time": 36.21139381250001,
            "value": 0.2755905511811024
          },
          {
            "number": 2,
            "time": 36.31707571875001,
            "value": 0.28346456692913385
          },
          {
            "number": 2,
            "time": 36.42275762500001,
            "value": 0.29133858267716534
          },
          {
            "number": 2,
            "time": 36.52843953125001,
            "value": 0.2992125984251969
          },
          {
            "number": 2,
            "time": 36.634121437500006,
            "value": 0.30708661417322836
          },
          {
            "number": 2,
            "time": 36.739803343750005,
            "value": 0.31496062992125984
          },
          {
            "number": 2,
            "time": 36.84548525,
            "value": 0.3228346456692913
          },
          {
            "number": 2,
            "time": 36.95116715625,
            "value": 0.33070866141732286
          },
          {
            "number": 2,
            "time": 37.0568490625,
            "value": 0.33858267716535434
          },
          {
            "number": 2,
            "time": 37.16139460416666,
            "value": 0.3464566929133858
          },
          {
            "number": 2,
            "time": 37.26707651041666,
            "value": 0.3543307086614173
          },
          {
            "number": 2,
            "time": 37.372758416666656,
            "value": 0.36220472440944884
          },
          {
            "number": 2,
            "time": 37.478440322916654,
            "value": 0.3700787401574803
          },
          {
            "number": 2,
            "time": 37.58412222916665,
            "value": 0.3779527559055118
          },
          {
            "number": 2,
            "time": 37.68980413541665,
            "value": 0.3858267716535433
          },
          {
            "number": 2,
            "time": 37.79548604166665,
            "value": 0.3937007874015748
          },
          {
            "number": 2,
            "time": 37.90116794791665,
            "value": 0.4015748031496063
          },
          {
            "number": 2,
            "time": 38.006849854166646,
            "value": 0.4094488188976378
          },
          {
            "number": 2,
            "time": 38.112531760416644,
            "value": 0.41732283464566927
          },
          {
            "number": 2,
            "time": 38.21707730208331,
            "value": 0.4251968503937008
          },
          {
            "number": 2,
            "time": 38.32275920833331,
            "value": 0.4330708661417323
          },
          {
            "number": 2,
            "time": 38.42844111458331,
            "value": 0.4409448818897638
          },
          {
            "number": 2,
            "time": 38.534123020833306,
            "value": 0.44881889763779526
          },
          {
            "number": 2,
            "time": 38.639804927083304,
            "value": 0.4566929133858268
          },
          {
            "number": 2,
            "time": 38.7454868333333,
            "value": 0.4645669291338583
          },
          {
            "number": 2,
            "time": 38.8511687395833,
            "value": 0.47244094488188976
          },
          {
            "number": 2,
            "time": 38.9568506458333,
            "value": 0.48031496062992124
          },
          {
            "number": 2,
            "time": 39.0625325520833,
            "value": 0.4881889763779528
          },
          {
            "number": 2,
            "time": 39.168214458333296,
            "value": 0.49606299212598426
          },
          {
            "number": 2,
            "time": 39.27275999999996,
            "value": 0.5039370078740157
          },
          {
            "number": 2,
            "time": 39.454578333333295,
            "value": 0.5039370078740157
          },
          {
            "number": 2,
            "time": 39.66480578124996,
            "value": 0.5118110236220472
          },
          {
            "number": 2,
            "time": 40.05685156249996,
            "value": 0.5196850393700787
          },
          {
            "number": 2,
            "time": 40.448897343749955,
            "value": 0.5275590551181102
          },
          {
            "number": 2,
            "time": 40.84094312499995,
            "value": 0.5354330708661418
          },
          {
            "number": 2,
            "time": 41.090943333333286,
            "value": 0.5354330708661418
          },
          {
            "number": 2,
            "time": 41.23298890624995,
            "value": 0.5433070866141733
          },
          {
            "number": 2,
            "time": 41.62503468749995,
            "value": 0.5511811023622047
          },
          {
            "number": 2,
            "time": 42.017080468749946,
            "value": 0.5590551181102362
          },
          {
            "number": 2,
            "time": 42.40912624999994,
            "value": 0.5669291338582677
          },
          {
            "number": 2,
            "time": 42.727308333333276,
            "value": 0.5669291338582677
          },
          {
            "number": 2,
            "time": 42.80117203124994,
            "value": 0.5748031496062992
          },
          {
            "number": 2,
            "time": 43.19321781249994,
            "value": 0.5826771653543307
          },
          {
            "number": 2,
            "time": 43.58526359374993,
            "value": 0.5905511811023622
          },
          {
            "number": 2,
            "time": 43.977309374999926,
            "value": 0.5984251968503937
          },
          {
            "number": 2,
            "time": 44.36367333333325,
            "value": 0.5984251968503937
          },
          {
            "number": 2,
            "time": 44.36935515624992,
            "value": 0.6062992125984252
          },
          {
            "number": 2,
            "time": 44.76140093749991,
            "value": 0.6141732283464567
          },
          {
            "number": 2,
            "time": 45.153446718749905,
            "value": 0.6220472440944882
          },
          {
            "number": 2,
            "time": 45.5454924999999,
            "value": 0.6299212598425197
          },
          {
            "number": 2,
            "time": 45.9375382812499,
            "value": 0.6377952755905512
          },
          {
            "number": 2,
            "time": 46.3295840624999,
            "value": 0.6456692913385826
          },
          {
            "number": 2,
            "time": 46.721629843749895,
            "value": 0.6535433070866141
          },
          {
            "number": 2,
            "time": 47.11367562499989,
            "value": 0.6614173228346457
          },
          {
            "number": 2,
            "time": 47.50572140624989,
            "value": 0.6692913385826772
          },
          {
            "number": 2,
            "time": 47.89776718749989,
            "value": 0.6771653543307087
          },
          {
            "number": 2,
            "time": 48.289812968749885,
            "value": 0.6850393700787402
          },
          {
            "number": 2,
            "time": 48.68185874999988,
            "value": 0.6929133858267716
          },
          {
            "number": 2,
            "time": 49.07390453124988,
            "value": 0.7007874015748031
          },
          {
            "number": 2,
            "time": 49.27276833333321,
            "value": 0.7007874015748031
          },
          {
            "number": 2,
            "time": 49.46595031249988,
            "value": 0.7086614173228346
          },
          {
            "number": 2,
            "time": 49.857996093749875,
            "value": 0.7165354330708661
          },
          {
            "number": 2,
            "time": 50.25004187499987,
            "value": 0.7244094488188977
          },
          {
            "number": 2,
            "time": 50.64208765624987,
            "value": 0.7322834645669292
          },
          {
            "number": 2,
            "time": 50.9091333333332,
            "value": 0.7322834645669292
          },
          {
            "number": 2,
            "time": 51.03413343749987,
            "value": 0.7401574803149606
          },
          {
            "number": 2,
            "time": 51.426179218749866,
            "value": 0.7480314960629921
          },
          {
            "number": 2,
            "time": 51.81822499999986,
            "value": 0.7559055118110236
          },
          {
            "number": 2,
            "time": 52.36367999999986,
            "value": 0.6299212598425197
          },
          {
            "number": 2,
            "time": 52.54549833333319,
            "value": 0.6299212598425197
          },
          {
            "number": 2,
            "time": 54.18186333333318,
            "value": 0.6299212598425197
          },
          {
            "number": 2,
            "time": 55.818228333333174,
            "value": 0.6299212598425197
          },
          {
            "number": 2,
            "time": 57.454593333333165,
            "value": 0.6299212598425197
          },
          {
            "number": 2,
            "time": 59.090958333333155,
            "value": 0.6299212598425197
          },
          {
            "number": 2,
            "time": 60.72732333333313,
            "value": 0.6299212598425197
          },
          {
            "number": 2,
            "time": 62.36368833333312,
            "value": 0.6299212598425197
          },
          {
            "number": 2,
            "time": 63.909144166666444,
            "value": 0.6299212598425197
          },
          {
            "number": 2,
            "time": 103.2728133333325,
            "value": 0.6299212598425197
          },
          {
            "number": 2,
            "time": 104.0000866666658,
            "value": 0.6299212598425197
          },
          {
            "number": 2,
            "time": 105.5455424999991,
            "value": 0.6299212598425197
          },
          {
            "number": 2,
            "time": 105.8182699999991,
            "value": 0.6299212598425197
          },
          {
            "number": 2,
            "time": 106.00008833333243,
            "value": 0.6299212598425197
          },
          {
            "number": 2,
            "time": 106.18190666666575,
            "value": 0.6299212598425197
          },
          {
            "number": 2,
            "time": 106.36372499999909,
            "value": 0.6299212598425197
          },
          {
            "number": 2,
            "time": 107.18190749999908,
            "value": 0.6299212598425197
          },
          {
            "number": 2,
            "time": 107.45463499999909,
            "value": 0.6299212598425197
          },
          {
            "number": 2,
            "time": 107.72736249999909,
            "value": 0.6299212598425197
          },
          {
            "number": 2,
            "time": 108.00008999999909,
            "value": 0.6299212598425197
          },
          {
            "number": 2,
            "time": 108.81827249999908,
            "value": 0.6299212598425197
          },
          {
            "number": 2,
            "time": 109.09099999999908,
            "value": 0.6299212598425197
          },
          {
            "number": 2,
            "time": 109.36372749999909,
            "value": 0.6299212598425197
          },
          {
            "number": 2,
            "time": 109.63645499999909,
            "value": 0.6299212598425197
          },
          {
            "number": 2,
            "time": 110.45463749999908,
            "value": 0.6299212598425197
          },
          {
            "number": 2,
            "time": 110.59100124999908,
            "value": 0.6299212598425197
          },
          {
            "number": 2,
            "time": 110.72736499999908,
            "value": 0.6299212598425197
          },
          {
            "number": 2,
            "time": 111.27281999999909,
            "value": 0.6299212598425197
          },
          {
            "number": 2,
            "time": 112.09100249999909,
            "value": 0.6299212598425197
          },
          {
            "number": 2,
            "time": 112.3637299999991,
            "value": 0.6299212598425197
          },
          {
            "number": 2,
            "time": 112.54554833333242,
            "value": 0.6299212598425197
          },
          {
            "number": 2,
            "time": 112.72736666666574,
            "value": 0.6299212598425197
          },
          {
            "number": 2,
            "time": 112.90918499999908,
            "value": 0.6299212598425197
          },
          {
            "number": 2,
            "time": 113.18191249999909,
            "value": 0.6299212598425197
          },
          {
            "number": 2,
            "time": 113.72736749999909,
            "value": 0.6299212598425197
          },
          {
            "number": 2,
            "time": 114.00009499999909,
            "value": 0.6299212598425197
          },
          {
            "number": 2,
            "time": 114.2728224999991,
            "value": 0.6299212598425197
          },
          {
            "number": 2,
            "time": 114.5455499999991,
            "value": 0.6299212598425197
          },
          {
            "number": 2,
            "time": 116.1819149999991,
            "value": 0.6299212598425197
          }
        ],
        "7": [
          {
            "number": 7,
            "time": 0,
            "value": 0.7874015748031497
          },
          {
            "number": 7,
            "time": 0,
            "value": 0.7874015748031497
          },
          {
            "number": 7,
            "time": 0,
            "value": 0.7874015748031497
          }
        ],
        "10": [
          {
            "number": 10,
            "time": 0,
            "value": 0.5039370078740157
          },
          {
            "number": 10,
            "time": 0,
            "value": 0.5039370078740157
          },
          {
            "number": 10,
            "time": 0,
            "value": 0.5039370078740157
          }
        ],
        "91": [
          {
            "number": 91,
            "time": 0,
            "value": 0
          },
          {
            "number": 91,
            "time": 0,
            "value": 0
          },
          {
            "number": 91,
            "time": 0,
            "value": 0
          }
        ],
        "93": [
          {
            "number": 93,
            "time": 0,
            "value": 0
          },
          {
            "number": 93,
            "time": 0,
            "value": 0
          },
          {
            "number": 93,
            "time": 0,
            "value": 0
          }
        ],
        "121": [
          {
            "number": 121,
            "time": 0,
            "value": 0
          },
          {
            "number": 121,
            "time": 0,
            "value": 0
          },
          {
            "number": 121,
            "time": 0,
            "value": 0
          }
        ]
      },
      "id": 0,
      "name": "Violin",
      "instrumentNumber": 44,
      "instrument": "tremolo strings",
      "instrumentFamily": "strings",
      "channelNumber": 2,
      "isPercussion": false
    },
    {
      "startTime": 10.9091,
      "duration": 117.81714363541664,
      "length": 85,
      "notes": [
        {
          "name": "D#4",
          "midi": 63,
          "time": 10.9091,
          "velocity": 0.3858267716535433,
          "duration": 0.1806819687499992
        },
        {
          "name": "G#3",
          "midi": 56,
          "time": 11.090918333333333,
          "velocity": 0.3858267716535433,
          "duration": 0.1806819687499992
        },
        {
          "name": "G3",
          "midi": 55,
          "time": 11.272736666666665,
          "velocity": 0.3858267716535433,
          "duration": 0.1806819687499992
        },
        {
          "name": "D#3",
          "midi": 51,
          "time": 11.454554999999997,
          "velocity": 0.3858267716535433,
          "duration": 0.8170461354166658
        },
        {
          "name": "G3",
          "midi": 55,
          "time": 11.454554999999997,
          "velocity": 0.3858267716535433,
          "duration": 0.8170461354166658
        },
        {
          "name": "F3",
          "midi": 53,
          "time": 12.272737499999996,
          "velocity": 0.3858267716535433,
          "duration": 0.27159113541666713
        },
        {
          "name": "G#3",
          "midi": 56,
          "time": 12.272737499999996,
          "velocity": 0.3858267716535433,
          "duration": 0.27159113541666713
        },
        {
          "name": "D#3",
          "midi": 51,
          "time": 12.545464999999997,
          "velocity": 0.3858267716535433,
          "duration": 0.5443186354166674
        },
        {
          "name": "G3",
          "midi": 55,
          "time": 12.545464999999997,
          "velocity": 0.3858267716535433,
          "duration": 0.5443186354166674
        },
        {
          "name": "G3",
          "midi": 55,
          "time": 13.090919999999997,
          "velocity": 0.3858267716535433,
          "duration": 0.8170461354166658
        },
        {
          "name": "F3",
          "midi": 53,
          "time": 13.909102499999996,
          "velocity": 0.3858267716535433,
          "duration": 0.8170461354166658
        },
        {
          "name": "G3",
          "midi": 55,
          "time": 14.727284999999995,
          "velocity": 0.3858267716535433,
          "duration": 0.8170461354166658
        },
        {
          "name": "G#3",
          "midi": 56,
          "time": 15.545467499999994,
          "velocity": 0.3858267716535433,
          "duration": 0.8170461354166676
        },
        {
          "name": "C3",
          "midi": 48,
          "time": 17.454559999999994,
          "velocity": 0.3858267716535433,
          "duration": 0.5443186354166656
        },
        {
          "name": "G3",
          "midi": 55,
          "time": 17.454559999999994,
          "velocity": 0.3858267716535433,
          "duration": 0.5443186354166656
        },
        {
          "name": "D#4",
          "midi": 63,
          "time": 18.000014999999994,
          "velocity": 0.3858267716535433,
          "duration": 0.27159113541666713
        },
        {
          "name": "G#3",
          "midi": 56,
          "time": 18.272742499999996,
          "velocity": 0.3858267716535433,
          "duration": 0.5443186354166656
        },
        {
          "name": "C4",
          "midi": 60,
          "time": 18.272742499999996,
          "velocity": 0.3858267716535433,
          "duration": 0.5443186354166656
        },
        {
          "name": "G3",
          "midi": 55,
          "time": 18.818197499999997,
          "velocity": 0.3858267716535433,
          "duration": 0.5443186354166656
        },
        {
          "name": "G#3",
          "midi": 56,
          "time": 18.818197499999997,
          "velocity": 0.3858267716535433,
          "duration": 0.5443186354166656
        },
        {
          "name": "D#3",
          "midi": 51,
          "time": 19.363652499999997,
          "velocity": 0.3858267716535433,
          "duration": 0.27159113541666713
        },
        {
          "name": "D3",
          "midi": 50,
          "time": 19.63638,
          "velocity": 0.3858267716535433,
          "duration": 1.6352286354166665
        },
        {
          "name": "C#3",
          "midi": 49,
          "time": 21.272745,
          "velocity": 0.3858267716535433,
          "duration": 1.6352286354166665
        },
        {
          "name": "C4",
          "midi": 60,
          "time": 24.00002,
          "velocity": 0.3858267716535433,
          "duration": 0.18068196875000098
        },
        {
          "name": "G#3",
          "midi": 56,
          "time": 24.181838333333335,
          "velocity": 0.3858267716535433,
          "duration": 0.18068196875000098
        },
        {
          "name": "F3",
          "midi": 53,
          "time": 24.36365666666667,
          "velocity": 0.3858267716535433,
          "duration": 0.18068196875000098
        },
        {
          "name": "C#3",
          "midi": 49,
          "time": 24.545475000000007,
          "velocity": 0.3858267716535433,
          "duration": 0.8170461354166676
        },
        {
          "name": "D#3",
          "midi": 51,
          "time": 25.36365750000001,
          "velocity": 0.3858267716535433,
          "duration": 0.5443186354166656
        },
        {
          "name": "A#3",
          "midi": 58,
          "time": 25.90911250000001,
          "velocity": 0.3858267716535433,
          "duration": 0.27159113541666713
        },
        {
          "name": "A#3",
          "midi": 58,
          "time": 26.18184000000001,
          "velocity": 0.3858267716535433,
          "duration": 0.8170461354166676
        },
        {
          "name": "G#3",
          "midi": 56,
          "time": 27.000022500000014,
          "velocity": 0.3858267716535433,
          "duration": 0.27159113541666713
        },
        {
          "name": "A#3",
          "midi": 58,
          "time": 27.272750000000016,
          "velocity": 0.3858267716535433,
          "duration": 0.5443186354166656
        },
        {
          "name": "F3",
          "midi": 53,
          "time": 27.818205000000017,
          "velocity": 0.3858267716535433,
          "duration": 0.5443186354166656
        },
        {
          "name": "G3",
          "midi": 55,
          "time": 28.363660000000017,
          "velocity": 0.3858267716535433,
          "duration": 0.5443186354166656
        },
        {
          "name": "G#3",
          "midi": 56,
          "time": 28.909115000000018,
          "velocity": 0.3858267716535433,
          "duration": 0.5443186354166656
        },
        {
          "name": "C#3",
          "midi": 49,
          "time": 29.454570000000018,
          "velocity": 0.3858267716535433,
          "duration": 1.6352286354166665
        },
        {
          "name": "C3",
          "midi": 48,
          "time": 31.818208333333352,
          "velocity": 0.3858267716535433,
          "duration": 0.18068196875000098
        },
        {
          "name": "G3",
          "midi": 55,
          "time": 32.000026666666685,
          "velocity": 0.3858267716535433,
          "duration": 0.18068196875000098
        },
        {
          "name": "A#3",
          "midi": 58,
          "time": 32.18184500000002,
          "velocity": 0.3858267716535433,
          "duration": 0.18068196875000098
        },
        {
          "name": "G3",
          "midi": 55,
          "time": 32.36366333333335,
          "velocity": 0.3858267716535433,
          "duration": 0.18068196875000098
        },
        {
          "name": "F3",
          "midi": 53,
          "time": 32.54548166666668,
          "velocity": 0.3858267716535433,
          "duration": 0.18068196875000098
        },
        {
          "name": "F3",
          "midi": 53,
          "time": 32.727300000000014,
          "velocity": 0.3858267716535433,
          "duration": 2.1806836354166705
        },
        {
          "name": "G3",
          "midi": 55,
          "time": 34.909120000000016,
          "velocity": 0.3858267716535433,
          "duration": 0.8170461354166676
        },
        {
          "name": "C3",
          "midi": 48,
          "time": 39.27276000000002,
          "velocity": 0.3858267716535433,
          "duration": 1.6352286354166665
        },
        {
          "name": "C#3",
          "midi": 49,
          "time": 40.90912500000002,
          "velocity": 0.3858267716535433,
          "duration": 1.6352286354166665
        },
        {
          "name": "D#3",
          "midi": 51,
          "time": 42.545490000000015,
          "velocity": 0.3858267716535433,
          "duration": 1.6352286354166665
        },
        {
          "name": "F3",
          "midi": 53,
          "time": 44.18185500000001,
          "velocity": 0.3858267716535433,
          "duration": 1.6352286354166665
        },
        {
          "name": "A#2",
          "midi": 46,
          "time": 45.81822000000001,
          "velocity": 0.3858267716535433,
          "duration": 1.6352286354166665
        },
        {
          "name": "C3",
          "midi": 48,
          "time": 47.45458500000001,
          "velocity": 0.3858267716535433,
          "duration": 1.6352286354166665
        },
        {
          "name": "F3",
          "midi": 53,
          "time": 49.09095000000001,
          "velocity": 0.3858267716535433,
          "duration": 1.6352286354166665
        },
        {
          "name": "F3",
          "midi": 53,
          "time": 50.727315000000004,
          "velocity": 0.3858267716535433,
          "duration": 1.6352286354166665
        },
        {
          "name": "C3",
          "midi": 48,
          "time": 52.36368,
          "velocity": 0.3858267716535433,
          "duration": 1.6352286354166665
        },
        {
          "name": "C#3",
          "midi": 49,
          "time": 54.000045,
          "velocity": 0.3858267716535433,
          "duration": 1.6352286354166665
        },
        {
          "name": "D#3",
          "midi": 51,
          "time": 55.63641,
          "velocity": 0.3858267716535433,
          "duration": 1.6352286354166665
        },
        {
          "name": "F3",
          "midi": 53,
          "time": 57.272774999999996,
          "velocity": 0.3858267716535433,
          "duration": 1.6352286354166665
        },
        {
          "name": "A#2",
          "midi": 46,
          "time": 58.909139999999994,
          "velocity": 0.3858267716535433,
          "duration": 1.6352286354166665
        },
        {
          "name": "C3",
          "midi": 48,
          "time": 60.54550499999999,
          "velocity": 0.3858267716535433,
          "duration": 1.6352286354166665
        },
        {
          "name": "F3",
          "midi": 53,
          "time": 62.18186999999999,
          "velocity": 0.3858267716535433,
          "duration": 1.6352286354166665
        },
        {
          "name": "A3",
          "midi": 57,
          "time": 63.81823499999999,
          "velocity": 0.3858267716535433,
          "duration": 1.6352286354166665
        },
        {
          "name": "F3",
          "midi": 53,
          "time": 103.09099499999999,
          "velocity": 0.3858267716535433,
          "duration": 0.8170461354166605
        },
        {
          "name": "A2",
          "midi": 45,
          "time": 103.90917749999998,
          "velocity": 0.3858267716535433,
          "duration": 0.8170461354166605
        },
        {
          "name": "A#2",
          "midi": 46,
          "time": 104.72735999999998,
          "velocity": 0.8818897637795275,
          "duration": 0.5443186354166727
        },
        {
          "name": "F#4",
          "midi": 66,
          "time": 105.54554249999998,
          "velocity": 0.8818897637795275,
          "duration": 0.2715911354166707
        },
        {
          "name": "F#4",
          "midi": 66,
          "time": 105.81826999999998,
          "velocity": 0.8818897637795275,
          "duration": 0.18068196874999387
        },
        {
          "name": "F4",
          "midi": 65,
          "time": 106.00008833333331,
          "velocity": 0.8818897637795275,
          "duration": 0.18068196874999387
        },
        {
          "name": "F4",
          "midi": 65,
          "time": 106.18190666666663,
          "velocity": 0.8818897637795275,
          "duration": 0.9988644687499999
        },
        {
          "name": "D#4",
          "midi": 63,
          "time": 107.18190749999997,
          "velocity": 0.8818897637795275,
          "duration": 0.2715911354166707
        },
        {
          "name": "C#4",
          "midi": 61,
          "time": 107.45463499999997,
          "velocity": 0.8818897637795275,
          "duration": 0.2715911354166707
        },
        {
          "name": "D#4",
          "midi": 63,
          "time": 107.72736249999997,
          "velocity": 0.8818897637795275,
          "duration": 1.0897736354166625
        },
        {
          "name": "D#4",
          "midi": 63,
          "time": 108.81827249999996,
          "velocity": 0.8818897637795275,
          "duration": 0.2715911354166707
        },
        {
          "name": "C#4",
          "midi": 61,
          "time": 109.09099999999997,
          "velocity": 0.8818897637795275,
          "duration": 0.2715911354166707
        },
        {
          "name": "F4",
          "midi": 65,
          "time": 109.36372749999997,
          "velocity": 0.8818897637795275,
          "duration": 1.0897736354166625
        },
        {
          "name": "F#4",
          "midi": 66,
          "time": 110.45463749999996,
          "velocity": 0.8818897637795275,
          "duration": 0.13522738541666968
        },
        {
          "name": "F4",
          "midi": 65,
          "time": 110.59100124999996,
          "velocity": 0.8818897637795275,
          "duration": 0.13522738541666968
        },
        {
          "name": "D#4",
          "midi": 63,
          "time": 110.72736499999996,
          "velocity": 0.8818897637795275,
          "duration": 1.0897736354166767
        },
        {
          "name": "F#4",
          "midi": 66,
          "time": 112.09100249999997,
          "velocity": 0.8818897637795275,
          "duration": 0.2715911354166707
        },
        {
          "name": "F#4",
          "midi": 66,
          "time": 112.36372999999998,
          "velocity": 0.8818897637795275,
          "duration": 0.18068196874999387
        },
        {
          "name": "F4",
          "midi": 65,
          "time": 112.5455483333333,
          "velocity": 0.8818897637795275,
          "duration": 0.18068196874999387
        },
        {
          "name": "F4",
          "midi": 65,
          "time": 112.72736666666663,
          "velocity": 0.8818897637795275,
          "duration": 0.9988644687500141
        },
        {
          "name": "D#4",
          "midi": 63,
          "time": 113.72736749999997,
          "velocity": 0.8818897637795275,
          "duration": 0.2715911354166707
        },
        {
          "name": "C#4",
          "midi": 61,
          "time": 114.00009499999997,
          "velocity": 0.8818897637795275,
          "duration": 0.2715911354166707
        },
        {
          "name": "F4",
          "midi": 65,
          "time": 114.27282249999998,
          "velocity": 0.8818897637795275,
          "duration": 1.0897736354166625
        },
        {
          "name": "D#4",
          "midi": 63,
          "time": 115.36373249999997,
          "velocity": 0.8818897637795275,
          "duration": 0.2715911354166707
        },
        {
          "name": "C#4",
          "midi": 61,
          "time": 115.63645999999997,
          "velocity": 0.8818897637795275,
          "duration": 0.2715911354166707
        },
        {
          "name": "C4",
          "midi": 60,
          "time": 115.90918749999997,
          "velocity": 0.8818897637795275,
          "duration": 1.9079561354166685
        }
      ],
      "controlChanges": {
        "2": [
          {
            "number": 2,
            "time": 10.9091,
            "value": 0.3858267716535433
          },
          {
            "number": 2,
            "time": 24.00002,
            "value": 0.3858267716535433
          },
          {
            "number": 2,
            "time": 24.181838333333335,
            "value": 0.3858267716535433
          },
          {
            "number": 2,
            "time": 24.36365666666667,
            "value": 0.3858267716535433
          },
          {
            "number": 2,
            "time": 24.545475000000007,
            "value": 0.3858267716535433
          },
          {
            "number": 2,
            "time": 25.36365750000001,
            "value": 0.3858267716535433
          },
          {
            "number": 2,
            "time": 25.90911250000001,
            "value": 0.3858267716535433
          },
          {
            "number": 2,
            "time": 26.18184000000001,
            "value": 0.3858267716535433
          },
          {
            "number": 2,
            "time": 27.000022500000014,
            "value": 0.3858267716535433
          },
          {
            "number": 2,
            "time": 27.272750000000016,
            "value": 0.3858267716535433
          },
          {
            "number": 2,
            "time": 27.818205000000017,
            "value": 0.3858267716535433
          },
          {
            "number": 2,
            "time": 28.363660000000017,
            "value": 0.3858267716535433
          },
          {
            "number": 2,
            "time": 28.909115000000018,
            "value": 0.3858267716535433
          },
          {
            "number": 2,
            "time": 29.454570000000018,
            "value": 0.3858267716535433
          },
          {
            "number": 2,
            "time": 39.27276000000002,
            "value": 0.3858267716535433
          },
          {
            "number": 2,
            "time": 40.90912500000002,
            "value": 0.3858267716535433
          },
          {
            "number": 2,
            "time": 42.545490000000015,
            "value": 0.3858267716535433
          },
          {
            "number": 2,
            "time": 44.18185500000001,
            "value": 0.3858267716535433
          },
          {
            "number": 2,
            "time": 45.81822000000001,
            "value": 0.3858267716535433
          },
          {
            "number": 2,
            "time": 47.45458500000001,
            "value": 0.3858267716535433
          },
          {
            "number": 2,
            "time": 49.09095000000001,
            "value": 0.3858267716535433
          },
          {
            "number": 2,
            "time": 50.727315000000004,
            "value": 0.3858267716535433
          },
          {
            "number": 2,
            "time": 52.36368,
            "value": 0.3858267716535433
          },
          {
            "number": 2,
            "time": 54.000045,
            "value": 0.3858267716535433
          },
          {
            "number": 2,
            "time": 55.63641,
            "value": 0.3858267716535433
          },
          {
            "number": 2,
            "time": 57.272774999999996,
            "value": 0.3858267716535433
          },
          {
            "number": 2,
            "time": 58.909139999999994,
            "value": 0.3858267716535433
          },
          {
            "number": 2,
            "time": 60.54550499999999,
            "value": 0.3858267716535433
          },
          {
            "number": 2,
            "time": 62.18186999999999,
            "value": 0.3858267716535433
          },
          {
            "number": 2,
            "time": 63.81823499999999,
            "value": 0.3858267716535433
          },
          {
            "number": 2,
            "time": 103.09099499999999,
            "value": 0.3858267716535433
          },
          {
            "number": 2,
            "time": 103.90917749999998,
            "value": 0.3858267716535433
          },
          {
            "number": 2,
            "time": 104.72735999999998,
            "value": 0.8818897637795275
          },
          {
            "number": 2,
            "time": 105.54554249999998,
            "value": 0.8818897637795275
          },
          {
            "number": 2,
            "time": 105.81826999999998,
            "value": 0.8818897637795275
          },
          {
            "number": 2,
            "time": 106.00008833333331,
            "value": 0.8818897637795275
          },
          {
            "number": 2,
            "time": 106.18190666666663,
            "value": 0.8818897637795275
          },
          {
            "number": 2,
            "time": 106.36372499999997,
            "value": 0.8818897637795275
          },
          {
            "number": 2,
            "time": 107.18190749999997,
            "value": 0.8818897637795275
          },
          {
            "number": 2,
            "time": 107.45463499999997,
            "value": 0.8818897637795275
          },
          {
            "number": 2,
            "time": 107.72736249999997,
            "value": 0.8818897637795275
          },
          {
            "number": 2,
            "time": 108.00008999999997,
            "value": 0.8818897637795275
          },
          {
            "number": 2,
            "time": 108.81827249999996,
            "value": 0.8818897637795275
          },
          {
            "number": 2,
            "time": 109.09099999999997,
            "value": 0.8818897637795275
          },
          {
            "number": 2,
            "time": 109.36372749999997,
            "value": 0.8818897637795275
          },
          {
            "number": 2,
            "time": 109.63645499999997,
            "value": 0.8818897637795275
          },
          {
            "number": 2,
            "time": 110.45463749999996,
            "value": 0.8818897637795275
          },
          {
            "number": 2,
            "time": 110.59100124999996,
            "value": 0.8818897637795275
          },
          {
            "number": 2,
            "time": 110.72736499999996,
            "value": 0.8818897637795275
          },
          {
            "number": 2,
            "time": 111.27281999999997,
            "value": 0.8818897637795275
          },
          {
            "number": 2,
            "time": 112.09100249999997,
            "value": 0.8818897637795275
          },
          {
            "number": 2,
            "time": 112.36372999999998,
            "value": 0.8818897637795275
          },
          {
            "number": 2,
            "time": 112.5455483333333,
            "value": 0.8818897637795275
          },
          {
            "number": 2,
            "time": 112.72736666666663,
            "value": 0.8818897637795275
          },
          {
            "number": 2,
            "time": 112.90918499999997,
            "value": 0.8818897637795275
          },
          {
            "number": 2,
            "time": 113.18191249999997,
            "value": 0.8818897637795275
          },
          {
            "number": 2,
            "time": 113.72736749999997,
            "value": 0.8818897637795275
          },
          {
            "number": 2,
            "time": 114.00009499999997,
            "value": 0.8818897637795275
          },
          {
            "number": 2,
            "time": 114.27282249999998,
            "value": 0.8818897637795275
          },
          {
            "number": 2,
            "time": 114.54554999999998,
            "value": 0.8818897637795275
          },
          {
            "number": 2,
            "time": 116.18191499999998,
            "value": 0.8818897637795275
          }
        ],
        "7": [
          {
            "number": 7,
            "time": 0,
            "value": 0.7874015748031497
          },
          {
            "number": 7,
            "time": 0,
            "value": 0.7874015748031497
          },
          {
            "number": 7,
            "time": 0,
            "value": 0.7874015748031497
          }
        ],
        "10": [
          {
            "number": 10,
            "time": 0,
            "value": 0.5039370078740157
          },
          {
            "number": 10,
            "time": 0,
            "value": 0.5039370078740157
          },
          {
            "number": 10,
            "time": 0,
            "value": 0.5039370078740157
          }
        ],
        "91": [
          {
            "number": 91,
            "time": 0,
            "value": 0
          },
          {
            "number": 91,
            "time": 0,
            "value": 0
          },
          {
            "number": 91,
            "time": 0,
            "value": 0
          }
        ],
        "93": [
          {
            "number": 93,
            "time": 0,
            "value": 0
          },
          {
            "number": 93,
            "time": 0,
            "value": 0
          },
          {
            "number": 93,
            "time": 0,
            "value": 0
          }
        ],
        "121": [
          {
            "number": 121,
            "time": 0,
            "value": 0
          },
          {
            "number": 121,
            "time": 0,
            "value": 0
          },
          {
            "number": 121,
            "time": 0,
            "value": 0
          }
        ]
      },
      "id": 1,
      "name": "Violoncello",
      "instrumentNumber": 44,
      "instrument": "tremolo strings",
      "instrumentFamily": "strings",
      "channelNumber": 5,
      "isPercussion": false
    },
    {
      "startTime": 0,
      "duration": 117.73532538541703,
      "length": 347,
      "notes": [
        {
          "name": "F3",
          "midi": 53,
          "time": 0,
          "velocity": 0.25984251968503935,
          "duration": 0.5170458854166666
        },
        {
          "name": "C4",
          "midi": 60,
          "time": 0,
          "velocity": 0.25984251968503935,
          "duration": 0.5170458854166666
        },
        {
          "name": "F3",
          "midi": 53,
          "time": 0.5454549999999999,
          "velocity": 0.25984251968503935,
          "duration": 0.5170458854166667
        },
        {
          "name": "C4",
          "midi": 60,
          "time": 0.5454549999999999,
          "velocity": 0.25984251968503935,
          "duration": 0.5170458854166667
        },
        {
          "name": "F3",
          "midi": 53,
          "time": 1.09091,
          "velocity": 0.25984251968503935,
          "duration": 0.5170458854166666
        },
        {
          "name": "C4",
          "midi": 60,
          "time": 1.09091,
          "velocity": 0.25984251968503935,
          "duration": 0.5170458854166666
        },
        {
          "name": "F3",
          "midi": 53,
          "time": 1.636365,
          "velocity": 0.25984251968503935,
          "duration": 0.5170458854166666
        },
        {
          "name": "C4",
          "midi": 60,
          "time": 1.636365,
          "velocity": 0.25984251968503935,
          "duration": 0.5170458854166666
        },
        {
          "name": "F3",
          "midi": 53,
          "time": 2.18182,
          "velocity": 0.25984251968503935,
          "duration": 0.5170458854166666
        },
        {
          "name": "C4",
          "midi": 60,
          "time": 2.18182,
          "velocity": 0.25984251968503935,
          "duration": 0.5170458854166666
        },
        {
          "name": "F3",
          "midi": 53,
          "time": 2.727275,
          "velocity": 0.25984251968503935,
          "duration": 0.5170458854166666
        },
        {
          "name": "C4",
          "midi": 60,
          "time": 2.727275,
          "velocity": 0.25984251968503935,
          "duration": 0.5170458854166666
        },
        {
          "name": "F3",
          "midi": 53,
          "time": 3.27273,
          "velocity": 0.25984251968503935,
          "duration": 1.09091
        },
        {
          "name": "C4",
          "midi": 60,
          "time": 3.27273,
          "velocity": 0.25984251968503935,
          "duration": 0.5170458854166666
        },
        {
          "name": "F3",
          "midi": 53,
          "time": 3.818185,
          "velocity": 0.25984251968503935,
          "duration": 1.0625008854166667
        },
        {
          "name": "C4",
          "midi": 60,
          "time": 3.818185,
          "velocity": 0.25984251968503935,
          "duration": 0.5170458854166671
        },
        {
          "name": "F3",
          "midi": 53,
          "time": 4.36364,
          "velocity": 0.25984251968503935,
          "duration": 1.0625008854166662
        },
        {
          "name": "C4",
          "midi": 60,
          "time": 4.36364,
          "velocity": 0.25984251968503935,
          "duration": 0.5170458854166666
        },
        {
          "name": "F3",
          "midi": 53,
          "time": 4.909095,
          "velocity": 0.25984251968503935,
          "duration": 1.0625008854166662
        },
        {
          "name": "C4",
          "midi": 60,
          "time": 4.909095,
          "velocity": 0.25984251968503935,
          "duration": 0.5170458854166666
        },
        {
          "name": "F3",
          "midi": 53,
          "time": 5.454549999999999,
          "velocity": 0.25984251968503935,
          "duration": 1.0625008854166662
        },
        {
          "name": "C4",
          "midi": 60,
          "time": 5.454549999999999,
          "velocity": 0.25984251968503935,
          "duration": 0.5170458854166666
        },
        {
          "name": "F3",
          "midi": 53,
          "time": 6.000004999999999,
          "velocity": 0.25984251968503935,
          "duration": 1.0625008854166662
        },
        {
          "name": "C4",
          "midi": 60,
          "time": 6.000004999999999,
          "velocity": 0.25984251968503935,
          "duration": 0.5170458854166666
        },
        {
          "name": "F3",
          "midi": 53,
          "time": 6.5454599999999985,
          "velocity": 0.25984251968503935,
          "duration": 1.0625008854166662
        },
        {
          "name": "C4",
          "midi": 60,
          "time": 6.5454599999999985,
          "velocity": 0.25984251968503935,
          "duration": 0.5170458854166666
        },
        {
          "name": "F3",
          "midi": 53,
          "time": 7.090914999999998,
          "velocity": 0.25984251968503935,
          "duration": 1.0625008854166653
        },
        {
          "name": "C4",
          "midi": 60,
          "time": 7.090914999999998,
          "velocity": 0.25984251968503935,
          "duration": 0.5170458854166666
        },
        {
          "name": "F3",
          "midi": 53,
          "time": 7.636369999999998,
          "velocity": 0.25984251968503935,
          "duration": 1.0625008854166662
        },
        {
          "name": "C4",
          "midi": 60,
          "time": 7.636369999999998,
          "velocity": 0.25984251968503935,
          "duration": 0.5170458854166657
        },
        {
          "name": "F3",
          "midi": 53,
          "time": 8.181824999999996,
          "velocity": 0.25984251968503935,
          "duration": 1.062500885416668
        },
        {
          "name": "C4",
          "midi": 60,
          "time": 8.181824999999996,
          "velocity": 0.25984251968503935,
          "duration": 0.5170458854166675
        },
        {
          "name": "F3",
          "midi": 53,
          "time": 8.727279999999997,
          "velocity": 0.25984251968503935,
          "duration": 1.062500885416668
        },
        {
          "name": "C4",
          "midi": 60,
          "time": 8.727279999999997,
          "velocity": 0.25984251968503935,
          "duration": 0.5170458854166675
        },
        {
          "name": "F3",
          "midi": 53,
          "time": 9.272734999999997,
          "velocity": 0.25984251968503935,
          "duration": 0.5454550000000005
        },
        {
          "name": "C4",
          "midi": 60,
          "time": 9.272734999999997,
          "velocity": 0.25984251968503935,
          "duration": 0.5170458854166675
        },
        {
          "name": "F3",
          "midi": 53,
          "time": 9.818189999999998,
          "velocity": 0.25984251968503935,
          "duration": 1.090910000000001
        },
        {
          "name": "C4",
          "midi": 60,
          "time": 9.818189999999998,
          "velocity": 0.25984251968503935,
          "duration": 0.5170458854166675
        },
        {
          "name": "F3",
          "midi": 53,
          "time": 10.363644999999998,
          "velocity": 0.25984251968503935,
          "duration": 1.062500885416668
        },
        {
          "name": "C4",
          "midi": 60,
          "time": 10.363644999999998,
          "velocity": 0.25984251968503935,
          "duration": 0.5170458854166675
        },
        {
          "name": "F3",
          "midi": 53,
          "time": 10.909099999999999,
          "velocity": 0.25984251968503935,
          "duration": 1.062500885416668
        },
        {
          "name": "C4",
          "midi": 60,
          "time": 10.909099999999999,
          "velocity": 0.25984251968503935,
          "duration": 0.5170458854166675
        },
        {
          "name": "F3",
          "midi": 53,
          "time": 11.454555,
          "velocity": 0.25984251968503935,
          "duration": 1.062500885416668
        },
        {
          "name": "C4",
          "midi": 60,
          "time": 11.454555,
          "velocity": 0.25984251968503935,
          "duration": 0.5170458854166675
        },
        {
          "name": "F3",
          "midi": 53,
          "time": 12.00001,
          "velocity": 0.25984251968503935,
          "duration": 1.062500885416668
        },
        {
          "name": "C4",
          "midi": 60,
          "time": 12.00001,
          "velocity": 0.25984251968503935,
          "duration": 0.5170458854166675
        },
        {
          "name": "F3",
          "midi": 53,
          "time": 12.545465,
          "velocity": 0.25984251968503935,
          "duration": 1.062500885416668
        },
        {
          "name": "C4",
          "midi": 60,
          "time": 12.545465,
          "velocity": 0.25984251968503935,
          "duration": 0.5170458854166675
        },
        {
          "name": "F3",
          "midi": 53,
          "time": 13.09092,
          "velocity": 0.25984251968503935,
          "duration": 1.062500885416668
        },
        {
          "name": "C4",
          "midi": 60,
          "time": 13.09092,
          "velocity": 0.25984251968503935,
          "duration": 0.5170458854166675
        },
        {
          "name": "F3",
          "midi": 53,
          "time": 13.636375000000001,
          "velocity": 0.25984251968503935,
          "duration": 1.062500885416668
        },
        {
          "name": "C4",
          "midi": 60,
          "time": 13.636375000000001,
          "velocity": 0.25984251968503935,
          "duration": 0.5170458854166675
        },
        {
          "name": "F3",
          "midi": 53,
          "time": 14.181830000000001,
          "velocity": 0.25984251968503935,
          "duration": 1.062500885416668
        },
        {
          "name": "C4",
          "midi": 60,
          "time": 14.181830000000001,
          "velocity": 0.25984251968503935,
          "duration": 0.5170458854166675
        },
        {
          "name": "F3",
          "midi": 53,
          "time": 14.727285000000002,
          "velocity": 0.25984251968503935,
          "duration": 1.062500885416668
        },
        {
          "name": "C4",
          "midi": 60,
          "time": 14.727285000000002,
          "velocity": 0.25984251968503935,
          "duration": 0.5170458854166675
        },
        {
          "name": "F3",
          "midi": 53,
          "time": 15.272740000000002,
          "velocity": 0.25984251968503935,
          "duration": 1.062500885416668
        },
        {
          "name": "C4",
          "midi": 60,
          "time": 15.272740000000002,
          "velocity": 0.25984251968503935,
          "duration": 0.5170458854166675
        },
        {
          "name": "F3",
          "midi": 53,
          "time": 15.818195000000003,
          "velocity": 0.25984251968503935,
          "duration": 0.5454550000000005
        },
        {
          "name": "C4",
          "midi": 60,
          "time": 15.818195000000003,
          "velocity": 0.25984251968503935,
          "duration": 0.5170458854166675
        },
        {
          "name": "F3",
          "midi": 53,
          "time": 16.363650000000003,
          "velocity": 0.25984251968503935,
          "duration": 1.090910000000001
        },
        {
          "name": "C4",
          "midi": 60,
          "time": 16.363650000000003,
          "velocity": 0.25984251968503935,
          "duration": 0.5170458854166675
        },
        {
          "name": "F3",
          "midi": 53,
          "time": 16.909105000000004,
          "velocity": 0.25984251968503935,
          "duration": 1.062500885416668
        },
        {
          "name": "C4",
          "midi": 60,
          "time": 16.909105000000004,
          "velocity": 0.25984251968503935,
          "duration": 0.5170458854166675
        },
        {
          "name": "F3",
          "midi": 53,
          "time": 17.454560000000004,
          "velocity": 0.25984251968503935,
          "duration": 1.062500885416668
        },
        {
          "name": "C4",
          "midi": 60,
          "time": 17.454560000000004,
          "velocity": 0.25984251968503935,
          "duration": 0.5170458854166675
        },
        {
          "name": "F3",
          "midi": 53,
          "time": 18.000015000000005,
          "velocity": 0.25984251968503935,
          "duration": 1.062500885416668
        },
        {
          "name": "C4",
          "midi": 60,
          "time": 18.000015000000005,
          "velocity": 0.25984251968503935,
          "duration": 0.5170458854166675
        },
        {
          "name": "F3",
          "midi": 53,
          "time": 18.545470000000005,
          "velocity": 0.25984251968503935,
          "duration": 1.062500885416668
        },
        {
          "name": "C4",
          "midi": 60,
          "time": 18.545470000000005,
          "velocity": 0.25984251968503935,
          "duration": 0.5170458854166675
        },
        {
          "name": "F3",
          "midi": 53,
          "time": 19.090925000000006,
          "velocity": 0.25984251968503935,
          "duration": 1.062500885416668
        },
        {
          "name": "C4",
          "midi": 60,
          "time": 19.090925000000006,
          "velocity": 0.25984251968503935,
          "duration": 0.5170458854166675
        },
        {
          "name": "F3",
          "midi": 53,
          "time": 19.636380000000006,
          "velocity": 0.25984251968503935,
          "duration": 1.062500885416668
        },
        {
          "name": "C4",
          "midi": 60,
          "time": 19.636380000000006,
          "velocity": 0.25984251968503935,
          "duration": 0.5170458854166675
        },
        {
          "name": "F3",
          "midi": 53,
          "time": 20.181835000000007,
          "velocity": 0.25984251968503935,
          "duration": 1.062500885416668
        },
        {
          "name": "C4",
          "midi": 60,
          "time": 20.181835000000007,
          "velocity": 0.25984251968503935,
          "duration": 0.5170458854166675
        },
        {
          "name": "F3",
          "midi": 53,
          "time": 20.727290000000007,
          "velocity": 0.25984251968503935,
          "duration": 1.062500885416668
        },
        {
          "name": "C4",
          "midi": 60,
          "time": 20.727290000000007,
          "velocity": 0.25984251968503935,
          "duration": 0.5170458854166675
        },
        {
          "name": "F3",
          "midi": 53,
          "time": 21.272745000000008,
          "velocity": 0.25984251968503935,
          "duration": 1.062500885416668
        },
        {
          "name": "C4",
          "midi": 60,
          "time": 21.272745000000008,
          "velocity": 0.25984251968503935,
          "duration": 0.5170458854166675
        },
        {
          "name": "F3",
          "midi": 53,
          "time": 21.818200000000008,
          "velocity": 0.25984251968503935,
          "duration": 1.062500885416668
        },
        {
          "name": "C4",
          "midi": 60,
          "time": 21.818200000000008,
          "velocity": 0.25984251968503935,
          "duration": 0.5170458854166675
        },
        {
          "name": "F3",
          "midi": 53,
          "time": 22.36365500000001,
          "velocity": 0.25984251968503935,
          "duration": 0.5454550000000005
        },
        {
          "name": "C4",
          "midi": 60,
          "time": 22.36365500000001,
          "velocity": 0.25984251968503935,
          "duration": 0.5170458854166675
        },
        {
          "name": "F3",
          "midi": 53,
          "time": 22.90911000000001,
          "velocity": 0.25984251968503935,
          "duration": 1.090910000000001
        },
        {
          "name": "C4",
          "midi": 60,
          "time": 22.90911000000001,
          "velocity": 0.25984251968503935,
          "duration": 0.5170458854166675
        },
        {
          "name": "F3",
          "midi": 53,
          "time": 23.45456500000001,
          "velocity": 0.25984251968503935,
          "duration": 1.062500885416668
        },
        {
          "name": "C4",
          "midi": 60,
          "time": 23.45456500000001,
          "velocity": 0.25984251968503935,
          "duration": 0.5170458854166675
        },
        {
          "name": "F3",
          "midi": 53,
          "time": 24.00002000000001,
          "velocity": 0.25984251968503935,
          "duration": 1.062500885416668
        },
        {
          "name": "C4",
          "midi": 60,
          "time": 24.00002000000001,
          "velocity": 0.25984251968503935,
          "duration": 0.5170458854166675
        },
        {
          "name": "F3",
          "midi": 53,
          "time": 24.54547500000001,
          "velocity": 0.25984251968503935,
          "duration": 1.062500885416668
        },
        {
          "name": "C4",
          "midi": 60,
          "time": 24.54547500000001,
          "velocity": 0.25984251968503935,
          "duration": 0.5170458854166675
        },
        {
          "name": "F3",
          "midi": 53,
          "time": 25.09093000000001,
          "velocity": 0.25984251968503935,
          "duration": 1.062500885416668
        },
        {
          "name": "C4",
          "midi": 60,
          "time": 25.09093000000001,
          "velocity": 0.25984251968503935,
          "duration": 0.5170458854166675
        },
        {
          "name": "F3",
          "midi": 53,
          "time": 25.63638500000001,
          "velocity": 0.25984251968503935,
          "duration": 1.062500885416668
        },
        {
          "name": "C4",
          "midi": 60,
          "time": 25.63638500000001,
          "velocity": 0.25984251968503935,
          "duration": 0.5170458854166675
        },
        {
          "name": "F3",
          "midi": 53,
          "time": 26.18184000000001,
          "velocity": 0.25984251968503935,
          "duration": 1.062500885416668
        },
        {
          "name": "C4",
          "midi": 60,
          "time": 26.18184000000001,
          "velocity": 0.25984251968503935,
          "duration": 0.5170458854166675
        },
        {
          "name": "F3",
          "midi": 53,
          "time": 26.727295000000012,
          "velocity": 0.25984251968503935,
          "duration": 1.062500885416668
        },
        {
          "name": "C4",
          "midi": 60,
          "time": 26.727295000000012,
          "velocity": 0.25984251968503935,
          "duration": 0.5170458854166675
        },
        {
          "name": "F3",
          "midi": 53,
          "time": 27.272750000000013,
          "velocity": 0.25984251968503935,
          "duration": 1.062500885416668
        },
        {
          "name": "C4",
          "midi": 60,
          "time": 27.272750000000013,
          "velocity": 0.25984251968503935,
          "duration": 0.5170458854166675
        },
        {
          "name": "F3",
          "midi": 53,
          "time": 27.818205000000013,
          "velocity": 0.25984251968503935,
          "duration": 1.062500885416668
        },
        {
          "name": "C4",
          "midi": 60,
          "time": 27.818205000000013,
          "velocity": 0.25984251968503935,
          "duration": 0.5170458854166675
        },
        {
          "name": "F3",
          "midi": 53,
          "time": 28.363660000000014,
          "velocity": 0.25984251968503935,
          "duration": 1.062500885416668
        },
        {
          "name": "C4",
          "midi": 60,
          "time": 28.363660000000014,
          "velocity": 0.25984251968503935,
          "duration": 0.5170458854166675
        },
        {
          "name": "F3",
          "midi": 53,
          "time": 28.909115000000014,
          "velocity": 0.25984251968503935,
          "duration": 1.062500885416668
        },
        {
          "name": "C4",
          "midi": 60,
          "time": 28.909115000000014,
          "velocity": 0.25984251968503935,
          "duration": 0.5170458854166675
        },
        {
          "name": "F3",
          "midi": 53,
          "time": 29.454570000000015,
          "velocity": 0.25984251968503935,
          "duration": 1.062500885416668
        },
        {
          "name": "C4",
          "midi": 60,
          "time": 29.454570000000015,
          "velocity": 0.25984251968503935,
          "duration": 0.5170458854166675
        },
        {
          "name": "F3",
          "midi": 53,
          "time": 30.000025000000015,
          "velocity": 0.25984251968503935,
          "duration": 1.062500885416668
        },
        {
          "name": "C4",
          "midi": 60,
          "time": 30.000025000000015,
          "velocity": 0.25984251968503935,
          "duration": 0.5170458854166675
        },
        {
          "name": "F3",
          "midi": 53,
          "time": 30.545480000000016,
          "velocity": 0.25984251968503935,
          "duration": 1.062500885416668
        },
        {
          "name": "C4",
          "midi": 60,
          "time": 30.545480000000016,
          "velocity": 0.25984251968503935,
          "duration": 0.5170458854166675
        },
        {
          "name": "F3",
          "midi": 53,
          "time": 31.090935000000016,
          "velocity": 0.25984251968503935,
          "duration": 1.062500885416668
        },
        {
          "name": "C4",
          "midi": 60,
          "time": 31.090935000000016,
          "velocity": 0.25984251968503935,
          "duration": 0.5170458854166675
        },
        {
          "name": "F3",
          "midi": 53,
          "time": 31.636390000000016,
          "velocity": 0.25984251968503935,
          "duration": 1.0625008854166644
        },
        {
          "name": "C4",
          "midi": 60,
          "time": 31.636390000000016,
          "velocity": 0.25984251968503935,
          "duration": 0.5170458854166675
        },
        {
          "name": "F3",
          "midi": 53,
          "time": 32.18184500000002,
          "velocity": 0.25984251968503935,
          "duration": 1.0625008854166609
        },
        {
          "name": "C4",
          "midi": 60,
          "time": 32.18184500000002,
          "velocity": 0.25984251968503935,
          "duration": 0.517045885416664
        },
        {
          "name": "F3",
          "midi": 53,
          "time": 32.727300000000014,
          "velocity": 0.25984251968503935,
          "duration": 1.0625008854166609
        },
        {
          "name": "C4",
          "midi": 60,
          "time": 32.727300000000014,
          "velocity": 0.25984251968503935,
          "duration": 0.517045885416664
        },
        {
          "name": "F3",
          "midi": 53,
          "time": 33.27275500000001,
          "velocity": 0.25984251968503935,
          "duration": 1.0625008854166609
        },
        {
          "name": "C4",
          "midi": 60,
          "time": 33.27275500000001,
          "velocity": 0.25984251968503935,
          "duration": 0.517045885416664
        },
        {
          "name": "F3",
          "midi": 53,
          "time": 33.81821000000001,
          "velocity": 0.25984251968503935,
          "duration": 1.0625008854166609
        },
        {
          "name": "C4",
          "midi": 60,
          "time": 33.81821000000001,
          "velocity": 0.25984251968503935,
          "duration": 0.517045885416664
        },
        {
          "name": "F3",
          "midi": 53,
          "time": 34.363665000000005,
          "velocity": 0.25984251968503935,
          "duration": 1.0625008854166609
        },
        {
          "name": "C4",
          "midi": 60,
          "time": 34.363665000000005,
          "velocity": 0.25984251968503935,
          "duration": 0.517045885416664
        },
        {
          "name": "F3",
          "midi": 53,
          "time": 34.90912,
          "velocity": 0.25984251968503935,
          "duration": 1.0625008854166609
        },
        {
          "name": "C4",
          "midi": 60,
          "time": 34.90912,
          "velocity": 0.25984251968503935,
          "duration": 0.517045885416664
        },
        {
          "name": "F3",
          "midi": 53,
          "time": 35.454575,
          "velocity": 0.25984251968503935,
          "duration": 58.335275885416856
        },
        {
          "name": "C4",
          "midi": 60,
          "time": 35.454575,
          "velocity": 0.25984251968503935,
          "duration": 0.517045885416664
        },
        {
          "name": "F4",
          "midi": 65,
          "time": 36.000029999999995,
          "velocity": 0.25984251968503935,
          "duration": 0.517045885416664
        },
        {
          "name": "A#4",
          "midi": 70,
          "time": 36.000029999999995,
          "velocity": 0.25984251968503935,
          "duration": 0.517045885416664
        },
        {
          "name": "F4",
          "midi": 65,
          "time": 36.54548499999999,
          "velocity": 0.25984251968503935,
          "duration": 0.517045885416664
        },
        {
          "name": "A#4",
          "midi": 70,
          "time": 36.54548499999999,
          "velocity": 0.25984251968503935,
          "duration": 0.517045885416664
        },
        {
          "name": "F4",
          "midi": 65,
          "time": 37.09093999999999,
          "velocity": 0.25984251968503935,
          "duration": 0.517045885416664
        },
        {
          "name": "A#4",
          "midi": 70,
          "time": 37.09093999999999,
          "velocity": 0.25984251968503935,
          "duration": 0.517045885416664
        },
        {
          "name": "F4",
          "midi": 65,
          "time": 37.636394999999986,
          "velocity": 0.25984251968503935,
          "duration": 0.517045885416664
        },
        {
          "name": "A#4",
          "midi": 70,
          "time": 37.636394999999986,
          "velocity": 0.25984251968503935,
          "duration": 0.517045885416664
        },
        {
          "name": "F4",
          "midi": 65,
          "time": 38.18184999999998,
          "velocity": 0.25984251968503935,
          "duration": 0.517045885416664
        },
        {
          "name": "A#4",
          "midi": 70,
          "time": 38.18184999999998,
          "velocity": 0.25984251968503935,
          "duration": 0.517045885416664
        },
        {
          "name": "F4",
          "midi": 65,
          "time": 38.72730499999998,
          "velocity": 0.25984251968503935,
          "duration": 0.517045885416664
        },
        {
          "name": "A#4",
          "midi": 70,
          "time": 38.72730499999998,
          "velocity": 0.25984251968503935,
          "duration": 0.517045885416664
        },
        {
          "name": "G#4",
          "midi": 68,
          "time": 65.45459999999997,
          "velocity": 0.6299212598425197,
          "duration": 0.517045885416664
        },
        {
          "name": "G#5",
          "midi": 80,
          "time": 65.45459999999997,
          "velocity": 0.6299212598425197,
          "duration": 0.517045885416664
        },
        {
          "name": "F5",
          "midi": 77,
          "time": 65.45459999999997,
          "velocity": 0.6299212598425197,
          "duration": 0.517045885416664
        },
        {
          "name": "A#4",
          "midi": 70,
          "time": 66.00005499999997,
          "velocity": 0.6299212598425197,
          "duration": 1.0352281354166735
        },
        {
          "name": "A#5",
          "midi": 82,
          "time": 66.00005499999997,
          "velocity": 0.6299212598425197,
          "duration": 1.0352281354166735
        },
        {
          "name": "F5",
          "midi": 77,
          "time": 66.00005499999997,
          "velocity": 0.6299212598425197,
          "duration": 0.517045885416664
        },
        {
          "name": "F5",
          "midi": 77,
          "time": 66.54550999999998,
          "velocity": 0.6299212598425197,
          "duration": 0.517045885416664
        },
        {
          "name": "A#4",
          "midi": 70,
          "time": 67.09096499999998,
          "velocity": 0.6299212598425197,
          "duration": 0.517045885416664
        },
        {
          "name": "A#5",
          "midi": 82,
          "time": 67.09096499999998,
          "velocity": 0.6299212598425197,
          "duration": 0.517045885416664
        },
        {
          "name": "F5",
          "midi": 77,
          "time": 67.09096499999998,
          "velocity": 0.6299212598425197,
          "duration": 0.517045885416664
        },
        {
          "name": "C5",
          "midi": 72,
          "time": 67.63641999999999,
          "velocity": 0.6299212598425197,
          "duration": 1.0352281354166735
        },
        {
          "name": "C6",
          "midi": 84,
          "time": 67.63641999999999,
          "velocity": 0.6299212598425197,
          "duration": 1.0352281354166735
        },
        {
          "name": "F5",
          "midi": 77,
          "time": 67.63641999999999,
          "velocity": 0.6299212598425197,
          "duration": 0.517045885416664
        },
        {
          "name": "F5",
          "midi": 77,
          "time": 68.18187499999999,
          "velocity": 0.6299212598425197,
          "duration": 0.517045885416664
        },
        {
          "name": "A#4",
          "midi": 70,
          "time": 68.72733,
          "velocity": 0.6299212598425197,
          "duration": 1.0352281354166735
        },
        {
          "name": "A#5",
          "midi": 82,
          "time": 68.72733,
          "velocity": 0.6299212598425197,
          "duration": 1.0352281354166735
        },
        {
          "name": "F5",
          "midi": 77,
          "time": 68.72733,
          "velocity": 0.6299212598425197,
          "duration": 0.517045885416664
        },
        {
          "name": "F5",
          "midi": 77,
          "time": 69.272785,
          "velocity": 0.6299212598425197,
          "duration": 0.517045885416664
        },
        {
          "name": "A#4",
          "midi": 70,
          "time": 69.81824,
          "velocity": 0.6299212598425197,
          "duration": 0.517045885416664
        },
        {
          "name": "A#5",
          "midi": 82,
          "time": 69.81824,
          "velocity": 0.6299212598425197,
          "duration": 0.517045885416664
        },
        {
          "name": "F5",
          "midi": 77,
          "time": 69.81824,
          "velocity": 0.6299212598425197,
          "duration": 0.517045885416664
        },
        {
          "name": "C#5",
          "midi": 73,
          "time": 70.363695,
          "velocity": 0.6299212598425197,
          "duration": 1.0352281354166735
        },
        {
          "name": "C#6",
          "midi": 85,
          "time": 70.363695,
          "velocity": 0.6299212598425197,
          "duration": 1.0352281354166735
        },
        {
          "name": "F5",
          "midi": 77,
          "time": 70.363695,
          "velocity": 0.6299212598425197,
          "duration": 0.517045885416664
        },
        {
          "name": "F5",
          "midi": 77,
          "time": 70.90915000000001,
          "velocity": 0.6299212598425197,
          "duration": 0.517045885416664
        },
        {
          "name": "F4",
          "midi": 65,
          "time": 71.45460500000002,
          "velocity": 0.6299212598425197,
          "duration": 0.517045885416664
        },
        {
          "name": "F5",
          "midi": 77,
          "time": 71.45460500000002,
          "velocity": 0.6299212598425197,
          "duration": 0.517045885416664
        },
        {
          "name": "C5",
          "midi": 72,
          "time": 71.45460500000002,
          "velocity": 0.6299212598425197,
          "duration": 0.517045885416664
        },
        {
          "name": "G#4",
          "midi": 68,
          "time": 72.00006000000002,
          "velocity": 0.6299212598425197,
          "duration": 0.517045885416664
        },
        {
          "name": "G#5",
          "midi": 80,
          "time": 72.00006000000002,
          "velocity": 0.6299212598425197,
          "duration": 0.517045885416664
        },
        {
          "name": "F5",
          "midi": 77,
          "time": 72.00006000000002,
          "velocity": 0.6299212598425197,
          "duration": 0.517045885416664
        },
        {
          "name": "A#4",
          "midi": 70,
          "time": 72.54551500000002,
          "velocity": 0.6299212598425197,
          "duration": 1.0352281354166735
        },
        {
          "name": "A#5",
          "midi": 82,
          "time": 72.54551500000002,
          "velocity": 0.6299212598425197,
          "duration": 1.0352281354166735
        },
        {
          "name": "F5",
          "midi": 77,
          "time": 72.54551500000002,
          "velocity": 0.6299212598425197,
          "duration": 0.517045885416664
        },
        {
          "name": "F5",
          "midi": 77,
          "time": 73.09097000000003,
          "velocity": 0.6299212598425197,
          "duration": 0.517045885416664
        },
        {
          "name": "A#4",
          "midi": 70,
          "time": 73.63642500000003,
          "velocity": 0.6299212598425197,
          "duration": 0.517045885416664
        },
        {
          "name": "A#5",
          "midi": 82,
          "time": 73.63642500000003,
          "velocity": 0.6299212598425197,
          "duration": 0.517045885416664
        },
        {
          "name": "F5",
          "midi": 77,
          "time": 73.63642500000003,
          "velocity": 0.6299212598425197,
          "duration": 0.517045885416664
        },
        {
          "name": "C5",
          "midi": 72,
          "time": 74.18188000000004,
          "velocity": 0.6299212598425197,
          "duration": 1.0352281354166735
        },
        {
          "name": "C6",
          "midi": 84,
          "time": 74.18188000000004,
          "velocity": 0.6299212598425197,
          "duration": 1.0352281354166735
        },
        {
          "name": "F5",
          "midi": 77,
          "time": 74.18188000000004,
          "velocity": 0.6299212598425197,
          "duration": 0.517045885416664
        },
        {
          "name": "F5",
          "midi": 77,
          "time": 74.72733500000004,
          "velocity": 0.6299212598425197,
          "duration": 0.517045885416664
        },
        {
          "name": "A#4",
          "midi": 70,
          "time": 75.27279000000004,
          "velocity": 0.6299212598425197,
          "duration": 1.0352281354166735
        },
        {
          "name": "A#5",
          "midi": 82,
          "time": 75.27279000000004,
          "velocity": 0.6299212598425197,
          "duration": 1.0352281354166735
        },
        {
          "name": "F5",
          "midi": 77,
          "time": 75.27279000000004,
          "velocity": 0.6299212598425197,
          "duration": 0.517045885416664
        },
        {
          "name": "F5",
          "midi": 77,
          "time": 75.81824500000005,
          "velocity": 0.6299212598425197,
          "duration": 0.517045885416664
        },
        {
          "name": "A#4",
          "midi": 70,
          "time": 76.36370000000005,
          "velocity": 0.6299212598425197,
          "duration": 0.517045885416664
        },
        {
          "name": "A#5",
          "midi": 82,
          "time": 76.36370000000005,
          "velocity": 0.6299212598425197,
          "duration": 0.517045885416664
        },
        {
          "name": "F5",
          "midi": 77,
          "time": 76.36370000000005,
          "velocity": 0.6299212598425197,
          "duration": 0.517045885416664
        },
        {
          "name": "C#5",
          "midi": 73,
          "time": 76.90915500000006,
          "velocity": 0.6299212598425197,
          "duration": 1.0352281354166735
        },
        {
          "name": "C#6",
          "midi": 85,
          "time": 76.90915500000006,
          "velocity": 0.6299212598425197,
          "duration": 1.0352281354166735
        },
        {
          "name": "F5",
          "midi": 77,
          "time": 76.90915500000006,
          "velocity": 0.6299212598425197,
          "duration": 0.517045885416664
        },
        {
          "name": "F5",
          "midi": 77,
          "time": 77.45461000000006,
          "velocity": 0.6299212598425197,
          "duration": 0.517045885416664
        },
        {
          "name": "F4",
          "midi": 65,
          "time": 78.00006500000006,
          "velocity": 0.6299212598425197,
          "duration": 0.517045885416664
        },
        {
          "name": "F5",
          "midi": 77,
          "time": 78.00006500000006,
          "velocity": 0.6299212598425197,
          "duration": 0.517045885416664
        },
        {
          "name": "G#4",
          "midi": 68,
          "time": 78.00006500000006,
          "velocity": 0.6299212598425197,
          "duration": 0.517045885416664
        },
        {
          "name": "G#4",
          "midi": 68,
          "time": 78.54552000000007,
          "velocity": 0.6299212598425197,
          "duration": 0.517045885416664
        },
        {
          "name": "G#5",
          "midi": 80,
          "time": 78.54552000000007,
          "velocity": 0.6299212598425197,
          "duration": 0.517045885416664
        },
        {
          "name": "F5",
          "midi": 77,
          "time": 78.54552000000007,
          "velocity": 0.6299212598425197,
          "duration": 0.517045885416664
        },
        {
          "name": "A#4",
          "midi": 70,
          "time": 79.09097500000007,
          "velocity": 0.6299212598425197,
          "duration": 1.0352281354166735
        },
        {
          "name": "A#5",
          "midi": 82,
          "time": 79.09097500000007,
          "velocity": 0.6299212598425197,
          "duration": 1.0352281354166735
        },
        {
          "name": "F5",
          "midi": 77,
          "time": 79.09097500000007,
          "velocity": 0.6299212598425197,
          "duration": 0.517045885416664
        },
        {
          "name": "F5",
          "midi": 77,
          "time": 79.63643000000008,
          "velocity": 0.6299212598425197,
          "duration": 0.517045885416664
        },
        {
          "name": "A#4",
          "midi": 70,
          "time": 80.18188500000008,
          "velocity": 0.6299212598425197,
          "duration": 0.517045885416664
        },
        {
          "name": "A#5",
          "midi": 82,
          "time": 80.18188500000008,
          "velocity": 0.6299212598425197,
          "duration": 0.517045885416664
        },
        {
          "name": "F5",
          "midi": 77,
          "time": 80.18188500000008,
          "velocity": 0.6299212598425197,
          "duration": 0.517045885416664
        },
        {
          "name": "C5",
          "midi": 72,
          "time": 80.72734000000008,
          "velocity": 0.6299212598425197,
          "duration": 1.0352281354166735
        },
        {
          "name": "C6",
          "midi": 84,
          "time": 80.72734000000008,
          "velocity": 0.6299212598425197,
          "duration": 1.0352281354166735
        },
        {
          "name": "F5",
          "midi": 77,
          "time": 80.72734000000008,
          "velocity": 0.6299212598425197,
          "duration": 0.517045885416664
        },
        {
          "name": "F5",
          "midi": 77,
          "time": 81.27279500000009,
          "velocity": 0.6299212598425197,
          "duration": 0.517045885416664
        },
        {
          "name": "C5",
          "midi": 72,
          "time": 81.81825000000009,
          "velocity": 0.6299212598425197,
          "duration": 0.517045885416664
        },
        {
          "name": "C6",
          "midi": 84,
          "time": 81.81825000000009,
          "velocity": 0.6299212598425197,
          "duration": 0.517045885416664
        },
        {
          "name": "F5",
          "midi": 77,
          "time": 81.81825000000009,
          "velocity": 0.6299212598425197,
          "duration": 0.517045885416664
        },
        {
          "name": "C#5",
          "midi": 73,
          "time": 82.3637050000001,
          "velocity": 0.6299212598425197,
          "duration": 1.0352281354166735
        },
        {
          "name": "C#6",
          "midi": 85,
          "time": 82.3637050000001,
          "velocity": 0.6299212598425197,
          "duration": 1.0352281354166735
        },
        {
          "name": "F5",
          "midi": 77,
          "time": 82.3637050000001,
          "velocity": 0.6299212598425197,
          "duration": 0.517045885416664
        },
        {
          "name": "F5",
          "midi": 77,
          "time": 82.9091600000001,
          "velocity": 0.6299212598425197,
          "duration": 0.517045885416664
        },
        {
          "name": "C#5",
          "midi": 73,
          "time": 83.4546150000001,
          "velocity": 0.6299212598425197,
          "duration": 0.7761370104166758
        },
        {
          "name": "C#6",
          "midi": 85,
          "time": 83.4546150000001,
          "velocity": 0.6299212598425197,
          "duration": 0.7761370104166758
        },
        {
          "name": "F5",
          "midi": 77,
          "time": 83.4546150000001,
          "velocity": 0.6299212598425197,
          "duration": 0.517045885416664
        },
        {
          "name": "F5",
          "midi": 77,
          "time": 84.00007000000011,
          "velocity": 0.6299212598425197,
          "duration": 0.517045885416664
        },
        {
          "name": "A#4",
          "midi": 70,
          "time": 84.27279750000011,
          "velocity": 0.6299212598425197,
          "duration": 0.7761370104166758
        },
        {
          "name": "A#5",
          "midi": 82,
          "time": 84.27279750000011,
          "velocity": 0.6299212598425197,
          "duration": 0.7761370104166758
        },
        {
          "name": "F5",
          "midi": 77,
          "time": 84.54552500000011,
          "velocity": 0.6299212598425197,
          "duration": 0.5170458854166782
        },
        {
          "name": "G#4",
          "midi": 68,
          "time": 85.09098000000013,
          "velocity": 0.6299212598425197,
          "duration": 0.517045885416664
        },
        {
          "name": "G#5",
          "midi": 80,
          "time": 85.09098000000013,
          "velocity": 0.6299212598425197,
          "duration": 0.517045885416664
        },
        {
          "name": "F5",
          "midi": 77,
          "time": 85.09098000000013,
          "velocity": 0.6299212598425197,
          "duration": 0.517045885416664
        },
        {
          "name": "A#4",
          "midi": 70,
          "time": 85.63643500000013,
          "velocity": 0.6299212598425197,
          "duration": 1.0352281354166735
        },
        {
          "name": "A#5",
          "midi": 82,
          "time": 85.63643500000013,
          "velocity": 0.6299212598425197,
          "duration": 1.0352281354166735
        },
        {
          "name": "F5",
          "midi": 77,
          "time": 85.63643500000013,
          "velocity": 0.6299212598425197,
          "duration": 0.517045885416664
        },
        {
          "name": "F5",
          "midi": 77,
          "time": 86.18189000000014,
          "velocity": 0.6299212598425197,
          "duration": 0.517045885416664
        },
        {
          "name": "A#4",
          "midi": 70,
          "time": 86.72734500000014,
          "velocity": 0.6299212598425197,
          "duration": 0.517045885416664
        },
        {
          "name": "A#5",
          "midi": 82,
          "time": 86.72734500000014,
          "velocity": 0.6299212598425197,
          "duration": 0.517045885416664
        },
        {
          "name": "F5",
          "midi": 77,
          "time": 86.72734500000014,
          "velocity": 0.6299212598425197,
          "duration": 0.517045885416664
        },
        {
          "name": "C5",
          "midi": 72,
          "time": 87.27280000000015,
          "velocity": 0.6299212598425197,
          "duration": 1.0352281354166735
        },
        {
          "name": "C6",
          "midi": 84,
          "time": 87.27280000000015,
          "velocity": 0.6299212598425197,
          "duration": 1.0352281354166735
        },
        {
          "name": "F5",
          "midi": 77,
          "time": 87.27280000000015,
          "velocity": 0.6299212598425197,
          "duration": 0.517045885416664
        },
        {
          "name": "F5",
          "midi": 77,
          "time": 87.81825500000015,
          "velocity": 0.6299212598425197,
          "duration": 0.517045885416664
        },
        {
          "name": "G#4",
          "midi": 68,
          "time": 88.36371000000015,
          "velocity": 0.6299212598425197,
          "duration": 0.517045885416664
        },
        {
          "name": "G#5",
          "midi": 80,
          "time": 88.36371000000015,
          "velocity": 0.6299212598425197,
          "duration": 0.517045885416664
        },
        {
          "name": "F5",
          "midi": 77,
          "time": 88.36371000000015,
          "velocity": 0.6299212598425197,
          "duration": 0.517045885416664
        },
        {
          "name": "C5",
          "midi": 72,
          "time": 88.90916500000016,
          "velocity": 0.6299212598425197,
          "duration": 1.0352281354166735
        },
        {
          "name": "C6",
          "midi": 84,
          "time": 88.90916500000016,
          "velocity": 0.6299212598425197,
          "duration": 1.0352281354166735
        },
        {
          "name": "F5",
          "midi": 77,
          "time": 88.90916500000016,
          "velocity": 0.6299212598425197,
          "duration": 0.517045885416664
        },
        {
          "name": "F5",
          "midi": 77,
          "time": 89.45462000000016,
          "velocity": 0.6299212598425197,
          "duration": 0.517045885416664
        },
        {
          "name": "D#4",
          "midi": 63,
          "time": 90.00007500000017,
          "velocity": 0.6299212598425197,
          "duration": 0.517045885416664
        },
        {
          "name": "D#5",
          "midi": 75,
          "time": 90.00007500000017,
          "velocity": 0.6299212598425197,
          "duration": 0.517045885416664
        },
        {
          "name": "G#4",
          "midi": 68,
          "time": 90.00007500000017,
          "velocity": 0.6299212598425197,
          "duration": 0.517045885416664
        },
        {
          "name": "G#4",
          "midi": 68,
          "time": 90.54553000000017,
          "velocity": 0.6299212598425197,
          "duration": 0.545455000000004
        },
        {
          "name": "G#5",
          "midi": 80,
          "time": 90.54553000000017,
          "velocity": 0.6299212598425197,
          "duration": 1.0352281354166735
        },
        {
          "name": "G#4",
          "midi": 68,
          "time": 91.09098500000017,
          "velocity": 0.6299212598425197,
          "duration": 0.517045885416664
        },
        {
          "name": "C#2",
          "midi": 37,
          "time": 91.63644000000018,
          "velocity": 0.6299212598425197,
          "duration": 0.517045885416664
        },
        {
          "name": "C#3",
          "midi": 49,
          "time": 91.63644000000018,
          "velocity": 0.6299212598425197,
          "duration": 0.517045885416664
        },
        {
          "name": "F#2",
          "midi": 42,
          "time": 92.18189500000018,
          "velocity": 0.6299212598425197,
          "duration": 0.517045885416664
        },
        {
          "name": "F#3",
          "midi": 54,
          "time": 92.18189500000018,
          "velocity": 0.6299212598425197,
          "duration": 0.517045885416664
        },
        {
          "name": "F#2",
          "midi": 42,
          "time": 92.72735000000019,
          "velocity": 0.6299212598425197,
          "duration": 0.517045885416664
        },
        {
          "name": "F#3",
          "midi": 54,
          "time": 92.72735000000019,
          "velocity": 0.6299212598425197,
          "duration": 0.517045885416664
        },
        {
          "name": "F2",
          "midi": 41,
          "time": 93.27280500000019,
          "velocity": 0.6299212598425197,
          "duration": 0.517045885416664
        },
        {
          "name": "F3",
          "midi": 53,
          "time": 93.27280500000019,
          "velocity": 0.6299212598425197,
          "duration": 7.062505885416712
        },
        {
          "name": "A#2",
          "midi": 46,
          "time": 93.8182600000002,
          "velocity": 0.6299212598425197,
          "duration": 0.517045885416664
        },
        {
          "name": "A#3",
          "midi": 58,
          "time": 93.8182600000002,
          "velocity": 0.6299212598425197,
          "duration": 0.517045885416664
        },
        {
          "name": "A#2",
          "midi": 46,
          "time": 94.3637150000002,
          "velocity": 0.6299212598425197,
          "duration": 0.517045885416664
        },
        {
          "name": "A#3",
          "midi": 58,
          "time": 94.3637150000002,
          "velocity": 0.6299212598425197,
          "duration": 0.517045885416664
        },
        {
          "name": "D#2",
          "midi": 39,
          "time": 94.9091700000002,
          "velocity": 0.6299212598425197,
          "duration": 0.517045885416664
        },
        {
          "name": "D#3",
          "midi": 51,
          "time": 94.9091700000002,
          "velocity": 0.6299212598425197,
          "duration": 0.517045885416664
        },
        {
          "name": "G#2",
          "midi": 44,
          "time": 95.4546250000002,
          "velocity": 0.6299212598425197,
          "duration": 0.517045885416664
        },
        {
          "name": "G#3",
          "midi": 56,
          "time": 95.4546250000002,
          "velocity": 0.6299212598425197,
          "duration": 0.517045885416664
        },
        {
          "name": "G#2",
          "midi": 44,
          "time": 96.00008000000021,
          "velocity": 0.6299212598425197,
          "duration": 0.517045885416664
        },
        {
          "name": "G#3",
          "midi": 56,
          "time": 96.00008000000021,
          "velocity": 0.6299212598425197,
          "duration": 0.517045885416664
        },
        {
          "name": "C2",
          "midi": 36,
          "time": 96.54553500000021,
          "velocity": 0.6299212598425197,
          "duration": 0.517045885416664
        },
        {
          "name": "C3",
          "midi": 48,
          "time": 96.54553500000021,
          "velocity": 0.6299212598425197,
          "duration": 0.517045885416664
        },
        {
          "name": "G#2",
          "midi": 44,
          "time": 97.09099000000022,
          "velocity": 0.6299212598425197,
          "duration": 0.517045885416664
        },
        {
          "name": "G#3",
          "midi": 56,
          "time": 97.09099000000022,
          "velocity": 0.6299212598425197,
          "duration": 0.517045885416664
        },
        {
          "name": "G#2",
          "midi": 44,
          "time": 97.63644500000022,
          "velocity": 0.6299212598425197,
          "duration": 0.517045885416664
        },
        {
          "name": "G#3",
          "midi": 56,
          "time": 97.63644500000022,
          "velocity": 0.6299212598425197,
          "duration": 0.517045885416664
        },
        {
          "name": "C#2",
          "midi": 37,
          "time": 98.18190000000023,
          "velocity": 0.6299212598425197,
          "duration": 0.517045885416664
        },
        {
          "name": "C#3",
          "midi": 49,
          "time": 98.18190000000023,
          "velocity": 0.6299212598425197,
          "duration": 0.517045885416664
        },
        {
          "name": "F#2",
          "midi": 42,
          "time": 98.72735500000023,
          "velocity": 0.6299212598425197,
          "duration": 0.517045885416664
        },
        {
          "name": "F#3",
          "midi": 54,
          "time": 98.72735500000023,
          "velocity": 0.6299212598425197,
          "duration": 0.517045885416664
        },
        {
          "name": "F#2",
          "midi": 42,
          "time": 99.27281000000023,
          "velocity": 0.6299212598425197,
          "duration": 0.517045885416664
        },
        {
          "name": "F#3",
          "midi": 54,
          "time": 99.27281000000023,
          "velocity": 0.6299212598425197,
          "duration": 0.517045885416664
        },
        {
          "name": "F2",
          "midi": 41,
          "time": 99.81826500000024,
          "velocity": 0.6299212598425197,
          "duration": 0.517045885416664
        },
        {
          "name": "F3",
          "midi": 53,
          "time": 99.81826500000024,
          "velocity": 0.6299212598425197,
          "duration": 0
        },
        {
          "name": "A#2",
          "midi": 46,
          "time": 100.36372000000024,
          "velocity": 0.6299212598425197,
          "duration": 0.517045885416664
        },
        {
          "name": "A#3",
          "midi": 58,
          "time": 100.36372000000024,
          "velocity": 0.6299212598425197,
          "duration": 0.517045885416664
        },
        {
          "name": "A#2",
          "midi": 46,
          "time": 100.90917500000025,
          "velocity": 0.6299212598425197,
          "duration": 0.517045885416664
        },
        {
          "name": "A#3",
          "midi": 58,
          "time": 100.90917500000025,
          "velocity": 0.6299212598425197,
          "duration": 0.517045885416664
        },
        {
          "name": "G#1",
          "midi": 32,
          "time": 101.45463000000025,
          "velocity": 0.6299212598425197,
          "duration": 0.517045885416664
        },
        {
          "name": "G#2",
          "midi": 44,
          "time": 101.45463000000025,
          "velocity": 0.6299212598425197,
          "duration": 0.517045885416664
        },
        {
          "name": "D#2",
          "midi": 39,
          "time": 102.00008500000025,
          "velocity": 0.6299212598425197,
          "duration": 0.517045885416664
        },
        {
          "name": "D#3",
          "midi": 51,
          "time": 102.00008500000025,
          "velocity": 0.6299212598425197,
          "duration": 0.517045885416664
        },
        {
          "name": "D#2",
          "midi": 39,
          "time": 102.54554000000026,
          "velocity": 0.6299212598425197,
          "duration": 0.517045885416664
        },
        {
          "name": "D#3",
          "midi": 51,
          "time": 102.54554000000026,
          "velocity": 0.6299212598425197,
          "duration": 0.517045885416664
        },
        {
          "name": "A#4",
          "midi": 70,
          "time": 104.72736000000026,
          "velocity": 0.6299212598425197,
          "duration": 0.517045885416664
        },
        {
          "name": "A#5",
          "midi": 82,
          "time": 104.72736000000026,
          "velocity": 0.6299212598425197,
          "duration": 0.517045885416664
        },
        {
          "name": "F5",
          "midi": 77,
          "time": 104.72736000000026,
          "velocity": 0.6299212598425197,
          "duration": 0.517045885416664
        },
        {
          "name": "A#4",
          "midi": 70,
          "time": 105.27281500000026,
          "velocity": 0.6299212598425197,
          "duration": 1.0352281354166735
        },
        {
          "name": "A#5",
          "midi": 82,
          "time": 105.27281500000026,
          "velocity": 0.6299212598425197,
          "duration": 1.0352281354166735
        },
        {
          "name": "F5",
          "midi": 77,
          "time": 105.27281500000026,
          "velocity": 0.6299212598425197,
          "duration": 0.517045885416664
        },
        {
          "name": "F5",
          "midi": 77,
          "time": 105.81827000000027,
          "velocity": 0.6299212598425197,
          "duration": 0.517045885416664
        },
        {
          "name": "A#4",
          "midi": 70,
          "time": 106.36372500000027,
          "velocity": 0.6299212598425197,
          "duration": 0.517045885416664
        },
        {
          "name": "A#5",
          "midi": 82,
          "time": 106.36372500000027,
          "velocity": 0.6299212598425197,
          "duration": 0.517045885416664
        },
        {
          "name": "F5",
          "midi": 77,
          "time": 106.36372500000027,
          "velocity": 0.6299212598425197,
          "duration": 0.517045885416664
        },
        {
          "name": "C5",
          "midi": 72,
          "time": 106.90918000000028,
          "velocity": 0.6299212598425197,
          "duration": 1.0352281354166735
        },
        {
          "name": "C6",
          "midi": 84,
          "time": 106.90918000000028,
          "velocity": 0.6299212598425197,
          "duration": 1.0352281354166735
        },
        {
          "name": "F5",
          "midi": 77,
          "time": 106.90918000000028,
          "velocity": 0.6299212598425197,
          "duration": 0.517045885416664
        },
        {
          "name": "F5",
          "midi": 77,
          "time": 107.45463500000028,
          "velocity": 0.6299212598425197,
          "duration": 0.517045885416664
        },
        {
          "name": "C5",
          "midi": 72,
          "time": 108.00009000000028,
          "velocity": 0.6299212598425197,
          "duration": 0.517045885416664
        },
        {
          "name": "C6",
          "midi": 84,
          "time": 108.00009000000028,
          "velocity": 0.6299212598425197,
          "duration": 0.517045885416664
        },
        {
          "name": "F5",
          "midi": 77,
          "time": 108.00009000000028,
          "velocity": 0.6299212598425197,
          "duration": 0.517045885416664
        },
        {
          "name": "C#5",
          "midi": 73,
          "time": 108.54554500000029,
          "velocity": 0.6299212598425197,
          "duration": 1.0352281354166735
        },
        {
          "name": "C#6",
          "midi": 85,
          "time": 108.54554500000029,
          "velocity": 0.6299212598425197,
          "duration": 1.0352281354166735
        },
        {
          "name": "F5",
          "midi": 77,
          "time": 108.54554500000029,
          "velocity": 0.6299212598425197,
          "duration": 0.517045885416664
        },
        {
          "name": "F5",
          "midi": 77,
          "time": 109.09100000000029,
          "velocity": 0.6299212598425197,
          "duration": 0.517045885416664
        },
        {
          "name": "C#5",
          "midi": 73,
          "time": 109.6364550000003,
          "velocity": 0.6299212598425197,
          "duration": 0.7761370104166758
        },
        {
          "name": "C#6",
          "midi": 85,
          "time": 109.6364550000003,
          "velocity": 0.6299212598425197,
          "duration": 0.7761370104166758
        },
        {
          "name": "F5",
          "midi": 77,
          "time": 109.6364550000003,
          "velocity": 0.6299212598425197,
          "duration": 0.517045885416664
        },
        {
          "name": "F5",
          "midi": 77,
          "time": 110.1819100000003,
          "velocity": 0.6299212598425197,
          "duration": 0.517045885416664
        },
        {
          "name": "A#4",
          "midi": 70,
          "time": 110.4546375000003,
          "velocity": 0.6299212598425197,
          "duration": 0.7761370104166758
        },
        {
          "name": "A#5",
          "midi": 82,
          "time": 110.4546375000003,
          "velocity": 0.6299212598425197,
          "duration": 0.7761370104166758
        },
        {
          "name": "F5",
          "midi": 77,
          "time": 110.7273650000003,
          "velocity": 0.6299212598425197,
          "duration": 0.5170458854166782
        },
        {
          "name": "G#4",
          "midi": 68,
          "time": 111.27282000000032,
          "velocity": 0.6299212598425197,
          "duration": 0.517045885416664
        },
        {
          "name": "G#5",
          "midi": 80,
          "time": 111.27282000000032,
          "velocity": 0.6299212598425197,
          "duration": 0.517045885416664
        },
        {
          "name": "F5",
          "midi": 77,
          "time": 111.27282000000032,
          "velocity": 0.6299212598425197,
          "duration": 0.517045885416664
        },
        {
          "name": "A#4",
          "midi": 70,
          "time": 111.81827500000033,
          "velocity": 0.6299212598425197,
          "duration": 1.0352281354166735
        },
        {
          "name": "A#5",
          "midi": 82,
          "time": 111.81827500000033,
          "velocity": 0.6299212598425197,
          "duration": 1.0352281354166735
        },
        {
          "name": "F5",
          "midi": 77,
          "time": 111.81827500000033,
          "velocity": 0.6299212598425197,
          "duration": 0.517045885416664
        },
        {
          "name": "F5",
          "midi": 77,
          "time": 112.36373000000033,
          "velocity": 0.6299212598425197,
          "duration": 0.517045885416664
        },
        {
          "name": "A#4",
          "midi": 70,
          "time": 112.90918500000033,
          "velocity": 0.6299212598425197,
          "duration": 0.517045885416664
        },
        {
          "name": "A#5",
          "midi": 82,
          "time": 112.90918500000033,
          "velocity": 0.6299212598425197,
          "duration": 0.517045885416664
        },
        {
          "name": "F5",
          "midi": 77,
          "time": 112.90918500000033,
          "velocity": 0.6299212598425197,
          "duration": 0.517045885416664
        },
        {
          "name": "C5",
          "midi": 72,
          "time": 113.45464000000034,
          "velocity": 0.6299212598425197,
          "duration": 1.0352281354166735
        },
        {
          "name": "C6",
          "midi": 84,
          "time": 113.45464000000034,
          "velocity": 0.6299212598425197,
          "duration": 1.0352281354166735
        },
        {
          "name": "F5",
          "midi": 77,
          "time": 113.45464000000034,
          "velocity": 0.6299212598425197,
          "duration": 0.517045885416664
        },
        {
          "name": "F5",
          "midi": 77,
          "time": 114.00009500000034,
          "velocity": 0.6299212598425197,
          "duration": 0.517045885416664
        },
        {
          "name": "C5",
          "midi": 72,
          "time": 114.54555000000035,
          "velocity": 0.6299212598425197,
          "duration": 0.517045885416664
        },
        {
          "name": "C6",
          "midi": 84,
          "time": 114.54555000000035,
          "velocity": 0.6299212598425197,
          "duration": 0.517045885416664
        },
        {
          "name": "F5",
          "midi": 77,
          "time": 114.54555000000035,
          "velocity": 0.6299212598425197,
          "duration": 0.517045885416664
        },
        {
          "name": "F6",
          "midi": 89,
          "time": 115.09100500000035,
          "velocity": 0.6299212598425197,
          "duration": 1.0352281354166735
        },
        {
          "name": "F5",
          "midi": 77,
          "time": 115.09100500000035,
          "velocity": 0.6299212598425197,
          "duration": 0.517045885416664
        },
        {
          "name": "F5",
          "midi": 77,
          "time": 115.63646000000035,
          "velocity": 0.6299212598425197,
          "duration": 0.517045885416664
        },
        {
          "name": "C5",
          "midi": 72,
          "time": 116.18191500000036,
          "velocity": 0.6299212598425197,
          "duration": 1.5534103854166688
        },
        {
          "name": "G#5",
          "midi": 80,
          "time": 116.18191500000036,
          "velocity": 0.6299212598425197,
          "duration": 1.5534103854166688
        }
      ],
      "controlChanges": {
        "7": [
          {
            "number": 7,
            "time": 0,
            "value": 0.7874015748031497
          }
        ],
        "10": [
          {
            "number": 10,
            "time": 0,
            "value": 0.5039370078740157
          }
        ],
        "91": [
          {
            "number": 91,
            "time": 0,
            "value": 0
          }
        ],
        "93": [
          {
            "number": 93,
            "time": 0,
            "value": 0
          }
        ],
        "121": [
          {
            "number": 121,
            "time": 0,
            "value": 0
          }
        ]
      },
      "id": 2,
      "name": "Piano",
      "instrumentNumber": 0,
      "instrument": "acoustic grand piano",
      "instrumentFamily": "piano",
      "channelNumber": 6,
      "isPercussion": false
    },
    {
      "startTime": 3.27273,
      "duration": 117.73532538541677,
      "length": 314,
      "notes": [
        {
          "name": "F2",
          "midi": 41,
          "time": 3.27273,
          "velocity": 0.25984251968503935,
          "duration": 1.553410385416667
        },
        {
          "name": "F3",
          "midi": 53,
          "time": 3.27273,
          "velocity": 0.25984251968503935,
          "duration": 0.545455
        },
        {
          "name": "D#2",
          "midi": 39,
          "time": 4.909095000000001,
          "velocity": 0.25984251968503935,
          "duration": 1.553410385416667
        },
        {
          "name": "D#3",
          "midi": 51,
          "time": 4.909095000000001,
          "velocity": 0.25984251968503935,
          "duration": 1.553410385416667
        },
        {
          "name": "D2",
          "midi": 38,
          "time": 6.545460000000001,
          "velocity": 0.25984251968503935,
          "duration": 3.107957135416666
        },
        {
          "name": "D3",
          "midi": 50,
          "time": 6.545460000000001,
          "velocity": 0.25984251968503935,
          "duration": 3.107957135416666
        },
        {
          "name": "F2",
          "midi": 41,
          "time": 9.818190000000001,
          "velocity": 0.25984251968503935,
          "duration": 1.553410385416667
        },
        {
          "name": "F3",
          "midi": 53,
          "time": 9.818190000000001,
          "velocity": 0.25984251968503935,
          "duration": 0.5454550000000005
        },
        {
          "name": "D#2",
          "midi": 39,
          "time": 11.454555000000001,
          "velocity": 0.25984251968503935,
          "duration": 1.553410385416667
        },
        {
          "name": "D#3",
          "midi": 51,
          "time": 11.454555000000001,
          "velocity": 0.25984251968503935,
          "duration": 1.553410385416667
        },
        {
          "name": "D2",
          "midi": 38,
          "time": 13.09092,
          "velocity": 0.25984251968503935,
          "duration": 3.1079571354166653
        },
        {
          "name": "D3",
          "midi": 50,
          "time": 13.09092,
          "velocity": 0.25984251968503935,
          "duration": 3.1079571354166653
        },
        {
          "name": "F2",
          "midi": 41,
          "time": 16.36365,
          "velocity": 0.25984251968503935,
          "duration": 1.5534103854166688
        },
        {
          "name": "F3",
          "midi": 53,
          "time": 16.36365,
          "velocity": 0.25984251968503935,
          "duration": 0.5454550000000005
        },
        {
          "name": "D#2",
          "midi": 39,
          "time": 18.000015,
          "velocity": 0.25984251968503935,
          "duration": 1.5534103854166652
        },
        {
          "name": "D#3",
          "midi": 51,
          "time": 18.000015,
          "velocity": 0.25984251968503935,
          "duration": 1.5534103854166652
        },
        {
          "name": "D2",
          "midi": 38,
          "time": 19.63638,
          "velocity": 0.25984251968503935,
          "duration": 3.1079571354166653
        },
        {
          "name": "D3",
          "midi": 50,
          "time": 19.63638,
          "velocity": 0.25984251968503935,
          "duration": 3.1079571354166653
        },
        {
          "name": "F2",
          "midi": 41,
          "time": 22.90911,
          "velocity": 0.25984251968503935,
          "duration": 1.5534103854166688
        },
        {
          "name": "F3",
          "midi": 53,
          "time": 22.90911,
          "velocity": 0.25984251968503935,
          "duration": 0.5454550000000005
        },
        {
          "name": "D#2",
          "midi": 39,
          "time": 24.545475,
          "velocity": 0.25984251968503935,
          "duration": 1.5534103854166652
        },
        {
          "name": "D#3",
          "midi": 51,
          "time": 24.545475,
          "velocity": 0.25984251968503935,
          "duration": 1.5534103854166652
        },
        {
          "name": "D2",
          "midi": 38,
          "time": 26.181839999999998,
          "velocity": 0.25984251968503935,
          "duration": 1.5534103854166652
        },
        {
          "name": "D3",
          "midi": 50,
          "time": 26.181839999999998,
          "velocity": 0.25984251968503935,
          "duration": 1.5534103854166652
        },
        {
          "name": "C#2",
          "midi": 37,
          "time": 27.818204999999995,
          "velocity": 0.25984251968503935,
          "duration": 1.5534103854166652
        },
        {
          "name": "C#3",
          "midi": 49,
          "time": 27.818204999999995,
          "velocity": 0.25984251968503935,
          "duration": 1.5534103854166652
        },
        {
          "name": "C#2",
          "midi": 37,
          "time": 29.454569999999993,
          "velocity": 0.25984251968503935,
          "duration": 1.5534103854166652
        },
        {
          "name": "C#3",
          "midi": 49,
          "time": 29.454569999999993,
          "velocity": 0.25984251968503935,
          "duration": 1.5534103854166652
        },
        {
          "name": "A#1",
          "midi": 34,
          "time": 31.09093499999999,
          "velocity": 0.25984251968503935,
          "duration": 1.5534103854166652
        },
        {
          "name": "A#2",
          "midi": 46,
          "time": 31.09093499999999,
          "velocity": 0.25984251968503935,
          "duration": 1.5534103854166652
        },
        {
          "name": "C2",
          "midi": 36,
          "time": 32.72729999999999,
          "velocity": 0.25984251968503935,
          "duration": 3.107957135416669
        },
        {
          "name": "C3",
          "midi": 48,
          "time": 32.72729999999999,
          "velocity": 0.25984251968503935,
          "duration": 3.107957135416669
        },
        {
          "name": "A#1",
          "midi": 34,
          "time": 36.000029999999995,
          "velocity": 0.25984251968503935,
          "duration": 1.5534103854166688
        },
        {
          "name": "A#2",
          "midi": 46,
          "time": 36.000029999999995,
          "velocity": 0.25984251968503935,
          "duration": 0.8181824999999989
        },
        {
          "name": "A#2",
          "midi": 46,
          "time": 36.818212499999994,
          "velocity": 0.25984251968503935,
          "duration": 0.7761370104166687
        },
        {
          "name": "F3",
          "midi": 53,
          "time": 36.818212499999994,
          "velocity": 0.25984251968503935,
          "duration": 0.7761370104166687
        },
        {
          "name": "A#1",
          "midi": 34,
          "time": 37.63639499999999,
          "velocity": 0.25984251968503935,
          "duration": 1.5534103854166688
        },
        {
          "name": "A#2",
          "midi": 46,
          "time": 37.63639499999999,
          "velocity": 0.25984251968503935,
          "duration": 0.8181824999999989
        },
        {
          "name": "A#2",
          "midi": 46,
          "time": 38.45457749999999,
          "velocity": 0.25984251968503935,
          "duration": 0.7761370104166687
        },
        {
          "name": "F3",
          "midi": 53,
          "time": 38.45457749999999,
          "velocity": 0.25984251968503935,
          "duration": 0.7761370104166687
        },
        {
          "name": "C2",
          "midi": 36,
          "time": 39.27275999999999,
          "velocity": 0.3858267716535433,
          "duration": 0.517045885416664
        },
        {
          "name": "G2",
          "midi": 43,
          "time": 39.27275999999999,
          "velocity": 0.3858267716535433,
          "duration": 0.517045885416664
        },
        {
          "name": "C3",
          "midi": 48,
          "time": 39.27275999999999,
          "velocity": 0.3858267716535433,
          "duration": 0.517045885416664
        },
        {
          "name": "G2",
          "midi": 43,
          "time": 40.09094249999999,
          "velocity": 0.3858267716535433,
          "duration": 0.7761370104166687
        },
        {
          "name": "C3",
          "midi": 48,
          "time": 40.36366999999999,
          "velocity": 0.3858267716535433,
          "duration": 0.517045885416664
        },
        {
          "name": "C#2",
          "midi": 37,
          "time": 40.90912499999999,
          "velocity": 0.3858267716535433,
          "duration": 0.517045885416664
        },
        {
          "name": "G#2",
          "midi": 44,
          "time": 40.90912499999999,
          "velocity": 0.3858267716535433,
          "duration": 0.517045885416664
        },
        {
          "name": "C#3",
          "midi": 49,
          "time": 40.90912499999999,
          "velocity": 0.3858267716535433,
          "duration": 0.517045885416664
        },
        {
          "name": "G#2",
          "midi": 44,
          "time": 41.72730749999999,
          "velocity": 0.3858267716535433,
          "duration": 0.7761370104166687
        },
        {
          "name": "C#3",
          "midi": 49,
          "time": 42.00003499999999,
          "velocity": 0.3858267716535433,
          "duration": 0.517045885416664
        },
        {
          "name": "D#2",
          "midi": 39,
          "time": 42.54548999999999,
          "velocity": 0.3858267716535433,
          "duration": 0.517045885416664
        },
        {
          "name": "A#2",
          "midi": 46,
          "time": 42.54548999999999,
          "velocity": 0.3858267716535433,
          "duration": 0.517045885416664
        },
        {
          "name": "D#3",
          "midi": 51,
          "time": 42.54548999999999,
          "velocity": 0.3858267716535433,
          "duration": 0.517045885416664
        },
        {
          "name": "A#2",
          "midi": 46,
          "time": 43.363672499999986,
          "velocity": 0.3858267716535433,
          "duration": 0.7761370104166687
        },
        {
          "name": "D#3",
          "midi": 51,
          "time": 43.63639999999999,
          "velocity": 0.3858267716535433,
          "duration": 0.517045885416664
        },
        {
          "name": "F2",
          "midi": 41,
          "time": 44.181854999999985,
          "velocity": 0.3858267716535433,
          "duration": 0.517045885416664
        },
        {
          "name": "C3",
          "midi": 48,
          "time": 44.181854999999985,
          "velocity": 0.3858267716535433,
          "duration": 0.517045885416664
        },
        {
          "name": "F3",
          "midi": 53,
          "time": 44.181854999999985,
          "velocity": 0.3858267716535433,
          "duration": 0.517045885416664
        },
        {
          "name": "C3",
          "midi": 48,
          "time": 45.00003749999998,
          "velocity": 0.3858267716535433,
          "duration": 0.7761370104166687
        },
        {
          "name": "F3",
          "midi": 53,
          "time": 45.272764999999985,
          "velocity": 0.3858267716535433,
          "duration": 0.517045885416664
        },
        {
          "name": "A#1",
          "midi": 34,
          "time": 45.81821999999998,
          "velocity": 0.3858267716535433,
          "duration": 0.517045885416664
        },
        {
          "name": "F2",
          "midi": 41,
          "time": 45.81821999999998,
          "velocity": 0.3858267716535433,
          "duration": 0.517045885416664
        },
        {
          "name": "A#2",
          "midi": 46,
          "time": 45.81821999999998,
          "velocity": 0.3858267716535433,
          "duration": 0.517045885416664
        },
        {
          "name": "F2",
          "midi": 41,
          "time": 46.63640249999998,
          "velocity": 0.3858267716535433,
          "duration": 0.7761370104166687
        },
        {
          "name": "A#2",
          "midi": 46,
          "time": 46.90912999999998,
          "velocity": 0.3858267716535433,
          "duration": 0.517045885416664
        },
        {
          "name": "C2",
          "midi": 36,
          "time": 47.45458499999998,
          "velocity": 0.3858267716535433,
          "duration": 0.517045885416664
        },
        {
          "name": "G2",
          "midi": 43,
          "time": 47.45458499999998,
          "velocity": 0.3858267716535433,
          "duration": 0.517045885416664
        },
        {
          "name": "C3",
          "midi": 48,
          "time": 47.45458499999998,
          "velocity": 0.3858267716535433,
          "duration": 0.517045885416664
        },
        {
          "name": "G2",
          "midi": 43,
          "time": 48.27276749999998,
          "velocity": 0.3858267716535433,
          "duration": 0.7761370104166687
        },
        {
          "name": "C3",
          "midi": 48,
          "time": 48.54549499999998,
          "velocity": 0.3858267716535433,
          "duration": 0.517045885416664
        },
        {
          "name": "F2",
          "midi": 41,
          "time": 49.09094999999998,
          "velocity": 0.3858267716535433,
          "duration": 0.517045885416664
        },
        {
          "name": "C3",
          "midi": 48,
          "time": 49.09094999999998,
          "velocity": 0.3858267716535433,
          "duration": 0.517045885416664
        },
        {
          "name": "F3",
          "midi": 53,
          "time": 49.09094999999998,
          "velocity": 0.3858267716535433,
          "duration": 0.517045885416664
        },
        {
          "name": "C3",
          "midi": 48,
          "time": 49.90913249999998,
          "velocity": 0.3858267716535433,
          "duration": 0.7761370104166687
        },
        {
          "name": "F3",
          "midi": 53,
          "time": 50.18185999999998,
          "velocity": 0.3858267716535433,
          "duration": 0.517045885416664
        },
        {
          "name": "F2",
          "midi": 41,
          "time": 50.727314999999976,
          "velocity": 0.3858267716535433,
          "duration": 0.517045885416664
        },
        {
          "name": "C#3",
          "midi": 49,
          "time": 50.727314999999976,
          "velocity": 0.3858267716535433,
          "duration": 0.517045885416664
        },
        {
          "name": "F3",
          "midi": 53,
          "time": 50.727314999999976,
          "velocity": 0.3858267716535433,
          "duration": 0.517045885416664
        },
        {
          "name": "A#2",
          "midi": 46,
          "time": 51.545497499999975,
          "velocity": 0.3858267716535433,
          "duration": 0.7761370104166687
        },
        {
          "name": "F3",
          "midi": 53,
          "time": 51.81822499999998,
          "velocity": 0.3858267716535433,
          "duration": 0.517045885416664
        },
        {
          "name": "C2",
          "midi": 36,
          "time": 52.363679999999974,
          "velocity": 0.3858267716535433,
          "duration": 0.517045885416664
        },
        {
          "name": "G2",
          "midi": 43,
          "time": 52.363679999999974,
          "velocity": 0.3858267716535433,
          "duration": 0.517045885416664
        },
        {
          "name": "C3",
          "midi": 48,
          "time": 52.363679999999974,
          "velocity": 0.3858267716535433,
          "duration": 0.517045885416664
        },
        {
          "name": "G2",
          "midi": 43,
          "time": 53.18186249999997,
          "velocity": 0.3858267716535433,
          "duration": 0.7761370104166687
        },
        {
          "name": "C3",
          "midi": 48,
          "time": 53.454589999999975,
          "velocity": 0.3858267716535433,
          "duration": 0.517045885416664
        },
        {
          "name": "C#2",
          "midi": 37,
          "time": 54.00004499999997,
          "velocity": 0.3858267716535433,
          "duration": 0.517045885416664
        },
        {
          "name": "G#2",
          "midi": 44,
          "time": 54.00004499999997,
          "velocity": 0.3858267716535433,
          "duration": 0.517045885416664
        },
        {
          "name": "C#3",
          "midi": 49,
          "time": 54.00004499999997,
          "velocity": 0.3858267716535433,
          "duration": 0.517045885416664
        },
        {
          "name": "G#2",
          "midi": 44,
          "time": 54.81822749999997,
          "velocity": 0.3858267716535433,
          "duration": 0.7761370104166687
        },
        {
          "name": "C#3",
          "midi": 49,
          "time": 55.09095499999997,
          "velocity": 0.3858267716535433,
          "duration": 0.517045885416664
        },
        {
          "name": "D#2",
          "midi": 39,
          "time": 55.63640999999997,
          "velocity": 0.3858267716535433,
          "duration": 0.517045885416664
        },
        {
          "name": "A#2",
          "midi": 46,
          "time": 55.63640999999997,
          "velocity": 0.3858267716535433,
          "duration": 0.517045885416664
        },
        {
          "name": "D#3",
          "midi": 51,
          "time": 55.63640999999997,
          "velocity": 0.3858267716535433,
          "duration": 0.517045885416664
        },
        {
          "name": "A#2",
          "midi": 46,
          "time": 56.45459249999997,
          "velocity": 0.3858267716535433,
          "duration": 0.7761370104166687
        },
        {
          "name": "D#3",
          "midi": 51,
          "time": 56.72731999999997,
          "velocity": 0.3858267716535433,
          "duration": 0.517045885416664
        },
        {
          "name": "F2",
          "midi": 41,
          "time": 57.27277499999997,
          "velocity": 0.3858267716535433,
          "duration": 0.517045885416664
        },
        {
          "name": "C3",
          "midi": 48,
          "time": 57.27277499999997,
          "velocity": 0.3858267716535433,
          "duration": 0.517045885416664
        },
        {
          "name": "F3",
          "midi": 53,
          "time": 57.27277499999997,
          "velocity": 0.3858267716535433,
          "duration": 0.517045885416664
        },
        {
          "name": "C3",
          "midi": 48,
          "time": 58.090957499999966,
          "velocity": 0.3858267716535433,
          "duration": 0.7761370104166687
        },
        {
          "name": "F3",
          "midi": 53,
          "time": 58.36368499999997,
          "velocity": 0.3858267716535433,
          "duration": 0.517045885416664
        },
        {
          "name": "A#1",
          "midi": 34,
          "time": 58.909139999999965,
          "velocity": 0.3858267716535433,
          "duration": 0.517045885416664
        },
        {
          "name": "F2",
          "midi": 41,
          "time": 58.909139999999965,
          "velocity": 0.3858267716535433,
          "duration": 0.517045885416664
        },
        {
          "name": "A#2",
          "midi": 46,
          "time": 58.909139999999965,
          "velocity": 0.3858267716535433,
          "duration": 0.517045885416664
        },
        {
          "name": "F2",
          "midi": 41,
          "time": 59.727322499999964,
          "velocity": 0.3858267716535433,
          "duration": 0.7761370104166687
        },
        {
          "name": "A#2",
          "midi": 46,
          "time": 60.000049999999966,
          "velocity": 0.3858267716535433,
          "duration": 0.517045885416664
        },
        {
          "name": "C2",
          "midi": 36,
          "time": 60.54550499999996,
          "velocity": 0.3858267716535433,
          "duration": 0.517045885416664
        },
        {
          "name": "G2",
          "midi": 43,
          "time": 60.54550499999996,
          "velocity": 0.3858267716535433,
          "duration": 0.517045885416664
        },
        {
          "name": "C3",
          "midi": 48,
          "time": 60.54550499999996,
          "velocity": 0.3858267716535433,
          "duration": 0.517045885416664
        },
        {
          "name": "G2",
          "midi": 43,
          "time": 61.36368749999996,
          "velocity": 0.3858267716535433,
          "duration": 0.7761370104166687
        },
        {
          "name": "C3",
          "midi": 48,
          "time": 61.636414999999964,
          "velocity": 0.3858267716535433,
          "duration": 0.517045885416664
        },
        {
          "name": "F2",
          "midi": 41,
          "time": 62.18186999999996,
          "velocity": 0.3858267716535433,
          "duration": 0.517045885416664
        },
        {
          "name": "C3",
          "midi": 48,
          "time": 62.18186999999996,
          "velocity": 0.3858267716535433,
          "duration": 0.517045885416664
        },
        {
          "name": "F3",
          "midi": 53,
          "time": 62.18186999999996,
          "velocity": 0.3858267716535433,
          "duration": 0.517045885416664
        },
        {
          "name": "C3",
          "midi": 48,
          "time": 63.00005249999996,
          "velocity": 0.3858267716535433,
          "duration": 0.7761370104166687
        },
        {
          "name": "F3",
          "midi": 53,
          "time": 63.27277999999996,
          "velocity": 0.3858267716535433,
          "duration": 0.517045885416664
        },
        {
          "name": "F2",
          "midi": 41,
          "time": 63.81823499999996,
          "velocity": 0.3858267716535433,
          "duration": 0.517045885416664
        },
        {
          "name": "A2",
          "midi": 45,
          "time": 63.81823499999996,
          "velocity": 0.3858267716535433,
          "duration": 0.517045885416664
        },
        {
          "name": "C3",
          "midi": 48,
          "time": 63.81823499999996,
          "velocity": 0.3858267716535433,
          "duration": 0.517045885416664
        },
        {
          "name": "F3",
          "midi": 53,
          "time": 63.81823499999996,
          "velocity": 0.3858267716535433,
          "duration": 0.517045885416664
        },
        {
          "name": "F3",
          "midi": 53,
          "time": 64.36368999999996,
          "velocity": 0.3858267716535433,
          "duration": 0.517045885416664
        },
        {
          "name": "A3",
          "midi": 57,
          "time": 64.36368999999996,
          "velocity": 0.3858267716535433,
          "duration": 0.517045885416664
        },
        {
          "name": "C4",
          "midi": 60,
          "time": 64.36368999999996,
          "velocity": 0.3858267716535433,
          "duration": 0.517045885416664
        },
        {
          "name": "C3",
          "midi": 48,
          "time": 64.63641749999996,
          "velocity": 0.3858267716535433,
          "duration": 0.7761370104166758
        },
        {
          "name": "F3",
          "midi": 53,
          "time": 64.90914499999997,
          "velocity": 0.3858267716535433,
          "duration": 0.5170458854166782
        },
        {
          "name": "A3",
          "midi": 57,
          "time": 64.90914499999997,
          "velocity": 0.3858267716535433,
          "duration": 0.5170458854166782
        },
        {
          "name": "C4",
          "midi": 60,
          "time": 64.90914499999997,
          "velocity": 0.3858267716535433,
          "duration": 0.5170458854166782
        },
        {
          "name": "F#1",
          "midi": 30,
          "time": 65.45459999999999,
          "velocity": 0.6299212598425197,
          "duration": 0.517045885416664
        },
        {
          "name": "C#2",
          "midi": 37,
          "time": 65.45459999999999,
          "velocity": 0.6299212598425197,
          "duration": 0.517045885416664
        },
        {
          "name": "F#2",
          "midi": 42,
          "time": 65.45459999999999,
          "velocity": 0.6299212598425197,
          "duration": 0.517045885416664
        },
        {
          "name": "F#2",
          "midi": 42,
          "time": 66.00005499999999,
          "velocity": 0.6299212598425197,
          "duration": 1.0352281354166735
        },
        {
          "name": "C#3",
          "midi": 49,
          "time": 66.00005499999999,
          "velocity": 0.6299212598425197,
          "duration": 1.0352281354166735
        },
        {
          "name": "F#3",
          "midi": 54,
          "time": 66.00005499999999,
          "velocity": 0.6299212598425197,
          "duration": 1.0352281354166735
        },
        {
          "name": "A#1",
          "midi": 34,
          "time": 67.090965,
          "velocity": 0.6299212598425197,
          "duration": 0.517045885416664
        },
        {
          "name": "F2",
          "midi": 41,
          "time": 67.090965,
          "velocity": 0.6299212598425197,
          "duration": 0.517045885416664
        },
        {
          "name": "A#2",
          "midi": 46,
          "time": 67.090965,
          "velocity": 0.6299212598425197,
          "duration": 0.517045885416664
        },
        {
          "name": "A#2",
          "midi": 46,
          "time": 67.63642,
          "velocity": 0.6299212598425197,
          "duration": 1.0352281354166735
        },
        {
          "name": "F3",
          "midi": 53,
          "time": 67.63642,
          "velocity": 0.6299212598425197,
          "duration": 1.0352281354166735
        },
        {
          "name": "A#3",
          "midi": 58,
          "time": 67.63642,
          "velocity": 0.6299212598425197,
          "duration": 1.0352281354166735
        },
        {
          "name": "G#1",
          "midi": 32,
          "time": 68.72733000000001,
          "velocity": 0.6299212598425197,
          "duration": 0.517045885416664
        },
        {
          "name": "D#2",
          "midi": 39,
          "time": 68.72733000000001,
          "velocity": 0.6299212598425197,
          "duration": 0.517045885416664
        },
        {
          "name": "G#2",
          "midi": 44,
          "time": 68.72733000000001,
          "velocity": 0.6299212598425197,
          "duration": 0.517045885416664
        },
        {
          "name": "G#2",
          "midi": 44,
          "time": 69.27278500000001,
          "velocity": 0.6299212598425197,
          "duration": 1.0352281354166735
        },
        {
          "name": "D#3",
          "midi": 51,
          "time": 69.27278500000001,
          "velocity": 0.6299212598425197,
          "duration": 1.0352281354166735
        },
        {
          "name": "G#3",
          "midi": 56,
          "time": 69.27278500000001,
          "velocity": 0.6299212598425197,
          "duration": 1.0352281354166735
        },
        {
          "name": "G#1",
          "midi": 32,
          "time": 70.36369500000002,
          "velocity": 0.6299212598425197,
          "duration": 0.517045885416664
        },
        {
          "name": "F2",
          "midi": 41,
          "time": 70.36369500000002,
          "velocity": 0.6299212598425197,
          "duration": 0.517045885416664
        },
        {
          "name": "G#2",
          "midi": 44,
          "time": 70.36369500000002,
          "velocity": 0.6299212598425197,
          "duration": 0.517045885416664
        },
        {
          "name": "G#2",
          "midi": 44,
          "time": 70.90915000000003,
          "velocity": 0.6299212598425197,
          "duration": 1.0352281354166735
        },
        {
          "name": "C3",
          "midi": 48,
          "time": 70.90915000000003,
          "velocity": 0.6299212598425197,
          "duration": 1.0352281354166735
        },
        {
          "name": "G#3",
          "midi": 56,
          "time": 70.90915000000003,
          "velocity": 0.6299212598425197,
          "duration": 1.0352281354166735
        },
        {
          "name": "F#1",
          "midi": 30,
          "time": 72.00006000000003,
          "velocity": 0.6299212598425197,
          "duration": 0.517045885416664
        },
        {
          "name": "C#2",
          "midi": 37,
          "time": 72.00006000000003,
          "velocity": 0.6299212598425197,
          "duration": 0.517045885416664
        },
        {
          "name": "F#2",
          "midi": 42,
          "time": 72.00006000000003,
          "velocity": 0.6299212598425197,
          "duration": 0.517045885416664
        },
        {
          "name": "F#2",
          "midi": 42,
          "time": 72.54551500000004,
          "velocity": 0.6299212598425197,
          "duration": 1.0352281354166735
        },
        {
          "name": "C#3",
          "midi": 49,
          "time": 72.54551500000004,
          "velocity": 0.6299212598425197,
          "duration": 1.0352281354166735
        },
        {
          "name": "F#3",
          "midi": 54,
          "time": 72.54551500000004,
          "velocity": 0.6299212598425197,
          "duration": 1.0352281354166735
        },
        {
          "name": "A#1",
          "midi": 34,
          "time": 73.63642500000005,
          "velocity": 0.6299212598425197,
          "duration": 0.517045885416664
        },
        {
          "name": "F2",
          "midi": 41,
          "time": 73.63642500000005,
          "velocity": 0.6299212598425197,
          "duration": 0.517045885416664
        },
        {
          "name": "A#2",
          "midi": 46,
          "time": 73.63642500000005,
          "velocity": 0.6299212598425197,
          "duration": 0.517045885416664
        },
        {
          "name": "A#2",
          "midi": 46,
          "time": 74.18188000000005,
          "velocity": 0.6299212598425197,
          "duration": 1.0352281354166735
        },
        {
          "name": "F3",
          "midi": 53,
          "time": 74.18188000000005,
          "velocity": 0.6299212598425197,
          "duration": 1.0352281354166735
        },
        {
          "name": "A#3",
          "midi": 58,
          "time": 74.18188000000005,
          "velocity": 0.6299212598425197,
          "duration": 1.0352281354166735
        },
        {
          "name": "G#1",
          "midi": 32,
          "time": 75.27279000000006,
          "velocity": 0.6299212598425197,
          "duration": 0.517045885416664
        },
        {
          "name": "D#2",
          "midi": 39,
          "time": 75.27279000000006,
          "velocity": 0.6299212598425197,
          "duration": 0.517045885416664
        },
        {
          "name": "G#2",
          "midi": 44,
          "time": 75.27279000000006,
          "velocity": 0.6299212598425197,
          "duration": 0.517045885416664
        },
        {
          "name": "G#2",
          "midi": 44,
          "time": 75.81824500000006,
          "velocity": 0.6299212598425197,
          "duration": 1.0352281354166735
        },
        {
          "name": "D#3",
          "midi": 51,
          "time": 75.81824500000006,
          "velocity": 0.6299212598425197,
          "duration": 1.0352281354166735
        },
        {
          "name": "G#3",
          "midi": 56,
          "time": 75.81824500000006,
          "velocity": 0.6299212598425197,
          "duration": 1.0352281354166735
        },
        {
          "name": "C#2",
          "midi": 37,
          "time": 76.90915500000007,
          "velocity": 0.6299212598425197,
          "duration": 0.7761370104166616
        },
        {
          "name": "G#2",
          "midi": 44,
          "time": 76.90915500000007,
          "velocity": 0.6299212598425197,
          "duration": 0.7761370104166616
        },
        {
          "name": "C#3",
          "midi": 49,
          "time": 76.90915500000007,
          "velocity": 0.6299212598425197,
          "duration": 0.7761370104166616
        },
        {
          "name": "F1",
          "midi": 29,
          "time": 77.72733750000006,
          "velocity": 0.6299212598425197,
          "duration": 0.7761370104166616
        },
        {
          "name": "C2",
          "midi": 36,
          "time": 77.72733750000006,
          "velocity": 0.6299212598425197,
          "duration": 0.7761370104166616
        },
        {
          "name": "F2",
          "midi": 41,
          "time": 77.72733750000006,
          "velocity": 0.6299212598425197,
          "duration": 0.7761370104166616
        },
        {
          "name": "F#1",
          "midi": 30,
          "time": 78.54552000000005,
          "velocity": 0.6299212598425197,
          "duration": 0.517045885416664
        },
        {
          "name": "C#2",
          "midi": 37,
          "time": 78.54552000000005,
          "velocity": 0.6299212598425197,
          "duration": 0.517045885416664
        },
        {
          "name": "F#2",
          "midi": 42,
          "time": 78.54552000000005,
          "velocity": 0.6299212598425197,
          "duration": 0.517045885416664
        },
        {
          "name": "F#2",
          "midi": 42,
          "time": 79.09097500000006,
          "velocity": 0.6299212598425197,
          "duration": 1.0352281354166735
        },
        {
          "name": "C#3",
          "midi": 49,
          "time": 79.09097500000006,
          "velocity": 0.6299212598425197,
          "duration": 1.0352281354166735
        },
        {
          "name": "F#3",
          "midi": 54,
          "time": 79.09097500000006,
          "velocity": 0.6299212598425197,
          "duration": 1.0352281354166735
        },
        {
          "name": "A#1",
          "midi": 34,
          "time": 80.18188500000007,
          "velocity": 0.6299212598425197,
          "duration": 0.517045885416664
        },
        {
          "name": "F2",
          "midi": 41,
          "time": 80.18188500000007,
          "velocity": 0.6299212598425197,
          "duration": 0.517045885416664
        },
        {
          "name": "A#2",
          "midi": 46,
          "time": 80.18188500000007,
          "velocity": 0.6299212598425197,
          "duration": 0.517045885416664
        },
        {
          "name": "A#2",
          "midi": 46,
          "time": 80.72734000000007,
          "velocity": 0.6299212598425197,
          "duration": 1.0352281354166735
        },
        {
          "name": "F3",
          "midi": 53,
          "time": 80.72734000000007,
          "velocity": 0.6299212598425197,
          "duration": 1.0352281354166735
        },
        {
          "name": "A#3",
          "midi": 58,
          "time": 80.72734000000007,
          "velocity": 0.6299212598425197,
          "duration": 1.0352281354166735
        },
        {
          "name": "G#1",
          "midi": 32,
          "time": 81.81825000000008,
          "velocity": 0.6299212598425197,
          "duration": 0.517045885416664
        },
        {
          "name": "D#2",
          "midi": 39,
          "time": 81.81825000000008,
          "velocity": 0.6299212598425197,
          "duration": 0.517045885416664
        },
        {
          "name": "G#2",
          "midi": 44,
          "time": 81.81825000000008,
          "velocity": 0.6299212598425197,
          "duration": 0.517045885416664
        },
        {
          "name": "G#2",
          "midi": 44,
          "time": 82.36370500000008,
          "velocity": 0.6299212598425197,
          "duration": 1.0352281354166735
        },
        {
          "name": "D#3",
          "midi": 51,
          "time": 82.36370500000008,
          "velocity": 0.6299212598425197,
          "duration": 1.0352281354166735
        },
        {
          "name": "G#3",
          "midi": 56,
          "time": 82.36370500000008,
          "velocity": 0.6299212598425197,
          "duration": 1.0352281354166735
        },
        {
          "name": "D#1",
          "midi": 27,
          "time": 83.45461500000009,
          "velocity": 0.6299212598425197,
          "duration": 0.517045885416664
        },
        {
          "name": "A#1",
          "midi": 34,
          "time": 83.45461500000009,
          "velocity": 0.6299212598425197,
          "duration": 0.517045885416664
        },
        {
          "name": "D#2",
          "midi": 39,
          "time": 83.45461500000009,
          "velocity": 0.6299212598425197,
          "duration": 0.517045885416664
        },
        {
          "name": "D#2",
          "midi": 39,
          "time": 84.0000700000001,
          "velocity": 0.6299212598425197,
          "duration": 1.0352281354166735
        },
        {
          "name": "A#2",
          "midi": 46,
          "time": 84.0000700000001,
          "velocity": 0.6299212598425197,
          "duration": 1.0352281354166735
        },
        {
          "name": "D#3",
          "midi": 51,
          "time": 84.0000700000001,
          "velocity": 0.6299212598425197,
          "duration": 1.0352281354166735
        },
        {
          "name": "F#1",
          "midi": 30,
          "time": 85.0909800000001,
          "velocity": 0.6299212598425197,
          "duration": 0.517045885416664
        },
        {
          "name": "C#2",
          "midi": 37,
          "time": 85.0909800000001,
          "velocity": 0.6299212598425197,
          "duration": 0.517045885416664
        },
        {
          "name": "F#2",
          "midi": 42,
          "time": 85.0909800000001,
          "velocity": 0.6299212598425197,
          "duration": 0.517045885416664
        },
        {
          "name": "F#2",
          "midi": 42,
          "time": 85.6364350000001,
          "velocity": 0.6299212598425197,
          "duration": 1.0352281354166735
        },
        {
          "name": "C#3",
          "midi": 49,
          "time": 85.6364350000001,
          "velocity": 0.6299212598425197,
          "duration": 1.0352281354166735
        },
        {
          "name": "F#3",
          "midi": 54,
          "time": 85.6364350000001,
          "velocity": 0.6299212598425197,
          "duration": 1.0352281354166735
        },
        {
          "name": "A#1",
          "midi": 34,
          "time": 86.72734500000011,
          "velocity": 0.6299212598425197,
          "duration": 0.517045885416664
        },
        {
          "name": "F2",
          "midi": 41,
          "time": 86.72734500000011,
          "velocity": 0.6299212598425197,
          "duration": 0.517045885416664
        },
        {
          "name": "A#2",
          "midi": 46,
          "time": 86.72734500000011,
          "velocity": 0.6299212598425197,
          "duration": 0.517045885416664
        },
        {
          "name": "A#2",
          "midi": 46,
          "time": 87.27280000000012,
          "velocity": 0.6299212598425197,
          "duration": 1.0352281354166735
        },
        {
          "name": "F3",
          "midi": 53,
          "time": 87.27280000000012,
          "velocity": 0.6299212598425197,
          "duration": 1.0352281354166735
        },
        {
          "name": "A#3",
          "midi": 58,
          "time": 87.27280000000012,
          "velocity": 0.6299212598425197,
          "duration": 1.0352281354166735
        },
        {
          "name": "C#2",
          "midi": 37,
          "time": 88.36371000000013,
          "velocity": 0.6299212598425197,
          "duration": 0.517045885416664
        },
        {
          "name": "G#2",
          "midi": 44,
          "time": 88.36371000000013,
          "velocity": 0.6299212598425197,
          "duration": 0.517045885416664
        },
        {
          "name": "C#3",
          "midi": 49,
          "time": 88.36371000000013,
          "velocity": 0.6299212598425197,
          "duration": 0.517045885416664
        },
        {
          "name": "C#3",
          "midi": 49,
          "time": 88.90916500000013,
          "velocity": 0.6299212598425197,
          "duration": 1.0352281354166735
        },
        {
          "name": "G#3",
          "midi": 56,
          "time": 88.90916500000013,
          "velocity": 0.6299212598425197,
          "duration": 1.0352281354166735
        },
        {
          "name": "C#4",
          "midi": 61,
          "time": 88.90916500000013,
          "velocity": 0.6299212598425197,
          "duration": 1.0352281354166735
        },
        {
          "name": "G#1",
          "midi": 32,
          "time": 90.00007500000014,
          "velocity": 0.6299212598425197,
          "duration": 0.517045885416664
        },
        {
          "name": "D#2",
          "midi": 39,
          "time": 90.00007500000014,
          "velocity": 0.6299212598425197,
          "duration": 0.517045885416664
        },
        {
          "name": "G#2",
          "midi": 44,
          "time": 90.00007500000014,
          "velocity": 0.6299212598425197,
          "duration": 0.517045885416664
        },
        {
          "name": "G#2",
          "midi": 44,
          "time": 90.54553000000014,
          "velocity": 0.6299212598425197,
          "duration": 1.0352281354166735
        },
        {
          "name": "D#3",
          "midi": 51,
          "time": 90.54553000000014,
          "velocity": 0.6299212598425197,
          "duration": 1.0352281354166735
        },
        {
          "name": "G#3",
          "midi": 56,
          "time": 90.54553000000014,
          "velocity": 0.6299212598425197,
          "duration": 1.0352281354166735
        },
        {
          "name": "F#1",
          "midi": 30,
          "time": 91.63644000000015,
          "velocity": 0.6299212598425197,
          "duration": 0.517045885416664
        },
        {
          "name": "F#2",
          "midi": 42,
          "time": 91.63644000000015,
          "velocity": 0.6299212598425197,
          "duration": 0.517045885416664
        },
        {
          "name": "C#2",
          "midi": 37,
          "time": 92.18189500000015,
          "velocity": 0.6299212598425197,
          "duration": 0.517045885416664
        },
        {
          "name": "C#3",
          "midi": 49,
          "time": 92.18189500000015,
          "velocity": 0.6299212598425197,
          "duration": 0.517045885416664
        },
        {
          "name": "C#2",
          "midi": 37,
          "time": 92.72735000000016,
          "velocity": 0.6299212598425197,
          "duration": 0.517045885416664
        },
        {
          "name": "C#3",
          "midi": 49,
          "time": 92.72735000000016,
          "velocity": 0.6299212598425197,
          "duration": 0.517045885416664
        },
        {
          "name": "A#1",
          "midi": 34,
          "time": 93.27280500000016,
          "velocity": 0.6299212598425197,
          "duration": 0.517045885416664
        },
        {
          "name": "A#2",
          "midi": 46,
          "time": 93.27280500000016,
          "velocity": 0.6299212598425197,
          "duration": 0.517045885416664
        },
        {
          "name": "F2",
          "midi": 41,
          "time": 93.81826000000017,
          "velocity": 0.6299212598425197,
          "duration": 0.517045885416664
        },
        {
          "name": "F3",
          "midi": 53,
          "time": 93.81826000000017,
          "velocity": 0.6299212598425197,
          "duration": 0.517045885416664
        },
        {
          "name": "F2",
          "midi": 41,
          "time": 94.36371500000017,
          "velocity": 0.6299212598425197,
          "duration": 0.517045885416664
        },
        {
          "name": "F3",
          "midi": 53,
          "time": 94.36371500000017,
          "velocity": 0.6299212598425197,
          "duration": 0.517045885416664
        },
        {
          "name": "G#1",
          "midi": 32,
          "time": 94.90917000000017,
          "velocity": 0.6299212598425197,
          "duration": 0.517045885416664
        },
        {
          "name": "G#2",
          "midi": 44,
          "time": 94.90917000000017,
          "velocity": 0.6299212598425197,
          "duration": 0.517045885416664
        },
        {
          "name": "D#2",
          "midi": 39,
          "time": 95.45462500000018,
          "velocity": 0.6299212598425197,
          "duration": 0.517045885416664
        },
        {
          "name": "D#3",
          "midi": 51,
          "time": 95.45462500000018,
          "velocity": 0.6299212598425197,
          "duration": 0.517045885416664
        },
        {
          "name": "D#2",
          "midi": 39,
          "time": 96.00008000000018,
          "velocity": 0.6299212598425197,
          "duration": 0.517045885416664
        },
        {
          "name": "D#3",
          "midi": 51,
          "time": 96.00008000000018,
          "velocity": 0.6299212598425197,
          "duration": 0.517045885416664
        },
        {
          "name": "G#1",
          "midi": 32,
          "time": 96.54553500000019,
          "velocity": 0.6299212598425197,
          "duration": 0.517045885416664
        },
        {
          "name": "G#2",
          "midi": 44,
          "time": 96.54553500000019,
          "velocity": 0.6299212598425197,
          "duration": 0.517045885416664
        },
        {
          "name": "C2",
          "midi": 36,
          "time": 97.09099000000019,
          "velocity": 0.6299212598425197,
          "duration": 0.517045885416664
        },
        {
          "name": "C3",
          "midi": 48,
          "time": 97.09099000000019,
          "velocity": 0.6299212598425197,
          "duration": 0.517045885416664
        },
        {
          "name": "C2",
          "midi": 36,
          "time": 97.6364450000002,
          "velocity": 0.6299212598425197,
          "duration": 0.517045885416664
        },
        {
          "name": "C3",
          "midi": 48,
          "time": 97.6364450000002,
          "velocity": 0.6299212598425197,
          "duration": 0.517045885416664
        },
        {
          "name": "F#1",
          "midi": 30,
          "time": 98.1819000000002,
          "velocity": 0.6299212598425197,
          "duration": 0.517045885416664
        },
        {
          "name": "F#2",
          "midi": 42,
          "time": 98.1819000000002,
          "velocity": 0.6299212598425197,
          "duration": 0.517045885416664
        },
        {
          "name": "C#2",
          "midi": 37,
          "time": 98.7273550000002,
          "velocity": 0.6299212598425197,
          "duration": 0.517045885416664
        },
        {
          "name": "C#3",
          "midi": 49,
          "time": 98.7273550000002,
          "velocity": 0.6299212598425197,
          "duration": 0.517045885416664
        },
        {
          "name": "C#2",
          "midi": 37,
          "time": 99.2728100000002,
          "velocity": 0.6299212598425197,
          "duration": 0.517045885416664
        },
        {
          "name": "C#3",
          "midi": 49,
          "time": 99.2728100000002,
          "velocity": 0.6299212598425197,
          "duration": 0.517045885416664
        },
        {
          "name": "A#1",
          "midi": 34,
          "time": 99.81826500000021,
          "velocity": 0.6299212598425197,
          "duration": 0.517045885416664
        },
        {
          "name": "A#2",
          "midi": 46,
          "time": 99.81826500000021,
          "velocity": 0.6299212598425197,
          "duration": 0.517045885416664
        },
        {
          "name": "F2",
          "midi": 41,
          "time": 100.36372000000021,
          "velocity": 0.6299212598425197,
          "duration": 0.517045885416664
        },
        {
          "name": "F3",
          "midi": 53,
          "time": 100.36372000000021,
          "velocity": 0.6299212598425197,
          "duration": 0.517045885416664
        },
        {
          "name": "F2",
          "midi": 41,
          "time": 100.90917500000022,
          "velocity": 0.6299212598425197,
          "duration": 0.517045885416664
        },
        {
          "name": "F3",
          "midi": 53,
          "time": 100.90917500000022,
          "velocity": 0.6299212598425197,
          "duration": 0.517045885416664
        },
        {
          "name": "D#1",
          "midi": 27,
          "time": 101.45463000000022,
          "velocity": 0.6299212598425197,
          "duration": 0.517045885416664
        },
        {
          "name": "D#2",
          "midi": 39,
          "time": 101.45463000000022,
          "velocity": 0.6299212598425197,
          "duration": 0.517045885416664
        },
        {
          "name": "G#1",
          "midi": 32,
          "time": 102.00008500000023,
          "velocity": 0.6299212598425197,
          "duration": 0.517045885416664
        },
        {
          "name": "G#2",
          "midi": 44,
          "time": 102.00008500000023,
          "velocity": 0.6299212598425197,
          "duration": 0.517045885416664
        },
        {
          "name": "G#1",
          "midi": 32,
          "time": 102.54554000000023,
          "velocity": 0.6299212598425197,
          "duration": 0.517045885416664
        },
        {
          "name": "G#2",
          "midi": 44,
          "time": 102.54554000000023,
          "velocity": 0.6299212598425197,
          "duration": 0.517045885416664
        },
        {
          "name": "C#2",
          "midi": 37,
          "time": 103.09099500000023,
          "velocity": 0.6299212598425197,
          "duration": 0.7761370104166616
        },
        {
          "name": "G#2",
          "midi": 44,
          "time": 103.09099500000023,
          "velocity": 0.6299212598425197,
          "duration": 0.7761370104166616
        },
        {
          "name": "C#3",
          "midi": 49,
          "time": 103.09099500000023,
          "velocity": 0.6299212598425197,
          "duration": 0.7761370104166616
        },
        {
          "name": "F1",
          "midi": 29,
          "time": 103.90917750000023,
          "velocity": 0.6299212598425197,
          "duration": 0.7761370104166616
        },
        {
          "name": "F2",
          "midi": 41,
          "time": 103.90917750000023,
          "velocity": 0.6299212598425197,
          "duration": 0.7761370104166616
        },
        {
          "name": "F#1",
          "midi": 30,
          "time": 104.72736000000022,
          "velocity": 0.6299212598425197,
          "duration": 0.7761370104166616
        },
        {
          "name": "C#2",
          "midi": 37,
          "time": 104.72736000000022,
          "velocity": 0.6299212598425197,
          "duration": 0.7761370104166616
        },
        {
          "name": "F#2",
          "midi": 42,
          "time": 104.72736000000022,
          "velocity": 0.6299212598425197,
          "duration": 0.7761370104166616
        },
        {
          "name": "F#2",
          "midi": 42,
          "time": 105.54554250000021,
          "velocity": 0.6299212598425197,
          "duration": 0.7761370104166616
        },
        {
          "name": "C#3",
          "midi": 49,
          "time": 105.54554250000021,
          "velocity": 0.6299212598425197,
          "duration": 0.7761370104166616
        },
        {
          "name": "F#3",
          "midi": 54,
          "time": 105.54554250000021,
          "velocity": 0.6299212598425197,
          "duration": 0.7761370104166616
        },
        {
          "name": "A#1",
          "midi": 34,
          "time": 106.3637250000002,
          "velocity": 0.6299212598425197,
          "duration": 0.7761370104166616
        },
        {
          "name": "F2",
          "midi": 41,
          "time": 106.3637250000002,
          "velocity": 0.6299212598425197,
          "duration": 0.7761370104166616
        },
        {
          "name": "A#2",
          "midi": 46,
          "time": 106.3637250000002,
          "velocity": 0.6299212598425197,
          "duration": 0.7761370104166616
        },
        {
          "name": "A#2",
          "midi": 46,
          "time": 107.1819075000002,
          "velocity": 0.6299212598425197,
          "duration": 0.7761370104166616
        },
        {
          "name": "F3",
          "midi": 53,
          "time": 107.1819075000002,
          "velocity": 0.6299212598425197,
          "duration": 0.7761370104166616
        },
        {
          "name": "A#3",
          "midi": 58,
          "time": 107.1819075000002,
          "velocity": 0.6299212598425197,
          "duration": 0.7761370104166616
        },
        {
          "name": "G#1",
          "midi": 32,
          "time": 108.00009000000018,
          "velocity": 0.6299212598425197,
          "duration": 0.7761370104166616
        },
        {
          "name": "D#2",
          "midi": 39,
          "time": 108.00009000000018,
          "velocity": 0.6299212598425197,
          "duration": 0.7761370104166616
        },
        {
          "name": "G#2",
          "midi": 44,
          "time": 108.00009000000018,
          "velocity": 0.6299212598425197,
          "duration": 0.7761370104166616
        },
        {
          "name": "G#2",
          "midi": 44,
          "time": 108.81827250000018,
          "velocity": 0.6299212598425197,
          "duration": 0.7761370104166616
        },
        {
          "name": "D#3",
          "midi": 51,
          "time": 108.81827250000018,
          "velocity": 0.6299212598425197,
          "duration": 0.7761370104166616
        },
        {
          "name": "G#3",
          "midi": 56,
          "time": 108.81827250000018,
          "velocity": 0.6299212598425197,
          "duration": 0.7761370104166616
        },
        {
          "name": "D#1",
          "midi": 27,
          "time": 109.63645500000017,
          "velocity": 0.6299212598425197,
          "duration": 0.7761370104166616
        },
        {
          "name": "A#1",
          "midi": 34,
          "time": 109.63645500000017,
          "velocity": 0.6299212598425197,
          "duration": 0.7761370104166616
        },
        {
          "name": "D#2",
          "midi": 39,
          "time": 109.63645500000017,
          "velocity": 0.6299212598425197,
          "duration": 0.7761370104166616
        },
        {
          "name": "D#2",
          "midi": 39,
          "time": 110.45463750000016,
          "velocity": 0.6299212598425197,
          "duration": 0.7761370104166616
        },
        {
          "name": "A#2",
          "midi": 46,
          "time": 110.45463750000016,
          "velocity": 0.6299212598425197,
          "duration": 0.7761370104166616
        },
        {
          "name": "D#3",
          "midi": 51,
          "time": 110.45463750000016,
          "velocity": 0.6299212598425197,
          "duration": 0.7761370104166616
        },
        {
          "name": "F#1",
          "midi": 30,
          "time": 111.27282000000015,
          "velocity": 0.6299212598425197,
          "duration": 0.7761370104166616
        },
        {
          "name": "C#2",
          "midi": 37,
          "time": 111.27282000000015,
          "velocity": 0.6299212598425197,
          "duration": 0.7761370104166616
        },
        {
          "name": "F#2",
          "midi": 42,
          "time": 111.27282000000015,
          "velocity": 0.6299212598425197,
          "duration": 0.7761370104166616
        },
        {
          "name": "F#2",
          "midi": 42,
          "time": 112.09100250000014,
          "velocity": 0.6299212598425197,
          "duration": 0.7761370104166616
        },
        {
          "name": "C#3",
          "midi": 49,
          "time": 112.09100250000014,
          "velocity": 0.6299212598425197,
          "duration": 0.7761370104166616
        },
        {
          "name": "F#3",
          "midi": 54,
          "time": 112.09100250000014,
          "velocity": 0.6299212598425197,
          "duration": 0.7761370104166616
        },
        {
          "name": "A#1",
          "midi": 34,
          "time": 112.90918500000014,
          "velocity": 0.6299212598425197,
          "duration": 0.7761370104166616
        },
        {
          "name": "F2",
          "midi": 41,
          "time": 112.90918500000014,
          "velocity": 0.6299212598425197,
          "duration": 0.7761370104166616
        },
        {
          "name": "A#2",
          "midi": 46,
          "time": 112.90918500000014,
          "velocity": 0.6299212598425197,
          "duration": 0.7761370104166616
        },
        {
          "name": "A#2",
          "midi": 46,
          "time": 113.72736750000013,
          "velocity": 0.6299212598425197,
          "duration": 0.7761370104166616
        },
        {
          "name": "F3",
          "midi": 53,
          "time": 113.72736750000013,
          "velocity": 0.6299212598425197,
          "duration": 0.7761370104166616
        },
        {
          "name": "A#3",
          "midi": 58,
          "time": 113.72736750000013,
          "velocity": 0.6299212598425197,
          "duration": 0.7761370104166616
        },
        {
          "name": "C#2",
          "midi": 37,
          "time": 114.54555000000012,
          "velocity": 0.6299212598425197,
          "duration": 0.7761370104166616
        },
        {
          "name": "G#2",
          "midi": 44,
          "time": 114.54555000000012,
          "velocity": 0.6299212598425197,
          "duration": 0.7761370104166616
        },
        {
          "name": "C#3",
          "midi": 49,
          "time": 114.54555000000012,
          "velocity": 0.6299212598425197,
          "duration": 0.7761370104166616
        },
        {
          "name": "C#3",
          "midi": 49,
          "time": 115.36373250000011,
          "velocity": 0.6299212598425197,
          "duration": 0.7761370104166616
        },
        {
          "name": "G#3",
          "midi": 56,
          "time": 115.36373250000011,
          "velocity": 0.6299212598425197,
          "duration": 0.7761370104166616
        },
        {
          "name": "C#4",
          "midi": 61,
          "time": 115.36373250000011,
          "velocity": 0.6299212598425197,
          "duration": 0.7761370104166616
        },
        {
          "name": "G#1",
          "midi": 32,
          "time": 116.1819150000001,
          "velocity": 0.6299212598425197,
          "duration": 1.5534103854166688
        },
        {
          "name": "D#2",
          "midi": 39,
          "time": 116.1819150000001,
          "velocity": 0.6299212598425197,
          "duration": 1.5534103854166688
        },
        {
          "name": "G#2",
          "midi": 44,
          "time": 116.1819150000001,
          "velocity": 0.6299212598425197,
          "duration": 1.5534103854166688
        }
      ],
      "controlChanges": {},
      "id": 3,
      "name": "Piano",
      "channelNumber": 6,
      "isPercussion": false
    }
  ]
}