{
  "header": {
    "PPQ": 480,
    "timeSignature": [
      4,
      4
    ],
    "bpm": 91.75013380227846,
    "name": ""
  },
  "tempo": [
    {
      "absoluteTime": 0,
      "seconds": 0,
      "bpm": 91.75013380227846
    }
  ],
  "timeSignature": [
    {
      "absoluteTime": 0,
      "seconds": 0,
      "numerator": 2,
      "denominator": 2,
      "click": 24,
      "notesQ": 8
    },
    {
      "absoluteTime": 4800,
      "seconds": 6.5395,
      "numerator": 4,
      "denominator": 2,
      "click": 24,
      "notesQ": 8
    }
  ],
  "startTime": 0,
  "duration": 202.59234760416624,
  "tracks": [
    {
      "startTime": 0,
      "duration": 202.59234760416624,
      "length": 451,
      "notes": [
        {
          "name": "E6",
          "midi": 88,
          "time": 0,
          "velocity": 0.25984251968503935,
          "duration": 0.15395072916666666
        },
        {
          "name": "A5",
          "midi": 81,
          "time": 0.1634875,
          "velocity": 0.25984251968503935,
          "duration": 0.15395072916666663
        },
        {
          "name": "D6",
          "midi": 86,
          "time": 0.32697499999999996,
          "velocity": 0.25984251968503935,
          "duration": 0.30926385416666663
        },
        {
          "name": "A5",
          "midi": 81,
          "time": 0.6539499999999999,
          "velocity": 0.25984251968503935,
          "duration": 3.758850104166667
        },
        {
          "name": "C#6",
          "midi": 85,
          "time": 0.6634867708333333,
          "velocity": 0.25984251968503935,
          "duration": 3.7479509375
        },
        {
          "name": "B5",
          "midi": 83,
          "time": 4.57765,
          "velocity": 0.25984251968503935,
          "duration": 4.347405104166667
        },
        {
          "name": "A4",
          "midi": 69,
          "time": 27.4659,
          "velocity": 0.5039370078740157,
          "duration": 1.3065376041666674
        },
        {
          "name": "E5",
          "midi": 76,
          "time": 27.4659,
          "velocity": 0.5039370078740157,
          "duration": 1.3065376041666674
        },
        {
          "name": "A4",
          "midi": 69,
          "time": 28.7738,
          "velocity": 0.5039370078740157,
          "duration": 0.4359666666666655
        },
        {
          "name": "C#5",
          "midi": 73,
          "time": 28.7738,
          "velocity": 0.5039370078740157,
          "duration": 0.6539499999999983
        },
        {
          "name": "A4",
          "midi": 69,
          "time": 30.081699999999998,
          "velocity": 0.5039370078740157,
          "duration": 0.6525876041666656
        },
        {
          "name": "D5",
          "midi": 74,
          "time": 30.081699999999998,
          "velocity": 0.5039370078740157,
          "duration": 0.6525876041666656
        },
        {
          "name": "C#5",
          "midi": 73,
          "time": 30.735649999999996,
          "velocity": 0.5039370078740157,
          "duration": 0.6525876041666656
        },
        {
          "name": "B4",
          "midi": 71,
          "time": 31.389599999999994,
          "velocity": 0.5039370078740157,
          "duration": 0.6525876041666692
        },
        {
          "name": "A4",
          "midi": 69,
          "time": 32.043549999999996,
          "velocity": 0.5039370078740157,
          "duration": 0.6525876041666692
        },
        {
          "name": "A4",
          "midi": 69,
          "time": 32.6975,
          "velocity": 0.5039370078740157,
          "duration": 0.6525876041666692
        },
        {
          "name": "D5",
          "midi": 74,
          "time": 32.6975,
          "velocity": 0.5039370078740157,
          "duration": 0.6525876041666692
        },
        {
          "name": "A4",
          "midi": 69,
          "time": 33.35145,
          "velocity": 0.5039370078740157,
          "duration": 0.871933333333331
        },
        {
          "name": "C#5",
          "midi": 73,
          "time": 33.35145,
          "velocity": 0.5039370078740157,
          "duration": 1.2411426041666616
        },
        {
          "name": "A4",
          "midi": 69,
          "time": 37.9291,
          "velocity": 0.5039370078740157,
          "duration": 1.3065376041666639
        },
        {
          "name": "E5",
          "midi": 76,
          "time": 37.9291,
          "velocity": 0.5039370078740157,
          "duration": 1.3065376041666639
        },
        {
          "name": "A4",
          "midi": 69,
          "time": 39.236999999999995,
          "velocity": 0.5039370078740157,
          "duration": 0.4359666666666655
        },
        {
          "name": "C#5",
          "midi": 73,
          "time": 39.236999999999995,
          "velocity": 0.5039370078740157,
          "duration": 0.6539500000000018
        },
        {
          "name": "A4",
          "midi": 69,
          "time": 40.32691666666666,
          "velocity": 0.5039370078740157,
          "duration": 0.21662093749999656
        },
        {
          "name": "D5",
          "midi": 74,
          "time": 40.54489999999999,
          "velocity": 0.5039370078740157,
          "duration": 0.6525876041666692
        },
        {
          "name": "C#5",
          "midi": 73,
          "time": 41.19884999999999,
          "velocity": 0.5039370078740157,
          "duration": 0.43460427083333286
        },
        {
          "name": "B4",
          "midi": 71,
          "time": 41.63481666666666,
          "velocity": 0.5039370078740157,
          "duration": 0.21662093749999656
        },
        {
          "name": "A4",
          "midi": 69,
          "time": 41.85279999999999,
          "velocity": 0.5039370078740157,
          "duration": 0.6525876041666692
        },
        {
          "name": "A4",
          "midi": 69,
          "time": 42.50674999999999,
          "velocity": 0.5039370078740157,
          "duration": 0.6525876041666692
        },
        {
          "name": "A4",
          "midi": 69,
          "time": 43.16069999999999,
          "velocity": 0.5039370078740157,
          "duration": 0.6525876041666692
        },
        {
          "name": "D5",
          "midi": 74,
          "time": 43.16069999999999,
          "velocity": 0.5039370078740157,
          "duration": 0.6525876041666692
        },
        {
          "name": "A4",
          "midi": 69,
          "time": 43.81464999999999,
          "velocity": 0.5039370078740157,
          "duration": 0.871933333333331
        },
        {
          "name": "C#5",
          "midi": 73,
          "time": 43.81464999999999,
          "velocity": 0.5039370078740157,
          "duration": 1.2411426041666616
        },
        {
          "name": "C#5",
          "midi": 73,
          "time": 47.95633333333332,
          "velocity": 0.5039370078740157,
          "duration": 0.21662093749999656
        },
        {
          "name": "D5",
          "midi": 74,
          "time": 48.17431666666665,
          "velocity": 0.5039370078740157,
          "duration": 0.21662093749999656
        },
        {
          "name": "C#5",
          "midi": 73,
          "time": 48.39229999999998,
          "velocity": 0.5039370078740157,
          "duration": 0.6525876041666692
        },
        {
          "name": "E5",
          "midi": 76,
          "time": 48.39229999999998,
          "velocity": 0.5039370078740157,
          "duration": 0.6525876041666692
        },
        {
          "name": "C#5",
          "midi": 73,
          "time": 49.264233333333316,
          "velocity": 0.5039370078740157,
          "duration": 0.21662093749999656
        },
        {
          "name": "D5",
          "midi": 74,
          "time": 49.482216666666645,
          "velocity": 0.5039370078740157,
          "duration": 0.21662093749999656
        },
        {
          "name": "C#5",
          "midi": 73,
          "time": 49.700199999999974,
          "velocity": 0.5039370078740157,
          "duration": 0.6198901041666645
        },
        {
          "name": "E5",
          "midi": 76,
          "time": 49.700199999999974,
          "velocity": 0.5039370078740157,
          "duration": 0.6198901041666645
        },
        {
          "name": "C#5",
          "midi": 73,
          "time": 51.00809999999997,
          "velocity": 0.5039370078740157,
          "duration": 0.43460427083333286
        },
        {
          "name": "F#5",
          "midi": 78,
          "time": 51.00809999999997,
          "velocity": 0.5039370078740157,
          "duration": 0.43460427083333286
        },
        {
          "name": "E5",
          "midi": 76,
          "time": 51.444066666666636,
          "velocity": 0.5039370078740157,
          "duration": 0.21662093749999656
        },
        {
          "name": "D5",
          "midi": 74,
          "time": 51.662049999999965,
          "velocity": 0.5039370078740157,
          "duration": 0.43460427083333286
        },
        {
          "name": "C#5",
          "midi": 73,
          "time": 52.09801666666663,
          "velocity": 0.5039370078740157,
          "duration": 0.21662093749999656
        },
        {
          "name": "C#5",
          "midi": 73,
          "time": 52.31599999999996,
          "velocity": 0.5039370078740157,
          "duration": 0.6525876041666692
        },
        {
          "name": "D5",
          "midi": 74,
          "time": 52.96994999999996,
          "velocity": 0.5039370078740157,
          "duration": 0.43460427083333286
        },
        {
          "name": "C#5",
          "midi": 73,
          "time": 53.40591666666663,
          "velocity": 0.5039370078740157,
          "duration": 0.6525876041666692
        },
        {
          "name": "C#5",
          "midi": 73,
          "time": 54.05986666666663,
          "velocity": 0.5039370078740157,
          "duration": 0.43460427083333286
        },
        {
          "name": "D5",
          "midi": 74,
          "time": 54.495833333333294,
          "velocity": 0.5039370078740157,
          "duration": 0.21662093749999656
        },
        {
          "name": "C#5",
          "midi": 73,
          "time": 54.713816666666624,
          "velocity": 0.5039370078740157,
          "duration": 0.21662093749999656
        },
        {
          "name": "C#5",
          "midi": 73,
          "time": 54.93179999999995,
          "velocity": 0.5039370078740157,
          "duration": 0.6525876041666692
        },
        {
          "name": "D5",
          "midi": 74,
          "time": 55.80373333333329,
          "velocity": 0.5039370078740157,
          "duration": 0.21662093749999656
        },
        {
          "name": "C#5",
          "midi": 73,
          "time": 56.02171666666662,
          "velocity": 0.5039370078740157,
          "duration": 0.21662093749999656
        },
        {
          "name": "C#5",
          "midi": 73,
          "time": 56.23969999999995,
          "velocity": 0.5039370078740157,
          "duration": 0.21662093749999656
        },
        {
          "name": "B4",
          "midi": 71,
          "time": 56.45768333333328,
          "velocity": 0.4645669291338583,
          "duration": 0.21662093749999656
        },
        {
          "name": "A4",
          "midi": 69,
          "time": 56.67566666666661,
          "velocity": 0.4251968503937008,
          "duration": 0.8378734375000008
        },
        {
          "name": "F#5",
          "midi": 78,
          "time": 58.41953333333328,
          "velocity": 0.6299212598425197,
          "duration": 0.20572177083333543
        },
        {
          "name": "A5",
          "midi": 81,
          "time": 58.41953333333328,
          "velocity": 0.6299212598425197,
          "duration": 0.20572177083333543
        },
        {
          "name": "B5",
          "midi": 83,
          "time": 58.63751666666661,
          "velocity": 0.6929133858267716,
          "duration": 0.20572177083333543
        },
        {
          "name": "E5",
          "midi": 76,
          "time": 58.85549999999995,
          "velocity": 0.7559055118110236,
          "duration": 0.6198901041666645
        },
        {
          "name": "A5",
          "midi": 81,
          "time": 58.85549999999995,
          "velocity": 0.7559055118110236,
          "duration": 0.6198901041666645
        },
        {
          "name": "C#6",
          "midi": 85,
          "time": 58.85549999999995,
          "velocity": 0.7559055118110236,
          "duration": 0.6198901041666645
        },
        {
          "name": "F#5",
          "midi": 78,
          "time": 59.72743333333328,
          "velocity": 0.7559055118110236,
          "duration": 0.20572177083333543
        },
        {
          "name": "A5",
          "midi": 81,
          "time": 59.72743333333328,
          "velocity": 0.7559055118110236,
          "duration": 0.20572177083333543
        },
        {
          "name": "B5",
          "midi": 83,
          "time": 59.94541666666662,
          "velocity": 0.7559055118110236,
          "duration": 0.20572177083333543
        },
        {
          "name": "E5",
          "midi": 76,
          "time": 60.16339999999995,
          "velocity": 0.7559055118110236,
          "duration": 0.20572177083333543
        },
        {
          "name": "A5",
          "midi": 81,
          "time": 60.16339999999995,
          "velocity": 0.7559055118110236,
          "duration": 0.20572177083333543
        },
        {
          "name": "C#6",
          "midi": 85,
          "time": 60.16339999999995,
          "velocity": 0.7559055118110236,
          "duration": 0.20572177083333543
        },
        {
          "name": "B5",
          "midi": 83,
          "time": 60.38138333333329,
          "velocity": 0.7559055118110236,
          "duration": 0.20572177083333543
        },
        {
          "name": "A5",
          "midi": 81,
          "time": 60.599366666666626,
          "velocity": 0.7559055118110236,
          "duration": 0.20572177083333543
        },
        {
          "name": "E5",
          "midi": 76,
          "time": 60.81734999999996,
          "velocity": 0.7559055118110236,
          "duration": 0.4128059375000035
        },
        {
          "name": "A5",
          "midi": 81,
          "time": 60.81734999999996,
          "velocity": 0.7559055118110236,
          "duration": 0.4128059375000035
        },
        {
          "name": "A5",
          "midi": 81,
          "time": 61.253316666666635,
          "velocity": 0.7559055118110236,
          "duration": 0.20572177083333543
        },
        {
          "name": "F#5",
          "midi": 78,
          "time": 61.47129999999997,
          "velocity": 0.7559055118110236,
          "duration": 0.4128059375000035
        },
        {
          "name": "A5",
          "midi": 81,
          "time": 61.47129999999997,
          "velocity": 0.7559055118110236,
          "duration": 0.4128059375000035
        },
        {
          "name": "D6",
          "midi": 86,
          "time": 61.47129999999997,
          "velocity": 0.7559055118110236,
          "duration": 0.4128059375000035
        },
        {
          "name": "A5",
          "midi": 81,
          "time": 61.907266666666644,
          "velocity": 0.7559055118110236,
          "duration": 0.4128059375000035
        },
        {
          "name": "C#6",
          "midi": 85,
          "time": 61.907266666666644,
          "velocity": 0.7559055118110236,
          "duration": 0.4128059375000035
        },
        {
          "name": "G#5",
          "midi": 80,
          "time": 62.343233333333316,
          "velocity": 0.7559055118110236,
          "duration": 0.20572177083333543
        },
        {
          "name": "B5",
          "midi": 83,
          "time": 62.343233333333316,
          "velocity": 0.7559055118110236,
          "duration": 0.20572177083333543
        },
        {
          "name": "A5",
          "midi": 81,
          "time": 62.56121666666665,
          "velocity": 0.7559055118110236,
          "duration": 0.20572177083333543
        },
        {
          "name": "E5",
          "midi": 76,
          "time": 62.77919999999999,
          "velocity": 0.7559055118110236,
          "duration": 0.6198901041666645
        },
        {
          "name": "A5",
          "midi": 81,
          "time": 62.77919999999999,
          "velocity": 0.7559055118110236,
          "duration": 0.6198901041666645
        },
        {
          "name": "B5",
          "midi": 83,
          "time": 63.43314999999998,
          "velocity": 0.7559055118110236,
          "duration": 0.4128059375000035
        },
        {
          "name": "F#5",
          "midi": 78,
          "time": 63.869116666666656,
          "velocity": 0.7559055118110236,
          "duration": 0.6198901041666716
        },
        {
          "name": "A5",
          "midi": 81,
          "time": 63.869116666666656,
          "velocity": 0.7559055118110236,
          "duration": 0.6198901041666716
        },
        {
          "name": "A5",
          "midi": 81,
          "time": 64.52306666666667,
          "velocity": 0.7559055118110236,
          "duration": 0.4128059374999964
        },
        {
          "name": "B5",
          "midi": 83,
          "time": 64.95903333333332,
          "velocity": 0.7559055118110236,
          "duration": 0.20572177083333543
        },
        {
          "name": "A5",
          "midi": 81,
          "time": 65.17701666666666,
          "velocity": 0.7559055118110236,
          "duration": 0.20572177083333543
        },
        {
          "name": "E5",
          "midi": 76,
          "time": 65.395,
          "velocity": 0.7559055118110236,
          "duration": 0.6198901041666716
        },
        {
          "name": "A5",
          "midi": 81,
          "time": 65.395,
          "velocity": 0.7559055118110236,
          "duration": 0.6198901041666716
        },
        {
          "name": "B5",
          "midi": 83,
          "time": 66.26693333333334,
          "velocity": 0.7559055118110236,
          "duration": 0.20572177083333543
        },
        {
          "name": "A5",
          "midi": 81,
          "time": 66.48491666666668,
          "velocity": 0.7559055118110236,
          "duration": 0.20572177083333543
        },
        {
          "name": "D5",
          "midi": 74,
          "time": 66.70290000000001,
          "velocity": 0.7559055118110236,
          "duration": 0.20572177083333543
        },
        {
          "name": "A5",
          "midi": 81,
          "time": 66.70290000000001,
          "velocity": 0.7559055118110236,
          "duration": 0.20572177083333543
        },
        {
          "name": "G#5",
          "midi": 80,
          "time": 66.92088333333335,
          "velocity": 0.7559055118110236,
          "duration": 0.20572177083333543
        },
        {
          "name": "F#5",
          "midi": 78,
          "time": 67.13886666666669,
          "velocity": 0.7559055118110236,
          "duration": 0.20572177083333543
        },
        {
          "name": "F#5",
          "midi": 78,
          "time": 68.66475000000003,
          "velocity": 0.5905511811023622,
          "duration": 0.4128059374999964
        },
        {
          "name": "E5",
          "midi": 76,
          "time": 69.10071666666668,
          "velocity": 0.5354330708661418,
          "duration": 0.6198901041666716
        },
        {
          "name": "B4",
          "midi": 71,
          "time": 69.7546666666667,
          "velocity": 0.5039370078740157,
          "duration": 0.8269742708333325
        },
        {
          "name": "E5",
          "midi": 76,
          "time": 69.7546666666667,
          "velocity": 0.5039370078740157,
          "duration": 0.8269742708333325
        },
        {
          "name": "B4",
          "midi": 71,
          "time": 73.24240000000003,
          "velocity": 0.5039370078740157,
          "duration": 0.6198901041666716
        },
        {
          "name": "D5",
          "midi": 74,
          "time": 73.24240000000003,
          "velocity": 0.5039370078740157,
          "duration": 0.6198901041666716
        },
        {
          "name": "A4",
          "midi": 69,
          "time": 73.89635000000004,
          "velocity": 0.6929133858267716,
          "duration": 0.6198901041666716
        },
        {
          "name": "C#5",
          "midi": 73,
          "time": 73.89635000000004,
          "velocity": 0.6929133858267716,
          "duration": 0.6198901041666716
        },
        {
          "name": "A3",
          "midi": 57,
          "time": 74.55030000000005,
          "velocity": 0.8818897637795275,
          "duration": 0.6198901041666716
        },
        {
          "name": "C#4",
          "midi": 61,
          "time": 74.55030000000005,
          "velocity": 0.8818897637795275,
          "duration": 0.6198901041666716
        },
        {
          "name": "F#4",
          "midi": 66,
          "time": 74.55030000000005,
          "velocity": 0.8818897637795275,
          "duration": 0.6198901041666716
        },
        {
          "name": "A3",
          "midi": 57,
          "time": 75.20425000000006,
          "velocity": 0.8818897637795275,
          "duration": 0.4128059374999964
        },
        {
          "name": "E4",
          "midi": 64,
          "time": 75.20425000000006,
          "velocity": 0.8818897637795275,
          "duration": 0.4128059374999964
        },
        {
          "name": "E4",
          "midi": 64,
          "time": 75.64021666666672,
          "velocity": 0.8818897637795275,
          "duration": 0.20572177083333543
        },
        {
          "name": "E4",
          "midi": 64,
          "time": 76.07618333333339,
          "velocity": 0.8818897637795275,
          "duration": 0.20572177083333543
        },
        {
          "name": "A4",
          "midi": 69,
          "time": 76.07618333333339,
          "velocity": 0.8818897637795275,
          "duration": 0.20572177083333543
        },
        {
          "name": "C#4",
          "midi": 61,
          "time": 76.29416666666673,
          "velocity": 0.8818897637795275,
          "duration": 0.20572177083333543
        },
        {
          "name": "E4",
          "midi": 64,
          "time": 76.51215000000006,
          "velocity": 0.8818897637795275,
          "duration": 0.4128059374999964
        },
        {
          "name": "A4",
          "midi": 69,
          "time": 76.51215000000006,
          "velocity": 0.8818897637795275,
          "duration": 0.4128059374999964
        },
        {
          "name": "C#5",
          "midi": 73,
          "time": 76.51215000000006,
          "velocity": 0.8818897637795275,
          "duration": 0.4128059374999964
        },
        {
          "name": "A3",
          "midi": 57,
          "time": 76.94811666666672,
          "velocity": 0.8818897637795275,
          "duration": 0.8269742708333325
        },
        {
          "name": "D4",
          "midi": 62,
          "time": 76.94811666666672,
          "velocity": 0.8818897637795275,
          "duration": 0.8269742708333325
        },
        {
          "name": "A3",
          "midi": 57,
          "time": 77.82005000000005,
          "velocity": 0.8818897637795275,
          "duration": 0.4128059374999964
        },
        {
          "name": "E4",
          "midi": 64,
          "time": 77.82005000000005,
          "velocity": 0.8818897637795275,
          "duration": 0.4128059374999964
        },
        {
          "name": "E4",
          "midi": 64,
          "time": 78.25601666666671,
          "velocity": 0.8818897637795275,
          "duration": 0.8269742708333325
        },
        {
          "name": "A3",
          "midi": 57,
          "time": 79.12795000000004,
          "velocity": 0.8818897637795275,
          "duration": 0.4128059374999964
        },
        {
          "name": "E4",
          "midi": 64,
          "time": 79.12795000000004,
          "velocity": 0.8818897637795275,
          "duration": 0.4128059374999964
        },
        {
          "name": "E4",
          "midi": 64,
          "time": 79.5639166666667,
          "velocity": 0.8818897637795275,
          "duration": 0.20572177083333543
        },
        {
          "name": "A3",
          "midi": 57,
          "time": 79.78190000000004,
          "velocity": 0.8818897637795275,
          "duration": 0.6198901041666716
        },
        {
          "name": "C#4",
          "midi": 61,
          "time": 79.78190000000004,
          "velocity": 0.8818897637795275,
          "duration": 0.6198901041666716
        },
        {
          "name": "A3",
          "midi": 57,
          "time": 80.43585000000004,
          "velocity": 0.8818897637795275,
          "duration": 0.4128059374999964
        },
        {
          "name": "E4",
          "midi": 64,
          "time": 80.43585000000004,
          "velocity": 0.8818897637795275,
          "duration": 0.4128059374999964
        },
        {
          "name": "E4",
          "midi": 64,
          "time": 80.8718166666667,
          "velocity": 0.8818897637795275,
          "duration": 0.20572177083333543
        },
        {
          "name": "E4",
          "midi": 64,
          "time": 81.30778333333338,
          "velocity": 0.8818897637795275,
          "duration": 0.20572177083333543
        },
        {
          "name": "A4",
          "midi": 69,
          "time": 81.30778333333338,
          "velocity": 0.8818897637795275,
          "duration": 0.20572177083333543
        },
        {
          "name": "C#4",
          "midi": 61,
          "time": 81.52576666666671,
          "velocity": 0.8818897637795275,
          "duration": 0.20572177083333543
        },
        {
          "name": "E4",
          "midi": 64,
          "time": 81.74375000000005,
          "velocity": 0.8818897637795275,
          "duration": 0.4128059374999964
        },
        {
          "name": "A4",
          "midi": 69,
          "time": 81.74375000000005,
          "velocity": 0.8818897637795275,
          "duration": 0.4128059374999964
        },
        {
          "name": "C#5",
          "midi": 73,
          "time": 81.74375000000005,
          "velocity": 0.8818897637795275,
          "duration": 0.4128059374999964
        },
        {
          "name": "A3",
          "midi": 57,
          "time": 82.1797166666667,
          "velocity": 0.8818897637795275,
          "duration": 0.4128059374999964
        },
        {
          "name": "D4",
          "midi": 62,
          "time": 82.1797166666667,
          "velocity": 0.8818897637795275,
          "duration": 0.4128059374999964
        },
        {
          "name": "A3",
          "midi": 57,
          "time": 82.61568333333337,
          "velocity": 0.8818897637795275,
          "duration": 0.20572177083333543
        },
        {
          "name": "F#3",
          "midi": 54,
          "time": 82.8336666666667,
          "velocity": 0.8818897637795275,
          "duration": 0.20572177083333543
        },
        {
          "name": "A3",
          "midi": 57,
          "time": 83.05165000000004,
          "velocity": 0.8818897637795275,
          "duration": 0.4128059374999964
        },
        {
          "name": "E4",
          "midi": 64,
          "time": 83.05165000000004,
          "velocity": 0.8818897637795275,
          "duration": 0.4128059374999964
        },
        {
          "name": "E4",
          "midi": 64,
          "time": 83.4876166666667,
          "velocity": 0.8818897637795275,
          "duration": 0.4128059374999964
        },
        {
          "name": "A3",
          "midi": 57,
          "time": 83.92358333333335,
          "velocity": 0.8818897637795275,
          "duration": 0.20572177083333543
        },
        {
          "name": "F#3",
          "midi": 54,
          "time": 84.14156666666669,
          "velocity": 0.8818897637795275,
          "duration": 0.20572177083333543
        },
        {
          "name": "A3",
          "midi": 57,
          "time": 84.35955000000003,
          "velocity": 0.8818897637795275,
          "duration": 0.4128059374999964
        },
        {
          "name": "E4",
          "midi": 64,
          "time": 84.35955000000003,
          "velocity": 0.8818897637795275,
          "duration": 0.4128059374999964
        },
        {
          "name": "E4",
          "midi": 64,
          "time": 84.79551666666669,
          "velocity": 0.8818897637795275,
          "duration": 0.20572177083333543
        },
        {
          "name": "A3",
          "midi": 57,
          "time": 85.01350000000002,
          "velocity": 0.8818897637795275,
          "duration": 0.6198901041666716
        },
        {
          "name": "C#4",
          "midi": 61,
          "time": 85.01350000000002,
          "velocity": 0.8818897637795275,
          "duration": 0.6198901041666716
        },
        {
          "name": "F#4",
          "midi": 66,
          "time": 85.01350000000002,
          "velocity": 0.8818897637795275,
          "duration": 0.6198901041666716
        },
        {
          "name": "A3",
          "midi": 57,
          "time": 85.66745000000003,
          "velocity": 0.8818897637795275,
          "duration": 0.4128059374999964
        },
        {
          "name": "E4",
          "midi": 64,
          "time": 85.66745000000003,
          "velocity": 0.8818897637795275,
          "duration": 0.4128059374999964
        },
        {
          "name": "E4",
          "midi": 64,
          "time": 86.10341666666669,
          "velocity": 0.8818897637795275,
          "duration": 0.20572177083333543
        },
        {
          "name": "E4",
          "midi": 64,
          "time": 86.53938333333336,
          "velocity": 0.8818897637795275,
          "duration": 0.20572177083333543
        },
        {
          "name": "A4",
          "midi": 69,
          "time": 86.53938333333336,
          "velocity": 0.8818897637795275,
          "duration": 0.20572177083333543
        },
        {
          "name": "C#4",
          "midi": 61,
          "time": 86.7573666666667,
          "velocity": 0.8818897637795275,
          "duration": 0.20572177083333543
        },
        {
          "name": "E4",
          "midi": 64,
          "time": 86.97535000000003,
          "velocity": 0.8818897637795275,
          "duration": 0.4128059374999964
        },
        {
          "name": "A4",
          "midi": 69,
          "time": 86.97535000000003,
          "velocity": 0.8818897637795275,
          "duration": 0.4128059374999964
        },
        {
          "name": "C#5",
          "midi": 73,
          "time": 86.97535000000003,
          "velocity": 0.8818897637795275,
          "duration": 0.4128059374999964
        },
        {
          "name": "A3",
          "midi": 57,
          "time": 87.41131666666669,
          "velocity": 0.8818897637795275,
          "duration": 0.8269742708333325
        },
        {
          "name": "D4",
          "midi": 62,
          "time": 87.41131666666669,
          "velocity": 0.8818897637795275,
          "duration": 0.8269742708333325
        },
        {
          "name": "A3",
          "midi": 57,
          "time": 88.28325000000002,
          "velocity": 0.8818897637795275,
          "duration": 0.4128059374999964
        },
        {
          "name": "E4",
          "midi": 64,
          "time": 88.28325000000002,
          "velocity": 0.8818897637795275,
          "duration": 0.4128059374999964
        },
        {
          "name": "E4",
          "midi": 64,
          "time": 88.71921666666668,
          "velocity": 0.8818897637795275,
          "duration": 0.8269742708333325
        },
        {
          "name": "A3",
          "midi": 57,
          "time": 89.59115000000001,
          "velocity": 0.8818897637795275,
          "duration": 0.4128059374999964
        },
        {
          "name": "E4",
          "midi": 64,
          "time": 89.59115000000001,
          "velocity": 0.8818897637795275,
          "duration": 0.4128059374999964
        },
        {
          "name": "E4",
          "midi": 64,
          "time": 90.02711666666667,
          "velocity": 0.8818897637795275,
          "duration": 0.20572177083333543
        },
        {
          "name": "A3",
          "midi": 57,
          "time": 90.24510000000001,
          "velocity": 0.8818897637795275,
          "duration": 0.6198901041666716
        },
        {
          "name": "C#4",
          "midi": 61,
          "time": 90.24510000000001,
          "velocity": 0.8818897637795275,
          "duration": 0.6198901041666716
        },
        {
          "name": "A3",
          "midi": 57,
          "time": 90.89905000000002,
          "velocity": 0.8818897637795275,
          "duration": 0.4128059374999964
        },
        {
          "name": "E4",
          "midi": 64,
          "time": 90.89905000000002,
          "velocity": 0.8818897637795275,
          "duration": 0.4128059374999964
        },
        {
          "name": "E4",
          "midi": 64,
          "time": 91.33501666666668,
          "velocity": 0.8818897637795275,
          "duration": 0.20572177083333543
        },
        {
          "name": "E4",
          "midi": 64,
          "time": 91.77098333333335,
          "velocity": 0.8818897637795275,
          "duration": 0.20572177083333543
        },
        {
          "name": "A4",
          "midi": 69,
          "time": 91.77098333333335,
          "velocity": 0.8818897637795275,
          "duration": 0.20572177083333543
        },
        {
          "name": "C#4",
          "midi": 61,
          "time": 91.98896666666668,
          "velocity": 0.8818897637795275,
          "duration": 0.20572177083333543
        },
        {
          "name": "E4",
          "midi": 64,
          "time": 92.20695000000002,
          "velocity": 0.8818897637795275,
          "duration": 0.4128059374999964
        },
        {
          "name": "A4",
          "midi": 69,
          "time": 92.20695000000002,
          "velocity": 0.8818897637795275,
          "duration": 0.4128059374999964
        },
        {
          "name": "C#5",
          "midi": 73,
          "time": 92.20695000000002,
          "velocity": 0.8818897637795275,
          "duration": 0.4128059374999964
        },
        {
          "name": "A3",
          "midi": 57,
          "time": 92.64291666666668,
          "velocity": 0.8818897637795275,
          "duration": 0.4128059374999964
        },
        {
          "name": "D4",
          "midi": 62,
          "time": 92.64291666666668,
          "velocity": 0.8818897637795275,
          "duration": 0.4128059374999964
        },
        {
          "name": "A3",
          "midi": 57,
          "time": 93.07888333333334,
          "velocity": 0.8818897637795275,
          "duration": 0.20572177083333543
        },
        {
          "name": "F#3",
          "midi": 54,
          "time": 93.29686666666667,
          "velocity": 0.8818897637795275,
          "duration": 0.20572177083333543
        },
        {
          "name": "E4",
          "midi": 64,
          "time": 93.51485000000001,
          "velocity": 0.8818897637795275,
          "duration": 0.4128059374999964
        },
        {
          "name": "E4",
          "midi": 64,
          "time": 93.95081666666667,
          "velocity": 0.8818897637795275,
          "duration": 0.8269742708333325
        },
        {
          "name": "E4",
          "midi": 64,
          "time": 94.82275,
          "velocity": 0.7559055118110236,
          "duration": 0.4128059374999964
        },
        {
          "name": "E4",
          "midi": 64,
          "time": 95.25871666666666,
          "velocity": 0.6771653543307087,
          "duration": 0.21662093749999656
        },
        {
          "name": "A4",
          "midi": 69,
          "time": 95.4767,
          "velocity": 0.6299212598425197,
          "duration": 1.2411426041666687
        },
        {
          "name": "E5",
          "midi": 76,
          "time": 95.4767,
          "velocity": 0.6299212598425197,
          "duration": 1.2411426041666687
        },
        {
          "name": "A4",
          "midi": 69,
          "time": 96.7846,
          "velocity": 0.6299212598425197,
          "duration": 0.4359666666666726
        },
        {
          "name": "C#5",
          "midi": 73,
          "time": 96.7846,
          "velocity": 0.6299212598425197,
          "duration": 0.6539500000000089
        },
        {
          "name": "A4",
          "midi": 69,
          "time": 98.0925,
          "velocity": 0.6299212598425197,
          "duration": 0.8269742708333325
        },
        {
          "name": "D5",
          "midi": 74,
          "time": 98.0925,
          "velocity": 0.6299212598425197,
          "duration": 0.8269742708333325
        },
        {
          "name": "C#5",
          "midi": 73,
          "time": 98.96443333333333,
          "velocity": 0.6299212598425197,
          "duration": 0.20572177083333543
        },
        {
          "name": "B4",
          "midi": 71,
          "time": 99.18241666666667,
          "velocity": 0.6299212598425197,
          "duration": 0.20572177083333543
        },
        {
          "name": "G#4",
          "midi": 68,
          "time": 99.4004,
          "velocity": 0.6299212598425197,
          "duration": 0.6198901041666716
        },
        {
          "name": "B4",
          "midi": 71,
          "time": 99.4004,
          "velocity": 0.6299212598425197,
          "duration": 0.6198901041666716
        },
        {
          "name": "A4",
          "midi": 69,
          "time": 100.05435000000001,
          "velocity": 0.6299212598425197,
          "duration": 0.6198901041666716
        },
        {
          "name": "A4",
          "midi": 69,
          "time": 100.70830000000002,
          "velocity": 0.6299212598425197,
          "duration": 0.6198901041666716
        },
        {
          "name": "D5",
          "midi": 74,
          "time": 100.70830000000002,
          "velocity": 0.6299212598425197,
          "duration": 0.6198901041666716
        },
        {
          "name": "A4",
          "midi": 69,
          "time": 101.36225000000003,
          "velocity": 0.6299212598425197,
          "duration": 0.871933333333331
        },
        {
          "name": "C#5",
          "midi": 73,
          "time": 101.36225000000003,
          "velocity": 0.6299212598425197,
          "duration": 1.2411426041666687
        },
        {
          "name": "A4",
          "midi": 69,
          "time": 105.93990000000004,
          "velocity": 0.6299212598425197,
          "duration": 1.2411426041666687
        },
        {
          "name": "E5",
          "midi": 76,
          "time": 105.93990000000004,
          "velocity": 0.6299212598425197,
          "duration": 1.2411426041666687
        },
        {
          "name": "A4",
          "midi": 69,
          "time": 107.24780000000004,
          "velocity": 0.6299212598425197,
          "duration": 0.4359666666666726
        },
        {
          "name": "C#5",
          "midi": 73,
          "time": 107.24780000000004,
          "velocity": 0.6299212598425197,
          "duration": 0.6539500000000089
        },
        {
          "name": "A4",
          "midi": 69,
          "time": 108.55570000000004,
          "velocity": 0.6299212598425197,
          "duration": 0.8269742708333325
        },
        {
          "name": "D5",
          "midi": 74,
          "time": 108.55570000000004,
          "velocity": 0.6299212598425197,
          "duration": 0.8269742708333325
        },
        {
          "name": "C#5",
          "midi": 73,
          "time": 109.42763333333338,
          "velocity": 0.6299212598425197,
          "duration": 0.20572177083333543
        },
        {
          "name": "B4",
          "midi": 71,
          "time": 109.64561666666671,
          "velocity": 0.6299212598425197,
          "duration": 0.20572177083333543
        },
        {
          "name": "G#4",
          "midi": 68,
          "time": 109.86360000000005,
          "velocity": 0.6299212598425197,
          "duration": 0.6198901041666716
        },
        {
          "name": "B4",
          "midi": 71,
          "time": 109.86360000000005,
          "velocity": 0.6299212598425197,
          "duration": 0.6198901041666716
        },
        {
          "name": "A4",
          "midi": 69,
          "time": 110.51755000000006,
          "velocity": 0.6299212598425197,
          "duration": 0.6198901041666716
        },
        {
          "name": "A4",
          "midi": 69,
          "time": 111.17150000000007,
          "velocity": 0.6299212598425197,
          "duration": 0.4128059374999964
        },
        {
          "name": "D5",
          "midi": 74,
          "time": 111.17150000000007,
          "velocity": 0.6299212598425197,
          "duration": 0.4128059374999964
        },
        {
          "name": "C#5",
          "midi": 73,
          "time": 111.60746666666672,
          "velocity": 0.6299212598425197,
          "duration": 0.20572177083333543
        },
        {
          "name": "A4",
          "midi": 69,
          "time": 111.82545000000006,
          "velocity": 0.6299212598425197,
          "duration": 0.871933333333331
        },
        {
          "name": "C#5",
          "midi": 73,
          "time": 111.82545000000006,
          "velocity": 0.6299212598425197,
          "duration": 1.2411426041666687
        },
        {
          "name": "C#5",
          "midi": 73,
          "time": 115.9671333333334,
          "velocity": 0.6299212598425197,
          "duration": 0.20572177083333543
        },
        {
          "name": "D5",
          "midi": 74,
          "time": 116.18511666666673,
          "velocity": 0.6299212598425197,
          "duration": 0.20572177083333543
        },
        {
          "name": "C#5",
          "midi": 73,
          "time": 116.40310000000007,
          "velocity": 0.6299212598425197,
          "duration": 0.6198901041666716
        },
        {
          "name": "E5",
          "midi": 76,
          "time": 116.40310000000007,
          "velocity": 0.6299212598425197,
          "duration": 0.6198901041666716
        },
        {
          "name": "C#5",
          "midi": 73,
          "time": 117.27503333333341,
          "velocity": 0.6299212598425197,
          "duration": 0.20572177083333543
        },
        {
          "name": "D5",
          "midi": 74,
          "time": 117.49301666666675,
          "velocity": 0.6299212598425197,
          "duration": 0.20572177083333543
        },
        {
          "name": "C#5",
          "midi": 73,
          "time": 117.71100000000008,
          "velocity": 0.6299212598425197,
          "duration": 0.6198901041666716
        },
        {
          "name": "E5",
          "midi": 76,
          "time": 117.71100000000008,
          "velocity": 0.6299212598425197,
          "duration": 0.6198901041666716
        },
        {
          "name": "C#5",
          "midi": 73,
          "time": 119.01890000000009,
          "velocity": 0.6299212598425197,
          "duration": 0.4128059374999964
        },
        {
          "name": "F#5",
          "midi": 78,
          "time": 119.01890000000009,
          "velocity": 0.6299212598425197,
          "duration": 0.4128059374999964
        },
        {
          "name": "E5",
          "midi": 76,
          "time": 119.45486666666675,
          "velocity": 0.6299212598425197,
          "duration": 0.20572177083333543
        },
        {
          "name": "D5",
          "midi": 74,
          "time": 119.67285000000008,
          "velocity": 0.6299212598425197,
          "duration": 0.4128059374999964
        },
        {
          "name": "C#5",
          "midi": 73,
          "time": 120.10881666666674,
          "velocity": 0.6299212598425197,
          "duration": 0.20572177083333543
        },
        {
          "name": "C#5",
          "midi": 73,
          "time": 120.32680000000008,
          "velocity": 0.6299212598425197,
          "duration": 0.6198901041666716
        },
        {
          "name": "D5",
          "midi": 74,
          "time": 120.98075000000009,
          "velocity": 0.6299212598425197,
          "duration": 0.4128059374999964
        },
        {
          "name": "C#5",
          "midi": 73,
          "time": 121.41671666666674,
          "velocity": 0.6299212598425197,
          "duration": 0.6198901041666716
        },
        {
          "name": "C#5",
          "midi": 73,
          "time": 122.07066666666675,
          "velocity": 0.6141732283464567,
          "duration": 0.4128059374999964
        },
        {
          "name": "D5",
          "midi": 74,
          "time": 122.50663333333341,
          "velocity": 0.5905511811023622,
          "duration": 0.20572177083333543
        },
        {
          "name": "C#5",
          "midi": 73,
          "time": 122.72461666666675,
          "velocity": 0.5826771653543307,
          "duration": 0.20572177083333543
        },
        {
          "name": "C#5",
          "midi": 73,
          "time": 122.94260000000008,
          "velocity": 0.5669291338582677,
          "duration": 0.6198901041666716
        },
        {
          "name": "D5",
          "midi": 74,
          "time": 123.81453333333343,
          "velocity": 0.5275590551181102,
          "duration": 0.20572177083333543
        },
        {
          "name": "C#5",
          "midi": 73,
          "time": 124.03251666666677,
          "velocity": 0.5196850393700787,
          "duration": 0.20572177083333543
        },
        {
          "name": "C#5",
          "midi": 73,
          "time": 124.2505000000001,
          "velocity": 0.5039370078740157,
          "duration": 0.20572177083333543
        },
        {
          "name": "B4",
          "midi": 71,
          "time": 124.46848333333344,
          "velocity": 0.5039370078740157,
          "duration": 0.20572177083333543
        },
        {
          "name": "A4",
          "midi": 69,
          "time": 124.68646666666677,
          "velocity": 0.5354330708661418,
          "duration": 0.8269742708333325
        },
        {
          "name": "F#5",
          "midi": 78,
          "time": 126.43033333333344,
          "velocity": 0.8110236220472441,
          "duration": 0.20572177083333543
        },
        {
          "name": "A5",
          "midi": 81,
          "time": 126.43033333333344,
          "velocity": 0.8110236220472441,
          "duration": 0.20572177083333543
        },
        {
          "name": "B5",
          "midi": 83,
          "time": 126.64831666666677,
          "velocity": 0.84251968503937,
          "duration": 0.20572177083333543
        },
        {
          "name": "E5",
          "midi": 76,
          "time": 126.86630000000011,
          "velocity": 0.8818897637795275,
          "duration": 0.6198901041666716
        },
        {
          "name": "A5",
          "midi": 81,
          "time": 126.86630000000011,
          "velocity": 0.8818897637795275,
          "duration": 0.6198901041666716
        },
        {
          "name": "C#6",
          "midi": 85,
          "time": 126.86630000000011,
          "velocity": 0.8818897637795275,
          "duration": 0.6198901041666716
        },
        {
          "name": "F#5",
          "midi": 78,
          "time": 127.73823333333345,
          "velocity": 0.8818897637795275,
          "duration": 0.20572177083333543
        },
        {
          "name": "A5",
          "midi": 81,
          "time": 127.73823333333345,
          "velocity": 0.8818897637795275,
          "duration": 0.20572177083333543
        },
        {
          "name": "B5",
          "midi": 83,
          "time": 127.95621666666679,
          "velocity": 0.8818897637795275,
          "duration": 0.20572177083332122
        },
        {
          "name": "E5",
          "midi": 76,
          "time": 128.1742000000001,
          "velocity": 0.8818897637795275,
          "duration": 0.21662093750001077
        },
        {
          "name": "A5",
          "midi": 81,
          "time": 128.1742000000001,
          "velocity": 0.8818897637795275,
          "duration": 0.21662093750001077
        },
        {
          "name": "C#6",
          "midi": 85,
          "time": 128.1742000000001,
          "velocity": 0.8818897637795275,
          "duration": 0.21662093750001077
        },
        {
          "name": "B5",
          "midi": 83,
          "time": 128.39218333333343,
          "velocity": 0.8818897637795275,
          "duration": 0.21662093750001077
        },
        {
          "name": "A5",
          "midi": 81,
          "time": 128.61016666666677,
          "velocity": 0.8818897637795275,
          "duration": 0.21662093750001077
        },
        {
          "name": "E5",
          "midi": 76,
          "time": 128.8281500000001,
          "velocity": 0.8818897637795275,
          "duration": 0.4128059374999964
        },
        {
          "name": "A5",
          "midi": 81,
          "time": 128.8281500000001,
          "velocity": 0.8818897637795275,
          "duration": 0.4128059374999964
        },
        {
          "name": "A5",
          "midi": 81,
          "time": 129.26411666666678,
          "velocity": 0.8818897637795275,
          "duration": 0.20572177083332122
        },
        {
          "name": "F#5",
          "midi": 78,
          "time": 129.4821000000001,
          "velocity": 0.8818897637795275,
          "duration": 0.4128059374999964
        },
        {
          "name": "A5",
          "midi": 81,
          "time": 129.4821000000001,
          "velocity": 0.8818897637795275,
          "duration": 0.4128059374999964
        },
        {
          "name": "D6",
          "midi": 86,
          "time": 129.4821000000001,
          "velocity": 0.8818897637795275,
          "duration": 0.4128059374999964
        },
        {
          "name": "A5",
          "midi": 81,
          "time": 129.91806666666676,
          "velocity": 0.8818897637795275,
          "duration": 0.4128059374999964
        },
        {
          "name": "C#6",
          "midi": 85,
          "time": 129.91806666666676,
          "velocity": 0.8818897637795275,
          "duration": 0.4128059374999964
        },
        {
          "name": "G#5",
          "midi": 80,
          "time": 130.35403333333343,
          "velocity": 0.8818897637795275,
          "duration": 0.20572177083332122
        },
        {
          "name": "B5",
          "midi": 83,
          "time": 130.35403333333343,
          "velocity": 0.8818897637795275,
          "duration": 0.20572177083332122
        },
        {
          "name": "A5",
          "midi": 81,
          "time": 130.57201666666674,
          "velocity": 0.8818897637795275,
          "duration": 0.20572177083332122
        },
        {
          "name": "E5",
          "midi": 76,
          "time": 130.79000000000005,
          "velocity": 0.8818897637795275,
          "duration": 0.6198901041666716
        },
        {
          "name": "A5",
          "midi": 81,
          "time": 130.79000000000005,
          "velocity": 0.8818897637795275,
          "duration": 0.6198901041666716
        },
        {
          "name": "G#5",
          "midi": 80,
          "time": 131.44395000000006,
          "velocity": 0.8818897637795275,
          "duration": 0.4128059374999964
        },
        {
          "name": "B5",
          "midi": 83,
          "time": 131.44395000000006,
          "velocity": 0.8818897637795275,
          "duration": 0.4128059374999964
        },
        {
          "name": "F#5",
          "midi": 78,
          "time": 131.87991666666673,
          "velocity": 0.8818897637795275,
          "duration": 0.6198901041666716
        },
        {
          "name": "A5",
          "midi": 81,
          "time": 131.87991666666673,
          "velocity": 0.8818897637795275,
          "duration": 0.6198901041666716
        },
        {
          "name": "F#5",
          "midi": 78,
          "time": 132.53386666666674,
          "velocity": 0.8818897637795275,
          "duration": 0.4128059374999964
        },
        {
          "name": "A5",
          "midi": 81,
          "time": 132.53386666666674,
          "velocity": 0.8818897637795275,
          "duration": 0.4128059374999964
        },
        {
          "name": "B5",
          "midi": 83,
          "time": 132.9698333333334,
          "velocity": 0.8818897637795275,
          "duration": 0.20572177083332122
        },
        {
          "name": "A5",
          "midi": 81,
          "time": 133.18781666666672,
          "velocity": 0.8818897637795275,
          "duration": 0.20572177083332122
        },
        {
          "name": "E5",
          "midi": 76,
          "time": 133.40580000000003,
          "velocity": 0.8818897637795275,
          "duration": 0.6198901041666716
        },
        {
          "name": "A5",
          "midi": 81,
          "time": 133.40580000000003,
          "velocity": 0.8818897637795275,
          "duration": 0.6198901041666716
        },
        {
          "name": "B5",
          "midi": 83,
          "time": 134.27773333333337,
          "velocity": 0.8818897637795275,
          "duration": 0.20572177083332122
        },
        {
          "name": "A5",
          "midi": 81,
          "time": 134.49571666666668,
          "velocity": 0.8818897637795275,
          "duration": 0.20572177083332122
        },
        {
          "name": "D5",
          "midi": 74,
          "time": 134.7137,
          "velocity": 0.8818897637795275,
          "duration": 0.20572177083332122
        },
        {
          "name": "A5",
          "midi": 81,
          "time": 134.7137,
          "velocity": 0.8818897637795275,
          "duration": 0.20572177083332122
        },
        {
          "name": "G#5",
          "midi": 80,
          "time": 134.9316833333333,
          "velocity": 0.8818897637795275,
          "duration": 0.20572177083332122
        },
        {
          "name": "D5",
          "midi": 74,
          "time": 135.1496666666666,
          "velocity": 0.8818897637795275,
          "duration": 0.8269742708333467
        },
        {
          "name": "F#5",
          "midi": 78,
          "time": 135.1496666666666,
          "velocity": 0.8818897637795275,
          "duration": 0.8269742708333467
        },
        {
          "name": "E5",
          "midi": 76,
          "time": 137.32949999999994,
          "velocity": 0.7874015748031497,
          "duration": 4.96865760416668
        },
        {
          "name": "G#5",
          "midi": 80,
          "time": 137.32949999999994,
          "velocity": 0.7874015748031497,
          "duration": 4.96865760416668
        },
        {
          "name": "D5",
          "midi": 74,
          "time": 142.56109999999995,
          "velocity": 0.3858267716535433,
          "duration": 4.96865760416668
        },
        {
          "name": "A5",
          "midi": 81,
          "time": 142.56109999999995,
          "velocity": 0.3858267716535433,
          "duration": 4.96865760416668
        },
        {
          "name": "F#5",
          "midi": 78,
          "time": 153.02429999999995,
          "velocity": 0.5748031496062992,
          "duration": 0.652587604166655
        },
        {
          "name": "E5",
          "midi": 76,
          "time": 153.89623333333327,
          "velocity": 0.5748031496062992,
          "duration": 0.21662093750001077
        },
        {
          "name": "C#5",
          "midi": 73,
          "time": 154.1142166666666,
          "velocity": 0.5748031496062992,
          "duration": 0.21662093750001077
        },
        {
          "name": "E5",
          "midi": 76,
          "time": 154.33219999999994,
          "velocity": 0.5748031496062992,
          "duration": 0.652587604166655
        },
        {
          "name": "C#5",
          "midi": 73,
          "time": 155.4221166666666,
          "velocity": 0.5748031496062992,
          "duration": 0.21662093750001077
        },
        {
          "name": "D5",
          "midi": 74,
          "time": 155.64009999999993,
          "velocity": 0.5748031496062992,
          "duration": 0.652587604166655
        },
        {
          "name": "C#5",
          "midi": 73,
          "time": 156.51203333333325,
          "velocity": 0.5748031496062992,
          "duration": 0.21662093750001077
        },
        {
          "name": "B4",
          "midi": 71,
          "time": 156.7300166666666,
          "velocity": 0.5748031496062992,
          "duration": 0.21662093750001077
        },
        {
          "name": "C#5",
          "midi": 73,
          "time": 156.94799999999992,
          "velocity": 0.5748031496062992,
          "duration": 0.652587604166655
        },
        {
          "name": "C#5",
          "midi": 73,
          "time": 157.6019499999999,
          "velocity": 0.5748031496062992,
          "duration": 0.652587604166655
        },
        {
          "name": "A4",
          "midi": 69,
          "time": 160.8716999999999,
          "velocity": 0.4409448818897638,
          "duration": 0.652587604166655
        },
        {
          "name": "B4",
          "midi": 71,
          "time": 161.52564999999987,
          "velocity": 0.4566929133858268,
          "duration": 0.652587604166655
        },
        {
          "name": "A4",
          "midi": 69,
          "time": 162.17959999999985,
          "velocity": 0.47244094488188976,
          "duration": 0.652587604166655
        },
        {
          "name": "C#5",
          "midi": 73,
          "time": 162.17959999999985,
          "velocity": 0.47244094488188976,
          "duration": 0.652587604166655
        },
        {
          "name": "B4",
          "midi": 71,
          "time": 162.83354999999983,
          "velocity": 0.4881889763779528,
          "duration": 0.6198901041666716
        },
        {
          "name": "E5",
          "midi": 76,
          "time": 162.83354999999983,
          "velocity": 0.4881889763779528,
          "duration": 0.6198901041666716
        },
        {
          "name": "D5",
          "midi": 74,
          "time": 163.48749999999984,
          "velocity": 0.7559055118110236,
          "duration": 0.652587604166655
        },
        {
          "name": "F#5",
          "midi": 78,
          "time": 163.48749999999984,
          "velocity": 0.7559055118110236,
          "duration": 0.652587604166655
        },
        {
          "name": "C#5",
          "midi": 73,
          "time": 164.35943333333316,
          "velocity": 0.7559055118110236,
          "duration": 0.21662093750001077
        },
        {
          "name": "E5",
          "midi": 76,
          "time": 164.35943333333316,
          "velocity": 0.7559055118110236,
          "duration": 0.21662093750001077
        },
        {
          "name": "A4",
          "midi": 69,
          "time": 164.5774166666665,
          "velocity": 0.7559055118110236,
          "duration": 0.21662093750001077
        },
        {
          "name": "C#5",
          "midi": 73,
          "time": 164.5774166666665,
          "velocity": 0.7559055118110236,
          "duration": 0.21662093750001077
        },
        {
          "name": "A4",
          "midi": 69,
          "time": 164.79539999999983,
          "velocity": 0.7559055118110236,
          "duration": 0.652587604166655
        },
        {
          "name": "C#5",
          "midi": 73,
          "time": 164.79539999999983,
          "velocity": 0.7559055118110236,
          "duration": 0.652587604166655
        },
        {
          "name": "E5",
          "midi": 76,
          "time": 164.79539999999983,
          "velocity": 0.7559055118110236,
          "duration": 0.652587604166655
        },
        {
          "name": "C#5",
          "midi": 73,
          "time": 165.88531666666648,
          "velocity": 0.7559055118110236,
          "duration": 0.21662093750001077
        },
        {
          "name": "A4",
          "midi": 69,
          "time": 166.10329999999982,
          "velocity": 0.7559055118110236,
          "duration": 0.652587604166655
        },
        {
          "name": "D5",
          "midi": 74,
          "time": 166.10329999999982,
          "velocity": 0.7559055118110236,
          "duration": 0.652587604166655
        },
        {
          "name": "A4",
          "midi": 69,
          "time": 166.97523333333314,
          "velocity": 0.8346456692913385,
          "duration": 0.21662093750001077
        },
        {
          "name": "C#5",
          "midi": 73,
          "time": 166.97523333333314,
          "velocity": 0.8346456692913385,
          "duration": 0.21662093750001077
        },
        {
          "name": "B4",
          "midi": 71,
          "time": 167.19321666666647,
          "velocity": 0.8503937007874016,
          "duration": 0.21662093750001077
        },
        {
          "name": "A4",
          "midi": 69,
          "time": 167.4111999999998,
          "velocity": 0.8740157480314961,
          "duration": 0.652587604166655
        },
        {
          "name": "C#5",
          "midi": 73,
          "time": 167.4111999999998,
          "velocity": 0.8740157480314961,
          "duration": 0.652587604166655
        },
        {
          "name": "A4",
          "midi": 69,
          "time": 168.0651499999998,
          "velocity": 0.9448818897637795,
          "duration": 0.652587604166655
        },
        {
          "name": "C#5",
          "midi": 73,
          "time": 168.0651499999998,
          "velocity": 0.9448818897637795,
          "duration": 0.652587604166655
        },
        {
          "name": "C#4",
          "midi": 61,
          "time": 168.71909999999977,
          "velocity": 0.8818897637795275,
          "duration": 0.6198901041666716
        },
        {
          "name": "E4",
          "midi": 64,
          "time": 168.71909999999977,
          "velocity": 0.8818897637795275,
          "duration": 0.6198901041666716
        },
        {
          "name": "C#4",
          "midi": 61,
          "time": 169.37304999999978,
          "velocity": 0.7401574803149606,
          "duration": 0.20572177083332122
        },
        {
          "name": "A4",
          "midi": 69,
          "time": 169.37304999999978,
          "velocity": 0.7401574803149606,
          "duration": 0.20572177083332122
        },
        {
          "name": "C#4",
          "midi": 61,
          "time": 169.5910333333331,
          "velocity": 0.6299212598425197,
          "duration": 0.4128059374999964
        },
        {
          "name": "A4",
          "midi": 69,
          "time": 169.5910333333331,
          "velocity": 0.6299212598425197,
          "duration": 0.4128059374999964
        },
        {
          "name": "C#4",
          "midi": 61,
          "time": 170.68094999999974,
          "velocity": 0.6299212598425197,
          "duration": 0.20572177083332122
        },
        {
          "name": "E4",
          "midi": 64,
          "time": 170.68094999999974,
          "velocity": 0.6299212598425197,
          "duration": 0.20572177083332122
        },
        {
          "name": "A4",
          "midi": 69,
          "time": 170.68094999999974,
          "velocity": 0.6299212598425197,
          "duration": 0.20572177083332122
        },
        {
          "name": "B3",
          "midi": 59,
          "time": 171.11691666666638,
          "velocity": 0.6299212598425197,
          "duration": 0.20572177083332122
        },
        {
          "name": "D4",
          "midi": 62,
          "time": 171.11691666666638,
          "velocity": 0.6299212598425197,
          "duration": 0.20572177083332122
        },
        {
          "name": "C#4",
          "midi": 61,
          "time": 171.3348999999997,
          "velocity": 0.6299212598425197,
          "duration": 0.6198901041666716
        },
        {
          "name": "A4",
          "midi": 69,
          "time": 171.3348999999997,
          "velocity": 0.6299212598425197,
          "duration": 0.6198901041666716
        },
        {
          "name": "C#4",
          "midi": 61,
          "time": 171.9888499999997,
          "velocity": 0.6614173228346457,
          "duration": 0.6198901041666716
        },
        {
          "name": "E4",
          "midi": 64,
          "time": 171.9888499999997,
          "velocity": 0.6614173228346457,
          "duration": 0.6198901041666716
        },
        {
          "name": "B4",
          "midi": 71,
          "time": 171.9888499999997,
          "velocity": 0.6614173228346457,
          "duration": 0.6198901041666716
        },
        {
          "name": "B3",
          "midi": 59,
          "time": 172.6427999999997,
          "velocity": 0.6929133858267716,
          "duration": 0.6198901041666716
        },
        {
          "name": "A4",
          "midi": 69,
          "time": 172.6427999999997,
          "velocity": 0.6929133858267716,
          "duration": 0.6198901041666716
        },
        {
          "name": "C#4",
          "midi": 61,
          "time": 173.29674999999972,
          "velocity": 0.7244094488188977,
          "duration": 0.6198901041666716
        },
        {
          "name": "E4",
          "midi": 64,
          "time": 173.29674999999972,
          "velocity": 0.7244094488188977,
          "duration": 0.6198901041666716
        },
        {
          "name": "B4",
          "midi": 71,
          "time": 173.29674999999972,
          "velocity": 0.7244094488188977,
          "duration": 0.6198901041666716
        },
        {
          "name": "F#4",
          "midi": 66,
          "time": 173.95069999999973,
          "velocity": 1,
          "duration": 0.652587604166655
        },
        {
          "name": "D5",
          "midi": 74,
          "time": 173.95069999999973,
          "velocity": 1,
          "duration": 0.652587604166655
        },
        {
          "name": "F#5",
          "midi": 78,
          "time": 173.95069999999973,
          "velocity": 1,
          "duration": 0.652587604166655
        },
        {
          "name": "E4",
          "midi": 64,
          "time": 174.82263333333304,
          "velocity": 1,
          "duration": 0.21662093750001077
        },
        {
          "name": "C#5",
          "midi": 73,
          "time": 174.82263333333304,
          "velocity": 1,
          "duration": 0.21662093750001077
        },
        {
          "name": "E5",
          "midi": 76,
          "time": 174.82263333333304,
          "velocity": 1,
          "duration": 0.21662093750001077
        },
        {
          "name": "E4",
          "midi": 64,
          "time": 175.04061666666638,
          "velocity": 1,
          "duration": 0.21662093750001077
        },
        {
          "name": "A4",
          "midi": 69,
          "time": 175.04061666666638,
          "velocity": 1,
          "duration": 0.21662093750001077
        },
        {
          "name": "C#5",
          "midi": 73,
          "time": 175.04061666666638,
          "velocity": 1,
          "duration": 0.21662093750001077
        },
        {
          "name": "A4",
          "midi": 69,
          "time": 175.25859999999972,
          "velocity": 1,
          "duration": 0.652587604166655
        },
        {
          "name": "C#5",
          "midi": 73,
          "time": 175.25859999999972,
          "velocity": 1,
          "duration": 0.652587604166655
        },
        {
          "name": "E5",
          "midi": 76,
          "time": 175.25859999999972,
          "velocity": 1,
          "duration": 0.652587604166655
        },
        {
          "name": "E4",
          "midi": 64,
          "time": 176.13053333333303,
          "velocity": 1,
          "duration": 0.21662093750001077
        },
        {
          "name": "C#5",
          "midi": 73,
          "time": 176.13053333333303,
          "velocity": 1,
          "duration": 0.21662093750001077
        },
        {
          "name": "E4",
          "midi": 64,
          "time": 176.34851666666637,
          "velocity": 1,
          "duration": 0.21662093750001077
        },
        {
          "name": "C#5",
          "midi": 73,
          "time": 176.34851666666637,
          "velocity": 1,
          "duration": 0.21662093750001077
        },
        {
          "name": "D4",
          "midi": 62,
          "time": 176.5664999999997,
          "velocity": 1,
          "duration": 0.652587604166655
        },
        {
          "name": "A4",
          "midi": 69,
          "time": 176.5664999999997,
          "velocity": 1,
          "duration": 0.652587604166655
        },
        {
          "name": "D5",
          "midi": 74,
          "time": 176.5664999999997,
          "velocity": 1,
          "duration": 0.652587604166655
        },
        {
          "name": "A4",
          "midi": 69,
          "time": 177.43843333333302,
          "velocity": 1,
          "duration": 0.21662093750001077
        },
        {
          "name": "C#5",
          "midi": 73,
          "time": 177.43843333333302,
          "velocity": 1,
          "duration": 0.21662093750001077
        },
        {
          "name": "E4",
          "midi": 64,
          "time": 177.65641666666636,
          "velocity": 1,
          "duration": 0.21662093750001077
        },
        {
          "name": "G#4",
          "midi": 68,
          "time": 177.65641666666636,
          "velocity": 1,
          "duration": 0.21662093750001077
        },
        {
          "name": "B4",
          "midi": 71,
          "time": 177.65641666666636,
          "velocity": 1,
          "duration": 0.21662093750001077
        },
        {
          "name": "C#4",
          "midi": 61,
          "time": 177.8743999999997,
          "velocity": 1,
          "duration": 0.652587604166655
        },
        {
          "name": "E4",
          "midi": 64,
          "time": 177.8743999999997,
          "velocity": 1,
          "duration": 0.652587604166655
        },
        {
          "name": "A4",
          "midi": 69,
          "time": 177.8743999999997,
          "velocity": 1,
          "duration": 0.652587604166655
        },
        {
          "name": "C#5",
          "midi": 73,
          "time": 177.8743999999997,
          "velocity": 1,
          "duration": 0.652587604166655
        },
        {
          "name": "C#4",
          "midi": 61,
          "time": 178.52834999999968,
          "velocity": 1,
          "duration": 0.652587604166655
        },
        {
          "name": "A4",
          "midi": 69,
          "time": 178.52834999999968,
          "velocity": 1,
          "duration": 0.652587604166655
        },
        {
          "name": "C#5",
          "midi": 73,
          "time": 178.52834999999968,
          "velocity": 1,
          "duration": 0.652587604166655
        },
        {
          "name": "A4",
          "midi": 69,
          "time": 179.83624999999967,
          "velocity": 0.8818897637795275,
          "duration": 0.6198901041666716
        },
        {
          "name": "E5",
          "midi": 76,
          "time": 179.83624999999967,
          "velocity": 0.8818897637795275,
          "duration": 0.6198901041666716
        },
        {
          "name": "A5",
          "midi": 81,
          "time": 179.83624999999967,
          "velocity": 0.8818897637795275,
          "duration": 0.6198901041666716
        },
        {
          "name": "B4",
          "midi": 71,
          "time": 180.49019999999967,
          "velocity": 0.8818897637795275,
          "duration": 0.6198901041666716
        },
        {
          "name": "E5",
          "midi": 76,
          "time": 180.49019999999967,
          "velocity": 0.8818897637795275,
          "duration": 0.6198901041666716
        },
        {
          "name": "B5",
          "midi": 83,
          "time": 180.49019999999967,
          "velocity": 0.8818897637795275,
          "duration": 0.6198901041666716
        },
        {
          "name": "A4",
          "midi": 69,
          "time": 181.58011666666636,
          "velocity": 0.8818897637795275,
          "duration": 0.20572177083332122
        },
        {
          "name": "A5",
          "midi": 81,
          "time": 181.58011666666636,
          "velocity": 0.8818897637795275,
          "duration": 0.20572177083332122
        },
        {
          "name": "G#4",
          "midi": 68,
          "time": 181.79809999999966,
          "velocity": 0.8818897637795275,
          "duration": 0.6198901041666716
        },
        {
          "name": "G#5",
          "midi": 80,
          "time": 181.79809999999966,
          "velocity": 0.8818897637795275,
          "duration": 0.6198901041666716
        },
        {
          "name": "E5",
          "midi": 76,
          "time": 182.45204999999967,
          "velocity": 1,
          "duration": 0.652587604166655
        },
        {
          "name": "G#5",
          "midi": 80,
          "time": 182.45204999999967,
          "velocity": 1,
          "duration": 0.652587604166655
        },
        {
          "name": "F#5",
          "midi": 78,
          "time": 183.10599999999965,
          "velocity": 1,
          "duration": 0.652587604166655
        },
        {
          "name": "A5",
          "midi": 81,
          "time": 183.10599999999965,
          "velocity": 1,
          "duration": 0.652587604166655
        },
        {
          "name": "E5",
          "midi": 76,
          "time": 183.75994999999963,
          "velocity": 1,
          "duration": 0.652587604166655
        },
        {
          "name": "A5",
          "midi": 81,
          "time": 183.75994999999963,
          "velocity": 1,
          "duration": 0.652587604166655
        },
        {
          "name": "C#6",
          "midi": 85,
          "time": 183.75994999999963,
          "velocity": 1,
          "duration": 0.652587604166655
        },
        {
          "name": "F#5",
          "midi": 78,
          "time": 184.41389999999961,
          "velocity": 1,
          "duration": 0.652587604166655
        },
        {
          "name": "D6",
          "midi": 86,
          "time": 184.41389999999961,
          "velocity": 1,
          "duration": 0.652587604166655
        },
        {
          "name": "F#6",
          "midi": 90,
          "time": 184.41389999999961,
          "velocity": 1,
          "duration": 0.652587604166655
        },
        {
          "name": "E5",
          "midi": 76,
          "time": 185.28583333333293,
          "velocity": 1,
          "duration": 0.21662093750001077
        },
        {
          "name": "A5",
          "midi": 81,
          "time": 185.28583333333293,
          "velocity": 1,
          "duration": 0.21662093750001077
        },
        {
          "name": "E6",
          "midi": 88,
          "time": 185.28583333333293,
          "velocity": 1,
          "duration": 0.21662093750001077
        },
        {
          "name": "C#5",
          "midi": 73,
          "time": 185.50381666666627,
          "velocity": 1,
          "duration": 0.21662093750001077
        },
        {
          "name": "A5",
          "midi": 81,
          "time": 185.50381666666627,
          "velocity": 1,
          "duration": 0.21662093750001077
        },
        {
          "name": "C#6",
          "midi": 85,
          "time": 185.50381666666627,
          "velocity": 1,
          "duration": 0.21662093750001077
        },
        {
          "name": "E5",
          "midi": 76,
          "time": 185.7217999999996,
          "velocity": 1,
          "duration": 0.652587604166655
        },
        {
          "name": "A5",
          "midi": 81,
          "time": 185.7217999999996,
          "velocity": 1,
          "duration": 0.652587604166655
        },
        {
          "name": "C#6",
          "midi": 85,
          "time": 185.7217999999996,
          "velocity": 1,
          "duration": 0.652587604166655
        },
        {
          "name": "E6",
          "midi": 88,
          "time": 185.7217999999996,
          "velocity": 1,
          "duration": 0.652587604166655
        },
        {
          "name": "C#5",
          "midi": 73,
          "time": 186.37574999999958,
          "velocity": 1,
          "duration": 0.4346042708333471
        },
        {
          "name": "C#6",
          "midi": 85,
          "time": 186.37574999999958,
          "velocity": 1,
          "duration": 0.4346042708333471
        },
        {
          "name": "C#5",
          "midi": 73,
          "time": 186.81171666666626,
          "velocity": 1,
          "duration": 0.21662093750001077
        },
        {
          "name": "A5",
          "midi": 81,
          "time": 186.81171666666626,
          "velocity": 1,
          "duration": 0.21662093750001077
        },
        {
          "name": "C#6",
          "midi": 85,
          "time": 186.81171666666626,
          "velocity": 1,
          "duration": 0.21662093750001077
        },
        {
          "name": "D5",
          "midi": 74,
          "time": 187.0296999999996,
          "velocity": 1,
          "duration": 0.652587604166655
        },
        {
          "name": "A5",
          "midi": 81,
          "time": 187.0296999999996,
          "velocity": 1,
          "duration": 0.652587604166655
        },
        {
          "name": "D6",
          "midi": 86,
          "time": 187.0296999999996,
          "velocity": 1,
          "duration": 0.652587604166655
        },
        {
          "name": "C#5",
          "midi": 73,
          "time": 187.9016333333329,
          "velocity": 1,
          "duration": 0.21662093750001077
        },
        {
          "name": "A5",
          "midi": 81,
          "time": 187.9016333333329,
          "velocity": 1,
          "duration": 0.21662093750001077
        },
        {
          "name": "C#6",
          "midi": 85,
          "time": 187.9016333333329,
          "velocity": 1,
          "duration": 0.21662093750001077
        },
        {
          "name": "B4",
          "midi": 71,
          "time": 188.11961666666625,
          "velocity": 1,
          "duration": 0.21662093750001077
        },
        {
          "name": "E5",
          "midi": 76,
          "time": 188.11961666666625,
          "velocity": 1,
          "duration": 0.21662093750001077
        },
        {
          "name": "B5",
          "midi": 83,
          "time": 188.11961666666625,
          "velocity": 1,
          "duration": 0.21662093750001077
        },
        {
          "name": "C#5",
          "midi": 73,
          "time": 188.33759999999958,
          "velocity": 1,
          "duration": 0.652587604166655
        },
        {
          "name": "E5",
          "midi": 76,
          "time": 188.33759999999958,
          "velocity": 1,
          "duration": 0.652587604166655
        },
        {
          "name": "C#6",
          "midi": 85,
          "time": 188.33759999999958,
          "velocity": 1,
          "duration": 0.652587604166655
        },
        {
          "name": "C#5",
          "midi": 73,
          "time": 188.99154999999956,
          "velocity": 1,
          "duration": 0.652587604166655
        },
        {
          "name": "E5",
          "midi": 76,
          "time": 188.99154999999956,
          "velocity": 1,
          "duration": 0.652587604166655
        },
        {
          "name": "A5",
          "midi": 81,
          "time": 188.99154999999956,
          "velocity": 1,
          "duration": 0.652587604166655
        },
        {
          "name": "C#6",
          "midi": 85,
          "time": 188.99154999999956,
          "velocity": 1,
          "duration": 0.652587604166655
        },
        {
          "name": "A4",
          "midi": 69,
          "time": 189.64549999999954,
          "velocity": 0.7559055118110236,
          "duration": 0.6198901041666716
        },
        {
          "name": "A5",
          "midi": 81,
          "time": 189.64549999999954,
          "velocity": 0.7559055118110236,
          "duration": 0.6198901041666716
        },
        {
          "name": "B4",
          "midi": 71,
          "time": 190.29944999999955,
          "velocity": 0.7559055118110236,
          "duration": 0.6198901041666716
        },
        {
          "name": "B5",
          "midi": 83,
          "time": 190.29944999999955,
          "velocity": 0.7559055118110236,
          "duration": 0.6198901041666716
        },
        {
          "name": "C#5",
          "midi": 73,
          "time": 190.95339999999956,
          "velocity": 0.7401574803149606,
          "duration": 0.6198901041666716
        },
        {
          "name": "C#6",
          "midi": 85,
          "time": 190.95339999999956,
          "velocity": 0.7401574803149606,
          "duration": 0.6198901041666716
        },
        {
          "name": "E5",
          "midi": 76,
          "time": 191.60734999999957,
          "velocity": 0.7244094488188977,
          "duration": 0.6198901041666716
        },
        {
          "name": "E6",
          "midi": 88,
          "time": 191.60734999999957,
          "velocity": 0.7244094488188977,
          "duration": 0.6198901041666716
        },
        {
          "name": "B4",
          "midi": 71,
          "time": 192.26129999999958,
          "velocity": 0.7086614173228346,
          "duration": 0.6198901041666716
        },
        {
          "name": "B5",
          "midi": 83,
          "time": 192.26129999999958,
          "velocity": 0.7086614173228346,
          "duration": 0.6198901041666716
        },
        {
          "name": "A4",
          "midi": 69,
          "time": 192.9152499999996,
          "velocity": 0.6850393700787402,
          "duration": 0.6198901041666716
        },
        {
          "name": "A5",
          "midi": 81,
          "time": 192.9152499999996,
          "velocity": 0.6850393700787402,
          "duration": 0.6198901041666716
        },
        {
          "name": "G#4",
          "midi": 68,
          "time": 193.5691999999996,
          "velocity": 0.6692913385826772,
          "duration": 0.6198901041666716
        },
        {
          "name": "G#5",
          "midi": 80,
          "time": 193.5691999999996,
          "velocity": 0.6692913385826772,
          "duration": 0.6198901041666716
        },
        {
          "name": "E4",
          "midi": 64,
          "time": 194.2231499999996,
          "velocity": 0.6535433070866141,
          "duration": 0.6198901041666716
        },
        {
          "name": "E5",
          "midi": 76,
          "time": 194.2231499999996,
          "velocity": 0.6535433070866141,
          "duration": 0.6198901041666716
        },
        {
          "name": "F#4",
          "midi": 66,
          "time": 194.87709999999961,
          "velocity": 0.6299212598425197,
          "duration": 4.347405104166654
        },
        {
          "name": "F#5",
          "midi": 78,
          "time": 194.87709999999961,
          "velocity": 0.6299212598425197,
          "duration": 4.347405104166654
        },
        {
          "name": "C#6",
          "midi": 85,
          "time": 199.4547499999996,
          "velocity": 0.25984251968503935,
          "duration": 0.652587604166655
        },
        {
          "name": "A5",
          "midi": 81,
          "time": 200.10869999999957,
          "velocity": 0.25984251968503935,
          "duration": 2.483647604166663
        }
      ],
      "controlChanges": {
        "7": [
          {
            "number": 7,
            "time": 0,
            "value": 0.7874015748031497
          }
        ],
        "10": [
          {
            "number": 10,
            "time": 0,
            "value": 0.5039370078740157
          }
        ],
        "91": [
          {
            "number": 91,
            "time": 0,
            "value": 0
          }
        ],
        "93": [
          {
            "number": 93,
            "time": 0,
            "value": 0
          }
        ],
        "121": [
          {
            "number": 121,
            "time": 0,
            "value": 0
          }
        ]
      },
      "id": 0,
      "name": "Piano",
      "instrumentNumber": 0,
      "instrument": "acoustic grand piano",
      "instrumentFamily": "piano",
      "channelNumber": 0,
      "isPercussion": false
    },
    {
      "startTime": 6.539500000000001,
      "duration": 199.84575760416365,
      "length": 915,
      "notes": [
        {
          "name": "F#3",
          "midi": 54,
          "time": 6.539500000000001,
          "velocity": 0.3858267716535433,
          "duration": 0.6198901041666671
        },
        {
          "name": "A3",
          "midi": 57,
          "time": 7.193450000000001,
          "velocity": 0.3858267716535433,
          "duration": 0.41280593749999994
        },
        {
          "name": "E4",
          "midi": 64,
          "time": 7.193450000000001,
          "velocity": 0.3858267716535433,
          "duration": 0.41280593749999994
        },
        {
          "name": "E4",
          "midi": 64,
          "time": 7.629416666666668,
          "velocity": 0.3858267716535433,
          "duration": 0.20572177083333365
        },
        {
          "name": "A3",
          "midi": 57,
          "time": 7.847400000000001,
          "velocity": 0.3858267716535433,
          "duration": 0.20572177083333276
        },
        {
          "name": "A4",
          "midi": 69,
          "time": 8.065383333333335,
          "velocity": 0.3858267716535433,
          "duration": 0.20572177083333365
        },
        {
          "name": "E4",
          "midi": 64,
          "time": 8.28336666666667,
          "velocity": 0.3858267716535433,
          "duration": 0.20572177083333365
        },
        {
          "name": "A4",
          "midi": 69,
          "time": 8.501350000000004,
          "velocity": 0.3858267716535433,
          "duration": 0.41280593749999994
        },
        {
          "name": "C#5",
          "midi": 73,
          "time": 8.501350000000004,
          "velocity": 0.3858267716535433,
          "duration": 0.41280593749999994
        },
        {
          "name": "D4",
          "midi": 62,
          "time": 8.937316666666671,
          "velocity": 0.3858267716535433,
          "duration": 0.20572177083333365
        },
        {
          "name": "D3",
          "midi": 50,
          "time": 9.155300000000006,
          "velocity": 0.3858267716535433,
          "duration": 0.6198901041666662
        },
        {
          "name": "A3",
          "midi": 57,
          "time": 9.809250000000006,
          "velocity": 0.3858267716535433,
          "duration": 0.41280593749999994
        },
        {
          "name": "E4",
          "midi": 64,
          "time": 9.809250000000006,
          "velocity": 0.3858267716535433,
          "duration": 0.41280593749999994
        },
        {
          "name": "E4",
          "midi": 64,
          "time": 10.245216666666673,
          "velocity": 0.3858267716535433,
          "duration": 0.20572177083333365
        },
        {
          "name": "D3",
          "midi": 50,
          "time": 10.463200000000008,
          "velocity": 0.3858267716535433,
          "duration": 0.6198901041666662
        },
        {
          "name": "A3",
          "midi": 57,
          "time": 11.117150000000008,
          "velocity": 0.3858267716535433,
          "duration": 0.41280593749999994
        },
        {
          "name": "E4",
          "midi": 64,
          "time": 11.117150000000008,
          "velocity": 0.3858267716535433,
          "duration": 0.41280593749999994
        },
        {
          "name": "E4",
          "midi": 64,
          "time": 11.553116666666675,
          "velocity": 0.3858267716535433,
          "duration": 0.20572177083333365
        },
        {
          "name": "F#3",
          "midi": 54,
          "time": 11.77110000000001,
          "velocity": 0.3858267716535433,
          "duration": 0.6198901041666662
        },
        {
          "name": "A3",
          "midi": 57,
          "time": 11.77110000000001,
          "velocity": 0.3858267716535433,
          "duration": 0.6198901041666662
        },
        {
          "name": "A3",
          "midi": 57,
          "time": 12.42505000000001,
          "velocity": 0.3858267716535433,
          "duration": 0.41280593749999994
        },
        {
          "name": "E4",
          "midi": 64,
          "time": 12.42505000000001,
          "velocity": 0.3858267716535433,
          "duration": 0.41280593749999994
        },
        {
          "name": "E4",
          "midi": 64,
          "time": 12.861016666666677,
          "velocity": 0.3858267716535433,
          "duration": 0.20572177083333365
        },
        {
          "name": "A3",
          "midi": 57,
          "time": 13.079000000000011,
          "velocity": 0.3858267716535433,
          "duration": 0.20572177083333365
        },
        {
          "name": "A4",
          "midi": 69,
          "time": 13.296983333333346,
          "velocity": 0.3858267716535433,
          "duration": 0.20572177083333365
        },
        {
          "name": "E4",
          "midi": 64,
          "time": 13.51496666666668,
          "velocity": 0.3858267716535433,
          "duration": 0.20572177083333365
        },
        {
          "name": "A4",
          "midi": 69,
          "time": 13.732950000000015,
          "velocity": 0.3858267716535433,
          "duration": 0.41280593749999994
        },
        {
          "name": "C#5",
          "midi": 73,
          "time": 13.732950000000015,
          "velocity": 0.3858267716535433,
          "duration": 0.41280593749999994
        },
        {
          "name": "D4",
          "midi": 62,
          "time": 14.168916666666682,
          "velocity": 0.3858267716535433,
          "duration": 0.20572177083333365
        },
        {
          "name": "D3",
          "midi": 50,
          "time": 14.386900000000017,
          "velocity": 0.3858267716535433,
          "duration": 0.6198901041666662
        },
        {
          "name": "A3",
          "midi": 57,
          "time": 15.040850000000017,
          "velocity": 0.3858267716535433,
          "duration": 0.41280593749999994
        },
        {
          "name": "E4",
          "midi": 64,
          "time": 15.040850000000017,
          "velocity": 0.3858267716535433,
          "duration": 0.41280593749999994
        },
        {
          "name": "E4",
          "midi": 64,
          "time": 15.476816666666684,
          "velocity": 0.3858267716535433,
          "duration": 0.20572177083333365
        },
        {
          "name": "D3",
          "midi": 50,
          "time": 15.694800000000019,
          "velocity": 0.3858267716535433,
          "duration": 0.619890104166668
        },
        {
          "name": "A3",
          "midi": 57,
          "time": 16.34875000000002,
          "velocity": 0.3858267716535433,
          "duration": 0.41280593749999994
        },
        {
          "name": "E4",
          "midi": 64,
          "time": 16.34875000000002,
          "velocity": 0.3858267716535433,
          "duration": 0.41280593749999994
        },
        {
          "name": "E4",
          "midi": 64,
          "time": 16.784716666666686,
          "velocity": 0.3858267716535433,
          "duration": 0.20572177083333187
        },
        {
          "name": "F#3",
          "midi": 54,
          "time": 17.00270000000002,
          "velocity": 0.3858267716535433,
          "duration": 0.6198901041666645
        },
        {
          "name": "A3",
          "midi": 57,
          "time": 17.656650000000017,
          "velocity": 0.3858267716535433,
          "duration": 0.41280593749999994
        },
        {
          "name": "E4",
          "midi": 64,
          "time": 17.656650000000017,
          "velocity": 0.3858267716535433,
          "duration": 0.41280593749999994
        },
        {
          "name": "E4",
          "midi": 64,
          "time": 18.092616666666682,
          "velocity": 0.3858267716535433,
          "duration": 0.20572177083333187
        },
        {
          "name": "A3",
          "midi": 57,
          "time": 18.310600000000015,
          "velocity": 0.3858267716535433,
          "duration": 0.20572177083333187
        },
        {
          "name": "A4",
          "midi": 69,
          "time": 18.528583333333348,
          "velocity": 0.3858267716535433,
          "duration": 0.20572177083333187
        },
        {
          "name": "E4",
          "midi": 64,
          "time": 18.74656666666668,
          "velocity": 0.3858267716535433,
          "duration": 0.20572177083333187
        },
        {
          "name": "A4",
          "midi": 69,
          "time": 18.964550000000013,
          "velocity": 0.3858267716535433,
          "duration": 0.41280593749999994
        },
        {
          "name": "C#5",
          "midi": 73,
          "time": 18.964550000000013,
          "velocity": 0.3858267716535433,
          "duration": 0.41280593749999994
        },
        {
          "name": "D4",
          "midi": 62,
          "time": 19.40051666666668,
          "velocity": 0.3858267716535433,
          "duration": 0.20572177083333187
        },
        {
          "name": "D3",
          "midi": 50,
          "time": 19.61850000000001,
          "velocity": 0.3858267716535433,
          "duration": 0.6198901041666645
        },
        {
          "name": "A3",
          "midi": 57,
          "time": 20.27245000000001,
          "velocity": 0.3858267716535433,
          "duration": 0.41280593749999994
        },
        {
          "name": "E4",
          "midi": 64,
          "time": 20.27245000000001,
          "velocity": 0.3858267716535433,
          "duration": 0.41280593749999994
        },
        {
          "name": "E4",
          "midi": 64,
          "time": 20.708416666666675,
          "velocity": 0.3858267716535433,
          "duration": 0.20572177083333187
        },
        {
          "name": "D3",
          "midi": 50,
          "time": 20.926400000000008,
          "velocity": 0.3858267716535433,
          "duration": 0.619890104166668
        },
        {
          "name": "A3",
          "midi": 57,
          "time": 21.58035000000001,
          "velocity": 0.3858267716535433,
          "duration": 0.41280593749999994
        },
        {
          "name": "E4",
          "midi": 64,
          "time": 21.58035000000001,
          "velocity": 0.3858267716535433,
          "duration": 0.41280593749999994
        },
        {
          "name": "E4",
          "midi": 64,
          "time": 22.016316666666675,
          "velocity": 0.3858267716535433,
          "duration": 0.20572177083333187
        },
        {
          "name": "F#3",
          "midi": 54,
          "time": 22.234300000000008,
          "velocity": 0.3858267716535433,
          "duration": 0.6198901041666645
        },
        {
          "name": "A3",
          "midi": 57,
          "time": 22.234300000000008,
          "velocity": 0.3858267716535433,
          "duration": 0.6198901041666645
        },
        {
          "name": "A3",
          "midi": 57,
          "time": 22.888250000000006,
          "velocity": 0.3858267716535433,
          "duration": 0.41280593749999994
        },
        {
          "name": "E4",
          "midi": 64,
          "time": 22.888250000000006,
          "velocity": 0.3858267716535433,
          "duration": 0.41280593749999994
        },
        {
          "name": "E4",
          "midi": 64,
          "time": 23.324216666666672,
          "velocity": 0.3858267716535433,
          "duration": 0.20572177083333187
        },
        {
          "name": "A3",
          "midi": 57,
          "time": 23.542200000000005,
          "velocity": 0.3858267716535433,
          "duration": 0.20572177083333187
        },
        {
          "name": "A4",
          "midi": 69,
          "time": 23.760183333333337,
          "velocity": 0.3858267716535433,
          "duration": 0.20572177083333187
        },
        {
          "name": "E4",
          "midi": 64,
          "time": 23.97816666666667,
          "velocity": 0.3858267716535433,
          "duration": 0.20572177083333187
        },
        {
          "name": "A4",
          "midi": 69,
          "time": 24.196150000000003,
          "velocity": 0.3858267716535433,
          "duration": 0.41280593749999994
        },
        {
          "name": "C#5",
          "midi": 73,
          "time": 24.196150000000003,
          "velocity": 0.3858267716535433,
          "duration": 0.41280593749999994
        },
        {
          "name": "D4",
          "midi": 62,
          "time": 24.63211666666667,
          "velocity": 0.3858267716535433,
          "duration": 0.20572177083333187
        },
        {
          "name": "D3",
          "midi": 50,
          "time": 24.8501,
          "velocity": 0.3858267716535433,
          "duration": 0.6198901041666645
        },
        {
          "name": "A3",
          "midi": 57,
          "time": 25.50405,
          "velocity": 0.3858267716535433,
          "duration": 0.41280593749999994
        },
        {
          "name": "E4",
          "midi": 64,
          "time": 25.50405,
          "velocity": 0.3858267716535433,
          "duration": 0.41280593749999994
        },
        {
          "name": "E4",
          "midi": 64,
          "time": 25.940016666666665,
          "velocity": 0.4094488188976378,
          "duration": 0.20572177083333187
        },
        {
          "name": "D3",
          "midi": 50,
          "time": 26.157999999999998,
          "velocity": 0.4251968503937008,
          "duration": 0.619890104166668
        },
        {
          "name": "A3",
          "midi": 57,
          "time": 26.81195,
          "velocity": 0.4645669291338583,
          "duration": 0.41280593749999994
        },
        {
          "name": "E4",
          "midi": 64,
          "time": 26.81195,
          "velocity": 0.4645669291338583,
          "duration": 0.41280593749999994
        },
        {
          "name": "E4",
          "midi": 64,
          "time": 27.247916666666665,
          "velocity": 0.4881889763779528,
          "duration": 0.20572177083333187
        },
        {
          "name": "F#3",
          "midi": 54,
          "time": 27.465899999999998,
          "velocity": 0.5039370078740157,
          "duration": 0.6198901041666645
        },
        {
          "name": "A3",
          "midi": 57,
          "time": 28.119849999999996,
          "velocity": 0.5039370078740157,
          "duration": 0.41280593749999994
        },
        {
          "name": "E4",
          "midi": 64,
          "time": 28.119849999999996,
          "velocity": 0.5039370078740157,
          "duration": 0.41280593749999994
        },
        {
          "name": "E4",
          "midi": 64,
          "time": 28.55581666666666,
          "velocity": 0.5039370078740157,
          "duration": 0.20572177083333187
        },
        {
          "name": "A3",
          "midi": 57,
          "time": 28.773799999999994,
          "velocity": 0.5039370078740157,
          "duration": 0.20572177083333187
        },
        {
          "name": "E4",
          "midi": 64,
          "time": 28.991783333333327,
          "velocity": 0.5039370078740157,
          "duration": 0.20572177083333187
        },
        {
          "name": "A4",
          "midi": 69,
          "time": 29.20976666666666,
          "velocity": 0.5039370078740157,
          "duration": 0.8705709374999984
        },
        {
          "name": "C#5",
          "midi": 73,
          "time": 29.427749999999993,
          "velocity": 0.5039370078740157,
          "duration": 0.6525876041666656
        },
        {
          "name": "D4",
          "midi": 62,
          "time": 29.863716666666658,
          "velocity": 0.5039370078740157,
          "duration": 0.20572177083333187
        },
        {
          "name": "D3",
          "midi": 50,
          "time": 30.08169999999999,
          "velocity": 0.5039370078740157,
          "duration": 0.6198901041666645
        },
        {
          "name": "A3",
          "midi": 57,
          "time": 30.73564999999999,
          "velocity": 0.5039370078740157,
          "duration": 0.41280593749999994
        },
        {
          "name": "E4",
          "midi": 64,
          "time": 30.73564999999999,
          "velocity": 0.5039370078740157,
          "duration": 0.41280593749999994
        },
        {
          "name": "E4",
          "midi": 64,
          "time": 31.171616666666655,
          "velocity": 0.5039370078740157,
          "duration": 0.20572177083333187
        },
        {
          "name": "E3",
          "midi": 52,
          "time": 31.389599999999987,
          "velocity": 0.5039370078740157,
          "duration": 0.6198901041666645
        },
        {
          "name": "A3",
          "midi": 57,
          "time": 32.04354999999998,
          "velocity": 0.5039370078740157,
          "duration": 0.4128059375000035
        },
        {
          "name": "E4",
          "midi": 64,
          "time": 32.04354999999998,
          "velocity": 0.5039370078740157,
          "duration": 0.4128059375000035
        },
        {
          "name": "E4",
          "midi": 64,
          "time": 32.479516666666655,
          "velocity": 0.5039370078740157,
          "duration": 0.20572177083333543
        },
        {
          "name": "C#3",
          "midi": 49,
          "time": 32.69749999999999,
          "velocity": 0.5039370078740157,
          "duration": 0.6198901041666645
        },
        {
          "name": "F#3",
          "midi": 54,
          "time": 32.69749999999999,
          "velocity": 0.5039370078740157,
          "duration": 0.6198901041666645
        },
        {
          "name": "A3",
          "midi": 57,
          "time": 33.351449999999986,
          "velocity": 0.5039370078740157,
          "duration": 0.4128059375000035
        },
        {
          "name": "E4",
          "midi": 64,
          "time": 33.351449999999986,
          "velocity": 0.5039370078740157,
          "duration": 0.4128059375000035
        },
        {
          "name": "E4",
          "midi": 64,
          "time": 33.78741666666666,
          "velocity": 0.5039370078740157,
          "duration": 0.20572177083333543
        },
        {
          "name": "A3",
          "midi": 57,
          "time": 34.005399999999995,
          "velocity": 0.5039370078740157,
          "duration": 0.20572177083333543
        },
        {
          "name": "A4",
          "midi": 69,
          "time": 34.22338333333333,
          "velocity": 0.5039370078740157,
          "duration": 0.36920927083333765
        },
        {
          "name": "E4",
          "midi": 64,
          "time": 34.44136666666667,
          "velocity": 0.5039370078740157,
          "duration": 0.20572177083333543
        },
        {
          "name": "C#5",
          "midi": 73,
          "time": 34.65935,
          "velocity": 0.5039370078740157,
          "duration": 0.4128059375000035
        },
        {
          "name": "D4",
          "midi": 62,
          "time": 35.095316666666676,
          "velocity": 0.5039370078740157,
          "duration": 0.20572177083333543
        },
        {
          "name": "D3",
          "midi": 50,
          "time": 35.31330000000001,
          "velocity": 0.5039370078740157,
          "duration": 0.6198901041666645
        },
        {
          "name": "A3",
          "midi": 57,
          "time": 35.96725000000001,
          "velocity": 0.5039370078740157,
          "duration": 0.4128059375000035
        },
        {
          "name": "E4",
          "midi": 64,
          "time": 35.96725000000001,
          "velocity": 0.5039370078740157,
          "duration": 0.4128059375000035
        },
        {
          "name": "E4",
          "midi": 64,
          "time": 36.40321666666668,
          "velocity": 0.5039370078740157,
          "duration": 0.20572177083333543
        },
        {
          "name": "D3",
          "midi": 50,
          "time": 36.621200000000016,
          "velocity": 0.5039370078740157,
          "duration": 0.6198901041666645
        },
        {
          "name": "A3",
          "midi": 57,
          "time": 37.27515000000001,
          "velocity": 0.5039370078740157,
          "duration": 0.4128059375000035
        },
        {
          "name": "E4",
          "midi": 64,
          "time": 37.27515000000001,
          "velocity": 0.5039370078740157,
          "duration": 0.4128059375000035
        },
        {
          "name": "E4",
          "midi": 64,
          "time": 37.71111666666668,
          "velocity": 0.5039370078740157,
          "duration": 0.20572177083333543
        },
        {
          "name": "F#3",
          "midi": 54,
          "time": 37.92910000000002,
          "velocity": 0.5039370078740157,
          "duration": 0.6198901041666645
        },
        {
          "name": "A3",
          "midi": 57,
          "time": 38.583050000000014,
          "velocity": 0.5039370078740157,
          "duration": 0.4128059375000035
        },
        {
          "name": "E4",
          "midi": 64,
          "time": 38.583050000000014,
          "velocity": 0.5039370078740157,
          "duration": 0.4128059375000035
        },
        {
          "name": "E4",
          "midi": 64,
          "time": 39.01901666666669,
          "velocity": 0.5039370078740157,
          "duration": 0.20572177083333543
        },
        {
          "name": "A3",
          "midi": 57,
          "time": 39.23700000000002,
          "velocity": 0.5039370078740157,
          "duration": 0.20572177083333543
        },
        {
          "name": "E4",
          "midi": 64,
          "time": 39.45498333333336,
          "velocity": 0.5039370078740157,
          "duration": 0.20572177083333543
        },
        {
          "name": "A4",
          "midi": 69,
          "time": 39.672966666666696,
          "velocity": 0.5039370078740157,
          "duration": 0.6525876041666692
        },
        {
          "name": "C#5",
          "midi": 73,
          "time": 39.89095000000003,
          "velocity": 0.5039370078740157,
          "duration": 0.43460427083333286
        },
        {
          "name": "D4",
          "midi": 62,
          "time": 40.3269166666667,
          "velocity": 0.5039370078740157,
          "duration": 0.20572177083333543
        },
        {
          "name": "D3",
          "midi": 50,
          "time": 40.544900000000034,
          "velocity": 0.5039370078740157,
          "duration": 0.6198901041666645
        },
        {
          "name": "A3",
          "midi": 57,
          "time": 41.19885000000003,
          "velocity": 0.5039370078740157,
          "duration": 0.4128059375000035
        },
        {
          "name": "E4",
          "midi": 64,
          "time": 41.19885000000003,
          "velocity": 0.5039370078740157,
          "duration": 0.4128059375000035
        },
        {
          "name": "E4",
          "midi": 64,
          "time": 41.6348166666667,
          "velocity": 0.5039370078740157,
          "duration": 0.20572177083333543
        },
        {
          "name": "E3",
          "midi": 52,
          "time": 41.85280000000004,
          "velocity": 0.5039370078740157,
          "duration": 0.6198901041666645
        },
        {
          "name": "A3",
          "midi": 57,
          "time": 42.50675000000003,
          "velocity": 0.5039370078740157,
          "duration": 0.4128059375000035
        },
        {
          "name": "E4",
          "midi": 64,
          "time": 42.50675000000003,
          "velocity": 0.5039370078740157,
          "duration": 0.4128059375000035
        },
        {
          "name": "E4",
          "midi": 64,
          "time": 42.942716666666705,
          "velocity": 0.5039370078740157,
          "duration": 0.20572177083333543
        },
        {
          "name": "C#3",
          "midi": 49,
          "time": 43.16070000000004,
          "velocity": 0.5039370078740157,
          "duration": 0.6198901041666645
        },
        {
          "name": "F#3",
          "midi": 54,
          "time": 43.16070000000004,
          "velocity": 0.5039370078740157,
          "duration": 0.6198901041666645
        },
        {
          "name": "A3",
          "midi": 57,
          "time": 43.814650000000036,
          "velocity": 0.5039370078740157,
          "duration": 0.4128059375000035
        },
        {
          "name": "E4",
          "midi": 64,
          "time": 43.814650000000036,
          "velocity": 0.5039370078740157,
          "duration": 0.4128059375000035
        },
        {
          "name": "E4",
          "midi": 64,
          "time": 44.25061666666671,
          "velocity": 0.5039370078740157,
          "duration": 0.20572177083333543
        },
        {
          "name": "A3",
          "midi": 57,
          "time": 44.468600000000045,
          "velocity": 0.5039370078740157,
          "duration": 0.20572177083333543
        },
        {
          "name": "A4",
          "midi": 69,
          "time": 44.68658333333338,
          "velocity": 0.5039370078740157,
          "duration": 0.36920927083333765
        },
        {
          "name": "E4",
          "midi": 64,
          "time": 44.90456666666672,
          "velocity": 0.5039370078740157,
          "duration": 0.20572177083333543
        },
        {
          "name": "C#5",
          "midi": 73,
          "time": 45.122550000000054,
          "velocity": 0.5039370078740157,
          "duration": 0.4128059375000035
        },
        {
          "name": "D4",
          "midi": 62,
          "time": 45.558516666666726,
          "velocity": 0.5039370078740157,
          "duration": 0.20572177083333543
        },
        {
          "name": "D3",
          "midi": 50,
          "time": 45.77650000000006,
          "velocity": 0.5039370078740157,
          "duration": 0.6198901041666645
        },
        {
          "name": "A3",
          "midi": 57,
          "time": 46.43045000000006,
          "velocity": 0.5039370078740157,
          "duration": 0.4128059375000035
        },
        {
          "name": "E4",
          "midi": 64,
          "time": 46.43045000000006,
          "velocity": 0.5039370078740157,
          "duration": 0.4128059375000035
        },
        {
          "name": "E4",
          "midi": 64,
          "time": 46.86641666666673,
          "velocity": 0.5039370078740157,
          "duration": 0.20572177083333543
        },
        {
          "name": "E3",
          "midi": 52,
          "time": 47.084400000000066,
          "velocity": 0.5039370078740157,
          "duration": 0.6198901041666645
        },
        {
          "name": "A3",
          "midi": 57,
          "time": 47.73835000000006,
          "velocity": 0.5039370078740157,
          "duration": 0.6198901041666645
        },
        {
          "name": "E4",
          "midi": 64,
          "time": 47.73835000000006,
          "velocity": 0.5039370078740157,
          "duration": 0.6198901041666645
        },
        {
          "name": "F#3",
          "midi": 54,
          "time": 48.392300000000056,
          "velocity": 0.5039370078740157,
          "duration": 0.6198901041666645
        },
        {
          "name": "A3",
          "midi": 57,
          "time": 48.392300000000056,
          "velocity": 0.5039370078740157,
          "duration": 0.6198901041666645
        },
        {
          "name": "A3",
          "midi": 57,
          "time": 49.04625000000005,
          "velocity": 0.5039370078740157,
          "duration": 0.6198901041666645
        },
        {
          "name": "E4",
          "midi": 64,
          "time": 49.04625000000005,
          "velocity": 0.5039370078740157,
          "duration": 0.6198901041666645
        },
        {
          "name": "E3",
          "midi": 52,
          "time": 49.700200000000045,
          "velocity": 0.5039370078740157,
          "duration": 0.20572177083333543
        },
        {
          "name": "A3",
          "midi": 57,
          "time": 49.700200000000045,
          "velocity": 0.5039370078740157,
          "duration": 0.20572177083333543
        },
        {
          "name": "E4",
          "midi": 64,
          "time": 49.91818333333338,
          "velocity": 0.5039370078740157,
          "duration": 0.20572177083333543
        },
        {
          "name": "A4",
          "midi": 69,
          "time": 50.13616666666672,
          "velocity": 0.5039370078740157,
          "duration": 0.20572177083333543
        },
        {
          "name": "A4",
          "midi": 69,
          "time": 50.354150000000054,
          "velocity": 0.5039370078740157,
          "duration": 0.4128059375000035
        },
        {
          "name": "C#5",
          "midi": 73,
          "time": 50.354150000000054,
          "velocity": 0.5039370078740157,
          "duration": 0.4128059375000035
        },
        {
          "name": "D4",
          "midi": 62,
          "time": 50.79011666666673,
          "velocity": 0.5039370078740157,
          "duration": 0.20572177083333543
        },
        {
          "name": "D3",
          "midi": 50,
          "time": 51.00810000000006,
          "velocity": 0.5039370078740157,
          "duration": 0.6198901041666645
        },
        {
          "name": "A3",
          "midi": 57,
          "time": 51.66205000000006,
          "velocity": 0.5039370078740157,
          "duration": 0.4128059375000035
        },
        {
          "name": "E4",
          "midi": 64,
          "time": 51.66205000000006,
          "velocity": 0.5039370078740157,
          "duration": 0.4128059375000035
        },
        {
          "name": "E4",
          "midi": 64,
          "time": 52.09801666666673,
          "velocity": 0.5039370078740157,
          "duration": 0.20572177083333543
        },
        {
          "name": "E3",
          "midi": 52,
          "time": 52.31600000000007,
          "velocity": 0.5039370078740157,
          "duration": 0.6198901041666645
        },
        {
          "name": "A3",
          "midi": 57,
          "time": 52.96995000000006,
          "velocity": 0.5039370078740157,
          "duration": 0.4128059375000035
        },
        {
          "name": "E4",
          "midi": 64,
          "time": 52.96995000000006,
          "velocity": 0.5039370078740157,
          "duration": 0.4128059375000035
        },
        {
          "name": "E4",
          "midi": 64,
          "time": 53.405916666666734,
          "velocity": 0.5039370078740157,
          "duration": 0.20572177083333543
        },
        {
          "name": "C#3",
          "midi": 49,
          "time": 53.62390000000007,
          "velocity": 0.5039370078740157,
          "duration": 0.6198901041666645
        },
        {
          "name": "F#3",
          "midi": 54,
          "time": 53.62390000000007,
          "velocity": 0.5039370078740157,
          "duration": 0.6198901041666645
        },
        {
          "name": "A3",
          "midi": 57,
          "time": 54.277850000000065,
          "velocity": 0.5039370078740157,
          "duration": 0.6198901041666645
        },
        {
          "name": "E4",
          "midi": 64,
          "time": 54.277850000000065,
          "velocity": 0.5039370078740157,
          "duration": 0.6198901041666645
        },
        {
          "name": "E3",
          "midi": 52,
          "time": 54.93180000000006,
          "velocity": 0.5039370078740157,
          "duration": 0.20572177083333543
        },
        {
          "name": "A3",
          "midi": 57,
          "time": 54.93180000000006,
          "velocity": 0.5039370078740157,
          "duration": 0.20572177083333543
        },
        {
          "name": "E4",
          "midi": 64,
          "time": 55.149783333333396,
          "velocity": 0.5039370078740157,
          "duration": 0.20572177083333543
        },
        {
          "name": "A4",
          "midi": 69,
          "time": 55.36776666666673,
          "velocity": 0.5039370078740157,
          "duration": 0.20572177083333543
        },
        {
          "name": "A4",
          "midi": 69,
          "time": 55.58575000000007,
          "velocity": 0.5039370078740157,
          "duration": 0.4128059375000035
        },
        {
          "name": "C#5",
          "midi": 73,
          "time": 55.58575000000007,
          "velocity": 0.5039370078740157,
          "duration": 0.4128059375000035
        },
        {
          "name": "D4",
          "midi": 62,
          "time": 56.02171666666674,
          "velocity": 0.5039370078740157,
          "duration": 0.20572177083333543
        },
        {
          "name": "A2",
          "midi": 45,
          "time": 56.23970000000008,
          "velocity": 0.5039370078740157,
          "duration": 0.6198901041666645
        },
        {
          "name": "D3",
          "midi": 50,
          "time": 56.23970000000008,
          "velocity": 0.5039370078740157,
          "duration": 0.6198901041666645
        },
        {
          "name": "A3",
          "midi": 57,
          "time": 56.89365000000007,
          "velocity": 0.3858267716535433,
          "duration": 0.4128059375000035
        },
        {
          "name": "E4",
          "midi": 64,
          "time": 56.89365000000007,
          "velocity": 0.3858267716535433,
          "duration": 0.4128059375000035
        },
        {
          "name": "E4",
          "midi": 64,
          "time": 57.329616666666745,
          "velocity": 0.3858267716535433,
          "duration": 0.20572177083333543
        },
        {
          "name": "A2",
          "midi": 45,
          "time": 57.54760000000008,
          "velocity": 0.3858267716535433,
          "duration": 0.6198901041666645
        },
        {
          "name": "D3",
          "midi": 50,
          "time": 57.54760000000008,
          "velocity": 0.3858267716535433,
          "duration": 0.6198901041666645
        },
        {
          "name": "A3",
          "midi": 57,
          "time": 58.201550000000076,
          "velocity": 0.5669291338582677,
          "duration": 0.4128059375000035
        },
        {
          "name": "E4",
          "midi": 64,
          "time": 58.201550000000076,
          "velocity": 0.5669291338582677,
          "duration": 0.4128059375000035
        },
        {
          "name": "E4",
          "midi": 64,
          "time": 58.63751666666675,
          "velocity": 0.6929133858267716,
          "duration": 0.20572177083333543
        },
        {
          "name": "F#2",
          "midi": 42,
          "time": 58.855500000000085,
          "velocity": 0.7559055118110236,
          "duration": 0.6198901041666645
        },
        {
          "name": "F#3",
          "midi": 54,
          "time": 58.855500000000085,
          "velocity": 0.7559055118110236,
          "duration": 0.6198901041666645
        },
        {
          "name": "A3",
          "midi": 57,
          "time": 59.50945000000008,
          "velocity": 0.7559055118110236,
          "duration": 0.6198901041666645
        },
        {
          "name": "E4",
          "midi": 64,
          "time": 59.50945000000008,
          "velocity": 0.7559055118110236,
          "duration": 0.6198901041666645
        },
        {
          "name": "A2",
          "midi": 45,
          "time": 60.163400000000074,
          "velocity": 0.7559055118110236,
          "duration": 0.20572177083333543
        },
        {
          "name": "A3",
          "midi": 57,
          "time": 60.163400000000074,
          "velocity": 0.7559055118110236,
          "duration": 0.20572177083333543
        },
        {
          "name": "E4",
          "midi": 64,
          "time": 60.38138333333341,
          "velocity": 0.7559055118110236,
          "duration": 0.20572177083333543
        },
        {
          "name": "C#4",
          "midi": 61,
          "time": 60.59936666666675,
          "velocity": 0.7559055118110236,
          "duration": 0.20572177083333543
        },
        {
          "name": "A4",
          "midi": 69,
          "time": 60.81735000000008,
          "velocity": 0.7559055118110236,
          "duration": 0.4128059375000035
        },
        {
          "name": "C#5",
          "midi": 73,
          "time": 60.81735000000008,
          "velocity": 0.7559055118110236,
          "duration": 0.4128059375000035
        },
        {
          "name": "D4",
          "midi": 62,
          "time": 61.253316666666755,
          "velocity": 0.7559055118110236,
          "duration": 0.20572177083333543
        },
        {
          "name": "D2",
          "midi": 38,
          "time": 61.47130000000009,
          "velocity": 0.7559055118110236,
          "duration": 0.6198901041666645
        },
        {
          "name": "D3",
          "midi": 50,
          "time": 61.47130000000009,
          "velocity": 0.7559055118110236,
          "duration": 0.6198901041666645
        },
        {
          "name": "A3",
          "midi": 57,
          "time": 62.12525000000009,
          "velocity": 0.7559055118110236,
          "duration": 0.4128059375000035
        },
        {
          "name": "E4",
          "midi": 64,
          "time": 62.12525000000009,
          "velocity": 0.7559055118110236,
          "duration": 0.4128059375000035
        },
        {
          "name": "E4",
          "midi": 64,
          "time": 62.56121666666676,
          "velocity": 0.7559055118110236,
          "duration": 0.20572177083333543
        },
        {
          "name": "E2",
          "midi": 40,
          "time": 62.779200000000095,
          "velocity": 0.7559055118110236,
          "duration": 0.6198901041666645
        },
        {
          "name": "E3",
          "midi": 52,
          "time": 62.779200000000095,
          "velocity": 0.7559055118110236,
          "duration": 0.6198901041666645
        },
        {
          "name": "A3",
          "midi": 57,
          "time": 63.43315000000009,
          "velocity": 0.7559055118110236,
          "duration": 0.4128059375000035
        },
        {
          "name": "E4",
          "midi": 64,
          "time": 63.43315000000009,
          "velocity": 0.7559055118110236,
          "duration": 0.4128059375000035
        },
        {
          "name": "E4",
          "midi": 64,
          "time": 63.86911666666676,
          "velocity": 0.7559055118110236,
          "duration": 0.20572177083332832
        },
        {
          "name": "F#2",
          "midi": 42,
          "time": 64.08710000000009,
          "velocity": 0.7559055118110236,
          "duration": 0.6198901041666858
        },
        {
          "name": "F#3",
          "midi": 54,
          "time": 64.08710000000009,
          "velocity": 0.7559055118110236,
          "duration": 0.6198901041666858
        },
        {
          "name": "A3",
          "midi": 57,
          "time": 64.74105000000012,
          "velocity": 0.7559055118110236,
          "duration": 0.6198901041666716
        },
        {
          "name": "E4",
          "midi": 64,
          "time": 64.74105000000012,
          "velocity": 0.7559055118110236,
          "duration": 0.6198901041666716
        },
        {
          "name": "A2",
          "midi": 45,
          "time": 65.39500000000012,
          "velocity": 0.7559055118110236,
          "duration": 0.20572177083333543
        },
        {
          "name": "A3",
          "midi": 57,
          "time": 65.39500000000012,
          "velocity": 0.7559055118110236,
          "duration": 0.20572177083333543
        },
        {
          "name": "E4",
          "midi": 64,
          "time": 65.61298333333346,
          "velocity": 0.7559055118110236,
          "duration": 0.20572177083333543
        },
        {
          "name": "C#4",
          "midi": 61,
          "time": 65.8309666666668,
          "velocity": 0.7559055118110236,
          "duration": 0.20572177083333543
        },
        {
          "name": "A4",
          "midi": 69,
          "time": 66.04895000000013,
          "velocity": 0.7559055118110236,
          "duration": 0.6198901041666716
        },
        {
          "name": "C#5",
          "midi": 73,
          "time": 66.04895000000013,
          "velocity": 0.7559055118110236,
          "duration": 0.6198901041666716
        },
        {
          "name": "A2",
          "midi": 45,
          "time": 66.70290000000014,
          "velocity": 0.7559055118110236,
          "duration": 0.6198901041666858
        },
        {
          "name": "D3",
          "midi": 50,
          "time": 66.70290000000014,
          "velocity": 0.7559055118110236,
          "duration": 0.6198901041666858
        },
        {
          "name": "A3",
          "midi": 57,
          "time": 67.35685000000016,
          "velocity": 0.7559055118110236,
          "duration": 0.4128059374999964
        },
        {
          "name": "E4",
          "midi": 64,
          "time": 67.35685000000016,
          "velocity": 0.7559055118110236,
          "duration": 0.4128059374999964
        },
        {
          "name": "E4",
          "midi": 64,
          "time": 67.79281666666682,
          "velocity": 0.7007874015748031,
          "duration": 0.20572177083333543
        },
        {
          "name": "D3",
          "midi": 50,
          "time": 68.01080000000016,
          "velocity": 0.6771653543307087,
          "duration": 0.6198901041666716
        },
        {
          "name": "A3",
          "midi": 57,
          "time": 68.66475000000017,
          "velocity": 0.5905511811023622,
          "duration": 0.4128059374999964
        },
        {
          "name": "E4",
          "midi": 64,
          "time": 68.66475000000017,
          "velocity": 0.5905511811023622,
          "duration": 0.4128059374999964
        },
        {
          "name": "E4",
          "midi": 64,
          "time": 69.10071666666683,
          "velocity": 0.5354330708661418,
          "duration": 0.20572177083333543
        },
        {
          "name": "E2",
          "midi": 40,
          "time": 69.31870000000016,
          "velocity": 0.5039370078740157,
          "duration": 0.6198901041666858
        },
        {
          "name": "E3",
          "midi": 52,
          "time": 69.31870000000016,
          "velocity": 0.5039370078740157,
          "duration": 0.6198901041666858
        },
        {
          "name": "E4",
          "midi": 64,
          "time": 69.97265000000019,
          "velocity": 0.5039370078740157,
          "duration": 0.6198901041666716
        },
        {
          "name": "E3",
          "midi": 52,
          "time": 70.6266000000002,
          "velocity": 0.5039370078740157,
          "duration": 0.6198901041666716
        },
        {
          "name": "B3",
          "midi": 59,
          "time": 70.6266000000002,
          "velocity": 0.5039370078740157,
          "duration": 0.6198901041666716
        },
        {
          "name": "E3",
          "midi": 52,
          "time": 71.2805500000002,
          "velocity": 0.5039370078740157,
          "duration": 0.6198901041666716
        },
        {
          "name": "E2",
          "midi": 40,
          "time": 71.93450000000021,
          "velocity": 0.5039370078740157,
          "duration": 0.6198901041666716
        },
        {
          "name": "B2",
          "midi": 47,
          "time": 71.93450000000021,
          "velocity": 0.5039370078740157,
          "duration": 0.6198901041666716
        },
        {
          "name": "E3",
          "midi": 52,
          "time": 71.93450000000021,
          "velocity": 0.5039370078740157,
          "duration": 0.6198901041666716
        },
        {
          "name": "E2",
          "midi": 40,
          "time": 72.58845000000022,
          "velocity": 0.5039370078740157,
          "duration": 0.6198901041666716
        },
        {
          "name": "B3",
          "midi": 59,
          "time": 73.24240000000023,
          "velocity": 0.5039370078740157,
          "duration": 0.6198901041666716
        },
        {
          "name": "E4",
          "midi": 64,
          "time": 73.24240000000023,
          "velocity": 0.5039370078740157,
          "duration": 0.6198901041666716
        },
        {
          "name": "E4",
          "midi": 64,
          "time": 73.89635000000024,
          "velocity": 0.6929133858267716,
          "duration": 0.6198901041666716
        },
        {
          "name": "F#2",
          "midi": 42,
          "time": 74.55030000000025,
          "velocity": 0.8818897637795275,
          "duration": 1.2411426041666829
        },
        {
          "name": "C#3",
          "midi": 49,
          "time": 74.55030000000025,
          "velocity": 0.8818897637795275,
          "duration": 1.2411426041666829
        },
        {
          "name": "F#3",
          "midi": 54,
          "time": 74.55030000000025,
          "velocity": 0.8818897637795275,
          "duration": 1.2411426041666829
        },
        {
          "name": "A2",
          "midi": 45,
          "time": 75.85820000000027,
          "velocity": 0.8818897637795275,
          "duration": 1.2411426041666687
        },
        {
          "name": "E3",
          "midi": 52,
          "time": 75.85820000000027,
          "velocity": 0.8818897637795275,
          "duration": 1.2411426041666687
        },
        {
          "name": "A3",
          "midi": 57,
          "time": 75.85820000000027,
          "velocity": 0.8818897637795275,
          "duration": 1.0899166666666673
        },
        {
          "name": "D2",
          "midi": 38,
          "time": 77.16610000000027,
          "velocity": 0.8818897637795275,
          "duration": 1.2411426041666829
        },
        {
          "name": "A2",
          "midi": 45,
          "time": 77.16610000000027,
          "velocity": 0.8818897637795275,
          "duration": 1.2411426041666829
        },
        {
          "name": "D3",
          "midi": 50,
          "time": 77.16610000000027,
          "velocity": 0.8818897637795275,
          "duration": 1.2411426041666829
        },
        {
          "name": "D2",
          "midi": 38,
          "time": 78.47400000000029,
          "velocity": 0.8818897637795275,
          "duration": 1.2411426041666687
        },
        {
          "name": "A2",
          "midi": 45,
          "time": 78.47400000000029,
          "velocity": 0.8818897637795275,
          "duration": 1.2411426041666687
        },
        {
          "name": "F#2",
          "midi": 42,
          "time": 79.78190000000029,
          "velocity": 0.8818897637795275,
          "duration": 1.2411426041666829
        },
        {
          "name": "C#3",
          "midi": 49,
          "time": 79.78190000000029,
          "velocity": 0.8818897637795275,
          "duration": 1.2411426041666829
        },
        {
          "name": "F#3",
          "midi": 54,
          "time": 79.78190000000029,
          "velocity": 0.8818897637795275,
          "duration": 1.2411426041666829
        },
        {
          "name": "A2",
          "midi": 45,
          "time": 81.08980000000031,
          "velocity": 0.8818897637795275,
          "duration": 1.2411426041666687
        },
        {
          "name": "E3",
          "midi": 52,
          "time": 81.08980000000031,
          "velocity": 0.8818897637795275,
          "duration": 1.2411426041666687
        },
        {
          "name": "A3",
          "midi": 57,
          "time": 81.08980000000031,
          "velocity": 0.8818897637795275,
          "duration": 1.0899166666666673
        },
        {
          "name": "D2",
          "midi": 38,
          "time": 82.39770000000031,
          "velocity": 0.8818897637795275,
          "duration": 1.2411426041666829
        },
        {
          "name": "A2",
          "midi": 45,
          "time": 82.39770000000031,
          "velocity": 0.8818897637795275,
          "duration": 1.2411426041666829
        },
        {
          "name": "D3",
          "midi": 50,
          "time": 82.39770000000031,
          "velocity": 0.8818897637795275,
          "duration": 1.2411426041666829
        },
        {
          "name": "D2",
          "midi": 38,
          "time": 83.70560000000033,
          "velocity": 0.8818897637795275,
          "duration": 1.0340584374999935
        },
        {
          "name": "A2",
          "midi": 45,
          "time": 83.70560000000033,
          "velocity": 0.8818897637795275,
          "duration": 1.0340584374999935
        },
        {
          "name": "E3",
          "midi": 52,
          "time": 84.79551666666698,
          "velocity": 0.8818897637795275,
          "duration": 0.20572177083333543
        },
        {
          "name": "F#2",
          "midi": 42,
          "time": 85.01350000000032,
          "velocity": 0.8818897637795275,
          "duration": 1.2411426041666829
        },
        {
          "name": "C#3",
          "midi": 49,
          "time": 85.01350000000032,
          "velocity": 0.8818897637795275,
          "duration": 1.2411426041666829
        },
        {
          "name": "F#3",
          "midi": 54,
          "time": 85.01350000000032,
          "velocity": 0.8818897637795275,
          "duration": 1.2411426041666829
        },
        {
          "name": "A2",
          "midi": 45,
          "time": 86.32140000000034,
          "velocity": 0.8818897637795275,
          "duration": 1.2411426041666687
        },
        {
          "name": "E3",
          "midi": 52,
          "time": 86.32140000000034,
          "velocity": 0.8818897637795275,
          "duration": 1.2411426041666687
        },
        {
          "name": "A3",
          "midi": 57,
          "time": 86.32140000000034,
          "velocity": 0.8818897637795275,
          "duration": 1.0899166666666673
        },
        {
          "name": "D2",
          "midi": 38,
          "time": 87.62930000000034,
          "velocity": 0.8818897637795275,
          "duration": 1.2411426041666829
        },
        {
          "name": "A2",
          "midi": 45,
          "time": 87.62930000000034,
          "velocity": 0.8818897637795275,
          "duration": 1.2411426041666829
        },
        {
          "name": "D3",
          "midi": 50,
          "time": 87.62930000000034,
          "velocity": 0.8818897637795275,
          "duration": 1.2411426041666829
        },
        {
          "name": "D2",
          "midi": 38,
          "time": 88.93720000000036,
          "velocity": 0.8818897637795275,
          "duration": 1.2411426041666687
        },
        {
          "name": "A2",
          "midi": 45,
          "time": 88.93720000000036,
          "velocity": 0.8818897637795275,
          "duration": 1.2411426041666687
        },
        {
          "name": "F#2",
          "midi": 42,
          "time": 90.24510000000036,
          "velocity": 0.8818897637795275,
          "duration": 1.2411426041666829
        },
        {
          "name": "C#3",
          "midi": 49,
          "time": 90.24510000000036,
          "velocity": 0.8818897637795275,
          "duration": 1.2411426041666829
        },
        {
          "name": "F#3",
          "midi": 54,
          "time": 90.24510000000036,
          "velocity": 0.8818897637795275,
          "duration": 1.2411426041666829
        },
        {
          "name": "A2",
          "midi": 45,
          "time": 91.55300000000038,
          "velocity": 0.8818897637795275,
          "duration": 1.2411426041666687
        },
        {
          "name": "E3",
          "midi": 52,
          "time": 91.55300000000038,
          "velocity": 0.8818897637795275,
          "duration": 1.2411426041666687
        },
        {
          "name": "A3",
          "midi": 57,
          "time": 91.55300000000038,
          "velocity": 0.8818897637795275,
          "duration": 1.0899166666666673
        },
        {
          "name": "D2",
          "midi": 38,
          "time": 92.86090000000038,
          "velocity": 0.8818897637795275,
          "duration": 1.2411426041666829
        },
        {
          "name": "A2",
          "midi": 45,
          "time": 92.86090000000038,
          "velocity": 0.8818897637795275,
          "duration": 1.2411426041666829
        },
        {
          "name": "D3",
          "midi": 50,
          "time": 92.86090000000038,
          "velocity": 0.8818897637795275,
          "duration": 1.2411426041666829
        },
        {
          "name": "A2",
          "midi": 45,
          "time": 94.1688000000004,
          "velocity": 0.8818897637795275,
          "duration": 1.2411426041666687
        },
        {
          "name": "D3",
          "midi": 50,
          "time": 94.1688000000004,
          "velocity": 0.8818897637795275,
          "duration": 1.2411426041666687
        },
        {
          "name": "F#2",
          "midi": 42,
          "time": 95.4767000000004,
          "velocity": 0.6299212598425197,
          "duration": 0.6198901041666858
        },
        {
          "name": "F#3",
          "midi": 54,
          "time": 95.4767000000004,
          "velocity": 0.6299212598425197,
          "duration": 0.6198901041666858
        },
        {
          "name": "A3",
          "midi": 57,
          "time": 96.13065000000043,
          "velocity": 0.6299212598425197,
          "duration": 0.4128059374999964
        },
        {
          "name": "E4",
          "midi": 64,
          "time": 96.13065000000043,
          "velocity": 0.6299212598425197,
          "duration": 0.4128059374999964
        },
        {
          "name": "E4",
          "midi": 64,
          "time": 96.56661666666709,
          "velocity": 0.6299212598425197,
          "duration": 0.20572177083333543
        },
        {
          "name": "E3",
          "midi": 52,
          "time": 96.78460000000042,
          "velocity": 0.6299212598425197,
          "duration": 0.20572177083333543
        },
        {
          "name": "A3",
          "midi": 57,
          "time": 96.78460000000042,
          "velocity": 0.6299212598425197,
          "duration": 0.20572177083333543
        },
        {
          "name": "E4",
          "midi": 64,
          "time": 97.00258333333376,
          "velocity": 0.6299212598425197,
          "duration": 0.20572177083333543
        },
        {
          "name": "A4",
          "midi": 69,
          "time": 97.2205666666671,
          "velocity": 0.6299212598425197,
          "duration": 0.2179833333333363
        },
        {
          "name": "A4",
          "midi": 69,
          "time": 97.43855000000043,
          "velocity": 0.6299212598425197,
          "duration": 0.587192604166674
        },
        {
          "name": "C#5",
          "midi": 73,
          "time": 97.43855000000043,
          "velocity": 0.6299212598425197,
          "duration": 0.587192604166674
        },
        {
          "name": "D4",
          "midi": 62,
          "time": 97.8745166666671,
          "velocity": 0.6299212598425197,
          "duration": 0.20572177083333543
        },
        {
          "name": "A2",
          "midi": 45,
          "time": 98.09250000000044,
          "velocity": 0.6299212598425197,
          "duration": 0.6198901041666858
        },
        {
          "name": "D3",
          "midi": 50,
          "time": 98.09250000000044,
          "velocity": 0.6299212598425197,
          "duration": 0.6198901041666858
        },
        {
          "name": "A3",
          "midi": 57,
          "time": 98.74645000000046,
          "velocity": 0.6299212598425197,
          "duration": 0.4128059374999964
        },
        {
          "name": "E4",
          "midi": 64,
          "time": 98.74645000000046,
          "velocity": 0.6299212598425197,
          "duration": 0.4128059374999964
        },
        {
          "name": "E4",
          "midi": 64,
          "time": 99.18241666666712,
          "velocity": 0.6299212598425197,
          "duration": 0.20572177083333543
        },
        {
          "name": "B2",
          "midi": 47,
          "time": 99.40040000000046,
          "velocity": 0.6299212598425197,
          "duration": 0.6198901041666716
        },
        {
          "name": "E3",
          "midi": 52,
          "time": 99.40040000000046,
          "velocity": 0.6299212598425197,
          "duration": 0.6198901041666716
        },
        {
          "name": "A3",
          "midi": 57,
          "time": 100.05435000000047,
          "velocity": 0.6299212598425197,
          "duration": 0.4128059374999964
        },
        {
          "name": "E4",
          "midi": 64,
          "time": 100.05435000000047,
          "velocity": 0.6299212598425197,
          "duration": 0.4128059374999964
        },
        {
          "name": "E4",
          "midi": 64,
          "time": 100.49031666666713,
          "velocity": 0.6299212598425197,
          "duration": 0.20572177083333543
        },
        {
          "name": "C#3",
          "midi": 49,
          "time": 100.70830000000046,
          "velocity": 0.6299212598425197,
          "duration": 0.6198901041666858
        },
        {
          "name": "F#3",
          "midi": 54,
          "time": 100.70830000000046,
          "velocity": 0.6299212598425197,
          "duration": 0.6198901041666858
        },
        {
          "name": "A3",
          "midi": 57,
          "time": 101.36225000000049,
          "velocity": 0.6299212598425197,
          "duration": 0.4128059374999964
        },
        {
          "name": "E4",
          "midi": 64,
          "time": 101.36225000000049,
          "velocity": 0.6299212598425197,
          "duration": 0.4128059374999964
        },
        {
          "name": "E4",
          "midi": 64,
          "time": 101.79821666666714,
          "velocity": 0.6299212598425197,
          "duration": 0.20572177083333543
        },
        {
          "name": "E3",
          "midi": 52,
          "time": 102.01620000000048,
          "velocity": 0.6299212598425197,
          "duration": 0.20572177083333543
        },
        {
          "name": "A3",
          "midi": 57,
          "time": 102.01620000000048,
          "velocity": 0.6299212598425197,
          "duration": 0.20572177083333543
        },
        {
          "name": "A4",
          "midi": 69,
          "time": 102.23418333333382,
          "velocity": 0.6299212598425197,
          "duration": 0.36920927083333765
        },
        {
          "name": "E4",
          "midi": 64,
          "time": 102.45216666666715,
          "velocity": 0.6299212598425197,
          "duration": 0.20572177083333543
        },
        {
          "name": "A4",
          "midi": 69,
          "time": 102.67015000000049,
          "velocity": 0.6299212598425197,
          "duration": 0.4128059374999964
        },
        {
          "name": "C#5",
          "midi": 73,
          "time": 102.67015000000049,
          "velocity": 0.6299212598425197,
          "duration": 0.4128059374999964
        },
        {
          "name": "D4",
          "midi": 62,
          "time": 103.10611666666715,
          "velocity": 0.6299212598425197,
          "duration": 0.20572177083333543
        },
        {
          "name": "A2",
          "midi": 45,
          "time": 103.32410000000048,
          "velocity": 0.6299212598425197,
          "duration": 0.20572177083334964
        },
        {
          "name": "D3",
          "midi": 50,
          "time": 103.32410000000048,
          "velocity": 0.6299212598425197,
          "duration": 0.20572177083334964
        },
        {
          "name": "A3",
          "midi": 57,
          "time": 103.54208333333384,
          "velocity": 0.6299212598425197,
          "duration": 0.20572177083333543
        },
        {
          "name": "F#3",
          "midi": 54,
          "time": 103.76006666666717,
          "velocity": 0.6299212598425197,
          "duration": 0.20572177083333543
        },
        {
          "name": "A3",
          "midi": 57,
          "time": 103.97805000000051,
          "velocity": 0.6299212598425197,
          "duration": 0.4128059374999964
        },
        {
          "name": "E4",
          "midi": 64,
          "time": 103.97805000000051,
          "velocity": 0.6299212598425197,
          "duration": 0.4128059374999964
        },
        {
          "name": "E4",
          "midi": 64,
          "time": 104.41401666666717,
          "velocity": 0.6299212598425197,
          "duration": 0.20572177083333543
        },
        {
          "name": "B2",
          "midi": 47,
          "time": 104.6320000000005,
          "velocity": 0.6299212598425197,
          "duration": 0.20572177083333543
        },
        {
          "name": "E3",
          "midi": 52,
          "time": 104.6320000000005,
          "velocity": 0.6299212598425197,
          "duration": 0.20572177083333543
        },
        {
          "name": "B3",
          "midi": 59,
          "time": 104.84998333333384,
          "velocity": 0.6299212598425197,
          "duration": 0.20572177083333543
        },
        {
          "name": "G#3",
          "midi": 56,
          "time": 105.06796666666717,
          "velocity": 0.6299212598425197,
          "duration": 0.20572177083333543
        },
        {
          "name": "A3",
          "midi": 57,
          "time": 105.28595000000051,
          "velocity": 0.6299212598425197,
          "duration": 0.4128059374999964
        },
        {
          "name": "E4",
          "midi": 64,
          "time": 105.28595000000051,
          "velocity": 0.6299212598425197,
          "duration": 0.4128059374999964
        },
        {
          "name": "B3",
          "midi": 59,
          "time": 105.72191666666717,
          "velocity": 0.6299212598425197,
          "duration": 0.20572177083333543
        },
        {
          "name": "F#2",
          "midi": 42,
          "time": 105.9399000000005,
          "velocity": 0.6299212598425197,
          "duration": 0.6198901041666858
        },
        {
          "name": "F#3",
          "midi": 54,
          "time": 105.9399000000005,
          "velocity": 0.6299212598425197,
          "duration": 0.6198901041666858
        },
        {
          "name": "A3",
          "midi": 57,
          "time": 106.59385000000053,
          "velocity": 0.6299212598425197,
          "duration": 0.4128059374999964
        },
        {
          "name": "E4",
          "midi": 64,
          "time": 106.59385000000053,
          "velocity": 0.6299212598425197,
          "duration": 0.4128059374999964
        },
        {
          "name": "E4",
          "midi": 64,
          "time": 107.02981666666719,
          "velocity": 0.6299212598425197,
          "duration": 0.20572177083333543
        },
        {
          "name": "E3",
          "midi": 52,
          "time": 107.24780000000052,
          "velocity": 0.6299212598425197,
          "duration": 0.20572177083333543
        },
        {
          "name": "A3",
          "midi": 57,
          "time": 107.24780000000052,
          "velocity": 0.6299212598425197,
          "duration": 0.20572177083333543
        },
        {
          "name": "E4",
          "midi": 64,
          "time": 107.46578333333386,
          "velocity": 0.6299212598425197,
          "duration": 0.20572177083333543
        },
        {
          "name": "A4",
          "midi": 69,
          "time": 107.6837666666672,
          "velocity": 0.6299212598425197,
          "duration": 0.2179833333333363
        },
        {
          "name": "A4",
          "midi": 69,
          "time": 107.90175000000053,
          "velocity": 0.6299212598425197,
          "duration": 0.587192604166674
        },
        {
          "name": "C#5",
          "midi": 73,
          "time": 107.90175000000053,
          "velocity": 0.6299212598425197,
          "duration": 0.587192604166674
        },
        {
          "name": "D4",
          "midi": 62,
          "time": 108.3377166666672,
          "velocity": 0.6299212598425197,
          "duration": 0.20572177083333543
        },
        {
          "name": "A2",
          "midi": 45,
          "time": 108.55570000000054,
          "velocity": 0.6299212598425197,
          "duration": 0.6198901041666858
        },
        {
          "name": "D3",
          "midi": 50,
          "time": 108.55570000000054,
          "velocity": 0.6299212598425197,
          "duration": 0.6198901041666858
        },
        {
          "name": "A3",
          "midi": 57,
          "time": 109.20965000000056,
          "velocity": 0.6299212598425197,
          "duration": 0.4128059374999964
        },
        {
          "name": "E4",
          "midi": 64,
          "time": 109.20965000000056,
          "velocity": 0.6299212598425197,
          "duration": 0.4128059374999964
        },
        {
          "name": "E4",
          "midi": 64,
          "time": 109.64561666666722,
          "velocity": 0.6299212598425197,
          "duration": 0.20572177083333543
        },
        {
          "name": "B2",
          "midi": 47,
          "time": 109.86360000000056,
          "velocity": 0.6299212598425197,
          "duration": 0.6198901041666716
        },
        {
          "name": "E3",
          "midi": 52,
          "time": 109.86360000000056,
          "velocity": 0.6299212598425197,
          "duration": 0.6198901041666716
        },
        {
          "name": "A3",
          "midi": 57,
          "time": 110.51755000000057,
          "velocity": 0.6299212598425197,
          "duration": 0.4128059374999964
        },
        {
          "name": "E4",
          "midi": 64,
          "time": 110.51755000000057,
          "velocity": 0.6299212598425197,
          "duration": 0.4128059374999964
        },
        {
          "name": "E4",
          "midi": 64,
          "time": 110.95351666666723,
          "velocity": 0.6299212598425197,
          "duration": 0.20572177083333543
        },
        {
          "name": "C#3",
          "midi": 49,
          "time": 111.17150000000056,
          "velocity": 0.6299212598425197,
          "duration": 0.6198901041666858
        },
        {
          "name": "F#3",
          "midi": 54,
          "time": 111.17150000000056,
          "velocity": 0.6299212598425197,
          "duration": 0.6198901041666858
        },
        {
          "name": "A3",
          "midi": 57,
          "time": 111.82545000000059,
          "velocity": 0.6299212598425197,
          "duration": 0.4128059374999964
        },
        {
          "name": "E4",
          "midi": 64,
          "time": 111.82545000000059,
          "velocity": 0.6299212598425197,
          "duration": 0.4128059374999964
        },
        {
          "name": "E4",
          "midi": 64,
          "time": 112.26141666666724,
          "velocity": 0.6299212598425197,
          "duration": 0.20572177083333543
        },
        {
          "name": "E3",
          "midi": 52,
          "time": 112.47940000000058,
          "velocity": 0.6299212598425197,
          "duration": 0.20572177083333543
        },
        {
          "name": "A3",
          "midi": 57,
          "time": 112.47940000000058,
          "velocity": 0.6299212598425197,
          "duration": 0.20572177083333543
        },
        {
          "name": "A4",
          "midi": 69,
          "time": 112.69738333333392,
          "velocity": 0.6299212598425197,
          "duration": 0.36920927083333765
        },
        {
          "name": "E4",
          "midi": 64,
          "time": 112.91536666666725,
          "velocity": 0.6299212598425197,
          "duration": 0.20572177083333543
        },
        {
          "name": "A4",
          "midi": 69,
          "time": 113.13335000000059,
          "velocity": 0.6299212598425197,
          "duration": 0.4128059374999964
        },
        {
          "name": "C#5",
          "midi": 73,
          "time": 113.13335000000059,
          "velocity": 0.6299212598425197,
          "duration": 0.4128059374999964
        },
        {
          "name": "D4",
          "midi": 62,
          "time": 113.56931666666725,
          "velocity": 0.6299212598425197,
          "duration": 0.20572177083333543
        },
        {
          "name": "A2",
          "midi": 45,
          "time": 113.78730000000058,
          "velocity": 0.6299212598425197,
          "duration": 0.20572177083334964
        },
        {
          "name": "D3",
          "midi": 50,
          "time": 113.78730000000058,
          "velocity": 0.6299212598425197,
          "duration": 0.20572177083334964
        },
        {
          "name": "A3",
          "midi": 57,
          "time": 114.00528333333394,
          "velocity": 0.6299212598425197,
          "duration": 0.20572177083333543
        },
        {
          "name": "F#3",
          "midi": 54,
          "time": 114.22326666666727,
          "velocity": 0.6299212598425197,
          "duration": 0.20572177083333543
        },
        {
          "name": "A3",
          "midi": 57,
          "time": 114.44125000000061,
          "velocity": 0.6299212598425197,
          "duration": 0.4128059374999964
        },
        {
          "name": "E4",
          "midi": 64,
          "time": 114.44125000000061,
          "velocity": 0.6299212598425197,
          "duration": 0.4128059374999964
        },
        {
          "name": "E4",
          "midi": 64,
          "time": 114.87721666666727,
          "velocity": 0.6299212598425197,
          "duration": 0.20572177083333543
        },
        {
          "name": "B2",
          "midi": 47,
          "time": 115.0952000000006,
          "velocity": 0.6299212598425197,
          "duration": 0.20572177083333543
        },
        {
          "name": "E3",
          "midi": 52,
          "time": 115.0952000000006,
          "velocity": 0.6299212598425197,
          "duration": 0.20572177083333543
        },
        {
          "name": "B3",
          "midi": 59,
          "time": 115.31318333333394,
          "velocity": 0.6299212598425197,
          "duration": 0.20572177083333543
        },
        {
          "name": "G#3",
          "midi": 56,
          "time": 115.53116666666727,
          "velocity": 0.6299212598425197,
          "duration": 0.20572177083333543
        },
        {
          "name": "A3",
          "midi": 57,
          "time": 115.74915000000061,
          "velocity": 0.6299212598425197,
          "duration": 0.4128059374999964
        },
        {
          "name": "E4",
          "midi": 64,
          "time": 115.74915000000061,
          "velocity": 0.6299212598425197,
          "duration": 0.4128059374999964
        },
        {
          "name": "B3",
          "midi": 59,
          "time": 116.18511666666727,
          "velocity": 0.6299212598425197,
          "duration": 0.20572177083333543
        },
        {
          "name": "F#2",
          "midi": 42,
          "time": 116.4031000000006,
          "velocity": 0.6299212598425197,
          "duration": 0.6198901041666858
        },
        {
          "name": "F#3",
          "midi": 54,
          "time": 116.4031000000006,
          "velocity": 0.6299212598425197,
          "duration": 0.6198901041666858
        },
        {
          "name": "A3",
          "midi": 57,
          "time": 117.05705000000063,
          "velocity": 0.6299212598425197,
          "duration": 0.6198901041666716
        },
        {
          "name": "E4",
          "midi": 64,
          "time": 117.05705000000063,
          "velocity": 0.6299212598425197,
          "duration": 0.6198901041666716
        },
        {
          "name": "A2",
          "midi": 45,
          "time": 117.71100000000064,
          "velocity": 0.6299212598425197,
          "duration": 0.20572177083333543
        },
        {
          "name": "A3",
          "midi": 57,
          "time": 117.71100000000064,
          "velocity": 0.6299212598425197,
          "duration": 0.20572177083333543
        },
        {
          "name": "E4",
          "midi": 64,
          "time": 117.92898333333397,
          "velocity": 0.6299212598425197,
          "duration": 0.20572177083333543
        },
        {
          "name": "C#4",
          "midi": 61,
          "time": 118.14696666666731,
          "velocity": 0.6299212598425197,
          "duration": 0.20572177083333543
        },
        {
          "name": "A4",
          "midi": 69,
          "time": 118.36495000000065,
          "velocity": 0.6299212598425197,
          "duration": 0.4128059374999964
        },
        {
          "name": "C#5",
          "midi": 73,
          "time": 118.36495000000065,
          "velocity": 0.6299212598425197,
          "duration": 0.4128059374999964
        },
        {
          "name": "D4",
          "midi": 62,
          "time": 118.8009166666673,
          "velocity": 0.6299212598425197,
          "duration": 0.20572177083333543
        },
        {
          "name": "D2",
          "midi": 38,
          "time": 119.01890000000064,
          "velocity": 0.6299212598425197,
          "duration": 0.6198901041666858
        },
        {
          "name": "D3",
          "midi": 50,
          "time": 119.01890000000064,
          "velocity": 0.6299212598425197,
          "duration": 0.6198901041666858
        },
        {
          "name": "A3",
          "midi": 57,
          "time": 119.67285000000066,
          "velocity": 0.6299212598425197,
          "duration": 0.4128059374999964
        },
        {
          "name": "E4",
          "midi": 64,
          "time": 119.67285000000066,
          "velocity": 0.6299212598425197,
          "duration": 0.4128059374999964
        },
        {
          "name": "E4",
          "midi": 64,
          "time": 120.10881666666732,
          "velocity": 0.6299212598425197,
          "duration": 0.20572177083333543
        },
        {
          "name": "E2",
          "midi": 40,
          "time": 120.32680000000066,
          "velocity": 0.6299212598425197,
          "duration": 0.6198901041666716
        },
        {
          "name": "E3",
          "midi": 52,
          "time": 120.32680000000066,
          "velocity": 0.6299212598425197,
          "duration": 0.6198901041666716
        },
        {
          "name": "A3",
          "midi": 57,
          "time": 120.98075000000067,
          "velocity": 0.6299212598425197,
          "duration": 0.4128059374999964
        },
        {
          "name": "E4",
          "midi": 64,
          "time": 120.98075000000067,
          "velocity": 0.6299212598425197,
          "duration": 0.4128059374999964
        },
        {
          "name": "E4",
          "midi": 64,
          "time": 121.41671666666733,
          "velocity": 0.6299212598425197,
          "duration": 0.20572177083333543
        },
        {
          "name": "C#3",
          "midi": 49,
          "time": 121.63470000000066,
          "velocity": 0.6299212598425197,
          "duration": 0.6198901041666858
        },
        {
          "name": "F#3",
          "midi": 54,
          "time": 121.63470000000066,
          "velocity": 0.6299212598425197,
          "duration": 0.6198901041666858
        },
        {
          "name": "A3",
          "midi": 57,
          "time": 122.28865000000069,
          "velocity": 0.5984251968503937,
          "duration": 0.6198901041666716
        },
        {
          "name": "E4",
          "midi": 64,
          "time": 122.28865000000069,
          "velocity": 0.5984251968503937,
          "duration": 0.6198901041666716
        },
        {
          "name": "A2",
          "midi": 45,
          "time": 122.9426000000007,
          "velocity": 0.5669291338582677,
          "duration": 0.20572177083333543
        },
        {
          "name": "A3",
          "midi": 57,
          "time": 122.9426000000007,
          "velocity": 0.5669291338582677,
          "duration": 0.20572177083333543
        },
        {
          "name": "E4",
          "midi": 64,
          "time": 123.16058333333403,
          "velocity": 0.5590551181102362,
          "duration": 0.20572177083333543
        },
        {
          "name": "C#4",
          "midi": 61,
          "time": 123.37856666666737,
          "velocity": 0.5511811023622047,
          "duration": 0.20572177083333543
        },
        {
          "name": "A4",
          "midi": 69,
          "time": 123.5965500000007,
          "velocity": 0.5354330708661418,
          "duration": 0.4128059374999964
        },
        {
          "name": "C#5",
          "midi": 73,
          "time": 123.5965500000007,
          "velocity": 0.5354330708661418,
          "duration": 0.4128059374999964
        },
        {
          "name": "D4",
          "midi": 62,
          "time": 124.03251666666736,
          "velocity": 0.5196850393700787,
          "duration": 0.20572177083333543
        },
        {
          "name": "D2",
          "midi": 38,
          "time": 124.2505000000007,
          "velocity": 0.5039370078740157,
          "duration": 0.6198901041666858
        },
        {
          "name": "D3",
          "midi": 50,
          "time": 124.2505000000007,
          "velocity": 0.5039370078740157,
          "duration": 0.6198901041666858
        },
        {
          "name": "A3",
          "midi": 57,
          "time": 124.90445000000072,
          "velocity": 0.5669291338582677,
          "duration": 0.4128059374999964
        },
        {
          "name": "E4",
          "midi": 64,
          "time": 124.90445000000072,
          "velocity": 0.5669291338582677,
          "duration": 0.4128059374999964
        },
        {
          "name": "E4",
          "midi": 64,
          "time": 125.34041666666738,
          "velocity": 0.6377952755905512,
          "duration": 0.20572177083333543
        },
        {
          "name": "D2",
          "midi": 38,
          "time": 125.55840000000072,
          "velocity": 0.6692913385826772,
          "duration": 0.6198901041666716
        },
        {
          "name": "D3",
          "midi": 50,
          "time": 125.55840000000072,
          "velocity": 0.6692913385826772,
          "duration": 0.6198901041666716
        },
        {
          "name": "A3",
          "midi": 57,
          "time": 126.21235000000073,
          "velocity": 0.7716535433070866,
          "duration": 0.20572177083333543
        },
        {
          "name": "E4",
          "midi": 64,
          "time": 126.21235000000073,
          "velocity": 0.7716535433070866,
          "duration": 0.20572177083333543
        },
        {
          "name": "A2",
          "midi": 45,
          "time": 126.43033333333406,
          "velocity": 0.8110236220472441,
          "duration": 0.20572177083333543
        },
        {
          "name": "E3",
          "midi": 52,
          "time": 126.43033333333406,
          "velocity": 0.8110236220472441,
          "duration": 0.20572177083333543
        },
        {
          "name": "A3",
          "midi": 57,
          "time": 126.43033333333406,
          "velocity": 0.8110236220472441,
          "duration": 0.20572177083333543
        },
        {
          "name": "B2",
          "midi": 47,
          "time": 126.6483166666674,
          "velocity": 0.84251968503937,
          "duration": 0.20572177083333543
        },
        {
          "name": "E3",
          "midi": 52,
          "time": 126.6483166666674,
          "velocity": 0.84251968503937,
          "duration": 0.20572177083333543
        },
        {
          "name": "B3",
          "midi": 59,
          "time": 126.6483166666674,
          "velocity": 0.84251968503937,
          "duration": 0.20572177083333543
        },
        {
          "name": "F#2",
          "midi": 42,
          "time": 126.86630000000073,
          "velocity": 0.8818897637795275,
          "duration": 0.6198901041666858
        },
        {
          "name": "C#3",
          "midi": 49,
          "time": 126.86630000000073,
          "velocity": 0.8818897637795275,
          "duration": 0.6198901041666858
        },
        {
          "name": "F#3",
          "midi": 54,
          "time": 126.86630000000073,
          "velocity": 0.8818897637795275,
          "duration": 0.6198901041666858
        },
        {
          "name": "A3",
          "midi": 57,
          "time": 127.52025000000076,
          "velocity": 0.8818897637795275,
          "duration": 0.6198901041666574
        },
        {
          "name": "E4",
          "midi": 64,
          "time": 127.52025000000076,
          "velocity": 0.8818897637795275,
          "duration": 0.6198901041666574
        },
        {
          "name": "A2",
          "midi": 45,
          "time": 128.17420000000075,
          "velocity": 0.8818897637795275,
          "duration": 0.20572177083332122
        },
        {
          "name": "E3",
          "midi": 52,
          "time": 128.17420000000075,
          "velocity": 0.8818897637795275,
          "duration": 0.20572177083332122
        },
        {
          "name": "A3",
          "midi": 57,
          "time": 128.17420000000075,
          "velocity": 0.8818897637795275,
          "duration": 0.20572177083332122
        },
        {
          "name": "E4",
          "midi": 64,
          "time": 128.39218333333406,
          "velocity": 0.8818897637795275,
          "duration": 0.20572177083332122
        },
        {
          "name": "C#4",
          "midi": 61,
          "time": 128.61016666666737,
          "velocity": 0.8818897637795275,
          "duration": 0.20572177083332122
        },
        {
          "name": "A4",
          "midi": 69,
          "time": 128.82815000000068,
          "velocity": 0.8818897637795275,
          "duration": 0.4128059374999964
        },
        {
          "name": "C#5",
          "midi": 73,
          "time": 128.82815000000068,
          "velocity": 0.8818897637795275,
          "duration": 0.4128059374999964
        },
        {
          "name": "D4",
          "midi": 62,
          "time": 129.26411666666735,
          "velocity": 0.8818897637795275,
          "duration": 0.20572177083332122
        },
        {
          "name": "D2",
          "midi": 38,
          "time": 129.48210000000066,
          "velocity": 0.8818897637795275,
          "duration": 0.6198901041666431
        },
        {
          "name": "A2",
          "midi": 45,
          "time": 129.48210000000066,
          "velocity": 0.8818897637795275,
          "duration": 0.6198901041666431
        },
        {
          "name": "D3",
          "midi": 50,
          "time": 129.48210000000066,
          "velocity": 0.8818897637795275,
          "duration": 0.6198901041666431
        },
        {
          "name": "A3",
          "midi": 57,
          "time": 130.13605000000064,
          "velocity": 0.8818897637795275,
          "duration": 0.4128059374999964
        },
        {
          "name": "E4",
          "midi": 64,
          "time": 130.13605000000064,
          "velocity": 0.8818897637795275,
          "duration": 0.4128059374999964
        },
        {
          "name": "E4",
          "midi": 64,
          "time": 130.5720166666673,
          "velocity": 0.8818897637795275,
          "duration": 0.20572177083332122
        },
        {
          "name": "E2",
          "midi": 40,
          "time": 130.79000000000062,
          "velocity": 0.8818897637795275,
          "duration": 0.6198901041666716
        },
        {
          "name": "B2",
          "midi": 47,
          "time": 130.79000000000062,
          "velocity": 0.8818897637795275,
          "duration": 0.6198901041666716
        },
        {
          "name": "E3",
          "midi": 52,
          "time": 130.79000000000062,
          "velocity": 0.8818897637795275,
          "duration": 0.6198901041666716
        },
        {
          "name": "A3",
          "midi": 57,
          "time": 131.44395000000063,
          "velocity": 0.8818897637795275,
          "duration": 0.4128059374999964
        },
        {
          "name": "E4",
          "midi": 64,
          "time": 131.44395000000063,
          "velocity": 0.8818897637795275,
          "duration": 0.4128059374999964
        },
        {
          "name": "E4",
          "midi": 64,
          "time": 131.8799166666673,
          "velocity": 0.8818897637795275,
          "duration": 0.20572177083332122
        },
        {
          "name": "F#2",
          "midi": 42,
          "time": 132.0979000000006,
          "velocity": 0.8818897637795275,
          "duration": 0.6198901041666431
        },
        {
          "name": "C#3",
          "midi": 49,
          "time": 132.0979000000006,
          "velocity": 0.8818897637795275,
          "duration": 0.6198901041666431
        },
        {
          "name": "F#3",
          "midi": 54,
          "time": 132.0979000000006,
          "velocity": 0.8818897637795275,
          "duration": 0.6198901041666431
        },
        {
          "name": "A3",
          "midi": 57,
          "time": 132.7518500000006,
          "velocity": 0.8818897637795275,
          "duration": 0.6198901041666716
        },
        {
          "name": "E4",
          "midi": 64,
          "time": 132.7518500000006,
          "velocity": 0.8818897637795275,
          "duration": 0.6198901041666716
        },
        {
          "name": "A2",
          "midi": 45,
          "time": 133.4058000000006,
          "velocity": 0.8818897637795275,
          "duration": 0.20572177083332122
        },
        {
          "name": "E3",
          "midi": 52,
          "time": 133.4058000000006,
          "velocity": 0.8818897637795275,
          "duration": 0.20572177083332122
        },
        {
          "name": "A3",
          "midi": 57,
          "time": 133.4058000000006,
          "velocity": 0.8818897637795275,
          "duration": 0.20572177083332122
        },
        {
          "name": "E4",
          "midi": 64,
          "time": 133.6237833333339,
          "velocity": 0.8818897637795275,
          "duration": 0.20572177083332122
        },
        {
          "name": "C#4",
          "midi": 61,
          "time": 133.8417666666672,
          "velocity": 0.8818897637795275,
          "duration": 0.20572177083332122
        },
        {
          "name": "A4",
          "midi": 69,
          "time": 134.05975000000052,
          "velocity": 0.8818897637795275,
          "duration": 0.4128059374999964
        },
        {
          "name": "C#5",
          "midi": 73,
          "time": 134.05975000000052,
          "velocity": 0.8818897637795275,
          "duration": 0.4128059374999964
        },
        {
          "name": "D4",
          "midi": 62,
          "time": 134.4957166666672,
          "velocity": 0.8818897637795275,
          "duration": 0.20572177083332122
        },
        {
          "name": "D2",
          "midi": 38,
          "time": 134.7137000000005,
          "velocity": 0.8818897637795275,
          "duration": 0.6198901041666431
        },
        {
          "name": "A2",
          "midi": 45,
          "time": 134.7137000000005,
          "velocity": 0.8818897637795275,
          "duration": 0.6198901041666431
        },
        {
          "name": "D3",
          "midi": 50,
          "time": 134.7137000000005,
          "velocity": 0.8818897637795275,
          "duration": 0.6198901041666431
        },
        {
          "name": "A3",
          "midi": 57,
          "time": 135.36765000000048,
          "velocity": 0.8818897637795275,
          "duration": 0.4128059374999964
        },
        {
          "name": "E4",
          "midi": 64,
          "time": 135.36765000000048,
          "velocity": 0.8818897637795275,
          "duration": 0.4128059374999964
        },
        {
          "name": "E4",
          "midi": 64,
          "time": 135.80361666666715,
          "velocity": 0.8818897637795275,
          "duration": 0.20572177083332122
        },
        {
          "name": "D2",
          "midi": 38,
          "time": 136.02160000000046,
          "velocity": 0.8818897637795275,
          "duration": 0.6198901041666716
        },
        {
          "name": "A2",
          "midi": 45,
          "time": 136.02160000000046,
          "velocity": 0.8818897637795275,
          "duration": 0.6198901041666716
        },
        {
          "name": "D3",
          "midi": 50,
          "time": 136.02160000000046,
          "velocity": 0.8818897637795275,
          "duration": 0.6198901041666716
        },
        {
          "name": "A3",
          "midi": 57,
          "time": 136.67555000000047,
          "velocity": 0.8346456692913385,
          "duration": 0.4128059374999964
        },
        {
          "name": "E4",
          "midi": 64,
          "time": 136.67555000000047,
          "velocity": 0.8346456692913385,
          "duration": 0.4128059374999964
        },
        {
          "name": "E4",
          "midi": 64,
          "time": 137.11151666666714,
          "velocity": 0.8031496062992126,
          "duration": 0.20572177083332122
        },
        {
          "name": "E2",
          "midi": 40,
          "time": 137.32950000000045,
          "velocity": 0.7874015748031497,
          "duration": 0.6198901041666431
        },
        {
          "name": "B2",
          "midi": 47,
          "time": 137.32950000000045,
          "velocity": 0.7874015748031497,
          "duration": 0.6198901041666431
        },
        {
          "name": "E3",
          "midi": 52,
          "time": 137.32950000000045,
          "velocity": 0.7874015748031497,
          "duration": 0.6198901041666431
        },
        {
          "name": "B3",
          "midi": 59,
          "time": 137.98345000000043,
          "velocity": 0.7401574803149606,
          "duration": 0.6198901041666716
        },
        {
          "name": "E4",
          "midi": 64,
          "time": 137.98345000000043,
          "velocity": 0.7401574803149606,
          "duration": 0.6198901041666716
        },
        {
          "name": "E3",
          "midi": 52,
          "time": 138.63740000000044,
          "velocity": 0.6850393700787402,
          "duration": 0.6198901041666716
        },
        {
          "name": "B3",
          "midi": 59,
          "time": 138.63740000000044,
          "velocity": 0.6850393700787402,
          "duration": 0.6198901041666716
        },
        {
          "name": "E3",
          "midi": 52,
          "time": 139.29135000000045,
          "velocity": 0.6377952755905512,
          "duration": 0.6198901041666716
        },
        {
          "name": "E2",
          "midi": 40,
          "time": 139.94530000000046,
          "velocity": 0.5905511811023622,
          "duration": 0.6198901041666716
        },
        {
          "name": "B2",
          "midi": 47,
          "time": 139.94530000000046,
          "velocity": 0.5905511811023622,
          "duration": 0.6198901041666716
        },
        {
          "name": "E3",
          "midi": 52,
          "time": 139.94530000000046,
          "velocity": 0.5905511811023622,
          "duration": 0.6198901041666716
        },
        {
          "name": "E2",
          "midi": 40,
          "time": 140.59925000000047,
          "velocity": 0.5354330708661418,
          "duration": 0.6198901041666716
        },
        {
          "name": "E3",
          "midi": 52,
          "time": 141.25320000000048,
          "velocity": 0.4881889763779528,
          "duration": 0.6198901041666716
        },
        {
          "name": "B3",
          "midi": 59,
          "time": 141.25320000000048,
          "velocity": 0.4881889763779528,
          "duration": 0.6198901041666716
        },
        {
          "name": "E3",
          "midi": 52,
          "time": 141.90715000000048,
          "velocity": 0.4409448818897638,
          "duration": 0.6198901041666716
        },
        {
          "name": "D2",
          "midi": 38,
          "time": 142.5611000000005,
          "velocity": 0.3858267716535433,
          "duration": 4.968657604166651
        },
        {
          "name": "A2",
          "midi": 45,
          "time": 142.5611000000005,
          "velocity": 0.3858267716535433,
          "duration": 4.968657604166651
        },
        {
          "name": "D3",
          "midi": 50,
          "time": 142.5611000000005,
          "velocity": 0.3858267716535433,
          "duration": 4.968657604166651
        },
        {
          "name": "A3",
          "midi": 57,
          "time": 147.79270000000048,
          "velocity": 0.12598425196850394,
          "duration": 0.21662093750001077
        },
        {
          "name": "A3",
          "midi": 57,
          "time": 148.01068333333382,
          "velocity": 0.12598425196850394,
          "duration": 0.21662093750001077
        },
        {
          "name": "A3",
          "midi": 57,
          "time": 148.22866666666715,
          "velocity": 0.12598425196850394,
          "duration": 0.21662093750001077
        },
        {
          "name": "A3",
          "midi": 57,
          "time": 148.4466500000005,
          "velocity": 0.14960629921259844,
          "duration": 0.21662093750001077
        },
        {
          "name": "A3",
          "midi": 57,
          "time": 148.66463333333382,
          "velocity": 0.1732283464566929,
          "duration": 0.21662093750001077
        },
        {
          "name": "A3",
          "midi": 57,
          "time": 148.88261666666716,
          "velocity": 0.2047244094488189,
          "duration": 0.21662093750001077
        },
        {
          "name": "A3",
          "midi": 57,
          "time": 149.1006000000005,
          "velocity": 0.2283464566929134,
          "duration": 0.21662093750001077
        },
        {
          "name": "A3",
          "midi": 57,
          "time": 149.31858333333383,
          "velocity": 0.25196850393700787,
          "duration": 0.21662093750001077
        },
        {
          "name": "A3",
          "midi": 57,
          "time": 149.53656666666717,
          "velocity": 0.28346456692913385,
          "duration": 0.21662093750001077
        },
        {
          "name": "A3",
          "midi": 57,
          "time": 149.7545500000005,
          "velocity": 0.30708661417322836,
          "duration": 0.21662093750001077
        },
        {
          "name": "A3",
          "midi": 57,
          "time": 149.97253333333384,
          "velocity": 0.33070866141732286,
          "duration": 0.21662093750001077
        },
        {
          "name": "A3",
          "midi": 57,
          "time": 150.19051666666718,
          "velocity": 0.36220472440944884,
          "duration": 0.21662093750001077
        },
        {
          "name": "A3",
          "midi": 57,
          "time": 150.40850000000052,
          "velocity": 0.3858267716535433,
          "duration": 0.21662093750001077
        },
        {
          "name": "A3",
          "midi": 57,
          "time": 150.62648333333385,
          "velocity": 0.41732283464566927,
          "duration": 0.21662093750001077
        },
        {
          "name": "A3",
          "midi": 57,
          "time": 150.8444666666672,
          "velocity": 0.4409448818897638,
          "duration": 0.21662093750001077
        },
        {
          "name": "A3",
          "midi": 57,
          "time": 151.06245000000052,
          "velocity": 0.4645669291338583,
          "duration": 0.21662093750001077
        },
        {
          "name": "A3",
          "midi": 57,
          "time": 151.28043333333386,
          "velocity": 0.49606299212598426,
          "duration": 0.21662093750001077
        },
        {
          "name": "A3",
          "midi": 57,
          "time": 151.4984166666672,
          "velocity": 0.5196850393700787,
          "duration": 0.21662093750001077
        },
        {
          "name": "A3",
          "midi": 57,
          "time": 151.71640000000053,
          "velocity": 0.5433070866141733,
          "duration": 0.21662093750001077
        },
        {
          "name": "A3",
          "midi": 57,
          "time": 151.93438333333387,
          "velocity": 0.5748031496062992,
          "duration": 0.21662093750001077
        },
        {
          "name": "A3",
          "midi": 57,
          "time": 152.1523666666672,
          "velocity": 0.5984251968503937,
          "duration": 0.21662093750001077
        },
        {
          "name": "A3",
          "midi": 57,
          "time": 152.37035000000054,
          "velocity": 0.6299212598425197,
          "duration": 0.21662093750001077
        },
        {
          "name": "A3",
          "midi": 57,
          "time": 152.58833333333388,
          "velocity": 0.6299212598425197,
          "duration": 0.21662093750001077
        },
        {
          "name": "A3",
          "midi": 57,
          "time": 152.80631666666721,
          "velocity": 0.5118110236220472,
          "duration": 0.21662093750001077
        },
        {
          "name": "D3",
          "midi": 50,
          "time": 153.02430000000055,
          "velocity": 0.3858267716535433,
          "duration": 0.21662093749998235
        },
        {
          "name": "A3",
          "midi": 57,
          "time": 153.02430000000055,
          "velocity": 0.3858267716535433,
          "duration": 0.21662093749998235
        },
        {
          "name": "A3",
          "midi": 57,
          "time": 153.24228333333386,
          "velocity": 0.3858267716535433,
          "duration": 0.21662093750001077
        },
        {
          "name": "A3",
          "midi": 57,
          "time": 153.4602666666672,
          "velocity": 0.3858267716535433,
          "duration": 0.21662093750001077
        },
        {
          "name": "A3",
          "midi": 57,
          "time": 153.67825000000053,
          "velocity": 0.3858267716535433,
          "duration": 0.21662093750001077
        },
        {
          "name": "A3",
          "midi": 57,
          "time": 153.89623333333387,
          "velocity": 0.3858267716535433,
          "duration": 0.21662093750001077
        },
        {
          "name": "A3",
          "midi": 57,
          "time": 154.1142166666672,
          "velocity": 0.3858267716535433,
          "duration": 0.21662093750001077
        },
        {
          "name": "D3",
          "midi": 50,
          "time": 154.33220000000054,
          "velocity": 0.3858267716535433,
          "duration": 0.21662093750001077
        },
        {
          "name": "A3",
          "midi": 57,
          "time": 154.33220000000054,
          "velocity": 0.3858267716535433,
          "duration": 0.21662093750001077
        },
        {
          "name": "A3",
          "midi": 57,
          "time": 154.55018333333388,
          "velocity": 0.3858267716535433,
          "duration": 0.21662093750001077
        },
        {
          "name": "A3",
          "midi": 57,
          "time": 154.7681666666672,
          "velocity": 0.3858267716535433,
          "duration": 0.21662093750001077
        },
        {
          "name": "A3",
          "midi": 57,
          "time": 154.98615000000055,
          "velocity": 0.3858267716535433,
          "duration": 0.21662093750001077
        },
        {
          "name": "A3",
          "midi": 57,
          "time": 155.20413333333389,
          "velocity": 0.3858267716535433,
          "duration": 0.21662093750001077
        },
        {
          "name": "A3",
          "midi": 57,
          "time": 155.42211666666722,
          "velocity": 0.3858267716535433,
          "duration": 0.21662093750001077
        },
        {
          "name": "D3",
          "midi": 50,
          "time": 155.64010000000056,
          "velocity": 0.3858267716535433,
          "duration": 0.21662093749998235
        },
        {
          "name": "A3",
          "midi": 57,
          "time": 155.64010000000056,
          "velocity": 0.3858267716535433,
          "duration": 0.21662093749998235
        },
        {
          "name": "A3",
          "midi": 57,
          "time": 155.85808333333387,
          "velocity": 0.3858267716535433,
          "duration": 0.21662093750001077
        },
        {
          "name": "A3",
          "midi": 57,
          "time": 156.0760666666672,
          "velocity": 0.3858267716535433,
          "duration": 0.21662093750001077
        },
        {
          "name": "A3",
          "midi": 57,
          "time": 156.29405000000054,
          "velocity": 0.3858267716535433,
          "duration": 0.21662093750001077
        },
        {
          "name": "A3",
          "midi": 57,
          "time": 156.51203333333387,
          "velocity": 0.3858267716535433,
          "duration": 0.21662093750001077
        },
        {
          "name": "A3",
          "midi": 57,
          "time": 156.7300166666672,
          "velocity": 0.3858267716535433,
          "duration": 0.21662093750001077
        },
        {
          "name": "D3",
          "midi": 50,
          "time": 156.94800000000055,
          "velocity": 0.3858267716535433,
          "duration": 0.21662093750001077
        },
        {
          "name": "A3",
          "midi": 57,
          "time": 156.94800000000055,
          "velocity": 0.3858267716535433,
          "duration": 0.21662093750001077
        },
        {
          "name": "A3",
          "midi": 57,
          "time": 157.16598333333388,
          "velocity": 0.3858267716535433,
          "duration": 0.21662093750001077
        },
        {
          "name": "A3",
          "midi": 57,
          "time": 157.38396666666722,
          "velocity": 0.3858267716535433,
          "duration": 0.21662093750001077
        },
        {
          "name": "A3",
          "midi": 57,
          "time": 157.60195000000056,
          "velocity": 0.3858267716535433,
          "duration": 0.21662093750001077
        },
        {
          "name": "A3",
          "midi": 57,
          "time": 157.8199333333339,
          "velocity": 0.3858267716535433,
          "duration": 0.21662093750001077
        },
        {
          "name": "A3",
          "midi": 57,
          "time": 158.03791666666723,
          "velocity": 0.3858267716535433,
          "duration": 0.20572177083332122
        },
        {
          "name": "F#3",
          "midi": 54,
          "time": 158.25590000000054,
          "velocity": 0.3858267716535433,
          "duration": 0.20572177083332122
        },
        {
          "name": "A3",
          "midi": 57,
          "time": 158.25590000000054,
          "velocity": 0.3858267716535433,
          "duration": 0.20572177083332122
        },
        {
          "name": "A3",
          "midi": 57,
          "time": 158.47388333333384,
          "velocity": 0.3858267716535433,
          "duration": 0.20572177083332122
        },
        {
          "name": "A3",
          "midi": 57,
          "time": 158.69186666666715,
          "velocity": 0.3937007874015748,
          "duration": 0.20572177083332122
        },
        {
          "name": "A3",
          "midi": 57,
          "time": 158.90985000000046,
          "velocity": 0.3937007874015748,
          "duration": 0.20572177083332122
        },
        {
          "name": "C#4",
          "midi": 61,
          "time": 158.90985000000046,
          "velocity": 0.3937007874015748,
          "duration": 0.20572177083332122
        },
        {
          "name": "A3",
          "midi": 57,
          "time": 159.12783333333377,
          "velocity": 0.4015748031496063,
          "duration": 0.20572177083332122
        },
        {
          "name": "A3",
          "midi": 57,
          "time": 159.34581666666708,
          "velocity": 0.4094488188976378,
          "duration": 0.20572177083332122
        },
        {
          "name": "F#3",
          "midi": 54,
          "time": 159.56380000000038,
          "velocity": 0.4094488188976378,
          "duration": 0.20572177083332122
        },
        {
          "name": "A3",
          "midi": 57,
          "time": 159.56380000000038,
          "velocity": 0.4094488188976378,
          "duration": 0.20572177083332122
        },
        {
          "name": "A3",
          "midi": 57,
          "time": 159.7817833333337,
          "velocity": 0.41732283464566927,
          "duration": 0.20572177083332122
        },
        {
          "name": "A3",
          "midi": 57,
          "time": 159.999766666667,
          "velocity": 0.4251968503937008,
          "duration": 0.20572177083332122
        },
        {
          "name": "A3",
          "midi": 57,
          "time": 160.2177500000003,
          "velocity": 0.4251968503937008,
          "duration": 0.20572177083332122
        },
        {
          "name": "B3",
          "midi": 59,
          "time": 160.2177500000003,
          "velocity": 0.4251968503937008,
          "duration": 0.20572177083332122
        },
        {
          "name": "A3",
          "midi": 57,
          "time": 160.43573333333362,
          "velocity": 0.4330708661417323,
          "duration": 0.20572177083332122
        },
        {
          "name": "A3",
          "midi": 57,
          "time": 160.65371666666692,
          "velocity": 0.4409448818897638,
          "duration": 0.20572177083332122
        },
        {
          "name": "E3",
          "midi": 52,
          "time": 160.87170000000023,
          "velocity": 0.4409448818897638,
          "duration": 0.20572177083332122
        },
        {
          "name": "A3",
          "midi": 57,
          "time": 160.87170000000023,
          "velocity": 0.4409448818897638,
          "duration": 0.20572177083332122
        },
        {
          "name": "A3",
          "midi": 57,
          "time": 161.08968333333354,
          "velocity": 0.44881889763779526,
          "duration": 0.20572177083332122
        },
        {
          "name": "A3",
          "midi": 57,
          "time": 161.30766666666685,
          "velocity": 0.4566929133858268,
          "duration": 0.20572177083332122
        },
        {
          "name": "E3",
          "midi": 52,
          "time": 161.52565000000016,
          "velocity": 0.4566929133858268,
          "duration": 0.20572177083332122
        },
        {
          "name": "A3",
          "midi": 57,
          "time": 161.52565000000016,
          "velocity": 0.4566929133858268,
          "duration": 0.20572177083332122
        },
        {
          "name": "C#4",
          "midi": 61,
          "time": 161.52565000000016,
          "velocity": 0.4566929133858268,
          "duration": 0.20572177083332122
        },
        {
          "name": "A3",
          "midi": 57,
          "time": 161.74363333333346,
          "velocity": 0.4645669291338583,
          "duration": 0.20572177083332122
        },
        {
          "name": "A3",
          "midi": 57,
          "time": 161.96161666666677,
          "velocity": 0.47244094488188976,
          "duration": 0.20572177083332122
        },
        {
          "name": "E3",
          "midi": 52,
          "time": 162.17960000000008,
          "velocity": 0.47244094488188976,
          "duration": 0.20572177083332122
        },
        {
          "name": "A3",
          "midi": 57,
          "time": 162.17960000000008,
          "velocity": 0.47244094488188976,
          "duration": 0.20572177083332122
        },
        {
          "name": "A3",
          "midi": 57,
          "time": 162.3975833333334,
          "velocity": 0.48031496062992124,
          "duration": 0.20572177083332122
        },
        {
          "name": "A3",
          "midi": 57,
          "time": 162.6155666666667,
          "velocity": 0.4881889763779528,
          "duration": 0.20572177083332122
        },
        {
          "name": "E3",
          "midi": 52,
          "time": 162.83355,
          "velocity": 0.4881889763779528,
          "duration": 0.20572177083332122
        },
        {
          "name": "A3",
          "midi": 57,
          "time": 162.83355,
          "velocity": 0.4881889763779528,
          "duration": 0.20572177083332122
        },
        {
          "name": "E4",
          "midi": 64,
          "time": 162.83355,
          "velocity": 0.4881889763779528,
          "duration": 0.20572177083332122
        },
        {
          "name": "A3",
          "midi": 57,
          "time": 163.0515333333333,
          "velocity": 0.49606299212598426,
          "duration": 0.20572177083332122
        },
        {
          "name": "A3",
          "midi": 57,
          "time": 163.26951666666662,
          "velocity": 0.5039370078740157,
          "duration": 0.20572177083332122
        },
        {
          "name": "D3",
          "midi": 50,
          "time": 163.48749999999993,
          "velocity": 0.5039370078740157,
          "duration": 0.20572177083332122
        },
        {
          "name": "A3",
          "midi": 57,
          "time": 163.48749999999993,
          "velocity": 0.5039370078740157,
          "duration": 0.20572177083332122
        },
        {
          "name": "D3",
          "midi": 50,
          "time": 163.70548333333323,
          "velocity": 0.5039370078740157,
          "duration": 0.20572177083332122
        },
        {
          "name": "A3",
          "midi": 57,
          "time": 163.70548333333323,
          "velocity": 0.5039370078740157,
          "duration": 0.20572177083332122
        },
        {
          "name": "D3",
          "midi": 50,
          "time": 163.92346666666654,
          "velocity": 0.5039370078740157,
          "duration": 0.20572177083332122
        },
        {
          "name": "A3",
          "midi": 57,
          "time": 163.92346666666654,
          "velocity": 0.5039370078740157,
          "duration": 0.20572177083332122
        },
        {
          "name": "D3",
          "midi": 50,
          "time": 164.14144999999985,
          "velocity": 0.5039370078740157,
          "duration": 0.20572177083332122
        },
        {
          "name": "A3",
          "midi": 57,
          "time": 164.14144999999985,
          "velocity": 0.5039370078740157,
          "duration": 0.20572177083332122
        },
        {
          "name": "D3",
          "midi": 50,
          "time": 164.35943333333316,
          "velocity": 0.5039370078740157,
          "duration": 0.20572177083332122
        },
        {
          "name": "A3",
          "midi": 57,
          "time": 164.35943333333316,
          "velocity": 0.5039370078740157,
          "duration": 0.20572177083332122
        },
        {
          "name": "D3",
          "midi": 50,
          "time": 164.57741666666647,
          "velocity": 0.5039370078740157,
          "duration": 0.20572177083332122
        },
        {
          "name": "A3",
          "midi": 57,
          "time": 164.57741666666647,
          "velocity": 0.5039370078740157,
          "duration": 0.20572177083332122
        },
        {
          "name": "D3",
          "midi": 50,
          "time": 164.79539999999977,
          "velocity": 0.5039370078740157,
          "duration": 0.20572177083332122
        },
        {
          "name": "A3",
          "midi": 57,
          "time": 164.79539999999977,
          "velocity": 0.5039370078740157,
          "duration": 0.20572177083332122
        },
        {
          "name": "D3",
          "midi": 50,
          "time": 165.01338333333308,
          "velocity": 0.5039370078740157,
          "duration": 0.20572177083332122
        },
        {
          "name": "A3",
          "midi": 57,
          "time": 165.01338333333308,
          "velocity": 0.5039370078740157,
          "duration": 0.20572177083332122
        },
        {
          "name": "D3",
          "midi": 50,
          "time": 165.2313666666664,
          "velocity": 0.5039370078740157,
          "duration": 0.20572177083332122
        },
        {
          "name": "A3",
          "midi": 57,
          "time": 165.2313666666664,
          "velocity": 0.5039370078740157,
          "duration": 0.20572177083332122
        },
        {
          "name": "D3",
          "midi": 50,
          "time": 165.4493499999997,
          "velocity": 0.5039370078740157,
          "duration": 0.20572177083332122
        },
        {
          "name": "A3",
          "midi": 57,
          "time": 165.4493499999997,
          "velocity": 0.5039370078740157,
          "duration": 0.20572177083332122
        },
        {
          "name": "D3",
          "midi": 50,
          "time": 165.667333333333,
          "velocity": 0.5039370078740157,
          "duration": 0.20572177083332122
        },
        {
          "name": "A3",
          "midi": 57,
          "time": 165.667333333333,
          "velocity": 0.5039370078740157,
          "duration": 0.20572177083332122
        },
        {
          "name": "D3",
          "midi": 50,
          "time": 165.8853166666663,
          "velocity": 0.5039370078740157,
          "duration": 0.20572177083332122
        },
        {
          "name": "A3",
          "midi": 57,
          "time": 165.8853166666663,
          "velocity": 0.5039370078740157,
          "duration": 0.20572177083332122
        },
        {
          "name": "D3",
          "midi": 50,
          "time": 166.10329999999962,
          "velocity": 0.5039370078740157,
          "duration": 0.20572177083332122
        },
        {
          "name": "A3",
          "midi": 57,
          "time": 166.10329999999962,
          "velocity": 0.5039370078740157,
          "duration": 0.20572177083332122
        },
        {
          "name": "D3",
          "midi": 50,
          "time": 166.32128333333293,
          "velocity": 0.5118110236220472,
          "duration": 0.20572177083332122
        },
        {
          "name": "A3",
          "midi": 57,
          "time": 166.32128333333293,
          "velocity": 0.5118110236220472,
          "duration": 0.20572177083332122
        },
        {
          "name": "D3",
          "midi": 50,
          "time": 166.53926666666624,
          "velocity": 0.5275590551181102,
          "duration": 0.20572177083332122
        },
        {
          "name": "A3",
          "midi": 57,
          "time": 166.53926666666624,
          "velocity": 0.5275590551181102,
          "duration": 0.20572177083332122
        },
        {
          "name": "D3",
          "midi": 50,
          "time": 166.75724999999954,
          "velocity": 0.5433070866141733,
          "duration": 0.20572177083332122
        },
        {
          "name": "A3",
          "midi": 57,
          "time": 166.75724999999954,
          "velocity": 0.5433070866141733,
          "duration": 0.20572177083332122
        },
        {
          "name": "D3",
          "midi": 50,
          "time": 166.97523333333285,
          "velocity": 0.5590551181102362,
          "duration": 0.20572177083332122
        },
        {
          "name": "A3",
          "midi": 57,
          "time": 166.97523333333285,
          "velocity": 0.5590551181102362,
          "duration": 0.20572177083332122
        },
        {
          "name": "D3",
          "midi": 50,
          "time": 167.19321666666616,
          "velocity": 0.5669291338582677,
          "duration": 0.20572177083332122
        },
        {
          "name": "A3",
          "midi": 57,
          "time": 167.19321666666616,
          "velocity": 0.5669291338582677,
          "duration": 0.20572177083332122
        },
        {
          "name": "D3",
          "midi": 50,
          "time": 167.41119999999947,
          "velocity": 0.5826771653543307,
          "duration": 0.20572177083332122
        },
        {
          "name": "A3",
          "midi": 57,
          "time": 167.41119999999947,
          "velocity": 0.5826771653543307,
          "duration": 0.20572177083332122
        },
        {
          "name": "D3",
          "midi": 50,
          "time": 167.62918333333278,
          "velocity": 0.5984251968503937,
          "duration": 0.20572177083332122
        },
        {
          "name": "A3",
          "midi": 57,
          "time": 167.62918333333278,
          "velocity": 0.5984251968503937,
          "duration": 0.20572177083332122
        },
        {
          "name": "D3",
          "midi": 50,
          "time": 167.84716666666608,
          "velocity": 0.6141732283464567,
          "duration": 0.20572177083332122
        },
        {
          "name": "A3",
          "midi": 57,
          "time": 167.84716666666608,
          "velocity": 0.6141732283464567,
          "duration": 0.20572177083332122
        },
        {
          "name": "D3",
          "midi": 50,
          "time": 168.0651499999994,
          "velocity": 0.9448818897637795,
          "duration": 0.21662093750001077
        },
        {
          "name": "A3",
          "midi": 57,
          "time": 168.0651499999994,
          "velocity": 0.9448818897637795,
          "duration": 0.21662093750001077
        },
        {
          "name": "E4",
          "midi": 64,
          "time": 168.0651499999994,
          "velocity": 0.9448818897637795,
          "duration": 0.21662093750001077
        },
        {
          "name": "D3",
          "midi": 50,
          "time": 168.28313333333273,
          "velocity": 0.6299212598425197,
          "duration": 0.20572177083332122
        },
        {
          "name": "A3",
          "midi": 57,
          "time": 168.28313333333273,
          "velocity": 0.6299212598425197,
          "duration": 0.20572177083332122
        },
        {
          "name": "D3",
          "midi": 50,
          "time": 168.50111666666604,
          "velocity": 0.9448818897637795,
          "duration": 0.21662093750001077
        },
        {
          "name": "A3",
          "midi": 57,
          "time": 168.50111666666604,
          "velocity": 0.9448818897637795,
          "duration": 0.21662093750001077
        },
        {
          "name": "E4",
          "midi": 64,
          "time": 168.50111666666604,
          "velocity": 0.9448818897637795,
          "duration": 0.21662093750001077
        },
        {
          "name": "A2",
          "midi": 45,
          "time": 168.71909999999937,
          "velocity": 1,
          "duration": 0.21662093749998235
        },
        {
          "name": "E3",
          "midi": 52,
          "time": 168.71909999999937,
          "velocity": 1,
          "duration": 0.21662093749998235
        },
        {
          "name": "A3",
          "midi": 57,
          "time": 168.71909999999937,
          "velocity": 1,
          "duration": 0.21662093749998235
        },
        {
          "name": "A2",
          "midi": 45,
          "time": 168.93708333333268,
          "velocity": 0.8110236220472441,
          "duration": 0.20572177083332122
        },
        {
          "name": "E3",
          "midi": 52,
          "time": 168.93708333333268,
          "velocity": 0.8110236220472441,
          "duration": 0.20572177083332122
        },
        {
          "name": "A2",
          "midi": 45,
          "time": 169.155066666666,
          "velocity": 0.7401574803149606,
          "duration": 0.20572177083332122
        },
        {
          "name": "E3",
          "midi": 52,
          "time": 169.155066666666,
          "velocity": 0.7401574803149606,
          "duration": 0.20572177083332122
        },
        {
          "name": "A2",
          "midi": 45,
          "time": 169.3730499999993,
          "velocity": 0.7401574803149606,
          "duration": 0.20572177083332122
        },
        {
          "name": "E3",
          "midi": 52,
          "time": 169.3730499999993,
          "velocity": 0.7401574803149606,
          "duration": 0.20572177083332122
        },
        {
          "name": "A3",
          "midi": 57,
          "time": 169.3730499999993,
          "velocity": 0.7401574803149606,
          "duration": 0.20572177083332122
        },
        {
          "name": "A2",
          "midi": 45,
          "time": 169.5910333333326,
          "velocity": 0.6299212598425197,
          "duration": 0.20572177083332122
        },
        {
          "name": "E3",
          "midi": 52,
          "time": 169.5910333333326,
          "velocity": 0.6299212598425197,
          "duration": 0.20572177083332122
        },
        {
          "name": "A3",
          "midi": 57,
          "time": 169.5910333333326,
          "velocity": 0.6299212598425197,
          "duration": 0.20572177083332122
        },
        {
          "name": "A2",
          "midi": 45,
          "time": 169.8090166666659,
          "velocity": 0.6299212598425197,
          "duration": 0.20572177083332122
        },
        {
          "name": "E3",
          "midi": 52,
          "time": 169.8090166666659,
          "velocity": 0.6299212598425197,
          "duration": 0.20572177083332122
        },
        {
          "name": "A2",
          "midi": 45,
          "time": 170.02699999999922,
          "velocity": 0.6299212598425197,
          "duration": 0.20572177083332122
        },
        {
          "name": "E3",
          "midi": 52,
          "time": 170.02699999999922,
          "velocity": 0.6299212598425197,
          "duration": 0.20572177083332122
        },
        {
          "name": "A2",
          "midi": 45,
          "time": 170.24498333333253,
          "velocity": 0.6299212598425197,
          "duration": 0.20572177083332122
        },
        {
          "name": "E3",
          "midi": 52,
          "time": 170.24498333333253,
          "velocity": 0.6299212598425197,
          "duration": 0.20572177083332122
        },
        {
          "name": "A2",
          "midi": 45,
          "time": 170.46296666666584,
          "velocity": 0.6299212598425197,
          "duration": 0.20572177083332122
        },
        {
          "name": "E3",
          "midi": 52,
          "time": 170.46296666666584,
          "velocity": 0.6299212598425197,
          "duration": 0.20572177083332122
        },
        {
          "name": "A2",
          "midi": 45,
          "time": 170.68094999999914,
          "velocity": 0.6299212598425197,
          "duration": 0.20572177083332122
        },
        {
          "name": "E3",
          "midi": 52,
          "time": 170.68094999999914,
          "velocity": 0.6299212598425197,
          "duration": 0.20572177083332122
        },
        {
          "name": "A3",
          "midi": 57,
          "time": 170.68094999999914,
          "velocity": 0.6299212598425197,
          "duration": 0.20572177083332122
        },
        {
          "name": "A2",
          "midi": 45,
          "time": 170.89893333333245,
          "velocity": 0.6299212598425197,
          "duration": 0.20572177083332122
        },
        {
          "name": "E3",
          "midi": 52,
          "time": 170.89893333333245,
          "velocity": 0.6299212598425197,
          "duration": 0.20572177083332122
        },
        {
          "name": "A2",
          "midi": 45,
          "time": 171.11691666666576,
          "velocity": 0.6299212598425197,
          "duration": 0.20572177083332122
        },
        {
          "name": "E3",
          "midi": 52,
          "time": 171.11691666666576,
          "velocity": 0.6299212598425197,
          "duration": 0.20572177083332122
        },
        {
          "name": "A2",
          "midi": 45,
          "time": 171.33489999999907,
          "velocity": 0.6299212598425197,
          "duration": 0.20572177083332122
        },
        {
          "name": "E3",
          "midi": 52,
          "time": 171.33489999999907,
          "velocity": 0.6299212598425197,
          "duration": 0.20572177083332122
        },
        {
          "name": "A3",
          "midi": 57,
          "time": 171.33489999999907,
          "velocity": 0.6299212598425197,
          "duration": 0.20572177083332122
        },
        {
          "name": "A2",
          "midi": 45,
          "time": 171.55288333333237,
          "velocity": 0.6377952755905512,
          "duration": 0.20572177083332122
        },
        {
          "name": "E3",
          "midi": 52,
          "time": 171.55288333333237,
          "velocity": 0.6377952755905512,
          "duration": 0.20572177083332122
        },
        {
          "name": "A3",
          "midi": 57,
          "time": 171.55288333333237,
          "velocity": 0.6377952755905512,
          "duration": 0.20572177083332122
        },
        {
          "name": "A2",
          "midi": 45,
          "time": 171.77086666666568,
          "velocity": 0.6456692913385826,
          "duration": 0.20572177083332122
        },
        {
          "name": "E3",
          "midi": 52,
          "time": 171.77086666666568,
          "velocity": 0.6456692913385826,
          "duration": 0.20572177083332122
        },
        {
          "name": "A3",
          "midi": 57,
          "time": 171.77086666666568,
          "velocity": 0.6456692913385826,
          "duration": 0.20572177083332122
        },
        {
          "name": "A2",
          "midi": 45,
          "time": 171.988849999999,
          "velocity": 0.6614173228346457,
          "duration": 0.20572177083332122
        },
        {
          "name": "E3",
          "midi": 52,
          "time": 171.988849999999,
          "velocity": 0.6614173228346457,
          "duration": 0.20572177083332122
        },
        {
          "name": "A3",
          "midi": 57,
          "time": 171.988849999999,
          "velocity": 0.6614173228346457,
          "duration": 0.20572177083332122
        },
        {
          "name": "A2",
          "midi": 45,
          "time": 172.2068333333323,
          "velocity": 0.6692913385826772,
          "duration": 0.20572177083332122
        },
        {
          "name": "E3",
          "midi": 52,
          "time": 172.2068333333323,
          "velocity": 0.6692913385826772,
          "duration": 0.20572177083332122
        },
        {
          "name": "A3",
          "midi": 57,
          "time": 172.2068333333323,
          "velocity": 0.6692913385826772,
          "duration": 0.20572177083332122
        },
        {
          "name": "A2",
          "midi": 45,
          "time": 172.4248166666656,
          "velocity": 0.6771653543307087,
          "duration": 0.20572177083332122
        },
        {
          "name": "E3",
          "midi": 52,
          "time": 172.4248166666656,
          "velocity": 0.6771653543307087,
          "duration": 0.20572177083332122
        },
        {
          "name": "A3",
          "midi": 57,
          "time": 172.4248166666656,
          "velocity": 0.6771653543307087,
          "duration": 0.20572177083332122
        },
        {
          "name": "A2",
          "midi": 45,
          "time": 172.6427999999989,
          "velocity": 0.6929133858267716,
          "duration": 0.20572177083332122
        },
        {
          "name": "E3",
          "midi": 52,
          "time": 172.6427999999989,
          "velocity": 0.6929133858267716,
          "duration": 0.20572177083332122
        },
        {
          "name": "A3",
          "midi": 57,
          "time": 172.6427999999989,
          "velocity": 0.6929133858267716,
          "duration": 0.20572177083332122
        },
        {
          "name": "A2",
          "midi": 45,
          "time": 172.86078333333222,
          "velocity": 0.7007874015748031,
          "duration": 0.20572177083332122
        },
        {
          "name": "E3",
          "midi": 52,
          "time": 172.86078333333222,
          "velocity": 0.7007874015748031,
          "duration": 0.20572177083332122
        },
        {
          "name": "A3",
          "midi": 57,
          "time": 172.86078333333222,
          "velocity": 0.7007874015748031,
          "duration": 0.20572177083332122
        },
        {
          "name": "A2",
          "midi": 45,
          "time": 173.07876666666553,
          "velocity": 0.7086614173228346,
          "duration": 0.20572177083332122
        },
        {
          "name": "E3",
          "midi": 52,
          "time": 173.07876666666553,
          "velocity": 0.7086614173228346,
          "duration": 0.20572177083332122
        },
        {
          "name": "A3",
          "midi": 57,
          "time": 173.07876666666553,
          "velocity": 0.7086614173228346,
          "duration": 0.20572177083332122
        },
        {
          "name": "A2",
          "midi": 45,
          "time": 173.29674999999884,
          "velocity": 0.7244094488188977,
          "duration": 0.20572177083332122
        },
        {
          "name": "E3",
          "midi": 52,
          "time": 173.29674999999884,
          "velocity": 0.7244094488188977,
          "duration": 0.20572177083332122
        },
        {
          "name": "A3",
          "midi": 57,
          "time": 173.29674999999884,
          "velocity": 0.7244094488188977,
          "duration": 0.20572177083332122
        },
        {
          "name": "A2",
          "midi": 45,
          "time": 173.51473333333215,
          "velocity": 0.7322834645669292,
          "duration": 0.20572177083332122
        },
        {
          "name": "E3",
          "midi": 52,
          "time": 173.51473333333215,
          "velocity": 0.7322834645669292,
          "duration": 0.20572177083332122
        },
        {
          "name": "A3",
          "midi": 57,
          "time": 173.51473333333215,
          "velocity": 0.7322834645669292,
          "duration": 0.20572177083332122
        },
        {
          "name": "A2",
          "midi": 45,
          "time": 173.73271666666545,
          "velocity": 0.7401574803149606,
          "duration": 0.20572177083332122
        },
        {
          "name": "E3",
          "midi": 52,
          "time": 173.73271666666545,
          "velocity": 0.7401574803149606,
          "duration": 0.20572177083332122
        },
        {
          "name": "A3",
          "midi": 57,
          "time": 173.73271666666545,
          "velocity": 0.7401574803149606,
          "duration": 0.20572177083332122
        },
        {
          "name": "A2",
          "midi": 45,
          "time": 173.95069999999876,
          "velocity": 0.7559055118110236,
          "duration": 0.20572177083332122
        },
        {
          "name": "D3",
          "midi": 50,
          "time": 173.95069999999876,
          "velocity": 0.7559055118110236,
          "duration": 0.20572177083332122
        },
        {
          "name": "F#3",
          "midi": 54,
          "time": 173.95069999999876,
          "velocity": 0.7559055118110236,
          "duration": 0.20572177083332122
        },
        {
          "name": "A3",
          "midi": 57,
          "time": 173.95069999999876,
          "velocity": 0.7559055118110236,
          "duration": 0.20572177083332122
        },
        {
          "name": "A2",
          "midi": 45,
          "time": 174.16868333333207,
          "velocity": 0.7559055118110236,
          "duration": 0.20572177083332122
        },
        {
          "name": "D3",
          "midi": 50,
          "time": 174.16868333333207,
          "velocity": 0.7559055118110236,
          "duration": 0.20572177083332122
        },
        {
          "name": "A3",
          "midi": 57,
          "time": 174.16868333333207,
          "velocity": 0.7559055118110236,
          "duration": 0.20572177083332122
        },
        {
          "name": "A2",
          "midi": 45,
          "time": 174.38666666666538,
          "velocity": 0.7559055118110236,
          "duration": 0.20572177083332122
        },
        {
          "name": "D3",
          "midi": 50,
          "time": 174.38666666666538,
          "velocity": 0.7559055118110236,
          "duration": 0.20572177083332122
        },
        {
          "name": "A3",
          "midi": 57,
          "time": 174.38666666666538,
          "velocity": 0.7559055118110236,
          "duration": 0.20572177083332122
        },
        {
          "name": "A2",
          "midi": 45,
          "time": 174.60464999999868,
          "velocity": 0.7559055118110236,
          "duration": 0.20572177083332122
        },
        {
          "name": "D3",
          "midi": 50,
          "time": 174.60464999999868,
          "velocity": 0.7559055118110236,
          "duration": 0.20572177083332122
        },
        {
          "name": "F#3",
          "midi": 54,
          "time": 174.60464999999868,
          "velocity": 0.7559055118110236,
          "duration": 0.20572177083332122
        },
        {
          "name": "A3",
          "midi": 57,
          "time": 174.60464999999868,
          "velocity": 0.7559055118110236,
          "duration": 0.20572177083332122
        },
        {
          "name": "A2",
          "midi": 45,
          "time": 174.822633333332,
          "velocity": 0.7559055118110236,
          "duration": 0.20572177083332122
        },
        {
          "name": "D3",
          "midi": 50,
          "time": 174.822633333332,
          "velocity": 0.7559055118110236,
          "duration": 0.20572177083332122
        },
        {
          "name": "A3",
          "midi": 57,
          "time": 174.822633333332,
          "velocity": 0.7559055118110236,
          "duration": 0.20572177083332122
        },
        {
          "name": "A2",
          "midi": 45,
          "time": 175.0406166666653,
          "velocity": 0.7559055118110236,
          "duration": 0.20572177083332122
        },
        {
          "name": "D3",
          "midi": 50,
          "time": 175.0406166666653,
          "velocity": 0.7559055118110236,
          "duration": 0.20572177083332122
        },
        {
          "name": "A3",
          "midi": 57,
          "time": 175.0406166666653,
          "velocity": 0.7559055118110236,
          "duration": 0.20572177083332122
        },
        {
          "name": "A2",
          "midi": 45,
          "time": 175.2585999999986,
          "velocity": 0.7559055118110236,
          "duration": 0.20572177083332122
        },
        {
          "name": "D3",
          "midi": 50,
          "time": 175.2585999999986,
          "velocity": 0.7559055118110236,
          "duration": 0.20572177083332122
        },
        {
          "name": "F#3",
          "midi": 54,
          "time": 175.2585999999986,
          "velocity": 0.7559055118110236,
          "duration": 0.20572177083332122
        },
        {
          "name": "A3",
          "midi": 57,
          "time": 175.2585999999986,
          "velocity": 0.7559055118110236,
          "duration": 0.20572177083332122
        },
        {
          "name": "A2",
          "midi": 45,
          "time": 175.47658333333192,
          "velocity": 0.7559055118110236,
          "duration": 0.20572177083332122
        },
        {
          "name": "D3",
          "midi": 50,
          "time": 175.47658333333192,
          "velocity": 0.7559055118110236,
          "duration": 0.20572177083332122
        },
        {
          "name": "A3",
          "midi": 57,
          "time": 175.47658333333192,
          "velocity": 0.7559055118110236,
          "duration": 0.20572177083332122
        },
        {
          "name": "A2",
          "midi": 45,
          "time": 175.69456666666522,
          "velocity": 0.7559055118110236,
          "duration": 0.20572177083332122
        },
        {
          "name": "D3",
          "midi": 50,
          "time": 175.69456666666522,
          "velocity": 0.7559055118110236,
          "duration": 0.20572177083332122
        },
        {
          "name": "A3",
          "midi": 57,
          "time": 175.69456666666522,
          "velocity": 0.7559055118110236,
          "duration": 0.20572177083332122
        },
        {
          "name": "A2",
          "midi": 45,
          "time": 175.91254999999853,
          "velocity": 0.7559055118110236,
          "duration": 0.20572177083332122
        },
        {
          "name": "D3",
          "midi": 50,
          "time": 175.91254999999853,
          "velocity": 0.7559055118110236,
          "duration": 0.20572177083332122
        },
        {
          "name": "F#3",
          "midi": 54,
          "time": 175.91254999999853,
          "velocity": 0.7559055118110236,
          "duration": 0.20572177083332122
        },
        {
          "name": "A3",
          "midi": 57,
          "time": 175.91254999999853,
          "velocity": 0.7559055118110236,
          "duration": 0.20572177083332122
        },
        {
          "name": "A2",
          "midi": 45,
          "time": 176.13053333333184,
          "velocity": 0.7559055118110236,
          "duration": 0.20572177083332122
        },
        {
          "name": "D3",
          "midi": 50,
          "time": 176.13053333333184,
          "velocity": 0.7559055118110236,
          "duration": 0.20572177083332122
        },
        {
          "name": "A3",
          "midi": 57,
          "time": 176.13053333333184,
          "velocity": 0.7559055118110236,
          "duration": 0.20572177083332122
        },
        {
          "name": "A2",
          "midi": 45,
          "time": 176.34851666666515,
          "velocity": 0.7559055118110236,
          "duration": 0.20572177083332122
        },
        {
          "name": "D3",
          "midi": 50,
          "time": 176.34851666666515,
          "velocity": 0.7559055118110236,
          "duration": 0.20572177083332122
        },
        {
          "name": "A3",
          "midi": 57,
          "time": 176.34851666666515,
          "velocity": 0.7559055118110236,
          "duration": 0.20572177083332122
        },
        {
          "name": "A2",
          "midi": 45,
          "time": 176.56649999999846,
          "velocity": 0.7559055118110236,
          "duration": 0.20572177083332122
        },
        {
          "name": "D3",
          "midi": 50,
          "time": 176.56649999999846,
          "velocity": 0.7559055118110236,
          "duration": 0.20572177083332122
        },
        {
          "name": "F#3",
          "midi": 54,
          "time": 176.56649999999846,
          "velocity": 0.7559055118110236,
          "duration": 0.20572177083332122
        },
        {
          "name": "A3",
          "midi": 57,
          "time": 176.56649999999846,
          "velocity": 0.7559055118110236,
          "duration": 0.20572177083332122
        },
        {
          "name": "A2",
          "midi": 45,
          "time": 176.78448333333176,
          "velocity": 0.7559055118110236,
          "duration": 0.20572177083332122
        },
        {
          "name": "D3",
          "midi": 50,
          "time": 176.78448333333176,
          "velocity": 0.7559055118110236,
          "duration": 0.20572177083332122
        },
        {
          "name": "A3",
          "midi": 57,
          "time": 176.78448333333176,
          "velocity": 0.7559055118110236,
          "duration": 0.20572177083332122
        },
        {
          "name": "A2",
          "midi": 45,
          "time": 177.00246666666507,
          "velocity": 0.7559055118110236,
          "duration": 0.20572177083332122
        },
        {
          "name": "D3",
          "midi": 50,
          "time": 177.00246666666507,
          "velocity": 0.7559055118110236,
          "duration": 0.20572177083332122
        },
        {
          "name": "A3",
          "midi": 57,
          "time": 177.00246666666507,
          "velocity": 0.7559055118110236,
          "duration": 0.20572177083332122
        },
        {
          "name": "A2",
          "midi": 45,
          "time": 177.22044999999838,
          "velocity": 0.7559055118110236,
          "duration": 0.20572177083332122
        },
        {
          "name": "D3",
          "midi": 50,
          "time": 177.22044999999838,
          "velocity": 0.7559055118110236,
          "duration": 0.20572177083332122
        },
        {
          "name": "F#3",
          "midi": 54,
          "time": 177.22044999999838,
          "velocity": 0.7559055118110236,
          "duration": 0.20572177083332122
        },
        {
          "name": "A3",
          "midi": 57,
          "time": 177.22044999999838,
          "velocity": 0.7559055118110236,
          "duration": 0.20572177083332122
        },
        {
          "name": "A2",
          "midi": 45,
          "time": 177.4384333333317,
          "velocity": 0.7559055118110236,
          "duration": 0.20572177083332122
        },
        {
          "name": "D3",
          "midi": 50,
          "time": 177.4384333333317,
          "velocity": 0.7559055118110236,
          "duration": 0.20572177083332122
        },
        {
          "name": "A3",
          "midi": 57,
          "time": 177.4384333333317,
          "velocity": 0.7559055118110236,
          "duration": 0.20572177083332122
        },
        {
          "name": "A2",
          "midi": 45,
          "time": 177.656416666665,
          "velocity": 0.7559055118110236,
          "duration": 0.20572177083332122
        },
        {
          "name": "D3",
          "midi": 50,
          "time": 177.656416666665,
          "velocity": 0.7559055118110236,
          "duration": 0.20572177083332122
        },
        {
          "name": "A3",
          "midi": 57,
          "time": 177.656416666665,
          "velocity": 0.7559055118110236,
          "duration": 0.20572177083332122
        },
        {
          "name": "A2",
          "midi": 45,
          "time": 177.8743999999983,
          "velocity": 0.7559055118110236,
          "duration": 0.20572177083332122
        },
        {
          "name": "D3",
          "midi": 50,
          "time": 177.8743999999983,
          "velocity": 0.7559055118110236,
          "duration": 0.20572177083332122
        },
        {
          "name": "F#3",
          "midi": 54,
          "time": 177.8743999999983,
          "velocity": 0.7559055118110236,
          "duration": 0.20572177083332122
        },
        {
          "name": "A3",
          "midi": 57,
          "time": 177.8743999999983,
          "velocity": 0.7559055118110236,
          "duration": 0.20572177083332122
        },
        {
          "name": "A2",
          "midi": 45,
          "time": 178.0923833333316,
          "velocity": 0.7716535433070866,
          "duration": 0.20572177083332122
        },
        {
          "name": "D3",
          "midi": 50,
          "time": 178.0923833333316,
          "velocity": 0.7716535433070866,
          "duration": 0.20572177083332122
        },
        {
          "name": "A3",
          "midi": 57,
          "time": 178.0923833333316,
          "velocity": 0.7716535433070866,
          "duration": 0.20572177083332122
        },
        {
          "name": "A2",
          "midi": 45,
          "time": 178.31036666666492,
          "velocity": 0.7952755905511811,
          "duration": 0.20572177083332122
        },
        {
          "name": "D3",
          "midi": 50,
          "time": 178.31036666666492,
          "velocity": 0.7952755905511811,
          "duration": 0.20572177083332122
        },
        {
          "name": "A3",
          "midi": 57,
          "time": 178.31036666666492,
          "velocity": 0.7952755905511811,
          "duration": 0.20572177083332122
        },
        {
          "name": "D3",
          "midi": 50,
          "time": 178.52834999999823,
          "velocity": 1,
          "duration": 0.21662093750001077
        },
        {
          "name": "A3",
          "midi": 57,
          "time": 178.52834999999823,
          "velocity": 1,
          "duration": 0.21662093750001077
        },
        {
          "name": "E4",
          "midi": 64,
          "time": 178.52834999999823,
          "velocity": 1,
          "duration": 0.21662093750001077
        },
        {
          "name": "D3",
          "midi": 50,
          "time": 178.74633333333156,
          "velocity": 0.8346456692913385,
          "duration": 0.20572177083332122
        },
        {
          "name": "A3",
          "midi": 57,
          "time": 178.74633333333156,
          "velocity": 0.8346456692913385,
          "duration": 0.20572177083332122
        },
        {
          "name": "D3",
          "midi": 50,
          "time": 178.96431666666487,
          "velocity": 1,
          "duration": 0.21662093750001077
        },
        {
          "name": "A3",
          "midi": 57,
          "time": 178.96431666666487,
          "velocity": 1,
          "duration": 0.21662093750001077
        },
        {
          "name": "E4",
          "midi": 64,
          "time": 178.96431666666487,
          "velocity": 1,
          "duration": 0.21662093750001077
        },
        {
          "name": "F#2",
          "midi": 42,
          "time": 179.1822999999982,
          "velocity": 1,
          "duration": 0.21662093749998235
        },
        {
          "name": "F#3",
          "midi": 54,
          "time": 179.1822999999982,
          "velocity": 1,
          "duration": 0.21662093749998235
        },
        {
          "name": "A3",
          "midi": 57,
          "time": 179.1822999999982,
          "velocity": 1,
          "duration": 0.21662093749998235
        },
        {
          "name": "F#2",
          "midi": 42,
          "time": 179.40028333333152,
          "velocity": 0.8818897637795275,
          "duration": 0.20572177083332122
        },
        {
          "name": "F#3",
          "midi": 54,
          "time": 179.40028333333152,
          "velocity": 0.8818897637795275,
          "duration": 0.20572177083332122
        },
        {
          "name": "F#2",
          "midi": 42,
          "time": 179.61826666666482,
          "velocity": 0.8818897637795275,
          "duration": 0.20572177083332122
        },
        {
          "name": "F#3",
          "midi": 54,
          "time": 179.61826666666482,
          "velocity": 0.8818897637795275,
          "duration": 0.20572177083332122
        },
        {
          "name": "F#2",
          "midi": 42,
          "time": 179.83624999999813,
          "velocity": 0.8818897637795275,
          "duration": 0.20572177083332122
        },
        {
          "name": "F#3",
          "midi": 54,
          "time": 179.83624999999813,
          "velocity": 0.8818897637795275,
          "duration": 0.20572177083332122
        },
        {
          "name": "A3",
          "midi": 57,
          "time": 179.83624999999813,
          "velocity": 0.8818897637795275,
          "duration": 0.20572177083332122
        },
        {
          "name": "F#2",
          "midi": 42,
          "time": 180.05423333333144,
          "velocity": 0.8818897637795275,
          "duration": 0.20572177083332122
        },
        {
          "name": "F#3",
          "midi": 54,
          "time": 180.05423333333144,
          "velocity": 0.8818897637795275,
          "duration": 0.20572177083332122
        },
        {
          "name": "F#2",
          "midi": 42,
          "time": 180.27221666666475,
          "velocity": 0.8818897637795275,
          "duration": 0.20572177083332122
        },
        {
          "name": "F#3",
          "midi": 54,
          "time": 180.27221666666475,
          "velocity": 0.8818897637795275,
          "duration": 0.20572177083332122
        },
        {
          "name": "F#2",
          "midi": 42,
          "time": 180.49019999999805,
          "velocity": 0.8818897637795275,
          "duration": 0.20572177083332122
        },
        {
          "name": "F#3",
          "midi": 54,
          "time": 180.49019999999805,
          "velocity": 0.8818897637795275,
          "duration": 0.20572177083332122
        },
        {
          "name": "A3",
          "midi": 57,
          "time": 180.49019999999805,
          "velocity": 0.8818897637795275,
          "duration": 0.20572177083332122
        },
        {
          "name": "F#2",
          "midi": 42,
          "time": 180.70818333333136,
          "velocity": 0.8818897637795275,
          "duration": 0.20572177083332122
        },
        {
          "name": "F#3",
          "midi": 54,
          "time": 180.70818333333136,
          "velocity": 0.8818897637795275,
          "duration": 0.20572177083332122
        },
        {
          "name": "F#2",
          "midi": 42,
          "time": 180.92616666666467,
          "velocity": 0.8818897637795275,
          "duration": 0.20572177083332122
        },
        {
          "name": "F#3",
          "midi": 54,
          "time": 180.92616666666467,
          "velocity": 0.8818897637795275,
          "duration": 0.20572177083332122
        },
        {
          "name": "F#2",
          "midi": 42,
          "time": 181.14414999999798,
          "velocity": 0.8818897637795275,
          "duration": 0.20572177083332122
        },
        {
          "name": "F#3",
          "midi": 54,
          "time": 181.14414999999798,
          "velocity": 0.8818897637795275,
          "duration": 0.20572177083332122
        },
        {
          "name": "A3",
          "midi": 57,
          "time": 181.14414999999798,
          "velocity": 0.8818897637795275,
          "duration": 0.20572177083332122
        },
        {
          "name": "F#2",
          "midi": 42,
          "time": 181.3621333333313,
          "velocity": 0.8818897637795275,
          "duration": 0.20572177083332122
        },
        {
          "name": "F#3",
          "midi": 54,
          "time": 181.3621333333313,
          "velocity": 0.8818897637795275,
          "duration": 0.20572177083332122
        },
        {
          "name": "A3",
          "midi": 57,
          "time": 181.3621333333313,
          "velocity": 0.8818897637795275,
          "duration": 0.20572177083332122
        },
        {
          "name": "F#2",
          "midi": 42,
          "time": 181.5801166666646,
          "velocity": 0.8818897637795275,
          "duration": 0.20572177083332122
        },
        {
          "name": "F#3",
          "midi": 54,
          "time": 181.5801166666646,
          "velocity": 0.8818897637795275,
          "duration": 0.20572177083332122
        },
        {
          "name": "A3",
          "midi": 57,
          "time": 181.5801166666646,
          "velocity": 0.8818897637795275,
          "duration": 0.20572177083332122
        },
        {
          "name": "E2",
          "midi": 40,
          "time": 181.7980999999979,
          "velocity": 0.8818897637795275,
          "duration": 0.20572177083332122
        },
        {
          "name": "B2",
          "midi": 47,
          "time": 181.7980999999979,
          "velocity": 0.8818897637795275,
          "duration": 0.20572177083332122
        },
        {
          "name": "E3",
          "midi": 52,
          "time": 181.7980999999979,
          "velocity": 0.8818897637795275,
          "duration": 0.20572177083332122
        },
        {
          "name": "E2",
          "midi": 40,
          "time": 182.0160833333312,
          "velocity": 0.8818897637795275,
          "duration": 0.20572177083332122
        },
        {
          "name": "B2",
          "midi": 47,
          "time": 182.0160833333312,
          "velocity": 0.8818897637795275,
          "duration": 0.20572177083332122
        },
        {
          "name": "E3",
          "midi": 52,
          "time": 182.0160833333312,
          "velocity": 0.8818897637795275,
          "duration": 0.20572177083332122
        },
        {
          "name": "E2",
          "midi": 40,
          "time": 182.23406666666452,
          "velocity": 0.8818897637795275,
          "duration": 0.20572177083332122
        },
        {
          "name": "B2",
          "midi": 47,
          "time": 182.23406666666452,
          "velocity": 0.8818897637795275,
          "duration": 0.20572177083332122
        },
        {
          "name": "E3",
          "midi": 52,
          "time": 182.23406666666452,
          "velocity": 0.8818897637795275,
          "duration": 0.20572177083332122
        },
        {
          "name": "E2",
          "midi": 40,
          "time": 182.45204999999783,
          "velocity": 0.8818897637795275,
          "duration": 0.20572177083332122
        },
        {
          "name": "B2",
          "midi": 47,
          "time": 182.45204999999783,
          "velocity": 0.8818897637795275,
          "duration": 0.20572177083332122
        },
        {
          "name": "E3",
          "midi": 52,
          "time": 182.45204999999783,
          "velocity": 0.8818897637795275,
          "duration": 0.20572177083332122
        },
        {
          "name": "E2",
          "midi": 40,
          "time": 182.67003333333113,
          "velocity": 0.8818897637795275,
          "duration": 0.20572177083332122
        },
        {
          "name": "B2",
          "midi": 47,
          "time": 182.67003333333113,
          "velocity": 0.8818897637795275,
          "duration": 0.20572177083332122
        },
        {
          "name": "E3",
          "midi": 52,
          "time": 182.67003333333113,
          "velocity": 0.8818897637795275,
          "duration": 0.20572177083332122
        },
        {
          "name": "E2",
          "midi": 40,
          "time": 182.88801666666444,
          "velocity": 0.8818897637795275,
          "duration": 0.20572177083332122
        },
        {
          "name": "B2",
          "midi": 47,
          "time": 182.88801666666444,
          "velocity": 0.8818897637795275,
          "duration": 0.20572177083332122
        },
        {
          "name": "E3",
          "midi": 52,
          "time": 182.88801666666444,
          "velocity": 0.8818897637795275,
          "duration": 0.20572177083332122
        },
        {
          "name": "E2",
          "midi": 40,
          "time": 183.10599999999775,
          "velocity": 0.8818897637795275,
          "duration": 0.20572177083332122
        },
        {
          "name": "B2",
          "midi": 47,
          "time": 183.10599999999775,
          "velocity": 0.8818897637795275,
          "duration": 0.20572177083332122
        },
        {
          "name": "E3",
          "midi": 52,
          "time": 183.10599999999775,
          "velocity": 0.8818897637795275,
          "duration": 0.20572177083332122
        },
        {
          "name": "E2",
          "midi": 40,
          "time": 183.32398333333106,
          "velocity": 0.8818897637795275,
          "duration": 0.20572177083332122
        },
        {
          "name": "B2",
          "midi": 47,
          "time": 183.32398333333106,
          "velocity": 0.8818897637795275,
          "duration": 0.20572177083332122
        },
        {
          "name": "E3",
          "midi": 52,
          "time": 183.32398333333106,
          "velocity": 0.8818897637795275,
          "duration": 0.20572177083332122
        },
        {
          "name": "E2",
          "midi": 40,
          "time": 183.54196666666436,
          "velocity": 0.8818897637795275,
          "duration": 0.20572177083332122
        },
        {
          "name": "B2",
          "midi": 47,
          "time": 183.54196666666436,
          "velocity": 0.8818897637795275,
          "duration": 0.20572177083332122
        },
        {
          "name": "E3",
          "midi": 52,
          "time": 183.54196666666436,
          "velocity": 0.8818897637795275,
          "duration": 0.20572177083332122
        },
        {
          "name": "E2",
          "midi": 40,
          "time": 183.75994999999767,
          "velocity": 0.8818897637795275,
          "duration": 0.20572177083332122
        },
        {
          "name": "B2",
          "midi": 47,
          "time": 183.75994999999767,
          "velocity": 0.8818897637795275,
          "duration": 0.20572177083332122
        },
        {
          "name": "E3",
          "midi": 52,
          "time": 183.75994999999767,
          "velocity": 0.8818897637795275,
          "duration": 0.20572177083332122
        },
        {
          "name": "E2",
          "midi": 40,
          "time": 183.97793333333098,
          "velocity": 0.8818897637795275,
          "duration": 0.20572177083332122
        },
        {
          "name": "B2",
          "midi": 47,
          "time": 183.97793333333098,
          "velocity": 0.8818897637795275,
          "duration": 0.20572177083332122
        },
        {
          "name": "E3",
          "midi": 52,
          "time": 183.97793333333098,
          "velocity": 0.8818897637795275,
          "duration": 0.20572177083332122
        },
        {
          "name": "E2",
          "midi": 40,
          "time": 184.1959166666643,
          "velocity": 0.8818897637795275,
          "duration": 0.20572177083332122
        },
        {
          "name": "B2",
          "midi": 47,
          "time": 184.1959166666643,
          "velocity": 0.8818897637795275,
          "duration": 0.20572177083332122
        },
        {
          "name": "E3",
          "midi": 52,
          "time": 184.1959166666643,
          "velocity": 0.8818897637795275,
          "duration": 0.20572177083332122
        },
        {
          "name": "D2",
          "midi": 38,
          "time": 184.4138999999976,
          "velocity": 0.8818897637795275,
          "duration": 0.20572177083332122
        },
        {
          "name": "A2",
          "midi": 45,
          "time": 184.4138999999976,
          "velocity": 0.8818897637795275,
          "duration": 0.20572177083332122
        },
        {
          "name": "F#3",
          "midi": 54,
          "time": 184.4138999999976,
          "velocity": 0.8818897637795275,
          "duration": 0.20572177083332122
        },
        {
          "name": "D2",
          "midi": 38,
          "time": 184.6318833333309,
          "velocity": 0.8818897637795275,
          "duration": 0.20572177083332122
        },
        {
          "name": "A2",
          "midi": 45,
          "time": 184.6318833333309,
          "velocity": 0.8818897637795275,
          "duration": 0.20572177083332122
        },
        {
          "name": "D2",
          "midi": 38,
          "time": 184.8498666666642,
          "velocity": 0.8818897637795275,
          "duration": 0.20572177083332122
        },
        {
          "name": "A2",
          "midi": 45,
          "time": 184.8498666666642,
          "velocity": 0.8818897637795275,
          "duration": 0.20572177083332122
        },
        {
          "name": "D2",
          "midi": 38,
          "time": 185.06784999999752,
          "velocity": 0.8818897637795275,
          "duration": 0.20572177083332122
        },
        {
          "name": "A2",
          "midi": 45,
          "time": 185.06784999999752,
          "velocity": 0.8818897637795275,
          "duration": 0.20572177083332122
        },
        {
          "name": "F#3",
          "midi": 54,
          "time": 185.06784999999752,
          "velocity": 0.8818897637795275,
          "duration": 0.20572177083332122
        },
        {
          "name": "D2",
          "midi": 38,
          "time": 185.28583333333083,
          "velocity": 0.8818897637795275,
          "duration": 0.20572177083332122
        },
        {
          "name": "A2",
          "midi": 45,
          "time": 185.28583333333083,
          "velocity": 0.8818897637795275,
          "duration": 0.20572177083332122
        },
        {
          "name": "D2",
          "midi": 38,
          "time": 185.50381666666414,
          "velocity": 0.8818897637795275,
          "duration": 0.20572177083332122
        },
        {
          "name": "A2",
          "midi": 45,
          "time": 185.50381666666414,
          "velocity": 0.8818897637795275,
          "duration": 0.20572177083332122
        },
        {
          "name": "D2",
          "midi": 38,
          "time": 185.72179999999744,
          "velocity": 0.8818897637795275,
          "duration": 0.20572177083332122
        },
        {
          "name": "A2",
          "midi": 45,
          "time": 185.72179999999744,
          "velocity": 0.8818897637795275,
          "duration": 0.20572177083332122
        },
        {
          "name": "F#3",
          "midi": 54,
          "time": 185.72179999999744,
          "velocity": 0.8818897637795275,
          "duration": 0.20572177083332122
        },
        {
          "name": "D2",
          "midi": 38,
          "time": 185.93978333333075,
          "velocity": 0.8818897637795275,
          "duration": 0.20572177083332122
        },
        {
          "name": "A2",
          "midi": 45,
          "time": 185.93978333333075,
          "velocity": 0.8818897637795275,
          "duration": 0.20572177083332122
        },
        {
          "name": "D2",
          "midi": 38,
          "time": 186.15776666666406,
          "velocity": 0.8818897637795275,
          "duration": 0.20572177083332122
        },
        {
          "name": "A2",
          "midi": 45,
          "time": 186.15776666666406,
          "velocity": 0.8818897637795275,
          "duration": 0.20572177083332122
        },
        {
          "name": "D2",
          "midi": 38,
          "time": 186.37574999999737,
          "velocity": 0.8818897637795275,
          "duration": 0.20572177083332122
        },
        {
          "name": "A2",
          "midi": 45,
          "time": 186.37574999999737,
          "velocity": 0.8818897637795275,
          "duration": 0.20572177083332122
        },
        {
          "name": "F#3",
          "midi": 54,
          "time": 186.37574999999737,
          "velocity": 0.8818897637795275,
          "duration": 0.20572177083332122
        },
        {
          "name": "D2",
          "midi": 38,
          "time": 186.59373333333068,
          "velocity": 0.8818897637795275,
          "duration": 0.20572177083332122
        },
        {
          "name": "A2",
          "midi": 45,
          "time": 186.59373333333068,
          "velocity": 0.8818897637795275,
          "duration": 0.20572177083332122
        },
        {
          "name": "D2",
          "midi": 38,
          "time": 186.81171666666398,
          "velocity": 0.8818897637795275,
          "duration": 0.20572177083332122
        },
        {
          "name": "A2",
          "midi": 45,
          "time": 186.81171666666398,
          "velocity": 0.8818897637795275,
          "duration": 0.20572177083332122
        },
        {
          "name": "D2",
          "midi": 38,
          "time": 187.0296999999973,
          "velocity": 0.8818897637795275,
          "duration": 0.20572177083332122
        },
        {
          "name": "A2",
          "midi": 45,
          "time": 187.0296999999973,
          "velocity": 0.8818897637795275,
          "duration": 0.20572177083332122
        },
        {
          "name": "F#3",
          "midi": 54,
          "time": 187.0296999999973,
          "velocity": 0.8818897637795275,
          "duration": 0.20572177083332122
        },
        {
          "name": "D2",
          "midi": 38,
          "time": 187.2476833333306,
          "velocity": 0.8818897637795275,
          "duration": 0.20572177083332122
        },
        {
          "name": "A2",
          "midi": 45,
          "time": 187.2476833333306,
          "velocity": 0.8818897637795275,
          "duration": 0.20572177083332122
        },
        {
          "name": "D2",
          "midi": 38,
          "time": 187.4656666666639,
          "velocity": 0.8818897637795275,
          "duration": 0.20572177083332122
        },
        {
          "name": "A2",
          "midi": 45,
          "time": 187.4656666666639,
          "velocity": 0.8818897637795275,
          "duration": 0.20572177083332122
        },
        {
          "name": "D2",
          "midi": 38,
          "time": 187.68364999999721,
          "velocity": 0.8818897637795275,
          "duration": 0.20572177083332122
        },
        {
          "name": "A2",
          "midi": 45,
          "time": 187.68364999999721,
          "velocity": 0.8818897637795275,
          "duration": 0.20572177083332122
        },
        {
          "name": "F#3",
          "midi": 54,
          "time": 187.68364999999721,
          "velocity": 0.8818897637795275,
          "duration": 0.20572177083332122
        },
        {
          "name": "D2",
          "midi": 38,
          "time": 187.90163333333052,
          "velocity": 0.8818897637795275,
          "duration": 0.20572177083332122
        },
        {
          "name": "A2",
          "midi": 45,
          "time": 187.90163333333052,
          "velocity": 0.8818897637795275,
          "duration": 0.20572177083332122
        },
        {
          "name": "D2",
          "midi": 38,
          "time": 188.11961666666383,
          "velocity": 0.8818897637795275,
          "duration": 0.20572177083332122
        },
        {
          "name": "A2",
          "midi": 45,
          "time": 188.11961666666383,
          "velocity": 0.8818897637795275,
          "duration": 0.20572177083332122
        },
        {
          "name": "D2",
          "midi": 38,
          "time": 188.33759999999714,
          "velocity": 0.8818897637795275,
          "duration": 0.20572177083332122
        },
        {
          "name": "A2",
          "midi": 45,
          "time": 188.33759999999714,
          "velocity": 0.8818897637795275,
          "duration": 0.20572177083332122
        },
        {
          "name": "F#3",
          "midi": 54,
          "time": 188.33759999999714,
          "velocity": 0.8818897637795275,
          "duration": 0.20572177083332122
        },
        {
          "name": "D2",
          "midi": 38,
          "time": 188.55558333333045,
          "velocity": 0.8818897637795275,
          "duration": 0.20572177083332122
        },
        {
          "name": "A2",
          "midi": 45,
          "time": 188.55558333333045,
          "velocity": 0.8818897637795275,
          "duration": 0.20572177083332122
        },
        {
          "name": "D2",
          "midi": 38,
          "time": 188.77356666666375,
          "velocity": 0.8818897637795275,
          "duration": 0.20572177083332122
        },
        {
          "name": "A2",
          "midi": 45,
          "time": 188.77356666666375,
          "velocity": 0.8818897637795275,
          "duration": 0.20572177083332122
        },
        {
          "name": "D2",
          "midi": 38,
          "time": 188.99154999999706,
          "velocity": 0.8818897637795275,
          "duration": 0.20572177083332122
        },
        {
          "name": "A2",
          "midi": 45,
          "time": 188.99154999999706,
          "velocity": 0.8818897637795275,
          "duration": 0.20572177083332122
        },
        {
          "name": "F#3",
          "midi": 54,
          "time": 188.99154999999706,
          "velocity": 0.8818897637795275,
          "duration": 0.20572177083332122
        },
        {
          "name": "D2",
          "midi": 38,
          "time": 189.20953333333037,
          "velocity": 0.84251968503937,
          "duration": 0.20572177083332122
        },
        {
          "name": "A2",
          "midi": 45,
          "time": 189.20953333333037,
          "velocity": 0.84251968503937,
          "duration": 0.20572177083332122
        },
        {
          "name": "D2",
          "midi": 38,
          "time": 189.42751666666368,
          "velocity": 0.8031496062992126,
          "duration": 0.20572177083332122
        },
        {
          "name": "A2",
          "midi": 45,
          "time": 189.42751666666368,
          "velocity": 0.8031496062992126,
          "duration": 0.20572177083332122
        },
        {
          "name": "A2",
          "midi": 45,
          "time": 189.64549999999699,
          "velocity": 0.7559055118110236,
          "duration": 0.6198901041666431
        },
        {
          "name": "E3",
          "midi": 52,
          "time": 189.64549999999699,
          "velocity": 0.7559055118110236,
          "duration": 0.6198901041666431
        },
        {
          "name": "A3",
          "midi": 57,
          "time": 189.64549999999699,
          "velocity": 0.7559055118110236,
          "duration": 0.6198901041666431
        },
        {
          "name": "A3",
          "midi": 57,
          "time": 190.29944999999697,
          "velocity": 0.7559055118110236,
          "duration": 0.6198901041666716
        },
        {
          "name": "C#4",
          "midi": 61,
          "time": 190.29944999999697,
          "velocity": 0.7559055118110236,
          "duration": 0.6198901041666716
        },
        {
          "name": "E4",
          "midi": 64,
          "time": 190.29944999999697,
          "velocity": 0.7559055118110236,
          "duration": 0.6198901041666716
        },
        {
          "name": "E4",
          "midi": 64,
          "time": 190.95339999999698,
          "velocity": 0.7401574803149606,
          "duration": 0.6198901041666716
        },
        {
          "name": "A4",
          "midi": 69,
          "time": 190.95339999999698,
          "velocity": 0.7401574803149606,
          "duration": 0.6198901041666716
        },
        {
          "name": "E4",
          "midi": 64,
          "time": 191.60734999999698,
          "velocity": 0.7244094488188977,
          "duration": 0.6198901041666716
        },
        {
          "name": "G#4",
          "midi": 68,
          "time": 191.60734999999698,
          "velocity": 0.7244094488188977,
          "duration": 0.6198901041666716
        },
        {
          "name": "E2",
          "midi": 40,
          "time": 192.261299999997,
          "velocity": 0.7086614173228346,
          "duration": 0.6198901041666431
        },
        {
          "name": "B2",
          "midi": 47,
          "time": 192.261299999997,
          "velocity": 0.7086614173228346,
          "duration": 0.6198901041666431
        },
        {
          "name": "E3",
          "midi": 52,
          "time": 192.261299999997,
          "velocity": 0.7086614173228346,
          "duration": 0.6198901041666431
        },
        {
          "name": "E3",
          "midi": 52,
          "time": 192.91524999999697,
          "velocity": 0.6850393700787402,
          "duration": 0.6198901041666716
        },
        {
          "name": "G#3",
          "midi": 56,
          "time": 192.91524999999697,
          "velocity": 0.6850393700787402,
          "duration": 0.6198901041666716
        },
        {
          "name": "B3",
          "midi": 59,
          "time": 192.91524999999697,
          "velocity": 0.6850393700787402,
          "duration": 0.6198901041666716
        },
        {
          "name": "B3",
          "midi": 59,
          "time": 193.56919999999698,
          "velocity": 0.6692913385826772,
          "duration": 0.6198901041666716
        },
        {
          "name": "E4",
          "midi": 64,
          "time": 193.56919999999698,
          "velocity": 0.6692913385826772,
          "duration": 0.6198901041666716
        },
        {
          "name": "G#3",
          "midi": 56,
          "time": 194.223149999997,
          "velocity": 0.6535433070866141,
          "duration": 0.6198901041666716
        },
        {
          "name": "B3",
          "midi": 59,
          "time": 194.223149999997,
          "velocity": 0.6535433070866141,
          "duration": 0.6198901041666716
        },
        {
          "name": "D2",
          "midi": 38,
          "time": 194.877099999997,
          "velocity": 0.6299212598425197,
          "duration": 4.968657604166651
        },
        {
          "name": "A2",
          "midi": 45,
          "time": 194.877099999997,
          "velocity": 0.6299212598425197,
          "duration": 4.968657604166651
        },
        {
          "name": "D3",
          "midi": 50,
          "time": 194.877099999997,
          "velocity": 0.6299212598425197,
          "duration": 4.968657604166651
        }
      ],
      "controlChanges": {
        "64": [
          {
            "number": 64,
            "time": 0.0027247916666666666,
            "value": 1
          },
          {
            "number": 64,
            "time": 6.540862395833335,
            "value": 0
          },
          {
            "number": 64,
            "time": 6.542224791666668,
            "value": 1
          },
          {
            "number": 64,
            "time": 9.156662395833338,
            "value": 0
          },
          {
            "number": 64,
            "time": 9.158024791666671,
            "value": 1
          },
          {
            "number": 64,
            "time": 11.772462395833342,
            "value": 0
          },
          {
            "number": 64,
            "time": 11.773824791666675,
            "value": 1
          },
          {
            "number": 64,
            "time": 14.38826239583335,
            "value": 0
          },
          {
            "number": 64,
            "time": 14.389624791666682,
            "value": 1
          },
          {
            "number": 64,
            "time": 17.00406239583335,
            "value": 0
          },
          {
            "number": 64,
            "time": 17.005424791666684,
            "value": 1
          },
          {
            "number": 64,
            "time": 19.619862395833344,
            "value": 0
          },
          {
            "number": 64,
            "time": 19.621224791666677,
            "value": 1
          },
          {
            "number": 64,
            "time": 22.23566239583334,
            "value": 0
          },
          {
            "number": 64,
            "time": 22.237024791666673,
            "value": 1
          },
          {
            "number": 64,
            "time": 24.851462395833334,
            "value": 0
          },
          {
            "number": 64,
            "time": 24.852824791666666,
            "value": 1
          },
          {
            "number": 64,
            "time": 27.46726239583333,
            "value": 0
          },
          {
            "number": 64,
            "time": 27.468624791666663,
            "value": 1
          },
          {
            "number": 64,
            "time": 30.083062395833323,
            "value": 0
          },
          {
            "number": 64,
            "time": 30.084424791666656,
            "value": 1
          },
          {
            "number": 64,
            "time": 32.69886239583332,
            "value": 0
          },
          {
            "number": 64,
            "time": 32.700224791666656,
            "value": 1
          },
          {
            "number": 64,
            "time": 35.314662395833345,
            "value": 0
          },
          {
            "number": 64,
            "time": 35.31602479166668,
            "value": 1
          },
          {
            "number": 64,
            "time": 37.93046239583335,
            "value": 0
          },
          {
            "number": 64,
            "time": 37.931824791666685,
            "value": 1
          },
          {
            "number": 64,
            "time": 40.54626239583337,
            "value": 0
          },
          {
            "number": 64,
            "time": 40.5476247916667,
            "value": 1
          },
          {
            "number": 64,
            "time": 43.162062395833374,
            "value": 0
          },
          {
            "number": 64,
            "time": 43.163424791666706,
            "value": 1
          },
          {
            "number": 64,
            "time": 45.777862395833395,
            "value": 0
          },
          {
            "number": 64,
            "time": 45.77922479166673,
            "value": 1
          },
          {
            "number": 64,
            "time": 48.39366239583339,
            "value": 0
          },
          {
            "number": 64,
            "time": 48.39502479166672,
            "value": 1
          },
          {
            "number": 64,
            "time": 51.009462395833395,
            "value": 0
          },
          {
            "number": 64,
            "time": 51.01082479166673,
            "value": 1
          },
          {
            "number": 64,
            "time": 53.6252623958334,
            "value": 0
          },
          {
            "number": 64,
            "time": 53.626624791666735,
            "value": 1
          },
          {
            "number": 64,
            "time": 56.24106239583341,
            "value": 0
          },
          {
            "number": 64,
            "time": 56.24242479166674,
            "value": 1
          },
          {
            "number": 64,
            "time": 58.85686239583342,
            "value": 0
          },
          {
            "number": 64,
            "time": 58.85822479166675,
            "value": 1
          },
          {
            "number": 64,
            "time": 61.472662395833424,
            "value": 0
          },
          {
            "number": 64,
            "time": 61.47402479166676,
            "value": 1
          },
          {
            "number": 64,
            "time": 64.08846239583343,
            "value": 0
          },
          {
            "number": 64,
            "time": 64.08982479166677,
            "value": 1
          },
          {
            "number": 64,
            "time": 66.70426239583348,
            "value": 0
          },
          {
            "number": 64,
            "time": 66.70562479166682,
            "value": 1
          },
          {
            "number": 64,
            "time": 69.3200623958335,
            "value": 0
          },
          {
            "number": 64,
            "time": 69.32142479166684,
            "value": 1
          },
          {
            "number": 64,
            "time": 74.55166239583359,
            "value": 0
          },
          {
            "number": 64,
            "time": 74.55302479166693,
            "value": 1
          },
          {
            "number": 64,
            "time": 77.16746239583361,
            "value": 0
          },
          {
            "number": 64,
            "time": 77.16882479166695,
            "value": 1
          },
          {
            "number": 64,
            "time": 79.78326239583363,
            "value": 0
          },
          {
            "number": 64,
            "time": 79.78462479166697,
            "value": 1
          },
          {
            "number": 64,
            "time": 82.39906239583365,
            "value": 0
          },
          {
            "number": 64,
            "time": 82.40042479166699,
            "value": 1
          },
          {
            "number": 64,
            "time": 85.01486239583366,
            "value": 0
          },
          {
            "number": 64,
            "time": 85.016224791667,
            "value": 1
          },
          {
            "number": 64,
            "time": 87.63066239583368,
            "value": 0
          },
          {
            "number": 64,
            "time": 87.63202479166702,
            "value": 1
          },
          {
            "number": 64,
            "time": 90.2464623958337,
            "value": 0
          },
          {
            "number": 64,
            "time": 90.24782479166704,
            "value": 1
          },
          {
            "number": 64,
            "time": 92.86226239583372,
            "value": 0
          },
          {
            "number": 64,
            "time": 92.86362479166706,
            "value": 1
          },
          {
            "number": 64,
            "time": 95.47806239583375,
            "value": 0
          },
          {
            "number": 64,
            "time": 95.47942479166709,
            "value": 1
          },
          {
            "number": 64,
            "time": 98.09386239583378,
            "value": 0
          },
          {
            "number": 64,
            "time": 98.09522479166712,
            "value": 1
          },
          {
            "number": 64,
            "time": 100.7096623958338,
            "value": 0
          },
          {
            "number": 64,
            "time": 100.71102479166714,
            "value": 1
          },
          {
            "number": 64,
            "time": 103.32546239583382,
            "value": 0
          },
          {
            "number": 64,
            "time": 103.32682479166716,
            "value": 1
          },
          {
            "number": 64,
            "time": 105.94126239583385,
            "value": 0
          },
          {
            "number": 64,
            "time": 105.94262479166719,
            "value": 1
          },
          {
            "number": 64,
            "time": 108.55706239583388,
            "value": 0
          },
          {
            "number": 64,
            "time": 108.55842479166722,
            "value": 1
          },
          {
            "number": 64,
            "time": 111.1728623958339,
            "value": 0
          },
          {
            "number": 64,
            "time": 111.17422479166724,
            "value": 1
          },
          {
            "number": 64,
            "time": 113.78866239583392,
            "value": 0
          },
          {
            "number": 64,
            "time": 113.79002479166726,
            "value": 1
          },
          {
            "number": 64,
            "time": 116.40446239583395,
            "value": 0
          },
          {
            "number": 64,
            "time": 116.40582479166729,
            "value": 1
          },
          {
            "number": 64,
            "time": 119.02026239583398,
            "value": 0
          },
          {
            "number": 64,
            "time": 119.02162479166732,
            "value": 1
          },
          {
            "number": 64,
            "time": 121.636062395834,
            "value": 0
          },
          {
            "number": 64,
            "time": 121.63742479166734,
            "value": 1
          },
          {
            "number": 64,
            "time": 124.25186239583404,
            "value": 0
          },
          {
            "number": 64,
            "time": 124.25322479166738,
            "value": 1
          },
          {
            "number": 64,
            "time": 126.86766239583407,
            "value": 0
          },
          {
            "number": 64,
            "time": 126.86902479166741,
            "value": 1
          },
          {
            "number": 64,
            "time": 129.48346239583398,
            "value": 0
          },
          {
            "number": 64,
            "time": 129.4848247916673,
            "value": 1
          },
          {
            "number": 64,
            "time": 132.09926239583393,
            "value": 0
          },
          {
            "number": 64,
            "time": 132.10062479166726,
            "value": 1
          },
          {
            "number": 64,
            "time": 134.71506239583383,
            "value": 0
          },
          {
            "number": 64,
            "time": 134.71642479166715,
            "value": 1
          },
          {
            "number": 64,
            "time": 137.33086239583378,
            "value": 0
          },
          {
            "number": 64,
            "time": 137.3322247916671,
            "value": 1
          },
          {
            "number": 64,
            "time": 142.56246239583382,
            "value": 0
          },
          {
            "number": 64,
            "time": 142.56382479166714,
            "value": 1
          },
          {
            "number": 64,
            "time": 153.02566239583388,
            "value": 0
          },
          {
            "number": 64,
            "time": 153.0270247916672,
            "value": 1
          },
          {
            "number": 64,
            "time": 155.64146239583388,
            "value": 0
          },
          {
            "number": 64,
            "time": 155.6428247916672,
            "value": 1
          },
          {
            "number": 64,
            "time": 158.25726239583386,
            "value": 0
          },
          {
            "number": 64,
            "time": 158.2586247916672,
            "value": 1
          },
          {
            "number": 64,
            "time": 160.87306239583356,
            "value": 0
          },
          {
            "number": 64,
            "time": 160.87442479166688,
            "value": 1
          },
          {
            "number": 64,
            "time": 163.48886239583325,
            "value": 0
          },
          {
            "number": 64,
            "time": 163.49022479166658,
            "value": 1
          },
          {
            "number": 64,
            "time": 166.10466239583295,
            "value": 0
          },
          {
            "number": 64,
            "time": 166.10602479166627,
            "value": 1
          },
          {
            "number": 64,
            "time": 168.7204623958327,
            "value": 0
          },
          {
            "number": 64,
            "time": 168.72182479166602,
            "value": 1
          },
          {
            "number": 64,
            "time": 171.3362623958324,
            "value": 0
          },
          {
            "number": 64,
            "time": 171.33762479166572,
            "value": 1
          },
          {
            "number": 64,
            "time": 173.9520623958321,
            "value": 0
          },
          {
            "number": 64,
            "time": 173.9534247916654,
            "value": 1
          },
          {
            "number": 64,
            "time": 176.56786239583178,
            "value": 0
          },
          {
            "number": 64,
            "time": 176.5692247916651,
            "value": 1
          },
          {
            "number": 64,
            "time": 179.18366239583153,
            "value": 0
          },
          {
            "number": 64,
            "time": 179.18502479166486,
            "value": 1
          },
          {
            "number": 64,
            "time": 181.79946239583123,
            "value": 0
          },
          {
            "number": 64,
            "time": 181.80082479166455,
            "value": 1
          },
          {
            "number": 64,
            "time": 184.41526239583092,
            "value": 0
          },
          {
            "number": 64,
            "time": 184.41662479166425,
            "value": 1
          },
          {
            "number": 64,
            "time": 187.03106239583062,
            "value": 0
          },
          {
            "number": 64,
            "time": 187.03242479166394,
            "value": 1
          },
          {
            "number": 64,
            "time": 189.6468623958303,
            "value": 0
          },
          {
            "number": 64,
            "time": 189.64822479166364,
            "value": 1
          },
          {
            "number": 64,
            "time": 192.26266239583032,
            "value": 0
          },
          {
            "number": 64,
            "time": 192.26402479166364,
            "value": 1
          },
          {
            "number": 64,
            "time": 194.87846239583033,
            "value": 0
          },
          {
            "number": 64,
            "time": 194.87982479166365,
            "value": 1
          },
          {
            "number": 64,
            "time": 202.724499999997,
            "value": 0
          }
        ]
      },
      "id": 1,
      "name": "Piano",
      "channelNumber": 0,
      "isPercussion": false
    }
  ]
}