{
  "header": {
    "PPQ": 480,
    "timeSignature": [
      3,
      4
    ],
    "bpm": 109.99990833340972,
    "name": ""
  },
  "tempo": [
    {
      "absoluteTime": 0,
      "seconds": 0,
      "bpm": 109.99990833340972
    }
  ],
  "timeSignature": [
    {
      "absoluteTime": 0,
      "seconds": 0,
      "numerator": 3,
      "denominator": 2,
      "click": 24,
      "notesQ": 8
    }
  ],
  "startTime": 0,
  "duration": 207.81721863541728,
  "tracks": [
    {
      "startTime": 24.00002,
      "duration": 204.5444886354209,
      "length": 420,
      "notes": [
        {
          "name": "C4",
          "midi": 60,
          "time": 24.00002,
          "velocity": 0.25984251968503935,
          "duration": 0.18068196875000098
        },
        {
          "name": "C5",
          "midi": 72,
          "time": 24.181838333333335,
          "velocity": 0.25984251968503935,
          "duration": 0.18068196875000098
        },
        {
          "name": "G#4",
          "midi": 68,
          "time": 24.36365666666667,
          "velocity": 0.25984251968503935,
          "duration": 0.18068196875000098
        },
        {
          "name": "A#4",
          "midi": 70,
          "time": 24.545475000000007,
          "velocity": 0.25984251968503935,
          "duration": 0.8170461354166676
        },
        {
          "name": "A#4",
          "midi": 70,
          "time": 25.36365750000001,
          "velocity": 0.25984251968503935,
          "duration": 0.5443186354166656
        },
        {
          "name": "G#4",
          "midi": 68,
          "time": 25.90911250000001,
          "velocity": 0.25984251968503935,
          "duration": 0.27159113541666713
        },
        {
          "name": "A#4",
          "midi": 70,
          "time": 26.18184000000001,
          "velocity": 0.25984251968503935,
          "duration": 0.8170461354166676
        },
        {
          "name": "G#4",
          "midi": 68,
          "time": 27.000022500000014,
          "velocity": 0.25984251968503935,
          "duration": 0.27159113541666713
        },
        {
          "name": "A#4",
          "midi": 70,
          "time": 27.272750000000016,
          "velocity": 0.25984251968503935,
          "duration": 0.5443186354166656
        },
        {
          "name": "A#4",
          "midi": 70,
          "time": 27.818205000000017,
          "velocity": 0.25984251968503935,
          "duration": 0.5443186354166656
        },
        {
          "name": "G#4",
          "midi": 68,
          "time": 28.363660000000017,
          "velocity": 0.25984251968503935,
          "duration": 0.5443186354166656
        },
        {
          "name": "G4",
          "midi": 67,
          "time": 28.909115000000018,
          "velocity": 0.25984251968503935,
          "duration": 0.5443186354166656
        },
        {
          "name": "F4",
          "midi": 65,
          "time": 29.454570000000018,
          "velocity": 0.25984251968503935,
          "duration": 1.6352286354166665
        },
        {
          "name": "F4",
          "midi": 65,
          "time": 36.00003000000002,
          "velocity": 0.25984251968503935,
          "duration": 0.8170461354166676
        },
        {
          "name": "C4",
          "midi": 60,
          "time": 36.818212500000016,
          "velocity": 0.25984251968503935,
          "duration": 0.8170461354166676
        },
        {
          "name": "G#4",
          "midi": 68,
          "time": 37.636395000000014,
          "velocity": 0.25984251968503935,
          "duration": 0.8170461354166676
        },
        {
          "name": "C4",
          "midi": 60,
          "time": 38.45457750000001,
          "velocity": 0.25984251968503935,
          "duration": 0.8170461354166676
        },
        {
          "name": "G#4",
          "midi": 68,
          "time": 39.27276000000001,
          "velocity": 0.25984251968503935,
          "duration": 0.8170461354166676
        },
        {
          "name": "C4",
          "midi": 60,
          "time": 40.09094250000001,
          "velocity": 0.25984251968503935,
          "duration": 0.8170461354166676
        },
        {
          "name": "D#4",
          "midi": 63,
          "time": 40.90912500000001,
          "velocity": 0.25984251968503935,
          "duration": 0.8170461354166676
        },
        {
          "name": "C4",
          "midi": 60,
          "time": 41.72730750000001,
          "velocity": 0.25984251968503935,
          "duration": 0.8170461354166676
        },
        {
          "name": "F4",
          "midi": 65,
          "time": 42.54549000000001,
          "velocity": 0.25984251968503935,
          "duration": 0.8170461354166676
        },
        {
          "name": "C4",
          "midi": 60,
          "time": 43.36367250000001,
          "velocity": 0.25984251968503935,
          "duration": 0.8170461354166676
        },
        {
          "name": "G#4",
          "midi": 68,
          "time": 44.181855000000006,
          "velocity": 0.25984251968503935,
          "duration": 0.8170461354166676
        },
        {
          "name": "C4",
          "midi": 60,
          "time": 45.000037500000005,
          "velocity": 0.25984251968503935,
          "duration": 0.8170461354166676
        },
        {
          "name": "G#4",
          "midi": 68,
          "time": 45.818220000000004,
          "velocity": 0.25984251968503935,
          "duration": 0.8170461354166676
        },
        {
          "name": "C4",
          "midi": 60,
          "time": 46.6364025,
          "velocity": 0.25984251968503935,
          "duration": 0.8170461354166676
        },
        {
          "name": "D#4",
          "midi": 63,
          "time": 47.454585,
          "velocity": 0.25984251968503935,
          "duration": 0.8170461354166676
        },
        {
          "name": "E4",
          "midi": 64,
          "time": 48.2727675,
          "velocity": 0.25984251968503935,
          "duration": 0.8170461354166676
        },
        {
          "name": "F4",
          "midi": 65,
          "time": 49.09095,
          "velocity": 0.25984251968503935,
          "duration": 0.5443186354166656
        },
        {
          "name": "C#5",
          "midi": 73,
          "time": 49.636404999999996,
          "velocity": 0.25984251968503935,
          "duration": 0.5443186354166656
        },
        {
          "name": "C#5",
          "midi": 73,
          "time": 50.18185999999999,
          "velocity": 0.25984251968503935,
          "duration": 0.18068196875000098
        },
        {
          "name": "C5",
          "midi": 72,
          "time": 50.363678333333326,
          "velocity": 0.25984251968503935,
          "duration": 0.18068196875000098
        },
        {
          "name": "C5",
          "midi": 72,
          "time": 50.54549666666666,
          "velocity": 0.25984251968503935,
          "duration": 0.9988644687499999
        },
        {
          "name": "A#4",
          "midi": 70,
          "time": 51.54549749999999,
          "velocity": 0.25984251968503935,
          "duration": 0.20340926041667018
        },
        {
          "name": "G#4",
          "midi": 68,
          "time": 51.75004312499999,
          "velocity": 0.25984251968503935,
          "duration": 0.4079548854166646
        },
        {
          "name": "A#4",
          "midi": 70,
          "time": 52.15913437499999,
          "velocity": 0.25984251968503935,
          "duration": 1.021591760416669
        },
        {
          "name": "A#4",
          "midi": 70,
          "time": 53.18186249999999,
          "velocity": 0.25984251968503935,
          "duration": 0.20340926041667018
        },
        {
          "name": "G#4",
          "midi": 68,
          "time": 53.38640812499999,
          "velocity": 0.25984251968503935,
          "duration": 0.4079548854166646
        },
        {
          "name": "A#4",
          "midi": 70,
          "time": 53.795499374999984,
          "velocity": 0.25984251968503935,
          "duration": 1.021591760416669
        },
        {
          "name": "G#4",
          "midi": 68,
          "time": 54.818227499999985,
          "velocity": 0.25984251968503935,
          "duration": 0.8170461354166676
        },
        {
          "name": "F4",
          "midi": 65,
          "time": 55.636409999999984,
          "velocity": 0.25984251968503935,
          "duration": 0.5443186354166656
        },
        {
          "name": "C#5",
          "midi": 73,
          "time": 56.18186499999998,
          "velocity": 0.25984251968503935,
          "duration": 0.5443186354166656
        },
        {
          "name": "C#5",
          "midi": 73,
          "time": 56.72731999999998,
          "velocity": 0.25984251968503935,
          "duration": 0.18068196875000098
        },
        {
          "name": "C5",
          "midi": 72,
          "time": 56.90913833333331,
          "velocity": 0.25984251968503935,
          "duration": 0.18068196875000098
        },
        {
          "name": "C5",
          "midi": 72,
          "time": 57.09095666666664,
          "velocity": 0.25984251968503935,
          "duration": 0.9988644687499999
        },
        {
          "name": "A#4",
          "midi": 70,
          "time": 58.09095749999997,
          "velocity": 0.25984251968503935,
          "duration": 0.20340926041667018
        },
        {
          "name": "G#4",
          "midi": 68,
          "time": 58.295503124999975,
          "velocity": 0.25984251968503935,
          "duration": 0.4079548854166646
        },
        {
          "name": "C5",
          "midi": 72,
          "time": 58.70459437499997,
          "velocity": 0.25984251968503935,
          "duration": 1.021591760416669
        },
        {
          "name": "A#4",
          "midi": 70,
          "time": 59.72732249999997,
          "velocity": 0.25984251968503935,
          "duration": 0.20340926041667018
        },
        {
          "name": "G#4",
          "midi": 68,
          "time": 59.93186812499997,
          "velocity": 0.25984251968503935,
          "duration": 0.4079548854166646
        },
        {
          "name": "G4",
          "midi": 67,
          "time": 60.34095937499997,
          "velocity": 0.25984251968503935,
          "duration": 1.021591760416669
        },
        {
          "name": "C6",
          "midi": 84,
          "time": 64.36368999999998,
          "velocity": 0.3858267716535433,
          "duration": 1.0897736354166625
        },
        {
          "name": "D#6",
          "midi": 87,
          "time": 65.45459999999997,
          "velocity": 0.3858267716535433,
          "duration": 1.3625011354166645
        },
        {
          "name": "F6",
          "midi": 89,
          "time": 66.81823749999997,
          "velocity": 0.3858267716535433,
          "duration": 0.2715911354166707
        },
        {
          "name": "C6",
          "midi": 84,
          "time": 67.09096499999997,
          "velocity": 0.3858267716535433,
          "duration": 2.7261386354166603
        },
        {
          "name": "G5",
          "midi": 79,
          "time": 69.81823999999996,
          "velocity": 0.3858267716535433,
          "duration": 0.5443186354166727
        },
        {
          "name": "G#5",
          "midi": 80,
          "time": 70.36369499999996,
          "velocity": 0.3858267716535433,
          "duration": 1.6352286354166665
        },
        {
          "name": "G#6",
          "midi": 92,
          "time": 72.00005999999996,
          "velocity": 0.3858267716535433,
          "duration": 1.6352286354166665
        },
        {
          "name": "G6",
          "midi": 91,
          "time": 73.63642499999996,
          "velocity": 0.3858267716535433,
          "duration": 2.7261386354166603
        },
        {
          "name": "C#6",
          "midi": 85,
          "time": 76.90915499999996,
          "velocity": 0.6299212598425197,
          "duration": 0.13522738541666968
        },
        {
          "name": "C6",
          "midi": 84,
          "time": 77.18188249999996,
          "velocity": 0.6299212598425197,
          "duration": 0.13522738541666968
        },
        {
          "name": "F6",
          "midi": 89,
          "time": 77.45460999999996,
          "velocity": 0.6299212598425197,
          "duration": 0.13522738541666968
        },
        {
          "name": "C6",
          "midi": 84,
          "time": 77.72733749999996,
          "velocity": 0.6299212598425197,
          "duration": 0.13522738541666968
        },
        {
          "name": "A#5",
          "midi": 82,
          "time": 78.00006499999996,
          "velocity": 0.6299212598425197,
          "duration": 0.13522738541666968
        },
        {
          "name": "C6",
          "midi": 84,
          "time": 78.27279249999997,
          "velocity": 0.6299212598425197,
          "duration": 0.13522738541666968
        },
        {
          "name": "F6",
          "midi": 89,
          "time": 78.54551999999997,
          "velocity": 0.6299212598425197,
          "duration": 0.13522738541666968
        },
        {
          "name": "A#5",
          "midi": 82,
          "time": 78.81824749999997,
          "velocity": 0.6299212598425197,
          "duration": 0.13522738541666968
        },
        {
          "name": "C6",
          "midi": 84,
          "time": 79.09097499999997,
          "velocity": 0.6299212598425197,
          "duration": 0.13522738541666968
        },
        {
          "name": "G#6",
          "midi": 92,
          "time": 79.36370249999997,
          "velocity": 0.6299212598425197,
          "duration": 0.13522738541666968
        },
        {
          "name": "G6",
          "midi": 91,
          "time": 79.63642999999998,
          "velocity": 0.6299212598425197,
          "duration": 0.13522738541666968
        },
        {
          "name": "F6",
          "midi": 89,
          "time": 79.90915749999998,
          "velocity": 0.6299212598425197,
          "duration": 0.13522738541666968
        },
        {
          "name": "F6",
          "midi": 89,
          "time": 80.18188499999998,
          "velocity": 0.6299212598425197,
          "duration": 0.13522738541666968
        },
        {
          "name": "G#6",
          "midi": 92,
          "time": 80.45461249999998,
          "velocity": 0.6299212598425197,
          "duration": 0.13522738541666968
        },
        {
          "name": "F6",
          "midi": 89,
          "time": 80.72733999999998,
          "velocity": 0.6299212598425197,
          "duration": 0.13522738541666968
        },
        {
          "name": "D#6",
          "midi": 87,
          "time": 81.00006749999999,
          "velocity": 0.6299212598425197,
          "duration": 0.13522738541666968
        },
        {
          "name": "C#6",
          "midi": 85,
          "time": 81.27279499999999,
          "velocity": 0.6299212598425197,
          "duration": 0.13522738541666968
        },
        {
          "name": "D#6",
          "midi": 87,
          "time": 81.54552249999999,
          "velocity": 0.6299212598425197,
          "duration": 0.13522738541666968
        },
        {
          "name": "D#6",
          "midi": 87,
          "time": 81.81824999999999,
          "velocity": 0.6299212598425197,
          "duration": 0.13522738541666968
        },
        {
          "name": "G6",
          "midi": 91,
          "time": 82.0909775,
          "velocity": 0.6299212598425197,
          "duration": 0.13522738541666968
        },
        {
          "name": "C#6",
          "midi": 85,
          "time": 82.363705,
          "velocity": 0.6299212598425197,
          "duration": 0.13522738541666968
        },
        {
          "name": "D#6",
          "midi": 87,
          "time": 82.6364325,
          "velocity": 0.6299212598425197,
          "duration": 0.13522738541666968
        },
        {
          "name": "C6",
          "midi": 84,
          "time": 82.90916,
          "velocity": 0.6299212598425197,
          "duration": 0.13522738541666968
        },
        {
          "name": "D#6",
          "midi": 87,
          "time": 83.1818875,
          "velocity": 0.6299212598425197,
          "duration": 0.13522738541666968
        },
        {
          "name": "F6",
          "midi": 89,
          "time": 83.454615,
          "velocity": 0.6299212598425197,
          "duration": 0.13522738541666968
        },
        {
          "name": "G6",
          "midi": 91,
          "time": 83.7273425,
          "velocity": 0.6299212598425197,
          "duration": 0.13522738541666968
        },
        {
          "name": "C6",
          "midi": 84,
          "time": 84.00007000000001,
          "velocity": 0.6299212598425197,
          "duration": 0.13522738541666968
        },
        {
          "name": "D#6",
          "midi": 87,
          "time": 84.27279750000001,
          "velocity": 0.6299212598425197,
          "duration": 0.13522738541666968
        },
        {
          "name": "F6",
          "midi": 89,
          "time": 84.54552500000001,
          "velocity": 0.6299212598425197,
          "duration": 0.13522738541666968
        },
        {
          "name": "F6",
          "midi": 89,
          "time": 84.81825250000001,
          "velocity": 0.6299212598425197,
          "duration": 0.06704551041666207
        },
        {
          "name": "F6",
          "midi": 89,
          "time": 84.95461625000002,
          "velocity": 0.6299212598425197,
          "duration": 0.06704551041666207
        },
        {
          "name": "F6",
          "midi": 89,
          "time": 85.09098000000002,
          "velocity": 0.6299212598425197,
          "duration": 0.13522738541666968
        },
        {
          "name": "G6",
          "midi": 91,
          "time": 85.36370750000002,
          "velocity": 0.6299212598425197,
          "duration": 0.13522738541666968
        },
        {
          "name": "C6",
          "midi": 84,
          "time": 85.63643500000002,
          "velocity": 0.6299212598425197,
          "duration": 0.13522738541666968
        },
        {
          "name": "D#6",
          "midi": 87,
          "time": 85.90916250000002,
          "velocity": 0.6299212598425197,
          "duration": 0.13522738541666968
        },
        {
          "name": "F6",
          "midi": 89,
          "time": 86.18189000000002,
          "velocity": 0.6299212598425197,
          "duration": 0.13522738541666968
        },
        {
          "name": "F6",
          "midi": 89,
          "time": 86.45461750000003,
          "velocity": 0.6299212598425197,
          "duration": 0.06704551041666207
        },
        {
          "name": "F6",
          "midi": 89,
          "time": 86.59098125000003,
          "velocity": 0.6299212598425197,
          "duration": 0.06704551041666207
        },
        {
          "name": "F6",
          "midi": 89,
          "time": 86.72734500000003,
          "velocity": 0.6299212598425197,
          "duration": 0.13522738541666968
        },
        {
          "name": "G6",
          "midi": 91,
          "time": 87.00007250000003,
          "velocity": 0.6299212598425197,
          "duration": 0.13522738541666968
        },
        {
          "name": "D#6",
          "midi": 87,
          "time": 87.27280000000003,
          "velocity": 0.6299212598425197,
          "duration": 0.8170461354166605
        },
        {
          "name": "C#6",
          "midi": 85,
          "time": 88.09098250000002,
          "velocity": 0.6299212598425197,
          "duration": 0.2715911354166707
        },
        {
          "name": "C6",
          "midi": 84,
          "time": 88.36371000000003,
          "velocity": 0.6299212598425197,
          "duration": 1.6352286354166665
        },
        {
          "name": "F5",
          "midi": 77,
          "time": 100.90917500000003,
          "velocity": 0.25984251968503935,
          "duration": 0.2715911354166707
        },
        {
          "name": "G5",
          "midi": 79,
          "time": 101.18190250000004,
          "velocity": 0.25984251968503935,
          "duration": 0.2715911354166707
        },
        {
          "name": "G5",
          "midi": 79,
          "time": 101.45463000000004,
          "velocity": 0.25984251968503935,
          "duration": 0.2715911354166707
        },
        {
          "name": "G5",
          "midi": 79,
          "time": 101.72735750000004,
          "velocity": 0.25984251968503935,
          "duration": 0.2715911354166707
        },
        {
          "name": "G5",
          "midi": 79,
          "time": 102.00008500000004,
          "velocity": 0.25984251968503935,
          "duration": 0.2715911354166707
        },
        {
          "name": "F5",
          "midi": 77,
          "time": 102.27281250000004,
          "velocity": 0.25984251968503935,
          "duration": 0.8170461354166605
        },
        {
          "name": "G#5",
          "midi": 80,
          "time": 113.72736750000004,
          "velocity": 0.25984251968503935,
          "duration": 0.8170461354166605
        },
        {
          "name": "G5",
          "midi": 79,
          "time": 114.54555000000003,
          "velocity": 0.25984251968503935,
          "duration": 0.8170461354166605
        },
        {
          "name": "G#4",
          "midi": 68,
          "time": 115.36373250000003,
          "velocity": 0.25984251968503935,
          "duration": 0.8170461354166605
        },
        {
          "name": "G4",
          "midi": 67,
          "time": 116.18191500000002,
          "velocity": 0.25984251968503935,
          "duration": 0.8170461354166605
        },
        {
          "name": "C5",
          "midi": 72,
          "time": 117.00009750000001,
          "velocity": 0.25984251968503935,
          "duration": 0.8170461354166605
        },
        {
          "name": "G4",
          "midi": 67,
          "time": 117.81828,
          "velocity": 0.25984251968503935,
          "duration": 0.8170461354166605
        },
        {
          "name": "A#4",
          "midi": 70,
          "time": 118.6364625,
          "velocity": 0.25984251968503935,
          "duration": 0.8170461354166605
        },
        {
          "name": "G4",
          "midi": 67,
          "time": 119.45464499999999,
          "velocity": 0.25984251968503935,
          "duration": 0.8170461354166605
        },
        {
          "name": "C4",
          "midi": 60,
          "time": 120.27282749999998,
          "velocity": 0.28346456692913385,
          "duration": 0.27159113541665647
        },
        {
          "name": "C4",
          "midi": 60,
          "time": 120.54555499999996,
          "velocity": 0.2992125984251969,
          "duration": 0.2715911354166707
        },
        {
          "name": "C4",
          "midi": 60,
          "time": 120.81828249999997,
          "velocity": 0.30708661417322836,
          "duration": 0.27159113541665647
        },
        {
          "name": "G#4",
          "midi": 68,
          "time": 121.09100999999995,
          "velocity": 0.31496062992125984,
          "duration": 0.8170461354166605
        },
        {
          "name": "C4",
          "midi": 60,
          "time": 121.90919249999995,
          "velocity": 0.3464566929133858,
          "duration": 0.2715911354166707
        },
        {
          "name": "C4",
          "midi": 60,
          "time": 122.18191999999995,
          "velocity": 0.3543307086614173,
          "duration": 0.27159113541665647
        },
        {
          "name": "C4",
          "midi": 60,
          "time": 122.45464749999994,
          "velocity": 0.3700787401574803,
          "duration": 0.2715911354166707
        },
        {
          "name": "A#4",
          "midi": 70,
          "time": 122.72737499999994,
          "velocity": 0.3779527559055118,
          "duration": 0.8170461354166605
        },
        {
          "name": "G#4",
          "midi": 68,
          "time": 123.54555749999993,
          "velocity": 0.4094488188976378,
          "duration": 0.2715911354166707
        },
        {
          "name": "G4",
          "midi": 67,
          "time": 123.81828499999993,
          "velocity": 0.41732283464566927,
          "duration": 0.8170461354166605
        },
        {
          "name": "F4",
          "midi": 65,
          "time": 124.63646749999992,
          "velocity": 0.44881889763779526,
          "duration": 0.2715911354166707
        },
        {
          "name": "G4",
          "midi": 67,
          "time": 124.90919499999993,
          "velocity": 0.4566929133858268,
          "duration": 0.27159113541665647
        },
        {
          "name": "G#4",
          "midi": 68,
          "time": 125.18192249999991,
          "velocity": 0.47244094488188976,
          "duration": 0.2715911354166707
        },
        {
          "name": "C4",
          "midi": 60,
          "time": 125.45464999999992,
          "velocity": 0.48031496062992124,
          "duration": 0.27159113541665647
        },
        {
          "name": "G#4",
          "midi": 68,
          "time": 125.7273774999999,
          "velocity": 0.4881889763779528,
          "duration": 0.2715911354166707
        },
        {
          "name": "G4",
          "midi": 67,
          "time": 126.0001049999999,
          "velocity": 0.5039370078740157,
          "duration": 0.18068196874999387
        },
        {
          "name": "C4",
          "midi": 60,
          "time": 126.18192333333323,
          "velocity": 0.5039370078740157,
          "duration": 0.18068196874999387
        },
        {
          "name": "A#3",
          "midi": 58,
          "time": 126.36374166666656,
          "velocity": 0.5039370078740157,
          "duration": 0.18068196875000808
        },
        {
          "name": "G3",
          "midi": 55,
          "time": 126.5455599999999,
          "velocity": 0.5118110236220472,
          "duration": 0.18068196874999387
        },
        {
          "name": "F4",
          "midi": 65,
          "time": 126.72737833333322,
          "velocity": 0.5118110236220472,
          "duration": 0.18068196874999387
        },
        {
          "name": "E4",
          "midi": 64,
          "time": 126.90919666666655,
          "velocity": 0.5196850393700787,
          "duration": 0.18068196874999387
        },
        {
          "name": "G4",
          "midi": 67,
          "time": 127.09101499999987,
          "velocity": 0.5196850393700787,
          "duration": 0.18068196875000808
        },
        {
          "name": "C#4",
          "midi": 61,
          "time": 127.27283333333321,
          "velocity": 0.5275590551181102,
          "duration": 0.18068196874999387
        },
        {
          "name": "C4",
          "midi": 60,
          "time": 127.45465166666654,
          "velocity": 0.5275590551181102,
          "duration": 0.18068196874999387
        },
        {
          "name": "G#4",
          "midi": 68,
          "time": 127.63646999999986,
          "velocity": 0.5354330708661418,
          "duration": 0.18068196874999387
        },
        {
          "name": "C#4",
          "midi": 61,
          "time": 127.81828833333319,
          "velocity": 0.5354330708661418,
          "duration": 0.18068196875000808
        },
        {
          "name": "C4",
          "midi": 60,
          "time": 128.00010666666654,
          "velocity": 0.5433070866141733,
          "duration": 0.18068196875000808
        },
        {
          "name": "G#4",
          "midi": 68,
          "time": 128.1819249999999,
          "velocity": 0.5433070866141733,
          "duration": 0.18068196875000808
        },
        {
          "name": "G4",
          "midi": 67,
          "time": 128.36374333333325,
          "velocity": 0.5511811023622047,
          "duration": 0.18068196875000808
        },
        {
          "name": "F4",
          "midi": 65,
          "time": 128.5455616666666,
          "velocity": 0.5511811023622047,
          "duration": 0.18068196875000808
        },
        {
          "name": "G#4",
          "midi": 68,
          "time": 128.72737999999995,
          "velocity": 0.5511811023622047,
          "duration": 0.18068196875000808
        },
        {
          "name": "C#4",
          "midi": 61,
          "time": 128.9091983333333,
          "velocity": 0.5590551181102362,
          "duration": 0.18068196875000808
        },
        {
          "name": "C4",
          "midi": 60,
          "time": 129.09101666666666,
          "velocity": 0.5590551181102362,
          "duration": 0.18068196875000808
        },
        {
          "name": "C5",
          "midi": 72,
          "time": 129.27283500000001,
          "velocity": 0.5669291338582677,
          "duration": 0.18068196875000808
        },
        {
          "name": "A#4",
          "midi": 70,
          "time": 129.45465333333337,
          "velocity": 0.5669291338582677,
          "duration": 0.18068196875000808
        },
        {
          "name": "C#4",
          "midi": 61,
          "time": 129.63647166666672,
          "velocity": 0.5748031496062992,
          "duration": 0.18068196875000808
        },
        {
          "name": "C4",
          "midi": 60,
          "time": 129.81829000000008,
          "velocity": 0.5748031496062992,
          "duration": 0.18068196874997966
        },
        {
          "name": "G#4",
          "midi": 68,
          "time": 130.0001083333334,
          "velocity": 0.5826771653543307,
          "duration": 0.18068196875000808
        },
        {
          "name": "G4",
          "midi": 67,
          "time": 130.18192666666675,
          "velocity": 0.5826771653543307,
          "duration": 0.18068196875000808
        },
        {
          "name": "A#4",
          "midi": 70,
          "time": 130.3637450000001,
          "velocity": 0.5905511811023622,
          "duration": 0.18068196875000808
        },
        {
          "name": "C#4",
          "midi": 61,
          "time": 130.54556333333346,
          "velocity": 0.5905511811023622,
          "duration": 0.18068196875000808
        },
        {
          "name": "C4",
          "midi": 60,
          "time": 130.72738166666682,
          "velocity": 0.5984251968503937,
          "duration": 0.18068196875000808
        },
        {
          "name": "C#5",
          "midi": 73,
          "time": 130.90920000000017,
          "velocity": 0.5984251968503937,
          "duration": 0.18068196875000808
        },
        {
          "name": "C5",
          "midi": 72,
          "time": 131.09101833333352,
          "velocity": 0.5984251968503937,
          "duration": 0.18068196875000808
        },
        {
          "name": "F4",
          "midi": 65,
          "time": 131.27283666666688,
          "velocity": 0.6062992125984252,
          "duration": 0.18068196875000808
        },
        {
          "name": "C5",
          "midi": 72,
          "time": 131.45465500000023,
          "velocity": 0.6062992125984252,
          "duration": 0.18068196875000808
        },
        {
          "name": "G#4",
          "midi": 68,
          "time": 131.63647333333358,
          "velocity": 0.6141732283464567,
          "duration": 0.18068196875000808
        },
        {
          "name": "F4",
          "midi": 65,
          "time": 131.81829166666694,
          "velocity": 0.6141732283464567,
          "duration": 0.18068196874997966
        },
        {
          "name": "C5",
          "midi": 72,
          "time": 132.00011000000026,
          "velocity": 0.6220472440944882,
          "duration": 0.18068196875000808
        },
        {
          "name": "C#5",
          "midi": 73,
          "time": 132.18192833333362,
          "velocity": 0.6220472440944882,
          "duration": 0.18068196875000808
        },
        {
          "name": "D#5",
          "midi": 75,
          "time": 132.36374666666697,
          "velocity": 0.6299212598425197,
          "duration": 0.18068196875000808
        },
        {
          "name": "F5",
          "midi": 77,
          "time": 132.54556500000032,
          "velocity": 0.6299212598425197,
          "duration": 0.18068196875000808
        },
        {
          "name": "G#4",
          "midi": 68,
          "time": 132.72738333333368,
          "velocity": 0.6377952755905512,
          "duration": 0.18068196875000808
        },
        {
          "name": "G4",
          "midi": 67,
          "time": 132.90920166666703,
          "velocity": 0.6377952755905512,
          "duration": 0.18068196875000808
        },
        {
          "name": "F4",
          "midi": 65,
          "time": 133.09102000000038,
          "velocity": 0.6456692913385826,
          "duration": 0.18068196875000808
        },
        {
          "name": "D#5",
          "midi": 75,
          "time": 133.27283833333374,
          "velocity": 0.6456692913385826,
          "duration": 0.18068196874997966
        },
        {
          "name": "C#5",
          "midi": 73,
          "time": 133.45465666666706,
          "velocity": 0.6535433070866141,
          "duration": 0.18068196875000808
        },
        {
          "name": "F5",
          "midi": 77,
          "time": 133.63647500000042,
          "velocity": 0.6535433070866141,
          "duration": 0.18068196875000808
        },
        {
          "name": "D#5",
          "midi": 75,
          "time": 133.81829333333377,
          "velocity": 0.6535433070866141,
          "duration": 0.18068196874997966
        },
        {
          "name": "C#5",
          "midi": 73,
          "time": 134.0001116666671,
          "velocity": 0.6614173228346457,
          "duration": 0.18068196875000808
        },
        {
          "name": "G5",
          "midi": 79,
          "time": 134.18193000000045,
          "velocity": 0.6614173228346457,
          "duration": 0.18068196875000808
        },
        {
          "name": "C#5",
          "midi": 73,
          "time": 134.3637483333338,
          "velocity": 0.6692913385826772,
          "duration": 0.18068196875000808
        },
        {
          "name": "C5",
          "midi": 72,
          "time": 134.54556666666716,
          "velocity": 0.6692913385826772,
          "duration": 0.18068196875000808
        },
        {
          "name": "G4",
          "midi": 67,
          "time": 134.7273850000005,
          "velocity": 0.6771653543307087,
          "duration": 0.18068196875000808
        },
        {
          "name": "F5",
          "midi": 77,
          "time": 134.90920333333386,
          "velocity": 0.6771653543307087,
          "duration": 0.18068196875000808
        },
        {
          "name": "D#5",
          "midi": 75,
          "time": 135.09102166666722,
          "velocity": 0.6850393700787402,
          "duration": 0.18068196875000808
        },
        {
          "name": "G5",
          "midi": 79,
          "time": 135.27284000000057,
          "velocity": 0.6850393700787402,
          "duration": 0.18068196874997966
        },
        {
          "name": "C#5",
          "midi": 73,
          "time": 135.4546583333339,
          "velocity": 0.6929133858267716,
          "duration": 0.18068196875000808
        },
        {
          "name": "C5",
          "midi": 72,
          "time": 135.63647666666725,
          "velocity": 0.6929133858267716,
          "duration": 0.18068196875000808
        },
        {
          "name": "G#5",
          "midi": 80,
          "time": 135.8182950000006,
          "velocity": 0.7007874015748031,
          "duration": 0.18068196875000808
        },
        {
          "name": "F5",
          "midi": 77,
          "time": 136.00011333333396,
          "velocity": 0.7007874015748031,
          "duration": 0.18068196875000808
        },
        {
          "name": "C5",
          "midi": 72,
          "time": 136.1819316666673,
          "velocity": 0.7007874015748031,
          "duration": 0.18068196875000808
        },
        {
          "name": "G#5",
          "midi": 80,
          "time": 136.36375000000066,
          "velocity": 0.7086614173228346,
          "duration": 0.18068196875000808
        },
        {
          "name": "G5",
          "midi": 79,
          "time": 136.54556833333402,
          "velocity": 0.7086614173228346,
          "duration": 0.18068196875000808
        },
        {
          "name": "F5",
          "midi": 77,
          "time": 136.72738666666737,
          "velocity": 0.7165354330708661,
          "duration": 0.18068196875000808
        },
        {
          "name": "G#5",
          "midi": 80,
          "time": 136.90920500000072,
          "velocity": 0.7165354330708661,
          "duration": 0.18068196874997966
        },
        {
          "name": "F5",
          "midi": 77,
          "time": 137.09102333333405,
          "velocity": 0.7244094488188977,
          "duration": 0.18068196875000808
        },
        {
          "name": "C5",
          "midi": 72,
          "time": 137.2728416666674,
          "velocity": 0.7244094488188977,
          "duration": 0.18068196874997966
        },
        {
          "name": "G#5",
          "midi": 80,
          "time": 137.45466000000073,
          "velocity": 0.7322834645669292,
          "duration": 0.18068196875000808
        },
        {
          "name": "G5",
          "midi": 79,
          "time": 137.63647833333408,
          "velocity": 0.7322834645669292,
          "duration": 0.18068196875000808
        },
        {
          "name": "F5",
          "midi": 77,
          "time": 137.81829666666744,
          "velocity": 0.7401574803149606,
          "duration": 0.18068196875000808
        },
        {
          "name": "A#5",
          "midi": 82,
          "time": 138.0001150000008,
          "velocity": 0.7401574803149606,
          "duration": 0.18068196875000808
        },
        {
          "name": "G#5",
          "midi": 80,
          "time": 138.18193333333414,
          "velocity": 0.7480314960629921,
          "duration": 0.18068196875000808
        },
        {
          "name": "G5",
          "midi": 79,
          "time": 138.3637516666675,
          "velocity": 0.7480314960629921,
          "duration": 0.18068196875000808
        },
        {
          "name": "C6",
          "midi": 84,
          "time": 138.54557000000085,
          "velocity": 0.7559055118110236,
          "duration": 0.18068196875000808
        },
        {
          "name": "A#5",
          "midi": 82,
          "time": 138.7273883333342,
          "velocity": 0.7559055118110236,
          "duration": 0.18068196875000808
        },
        {
          "name": "G#5",
          "midi": 80,
          "time": 138.90920666666756,
          "velocity": 0.7559055118110236,
          "duration": 0.18068196875000808
        },
        {
          "name": "G5",
          "midi": 79,
          "time": 139.0910250000009,
          "velocity": 0.6299212598425197,
          "duration": 0.18068196875000808
        },
        {
          "name": "C5",
          "midi": 72,
          "time": 139.27284333333427,
          "velocity": 0.6299212598425197,
          "duration": 0.18068196875000808
        },
        {
          "name": "A#4",
          "midi": 70,
          "time": 139.45466166666762,
          "velocity": 0.6299212598425197,
          "duration": 0.18068196875000808
        },
        {
          "name": "G4",
          "midi": 67,
          "time": 139.63648000000097,
          "velocity": 0.6299212598425197,
          "duration": 0.18068196875000808
        },
        {
          "name": "F5",
          "midi": 77,
          "time": 139.81829833333433,
          "velocity": 0.6299212598425197,
          "duration": 0.18068196875000808
        },
        {
          "name": "E5",
          "midi": 76,
          "time": 140.00011666666768,
          "velocity": 0.6299212598425197,
          "duration": 0.18068196875000808
        },
        {
          "name": "G5",
          "midi": 79,
          "time": 140.18193500000103,
          "velocity": 0.6299212598425197,
          "duration": 0.18068196875000808
        },
        {
          "name": "C#5",
          "midi": 73,
          "time": 140.3637533333344,
          "velocity": 0.6299212598425197,
          "duration": 0.18068196875000808
        },
        {
          "name": "C5",
          "midi": 72,
          "time": 140.54557166666774,
          "velocity": 0.6299212598425197,
          "duration": 0.18068196875000808
        },
        {
          "name": "G#5",
          "midi": 80,
          "time": 140.7273900000011,
          "velocity": 0.6299212598425197,
          "duration": 0.18068196875000808
        },
        {
          "name": "C#5",
          "midi": 73,
          "time": 140.90920833333445,
          "velocity": 0.6299212598425197,
          "duration": 0.18068196875000808
        },
        {
          "name": "C5",
          "midi": 72,
          "time": 141.0910266666678,
          "velocity": 0.6299212598425197,
          "duration": 0.18068196875000808
        },
        {
          "name": "G#4",
          "midi": 68,
          "time": 141.27284500000115,
          "velocity": 0.6299212598425197,
          "duration": 0.18068196875000808
        },
        {
          "name": "A#4",
          "midi": 70,
          "time": 141.4546633333345,
          "velocity": 0.6299212598425197,
          "duration": 0.18068196875000808
        },
        {
          "name": "G4",
          "midi": 67,
          "time": 141.63648166666786,
          "velocity": 0.6299212598425197,
          "duration": 0.18068196875000808
        },
        {
          "name": "F4",
          "midi": 65,
          "time": 141.81830000000122,
          "velocity": 0.6299212598425197,
          "duration": 0.18068196875000808
        },
        {
          "name": "C#5",
          "midi": 73,
          "time": 142.00011833333457,
          "velocity": 0.6299212598425197,
          "duration": 0.18068196875000808
        },
        {
          "name": "F5",
          "midi": 77,
          "time": 142.18193666666792,
          "velocity": 0.6299212598425197,
          "duration": 0.18068196875000808
        },
        {
          "name": "G5",
          "midi": 79,
          "time": 142.36375500000128,
          "velocity": 0.6299212598425197,
          "duration": 0.18068196875000808
        },
        {
          "name": "G5",
          "midi": 79,
          "time": 142.54557333333463,
          "velocity": 0.6299212598425197,
          "duration": 0.18068196875000808
        },
        {
          "name": "C5",
          "midi": 72,
          "time": 142.72739166666798,
          "velocity": 0.6299212598425197,
          "duration": 0.18068196875000808
        },
        {
          "name": "C6",
          "midi": 84,
          "time": 142.90921000000134,
          "velocity": 0.6299212598425197,
          "duration": 0.18068196875000808
        },
        {
          "name": "C6",
          "midi": 84,
          "time": 143.0910283333347,
          "velocity": 0.6299212598425197,
          "duration": 0.18068196875000808
        },
        {
          "name": "C5",
          "midi": 72,
          "time": 143.27284666666804,
          "velocity": 0.6299212598425197,
          "duration": 0.18068196875000808
        },
        {
          "name": "G5",
          "midi": 79,
          "time": 143.4546650000014,
          "velocity": 0.6299212598425197,
          "duration": 0.18068196875000808
        },
        {
          "name": "G5",
          "midi": 79,
          "time": 143.63648333333475,
          "velocity": 0.6299212598425197,
          "duration": 0.18068196875000808
        },
        {
          "name": "A#5",
          "midi": 82,
          "time": 143.8183016666681,
          "velocity": 0.6299212598425197,
          "duration": 0.18068196875000808
        },
        {
          "name": "G#5",
          "midi": 80,
          "time": 144.00012000000146,
          "velocity": 0.6299212598425197,
          "duration": 0.18068196875000808
        },
        {
          "name": "G5",
          "midi": 79,
          "time": 144.1819383333348,
          "velocity": 0.6299212598425197,
          "duration": 0.18068196875000808
        },
        {
          "name": "F5",
          "midi": 77,
          "time": 144.36375666666817,
          "velocity": 0.6299212598425197,
          "duration": 0.18068196875000808
        },
        {
          "name": "G#5",
          "midi": 80,
          "time": 144.54557500000152,
          "velocity": 0.6299212598425197,
          "duration": 0.18068196875000808
        },
        {
          "name": "G5",
          "midi": 79,
          "time": 144.72739333333487,
          "velocity": 0.6299212598425197,
          "duration": 0.18068196875000808
        },
        {
          "name": "F5",
          "midi": 77,
          "time": 144.90921166666823,
          "velocity": 0.6299212598425197,
          "duration": 0.18068196875000808
        },
        {
          "name": "G5",
          "midi": 79,
          "time": 145.09103000000158,
          "velocity": 0.6299212598425197,
          "duration": 0.18068196875000808
        },
        {
          "name": "G#5",
          "midi": 80,
          "time": 145.27284833333493,
          "velocity": 0.6299212598425197,
          "duration": 0.18068196875000808
        },
        {
          "name": "F5",
          "midi": 77,
          "time": 145.4546666666683,
          "velocity": 0.6299212598425197,
          "duration": 0.18068196875000808
        },
        {
          "name": "A#5",
          "midi": 82,
          "time": 145.63648500000164,
          "velocity": 0.6299212598425197,
          "duration": 0.18068196875000808
        },
        {
          "name": "G#5",
          "midi": 80,
          "time": 145.818303333335,
          "velocity": 0.6299212598425197,
          "duration": 0.18068196875000808
        },
        {
          "name": "G5",
          "midi": 79,
          "time": 146.00012166666835,
          "velocity": 0.6299212598425197,
          "duration": 0.18068196875000808
        },
        {
          "name": "F5",
          "midi": 77,
          "time": 146.1819400000017,
          "velocity": 0.6299212598425197,
          "duration": 0.18068196875000808
        },
        {
          "name": "G5",
          "midi": 79,
          "time": 146.36375833333506,
          "velocity": 0.6299212598425197,
          "duration": 0.18068196875000808
        },
        {
          "name": "D#5",
          "midi": 75,
          "time": 146.5455766666684,
          "velocity": 0.6299212598425197,
          "duration": 0.18068196875000808
        },
        {
          "name": "C#5",
          "midi": 73,
          "time": 146.72739500000176,
          "velocity": 0.6299212598425197,
          "duration": 0.18068196875000808
        },
        {
          "name": "D#5",
          "midi": 75,
          "time": 146.90921333333512,
          "velocity": 0.6299212598425197,
          "duration": 0.08977280208333127
        },
        {
          "name": "F5",
          "midi": 77,
          "time": 147.0001225000018,
          "velocity": 0.6299212598425197,
          "duration": 0.08977280208333127
        },
        {
          "name": "G5",
          "midi": 79,
          "time": 147.09103166666847,
          "velocity": 0.6299212598425197,
          "duration": 0.08977280208333127
        },
        {
          "name": "G#5",
          "midi": 80,
          "time": 147.18194083333515,
          "velocity": 0.6299212598425197,
          "duration": 0.08977280208333127
        },
        {
          "name": "A#5",
          "midi": 82,
          "time": 147.27285000000182,
          "velocity": 0.6299212598425197,
          "duration": 0.18068196875000808
        },
        {
          "name": "G#5",
          "midi": 80,
          "time": 147.45466833333518,
          "velocity": 0.6299212598425197,
          "duration": 0.18068196875000808
        },
        {
          "name": "G5",
          "midi": 79,
          "time": 147.63648666666853,
          "velocity": 0.6299212598425197,
          "duration": 0.18068196875000808
        },
        {
          "name": "F5",
          "midi": 77,
          "time": 147.81830500000189,
          "velocity": 0.6299212598425197,
          "duration": 0.18068196875000808
        },
        {
          "name": "G5",
          "midi": 79,
          "time": 148.00012333333524,
          "velocity": 0.6299212598425197,
          "duration": 0.18068196875000808
        },
        {
          "name": "D#5",
          "midi": 75,
          "time": 148.1819416666686,
          "velocity": 0.6299212598425197,
          "duration": 0.18068196875000808
        },
        {
          "name": "C5",
          "midi": 72,
          "time": 148.36376000000195,
          "velocity": 0.6299212598425197,
          "duration": 0.18068196875000808
        },
        {
          "name": "G5",
          "midi": 79,
          "time": 148.5455783333353,
          "velocity": 0.6299212598425197,
          "duration": 0.18068196875000808
        },
        {
          "name": "G#5",
          "midi": 80,
          "time": 148.72739666666865,
          "velocity": 0.6299212598425197,
          "duration": 0.18068196875000808
        },
        {
          "name": "G#5",
          "midi": 80,
          "time": 148.909215000002,
          "velocity": 0.6299212598425197,
          "duration": 0.18068196875000808
        },
        {
          "name": "F5",
          "midi": 77,
          "time": 149.09103333333536,
          "velocity": 0.6299212598425197,
          "duration": 0.18068196875000808
        },
        {
          "name": "C5",
          "midi": 72,
          "time": 149.2728516666687,
          "velocity": 0.6299212598425197,
          "duration": 0.18068196875000808
        },
        {
          "name": "G#5",
          "midi": 80,
          "time": 149.45467000000207,
          "velocity": 0.6299212598425197,
          "duration": 0.18068196875000808
        },
        {
          "name": "F5",
          "midi": 77,
          "time": 149.63648833333542,
          "velocity": 0.6299212598425197,
          "duration": 0.18068196875000808
        },
        {
          "name": "C5",
          "midi": 72,
          "time": 149.81830666666878,
          "velocity": 0.6299212598425197,
          "duration": 0.18068196875000808
        },
        {
          "name": "G#5",
          "midi": 80,
          "time": 150.00012500000213,
          "velocity": 0.6299212598425197,
          "duration": 0.18068196875000808
        },
        {
          "name": "F5",
          "midi": 77,
          "time": 150.18194333333548,
          "velocity": 0.6299212598425197,
          "duration": 0.18068196875000808
        },
        {
          "name": "C5",
          "midi": 72,
          "time": 150.36376166666884,
          "velocity": 0.6299212598425197,
          "duration": 0.18068196875000808
        },
        {
          "name": "C6",
          "midi": 84,
          "time": 150.5455800000022,
          "velocity": 0.6299212598425197,
          "duration": 0.08977280208333127
        },
        {
          "name": "C6",
          "midi": 84,
          "time": 150.63648916666887,
          "velocity": 0.6299212598425197,
          "duration": 0.08977280208333127
        },
        {
          "name": "A5",
          "midi": 81,
          "time": 150.72739833333554,
          "velocity": 0.6299212598425197,
          "duration": 0.08977280208333127
        },
        {
          "name": "A5",
          "midi": 81,
          "time": 150.81830750000222,
          "velocity": 0.6299212598425197,
          "duration": 0.08977280208333127
        },
        {
          "name": "F5",
          "midi": 77,
          "time": 150.9092166666689,
          "velocity": 0.6299212598425197,
          "duration": 0.08977280208333127
        },
        {
          "name": "F5",
          "midi": 77,
          "time": 151.00012583333557,
          "velocity": 0.6299212598425197,
          "duration": 0.08977280208333127
        },
        {
          "name": "C6",
          "midi": 84,
          "time": 151.09103500000225,
          "velocity": 0.6299212598425197,
          "duration": 0.08977280208333127
        },
        {
          "name": "C6",
          "midi": 84,
          "time": 151.18194416666893,
          "velocity": 0.6299212598425197,
          "duration": 0.08977280208333127
        },
        {
          "name": "A5",
          "midi": 81,
          "time": 151.2728533333356,
          "velocity": 0.6299212598425197,
          "duration": 0.08977280208333127
        },
        {
          "name": "A5",
          "midi": 81,
          "time": 151.36376250000228,
          "velocity": 0.6299212598425197,
          "duration": 0.08977280208333127
        },
        {
          "name": "F5",
          "midi": 77,
          "time": 151.45467166666896,
          "velocity": 0.6299212598425197,
          "duration": 0.08977280208333127
        },
        {
          "name": "F5",
          "midi": 77,
          "time": 151.54558083333563,
          "velocity": 0.6299212598425197,
          "duration": 0.08977280208333127
        },
        {
          "name": "C6",
          "midi": 84,
          "time": 151.6364900000023,
          "velocity": 0.6299212598425197,
          "duration": 0.08977280208333127
        },
        {
          "name": "C6",
          "midi": 84,
          "time": 151.727399166669,
          "velocity": 0.6299212598425197,
          "duration": 0.08977280208333127
        },
        {
          "name": "A5",
          "midi": 81,
          "time": 151.81830833333566,
          "velocity": 0.6299212598425197,
          "duration": 0.08977280208333127
        },
        {
          "name": "A5",
          "midi": 81,
          "time": 151.90921750000234,
          "velocity": 0.6299212598425197,
          "duration": 0.08977280208333127
        },
        {
          "name": "F5",
          "midi": 77,
          "time": 152.00012666666902,
          "velocity": 0.6299212598425197,
          "duration": 0.08977280208333127
        },
        {
          "name": "F5",
          "midi": 77,
          "time": 152.0910358333357,
          "velocity": 0.6299212598425197,
          "duration": 0.08977280208333127
        },
        {
          "name": "C6",
          "midi": 84,
          "time": 152.18194500000237,
          "velocity": 0.6299212598425197,
          "duration": 0.5443186354166585
        },
        {
          "name": "C#6",
          "midi": 85,
          "time": 152.72740000000238,
          "velocity": 0.6299212598425197,
          "duration": 1.0897736354166625
        },
        {
          "name": "C#6",
          "midi": 85,
          "time": 153.81831000000238,
          "velocity": 0.6299212598425197,
          "duration": 0.5443186354166585
        },
        {
          "name": "D#6",
          "midi": 87,
          "time": 154.3637650000024,
          "velocity": 0.6299212598425197,
          "duration": 2.1806836354166705
        },
        {
          "name": "C#6",
          "midi": 85,
          "time": 156.5455850000024,
          "velocity": 0.6299212598425197,
          "duration": 0.5443186354166585
        },
        {
          "name": "F6",
          "midi": 89,
          "time": 157.0910400000024,
          "velocity": 0.6299212598425197,
          "duration": 0.8170461354166605
        },
        {
          "name": "C#5",
          "midi": 73,
          "time": 157.90922250000241,
          "velocity": 0.6299212598425197,
          "duration": 0.27159113541665647
        },
        {
          "name": "D#5",
          "midi": 75,
          "time": 158.18195000000242,
          "velocity": 0.6299212598425197,
          "duration": 0.27159113541665647
        },
        {
          "name": "G#5",
          "midi": 80,
          "time": 158.45467750000242,
          "velocity": 0.6299212598425197,
          "duration": 0.27159113541665647
        },
        {
          "name": "C6",
          "midi": 84,
          "time": 158.72740500000242,
          "velocity": 0.6299212598425197,
          "duration": 0.5443186354166585
        },
        {
          "name": "C#6",
          "midi": 85,
          "time": 159.27286000000242,
          "velocity": 0.6299212598425197,
          "duration": 1.0897736354166625
        },
        {
          "name": "C#6",
          "midi": 85,
          "time": 160.36377000000243,
          "velocity": 0.6299212598425197,
          "duration": 0.5443186354166585
        },
        {
          "name": "D#6",
          "midi": 87,
          "time": 160.90922500000244,
          "velocity": 0.6299212598425197,
          "duration": 1.0897736354166625
        },
        {
          "name": "D#6",
          "midi": 87,
          "time": 162.00013500000244,
          "velocity": 0.6299212598425197,
          "duration": 0.5443186354166585
        },
        {
          "name": "F6",
          "midi": 89,
          "time": 162.54559000000245,
          "velocity": 0.6299212598425197,
          "duration": 1.6352286354166665
        },
        {
          "name": "F6",
          "midi": 89,
          "time": 164.18195500000246,
          "velocity": 0.6299212598425197,
          "duration": 1.0897736354166625
        },
        {
          "name": "F#6",
          "midi": 90,
          "time": 166.09104750000245,
          "velocity": 0.6299212598425197,
          "duration": 0.27159113541665647
        },
        {
          "name": "F#6",
          "midi": 90,
          "time": 166.36377500000245,
          "velocity": 0.6299212598425197,
          "duration": 0.18068196875000808
        },
        {
          "name": "F6",
          "midi": 89,
          "time": 166.5455933333358,
          "velocity": 0.6299212598425197,
          "duration": 0.18068196875000808
        },
        {
          "name": "F6",
          "midi": 89,
          "time": 166.72741166666916,
          "velocity": 0.6299212598425197,
          "duration": 0.9988644687499857
        },
        {
          "name": "D#6",
          "midi": 87,
          "time": 167.7274125000025,
          "velocity": 0.6299212598425197,
          "duration": 0.27159113541665647
        },
        {
          "name": "C#6",
          "midi": 85,
          "time": 168.0001400000025,
          "velocity": 0.6299212598425197,
          "duration": 0.27159113541665647
        },
        {
          "name": "D#6",
          "midi": 87,
          "time": 168.2728675000025,
          "velocity": 0.6299212598425197,
          "duration": 1.0897736354166625
        },
        {
          "name": "D#6",
          "midi": 87,
          "time": 169.3637775000025,
          "velocity": 0.6299212598425197,
          "duration": 0.27159113541665647
        },
        {
          "name": "C#6",
          "midi": 85,
          "time": 169.6365050000025,
          "velocity": 0.6299212598425197,
          "duration": 0.27159113541665647
        },
        {
          "name": "F6",
          "midi": 89,
          "time": 169.9092325000025,
          "velocity": 0.6299212598425197,
          "duration": 1.0897736354166625
        },
        {
          "name": "F#6",
          "midi": 90,
          "time": 171.0001425000025,
          "velocity": 0.6299212598425197,
          "duration": 0.13522738541666968
        },
        {
          "name": "F6",
          "midi": 89,
          "time": 171.13650625000253,
          "velocity": 0.6299212598425197,
          "duration": 0.13522738541666968
        },
        {
          "name": "D#6",
          "midi": 87,
          "time": 171.27287000000254,
          "velocity": 0.6299212598425197,
          "duration": 1.0897736354166625
        },
        {
          "name": "F#6",
          "midi": 90,
          "time": 172.63650750000255,
          "velocity": 0.6299212598425197,
          "duration": 0.27159113541665647
        },
        {
          "name": "F#6",
          "midi": 90,
          "time": 172.90923500000255,
          "velocity": 0.6299212598425197,
          "duration": 0.18068196875000808
        },
        {
          "name": "F6",
          "midi": 89,
          "time": 173.0910533333359,
          "velocity": 0.6299212598425197,
          "duration": 0.18068196875000808
        },
        {
          "name": "F6",
          "midi": 89,
          "time": 173.27287166666926,
          "velocity": 0.6299212598425197,
          "duration": 0.9988644687499857
        },
        {
          "name": "D#6",
          "midi": 87,
          "time": 174.2728725000026,
          "velocity": 0.6299212598425197,
          "duration": 0.27159113541665647
        },
        {
          "name": "C#6",
          "midi": 85,
          "time": 174.5456000000026,
          "velocity": 0.6299212598425197,
          "duration": 0.27159113541665647
        },
        {
          "name": "G#6",
          "midi": 92,
          "time": 174.8183275000026,
          "velocity": 0.6299212598425197,
          "duration": 1.0897736354166625
        },
        {
          "name": "D#6",
          "midi": 87,
          "time": 175.9092375000026,
          "velocity": 0.6299212598425197,
          "duration": 0.27159113541665647
        },
        {
          "name": "C#6",
          "midi": 85,
          "time": 176.1819650000026,
          "velocity": 0.6299212598425197,
          "duration": 0.27159113541665647
        },
        {
          "name": "C6",
          "midi": 84,
          "time": 176.4546925000026,
          "velocity": 0.6299212598425197,
          "duration": 1.3625011354166645
        },
        {
          "name": "A#5",
          "midi": 82,
          "time": 178.0910575000026,
          "velocity": 0.6299212598425197,
          "duration": 0.27159113541665647
        },
        {
          "name": "C6",
          "midi": 84,
          "time": 178.3637850000026,
          "velocity": 0.6299212598425197,
          "duration": 0.18068196875000808
        },
        {
          "name": "A#5",
          "midi": 82,
          "time": 178.54560333333595,
          "velocity": 0.6299212598425197,
          "duration": 0.18068196875000808
        },
        {
          "name": "F#5",
          "midi": 78,
          "time": 178.7274216666693,
          "velocity": 0.6299212598425197,
          "duration": 0.18068196875000808
        },
        {
          "name": "C#5",
          "midi": 73,
          "time": 178.90924000000265,
          "velocity": 0.6299212598425197,
          "duration": 0.18068196875000808
        },
        {
          "name": "F#5",
          "midi": 78,
          "time": 179.091058333336,
          "velocity": 0.6299212598425197,
          "duration": 0.18068196875000808
        },
        {
          "name": "A#5",
          "midi": 82,
          "time": 179.27287666666936,
          "velocity": 0.6299212598425197,
          "duration": 0.18068196875000808
        },
        {
          "name": "C#6",
          "midi": 85,
          "time": 179.45469500000272,
          "velocity": 0.6299212598425197,
          "duration": 0.18068196875000808
        },
        {
          "name": "A#5",
          "midi": 82,
          "time": 179.63651333333607,
          "velocity": 0.6299212598425197,
          "duration": 0.18068196875000808
        },
        {
          "name": "C#6",
          "midi": 85,
          "time": 179.81833166666942,
          "velocity": 0.6299212598425197,
          "duration": 0.18068196875000808
        },
        {
          "name": "C#6",
          "midi": 85,
          "time": 180.00015000000278,
          "velocity": 0.6299212598425197,
          "duration": 0.18068196875000808
        },
        {
          "name": "A#5",
          "midi": 82,
          "time": 180.18196833333613,
          "velocity": 0.6299212598425197,
          "duration": 0.18068196875000808
        },
        {
          "name": "F5",
          "midi": 77,
          "time": 180.36378666666948,
          "velocity": 0.6299212598425197,
          "duration": 0.18068196875000808
        },
        {
          "name": "C#5",
          "midi": 73,
          "time": 180.54560500000284,
          "velocity": 0.6299212598425197,
          "duration": 0.18068196875000808
        },
        {
          "name": "F5",
          "midi": 77,
          "time": 180.7274233333362,
          "velocity": 0.6299212598425197,
          "duration": 0.18068196875000808
        },
        {
          "name": "A#5",
          "midi": 82,
          "time": 180.90924166666954,
          "velocity": 0.6299212598425197,
          "duration": 0.18068196875000808
        },
        {
          "name": "C#6",
          "midi": 85,
          "time": 181.0910600000029,
          "velocity": 0.6299212598425197,
          "duration": 0.18068196875000808
        },
        {
          "name": "A#5",
          "midi": 82,
          "time": 181.27287833333625,
          "velocity": 0.6299212598425197,
          "duration": 0.18068196875000808
        },
        {
          "name": "C#6",
          "midi": 85,
          "time": 181.4546966666696,
          "velocity": 0.6299212598425197,
          "duration": 0.18068196875000808
        },
        {
          "name": "C#6",
          "midi": 85,
          "time": 181.63651500000296,
          "velocity": 0.6299212598425197,
          "duration": 0.18068196875000808
        },
        {
          "name": "C6",
          "midi": 84,
          "time": 181.8183333333363,
          "velocity": 0.6299212598425197,
          "duration": 0.18068196875000808
        },
        {
          "name": "G#5",
          "midi": 80,
          "time": 182.00015166666967,
          "velocity": 0.6299212598425197,
          "duration": 0.18068196875000808
        },
        {
          "name": "D#5",
          "midi": 75,
          "time": 182.18197000000302,
          "velocity": 0.6299212598425197,
          "duration": 0.18068196875000808
        },
        {
          "name": "G#5",
          "midi": 80,
          "time": 182.36378833333637,
          "velocity": 0.6299212598425197,
          "duration": 0.18068196875000808
        },
        {
          "name": "C6",
          "midi": 84,
          "time": 182.54560666666973,
          "velocity": 0.6299212598425197,
          "duration": 0.18068196875000808
        },
        {
          "name": "C#6",
          "midi": 85,
          "time": 182.72742500000308,
          "velocity": 0.6299212598425197,
          "duration": 0.18068196875000808
        },
        {
          "name": "A#5",
          "midi": 82,
          "time": 182.90924333333643,
          "velocity": 0.6299212598425197,
          "duration": 0.18068196875000808
        },
        {
          "name": "D#6",
          "midi": 87,
          "time": 183.0910616666698,
          "velocity": 0.6299212598425197,
          "duration": 0.18068196875000808
        },
        {
          "name": "C6",
          "midi": 84,
          "time": 183.27288000000314,
          "velocity": 0.6299212598425197,
          "duration": 0.18068196875000808
        },
        {
          "name": "D#5",
          "midi": 75,
          "time": 183.4546983333365,
          "velocity": 0.6299212598425197,
          "duration": 0.18068196875000808
        },
        {
          "name": "C5",
          "midi": 72,
          "time": 183.63651666666985,
          "velocity": 0.6299212598425197,
          "duration": 0.18068196875000808
        },
        {
          "name": "C#5",
          "midi": 73,
          "time": 183.8183350000032,
          "velocity": 0.6299212598425197,
          "duration": 0.18068196875000808
        },
        {
          "name": "D#5",
          "midi": 75,
          "time": 184.00015333333656,
          "velocity": 0.6299212598425197,
          "duration": 0.18068196875000808
        },
        {
          "name": "F5",
          "midi": 77,
          "time": 184.1819716666699,
          "velocity": 0.6299212598425197,
          "duration": 0.18068196875000808
        },
        {
          "name": "F#5",
          "midi": 78,
          "time": 184.36379000000326,
          "velocity": 0.6299212598425197,
          "duration": 0.18068196875000808
        },
        {
          "name": "G#5",
          "midi": 80,
          "time": 184.54560833333662,
          "velocity": 0.6299212598425197,
          "duration": 0.18068196875000808
        },
        {
          "name": "A#5",
          "midi": 82,
          "time": 184.72742666666997,
          "velocity": 0.6299212598425197,
          "duration": 0.18068196875000808
        },
        {
          "name": "C6",
          "midi": 84,
          "time": 184.90924500000332,
          "velocity": 0.6299212598425197,
          "duration": 0.18068196875000808
        },
        {
          "name": "A#5",
          "midi": 82,
          "time": 185.09106333333668,
          "velocity": 0.6299212598425197,
          "duration": 0.18068196875000808
        },
        {
          "name": "F#5",
          "midi": 78,
          "time": 185.27288166667003,
          "velocity": 0.6299212598425197,
          "duration": 0.18068196875000808
        },
        {
          "name": "C#5",
          "midi": 73,
          "time": 185.45470000000338,
          "velocity": 0.6299212598425197,
          "duration": 0.18068196875000808
        },
        {
          "name": "F#5",
          "midi": 78,
          "time": 185.63651833333674,
          "velocity": 0.6299212598425197,
          "duration": 0.18068196875000808
        },
        {
          "name": "A#5",
          "midi": 82,
          "time": 185.8183366666701,
          "velocity": 0.6299212598425197,
          "duration": 0.18068196875000808
        },
        {
          "name": "C#6",
          "midi": 85,
          "time": 186.00015500000345,
          "velocity": 0.6299212598425197,
          "duration": 0.18068196875000808
        },
        {
          "name": "A#5",
          "midi": 82,
          "time": 186.1819733333368,
          "velocity": 0.6299212598425197,
          "duration": 0.18068196875000808
        },
        {
          "name": "C#6",
          "midi": 85,
          "time": 186.36379166667015,
          "velocity": 0.6299212598425197,
          "duration": 0.18068196875000808
        },
        {
          "name": "C#6",
          "midi": 85,
          "time": 186.5456100000035,
          "velocity": 0.6299212598425197,
          "duration": 0.18068196875000808
        },
        {
          "name": "A#5",
          "midi": 82,
          "time": 186.72742833333686,
          "velocity": 0.6299212598425197,
          "duration": 0.18068196875000808
        },
        {
          "name": "F5",
          "midi": 77,
          "time": 186.9092466666702,
          "velocity": 0.6299212598425197,
          "duration": 0.18068196875000808
        },
        {
          "name": "C#5",
          "midi": 73,
          "time": 187.09106500000357,
          "velocity": 0.6299212598425197,
          "duration": 0.18068196875000808
        },
        {
          "name": "F5",
          "midi": 77,
          "time": 187.27288333333692,
          "velocity": 0.6299212598425197,
          "duration": 0.18068196875000808
        },
        {
          "name": "A#5",
          "midi": 82,
          "time": 187.45470166667027,
          "velocity": 0.6299212598425197,
          "duration": 0.18068196875000808
        },
        {
          "name": "C#6",
          "midi": 85,
          "time": 187.63652000000363,
          "velocity": 0.6299212598425197,
          "duration": 0.18068196875000808
        },
        {
          "name": "A#5",
          "midi": 82,
          "time": 187.81833833333698,
          "velocity": 0.6299212598425197,
          "duration": 0.18068196875000808
        },
        {
          "name": "C#6",
          "midi": 85,
          "time": 188.00015666667034,
          "velocity": 0.6299212598425197,
          "duration": 0.18068196875000808
        },
        {
          "name": "C#6",
          "midi": 85,
          "time": 188.1819750000037,
          "velocity": 0.6299212598425197,
          "duration": 0.18068196875000808
        },
        {
          "name": "D#6",
          "midi": 87,
          "time": 188.36379333333704,
          "velocity": 0.6299212598425197,
          "duration": 0.18068196875000808
        },
        {
          "name": "C#6",
          "midi": 85,
          "time": 188.5456116666704,
          "velocity": 0.6299212598425197,
          "duration": 0.18068196875000808
        },
        {
          "name": "C6",
          "midi": 84,
          "time": 188.72743000000375,
          "velocity": 0.6299212598425197,
          "duration": 0.18068196875000808
        },
        {
          "name": "C#6",
          "midi": 85,
          "time": 188.9092483333371,
          "velocity": 0.6299212598425197,
          "duration": 0.18068196875000808
        },
        {
          "name": "D#6",
          "midi": 87,
          "time": 189.09106666667046,
          "velocity": 0.6299212598425197,
          "duration": 0.18068196875000808
        },
        {
          "name": "G#5",
          "midi": 80,
          "time": 189.2728850000038,
          "velocity": 0.6299212598425197,
          "duration": 0.18068196875000808
        },
        {
          "name": "C6",
          "midi": 84,
          "time": 189.45470333333716,
          "velocity": 0.6299212598425197,
          "duration": 0.18068196875000808
        },
        {
          "name": "D#6",
          "midi": 87,
          "time": 189.63652166667052,
          "velocity": 0.6299212598425197,
          "duration": 0.18068196875000808
        },
        {
          "name": "F6",
          "midi": 89,
          "time": 189.81834000000387,
          "velocity": 0.6299212598425197,
          "duration": 0.18068196875000808
        },
        {
          "name": "F5",
          "midi": 77,
          "time": 190.00015833333723,
          "velocity": 0.6299212598425197,
          "duration": 0.18068196875000808
        },
        {
          "name": "F6",
          "midi": 89,
          "time": 190.18197666667058,
          "velocity": 0.6299212598425197,
          "duration": 0.18068196875000808
        },
        {
          "name": "F6",
          "midi": 89,
          "time": 190.36379500000393,
          "velocity": 0.6299212598425197,
          "duration": 0.18068196875000808
        },
        {
          "name": "F5",
          "midi": 77,
          "time": 190.5456133333373,
          "velocity": 0.6299212598425197,
          "duration": 0.18068196875000808
        },
        {
          "name": "F6",
          "midi": 89,
          "time": 190.72743166667064,
          "velocity": 0.6299212598425197,
          "duration": 0.18068196875000808
        },
        {
          "name": "F6",
          "midi": 89,
          "time": 190.909250000004,
          "velocity": 0.6299212598425197,
          "duration": 0.18068196875000808
        },
        {
          "name": "F5",
          "midi": 77,
          "time": 191.09106833333735,
          "velocity": 0.6299212598425197,
          "duration": 0.18068196875000808
        },
        {
          "name": "F6",
          "midi": 89,
          "time": 191.2728866666707,
          "velocity": 0.6299212598425197,
          "duration": 0.18068196875000808
        },
        {
          "name": "F#6",
          "midi": 90,
          "time": 191.45470500000405,
          "velocity": 0.6299212598425197,
          "duration": 0.5443186354166585
        },
        {
          "name": "F#6",
          "midi": 90,
          "time": 192.27288750000406,
          "velocity": 0.6299212598425197,
          "duration": 0.27159113541665647
        },
        {
          "name": "F#6",
          "midi": 90,
          "time": 192.54561500000406,
          "velocity": 0.6299212598425197,
          "duration": 0.18068196875000808
        },
        {
          "name": "F6",
          "midi": 89,
          "time": 192.72743333333742,
          "velocity": 0.6299212598425197,
          "duration": 0.18068196875000808
        },
        {
          "name": "F6",
          "midi": 89,
          "time": 192.90925166667077,
          "velocity": 0.6299212598425197,
          "duration": 0.9988644687499857
        },
        {
          "name": "D#6",
          "midi": 87,
          "time": 193.9092525000041,
          "velocity": 0.6299212598425197,
          "duration": 0.27159113541665647
        },
        {
          "name": "C#6",
          "midi": 85,
          "time": 194.1819800000041,
          "velocity": 0.6299212598425197,
          "duration": 0.27159113541665647
        },
        {
          "name": "D#6",
          "midi": 87,
          "time": 194.4547075000041,
          "velocity": 0.6299212598425197,
          "duration": 1.0897736354166625
        },
        {
          "name": "D#6",
          "midi": 87,
          "time": 195.5456175000041,
          "velocity": 0.6299212598425197,
          "duration": 0.27159113541665647
        },
        {
          "name": "C#6",
          "midi": 85,
          "time": 195.81834500000411,
          "velocity": 0.6299212598425197,
          "duration": 0.27159113541665647
        },
        {
          "name": "F6",
          "midi": 89,
          "time": 196.09107250000412,
          "velocity": 0.6299212598425197,
          "duration": 1.0897736354166625
        },
        {
          "name": "F#6",
          "midi": 90,
          "time": 197.18198250000412,
          "velocity": 0.6299212598425197,
          "duration": 0.13522738541666968
        },
        {
          "name": "F6",
          "midi": 89,
          "time": 197.31834625000414,
          "velocity": 0.6299212598425197,
          "duration": 0.13522738541666968
        },
        {
          "name": "D#6",
          "midi": 87,
          "time": 197.45471000000416,
          "velocity": 0.6299212598425197,
          "duration": 1.0897736354166625
        },
        {
          "name": "F#6",
          "midi": 90,
          "time": 198.81834750000417,
          "velocity": 0.6299212598425197,
          "duration": 0.27159113541665647
        },
        {
          "name": "F#6",
          "midi": 90,
          "time": 199.09107500000417,
          "velocity": 0.6299212598425197,
          "duration": 0.18068196875000808
        },
        {
          "name": "F6",
          "midi": 89,
          "time": 199.27289333333752,
          "velocity": 0.6299212598425197,
          "duration": 0.18068196875000808
        },
        {
          "name": "F6",
          "midi": 89,
          "time": 199.45471166667087,
          "velocity": 0.6299212598425197,
          "duration": 0.9988644687499857
        },
        {
          "name": "D#6",
          "midi": 87,
          "time": 200.4547125000042,
          "velocity": 0.6299212598425197,
          "duration": 0.27159113541665647
        },
        {
          "name": "C#6",
          "midi": 85,
          "time": 200.7274400000042,
          "velocity": 0.6299212598425197,
          "duration": 0.27159113541665647
        },
        {
          "name": "G#6",
          "midi": 92,
          "time": 201.0001675000042,
          "velocity": 0.6299212598425197,
          "duration": 3.5443211354166806
        }
      ],
      "controlChanges": {
        "2": [
          {
            "number": 2,
            "time": 24.00002,
            "value": 0.25984251968503935
          },
          {
            "number": 2,
            "time": 24.181838333333335,
            "value": 0.25984251968503935
          },
          {
            "number": 2,
            "time": 24.36365666666667,
            "value": 0.25984251968503935
          },
          {
            "number": 2,
            "time": 24.545475000000007,
            "value": 0.25984251968503935
          },
          {
            "number": 2,
            "time": 25.36365750000001,
            "value": 0.25984251968503935
          },
          {
            "number": 2,
            "time": 25.90911250000001,
            "value": 0.25984251968503935
          },
          {
            "number": 2,
            "time": 26.18184000000001,
            "value": 0.25984251968503935
          },
          {
            "number": 2,
            "time": 27.000022500000014,
            "value": 0.25984251968503935
          },
          {
            "number": 2,
            "time": 27.272750000000016,
            "value": 0.25984251968503935
          },
          {
            "number": 2,
            "time": 27.818205000000017,
            "value": 0.25984251968503935
          },
          {
            "number": 2,
            "time": 28.363660000000017,
            "value": 0.25984251968503935
          },
          {
            "number": 2,
            "time": 28.909115000000018,
            "value": 0.25984251968503935
          },
          {
            "number": 2,
            "time": 29.454570000000018,
            "value": 0.25984251968503935
          },
          {
            "number": 2,
            "time": 36.00003000000002,
            "value": 0.25984251968503935
          },
          {
            "number": 2,
            "time": 37.636395000000014,
            "value": 0.25984251968503935
          },
          {
            "number": 2,
            "time": 38.45457750000001,
            "value": 0.25984251968503935
          },
          {
            "number": 2,
            "time": 39.27276000000001,
            "value": 0.25984251968503935
          },
          {
            "number": 2,
            "time": 40.09094250000001,
            "value": 0.25984251968503935
          },
          {
            "number": 2,
            "time": 40.90912500000001,
            "value": 0.25984251968503935
          },
          {
            "number": 2,
            "time": 41.72730750000001,
            "value": 0.25984251968503935
          },
          {
            "number": 2,
            "time": 44.181855000000006,
            "value": 0.25984251968503935
          },
          {
            "number": 2,
            "time": 45.000037500000005,
            "value": 0.25984251968503935
          },
          {
            "number": 2,
            "time": 45.818220000000004,
            "value": 0.25984251968503935
          },
          {
            "number": 2,
            "time": 46.6364025,
            "value": 0.25984251968503935
          },
          {
            "number": 2,
            "time": 47.454585,
            "value": 0.25984251968503935
          },
          {
            "number": 2,
            "time": 48.2727675,
            "value": 0.25984251968503935
          },
          {
            "number": 2,
            "time": 49.09095,
            "value": 0.25984251968503935
          },
          {
            "number": 2,
            "time": 49.636404999999996,
            "value": 0.25984251968503935
          },
          {
            "number": 2,
            "time": 50.18185999999999,
            "value": 0.25984251968503935
          },
          {
            "number": 2,
            "time": 50.363678333333326,
            "value": 0.25984251968503935
          },
          {
            "number": 2,
            "time": 50.54549666666666,
            "value": 0.25984251968503935
          },
          {
            "number": 2,
            "time": 50.72731499999999,
            "value": 0.25984251968503935
          },
          {
            "number": 2,
            "time": 51.54549749999999,
            "value": 0.25984251968503935
          },
          {
            "number": 2,
            "time": 51.75004312499999,
            "value": 0.25984251968503935
          },
          {
            "number": 2,
            "time": 52.15913437499999,
            "value": 0.25984251968503935
          },
          {
            "number": 2,
            "time": 52.36367999999999,
            "value": 0.25984251968503935
          },
          {
            "number": 2,
            "time": 53.18186249999999,
            "value": 0.25984251968503935
          },
          {
            "number": 2,
            "time": 53.38640812499999,
            "value": 0.25984251968503935
          },
          {
            "number": 2,
            "time": 53.795499374999984,
            "value": 0.25984251968503935
          },
          {
            "number": 2,
            "time": 54.000044999999986,
            "value": 0.25984251968503935
          },
          {
            "number": 2,
            "time": 54.818227499999985,
            "value": 0.25984251968503935
          },
          {
            "number": 2,
            "time": 55.636409999999984,
            "value": 0.25984251968503935
          },
          {
            "number": 2,
            "time": 56.18186499999998,
            "value": 0.25984251968503935
          },
          {
            "number": 2,
            "time": 56.72731999999998,
            "value": 0.25984251968503935
          },
          {
            "number": 2,
            "time": 56.90913833333331,
            "value": 0.25984251968503935
          },
          {
            "number": 2,
            "time": 57.09095666666664,
            "value": 0.25984251968503935
          },
          {
            "number": 2,
            "time": 57.272774999999974,
            "value": 0.25984251968503935
          },
          {
            "number": 2,
            "time": 58.09095749999997,
            "value": 0.25984251968503935
          },
          {
            "number": 2,
            "time": 58.295503124999975,
            "value": 0.25984251968503935
          },
          {
            "number": 2,
            "time": 58.70459437499997,
            "value": 0.25984251968503935
          },
          {
            "number": 2,
            "time": 58.90913999999997,
            "value": 0.25984251968503935
          },
          {
            "number": 2,
            "time": 59.72732249999997,
            "value": 0.25984251968503935
          },
          {
            "number": 2,
            "time": 59.93186812499997,
            "value": 0.25984251968503935
          },
          {
            "number": 2,
            "time": 60.34095937499997,
            "value": 0.25984251968503935
          },
          {
            "number": 2,
            "time": 60.54550499999997,
            "value": 0.25984251968503935
          },
          {
            "number": 2,
            "time": 64.36368999999998,
            "value": 0.3858267716535433
          },
          {
            "number": 2,
            "time": 66.81823749999997,
            "value": 0.3858267716535433
          },
          {
            "number": 2,
            "time": 68.72732999999997,
            "value": 0.3858267716535433
          },
          {
            "number": 2,
            "time": 69.81823999999996,
            "value": 0.3858267716535433
          },
          {
            "number": 2,
            "time": 70.36369499999996,
            "value": 0.3858267716535433
          },
          {
            "number": 2,
            "time": 72.00005999999996,
            "value": 0.3858267716535433
          },
          {
            "number": 2,
            "time": 75.27278999999996,
            "value": 0.3858267716535433
          },
          {
            "number": 2,
            "time": 76.90915499999996,
            "value": 0.6299212598425197
          },
          {
            "number": 2,
            "time": 77.18188249999996,
            "value": 0.6299212598425197
          },
          {
            "number": 2,
            "time": 78.81824749999997,
            "value": 0.6299212598425197
          },
          {
            "number": 2,
            "time": 80.45461249999998,
            "value": 0.6299212598425197
          },
          {
            "number": 2,
            "time": 81.00006749999999,
            "value": 0.6299212598425197
          },
          {
            "number": 2,
            "time": 81.54552249999999,
            "value": 0.6299212598425197
          },
          {
            "number": 2,
            "time": 82.0909775,
            "value": 0.6299212598425197
          },
          {
            "number": 2,
            "time": 82.6364325,
            "value": 0.6299212598425197
          },
          {
            "number": 2,
            "time": 82.90916,
            "value": 0.6299212598425197
          },
          {
            "number": 2,
            "time": 83.7273425,
            "value": 0.6299212598425197
          },
          {
            "number": 2,
            "time": 84.54552500000001,
            "value": 0.6299212598425197
          },
          {
            "number": 2,
            "time": 85.36370750000002,
            "value": 0.6299212598425197
          },
          {
            "number": 2,
            "time": 86.45461750000003,
            "value": 0.6299212598425197
          },
          {
            "number": 2,
            "time": 86.59098125000003,
            "value": 0.6299212598425197
          },
          {
            "number": 2,
            "time": 87.00007250000003,
            "value": 0.6299212598425197
          },
          {
            "number": 2,
            "time": 88.09098250000002,
            "value": 0.6299212598425197
          },
          {
            "number": 2,
            "time": 88.36371000000003,
            "value": 0.6299212598425197
          },
          {
            "number": 2,
            "time": 100.90917500000003,
            "value": 0.25984251968503935
          },
          {
            "number": 2,
            "time": 101.72735750000004,
            "value": 0.25984251968503935
          },
          {
            "number": 2,
            "time": 113.72736750000004,
            "value": 0.25984251968503935
          },
          {
            "number": 2,
            "time": 119.66600881249998,
            "value": 0.2677165354330709
          },
          {
            "number": 2,
            "time": 119.87737262499998,
            "value": 0.2755905511811024
          },
          {
            "number": 2,
            "time": 120.08873643749997,
            "value": 0.28346456692913385
          },
          {
            "number": 2,
            "time": 120.30010024999997,
            "value": 0.29133858267716534
          },
          {
            "number": 2,
            "time": 120.51146406249997,
            "value": 0.2992125984251969
          },
          {
            "number": 2,
            "time": 120.72169151041663,
            "value": 0.30708661417322836
          },
          {
            "number": 2,
            "time": 120.93305532291663,
            "value": 0.31496062992125984
          },
          {
            "number": 2,
            "time": 121.14441913541663,
            "value": 0.3228346456692913
          },
          {
            "number": 2,
            "time": 121.35578294791662,
            "value": 0.33070866141732286
          },
          {
            "number": 2,
            "time": 121.56714676041662,
            "value": 0.33858267716535434
          },
          {
            "number": 2,
            "time": 121.77737420833328,
            "value": 0.3464566929133858
          },
          {
            "number": 2,
            "time": 121.98873802083328,
            "value": 0.3543307086614173
          },
          {
            "number": 2,
            "time": 122.20010183333328,
            "value": 0.36220472440944884
          },
          {
            "number": 2,
            "time": 122.41146564583327,
            "value": 0.3700787401574803
          },
          {
            "number": 2,
            "time": 122.62282945833327,
            "value": 0.3779527559055118
          },
          {
            "number": 2,
            "time": 122.83305690624994,
            "value": 0.3858267716535433
          },
          {
            "number": 2,
            "time": 123.04442071874993,
            "value": 0.3937007874015748
          },
          {
            "number": 2,
            "time": 123.25578453124993,
            "value": 0.4015748031496063
          },
          {
            "number": 2,
            "time": 123.46714834374993,
            "value": 0.4094488188976378
          },
          {
            "number": 2,
            "time": 123.67851215624994,
            "value": 0.41732283464566927
          },
          {
            "number": 2,
            "time": 123.8887396041666,
            "value": 0.4251968503937008
          },
          {
            "number": 2,
            "time": 124.1001034166666,
            "value": 0.4330708661417323
          },
          {
            "number": 2,
            "time": 124.3114672291666,
            "value": 0.4409448818897638
          },
          {
            "number": 2,
            "time": 124.52283104166659,
            "value": 0.44881889763779526
          },
          {
            "number": 2,
            "time": 124.73419485416659,
            "value": 0.4566929133858268
          },
          {
            "number": 2,
            "time": 124.94442230208325,
            "value": 0.4645669291338583
          },
          {
            "number": 2,
            "time": 125.15578611458325,
            "value": 0.47244094488188976
          },
          {
            "number": 2,
            "time": 125.36714992708325,
            "value": 0.48031496062992124
          },
          {
            "number": 2,
            "time": 125.57851373958324,
            "value": 0.4881889763779528
          },
          {
            "number": 2,
            "time": 125.78987755208324,
            "value": 0.49606299212598426
          },
          {
            "number": 2,
            "time": 126.0001049999999,
            "value": 0.5039370078740157
          },
          {
            "number": 2,
            "time": 126.18192333333323,
            "value": 0.5039370078740157
          },
          {
            "number": 2,
            "time": 126.3921507812499,
            "value": 0.5118110236220472
          },
          {
            "number": 2,
            "time": 126.78419656249989,
            "value": 0.5196850393700787
          },
          {
            "number": 2,
            "time": 127.17624234374988,
            "value": 0.5275590551181102
          },
          {
            "number": 2,
            "time": 127.56828812499987,
            "value": 0.5354330708661418
          },
          {
            "number": 2,
            "time": 127.81828833333319,
            "value": 0.5354330708661418
          },
          {
            "number": 2,
            "time": 127.96033390624986,
            "value": 0.5433070866141733
          },
          {
            "number": 2,
            "time": 128.3523796874999,
            "value": 0.5511811023622047
          },
          {
            "number": 2,
            "time": 128.74442546874997,
            "value": 0.5590551181102362
          },
          {
            "number": 2,
            "time": 129.13647125,
            "value": 0.5669291338582677
          },
          {
            "number": 2,
            "time": 129.45465333333337,
            "value": 0.5669291338582677
          },
          {
            "number": 2,
            "time": 129.52851703125003,
            "value": 0.5748031496062992
          },
          {
            "number": 2,
            "time": 129.92056281250007,
            "value": 0.5826771653543307
          },
          {
            "number": 2,
            "time": 130.3126085937501,
            "value": 0.5905511811023622
          },
          {
            "number": 2,
            "time": 130.70465437500013,
            "value": 0.5984251968503937
          },
          {
            "number": 2,
            "time": 131.09101833333352,
            "value": 0.5984251968503937
          },
          {
            "number": 2,
            "time": 131.0967001562502,
            "value": 0.6062992125984252
          },
          {
            "number": 2,
            "time": 131.48874593750023,
            "value": 0.6141732283464567
          },
          {
            "number": 2,
            "time": 131.88079171875026,
            "value": 0.6220472440944882
          },
          {
            "number": 2,
            "time": 132.2728375000003,
            "value": 0.6299212598425197
          },
          {
            "number": 2,
            "time": 132.66488328125033,
            "value": 0.6377952755905512
          },
          {
            "number": 2,
            "time": 133.05692906250036,
            "value": 0.6456692913385826
          },
          {
            "number": 2,
            "time": 133.4489748437504,
            "value": 0.6535433070866141
          },
          {
            "number": 2,
            "time": 133.84102062500043,
            "value": 0.6614173228346457
          },
          {
            "number": 2,
            "time": 134.23306640625046,
            "value": 0.6692913385826772
          },
          {
            "number": 2,
            "time": 134.6251121875005,
            "value": 0.6771653543307087
          },
          {
            "number": 2,
            "time": 135.01715796875052,
            "value": 0.6850393700787402
          },
          {
            "number": 2,
            "time": 135.40920375000056,
            "value": 0.6929133858267716
          },
          {
            "number": 2,
            "time": 135.8012495312506,
            "value": 0.7007874015748031
          },
          {
            "number": 2,
            "time": 136.00011333333396,
            "value": 0.7007874015748031
          },
          {
            "number": 2,
            "time": 136.19329531250065,
            "value": 0.7086614173228346
          },
          {
            "number": 2,
            "time": 136.58534109375069,
            "value": 0.7165354330708661
          },
          {
            "number": 2,
            "time": 136.97738687500072,
            "value": 0.7244094488188977
          },
          {
            "number": 2,
            "time": 137.36943265625072,
            "value": 0.7322834645669292
          },
          {
            "number": 2,
            "time": 137.63647833333408,
            "value": 0.7322834645669292
          },
          {
            "number": 2,
            "time": 137.76147843750076,
            "value": 0.7401574803149606
          },
          {
            "number": 2,
            "time": 138.1535242187508,
            "value": 0.7480314960629921
          },
          {
            "number": 2,
            "time": 138.54557000000085,
            "value": 0.7559055118110236
          },
          {
            "number": 2,
            "time": 139.0910250000009,
            "value": 0.6299212598425197
          },
          {
            "number": 2,
            "time": 139.27284333333427,
            "value": 0.6299212598425197
          },
          {
            "number": 2,
            "time": 140.90920833333445,
            "value": 0.6299212598425197
          },
          {
            "number": 2,
            "time": 142.54557333333463,
            "value": 0.6299212598425197
          },
          {
            "number": 2,
            "time": 144.1819383333348,
            "value": 0.6299212598425197
          },
          {
            "number": 2,
            "time": 145.818303333335,
            "value": 0.6299212598425197
          },
          {
            "number": 2,
            "time": 147.45466833333518,
            "value": 0.6299212598425197
          },
          {
            "number": 2,
            "time": 149.09103333333536,
            "value": 0.6299212598425197
          },
          {
            "number": 2,
            "time": 150.63648916666887,
            "value": 0.6299212598425197
          },
          {
            "number": 2,
            "time": 152.72740000000238,
            "value": 0.6299212598425197
          },
          {
            "number": 2,
            "time": 153.81831000000238,
            "value": 0.6299212598425197
          },
          {
            "number": 2,
            "time": 154.3637650000024,
            "value": 0.6299212598425197
          },
          {
            "number": 2,
            "time": 155.4546750000024,
            "value": 0.6299212598425197
          },
          {
            "number": 2,
            "time": 156.5455850000024,
            "value": 0.6299212598425197
          },
          {
            "number": 2,
            "time": 157.0910400000024,
            "value": 0.6299212598425197
          },
          {
            "number": 2,
            "time": 157.90922250000241,
            "value": 0.6299212598425197
          },
          {
            "number": 2,
            "time": 160.36377000000243,
            "value": 0.6299212598425197
          },
          {
            "number": 2,
            "time": 160.90922500000244,
            "value": 0.6299212598425197
          },
          {
            "number": 2,
            "time": 162.00013500000244,
            "value": 0.6299212598425197
          },
          {
            "number": 2,
            "time": 162.54559000000245,
            "value": 0.6299212598425197
          },
          {
            "number": 2,
            "time": 163.63650000000246,
            "value": 0.6299212598425197
          },
          {
            "number": 2,
            "time": 164.18195500000246,
            "value": 0.6299212598425197
          },
          {
            "number": 2,
            "time": 166.09104750000245,
            "value": 0.6299212598425197
          },
          {
            "number": 2,
            "time": 166.36377500000245,
            "value": 0.6299212598425197
          },
          {
            "number": 2,
            "time": 166.5455933333358,
            "value": 0.6299212598425197
          },
          {
            "number": 2,
            "time": 166.72741166666916,
            "value": 0.6299212598425197
          },
          {
            "number": 2,
            "time": 166.90923000000248,
            "value": 0.6299212598425197
          },
          {
            "number": 2,
            "time": 167.7274125000025,
            "value": 0.6299212598425197
          },
          {
            "number": 2,
            "time": 168.0001400000025,
            "value": 0.6299212598425197
          },
          {
            "number": 2,
            "time": 168.2728675000025,
            "value": 0.6299212598425197
          },
          {
            "number": 2,
            "time": 168.5455950000025,
            "value": 0.6299212598425197
          },
          {
            "number": 2,
            "time": 169.3637775000025,
            "value": 0.6299212598425197
          },
          {
            "number": 2,
            "time": 169.6365050000025,
            "value": 0.6299212598425197
          },
          {
            "number": 2,
            "time": 169.9092325000025,
            "value": 0.6299212598425197
          },
          {
            "number": 2,
            "time": 170.1819600000025,
            "value": 0.6299212598425197
          },
          {
            "number": 2,
            "time": 171.0001425000025,
            "value": 0.6299212598425197
          },
          {
            "number": 2,
            "time": 171.13650625000253,
            "value": 0.6299212598425197
          },
          {
            "number": 2,
            "time": 171.27287000000254,
            "value": 0.6299212598425197
          },
          {
            "number": 2,
            "time": 171.81832500000255,
            "value": 0.6299212598425197
          },
          {
            "number": 2,
            "time": 172.63650750000255,
            "value": 0.6299212598425197
          },
          {
            "number": 2,
            "time": 172.90923500000255,
            "value": 0.6299212598425197
          },
          {
            "number": 2,
            "time": 173.0910533333359,
            "value": 0.6299212598425197
          },
          {
            "number": 2,
            "time": 173.27287166666926,
            "value": 0.6299212598425197
          },
          {
            "number": 2,
            "time": 173.45469000000259,
            "value": 0.6299212598425197
          },
          {
            "number": 2,
            "time": 173.7274175000026,
            "value": 0.6299212598425197
          },
          {
            "number": 2,
            "time": 174.2728725000026,
            "value": 0.6299212598425197
          },
          {
            "number": 2,
            "time": 174.5456000000026,
            "value": 0.6299212598425197
          },
          {
            "number": 2,
            "time": 174.8183275000026,
            "value": 0.6299212598425197
          },
          {
            "number": 2,
            "time": 175.0910550000026,
            "value": 0.6299212598425197
          },
          {
            "number": 2,
            "time": 175.9092375000026,
            "value": 0.6299212598425197
          },
          {
            "number": 2,
            "time": 176.1819650000026,
            "value": 0.6299212598425197
          },
          {
            "number": 2,
            "time": 176.4546925000026,
            "value": 0.6299212598425197
          },
          {
            "number": 2,
            "time": 176.7274200000026,
            "value": 0.6299212598425197
          },
          {
            "number": 2,
            "time": 178.0910575000026,
            "value": 0.6299212598425197
          },
          {
            "number": 2,
            "time": 178.54560333333595,
            "value": 0.6299212598425197
          },
          {
            "number": 2,
            "time": 180.18196833333613,
            "value": 0.6299212598425197
          },
          {
            "number": 2,
            "time": 181.8183333333363,
            "value": 0.6299212598425197
          },
          {
            "number": 2,
            "time": 183.4546983333365,
            "value": 0.6299212598425197
          },
          {
            "number": 2,
            "time": 185.09106333333668,
            "value": 0.6299212598425197
          },
          {
            "number": 2,
            "time": 186.72742833333686,
            "value": 0.6299212598425197
          },
          {
            "number": 2,
            "time": 188.36379333333704,
            "value": 0.6299212598425197
          },
          {
            "number": 2,
            "time": 190.00015833333723,
            "value": 0.6299212598425197
          },
          {
            "number": 2,
            "time": 190.72743166667064,
            "value": 0.6299212598425197
          },
          {
            "number": 2,
            "time": 192.27288750000406,
            "value": 0.6299212598425197
          },
          {
            "number": 2,
            "time": 192.54561500000406,
            "value": 0.6299212598425197
          },
          {
            "number": 2,
            "time": 192.72743333333742,
            "value": 0.6299212598425197
          },
          {
            "number": 2,
            "time": 192.90925166667077,
            "value": 0.6299212598425197
          },
          {
            "number": 2,
            "time": 193.0910700000041,
            "value": 0.6299212598425197
          },
          {
            "number": 2,
            "time": 193.9092525000041,
            "value": 0.6299212598425197
          },
          {
            "number": 2,
            "time": 194.1819800000041,
            "value": 0.6299212598425197
          },
          {
            "number": 2,
            "time": 194.4547075000041,
            "value": 0.6299212598425197
          },
          {
            "number": 2,
            "time": 194.7274350000041,
            "value": 0.6299212598425197
          },
          {
            "number": 2,
            "time": 195.5456175000041,
            "value": 0.6299212598425197
          },
          {
            "number": 2,
            "time": 195.81834500000411,
            "value": 0.6299212598425197
          },
          {
            "number": 2,
            "time": 196.09107250000412,
            "value": 0.6299212598425197
          },
          {
            "number": 2,
            "time": 196.36380000000412,
            "value": 0.6299212598425197
          },
          {
            "number": 2,
            "time": 197.18198250000412,
            "value": 0.6299212598425197
          },
          {
            "number": 2,
            "time": 197.31834625000414,
            "value": 0.6299212598425197
          },
          {
            "number": 2,
            "time": 197.45471000000416,
            "value": 0.6299212598425197
          },
          {
            "number": 2,
            "time": 198.00016500000416,
            "value": 0.6299212598425197
          },
          {
            "number": 2,
            "time": 198.81834750000417,
            "value": 0.6299212598425197
          },
          {
            "number": 2,
            "time": 199.09107500000417,
            "value": 0.6299212598425197
          },
          {
            "number": 2,
            "time": 199.27289333333752,
            "value": 0.6299212598425197
          },
          {
            "number": 2,
            "time": 199.45471166667087,
            "value": 0.6299212598425197
          },
          {
            "number": 2,
            "time": 199.6365300000042,
            "value": 0.6299212598425197
          },
          {
            "number": 2,
            "time": 199.9092575000042,
            "value": 0.6299212598425197
          },
          {
            "number": 2,
            "time": 200.4547125000042,
            "value": 0.6299212598425197
          },
          {
            "number": 2,
            "time": 200.7274400000042,
            "value": 0.6299212598425197
          },
          {
            "number": 2,
            "time": 201.0001675000042,
            "value": 0.6299212598425197
          },
          {
            "number": 2,
            "time": 201.2728950000042,
            "value": 0.6299212598425197
          },
          {
            "number": 2,
            "time": 202.90926000000422,
            "value": 0.6299212598425197
          }
        ],
        "7": [
          {
            "number": 7,
            "time": 0,
            "value": 0.7874015748031497
          },
          {
            "number": 7,
            "time": 0,
            "value": 0.7874015748031497
          },
          {
            "number": 7,
            "time": 0,
            "value": 0.7874015748031497
          }
        ],
        "10": [
          {
            "number": 10,
            "time": 0,
            "value": 0.5039370078740157
          },
          {
            "number": 10,
            "time": 0,
            "value": 0.5039370078740157
          },
          {
            "number": 10,
            "time": 0,
            "value": 0.5039370078740157
          }
        ],
        "91": [
          {
            "number": 91,
            "time": 0,
            "value": 0
          },
          {
            "number": 91,
            "time": 0,
            "value": 0
          },
          {
            "number": 91,
            "time": 0,
            "value": 0
          }
        ],
        "93": [
          {
            "number": 93,
            "time": 0,
            "value": 0
          },
          {
            "number": 93,
            "time": 0,
            "value": 0
          },
          {
            "number": 93,
            "time": 0,
            "value": 0
          }
        ],
        "121": [
          {
            "number": 121,
            "time": 0,
            "value": 0
          },
          {
            "number": 121,
            "time": 0,
            "value": 0
          },
          {
            "number": 121,
            "time": 0,
            "value": 0
          }
        ]
      },
      "id": 0,
      "name": "Violin",
      "instrumentNumber": 44,
      "instrument": "tremolo strings",
      "instrumentFamily": "strings",
      "channelNumber": 2,
      "isPercussion": false
    },
    {
      "startTime": 10.9091,
      "duration": 207.81721863541728,
      "length": 234,
      "notes": [
        {
          "name": "C3",
          "midi": 48,
          "time": 10.9091,
          "velocity": 0.3858267716535433,
          "duration": 0.1806819687499992
        },
        {
          "name": "G#3",
          "midi": 56,
          "time": 11.090918333333333,
          "velocity": 0.3858267716535433,
          "duration": 0.1806819687499992
        },
        {
          "name": "G3",
          "midi": 55,
          "time": 11.272736666666665,
          "velocity": 0.3858267716535433,
          "duration": 0.1806819687499992
        },
        {
          "name": "G3",
          "midi": 55,
          "time": 11.454554999999997,
          "velocity": 0.3858267716535433,
          "duration": 0.8170461354166658
        },
        {
          "name": "F3",
          "midi": 53,
          "time": 12.272737499999996,
          "velocity": 0.3858267716535433,
          "duration": 0.27159113541666713
        },
        {
          "name": "G3",
          "midi": 55,
          "time": 12.545464999999997,
          "velocity": 0.3858267716535433,
          "duration": 0.5443186354166674
        },
        {
          "name": "G3",
          "midi": 55,
          "time": 13.090919999999997,
          "velocity": 0.3858267716535433,
          "duration": 0.8170461354166658
        },
        {
          "name": "F3",
          "midi": 53,
          "time": 13.909102499999996,
          "velocity": 0.3858267716535433,
          "duration": 2.4534111354166654
        },
        {
          "name": "C3",
          "midi": 48,
          "time": 17.454559999999994,
          "velocity": 0.3858267716535433,
          "duration": 0.5443186354166656
        },
        {
          "name": "G3",
          "midi": 55,
          "time": 18.000014999999994,
          "velocity": 0.3858267716535433,
          "duration": 0.27159113541666713
        },
        {
          "name": "G#3",
          "midi": 56,
          "time": 18.272742499999996,
          "velocity": 0.3858267716535433,
          "duration": 0.5443186354166656
        },
        {
          "name": "G3",
          "midi": 55,
          "time": 18.818197499999997,
          "velocity": 0.3858267716535433,
          "duration": 0.5443186354166656
        },
        {
          "name": "F3",
          "midi": 53,
          "time": 19.363652499999997,
          "velocity": 0.3858267716535433,
          "duration": 0.27159113541666713
        },
        {
          "name": "F3",
          "midi": 53,
          "time": 19.63638,
          "velocity": 0.3858267716535433,
          "duration": 2.7261386354166675
        },
        {
          "name": "C3",
          "midi": 48,
          "time": 24.00002,
          "velocity": 0.3858267716535433,
          "duration": 0.18068196875000098
        },
        {
          "name": "C4",
          "midi": 60,
          "time": 24.181838333333335,
          "velocity": 0.3858267716535433,
          "duration": 0.18068196875000098
        },
        {
          "name": "G#3",
          "midi": 56,
          "time": 24.36365666666667,
          "velocity": 0.3858267716535433,
          "duration": 0.18068196875000098
        },
        {
          "name": "A#3",
          "midi": 58,
          "time": 24.545475000000007,
          "velocity": 0.3858267716535433,
          "duration": 0.8170461354166676
        },
        {
          "name": "A#3",
          "midi": 58,
          "time": 25.36365750000001,
          "velocity": 0.3858267716535433,
          "duration": 0.5443186354166656
        },
        {
          "name": "G#3",
          "midi": 56,
          "time": 25.90911250000001,
          "velocity": 0.3858267716535433,
          "duration": 0.27159113541666713
        },
        {
          "name": "A#3",
          "midi": 58,
          "time": 26.18184000000001,
          "velocity": 0.3858267716535433,
          "duration": 0.8170461354166676
        },
        {
          "name": "G#3",
          "midi": 56,
          "time": 27.000022500000014,
          "velocity": 0.3858267716535433,
          "duration": 0.27159113541666713
        },
        {
          "name": "A#3",
          "midi": 58,
          "time": 27.272750000000016,
          "velocity": 0.3858267716535433,
          "duration": 0.5443186354166656
        },
        {
          "name": "A#3",
          "midi": 58,
          "time": 27.818205000000017,
          "velocity": 0.3858267716535433,
          "duration": 0.5443186354166656
        },
        {
          "name": "G#3",
          "midi": 56,
          "time": 28.363660000000017,
          "velocity": 0.3858267716535433,
          "duration": 0.5443186354166656
        },
        {
          "name": "G3",
          "midi": 55,
          "time": 28.909115000000018,
          "velocity": 0.3858267716535433,
          "duration": 0.5443186354166656
        },
        {
          "name": "F3",
          "midi": 53,
          "time": 29.454570000000018,
          "velocity": 0.3858267716535433,
          "duration": 1.6352286354166665
        },
        {
          "name": "F3",
          "midi": 53,
          "time": 31.818208333333352,
          "velocity": 0.3858267716535433,
          "duration": 0.18068196875000098
        },
        {
          "name": "G3",
          "midi": 55,
          "time": 32.000026666666685,
          "velocity": 0.3858267716535433,
          "duration": 0.18068196875000098
        },
        {
          "name": "G#3",
          "midi": 56,
          "time": 32.18184500000002,
          "velocity": 0.3858267716535433,
          "duration": 0.18068196875000098
        },
        {
          "name": "G3",
          "midi": 55,
          "time": 32.36366333333335,
          "velocity": 0.3858267716535433,
          "duration": 0.18068196875000098
        },
        {
          "name": "F3",
          "midi": 53,
          "time": 32.54548166666668,
          "velocity": 0.3858267716535433,
          "duration": 0.18068196875000098
        },
        {
          "name": "G3",
          "midi": 55,
          "time": 32.727300000000014,
          "velocity": 0.3858267716535433,
          "duration": 2.1806836354166705
        },
        {
          "name": "F3",
          "midi": 53,
          "time": 36.818212500000016,
          "velocity": 0.5039370078740157,
          "duration": 0.18068196875000098
        },
        {
          "name": "G#3",
          "midi": 56,
          "time": 37.00003083333335,
          "velocity": 0.5039370078740157,
          "duration": 0.18068196875000098
        },
        {
          "name": "F3",
          "midi": 53,
          "time": 37.18184916666668,
          "velocity": 0.5039370078740157,
          "duration": 0.18068196875000098
        },
        {
          "name": "G#3",
          "midi": 56,
          "time": 37.36366750000001,
          "velocity": 0.5039370078740157,
          "duration": 1.0897736354166696
        },
        {
          "name": "F3",
          "midi": 53,
          "time": 38.45457750000001,
          "velocity": 0.5039370078740157,
          "duration": 0.2715911354166636
        },
        {
          "name": "G#3",
          "midi": 56,
          "time": 38.72730500000001,
          "velocity": 0.5039370078740157,
          "duration": 0.3625003020833333
        },
        {
          "name": "G#3",
          "midi": 56,
          "time": 39.09094166666667,
          "velocity": 0.5039370078740157,
          "duration": 1.5443194687499968
        },
        {
          "name": "G3",
          "midi": 55,
          "time": 40.6363975,
          "velocity": 0.5039370078740157,
          "duration": 0.2715911354166636
        },
        {
          "name": "G3",
          "midi": 55,
          "time": 40.909124999999996,
          "velocity": 0.5039370078740157,
          "duration": 1.6352286354166665
        },
        {
          "name": "F3",
          "midi": 53,
          "time": 43.36367249999999,
          "velocity": 0.5039370078740157,
          "duration": 0.2715911354166636
        },
        {
          "name": "A#3",
          "midi": 58,
          "time": 43.63639999999999,
          "velocity": 0.5039370078740157,
          "duration": 0.2715911354166636
        },
        {
          "name": "G#3",
          "midi": 56,
          "time": 43.90912749999998,
          "velocity": 0.5039370078740157,
          "duration": 1.0897736354166696
        },
        {
          "name": "G#3",
          "midi": 56,
          "time": 45.00003749999998,
          "velocity": 0.5039370078740157,
          "duration": 0.2715911354166636
        },
        {
          "name": "G#3",
          "midi": 56,
          "time": 45.27276499999998,
          "velocity": 0.5039370078740157,
          "duration": 0.2715911354166636
        },
        {
          "name": "G#3",
          "midi": 56,
          "time": 45.54549249999997,
          "velocity": 0.5039370078740157,
          "duration": 1.0897736354166696
        },
        {
          "name": "G3",
          "midi": 55,
          "time": 46.636402499999974,
          "velocity": 0.5039370078740157,
          "duration": 0.8170461354166676
        },
        {
          "name": "C4",
          "midi": 60,
          "time": 47.45458499999997,
          "velocity": 0.5039370078740157,
          "duration": 0.8170461354166676
        },
        {
          "name": "G3",
          "midi": 55,
          "time": 48.27276749999997,
          "velocity": 0.5039370078740157,
          "duration": 0.8170461354166676
        },
        {
          "name": "F3",
          "midi": 53,
          "time": 49.09094999999997,
          "velocity": 0.5039370078740157,
          "duration": 0.5443186354166656
        },
        {
          "name": "C#4",
          "midi": 61,
          "time": 49.63640499999997,
          "velocity": 0.5039370078740157,
          "duration": 0.5443186354166656
        },
        {
          "name": "C#4",
          "midi": 61,
          "time": 50.181859999999965,
          "velocity": 0.5039370078740157,
          "duration": 0.18068196875000098
        },
        {
          "name": "C4",
          "midi": 60,
          "time": 50.3636783333333,
          "velocity": 0.5039370078740157,
          "duration": 0.18068196875000098
        },
        {
          "name": "C4",
          "midi": 60,
          "time": 50.54549666666663,
          "velocity": 0.5039370078740157,
          "duration": 0.9988644687499999
        },
        {
          "name": "A#3",
          "midi": 58,
          "time": 51.54549749999996,
          "velocity": 0.5039370078740157,
          "duration": 0.20340926041667018
        },
        {
          "name": "G#3",
          "midi": 56,
          "time": 51.75004312499996,
          "velocity": 0.5039370078740157,
          "duration": 0.4079548854166646
        },
        {
          "name": "A#3",
          "midi": 58,
          "time": 52.15913437499996,
          "velocity": 0.5039370078740157,
          "duration": 1.021591760416669
        },
        {
          "name": "A#3",
          "midi": 58,
          "time": 53.18186249999996,
          "velocity": 0.5039370078740157,
          "duration": 0.20340926041667018
        },
        {
          "name": "G#3",
          "midi": 56,
          "time": 53.38640812499996,
          "velocity": 0.5039370078740157,
          "duration": 0.4079548854166646
        },
        {
          "name": "A#3",
          "midi": 58,
          "time": 53.795499374999956,
          "velocity": 0.5039370078740157,
          "duration": 1.021591760416669
        },
        {
          "name": "G#3",
          "midi": 56,
          "time": 54.818227499999956,
          "velocity": 0.5039370078740157,
          "duration": 0.8170461354166676
        },
        {
          "name": "F3",
          "midi": 53,
          "time": 55.636409999999955,
          "velocity": 0.5039370078740157,
          "duration": 0.5443186354166656
        },
        {
          "name": "C#4",
          "midi": 61,
          "time": 56.18186499999995,
          "velocity": 0.5039370078740157,
          "duration": 0.5443186354166656
        },
        {
          "name": "C#4",
          "midi": 61,
          "time": 56.72731999999995,
          "velocity": 0.5039370078740157,
          "duration": 0.18068196875000098
        },
        {
          "name": "C4",
          "midi": 60,
          "time": 56.90913833333328,
          "velocity": 0.5039370078740157,
          "duration": 0.18068196875000098
        },
        {
          "name": "C4",
          "midi": 60,
          "time": 57.090956666666614,
          "velocity": 0.5039370078740157,
          "duration": 0.9988644687499999
        },
        {
          "name": "A#3",
          "midi": 58,
          "time": 58.090957499999945,
          "velocity": 0.5039370078740157,
          "duration": 0.20340926041667018
        },
        {
          "name": "G#3",
          "midi": 56,
          "time": 58.29550312499995,
          "velocity": 0.5039370078740157,
          "duration": 0.4079548854166646
        },
        {
          "name": "C4",
          "midi": 60,
          "time": 58.70459437499994,
          "velocity": 0.5039370078740157,
          "duration": 1.021591760416669
        },
        {
          "name": "A#3",
          "midi": 58,
          "time": 59.72732249999994,
          "velocity": 0.5039370078740157,
          "duration": 0.20340926041667018
        },
        {
          "name": "G#3",
          "midi": 56,
          "time": 59.931868124999944,
          "velocity": 0.5039370078740157,
          "duration": 0.4079548854166646
        },
        {
          "name": "G3",
          "midi": 55,
          "time": 60.34095937499994,
          "velocity": 0.5039370078740157,
          "duration": 1.021591760416669
        },
        {
          "name": "F3",
          "midi": 53,
          "time": 61.36368749999994,
          "velocity": 0.5039370078740157,
          "duration": 0.2715911354166636
        },
        {
          "name": "G#3",
          "midi": 56,
          "time": 61.636414999999936,
          "velocity": 0.5039370078740157,
          "duration": 0.18068196875000098
        },
        {
          "name": "F3",
          "midi": 53,
          "time": 61.81823333333327,
          "velocity": 0.5039370078740157,
          "duration": 0.18068196875000098
        },
        {
          "name": "F3",
          "midi": 53,
          "time": 62.0000516666666,
          "velocity": 0.5039370078740157,
          "duration": 1.271591968750002
        },
        {
          "name": "A#3",
          "midi": 58,
          "time": 66.54550999999994,
          "velocity": 0.5039370078740157,
          "duration": 2.7261386354166746
        },
        {
          "name": "G#3",
          "midi": 56,
          "time": 69.27278499999994,
          "velocity": 0.5039370078740157,
          "duration": 0.5443186354166727
        },
        {
          "name": "G3",
          "midi": 55,
          "time": 69.81823999999995,
          "velocity": 0.5039370078740157,
          "duration": 0.5443186354166727
        },
        {
          "name": "F3",
          "midi": 53,
          "time": 70.36369499999995,
          "velocity": 0.5039370078740157,
          "duration": 1.6352286354166665
        },
        {
          "name": "C4",
          "midi": 60,
          "time": 73.90915249999995,
          "velocity": 0.5196850393700787,
          "duration": 0.2715911354166707
        },
        {
          "name": "D#4",
          "midi": 63,
          "time": 74.18187999999995,
          "velocity": 0.5433070866141733,
          "duration": 0.2715911354166707
        },
        {
          "name": "F4",
          "midi": 65,
          "time": 74.45460749999995,
          "velocity": 0.5669291338582677,
          "duration": 0.2715911354166707
        },
        {
          "name": "D#4",
          "midi": 63,
          "time": 74.72733499999995,
          "velocity": 0.5905511811023622,
          "duration": 0.2715911354166707
        },
        {
          "name": "F4",
          "midi": 65,
          "time": 75.00006249999996,
          "velocity": 0.6141732283464567,
          "duration": 0.2715911354166707
        },
        {
          "name": "C4",
          "midi": 60,
          "time": 75.54551749999996,
          "velocity": 0.6614173228346457,
          "duration": 0.2715911354166707
        },
        {
          "name": "D#4",
          "midi": 63,
          "time": 75.81824499999996,
          "velocity": 0.6850393700787402,
          "duration": 0.2715911354166707
        },
        {
          "name": "F4",
          "midi": 65,
          "time": 76.09097249999996,
          "velocity": 0.7086614173228346,
          "duration": 0.2715911354166849
        },
        {
          "name": "D#4",
          "midi": 63,
          "time": 76.36369999999998,
          "velocity": 0.7322834645669292,
          "duration": 0.2715911354166707
        },
        {
          "name": "F4",
          "midi": 65,
          "time": 76.63642749999998,
          "velocity": 0.7559055118110236,
          "duration": 0.2715911354166707
        },
        {
          "name": "F4",
          "midi": 65,
          "time": 76.90915499999998,
          "velocity": 0.7559055118110236,
          "duration": 3.8170486354166684
        },
        {
          "name": "D#4",
          "midi": 63,
          "time": 80.72733999999998,
          "velocity": 0.7559055118110236,
          "duration": 0.5443186354166727
        },
        {
          "name": "C#4",
          "midi": 61,
          "time": 81.27279499999999,
          "velocity": 0.7559055118110236,
          "duration": 0.5443186354166727
        },
        {
          "name": "C4",
          "midi": 60,
          "time": 81.81824999999999,
          "velocity": 0.7559055118110236,
          "duration": 0.5443186354166727
        },
        {
          "name": "C#4",
          "midi": 61,
          "time": 82.363705,
          "velocity": 0.7559055118110236,
          "duration": 0.2715911354166707
        },
        {
          "name": "C4",
          "midi": 60,
          "time": 82.6364325,
          "velocity": 0.7559055118110236,
          "duration": 0.8170461354166605
        },
        {
          "name": "C4",
          "midi": 60,
          "time": 83.45461499999999,
          "velocity": 0.7559055118110236,
          "duration": 0.8170461354166605
        },
        {
          "name": "A#3",
          "midi": 58,
          "time": 84.27279749999998,
          "velocity": 0.7559055118110236,
          "duration": 2.1806836354166705
        },
        {
          "name": "A#3",
          "midi": 58,
          "time": 86.45461749999998,
          "velocity": 0.7559055118110236,
          "duration": 0.2715911354166707
        },
        {
          "name": "F4",
          "midi": 65,
          "time": 86.72734499999999,
          "velocity": 0.7559055118110236,
          "duration": 0.5443186354166727
        },
        {
          "name": "D#4",
          "midi": 63,
          "time": 87.27279999999999,
          "velocity": 0.7559055118110236,
          "duration": 0.8170461354166605
        },
        {
          "name": "C#4",
          "midi": 61,
          "time": 88.09098249999998,
          "velocity": 0.7559055118110236,
          "duration": 0.2715911354166707
        },
        {
          "name": "C4",
          "midi": 60,
          "time": 88.36370999999998,
          "velocity": 0.7559055118110236,
          "duration": 1.6352286354166665
        },
        {
          "name": "F3",
          "midi": 53,
          "time": 90.81825749999999,
          "velocity": 0.5039370078740157,
          "duration": 0.2715911354166707
        },
        {
          "name": "G#3",
          "midi": 56,
          "time": 91.09098499999999,
          "velocity": 0.5039370078740157,
          "duration": 0.18068196874999387
        },
        {
          "name": "F3",
          "midi": 53,
          "time": 91.27280333333331,
          "velocity": 0.5039370078740157,
          "duration": 0.18068196874999387
        },
        {
          "name": "G3",
          "midi": 55,
          "time": 91.45462166666664,
          "velocity": 0.5039370078740157,
          "duration": 0.9988644687499999
        },
        {
          "name": "F3",
          "midi": 53,
          "time": 92.45462249999997,
          "velocity": 0.5039370078740157,
          "duration": 0.2715911354166707
        },
        {
          "name": "A#3",
          "midi": 58,
          "time": 92.72734999999997,
          "velocity": 0.5039370078740157,
          "duration": 1.3625011354166645
        },
        {
          "name": "G#3",
          "midi": 56,
          "time": 94.09098749999997,
          "velocity": 0.5039370078740157,
          "duration": 0.2715911354166707
        },
        {
          "name": "G3",
          "midi": 55,
          "time": 94.36371499999997,
          "velocity": 0.5039370078740157,
          "duration": 0.4079548854166717
        },
        {
          "name": "F3",
          "midi": 53,
          "time": 94.77280624999997,
          "velocity": 0.5039370078740157,
          "duration": 3.1352298854166634
        },
        {
          "name": "F3",
          "midi": 53,
          "time": 97.90917249999997,
          "velocity": 0.5039370078740157,
          "duration": 0.2715911354166707
        },
        {
          "name": "G3",
          "midi": 55,
          "time": 98.18189999999997,
          "velocity": 0.5039370078740157,
          "duration": 0.2715911354166707
        },
        {
          "name": "G#3",
          "midi": 56,
          "time": 98.45462749999997,
          "velocity": 0.5039370078740157,
          "duration": 0.8170461354166605
        },
        {
          "name": "G3",
          "midi": 55,
          "time": 99.27280999999996,
          "velocity": 0.5039370078740157,
          "duration": 0.2715911354166707
        },
        {
          "name": "F3",
          "midi": 53,
          "time": 99.54553749999997,
          "velocity": 0.5039370078740157,
          "duration": 0.2715911354166707
        },
        {
          "name": "F3",
          "midi": 53,
          "time": 99.81826499999997,
          "velocity": 0.5039370078740157,
          "duration": 2.7261386354166603
        },
        {
          "name": "G#3",
          "midi": 56,
          "time": 103.09099499999996,
          "velocity": 0.5039370078740157,
          "duration": 1.0897736354166625
        },
        {
          "name": "F3",
          "midi": 53,
          "time": 104.18190499999996,
          "velocity": 0.5039370078740157,
          "duration": 0.18068196874999387
        },
        {
          "name": "G#3",
          "midi": 56,
          "time": 104.36372333333328,
          "velocity": 0.5039370078740157,
          "duration": 0.18068196874999387
        },
        {
          "name": "F3",
          "midi": 53,
          "time": 104.54554166666661,
          "velocity": 0.5039370078740157,
          "duration": 0.18068196874999387
        },
        {
          "name": "G3",
          "midi": 55,
          "time": 104.72735999999993,
          "velocity": 0.5039370078740157,
          "duration": 1.0897736354166625
        },
        {
          "name": "F3",
          "midi": 53,
          "time": 106.09099749999993,
          "velocity": 0.5039370078740157,
          "duration": 0.2715911354166707
        },
        {
          "name": "A#3",
          "midi": 58,
          "time": 106.36372499999993,
          "velocity": 0.5039370078740157,
          "duration": 0.4079548854166717
        },
        {
          "name": "A#3",
          "midi": 58,
          "time": 106.77281624999993,
          "velocity": 0.5039370078740157,
          "duration": 0.4079548854166717
        },
        {
          "name": "G#3",
          "midi": 56,
          "time": 107.18190749999994,
          "velocity": 0.5039370078740157,
          "duration": 0.2715911354166707
        },
        {
          "name": "G3",
          "midi": 55,
          "time": 107.45463499999994,
          "velocity": 0.5039370078740157,
          "duration": 0.4079548854166717
        },
        {
          "name": "F3",
          "midi": 53,
          "time": 107.86372624999994,
          "velocity": 0.5039370078740157,
          "duration": 1.4988648854166655
        },
        {
          "name": "F3",
          "midi": 53,
          "time": 109.36372749999994,
          "velocity": 0.5039370078740157,
          "duration": 0.2715911354166707
        },
        {
          "name": "G#3",
          "midi": 56,
          "time": 109.63645499999994,
          "velocity": 0.5039370078740157,
          "duration": 1.6352286354166665
        },
        {
          "name": "F3",
          "midi": 53,
          "time": 112.00009333333327,
          "velocity": 0.5039370078740157,
          "duration": 0.18068196874999387
        },
        {
          "name": "G3",
          "midi": 55,
          "time": 112.1819116666666,
          "velocity": 0.5039370078740157,
          "duration": 0.18068196874999387
        },
        {
          "name": "G#3",
          "midi": 56,
          "time": 112.36372999999992,
          "velocity": 0.5039370078740157,
          "duration": 0.18068196874999387
        },
        {
          "name": "G3",
          "midi": 55,
          "time": 112.54554833333324,
          "velocity": 0.5039370078740157,
          "duration": 0.18068196874999387
        },
        {
          "name": "F3",
          "midi": 53,
          "time": 112.72736666666657,
          "velocity": 0.5039370078740157,
          "duration": 0.18068196874999387
        },
        {
          "name": "G3",
          "midi": 55,
          "time": 112.9091849999999,
          "velocity": 0.5039370078740157,
          "duration": 1.6352286354166665
        },
        {
          "name": "C3",
          "midi": 48,
          "time": 126.00010499999989,
          "velocity": 0.3858267716535433,
          "duration": 1.6352286354166665
        },
        {
          "name": "C#3",
          "midi": 49,
          "time": 127.63646999999989,
          "velocity": 0.3858267716535433,
          "duration": 1.6352286354166665
        },
        {
          "name": "D#3",
          "midi": 51,
          "time": 129.2728349999999,
          "velocity": 0.3858267716535433,
          "duration": 1.6352286354166665
        },
        {
          "name": "F3",
          "midi": 53,
          "time": 130.9091999999999,
          "velocity": 0.3858267716535433,
          "duration": 1.6352286354166665
        },
        {
          "name": "A#2",
          "midi": 46,
          "time": 132.54556499999993,
          "velocity": 0.3858267716535433,
          "duration": 1.6352286354166665
        },
        {
          "name": "C3",
          "midi": 48,
          "time": 134.18192999999994,
          "velocity": 0.3858267716535433,
          "duration": 1.6352286354166665
        },
        {
          "name": "F3",
          "midi": 53,
          "time": 135.81829499999995,
          "velocity": 0.3858267716535433,
          "duration": 1.6352286354166665
        },
        {
          "name": "F3",
          "midi": 53,
          "time": 137.45465999999996,
          "velocity": 0.3858267716535433,
          "duration": 1.6352286354166665
        },
        {
          "name": "C3",
          "midi": 48,
          "time": 139.09102499999997,
          "velocity": 0.3858267716535433,
          "duration": 1.6352286354166665
        },
        {
          "name": "C#3",
          "midi": 49,
          "time": 140.72738999999999,
          "velocity": 0.3858267716535433,
          "duration": 1.6352286354166665
        },
        {
          "name": "D#3",
          "midi": 51,
          "time": 142.363755,
          "velocity": 0.3858267716535433,
          "duration": 1.6352286354166665
        },
        {
          "name": "F3",
          "midi": 53,
          "time": 144.00012,
          "velocity": 0.3858267716535433,
          "duration": 1.6352286354166665
        },
        {
          "name": "A#2",
          "midi": 46,
          "time": 145.63648500000002,
          "velocity": 0.3858267716535433,
          "duration": 1.6352286354166665
        },
        {
          "name": "C3",
          "midi": 48,
          "time": 147.27285000000003,
          "velocity": 0.3858267716535433,
          "duration": 1.6352286354166665
        },
        {
          "name": "F3",
          "midi": 53,
          "time": 148.90921500000005,
          "velocity": 0.3858267716535433,
          "duration": 1.6352286354166665
        },
        {
          "name": "A3",
          "midi": 57,
          "time": 150.54558000000006,
          "velocity": 0.3858267716535433,
          "duration": 1.6352286354166665
        },
        {
          "name": "A#3",
          "midi": 58,
          "time": 153.00012750000008,
          "velocity": 0.7559055118110236,
          "duration": 0.27159113541665647
        },
        {
          "name": "C#4",
          "midi": 61,
          "time": 153.27285500000008,
          "velocity": 0.7559055118110236,
          "duration": 0.18068196875000808
        },
        {
          "name": "A#3",
          "midi": 58,
          "time": 153.45467333333343,
          "velocity": 0.7559055118110236,
          "duration": 0.18068196875000808
        },
        {
          "name": "C#4",
          "midi": 61,
          "time": 153.63649166666679,
          "velocity": 0.7559055118110236,
          "duration": 0.9988644687499857
        },
        {
          "name": "C#4",
          "midi": 61,
          "time": 154.63649250000012,
          "velocity": 0.7559055118110236,
          "duration": 0.27159113541665647
        },
        {
          "name": "C#4",
          "midi": 61,
          "time": 154.90922000000012,
          "velocity": 0.7559055118110236,
          "duration": 0.27159113541665647
        },
        {
          "name": "C#4",
          "midi": 61,
          "time": 155.18194750000012,
          "velocity": 0.7559055118110236,
          "duration": 1.6352286354166665
        },
        {
          "name": "C4",
          "midi": 60,
          "time": 156.81831250000013,
          "velocity": 0.7559055118110236,
          "duration": 0.27159113541665647
        },
        {
          "name": "C4",
          "midi": 60,
          "time": 157.09104000000013,
          "velocity": 0.7559055118110236,
          "duration": 1.6352286354166665
        },
        {
          "name": "A#3",
          "midi": 58,
          "time": 159.54558750000012,
          "velocity": 0.7559055118110236,
          "duration": 0.27159113541665647
        },
        {
          "name": "D#4",
          "midi": 63,
          "time": 159.81831500000013,
          "velocity": 0.7559055118110236,
          "duration": 0.27159113541665647
        },
        {
          "name": "C#4",
          "midi": 61,
          "time": 160.09104250000013,
          "velocity": 0.7559055118110236,
          "duration": 1.0897736354166625
        },
        {
          "name": "C#4",
          "midi": 61,
          "time": 161.18195250000014,
          "velocity": 0.7559055118110236,
          "duration": 0.27159113541665647
        },
        {
          "name": "C#4",
          "midi": 61,
          "time": 161.45468000000014,
          "velocity": 0.7559055118110236,
          "duration": 0.27159113541665647
        },
        {
          "name": "C#4",
          "midi": 61,
          "time": 161.72740750000014,
          "velocity": 0.7559055118110236,
          "duration": 1.0897736354166625
        },
        {
          "name": "C4",
          "midi": 60,
          "time": 162.81831750000015,
          "velocity": 0.7559055118110236,
          "duration": 0.8170461354166605
        },
        {
          "name": "F4",
          "midi": 65,
          "time": 163.63650000000015,
          "velocity": 0.7559055118110236,
          "duration": 0.8170461354166605
        },
        {
          "name": "C4",
          "midi": 60,
          "time": 164.45468250000016,
          "velocity": 0.7559055118110236,
          "duration": 0.8170461354166605
        },
        {
          "name": "A#3",
          "midi": 58,
          "time": 165.27286500000017,
          "velocity": 0.7559055118110236,
          "duration": 0.8170461354166605
        },
        {
          "name": "F#4",
          "midi": 66,
          "time": 166.09104750000017,
          "velocity": 0.7559055118110236,
          "duration": 0.27159113541665647
        },
        {
          "name": "F#4",
          "midi": 66,
          "time": 166.36377500000017,
          "velocity": 0.7559055118110236,
          "duration": 0.18068196875000808
        },
        {
          "name": "F4",
          "midi": 65,
          "time": 166.54559333333353,
          "velocity": 0.7559055118110236,
          "duration": 0.18068196875000808
        },
        {
          "name": "F4",
          "midi": 65,
          "time": 166.72741166666688,
          "velocity": 0.7559055118110236,
          "duration": 0.9988644687499857
        },
        {
          "name": "D#4",
          "midi": 63,
          "time": 167.7274125000002,
          "velocity": 0.7559055118110236,
          "duration": 0.27159113541665647
        },
        {
          "name": "C#4",
          "midi": 61,
          "time": 168.00014000000021,
          "velocity": 0.7559055118110236,
          "duration": 0.27159113541665647
        },
        {
          "name": "D#4",
          "midi": 63,
          "time": 168.27286750000022,
          "velocity": 0.7559055118110236,
          "duration": 1.0897736354166625
        },
        {
          "name": "D#4",
          "midi": 63,
          "time": 169.36377750000023,
          "velocity": 0.7559055118110236,
          "duration": 0.27159113541665647
        },
        {
          "name": "C#4",
          "midi": 61,
          "time": 169.63650500000023,
          "velocity": 0.7559055118110236,
          "duration": 0.27159113541665647
        },
        {
          "name": "F4",
          "midi": 65,
          "time": 169.90923250000023,
          "velocity": 0.7559055118110236,
          "duration": 1.0897736354166625
        },
        {
          "name": "F#4",
          "midi": 66,
          "time": 171.00014250000024,
          "velocity": 0.7559055118110236,
          "duration": 0.13522738541666968
        },
        {
          "name": "F4",
          "midi": 65,
          "time": 171.13650625000025,
          "velocity": 0.7559055118110236,
          "duration": 0.13522738541666968
        },
        {
          "name": "D#4",
          "midi": 63,
          "time": 171.27287000000027,
          "velocity": 0.7559055118110236,
          "duration": 1.0897736354166625
        },
        {
          "name": "F#4",
          "midi": 66,
          "time": 172.63650750000028,
          "velocity": 0.7559055118110236,
          "duration": 0.27159113541665647
        },
        {
          "name": "F#4",
          "midi": 66,
          "time": 172.90923500000028,
          "velocity": 0.7559055118110236,
          "duration": 0.18068196875000808
        },
        {
          "name": "F4",
          "midi": 65,
          "time": 173.09105333333363,
          "velocity": 0.7559055118110236,
          "duration": 0.18068196875000808
        },
        {
          "name": "F4",
          "midi": 65,
          "time": 173.272871666667,
          "velocity": 0.7559055118110236,
          "duration": 0.9988644687499857
        },
        {
          "name": "D#4",
          "midi": 63,
          "time": 174.27287250000032,
          "velocity": 0.7559055118110236,
          "duration": 0.27159113541665647
        },
        {
          "name": "C#4",
          "midi": 61,
          "time": 174.54560000000032,
          "velocity": 0.7559055118110236,
          "duration": 0.27159113541665647
        },
        {
          "name": "F4",
          "midi": 65,
          "time": 174.81832750000032,
          "velocity": 0.7559055118110236,
          "duration": 1.0897736354166625
        },
        {
          "name": "D#4",
          "midi": 63,
          "time": 175.90923750000033,
          "velocity": 0.7559055118110236,
          "duration": 0.27159113541665647
        },
        {
          "name": "C#4",
          "midi": 61,
          "time": 176.18196500000033,
          "velocity": 0.7559055118110236,
          "duration": 0.27159113541665647
        },
        {
          "name": "C4",
          "midi": 60,
          "time": 176.45469250000033,
          "velocity": 0.7559055118110236,
          "duration": 1.3625011354166645
        },
        {
          "name": "F#2",
          "midi": 42,
          "time": 178.36378500000032,
          "velocity": 0.7559055118110236,
          "duration": 1.6352286354166665
        },
        {
          "name": "A#2",
          "midi": 46,
          "time": 180.00015000000033,
          "velocity": 0.7559055118110236,
          "duration": 1.6352286354166665
        },
        {
          "name": "G#2",
          "midi": 44,
          "time": 181.63651500000034,
          "velocity": 0.7559055118110236,
          "duration": 1.6352286354166665
        },
        {
          "name": "C3",
          "midi": 48,
          "time": 183.27288000000036,
          "velocity": 0.7559055118110236,
          "duration": 1.6352286354166665
        },
        {
          "name": "F#2",
          "midi": 42,
          "time": 184.90924500000037,
          "velocity": 0.7559055118110236,
          "duration": 1.6352286354166665
        },
        {
          "name": "A#2",
          "midi": 46,
          "time": 186.54561000000038,
          "velocity": 0.7559055118110236,
          "duration": 1.6352286354166665
        },
        {
          "name": "G#2",
          "midi": 44,
          "time": 188.1819750000004,
          "velocity": 0.7559055118110236,
          "duration": 1.6352286354166665
        },
        {
          "name": "F3",
          "midi": 53,
          "time": 189.8183400000004,
          "velocity": 0.7559055118110236,
          "duration": 0.8170461354166605
        },
        {
          "name": "A2",
          "midi": 45,
          "time": 190.6365225000004,
          "velocity": 0.7559055118110236,
          "duration": 0.8170461354166605
        },
        {
          "name": "A#2",
          "midi": 46,
          "time": 191.45470500000042,
          "velocity": 0.8818897637795275,
          "duration": 0.5443186354166585
        },
        {
          "name": "F#4",
          "midi": 66,
          "time": 192.27288750000042,
          "velocity": 0.8818897637795275,
          "duration": 0.27159113541665647
        },
        {
          "name": "F#4",
          "midi": 66,
          "time": 192.54561500000042,
          "velocity": 0.8818897637795275,
          "duration": 0.18068196875000808
        },
        {
          "name": "F4",
          "midi": 65,
          "time": 192.72743333333378,
          "velocity": 0.8818897637795275,
          "duration": 0.18068196875000808
        },
        {
          "name": "F4",
          "midi": 65,
          "time": 192.90925166666713,
          "velocity": 0.8818897637795275,
          "duration": 0.9988644687499857
        },
        {
          "name": "D#4",
          "midi": 63,
          "time": 193.90925250000046,
          "velocity": 0.8818897637795275,
          "duration": 0.27159113541665647
        },
        {
          "name": "C#4",
          "midi": 61,
          "time": 194.18198000000046,
          "velocity": 0.8818897637795275,
          "duration": 0.27159113541665647
        },
        {
          "name": "D#4",
          "midi": 63,
          "time": 194.45470750000047,
          "velocity": 0.8818897637795275,
          "duration": 1.0897736354166625
        },
        {
          "name": "D#4",
          "midi": 63,
          "time": 195.54561750000047,
          "velocity": 0.8818897637795275,
          "duration": 0.27159113541665647
        },
        {
          "name": "C#4",
          "midi": 61,
          "time": 195.81834500000048,
          "velocity": 0.8818897637795275,
          "duration": 0.27159113541665647
        },
        {
          "name": "F4",
          "midi": 65,
          "time": 196.09107250000048,
          "velocity": 0.8818897637795275,
          "duration": 1.0897736354166625
        },
        {
          "name": "F#4",
          "midi": 66,
          "time": 197.1819825000005,
          "velocity": 0.8818897637795275,
          "duration": 0.13522738541666968
        },
        {
          "name": "F4",
          "midi": 65,
          "time": 197.3183462500005,
          "velocity": 0.8818897637795275,
          "duration": 0.13522738541666968
        },
        {
          "name": "D#4",
          "midi": 63,
          "time": 197.45471000000052,
          "velocity": 0.8818897637795275,
          "duration": 1.0897736354166625
        },
        {
          "name": "F#4",
          "midi": 66,
          "time": 198.81834750000053,
          "velocity": 0.8818897637795275,
          "duration": 0.27159113541665647
        },
        {
          "name": "F#4",
          "midi": 66,
          "time": 199.09107500000053,
          "velocity": 0.8818897637795275,
          "duration": 0.18068196875000808
        },
        {
          "name": "F4",
          "midi": 65,
          "time": 199.27289333333388,
          "velocity": 0.8818897637795275,
          "duration": 0.18068196875000808
        },
        {
          "name": "F4",
          "midi": 65,
          "time": 199.45471166666724,
          "velocity": 0.8818897637795275,
          "duration": 0.9988644687499857
        },
        {
          "name": "D#4",
          "midi": 63,
          "time": 200.45471250000057,
          "velocity": 0.8818897637795275,
          "duration": 0.27159113541665647
        },
        {
          "name": "C#4",
          "midi": 61,
          "time": 200.72744000000057,
          "velocity": 0.8818897637795275,
          "duration": 0.27159113541665647
        },
        {
          "name": "F4",
          "midi": 65,
          "time": 201.00016750000057,
          "velocity": 0.8818897637795275,
          "duration": 1.0897736354166625
        },
        {
          "name": "D#4",
          "midi": 63,
          "time": 202.09107750000058,
          "velocity": 0.8818897637795275,
          "duration": 0.27159113541665647
        },
        {
          "name": "C#4",
          "midi": 61,
          "time": 202.36380500000058,
          "velocity": 0.8818897637795275,
          "duration": 0.27159113541665647
        },
        {
          "name": "C4",
          "midi": 60,
          "time": 202.63653250000058,
          "velocity": 0.8818897637795275,
          "duration": 1.9079561354166685
        },
        {
          "name": "A#3",
          "midi": 58,
          "time": 205.36380750000058,
          "velocity": 0.3858267716535433,
          "duration": 0.27159113541665647
        },
        {
          "name": "C#4",
          "midi": 61,
          "time": 205.63653500000058,
          "velocity": 0.3858267716535433,
          "duration": 0.18068196875000808
        },
        {
          "name": "A#3",
          "midi": 58,
          "time": 205.81835333333393,
          "velocity": 0.3858267716535433,
          "duration": 0.18068196875000808
        },
        {
          "name": "A#3",
          "midi": 58,
          "time": 206.00017166666728,
          "velocity": 0.3858267716535433,
          "duration": 1.8170469687499917
        }
      ],
      "controlChanges": {
        "2": [
          {
            "number": 2,
            "time": 10.9091,
            "value": 0.3858267716535433
          },
          {
            "number": 2,
            "time": 24.00002,
            "value": 0.3858267716535433
          },
          {
            "number": 2,
            "time": 24.181838333333335,
            "value": 0.3858267716535433
          },
          {
            "number": 2,
            "time": 24.36365666666667,
            "value": 0.3858267716535433
          },
          {
            "number": 2,
            "time": 24.545475000000007,
            "value": 0.3858267716535433
          },
          {
            "number": 2,
            "time": 25.36365750000001,
            "value": 0.3858267716535433
          },
          {
            "number": 2,
            "time": 25.90911250000001,
            "value": 0.3858267716535433
          },
          {
            "number": 2,
            "time": 26.18184000000001,
            "value": 0.3858267716535433
          },
          {
            "number": 2,
            "time": 27.000022500000014,
            "value": 0.3858267716535433
          },
          {
            "number": 2,
            "time": 27.272750000000016,
            "value": 0.3858267716535433
          },
          {
            "number": 2,
            "time": 27.818205000000017,
            "value": 0.3858267716535433
          },
          {
            "number": 2,
            "time": 28.363660000000017,
            "value": 0.3858267716535433
          },
          {
            "number": 2,
            "time": 28.909115000000018,
            "value": 0.3858267716535433
          },
          {
            "number": 2,
            "time": 29.454570000000018,
            "value": 0.3858267716535433
          },
          {
            "number": 2,
            "time": 36.818212500000016,
            "value": 0.5039370078740157
          },
          {
            "number": 2,
            "time": 37.636395000000014,
            "value": 0.5039370078740157
          },
          {
            "number": 2,
            "time": 38.45457750000001,
            "value": 0.5039370078740157
          },
          {
            "number": 2,
            "time": 39.272760000000005,
            "value": 0.5039370078740157
          },
          {
            "number": 2,
            "time": 40.363670000000006,
            "value": 0.5039370078740157
          },
          {
            "number": 2,
            "time": 40.909124999999996,
            "value": 0.5039370078740157
          },
          {
            "number": 2,
            "time": 43.36367249999999,
            "value": 0.5039370078740157
          },
          {
            "number": 2,
            "time": 44.181854999999985,
            "value": 0.5039370078740157
          },
          {
            "number": 2,
            "time": 45.00003749999998,
            "value": 0.5039370078740157
          },
          {
            "number": 2,
            "time": 45.818219999999975,
            "value": 0.5039370078740157
          },
          {
            "number": 2,
            "time": 46.636402499999974,
            "value": 0.5039370078740157
          },
          {
            "number": 2,
            "time": 47.45458499999997,
            "value": 0.5039370078740157
          },
          {
            "number": 2,
            "time": 48.27276749999997,
            "value": 0.5039370078740157
          },
          {
            "number": 2,
            "time": 49.09094999999997,
            "value": 0.5039370078740157
          },
          {
            "number": 2,
            "time": 49.63640499999997,
            "value": 0.5039370078740157
          },
          {
            "number": 2,
            "time": 50.181859999999965,
            "value": 0.5039370078740157
          },
          {
            "number": 2,
            "time": 50.3636783333333,
            "value": 0.5039370078740157
          },
          {
            "number": 2,
            "time": 50.54549666666663,
            "value": 0.5039370078740157
          },
          {
            "number": 2,
            "time": 50.72731499999996,
            "value": 0.5039370078740157
          },
          {
            "number": 2,
            "time": 51.54549749999996,
            "value": 0.5039370078740157
          },
          {
            "number": 2,
            "time": 51.75004312499996,
            "value": 0.5039370078740157
          },
          {
            "number": 2,
            "time": 52.15913437499996,
            "value": 0.5039370078740157
          },
          {
            "number": 2,
            "time": 52.36367999999996,
            "value": 0.5039370078740157
          },
          {
            "number": 2,
            "time": 53.18186249999996,
            "value": 0.5039370078740157
          },
          {
            "number": 2,
            "time": 53.38640812499996,
            "value": 0.5039370078740157
          },
          {
            "number": 2,
            "time": 53.795499374999956,
            "value": 0.5039370078740157
          },
          {
            "number": 2,
            "time": 54.00004499999996,
            "value": 0.5039370078740157
          },
          {
            "number": 2,
            "time": 54.818227499999956,
            "value": 0.5039370078740157
          },
          {
            "number": 2,
            "time": 55.636409999999955,
            "value": 0.5039370078740157
          },
          {
            "number": 2,
            "time": 56.18186499999995,
            "value": 0.5039370078740157
          },
          {
            "number": 2,
            "time": 56.72731999999995,
            "value": 0.5039370078740157
          },
          {
            "number": 2,
            "time": 56.90913833333328,
            "value": 0.5039370078740157
          },
          {
            "number": 2,
            "time": 57.090956666666614,
            "value": 0.5039370078740157
          },
          {
            "number": 2,
            "time": 57.272774999999946,
            "value": 0.5039370078740157
          },
          {
            "number": 2,
            "time": 58.090957499999945,
            "value": 0.5039370078740157
          },
          {
            "number": 2,
            "time": 58.29550312499995,
            "value": 0.5039370078740157
          },
          {
            "number": 2,
            "time": 58.70459437499994,
            "value": 0.5039370078740157
          },
          {
            "number": 2,
            "time": 58.909139999999944,
            "value": 0.5039370078740157
          },
          {
            "number": 2,
            "time": 59.72732249999994,
            "value": 0.5039370078740157
          },
          {
            "number": 2,
            "time": 59.931868124999944,
            "value": 0.5039370078740157
          },
          {
            "number": 2,
            "time": 60.34095937499994,
            "value": 0.5039370078740157
          },
          {
            "number": 2,
            "time": 60.54550499999994,
            "value": 0.5039370078740157
          },
          {
            "number": 2,
            "time": 66.54550999999994,
            "value": 0.5039370078740157
          },
          {
            "number": 2,
            "time": 67.09096499999994,
            "value": 0.5039370078740157
          },
          {
            "number": 2,
            "time": 68.72732999999994,
            "value": 0.5039370078740157
          },
          {
            "number": 2,
            "time": 69.81823999999995,
            "value": 0.5039370078740157
          },
          {
            "number": 2,
            "time": 70.36369499999995,
            "value": 0.5039370078740157
          },
          {
            "number": 2,
            "time": 73.90915249999995,
            "value": 0.5196850393700787
          },
          {
            "number": 2,
            "time": 73.91824341666661,
            "value": 0.5275590551181102
          },
          {
            "number": 2,
            "time": 74.01142531249995,
            "value": 0.5354330708661418
          },
          {
            "number": 2,
            "time": 74.10574357291662,
            "value": 0.5433070866141733
          },
          {
            "number": 2,
            "time": 74.19892546874995,
            "value": 0.5511811023622047
          },
          {
            "number": 2,
            "time": 74.29324372916662,
            "value": 0.5590551181102362
          },
          {
            "number": 2,
            "time": 74.38642562499996,
            "value": 0.5669291338582677
          },
          {
            "number": 2,
            "time": 74.48074388541662,
            "value": 0.5748031496062992
          },
          {
            "number": 2,
            "time": 74.57392578124995,
            "value": 0.5826771653543307
          },
          {
            "number": 2,
            "time": 74.66824404166663,
            "value": 0.5905511811023622
          },
          {
            "number": 2,
            "time": 74.76142593749995,
            "value": 0.5984251968503937
          },
          {
            "number": 2,
            "time": 74.85574419791662,
            "value": 0.6062992125984252
          },
          {
            "number": 2,
            "time": 74.94892609374996,
            "value": 0.6141732283464567
          },
          {
            "number": 2,
            "time": 75.04324435416662,
            "value": 0.6220472440944882
          },
          {
            "number": 2,
            "time": 75.13642624999996,
            "value": 0.6299212598425197
          },
          {
            "number": 2,
            "time": 75.23074451041663,
            "value": 0.6377952755905512
          },
          {
            "number": 2,
            "time": 75.32392640624995,
            "value": 0.6456692913385826
          },
          {
            "number": 2,
            "time": 75.41824466666662,
            "value": 0.6535433070866141
          },
          {
            "number": 2,
            "time": 75.51142656249996,
            "value": 0.6614173228346457
          },
          {
            "number": 2,
            "time": 75.60574482291662,
            "value": 0.6692913385826772
          },
          {
            "number": 2,
            "time": 75.69892671874996,
            "value": 0.6771653543307087
          },
          {
            "number": 2,
            "time": 75.79324497916663,
            "value": 0.6850393700787402
          },
          {
            "number": 2,
            "time": 75.88642687499996,
            "value": 0.6929133858267716
          },
          {
            "number": 2,
            "time": 75.98074513541663,
            "value": 0.7007874015748031
          },
          {
            "number": 2,
            "time": 76.07392703124997,
            "value": 0.7086614173228346
          },
          {
            "number": 2,
            "time": 76.16824529166664,
            "value": 0.7165354330708661
          },
          {
            "number": 2,
            "time": 76.26142718749998,
            "value": 0.7244094488188977
          },
          {
            "number": 2,
            "time": 76.35574544791665,
            "value": 0.7322834645669292
          },
          {
            "number": 2,
            "time": 76.44892734374999,
            "value": 0.7401574803149606
          },
          {
            "number": 2,
            "time": 76.54324560416666,
            "value": 0.7480314960629921
          },
          {
            "number": 2,
            "time": 76.63642749999998,
            "value": 0.7559055118110236
          },
          {
            "number": 2,
            "time": 76.90915499999998,
            "value": 0.7559055118110236
          },
          {
            "number": 2,
            "time": 78.54551999999998,
            "value": 0.7559055118110236
          },
          {
            "number": 2,
            "time": 80.18188499999998,
            "value": 0.7559055118110236
          },
          {
            "number": 2,
            "time": 80.72733999999998,
            "value": 0.7559055118110236
          },
          {
            "number": 2,
            "time": 81.27279499999999,
            "value": 0.7559055118110236
          },
          {
            "number": 2,
            "time": 81.81824999999999,
            "value": 0.7559055118110236
          },
          {
            "number": 2,
            "time": 82.363705,
            "value": 0.7559055118110236
          },
          {
            "number": 2,
            "time": 82.6364325,
            "value": 0.7559055118110236
          },
          {
            "number": 2,
            "time": 83.45461499999999,
            "value": 0.7559055118110236
          },
          {
            "number": 2,
            "time": 84.27279749999998,
            "value": 0.7559055118110236
          },
          {
            "number": 2,
            "time": 85.09097999999999,
            "value": 0.7559055118110236
          },
          {
            "number": 2,
            "time": 86.18188999999998,
            "value": 0.7559055118110236
          },
          {
            "number": 2,
            "time": 86.45461749999998,
            "value": 0.7559055118110236
          },
          {
            "number": 2,
            "time": 86.72734499999999,
            "value": 0.7559055118110236
          },
          {
            "number": 2,
            "time": 87.27279999999999,
            "value": 0.7559055118110236
          },
          {
            "number": 2,
            "time": 88.09098249999998,
            "value": 0.7559055118110236
          },
          {
            "number": 2,
            "time": 88.36370999999998,
            "value": 0.7559055118110236
          },
          {
            "number": 2,
            "time": 90.81825749999999,
            "value": 0.5039370078740157
          },
          {
            "number": 2,
            "time": 101.45462999999997,
            "value": 0.5039370078740157
          },
          {
            "number": 2,
            "time": 103.09099499999996,
            "value": 0.5039370078740157
          },
          {
            "number": 2,
            "time": 126.00010499999989,
            "value": 0.3858267716535433
          },
          {
            "number": 2,
            "time": 127.63646999999989,
            "value": 0.3858267716535433
          },
          {
            "number": 2,
            "time": 129.2728349999999,
            "value": 0.3858267716535433
          },
          {
            "number": 2,
            "time": 130.9091999999999,
            "value": 0.3858267716535433
          },
          {
            "number": 2,
            "time": 132.54556499999993,
            "value": 0.3858267716535433
          },
          {
            "number": 2,
            "time": 134.18192999999994,
            "value": 0.3858267716535433
          },
          {
            "number": 2,
            "time": 135.81829499999995,
            "value": 0.3858267716535433
          },
          {
            "number": 2,
            "time": 137.45465999999996,
            "value": 0.3858267716535433
          },
          {
            "number": 2,
            "time": 139.09102499999997,
            "value": 0.3858267716535433
          },
          {
            "number": 2,
            "time": 140.72738999999999,
            "value": 0.3858267716535433
          },
          {
            "number": 2,
            "time": 142.363755,
            "value": 0.3858267716535433
          },
          {
            "number": 2,
            "time": 144.00012,
            "value": 0.3858267716535433
          },
          {
            "number": 2,
            "time": 145.63648500000002,
            "value": 0.3858267716535433
          },
          {
            "number": 2,
            "time": 147.27285000000003,
            "value": 0.3858267716535433
          },
          {
            "number": 2,
            "time": 148.90921500000005,
            "value": 0.3858267716535433
          },
          {
            "number": 2,
            "time": 150.54558000000006,
            "value": 0.3858267716535433
          },
          {
            "number": 2,
            "time": 152.18194500000007,
            "value": 0.7559055118110236
          },
          {
            "number": 2,
            "time": 153.00012750000008,
            "value": 0.7559055118110236
          },
          {
            "number": 2,
            "time": 153.8183100000001,
            "value": 0.7559055118110236
          },
          {
            "number": 2,
            "time": 154.63649250000012,
            "value": 0.7559055118110236
          },
          {
            "number": 2,
            "time": 155.45467500000012,
            "value": 0.7559055118110236
          },
          {
            "number": 2,
            "time": 156.54558500000013,
            "value": 0.7559055118110236
          },
          {
            "number": 2,
            "time": 157.09104000000013,
            "value": 0.7559055118110236
          },
          {
            "number": 2,
            "time": 159.54558750000012,
            "value": 0.7559055118110236
          },
          {
            "number": 2,
            "time": 160.36377000000013,
            "value": 0.7559055118110236
          },
          {
            "number": 2,
            "time": 161.18195250000014,
            "value": 0.7559055118110236
          },
          {
            "number": 2,
            "time": 162.00013500000014,
            "value": 0.7559055118110236
          },
          {
            "number": 2,
            "time": 162.81831750000015,
            "value": 0.7559055118110236
          },
          {
            "number": 2,
            "time": 163.63650000000015,
            "value": 0.7559055118110236
          },
          {
            "number": 2,
            "time": 164.45468250000016,
            "value": 0.7559055118110236
          },
          {
            "number": 2,
            "time": 166.09104750000017,
            "value": 0.7559055118110236
          },
          {
            "number": 2,
            "time": 166.36377500000017,
            "value": 0.7559055118110236
          },
          {
            "number": 2,
            "time": 166.54559333333353,
            "value": 0.7559055118110236
          },
          {
            "number": 2,
            "time": 166.72741166666688,
            "value": 0.7559055118110236
          },
          {
            "number": 2,
            "time": 166.9092300000002,
            "value": 0.7559055118110236
          },
          {
            "number": 2,
            "time": 167.7274125000002,
            "value": 0.7559055118110236
          },
          {
            "number": 2,
            "time": 168.00014000000021,
            "value": 0.7559055118110236
          },
          {
            "number": 2,
            "time": 168.27286750000022,
            "value": 0.7559055118110236
          },
          {
            "number": 2,
            "time": 168.54559500000022,
            "value": 0.7559055118110236
          },
          {
            "number": 2,
            "time": 169.36377750000023,
            "value": 0.7559055118110236
          },
          {
            "number": 2,
            "time": 169.63650500000023,
            "value": 0.7559055118110236
          },
          {
            "number": 2,
            "time": 169.90923250000023,
            "value": 0.7559055118110236
          },
          {
            "number": 2,
            "time": 170.18196000000023,
            "value": 0.7559055118110236
          },
          {
            "number": 2,
            "time": 171.00014250000024,
            "value": 0.7559055118110236
          },
          {
            "number": 2,
            "time": 171.13650625000025,
            "value": 0.7559055118110236
          },
          {
            "number": 2,
            "time": 171.27287000000027,
            "value": 0.7559055118110236
          },
          {
            "number": 2,
            "time": 171.81832500000027,
            "value": 0.7559055118110236
          },
          {
            "number": 2,
            "time": 172.63650750000028,
            "value": 0.7559055118110236
          },
          {
            "number": 2,
            "time": 172.90923500000028,
            "value": 0.7559055118110236
          },
          {
            "number": 2,
            "time": 173.09105333333363,
            "value": 0.7559055118110236
          },
          {
            "number": 2,
            "time": 173.272871666667,
            "value": 0.7559055118110236
          },
          {
            "number": 2,
            "time": 173.4546900000003,
            "value": 0.7559055118110236
          },
          {
            "number": 2,
            "time": 173.7274175000003,
            "value": 0.7559055118110236
          },
          {
            "number": 2,
            "time": 174.27287250000032,
            "value": 0.7559055118110236
          },
          {
            "number": 2,
            "time": 174.54560000000032,
            "value": 0.7559055118110236
          },
          {
            "number": 2,
            "time": 174.81832750000032,
            "value": 0.7559055118110236
          },
          {
            "number": 2,
            "time": 175.09105500000032,
            "value": 0.7559055118110236
          },
          {
            "number": 2,
            "time": 175.90923750000033,
            "value": 0.7559055118110236
          },
          {
            "number": 2,
            "time": 176.18196500000033,
            "value": 0.7559055118110236
          },
          {
            "number": 2,
            "time": 176.45469250000033,
            "value": 0.7559055118110236
          },
          {
            "number": 2,
            "time": 176.72742000000034,
            "value": 0.7559055118110236
          },
          {
            "number": 2,
            "time": 178.36378500000032,
            "value": 0.7559055118110236
          },
          {
            "number": 2,
            "time": 180.00015000000033,
            "value": 0.7559055118110236
          },
          {
            "number": 2,
            "time": 181.63651500000034,
            "value": 0.7559055118110236
          },
          {
            "number": 2,
            "time": 183.27288000000036,
            "value": 0.7559055118110236
          },
          {
            "number": 2,
            "time": 184.90924500000037,
            "value": 0.7559055118110236
          },
          {
            "number": 2,
            "time": 186.54561000000038,
            "value": 0.7559055118110236
          },
          {
            "number": 2,
            "time": 188.1819750000004,
            "value": 0.7559055118110236
          },
          {
            "number": 2,
            "time": 189.8183400000004,
            "value": 0.7559055118110236
          },
          {
            "number": 2,
            "time": 190.6365225000004,
            "value": 0.7559055118110236
          },
          {
            "number": 2,
            "time": 191.45470500000042,
            "value": 0.8818897637795275
          },
          {
            "number": 2,
            "time": 192.27288750000042,
            "value": 0.8818897637795275
          },
          {
            "number": 2,
            "time": 192.54561500000042,
            "value": 0.8818897637795275
          },
          {
            "number": 2,
            "time": 192.72743333333378,
            "value": 0.8818897637795275
          },
          {
            "number": 2,
            "time": 192.90925166666713,
            "value": 0.8818897637795275
          },
          {
            "number": 2,
            "time": 193.09107000000046,
            "value": 0.8818897637795275
          },
          {
            "number": 2,
            "time": 193.90925250000046,
            "value": 0.8818897637795275
          },
          {
            "number": 2,
            "time": 194.18198000000046,
            "value": 0.8818897637795275
          },
          {
            "number": 2,
            "time": 194.45470750000047,
            "value": 0.8818897637795275
          },
          {
            "number": 2,
            "time": 194.72743500000047,
            "value": 0.8818897637795275
          },
          {
            "number": 2,
            "time": 195.54561750000047,
            "value": 0.8818897637795275
          },
          {
            "number": 2,
            "time": 195.81834500000048,
            "value": 0.8818897637795275
          },
          {
            "number": 2,
            "time": 196.09107250000048,
            "value": 0.8818897637795275
          },
          {
            "number": 2,
            "time": 196.36380000000048,
            "value": 0.8818897637795275
          },
          {
            "number": 2,
            "time": 197.1819825000005,
            "value": 0.8818897637795275
          },
          {
            "number": 2,
            "time": 197.3183462500005,
            "value": 0.8818897637795275
          },
          {
            "number": 2,
            "time": 197.45471000000052,
            "value": 0.8818897637795275
          },
          {
            "number": 2,
            "time": 198.00016500000052,
            "value": 0.8818897637795275
          },
          {
            "number": 2,
            "time": 198.81834750000053,
            "value": 0.8818897637795275
          },
          {
            "number": 2,
            "time": 199.09107500000053,
            "value": 0.8818897637795275
          },
          {
            "number": 2,
            "time": 199.27289333333388,
            "value": 0.8818897637795275
          },
          {
            "number": 2,
            "time": 199.45471166666724,
            "value": 0.8818897637795275
          },
          {
            "number": 2,
            "time": 199.63653000000056,
            "value": 0.8818897637795275
          },
          {
            "number": 2,
            "time": 199.90925750000056,
            "value": 0.8818897637795275
          },
          {
            "number": 2,
            "time": 200.45471250000057,
            "value": 0.8818897637795275
          },
          {
            "number": 2,
            "time": 200.72744000000057,
            "value": 0.8818897637795275
          },
          {
            "number": 2,
            "time": 201.00016750000057,
            "value": 0.8818897637795275
          },
          {
            "number": 2,
            "time": 201.27289500000057,
            "value": 0.8818897637795275
          },
          {
            "number": 2,
            "time": 202.9092600000006,
            "value": 0.8818897637795275
          },
          {
            "number": 2,
            "time": 205.36380750000058,
            "value": 0.3858267716535433
          }
        ],
        "7": [
          {
            "number": 7,
            "time": 0,
            "value": 0.7874015748031497
          },
          {
            "number": 7,
            "time": 0,
            "value": 0.7874015748031497
          },
          {
            "number": 7,
            "time": 0,
            "value": 0.7874015748031497
          }
        ],
        "10": [
          {
            "number": 10,
            "time": 0,
            "value": 0.5039370078740157
          },
          {
            "number": 10,
            "time": 0,
            "value": 0.5039370078740157
          },
          {
            "number": 10,
            "time": 0,
            "value": 0.5039370078740157
          }
        ],
        "91": [
          {
            "number": 91,
            "time": 0,
            "value": 0
          },
          {
            "number": 91,
            "time": 0,
            "value": 0
          },
          {
            "number": 91,
            "time": 0,
            "value": 0
          }
        ],
        "93": [
          {
            "number": 93,
            "time": 0,
            "value": 0
          },
          {
            "number": 93,
            "time": 0,
            "value": 0
          },
          {
            "number": 93,
            "time": 0,
            "value": 0
          }
        ],
        "121": [
          {
            "number": 121,
            "time": 0,
            "value": 0
          },
          {
            "number": 121,
            "time": 0,
            "value": 0
          },
          {
            "number": 121,
            "time": 0,
            "value": 0
          }
        ]
      },
      "id": 1,
      "name": "Violoncello",
      "instrumentNumber": 44,
      "instrument": "tremolo strings",
      "instrumentFamily": "strings",
      "channelNumber": 5,
      "isPercussion": false
    },
    {
      "startTime": 0,
      "duration": 204.46267038541737,
      "length": 649,
      "notes": [
        {
          "name": "F3",
          "midi": 53,
          "time": 0,
          "velocity": 0.25984251968503935,
          "duration": 0.5170458854166666
        },
        {
          "name": "C4",
          "midi": 60,
          "time": 0,
          "velocity": 0.25984251968503935,
          "duration": 0.5170458854166666
        },
        {
          "name": "F3",
          "midi": 53,
          "time": 0.5454549999999999,
          "velocity": 0.25984251968503935,
          "duration": 0.5170458854166667
        },
        {
          "name": "C4",
          "midi": 60,
          "time": 0.5454549999999999,
          "velocity": 0.25984251968503935,
          "duration": 0.5170458854166667
        },
        {
          "name": "F3",
          "midi": 53,
          "time": 1.09091,
          "velocity": 0.25984251968503935,
          "duration": 0.5170458854166666
        },
        {
          "name": "C4",
          "midi": 60,
          "time": 1.09091,
          "velocity": 0.25984251968503935,
          "duration": 0.5170458854166666
        },
        {
          "name": "F3",
          "midi": 53,
          "time": 1.636365,
          "velocity": 0.25984251968503935,
          "duration": 0.5170458854166666
        },
        {
          "name": "C4",
          "midi": 60,
          "time": 1.636365,
          "velocity": 0.25984251968503935,
          "duration": 0.5170458854166666
        },
        {
          "name": "F3",
          "midi": 53,
          "time": 2.18182,
          "velocity": 0.25984251968503935,
          "duration": 0.5170458854166666
        },
        {
          "name": "C4",
          "midi": 60,
          "time": 2.18182,
          "velocity": 0.25984251968503935,
          "duration": 0.5170458854166666
        },
        {
          "name": "F3",
          "midi": 53,
          "time": 2.727275,
          "velocity": 0.25984251968503935,
          "duration": 0.5170458854166666
        },
        {
          "name": "C4",
          "midi": 60,
          "time": 2.727275,
          "velocity": 0.25984251968503935,
          "duration": 0.5170458854166666
        },
        {
          "name": "F3",
          "midi": 53,
          "time": 3.27273,
          "velocity": 0.25984251968503935,
          "duration": 1.09091
        },
        {
          "name": "C4",
          "midi": 60,
          "time": 3.27273,
          "velocity": 0.25984251968503935,
          "duration": 0.5170458854166666
        },
        {
          "name": "F3",
          "midi": 53,
          "time": 3.818185,
          "velocity": 0.25984251968503935,
          "duration": 1.0625008854166667
        },
        {
          "name": "C4",
          "midi": 60,
          "time": 3.818185,
          "velocity": 0.25984251968503935,
          "duration": 0.5170458854166671
        },
        {
          "name": "F3",
          "midi": 53,
          "time": 4.36364,
          "velocity": 0.25984251968503935,
          "duration": 1.0625008854166662
        },
        {
          "name": "C4",
          "midi": 60,
          "time": 4.36364,
          "velocity": 0.25984251968503935,
          "duration": 0.5170458854166666
        },
        {
          "name": "F3",
          "midi": 53,
          "time": 4.909095,
          "velocity": 0.25984251968503935,
          "duration": 1.0625008854166662
        },
        {
          "name": "C4",
          "midi": 60,
          "time": 4.909095,
          "velocity": 0.25984251968503935,
          "duration": 0.5170458854166666
        },
        {
          "name": "F3",
          "midi": 53,
          "time": 5.454549999999999,
          "velocity": 0.25984251968503935,
          "duration": 1.0625008854166662
        },
        {
          "name": "C4",
          "midi": 60,
          "time": 5.454549999999999,
          "velocity": 0.25984251968503935,
          "duration": 0.5170458854166666
        },
        {
          "name": "F3",
          "midi": 53,
          "time": 6.000004999999999,
          "velocity": 0.25984251968503935,
          "duration": 1.0625008854166662
        },
        {
          "name": "C4",
          "midi": 60,
          "time": 6.000004999999999,
          "velocity": 0.25984251968503935,
          "duration": 0.5170458854166666
        },
        {
          "name": "F3",
          "midi": 53,
          "time": 6.5454599999999985,
          "velocity": 0.25984251968503935,
          "duration": 1.0625008854166662
        },
        {
          "name": "C4",
          "midi": 60,
          "time": 6.5454599999999985,
          "velocity": 0.25984251968503935,
          "duration": 0.5170458854166666
        },
        {
          "name": "F3",
          "midi": 53,
          "time": 7.090914999999998,
          "velocity": 0.25984251968503935,
          "duration": 1.0625008854166653
        },
        {
          "name": "C4",
          "midi": 60,
          "time": 7.090914999999998,
          "velocity": 0.25984251968503935,
          "duration": 0.5170458854166666
        },
        {
          "name": "F3",
          "midi": 53,
          "time": 7.636369999999998,
          "velocity": 0.25984251968503935,
          "duration": 1.0625008854166662
        },
        {
          "name": "C4",
          "midi": 60,
          "time": 7.636369999999998,
          "velocity": 0.25984251968503935,
          "duration": 0.5170458854166657
        },
        {
          "name": "F3",
          "midi": 53,
          "time": 8.181824999999996,
          "velocity": 0.25984251968503935,
          "duration": 1.062500885416668
        },
        {
          "name": "C4",
          "midi": 60,
          "time": 8.181824999999996,
          "velocity": 0.25984251968503935,
          "duration": 0.5170458854166675
        },
        {
          "name": "F3",
          "midi": 53,
          "time": 8.727279999999997,
          "velocity": 0.25984251968503935,
          "duration": 1.062500885416668
        },
        {
          "name": "C4",
          "midi": 60,
          "time": 8.727279999999997,
          "velocity": 0.25984251968503935,
          "duration": 0.5170458854166675
        },
        {
          "name": "F3",
          "midi": 53,
          "time": 9.272734999999997,
          "velocity": 0.25984251968503935,
          "duration": 0.5454550000000005
        },
        {
          "name": "C4",
          "midi": 60,
          "time": 9.272734999999997,
          "velocity": 0.25984251968503935,
          "duration": 0.5170458854166675
        },
        {
          "name": "F3",
          "midi": 53,
          "time": 9.818189999999998,
          "velocity": 0.25984251968503935,
          "duration": 1.090910000000001
        },
        {
          "name": "C4",
          "midi": 60,
          "time": 9.818189999999998,
          "velocity": 0.25984251968503935,
          "duration": 0.5170458854166675
        },
        {
          "name": "F3",
          "midi": 53,
          "time": 10.363644999999998,
          "velocity": 0.25984251968503935,
          "duration": 1.062500885416668
        },
        {
          "name": "C4",
          "midi": 60,
          "time": 10.363644999999998,
          "velocity": 0.25984251968503935,
          "duration": 0.5170458854166675
        },
        {
          "name": "F3",
          "midi": 53,
          "time": 10.909099999999999,
          "velocity": 0.25984251968503935,
          "duration": 1.062500885416668
        },
        {
          "name": "C4",
          "midi": 60,
          "time": 10.909099999999999,
          "velocity": 0.25984251968503935,
          "duration": 0.5170458854166675
        },
        {
          "name": "F3",
          "midi": 53,
          "time": 11.454555,
          "velocity": 0.25984251968503935,
          "duration": 1.062500885416668
        },
        {
          "name": "C4",
          "midi": 60,
          "time": 11.454555,
          "velocity": 0.25984251968503935,
          "duration": 0.5170458854166675
        },
        {
          "name": "F3",
          "midi": 53,
          "time": 12.00001,
          "velocity": 0.25984251968503935,
          "duration": 1.062500885416668
        },
        {
          "name": "C4",
          "midi": 60,
          "time": 12.00001,
          "velocity": 0.25984251968503935,
          "duration": 0.5170458854166675
        },
        {
          "name": "F3",
          "midi": 53,
          "time": 12.545465,
          "velocity": 0.25984251968503935,
          "duration": 1.062500885416668
        },
        {
          "name": "C4",
          "midi": 60,
          "time": 12.545465,
          "velocity": 0.25984251968503935,
          "duration": 0.5170458854166675
        },
        {
          "name": "F3",
          "midi": 53,
          "time": 13.09092,
          "velocity": 0.25984251968503935,
          "duration": 1.062500885416668
        },
        {
          "name": "C4",
          "midi": 60,
          "time": 13.09092,
          "velocity": 0.25984251968503935,
          "duration": 0.5170458854166675
        },
        {
          "name": "F3",
          "midi": 53,
          "time": 13.636375000000001,
          "velocity": 0.25984251968503935,
          "duration": 1.062500885416668
        },
        {
          "name": "C4",
          "midi": 60,
          "time": 13.636375000000001,
          "velocity": 0.25984251968503935,
          "duration": 0.5170458854166675
        },
        {
          "name": "F3",
          "midi": 53,
          "time": 14.181830000000001,
          "velocity": 0.25984251968503935,
          "duration": 1.062500885416668
        },
        {
          "name": "C4",
          "midi": 60,
          "time": 14.181830000000001,
          "velocity": 0.25984251968503935,
          "duration": 0.5170458854166675
        },
        {
          "name": "F3",
          "midi": 53,
          "time": 14.727285000000002,
          "velocity": 0.25984251968503935,
          "duration": 1.062500885416668
        },
        {
          "name": "C4",
          "midi": 60,
          "time": 14.727285000000002,
          "velocity": 0.25984251968503935,
          "duration": 0.5170458854166675
        },
        {
          "name": "F3",
          "midi": 53,
          "time": 15.272740000000002,
          "velocity": 0.25984251968503935,
          "duration": 1.062500885416668
        },
        {
          "name": "C4",
          "midi": 60,
          "time": 15.272740000000002,
          "velocity": 0.25984251968503935,
          "duration": 0.5170458854166675
        },
        {
          "name": "F3",
          "midi": 53,
          "time": 15.818195000000003,
          "velocity": 0.25984251968503935,
          "duration": 0.5454550000000005
        },
        {
          "name": "C4",
          "midi": 60,
          "time": 15.818195000000003,
          "velocity": 0.25984251968503935,
          "duration": 0.5170458854166675
        },
        {
          "name": "F3",
          "midi": 53,
          "time": 16.363650000000003,
          "velocity": 0.25984251968503935,
          "duration": 1.090910000000001
        },
        {
          "name": "C4",
          "midi": 60,
          "time": 16.363650000000003,
          "velocity": 0.25984251968503935,
          "duration": 0.5170458854166675
        },
        {
          "name": "F3",
          "midi": 53,
          "time": 16.909105000000004,
          "velocity": 0.25984251968503935,
          "duration": 1.062500885416668
        },
        {
          "name": "C4",
          "midi": 60,
          "time": 16.909105000000004,
          "velocity": 0.25984251968503935,
          "duration": 0.5170458854166675
        },
        {
          "name": "F3",
          "midi": 53,
          "time": 17.454560000000004,
          "velocity": 0.25984251968503935,
          "duration": 1.062500885416668
        },
        {
          "name": "C4",
          "midi": 60,
          "time": 17.454560000000004,
          "velocity": 0.25984251968503935,
          "duration": 0.5170458854166675
        },
        {
          "name": "F3",
          "midi": 53,
          "time": 18.000015000000005,
          "velocity": 0.25984251968503935,
          "duration": 1.062500885416668
        },
        {
          "name": "C4",
          "midi": 60,
          "time": 18.000015000000005,
          "velocity": 0.25984251968503935,
          "duration": 0.5170458854166675
        },
        {
          "name": "F3",
          "midi": 53,
          "time": 18.545470000000005,
          "velocity": 0.25984251968503935,
          "duration": 1.062500885416668
        },
        {
          "name": "C4",
          "midi": 60,
          "time": 18.545470000000005,
          "velocity": 0.25984251968503935,
          "duration": 0.5170458854166675
        },
        {
          "name": "F3",
          "midi": 53,
          "time": 19.090925000000006,
          "velocity": 0.25984251968503935,
          "duration": 1.062500885416668
        },
        {
          "name": "C4",
          "midi": 60,
          "time": 19.090925000000006,
          "velocity": 0.25984251968503935,
          "duration": 0.5170458854166675
        },
        {
          "name": "F3",
          "midi": 53,
          "time": 19.636380000000006,
          "velocity": 0.25984251968503935,
          "duration": 1.062500885416668
        },
        {
          "name": "C4",
          "midi": 60,
          "time": 19.636380000000006,
          "velocity": 0.25984251968503935,
          "duration": 0.5170458854166675
        },
        {
          "name": "F3",
          "midi": 53,
          "time": 20.181835000000007,
          "velocity": 0.25984251968503935,
          "duration": 1.062500885416668
        },
        {
          "name": "C4",
          "midi": 60,
          "time": 20.181835000000007,
          "velocity": 0.25984251968503935,
          "duration": 0.5170458854166675
        },
        {
          "name": "F3",
          "midi": 53,
          "time": 20.727290000000007,
          "velocity": 0.25984251968503935,
          "duration": 1.062500885416668
        },
        {
          "name": "C4",
          "midi": 60,
          "time": 20.727290000000007,
          "velocity": 0.25984251968503935,
          "duration": 0.5170458854166675
        },
        {
          "name": "F3",
          "midi": 53,
          "time": 21.272745000000008,
          "velocity": 0.25984251968503935,
          "duration": 1.062500885416668
        },
        {
          "name": "C4",
          "midi": 60,
          "time": 21.272745000000008,
          "velocity": 0.25984251968503935,
          "duration": 0.5170458854166675
        },
        {
          "name": "F3",
          "midi": 53,
          "time": 21.818200000000008,
          "velocity": 0.25984251968503935,
          "duration": 1.062500885416668
        },
        {
          "name": "C4",
          "midi": 60,
          "time": 21.818200000000008,
          "velocity": 0.25984251968503935,
          "duration": 0.5170458854166675
        },
        {
          "name": "F3",
          "midi": 53,
          "time": 22.36365500000001,
          "velocity": 0.25984251968503935,
          "duration": 0.5454550000000005
        },
        {
          "name": "C4",
          "midi": 60,
          "time": 22.36365500000001,
          "velocity": 0.25984251968503935,
          "duration": 0.5170458854166675
        },
        {
          "name": "F3",
          "midi": 53,
          "time": 22.90911000000001,
          "velocity": 0.25984251968503935,
          "duration": 1.090910000000001
        },
        {
          "name": "C4",
          "midi": 60,
          "time": 22.90911000000001,
          "velocity": 0.25984251968503935,
          "duration": 0.5170458854166675
        },
        {
          "name": "F3",
          "midi": 53,
          "time": 23.45456500000001,
          "velocity": 0.25984251968503935,
          "duration": 1.062500885416668
        },
        {
          "name": "C4",
          "midi": 60,
          "time": 23.45456500000001,
          "velocity": 0.25984251968503935,
          "duration": 0.5170458854166675
        },
        {
          "name": "F3",
          "midi": 53,
          "time": 24.00002000000001,
          "velocity": 0.25984251968503935,
          "duration": 1.062500885416668
        },
        {
          "name": "C4",
          "midi": 60,
          "time": 24.00002000000001,
          "velocity": 0.25984251968503935,
          "duration": 0.5170458854166675
        },
        {
          "name": "F3",
          "midi": 53,
          "time": 24.54547500000001,
          "velocity": 0.25984251968503935,
          "duration": 1.062500885416668
        },
        {
          "name": "C4",
          "midi": 60,
          "time": 24.54547500000001,
          "velocity": 0.25984251968503935,
          "duration": 0.5170458854166675
        },
        {
          "name": "F3",
          "midi": 53,
          "time": 25.09093000000001,
          "velocity": 0.25984251968503935,
          "duration": 1.062500885416668
        },
        {
          "name": "C4",
          "midi": 60,
          "time": 25.09093000000001,
          "velocity": 0.25984251968503935,
          "duration": 0.5170458854166675
        },
        {
          "name": "F3",
          "midi": 53,
          "time": 25.63638500000001,
          "velocity": 0.25984251968503935,
          "duration": 1.062500885416668
        },
        {
          "name": "C4",
          "midi": 60,
          "time": 25.63638500000001,
          "velocity": 0.25984251968503935,
          "duration": 0.5170458854166675
        },
        {
          "name": "F3",
          "midi": 53,
          "time": 26.18184000000001,
          "velocity": 0.25984251968503935,
          "duration": 1.062500885416668
        },
        {
          "name": "C4",
          "midi": 60,
          "time": 26.18184000000001,
          "velocity": 0.25984251968503935,
          "duration": 0.5170458854166675
        },
        {
          "name": "F3",
          "midi": 53,
          "time": 26.727295000000012,
          "velocity": 0.25984251968503935,
          "duration": 1.062500885416668
        },
        {
          "name": "C4",
          "midi": 60,
          "time": 26.727295000000012,
          "velocity": 0.25984251968503935,
          "duration": 0.5170458854166675
        },
        {
          "name": "F3",
          "midi": 53,
          "time": 27.272750000000013,
          "velocity": 0.25984251968503935,
          "duration": 1.062500885416668
        },
        {
          "name": "C4",
          "midi": 60,
          "time": 27.272750000000013,
          "velocity": 0.25984251968503935,
          "duration": 0.5170458854166675
        },
        {
          "name": "F3",
          "midi": 53,
          "time": 27.818205000000013,
          "velocity": 0.25984251968503935,
          "duration": 1.062500885416668
        },
        {
          "name": "C4",
          "midi": 60,
          "time": 27.818205000000013,
          "velocity": 0.25984251968503935,
          "duration": 0.5170458854166675
        },
        {
          "name": "F3",
          "midi": 53,
          "time": 28.363660000000014,
          "velocity": 0.25984251968503935,
          "duration": 1.062500885416668
        },
        {
          "name": "C4",
          "midi": 60,
          "time": 28.363660000000014,
          "velocity": 0.25984251968503935,
          "duration": 0.5170458854166675
        },
        {
          "name": "F3",
          "midi": 53,
          "time": 28.909115000000014,
          "velocity": 0.25984251968503935,
          "duration": 1.062500885416668
        },
        {
          "name": "C4",
          "midi": 60,
          "time": 28.909115000000014,
          "velocity": 0.25984251968503935,
          "duration": 0.5170458854166675
        },
        {
          "name": "F3",
          "midi": 53,
          "time": 29.454570000000015,
          "velocity": 0.25984251968503935,
          "duration": 1.062500885416668
        },
        {
          "name": "C4",
          "midi": 60,
          "time": 29.454570000000015,
          "velocity": 0.25984251968503935,
          "duration": 0.5170458854166675
        },
        {
          "name": "F3",
          "midi": 53,
          "time": 30.000025000000015,
          "velocity": 0.25984251968503935,
          "duration": 1.062500885416668
        },
        {
          "name": "C4",
          "midi": 60,
          "time": 30.000025000000015,
          "velocity": 0.25984251968503935,
          "duration": 0.5170458854166675
        },
        {
          "name": "F3",
          "midi": 53,
          "time": 30.545480000000016,
          "velocity": 0.25984251968503935,
          "duration": 1.062500885416668
        },
        {
          "name": "C4",
          "midi": 60,
          "time": 30.545480000000016,
          "velocity": 0.25984251968503935,
          "duration": 0.5170458854166675
        },
        {
          "name": "F3",
          "midi": 53,
          "time": 31.090935000000016,
          "velocity": 0.25984251968503935,
          "duration": 1.062500885416668
        },
        {
          "name": "C4",
          "midi": 60,
          "time": 31.090935000000016,
          "velocity": 0.25984251968503935,
          "duration": 0.5170458854166675
        },
        {
          "name": "F3",
          "midi": 53,
          "time": 31.636390000000016,
          "velocity": 0.25984251968503935,
          "duration": 1.0625008854166644
        },
        {
          "name": "C4",
          "midi": 60,
          "time": 31.636390000000016,
          "velocity": 0.25984251968503935,
          "duration": 0.5170458854166675
        },
        {
          "name": "F3",
          "midi": 53,
          "time": 32.18184500000002,
          "velocity": 0.25984251968503935,
          "duration": 1.0625008854166609
        },
        {
          "name": "C4",
          "midi": 60,
          "time": 32.18184500000002,
          "velocity": 0.25984251968503935,
          "duration": 0.517045885416664
        },
        {
          "name": "F3",
          "midi": 53,
          "time": 32.727300000000014,
          "velocity": 0.25984251968503935,
          "duration": 1.0625008854166609
        },
        {
          "name": "C4",
          "midi": 60,
          "time": 32.727300000000014,
          "velocity": 0.25984251968503935,
          "duration": 0.517045885416664
        },
        {
          "name": "F3",
          "midi": 53,
          "time": 33.27275500000001,
          "velocity": 0.25984251968503935,
          "duration": 1.0625008854166609
        },
        {
          "name": "C4",
          "midi": 60,
          "time": 33.27275500000001,
          "velocity": 0.25984251968503935,
          "duration": 0.517045885416664
        },
        {
          "name": "F3",
          "midi": 53,
          "time": 33.81821000000001,
          "velocity": 0.25984251968503935,
          "duration": 1.0625008854166609
        },
        {
          "name": "C4",
          "midi": 60,
          "time": 33.81821000000001,
          "velocity": 0.25984251968503935,
          "duration": 0.517045885416664
        },
        {
          "name": "F3",
          "midi": 53,
          "time": 34.363665000000005,
          "velocity": 0.25984251968503935,
          "duration": 1.0625008854166609
        },
        {
          "name": "C4",
          "midi": 60,
          "time": 34.363665000000005,
          "velocity": 0.25984251968503935,
          "duration": 0.517045885416664
        },
        {
          "name": "F3",
          "midi": 53,
          "time": 34.90912,
          "velocity": 0.25984251968503935,
          "duration": 1.0625008854166609
        },
        {
          "name": "C4",
          "midi": 60,
          "time": 34.90912,
          "velocity": 0.25984251968503935,
          "duration": 0.517045885416664
        },
        {
          "name": "F3",
          "midi": 53,
          "time": 35.454575,
          "velocity": 0.25984251968503935,
          "duration": 1.0625008854166609
        },
        {
          "name": "C4",
          "midi": 60,
          "time": 35.454575,
          "velocity": 0.25984251968503935,
          "duration": 0.517045885416664
        },
        {
          "name": "F3",
          "midi": 53,
          "time": 36.000029999999995,
          "velocity": 0.3858267716535433,
          "duration": 1.0625008854166609
        },
        {
          "name": "C4",
          "midi": 60,
          "time": 36.000029999999995,
          "velocity": 0.3858267716535433,
          "duration": 0.517045885416664
        },
        {
          "name": "F3",
          "midi": 53,
          "time": 36.54548499999999,
          "velocity": 0.3858267716535433,
          "duration": 1.0625008854166609
        },
        {
          "name": "C4",
          "midi": 60,
          "time": 36.54548499999999,
          "velocity": 0.3858267716535433,
          "duration": 0.517045885416664
        },
        {
          "name": "F3",
          "midi": 53,
          "time": 37.09093999999999,
          "velocity": 0.3858267716535433,
          "duration": 0.5454549999999969
        },
        {
          "name": "C4",
          "midi": 60,
          "time": 37.09093999999999,
          "velocity": 0.3858267716535433,
          "duration": 0.517045885416664
        },
        {
          "name": "F3",
          "midi": 53,
          "time": 37.636394999999986,
          "velocity": 0.3858267716535433,
          "duration": 1.0909099999999938
        },
        {
          "name": "C4",
          "midi": 60,
          "time": 37.636394999999986,
          "velocity": 0.3858267716535433,
          "duration": 0.517045885416664
        },
        {
          "name": "F3",
          "midi": 53,
          "time": 38.18184999999998,
          "velocity": 0.3858267716535433,
          "duration": 1.0625008854166609
        },
        {
          "name": "C4",
          "midi": 60,
          "time": 38.18184999999998,
          "velocity": 0.3858267716535433,
          "duration": 0.517045885416664
        },
        {
          "name": "F3",
          "midi": 53,
          "time": 38.72730499999998,
          "velocity": 0.3858267716535433,
          "duration": 4.335230885416642
        },
        {
          "name": "C4",
          "midi": 60,
          "time": 38.72730499999998,
          "velocity": 0.3858267716535433,
          "duration": 0.517045885416664
        },
        {
          "name": "D#3",
          "midi": 51,
          "time": 39.27275999999998,
          "velocity": 0.3858267716535433,
          "duration": 1.0909099999999938
        },
        {
          "name": "A#3",
          "midi": 58,
          "time": 39.27275999999998,
          "velocity": 0.3858267716535433,
          "duration": 0.517045885416664
        },
        {
          "name": "D#3",
          "midi": 51,
          "time": 39.818214999999974,
          "velocity": 0.3858267716535433,
          "duration": 1.0909099999999938
        },
        {
          "name": "A#3",
          "midi": 58,
          "time": 39.818214999999974,
          "velocity": 0.3858267716535433,
          "duration": 0.517045885416664
        },
        {
          "name": "D#3",
          "midi": 51,
          "time": 40.36366999999997,
          "velocity": 0.3858267716535433,
          "duration": 1.0909099999999938
        },
        {
          "name": "A#3",
          "midi": 58,
          "time": 40.36366999999997,
          "velocity": 0.3858267716535433,
          "duration": 0.517045885416664
        },
        {
          "name": "D#3",
          "midi": 51,
          "time": 40.90912499999997,
          "velocity": 0.3858267716535433,
          "duration": 1.0909099999999938
        },
        {
          "name": "A#3",
          "midi": 58,
          "time": 40.90912499999997,
          "velocity": 0.3858267716535433,
          "duration": 0.517045885416664
        },
        {
          "name": "D#3",
          "midi": 51,
          "time": 41.454579999999964,
          "velocity": 0.3858267716535433,
          "duration": 1.0625008854166609
        },
        {
          "name": "A#3",
          "midi": 58,
          "time": 41.454579999999964,
          "velocity": 0.3858267716535433,
          "duration": 0.517045885416664
        },
        {
          "name": "D#3",
          "midi": 51,
          "time": 42.00003499999996,
          "velocity": 0.3858267716535433,
          "duration": 3.8181849999999784
        },
        {
          "name": "A#3",
          "midi": 58,
          "time": 42.00003499999996,
          "velocity": 0.3858267716535433,
          "duration": 0.517045885416664
        },
        {
          "name": "F3",
          "midi": 53,
          "time": 42.54548999999996,
          "velocity": 0.3858267716535433,
          "duration": 1.0625008854166609
        },
        {
          "name": "C4",
          "midi": 60,
          "time": 42.54548999999996,
          "velocity": 0.3858267716535433,
          "duration": 0.517045885416664
        },
        {
          "name": "F3",
          "midi": 53,
          "time": 43.090944999999955,
          "velocity": 0.3858267716535433,
          "duration": 1.0625008854166609
        },
        {
          "name": "C4",
          "midi": 60,
          "time": 43.090944999999955,
          "velocity": 0.3858267716535433,
          "duration": 0.517045885416664
        },
        {
          "name": "F3",
          "midi": 53,
          "time": 43.63639999999995,
          "velocity": 0.3858267716535433,
          "duration": 0.5454549999999969
        },
        {
          "name": "C4",
          "midi": 60,
          "time": 43.63639999999995,
          "velocity": 0.3858267716535433,
          "duration": 0.517045885416664
        },
        {
          "name": "F3",
          "midi": 53,
          "time": 44.18185499999995,
          "velocity": 0.3858267716535433,
          "duration": 1.0909099999999938
        },
        {
          "name": "C4",
          "midi": 60,
          "time": 44.18185499999995,
          "velocity": 0.3858267716535433,
          "duration": 0.517045885416664
        },
        {
          "name": "F3",
          "midi": 53,
          "time": 44.727309999999946,
          "velocity": 0.3858267716535433,
          "duration": 1.0625008854166609
        },
        {
          "name": "C4",
          "midi": 60,
          "time": 44.727309999999946,
          "velocity": 0.3858267716535433,
          "duration": 0.517045885416664
        },
        {
          "name": "F3",
          "midi": 53,
          "time": 45.27276499999994,
          "velocity": 0.3858267716535433,
          "duration": 2.6988658854166516
        },
        {
          "name": "C4",
          "midi": 60,
          "time": 45.27276499999994,
          "velocity": 0.3858267716535433,
          "duration": 0.517045885416664
        },
        {
          "name": "D#3",
          "midi": 51,
          "time": 45.81821999999994,
          "velocity": 0.3858267716535433,
          "duration": 1.0909099999999938
        },
        {
          "name": "A#3",
          "midi": 58,
          "time": 45.81821999999994,
          "velocity": 0.3858267716535433,
          "duration": 0.517045885416664
        },
        {
          "name": "D#3",
          "midi": 51,
          "time": 46.36367499999994,
          "velocity": 0.3858267716535433,
          "duration": 1.0625008854166609
        },
        {
          "name": "A#3",
          "midi": 58,
          "time": 46.36367499999994,
          "velocity": 0.3858267716535433,
          "duration": 0.517045885416664
        },
        {
          "name": "D#3",
          "midi": 51,
          "time": 46.909129999999934,
          "velocity": 0.3858267716535433,
          "duration": 27.244340885416705
        },
        {
          "name": "A#3",
          "midi": 58,
          "time": 46.909129999999934,
          "velocity": 0.3858267716535433,
          "duration": 0.517045885416664
        },
        {
          "name": "F3",
          "midi": 53,
          "time": 47.45458499999993,
          "velocity": 0.3858267716535433,
          "duration": 1.0625008854166609
        },
        {
          "name": "C4",
          "midi": 60,
          "time": 47.45458499999993,
          "velocity": 0.3858267716535433,
          "duration": 0.517045885416664
        },
        {
          "name": "F3",
          "midi": 53,
          "time": 48.00003999999993,
          "velocity": 0.3858267716535433,
          "duration": 1.0625008854166609
        },
        {
          "name": "C4",
          "midi": 60,
          "time": 48.00003999999993,
          "velocity": 0.3858267716535433,
          "duration": 0.517045885416664
        },
        {
          "name": "F3",
          "midi": 53,
          "time": 48.545494999999924,
          "velocity": 0.3858267716535433,
          "duration": 14.15342088541665
        },
        {
          "name": "C4",
          "midi": 60,
          "time": 48.545494999999924,
          "velocity": 0.3858267716535433,
          "duration": 0.517045885416664
        },
        {
          "name": "F5",
          "midi": 77,
          "time": 49.09094999999992,
          "velocity": 0.3858267716535433,
          "duration": 0.7761370104166616
        },
        {
          "name": "A#4",
          "midi": 70,
          "time": 49.63640499999992,
          "velocity": 0.3858267716535433,
          "duration": 0.2579547604166663
        },
        {
          "name": "C5",
          "midi": 72,
          "time": 49.90913249999992,
          "velocity": 0.3858267716535433,
          "duration": 0.7761370104166687
        },
        {
          "name": "F5",
          "midi": 77,
          "time": 50.72731499999992,
          "velocity": 0.3858267716535433,
          "duration": 0.7761370104166616
        },
        {
          "name": "A#4",
          "midi": 70,
          "time": 51.272769999999916,
          "velocity": 0.3858267716535433,
          "duration": 0.2579547604166663
        },
        {
          "name": "C5",
          "midi": 72,
          "time": 51.54549749999992,
          "velocity": 0.3858267716535433,
          "duration": 0.7761370104166687
        },
        {
          "name": "F5",
          "midi": 77,
          "time": 52.36367999999992,
          "velocity": 0.3858267716535433,
          "duration": 0.7761370104166616
        },
        {
          "name": "A#4",
          "midi": 70,
          "time": 52.909134999999914,
          "velocity": 0.3858267716535433,
          "duration": 0.2579547604166663
        },
        {
          "name": "C5",
          "midi": 72,
          "time": 53.181862499999916,
          "velocity": 0.3858267716535433,
          "duration": 0.7761370104166687
        },
        {
          "name": "F5",
          "midi": 77,
          "time": 54.000044999999915,
          "velocity": 0.3858267716535433,
          "duration": 0.7761370104166616
        },
        {
          "name": "A#4",
          "midi": 70,
          "time": 54.54549999999991,
          "velocity": 0.3858267716535433,
          "duration": 0.2579547604166663
        },
        {
          "name": "C5",
          "midi": 72,
          "time": 54.818227499999914,
          "velocity": 0.3858267716535433,
          "duration": 0.7761370104166687
        },
        {
          "name": "F5",
          "midi": 77,
          "time": 55.63640999999991,
          "velocity": 0.3858267716535433,
          "duration": 0.7761370104166616
        },
        {
          "name": "A#4",
          "midi": 70,
          "time": 56.18186499999991,
          "velocity": 0.3858267716535433,
          "duration": 0.2579547604166663
        },
        {
          "name": "C5",
          "midi": 72,
          "time": 56.45459249999991,
          "velocity": 0.3858267716535433,
          "duration": 0.7761370104166687
        },
        {
          "name": "F5",
          "midi": 77,
          "time": 57.27277499999991,
          "velocity": 0.3858267716535433,
          "duration": 0.7761370104166616
        },
        {
          "name": "A#4",
          "midi": 70,
          "time": 57.81822999999991,
          "velocity": 0.3858267716535433,
          "duration": 0.2579547604166663
        },
        {
          "name": "C5",
          "midi": 72,
          "time": 58.09095749999991,
          "velocity": 0.3858267716535433,
          "duration": 0.7761370104166687
        },
        {
          "name": "F5",
          "midi": 77,
          "time": 58.90913999999991,
          "velocity": 0.3858267716535433,
          "duration": 0.7761370104166616
        },
        {
          "name": "A#4",
          "midi": 70,
          "time": 59.454594999999905,
          "velocity": 0.3858267716535433,
          "duration": 0.2579547604166663
        },
        {
          "name": "C5",
          "midi": 72,
          "time": 59.72732249999991,
          "velocity": 0.3858267716535433,
          "duration": 0.7761370104166687
        },
        {
          "name": "F3",
          "midi": 53,
          "time": 62.18186999999991,
          "velocity": 0.3858267716535433,
          "duration": 1.0625008854166609
        },
        {
          "name": "C4",
          "midi": 60,
          "time": 62.18186999999991,
          "velocity": 0.3858267716535433,
          "duration": 0.517045885416664
        },
        {
          "name": "F3",
          "midi": 53,
          "time": 62.72732499999991,
          "velocity": 0.3858267716535433,
          "duration": 1.0625008854166609
        },
        {
          "name": "C4",
          "midi": 60,
          "time": 62.72732499999991,
          "velocity": 0.3858267716535433,
          "duration": 0.517045885416664
        },
        {
          "name": "F3",
          "midi": 53,
          "time": 63.272779999999905,
          "velocity": 0.3858267716535433,
          "duration": 7.090915000000045
        },
        {
          "name": "C4",
          "midi": 60,
          "time": 63.272779999999905,
          "velocity": 0.3858267716535433,
          "duration": 0.517045885416664
        },
        {
          "name": "F4",
          "midi": 65,
          "time": 63.8182349999999,
          "velocity": 0.3858267716535433,
          "duration": 0.2579547604166663
        },
        {
          "name": "G#4",
          "midi": 68,
          "time": 64.0909624999999,
          "velocity": 0.3858267716535433,
          "duration": 0.2579547604166663
        },
        {
          "name": "F4",
          "midi": 65,
          "time": 64.3636899999999,
          "velocity": 0.3858267716535433,
          "duration": 0.2579547604166663
        },
        {
          "name": "G#4",
          "midi": 68,
          "time": 64.63641749999991,
          "velocity": 0.3858267716535433,
          "duration": 0.2579547604166663
        },
        {
          "name": "F4",
          "midi": 65,
          "time": 64.90914499999991,
          "velocity": 0.3858267716535433,
          "duration": 0.2579547604166663
        },
        {
          "name": "G#4",
          "midi": 68,
          "time": 65.18187249999991,
          "velocity": 0.3858267716535433,
          "duration": 0.2579547604166663
        },
        {
          "name": "F4",
          "midi": 65,
          "time": 65.45459999999991,
          "velocity": 0.3858267716535433,
          "duration": 0.2579547604166663
        },
        {
          "name": "G#4",
          "midi": 68,
          "time": 65.72732749999992,
          "velocity": 0.3858267716535433,
          "duration": 0.2579547604166663
        },
        {
          "name": "F4",
          "midi": 65,
          "time": 66.00005499999992,
          "velocity": 0.3858267716535433,
          "duration": 0.2579547604166663
        },
        {
          "name": "G#4",
          "midi": 68,
          "time": 66.27278249999992,
          "velocity": 0.3858267716535433,
          "duration": 0.2579547604166663
        },
        {
          "name": "F4",
          "midi": 65,
          "time": 66.54550999999992,
          "velocity": 0.3858267716535433,
          "duration": 0.2579547604166663
        },
        {
          "name": "G#4",
          "midi": 68,
          "time": 66.81823749999992,
          "velocity": 0.3858267716535433,
          "duration": 0.2579547604166663
        },
        {
          "name": "D#4",
          "midi": 63,
          "time": 67.09096499999993,
          "velocity": 0.3858267716535433,
          "duration": 0.2579547604166663
        },
        {
          "name": "G4",
          "midi": 67,
          "time": 67.36369249999993,
          "velocity": 0.3858267716535433,
          "duration": 0.2579547604166663
        },
        {
          "name": "D#4",
          "midi": 63,
          "time": 67.63641999999993,
          "velocity": 0.3858267716535433,
          "duration": 0.2579547604166663
        },
        {
          "name": "G4",
          "midi": 67,
          "time": 67.90914749999993,
          "velocity": 0.3858267716535433,
          "duration": 0.2579547604166663
        },
        {
          "name": "D#4",
          "midi": 63,
          "time": 68.18187499999993,
          "velocity": 0.3858267716535433,
          "duration": 0.2579547604166663
        },
        {
          "name": "G4",
          "midi": 67,
          "time": 68.45460249999994,
          "velocity": 0.3858267716535433,
          "duration": 0.2579547604166663
        },
        {
          "name": "D#4",
          "midi": 63,
          "time": 68.72732999999994,
          "velocity": 0.3858267716535433,
          "duration": 0.2579547604166663
        },
        {
          "name": "A#3",
          "midi": 58,
          "time": 68.72732999999994,
          "velocity": 0.3858267716535433,
          "duration": 0.517045885416664
        },
        {
          "name": "A#4",
          "midi": 70,
          "time": 68.72732999999994,
          "velocity": 0.3858267716535433,
          "duration": 0.517045885416664
        },
        {
          "name": "G4",
          "midi": 67,
          "time": 69.00005749999994,
          "velocity": 0.3858267716535433,
          "duration": 0.2579547604166663
        },
        {
          "name": "D#4",
          "midi": 63,
          "time": 69.27278499999994,
          "velocity": 0.3858267716535433,
          "duration": 0.2579547604166663
        },
        {
          "name": "G#3",
          "midi": 56,
          "time": 69.27278499999994,
          "velocity": 0.3858267716535433,
          "duration": 0.517045885416664
        },
        {
          "name": "G#4",
          "midi": 68,
          "time": 69.27278499999994,
          "velocity": 0.3858267716535433,
          "duration": 0.517045885416664
        },
        {
          "name": "G4",
          "midi": 67,
          "time": 69.54551249999994,
          "velocity": 0.3858267716535433,
          "duration": 0.2579547604166663
        },
        {
          "name": "D#4",
          "midi": 63,
          "time": 69.81823999999995,
          "velocity": 0.3858267716535433,
          "duration": 0.2579547604166663
        },
        {
          "name": "G3",
          "midi": 55,
          "time": 69.81823999999995,
          "velocity": 0.3858267716535433,
          "duration": 0.517045885416664
        },
        {
          "name": "G4",
          "midi": 67,
          "time": 69.81823999999995,
          "velocity": 0.3858267716535433,
          "duration": 0.272727500000002
        },
        {
          "name": "G4",
          "midi": 67,
          "time": 70.09096749999995,
          "velocity": 0.3858267716535433,
          "duration": 0.2579547604166663
        },
        {
          "name": "F3",
          "midi": 53,
          "time": 70.36369499999995,
          "velocity": 0.3858267716535433,
          "duration": 1.062500885416668
        },
        {
          "name": "C4",
          "midi": 60,
          "time": 70.36369499999995,
          "velocity": 0.3858267716535433,
          "duration": 0.517045885416664
        },
        {
          "name": "F3",
          "midi": 53,
          "time": 70.90914999999995,
          "velocity": 0.3858267716535433,
          "duration": 1.062500885416668
        },
        {
          "name": "C4",
          "midi": 60,
          "time": 70.90914999999995,
          "velocity": 0.3858267716535433,
          "duration": 0.517045885416664
        },
        {
          "name": "F3",
          "midi": 53,
          "time": 71.45460499999996,
          "velocity": 0.3858267716535433,
          "duration": 1.062500885416668
        },
        {
          "name": "C4",
          "midi": 60,
          "time": 71.45460499999996,
          "velocity": 0.3858267716535433,
          "duration": 0.517045885416664
        },
        {
          "name": "F3",
          "midi": 53,
          "time": 72.00005999999996,
          "velocity": 0.3858267716535433,
          "duration": 0.545455000000004
        },
        {
          "name": "C4",
          "midi": 60,
          "time": 72.00005999999996,
          "velocity": 0.3858267716535433,
          "duration": 0.517045885416664
        },
        {
          "name": "F3",
          "midi": 53,
          "time": 72.54551499999997,
          "velocity": 0.3858267716535433,
          "duration": 0.545455000000004
        },
        {
          "name": "C4",
          "midi": 60,
          "time": 72.54551499999997,
          "velocity": 0.3858267716535433,
          "duration": 0.545455000000004
        },
        {
          "name": "F3",
          "midi": 53,
          "time": 73.09096999999997,
          "velocity": 0.3858267716535433,
          "duration": 107.42622588541724
        },
        {
          "name": "C4",
          "midi": 60,
          "time": 73.09096999999997,
          "velocity": 0.3858267716535433,
          "duration": 9.244325885416728
        },
        {
          "name": "D#3",
          "midi": 51,
          "time": 73.63642499999997,
          "velocity": 0.3858267716535433,
          "duration": 0.545455000000004
        },
        {
          "name": "A#3",
          "midi": 58,
          "time": 73.63642499999997,
          "velocity": 0.3858267716535433,
          "duration": 0.517045885416664
        },
        {
          "name": "D#3",
          "midi": 51,
          "time": 74.18187999999998,
          "velocity": 0.3858267716535433,
          "duration": 0.545455000000004
        },
        {
          "name": "A#3",
          "midi": 58,
          "time": 74.18187999999998,
          "velocity": 0.3858267716535433,
          "duration": 0.517045885416664
        },
        {
          "name": "D#3",
          "midi": 51,
          "time": 74.72733499999998,
          "velocity": 0.3858267716535433,
          "duration": 1.062500885416668
        },
        {
          "name": "A#3",
          "midi": 58,
          "time": 74.72733499999998,
          "velocity": 0.3858267716535433,
          "duration": 0.517045885416664
        },
        {
          "name": "D#3",
          "midi": 51,
          "time": 75.27278999999999,
          "velocity": 0.3858267716535433,
          "duration": 0.545455000000004
        },
        {
          "name": "A#3",
          "midi": 58,
          "time": 75.27278999999999,
          "velocity": 0.3858267716535433,
          "duration": 0.517045885416664
        },
        {
          "name": "D#3",
          "midi": 51,
          "time": 75.81824499999999,
          "velocity": 0.3858267716535433,
          "duration": 0.545455000000004
        },
        {
          "name": "A#3",
          "midi": 58,
          "time": 75.81824499999999,
          "velocity": 0.3858267716535433,
          "duration": 0.517045885416664
        },
        {
          "name": "D#3",
          "midi": 51,
          "time": 76.3637,
          "velocity": 0.3858267716535433,
          "duration": 105.78986088541723
        },
        {
          "name": "A#3",
          "midi": 58,
          "time": 76.3637,
          "velocity": 0.3858267716535433,
          "duration": 0.517045885416664
        },
        {
          "name": "F4",
          "midi": 65,
          "time": 76.909155,
          "velocity": 0.6299212598425197,
          "duration": 0.545455000000004
        },
        {
          "name": "C5",
          "midi": 72,
          "time": 76.909155,
          "velocity": 0.6299212598425197,
          "duration": 0.272727500000002
        },
        {
          "name": "F5",
          "midi": 77,
          "time": 76.909155,
          "velocity": 0.6299212598425197,
          "duration": 1.553410385416683
        },
        {
          "name": "C5",
          "midi": 72,
          "time": 77.1818825,
          "velocity": 0.6299212598425197,
          "duration": 0.545455000000004
        },
        {
          "name": "F4",
          "midi": 65,
          "time": 77.45461,
          "velocity": 0.6299212598425197,
          "duration": 0.545455000000004
        },
        {
          "name": "C5",
          "midi": 72,
          "time": 77.7273375,
          "velocity": 0.6299212598425197,
          "duration": 0.545455000000004
        },
        {
          "name": "F4",
          "midi": 65,
          "time": 78.000065,
          "velocity": 0.6299212598425197,
          "duration": 0.46250038541667493
        },
        {
          "name": "C5",
          "midi": 72,
          "time": 78.27279250000001,
          "velocity": 0.6299212598425197,
          "duration": 0.2579547604166663
        },
        {
          "name": "F4",
          "midi": 65,
          "time": 78.54552000000001,
          "velocity": 0.6299212598425197,
          "duration": 0.2579547604166663
        },
        {
          "name": "G#4",
          "midi": 68,
          "time": 78.81824750000001,
          "velocity": 0.6299212598425197,
          "duration": 0.2579547604166663
        },
        {
          "name": "F4",
          "midi": 65,
          "time": 79.09097500000001,
          "velocity": 0.6299212598425197,
          "duration": 0.2579547604166663
        },
        {
          "name": "G#4",
          "midi": 68,
          "time": 79.36370250000002,
          "velocity": 0.6299212598425197,
          "duration": 0.2579547604166663
        },
        {
          "name": "F4",
          "midi": 65,
          "time": 79.63643000000002,
          "velocity": 0.6299212598425197,
          "duration": 0.2579547604166663
        },
        {
          "name": "G#4",
          "midi": 68,
          "time": 79.90915750000002,
          "velocity": 0.6299212598425197,
          "duration": 0.2579547604166663
        },
        {
          "name": "F5",
          "midi": 77,
          "time": 80.18188500000002,
          "velocity": 0.6299212598425197,
          "duration": 0.517045885416664
        },
        {
          "name": "F4",
          "midi": 65,
          "time": 80.18188500000002,
          "velocity": 0.6299212598425197,
          "duration": 0.2579547604166663
        },
        {
          "name": "G4",
          "midi": 67,
          "time": 80.45461250000002,
          "velocity": 0.6299212598425197,
          "duration": 0.2579547604166663
        },
        {
          "name": "D#4",
          "midi": 63,
          "time": 80.72734000000003,
          "velocity": 0.6299212598425197,
          "duration": 0.517045885416664
        },
        {
          "name": "D#5",
          "midi": 75,
          "time": 80.72734000000003,
          "velocity": 0.6299212598425197,
          "duration": 0.517045885416664
        },
        {
          "name": "D#4",
          "midi": 63,
          "time": 80.72734000000003,
          "velocity": 0.6299212598425197,
          "duration": 6.257959760416696
        },
        {
          "name": "G4",
          "midi": 67,
          "time": 81.00006750000003,
          "velocity": 0.6299212598425197,
          "duration": 0.2579547604166663
        },
        {
          "name": "C#4",
          "midi": 61,
          "time": 81.27279500000003,
          "velocity": 0.6299212598425197,
          "duration": 0.517045885416664
        },
        {
          "name": "C#5",
          "midi": 73,
          "time": 81.27279500000003,
          "velocity": 0.6299212598425197,
          "duration": 0.517045885416664
        },
        {
          "name": "C4",
          "midi": 60,
          "time": 81.81825000000003,
          "velocity": 0.6299212598425197,
          "duration": 1.5943195104166676
        },
        {
          "name": "C5",
          "midi": 72,
          "time": 81.81825000000003,
          "velocity": 0.6299212598425197,
          "duration": 0.517045885416664
        },
        {
          "name": "C#4",
          "midi": 61,
          "time": 82.36370500000004,
          "velocity": 0.6299212598425197,
          "duration": 0.2579547604166663
        },
        {
          "name": "C#5",
          "midi": 73,
          "time": 82.36370500000004,
          "velocity": 0.6299212598425197,
          "duration": 0.2579547604166663
        },
        {
          "name": "C4",
          "midi": 60,
          "time": 82.63643250000004,
          "velocity": 0.6299212598425197,
          "duration": 6.244323385416692
        },
        {
          "name": "C5",
          "midi": 72,
          "time": 82.63643250000004,
          "velocity": 0.6299212598425197,
          "duration": 0.7761370104166616
        },
        {
          "name": "A#3",
          "midi": 58,
          "time": 83.45461500000003,
          "velocity": 0.6299212598425197,
          "duration": 0.2579547604166663
        },
        {
          "name": "F4",
          "midi": 65,
          "time": 83.72734250000003,
          "velocity": 0.6299212598425197,
          "duration": 0.2579547604166663
        },
        {
          "name": "A#3",
          "midi": 58,
          "time": 84.00007000000004,
          "velocity": 0.6299212598425197,
          "duration": 0.2579547604166663
        },
        {
          "name": "F4",
          "midi": 65,
          "time": 84.27279750000004,
          "velocity": 0.6299212598425197,
          "duration": 0.2579547604166663
        },
        {
          "name": "A#3",
          "midi": 58,
          "time": 84.54552500000004,
          "velocity": 0.6299212598425197,
          "duration": 0.2579547604166663
        },
        {
          "name": "F4",
          "midi": 65,
          "time": 84.81825250000004,
          "velocity": 0.6299212598425197,
          "duration": 0.2579547604166663
        },
        {
          "name": "G#3",
          "midi": 56,
          "time": 85.09098000000004,
          "velocity": 0.6299212598425197,
          "duration": 0.2579547604166663
        },
        {
          "name": "F4",
          "midi": 65,
          "time": 85.36370750000005,
          "velocity": 0.6299212598425197,
          "duration": 0.2579547604166663
        },
        {
          "name": "G#3",
          "midi": 56,
          "time": 85.63643500000005,
          "velocity": 0.6299212598425197,
          "duration": 0.545455000000004
        },
        {
          "name": "F4",
          "midi": 65,
          "time": 85.90916250000005,
          "velocity": 0.6299212598425197,
          "duration": 0.2579547604166663
        },
        {
          "name": "G#3",
          "midi": 56,
          "time": 86.18189000000005,
          "velocity": 0.6299212598425197,
          "duration": 96.51712588541717
        },
        {
          "name": "F4",
          "midi": 65,
          "time": 86.45461750000005,
          "velocity": 0.6299212598425197,
          "duration": 0.2579547604166663
        },
        {
          "name": "D#4",
          "midi": 63,
          "time": 86.72734500000006,
          "velocity": 0.6299212598425197,
          "duration": 0.8034097604166703
        },
        {
          "name": "G4",
          "midi": 67,
          "time": 87.00007250000006,
          "velocity": 0.6299212598425197,
          "duration": 0.2579547604166663
        },
        {
          "name": "D#4",
          "midi": 63,
          "time": 87.27280000000006,
          "velocity": 0.6299212598425197,
          "duration": 0.8034097604166703
        },
        {
          "name": "G4",
          "midi": 67,
          "time": 87.54552750000006,
          "velocity": 0.6299212598425197,
          "duration": 0.2579547604166663
        },
        {
          "name": "D#4",
          "midi": 63,
          "time": 87.81825500000006,
          "velocity": 0.6299212598425197,
          "duration": 89.42621088541712
        },
        {
          "name": "G4",
          "midi": 67,
          "time": 88.09098250000007,
          "velocity": 0.6299212598425197,
          "duration": 0.2579547604166663
        },
        {
          "name": "C4",
          "midi": 60,
          "time": 88.36371000000007,
          "velocity": 0.3858267716535433,
          "duration": 1.062500885416668
        },
        {
          "name": "E4",
          "midi": 64,
          "time": 88.36371000000007,
          "velocity": 0.3858267716535433,
          "duration": 0.517045885416664
        },
        {
          "name": "C4",
          "midi": 60,
          "time": 88.90916500000007,
          "velocity": 0.3858267716535433,
          "duration": 1.062500885416668
        },
        {
          "name": "E4",
          "midi": 64,
          "time": 88.90916500000007,
          "velocity": 0.3858267716535433,
          "duration": 0.517045885416664
        },
        {
          "name": "C4",
          "midi": 60,
          "time": 89.45462000000008,
          "velocity": 0.3858267716535433,
          "duration": 0
        },
        {
          "name": "E4",
          "midi": 64,
          "time": 89.45462000000008,
          "velocity": 0.3858267716535433,
          "duration": 0.517045885416664
        },
        {
          "name": "F4",
          "midi": 65,
          "time": 90.00007500000008,
          "velocity": 0.3858267716535433,
          "duration": 0.517045885416664
        },
        {
          "name": "C5",
          "midi": 72,
          "time": 90.00007500000008,
          "velocity": 0.3858267716535433,
          "duration": 0.517045885416664
        },
        {
          "name": "F4",
          "midi": 65,
          "time": 90.54553000000008,
          "velocity": 0.3858267716535433,
          "duration": 0.517045885416664
        },
        {
          "name": "C5",
          "midi": 72,
          "time": 90.54553000000008,
          "velocity": 0.3858267716535433,
          "duration": 0.517045885416664
        },
        {
          "name": "F4",
          "midi": 65,
          "time": 91.09098500000009,
          "velocity": 0.3858267716535433,
          "duration": 0.517045885416664
        },
        {
          "name": "C5",
          "midi": 72,
          "time": 91.09098500000009,
          "velocity": 0.3858267716535433,
          "duration": 0.517045885416664
        },
        {
          "name": "F4",
          "midi": 65,
          "time": 91.63644000000009,
          "velocity": 0.3858267716535433,
          "duration": 0.517045885416664
        },
        {
          "name": "C5",
          "midi": 72,
          "time": 91.63644000000009,
          "velocity": 0.3858267716535433,
          "duration": 0.517045885416664
        },
        {
          "name": "F4",
          "midi": 65,
          "time": 92.1818950000001,
          "velocity": 0.3858267716535433,
          "duration": 0.517045885416664
        },
        {
          "name": "C5",
          "midi": 72,
          "time": 92.1818950000001,
          "velocity": 0.3858267716535433,
          "duration": 0.517045885416664
        },
        {
          "name": "F4",
          "midi": 65,
          "time": 92.7273500000001,
          "velocity": 0.3858267716535433,
          "duration": 0.517045885416664
        },
        {
          "name": "C5",
          "midi": 72,
          "time": 92.7273500000001,
          "velocity": 0.3858267716535433,
          "duration": 0.517045885416664
        },
        {
          "name": "F4",
          "midi": 65,
          "time": 93.2728050000001,
          "velocity": 0.3858267716535433,
          "duration": 0.517045885416664
        },
        {
          "name": "C5",
          "midi": 72,
          "time": 93.2728050000001,
          "velocity": 0.3858267716535433,
          "duration": 0.517045885416664
        },
        {
          "name": "F4",
          "midi": 65,
          "time": 93.81826000000011,
          "velocity": 0.3858267716535433,
          "duration": 0.517045885416664
        },
        {
          "name": "C5",
          "midi": 72,
          "time": 93.81826000000011,
          "velocity": 0.3858267716535433,
          "duration": 0.517045885416664
        },
        {
          "name": "F4",
          "midi": 65,
          "time": 94.36371500000011,
          "velocity": 0.3858267716535433,
          "duration": 0.517045885416664
        },
        {
          "name": "C5",
          "midi": 72,
          "time": 94.36371500000011,
          "velocity": 0.3858267716535433,
          "duration": 0.517045885416664
        },
        {
          "name": "F4",
          "midi": 65,
          "time": 94.90917000000012,
          "velocity": 0.3858267716535433,
          "duration": 0.517045885416664
        },
        {
          "name": "C5",
          "midi": 72,
          "time": 94.90917000000012,
          "velocity": 0.3858267716535433,
          "duration": 0.517045885416664
        },
        {
          "name": "F4",
          "midi": 65,
          "time": 95.45462500000012,
          "velocity": 0.3858267716535433,
          "duration": 0.517045885416664
        },
        {
          "name": "C5",
          "midi": 72,
          "time": 95.45462500000012,
          "velocity": 0.3858267716535433,
          "duration": 0.517045885416664
        },
        {
          "name": "F4",
          "midi": 65,
          "time": 96.00008000000012,
          "velocity": 0.3858267716535433,
          "duration": 0.517045885416664
        },
        {
          "name": "C5",
          "midi": 72,
          "time": 96.00008000000012,
          "velocity": 0.3858267716535433,
          "duration": 0.517045885416664
        },
        {
          "name": "F4",
          "midi": 65,
          "time": 96.54553500000013,
          "velocity": 0.3858267716535433,
          "duration": 0.517045885416664
        },
        {
          "name": "C5",
          "midi": 72,
          "time": 96.54553500000013,
          "velocity": 0.3858267716535433,
          "duration": 0.517045885416664
        },
        {
          "name": "F4",
          "midi": 65,
          "time": 97.09099000000013,
          "velocity": 0.3858267716535433,
          "duration": 0.517045885416664
        },
        {
          "name": "C5",
          "midi": 72,
          "time": 97.09099000000013,
          "velocity": 0.3858267716535433,
          "duration": 0.517045885416664
        },
        {
          "name": "F4",
          "midi": 65,
          "time": 97.63644500000014,
          "velocity": 0.3858267716535433,
          "duration": 0.517045885416664
        },
        {
          "name": "C5",
          "midi": 72,
          "time": 97.63644500000014,
          "velocity": 0.3858267716535433,
          "duration": 0.517045885416664
        },
        {
          "name": "F4",
          "midi": 65,
          "time": 98.18190000000014,
          "velocity": 0.3858267716535433,
          "duration": 0.517045885416664
        },
        {
          "name": "C5",
          "midi": 72,
          "time": 98.18190000000014,
          "velocity": 0.3858267716535433,
          "duration": 0.517045885416664
        },
        {
          "name": "F4",
          "midi": 65,
          "time": 98.72735500000014,
          "velocity": 0.3858267716535433,
          "duration": 0.517045885416664
        },
        {
          "name": "C5",
          "midi": 72,
          "time": 98.72735500000014,
          "velocity": 0.3858267716535433,
          "duration": 0.517045885416664
        },
        {
          "name": "F4",
          "midi": 65,
          "time": 99.27281000000015,
          "velocity": 0.3858267716535433,
          "duration": 0.517045885416664
        },
        {
          "name": "C5",
          "midi": 72,
          "time": 99.27281000000015,
          "velocity": 0.3858267716535433,
          "duration": 0.517045885416664
        },
        {
          "name": "F4",
          "midi": 65,
          "time": 99.81826500000015,
          "velocity": 0.3858267716535433,
          "duration": 0.517045885416664
        },
        {
          "name": "C5",
          "midi": 72,
          "time": 99.81826500000015,
          "velocity": 0.3858267716535433,
          "duration": 0.517045885416664
        },
        {
          "name": "F4",
          "midi": 65,
          "time": 100.36372000000016,
          "velocity": 0.3858267716535433,
          "duration": 0.517045885416664
        },
        {
          "name": "C5",
          "midi": 72,
          "time": 100.36372000000016,
          "velocity": 0.3858267716535433,
          "duration": 0.517045885416664
        },
        {
          "name": "F4",
          "midi": 65,
          "time": 100.90917500000016,
          "velocity": 0.3858267716535433,
          "duration": 0.517045885416664
        },
        {
          "name": "C5",
          "midi": 72,
          "time": 100.90917500000016,
          "velocity": 0.3858267716535433,
          "duration": 0.517045885416664
        },
        {
          "name": "F4",
          "midi": 65,
          "time": 101.45463000000017,
          "velocity": 0.3858267716535433,
          "duration": 0.517045885416664
        },
        {
          "name": "C5",
          "midi": 72,
          "time": 101.45463000000017,
          "velocity": 0.3858267716535433,
          "duration": 0.517045885416664
        },
        {
          "name": "F4",
          "midi": 65,
          "time": 102.00008500000017,
          "velocity": 0.3858267716535433,
          "duration": 0.517045885416664
        },
        {
          "name": "C5",
          "midi": 72,
          "time": 102.00008500000017,
          "velocity": 0.3858267716535433,
          "duration": 0.517045885416664
        },
        {
          "name": "F4",
          "midi": 65,
          "time": 102.54554000000017,
          "velocity": 0.3858267716535433,
          "duration": 0.517045885416664
        },
        {
          "name": "C5",
          "midi": 72,
          "time": 102.54554000000017,
          "velocity": 0.3858267716535433,
          "duration": 0.517045885416664
        },
        {
          "name": "F4",
          "midi": 65,
          "time": 103.09099500000018,
          "velocity": 0.3858267716535433,
          "duration": 0.517045885416664
        },
        {
          "name": "C5",
          "midi": 72,
          "time": 103.09099500000018,
          "velocity": 0.3858267716535433,
          "duration": 0.517045885416664
        },
        {
          "name": "F4",
          "midi": 65,
          "time": 103.63645000000018,
          "velocity": 0.3858267716535433,
          "duration": 0.517045885416664
        },
        {
          "name": "C5",
          "midi": 72,
          "time": 103.63645000000018,
          "velocity": 0.3858267716535433,
          "duration": 0.517045885416664
        },
        {
          "name": "F4",
          "midi": 65,
          "time": 104.18190500000019,
          "velocity": 0.3858267716535433,
          "duration": 0.517045885416664
        },
        {
          "name": "C5",
          "midi": 72,
          "time": 104.18190500000019,
          "velocity": 0.3858267716535433,
          "duration": 0.517045885416664
        },
        {
          "name": "F4",
          "midi": 65,
          "time": 104.72736000000019,
          "velocity": 0.3858267716535433,
          "duration": 0.517045885416664
        },
        {
          "name": "C5",
          "midi": 72,
          "time": 104.72736000000019,
          "velocity": 0.3858267716535433,
          "duration": 0.517045885416664
        },
        {
          "name": "F4",
          "midi": 65,
          "time": 105.2728150000002,
          "velocity": 0.3858267716535433,
          "duration": 0.517045885416664
        },
        {
          "name": "C5",
          "midi": 72,
          "time": 105.2728150000002,
          "velocity": 0.3858267716535433,
          "duration": 0.517045885416664
        },
        {
          "name": "F4",
          "midi": 65,
          "time": 105.8182700000002,
          "velocity": 0.3858267716535433,
          "duration": 0.517045885416664
        },
        {
          "name": "C5",
          "midi": 72,
          "time": 105.8182700000002,
          "velocity": 0.3858267716535433,
          "duration": 0.517045885416664
        },
        {
          "name": "F4",
          "midi": 65,
          "time": 106.3637250000002,
          "velocity": 0.3858267716535433,
          "duration": 0.517045885416664
        },
        {
          "name": "C5",
          "midi": 72,
          "time": 106.3637250000002,
          "velocity": 0.3858267716535433,
          "duration": 0.517045885416664
        },
        {
          "name": "F4",
          "midi": 65,
          "time": 106.9091800000002,
          "velocity": 0.3858267716535433,
          "duration": 0.517045885416664
        },
        {
          "name": "C5",
          "midi": 72,
          "time": 106.9091800000002,
          "velocity": 0.3858267716535433,
          "duration": 0.517045885416664
        },
        {
          "name": "F4",
          "midi": 65,
          "time": 107.45463500000021,
          "velocity": 0.3858267716535433,
          "duration": 0.517045885416664
        },
        {
          "name": "C5",
          "midi": 72,
          "time": 107.45463500000021,
          "velocity": 0.3858267716535433,
          "duration": 0.517045885416664
        },
        {
          "name": "F4",
          "midi": 65,
          "time": 108.00009000000021,
          "velocity": 0.3858267716535433,
          "duration": 0.517045885416664
        },
        {
          "name": "C5",
          "midi": 72,
          "time": 108.00009000000021,
          "velocity": 0.3858267716535433,
          "duration": 0.517045885416664
        },
        {
          "name": "F4",
          "midi": 65,
          "time": 108.54554500000022,
          "velocity": 0.3858267716535433,
          "duration": 0.517045885416664
        },
        {
          "name": "C5",
          "midi": 72,
          "time": 108.54554500000022,
          "velocity": 0.3858267716535433,
          "duration": 0.517045885416664
        },
        {
          "name": "F4",
          "midi": 65,
          "time": 109.09100000000022,
          "velocity": 0.3858267716535433,
          "duration": 0.517045885416664
        },
        {
          "name": "C5",
          "midi": 72,
          "time": 109.09100000000022,
          "velocity": 0.3858267716535433,
          "duration": 0.517045885416664
        },
        {
          "name": "F4",
          "midi": 65,
          "time": 109.63645500000023,
          "velocity": 0.3858267716535433,
          "duration": 0.517045885416664
        },
        {
          "name": "C5",
          "midi": 72,
          "time": 109.63645500000023,
          "velocity": 0.3858267716535433,
          "duration": 0.517045885416664
        },
        {
          "name": "F4",
          "midi": 65,
          "time": 110.18191000000023,
          "velocity": 0.3858267716535433,
          "duration": 0.517045885416664
        },
        {
          "name": "C5",
          "midi": 72,
          "time": 110.18191000000023,
          "velocity": 0.3858267716535433,
          "duration": 0.517045885416664
        },
        {
          "name": "F4",
          "midi": 65,
          "time": 110.72736500000023,
          "velocity": 0.3858267716535433,
          "duration": 0.517045885416664
        },
        {
          "name": "C5",
          "midi": 72,
          "time": 110.72736500000023,
          "velocity": 0.3858267716535433,
          "duration": 0.517045885416664
        },
        {
          "name": "F4",
          "midi": 65,
          "time": 111.27282000000024,
          "velocity": 0.3858267716535433,
          "duration": 0.517045885416664
        },
        {
          "name": "C5",
          "midi": 72,
          "time": 111.27282000000024,
          "velocity": 0.3858267716535433,
          "duration": 0.517045885416664
        },
        {
          "name": "F4",
          "midi": 65,
          "time": 111.81827500000024,
          "velocity": 0.3858267716535433,
          "duration": 0.517045885416664
        },
        {
          "name": "C5",
          "midi": 72,
          "time": 111.81827500000024,
          "velocity": 0.3858267716535433,
          "duration": 0.517045885416664
        },
        {
          "name": "F4",
          "midi": 65,
          "time": 112.36373000000025,
          "velocity": 0.3858267716535433,
          "duration": 0.517045885416664
        },
        {
          "name": "C5",
          "midi": 72,
          "time": 112.36373000000025,
          "velocity": 0.3858267716535433,
          "duration": 0.517045885416664
        },
        {
          "name": "F4",
          "midi": 65,
          "time": 112.90918500000025,
          "velocity": 0.3858267716535433,
          "duration": 0.517045885416664
        },
        {
          "name": "C5",
          "midi": 72,
          "time": 112.90918500000025,
          "velocity": 0.3858267716535433,
          "duration": 0.517045885416664
        },
        {
          "name": "F4",
          "midi": 65,
          "time": 113.45464000000025,
          "velocity": 0.3858267716535433,
          "duration": 0.517045885416664
        },
        {
          "name": "C5",
          "midi": 72,
          "time": 113.45464000000025,
          "velocity": 0.3858267716535433,
          "duration": 0.517045885416664
        },
        {
          "name": "F4",
          "midi": 65,
          "time": 114.00009500000026,
          "velocity": 0.3858267716535433,
          "duration": 0.517045885416664
        },
        {
          "name": "C5",
          "midi": 72,
          "time": 114.00009500000026,
          "velocity": 0.3858267716535433,
          "duration": 0.517045885416664
        },
        {
          "name": "F4",
          "midi": 65,
          "time": 114.54555000000026,
          "velocity": 0.3858267716535433,
          "duration": 0.517045885416664
        },
        {
          "name": "C5",
          "midi": 72,
          "time": 114.54555000000026,
          "velocity": 0.3858267716535433,
          "duration": 0.517045885416664
        },
        {
          "name": "F4",
          "midi": 65,
          "time": 115.09100500000027,
          "velocity": 0.3858267716535433,
          "duration": 0.517045885416664
        },
        {
          "name": "C5",
          "midi": 72,
          "time": 115.09100500000027,
          "velocity": 0.3858267716535433,
          "duration": 0.517045885416664
        },
        {
          "name": "F4",
          "midi": 65,
          "time": 115.63646000000027,
          "velocity": 0.3858267716535433,
          "duration": 0.517045885416664
        },
        {
          "name": "C5",
          "midi": 72,
          "time": 115.63646000000027,
          "velocity": 0.3858267716535433,
          "duration": 0.517045885416664
        },
        {
          "name": "F4",
          "midi": 65,
          "time": 116.18191500000027,
          "velocity": 0.3858267716535433,
          "duration": 0.517045885416664
        },
        {
          "name": "C5",
          "midi": 72,
          "time": 116.18191500000027,
          "velocity": 0.3858267716535433,
          "duration": 0.517045885416664
        },
        {
          "name": "F4",
          "midi": 65,
          "time": 116.72737000000028,
          "velocity": 0.3858267716535433,
          "duration": 0.517045885416664
        },
        {
          "name": "C5",
          "midi": 72,
          "time": 116.72737000000028,
          "velocity": 0.3858267716535433,
          "duration": 0.517045885416664
        },
        {
          "name": "F4",
          "midi": 65,
          "time": 117.27282500000028,
          "velocity": 0.3858267716535433,
          "duration": 0.517045885416664
        },
        {
          "name": "C5",
          "midi": 72,
          "time": 117.27282500000028,
          "velocity": 0.3858267716535433,
          "duration": 0.517045885416664
        },
        {
          "name": "F4",
          "midi": 65,
          "time": 117.81828000000029,
          "velocity": 0.3858267716535433,
          "duration": 0.517045885416664
        },
        {
          "name": "C5",
          "midi": 72,
          "time": 117.81828000000029,
          "velocity": 0.3858267716535433,
          "duration": 0.517045885416664
        },
        {
          "name": "F4",
          "midi": 65,
          "time": 118.36373500000029,
          "velocity": 0.3858267716535433,
          "duration": 0.517045885416664
        },
        {
          "name": "C5",
          "midi": 72,
          "time": 118.36373500000029,
          "velocity": 0.3858267716535433,
          "duration": 0.517045885416664
        },
        {
          "name": "F4",
          "midi": 65,
          "time": 118.9091900000003,
          "velocity": 0.3858267716535433,
          "duration": 0.517045885416664
        },
        {
          "name": "C5",
          "midi": 72,
          "time": 118.9091900000003,
          "velocity": 0.3858267716535433,
          "duration": 0.517045885416664
        },
        {
          "name": "G4",
          "midi": 67,
          "time": 119.4546450000003,
          "velocity": 0.3858267716535433,
          "duration": 0.517045885416664
        },
        {
          "name": "C5",
          "midi": 72,
          "time": 119.4546450000003,
          "velocity": 0.3858267716535433,
          "duration": 0.517045885416664
        },
        {
          "name": "G4",
          "midi": 67,
          "time": 120.0001000000003,
          "velocity": 0.3858267716535433,
          "duration": 0.517045885416664
        },
        {
          "name": "C5",
          "midi": 72,
          "time": 120.0001000000003,
          "velocity": 0.3858267716535433,
          "duration": 0.517045885416664
        },
        {
          "name": "G4",
          "midi": 67,
          "time": 120.5455550000003,
          "velocity": 0.3858267716535433,
          "duration": 0.517045885416664
        },
        {
          "name": "C5",
          "midi": 72,
          "time": 120.5455550000003,
          "velocity": 0.3858267716535433,
          "duration": 0.517045885416664
        },
        {
          "name": "C#4",
          "midi": 61,
          "time": 121.09101000000031,
          "velocity": 0.3858267716535433,
          "duration": 0.517045885416664
        },
        {
          "name": "G#4",
          "midi": 68,
          "time": 121.09101000000031,
          "velocity": 0.3858267716535433,
          "duration": 0.517045885416664
        },
        {
          "name": "C#4",
          "midi": 61,
          "time": 121.63646500000031,
          "velocity": 0.3858267716535433,
          "duration": 0.517045885416664
        },
        {
          "name": "G#4",
          "midi": 68,
          "time": 121.63646500000031,
          "velocity": 0.3858267716535433,
          "duration": 0.517045885416664
        },
        {
          "name": "C#4",
          "midi": 61,
          "time": 122.18192000000032,
          "velocity": 0.3858267716535433,
          "duration": 0.517045885416664
        },
        {
          "name": "G#4",
          "midi": 68,
          "time": 122.18192000000032,
          "velocity": 0.3858267716535433,
          "duration": 0.517045885416664
        },
        {
          "name": "F4",
          "midi": 65,
          "time": 122.72737500000032,
          "velocity": 0.3858267716535433,
          "duration": 0.517045885416664
        },
        {
          "name": "A#4",
          "midi": 70,
          "time": 122.72737500000032,
          "velocity": 0.3858267716535433,
          "duration": 0.517045885416664
        },
        {
          "name": "F4",
          "midi": 65,
          "time": 123.27283000000033,
          "velocity": 0.3858267716535433,
          "duration": 0.517045885416664
        },
        {
          "name": "A#4",
          "midi": 70,
          "time": 123.27283000000033,
          "velocity": 0.3858267716535433,
          "duration": 0.517045885416664
        },
        {
          "name": "F4",
          "midi": 65,
          "time": 123.81828500000033,
          "velocity": 0.3858267716535433,
          "duration": 0.517045885416664
        },
        {
          "name": "A#4",
          "midi": 70,
          "time": 123.81828500000033,
          "velocity": 0.3858267716535433,
          "duration": 0.517045885416664
        },
        {
          "name": "F4",
          "midi": 65,
          "time": 124.36374000000033,
          "velocity": 0.3858267716535433,
          "duration": 0.517045885416664
        },
        {
          "name": "A#4",
          "midi": 70,
          "time": 124.36374000000033,
          "velocity": 0.3858267716535433,
          "duration": 0.517045885416664
        },
        {
          "name": "F4",
          "midi": 65,
          "time": 124.90919500000034,
          "velocity": 0.3858267716535433,
          "duration": 0.517045885416664
        },
        {
          "name": "A#4",
          "midi": 70,
          "time": 124.90919500000034,
          "velocity": 0.3858267716535433,
          "duration": 0.517045885416664
        },
        {
          "name": "F4",
          "midi": 65,
          "time": 125.45465000000034,
          "velocity": 0.3858267716535433,
          "duration": 0.517045885416664
        },
        {
          "name": "A#4",
          "midi": 70,
          "time": 125.45465000000034,
          "velocity": 0.3858267716535433,
          "duration": 0.517045885416664
        },
        {
          "name": "G#4",
          "midi": 68,
          "time": 152.18194500000033,
          "velocity": 0.6299212598425197,
          "duration": 0.5170458854166782
        },
        {
          "name": "G#5",
          "midi": 80,
          "time": 152.18194500000033,
          "velocity": 0.6299212598425197,
          "duration": 0.5170458854166782
        },
        {
          "name": "F5",
          "midi": 77,
          "time": 152.18194500000033,
          "velocity": 0.6299212598425197,
          "duration": 0.5170458854166782
        },
        {
          "name": "A#4",
          "midi": 70,
          "time": 152.72740000000033,
          "velocity": 0.6299212598425197,
          "duration": 1.0352281354166735
        },
        {
          "name": "A#5",
          "midi": 82,
          "time": 152.72740000000033,
          "velocity": 0.6299212598425197,
          "duration": 1.0352281354166735
        },
        {
          "name": "F5",
          "midi": 77,
          "time": 152.72740000000033,
          "velocity": 0.6299212598425197,
          "duration": 0.5170458854166782
        },
        {
          "name": "F5",
          "midi": 77,
          "time": 153.27285500000033,
          "velocity": 0.6299212598425197,
          "duration": 0.5170458854166782
        },
        {
          "name": "A#4",
          "midi": 70,
          "time": 153.81831000000034,
          "velocity": 0.6299212598425197,
          "duration": 0.5170458854166782
        },
        {
          "name": "A#5",
          "midi": 82,
          "time": 153.81831000000034,
          "velocity": 0.6299212598425197,
          "duration": 0.5170458854166782
        },
        {
          "name": "F5",
          "midi": 77,
          "time": 153.81831000000034,
          "velocity": 0.6299212598425197,
          "duration": 0.5170458854166782
        },
        {
          "name": "C5",
          "midi": 72,
          "time": 154.36376500000034,
          "velocity": 0.6299212598425197,
          "duration": 1.0352281354166735
        },
        {
          "name": "C6",
          "midi": 84,
          "time": 154.36376500000034,
          "velocity": 0.6299212598425197,
          "duration": 1.0352281354166735
        },
        {
          "name": "F5",
          "midi": 77,
          "time": 154.36376500000034,
          "velocity": 0.6299212598425197,
          "duration": 0.5170458854166782
        },
        {
          "name": "F5",
          "midi": 77,
          "time": 154.90922000000035,
          "velocity": 0.6299212598425197,
          "duration": 0.5170458854166782
        },
        {
          "name": "A#4",
          "midi": 70,
          "time": 155.45467500000035,
          "velocity": 0.6299212598425197,
          "duration": 1.0352281354166735
        },
        {
          "name": "A#5",
          "midi": 82,
          "time": 155.45467500000035,
          "velocity": 0.6299212598425197,
          "duration": 1.0352281354166735
        },
        {
          "name": "F5",
          "midi": 77,
          "time": 155.45467500000035,
          "velocity": 0.6299212598425197,
          "duration": 0.5170458854166782
        },
        {
          "name": "F5",
          "midi": 77,
          "time": 156.00013000000035,
          "velocity": 0.6299212598425197,
          "duration": 0.5170458854166782
        },
        {
          "name": "A#4",
          "midi": 70,
          "time": 156.54558500000036,
          "velocity": 0.6299212598425197,
          "duration": 0.5170458854166782
        },
        {
          "name": "A#5",
          "midi": 82,
          "time": 156.54558500000036,
          "velocity": 0.6299212598425197,
          "duration": 0.5170458854166782
        },
        {
          "name": "F5",
          "midi": 77,
          "time": 156.54558500000036,
          "velocity": 0.6299212598425197,
          "duration": 0.5170458854166782
        },
        {
          "name": "C#5",
          "midi": 73,
          "time": 157.09104000000036,
          "velocity": 0.6299212598425197,
          "duration": 1.0352281354166735
        },
        {
          "name": "C#6",
          "midi": 85,
          "time": 157.09104000000036,
          "velocity": 0.6299212598425197,
          "duration": 1.0352281354166735
        },
        {
          "name": "F5",
          "midi": 77,
          "time": 157.09104000000036,
          "velocity": 0.6299212598425197,
          "duration": 0.5170458854166782
        },
        {
          "name": "F5",
          "midi": 77,
          "time": 157.63649500000037,
          "velocity": 0.6299212598425197,
          "duration": 0.5170458854166782
        },
        {
          "name": "F4",
          "midi": 65,
          "time": 158.18195000000037,
          "velocity": 0.6299212598425197,
          "duration": 0.5170458854166782
        },
        {
          "name": "F5",
          "midi": 77,
          "time": 158.18195000000037,
          "velocity": 0.6299212598425197,
          "duration": 0.5170458854166782
        },
        {
          "name": "C5",
          "midi": 72,
          "time": 158.18195000000037,
          "velocity": 0.6299212598425197,
          "duration": 0.5170458854166782
        },
        {
          "name": "G#4",
          "midi": 68,
          "time": 158.72740500000037,
          "velocity": 0.6299212598425197,
          "duration": 0.5170458854166782
        },
        {
          "name": "G#5",
          "midi": 80,
          "time": 158.72740500000037,
          "velocity": 0.6299212598425197,
          "duration": 0.5170458854166782
        },
        {
          "name": "F5",
          "midi": 77,
          "time": 158.72740500000037,
          "velocity": 0.6299212598425197,
          "duration": 0.5170458854166782
        },
        {
          "name": "A#4",
          "midi": 70,
          "time": 159.27286000000038,
          "velocity": 0.6299212598425197,
          "duration": 1.0352281354166735
        },
        {
          "name": "A#5",
          "midi": 82,
          "time": 159.27286000000038,
          "velocity": 0.6299212598425197,
          "duration": 1.0352281354166735
        },
        {
          "name": "F5",
          "midi": 77,
          "time": 159.27286000000038,
          "velocity": 0.6299212598425197,
          "duration": 0.5170458854166782
        },
        {
          "name": "F5",
          "midi": 77,
          "time": 159.81831500000038,
          "velocity": 0.6299212598425197,
          "duration": 0.5170458854166782
        },
        {
          "name": "A#4",
          "midi": 70,
          "time": 160.3637700000004,
          "velocity": 0.6299212598425197,
          "duration": 0.5170458854166782
        },
        {
          "name": "A#5",
          "midi": 82,
          "time": 160.3637700000004,
          "velocity": 0.6299212598425197,
          "duration": 0.5170458854166782
        },
        {
          "name": "F5",
          "midi": 77,
          "time": 160.3637700000004,
          "velocity": 0.6299212598425197,
          "duration": 0.5170458854166782
        },
        {
          "name": "C5",
          "midi": 72,
          "time": 160.9092250000004,
          "velocity": 0.6299212598425197,
          "duration": 1.0352281354166735
        },
        {
          "name": "C6",
          "midi": 84,
          "time": 160.9092250000004,
          "velocity": 0.6299212598425197,
          "duration": 1.0352281354166735
        },
        {
          "name": "F5",
          "midi": 77,
          "time": 160.9092250000004,
          "velocity": 0.6299212598425197,
          "duration": 0.5170458854166782
        },
        {
          "name": "F5",
          "midi": 77,
          "time": 161.4546800000004,
          "velocity": 0.6299212598425197,
          "duration": 0.5170458854166782
        },
        {
          "name": "A#4",
          "midi": 70,
          "time": 162.0001350000004,
          "velocity": 0.6299212598425197,
          "duration": 1.0352281354166735
        },
        {
          "name": "A#5",
          "midi": 82,
          "time": 162.0001350000004,
          "velocity": 0.6299212598425197,
          "duration": 1.0352281354166735
        },
        {
          "name": "F5",
          "midi": 77,
          "time": 162.0001350000004,
          "velocity": 0.6299212598425197,
          "duration": 0.5170458854166782
        },
        {
          "name": "F5",
          "midi": 77,
          "time": 162.5455900000004,
          "velocity": 0.6299212598425197,
          "duration": 0.5170458854166782
        },
        {
          "name": "A#4",
          "midi": 70,
          "time": 163.0910450000004,
          "velocity": 0.6299212598425197,
          "duration": 0.5170458854166782
        },
        {
          "name": "A#5",
          "midi": 82,
          "time": 163.0910450000004,
          "velocity": 0.6299212598425197,
          "duration": 0.5170458854166782
        },
        {
          "name": "F5",
          "midi": 77,
          "time": 163.0910450000004,
          "velocity": 0.6299212598425197,
          "duration": 0.5170458854166782
        },
        {
          "name": "C#5",
          "midi": 73,
          "time": 163.6365000000004,
          "velocity": 0.6299212598425197,
          "duration": 1.0352281354166735
        },
        {
          "name": "C#6",
          "midi": 85,
          "time": 163.6365000000004,
          "velocity": 0.6299212598425197,
          "duration": 1.0352281354166735
        },
        {
          "name": "F5",
          "midi": 77,
          "time": 163.6365000000004,
          "velocity": 0.6299212598425197,
          "duration": 0.5170458854166782
        },
        {
          "name": "F5",
          "midi": 77,
          "time": 164.1819550000004,
          "velocity": 0.6299212598425197,
          "duration": 0.5170458854166782
        },
        {
          "name": "F4",
          "midi": 65,
          "time": 164.72741000000042,
          "velocity": 0.6299212598425197,
          "duration": 0.5170458854166782
        },
        {
          "name": "F5",
          "midi": 77,
          "time": 164.72741000000042,
          "velocity": 0.6299212598425197,
          "duration": 0.5170458854166782
        },
        {
          "name": "G#4",
          "midi": 68,
          "time": 164.72741000000042,
          "velocity": 0.6299212598425197,
          "duration": 0.5170458854166782
        },
        {
          "name": "G#4",
          "midi": 68,
          "time": 165.27286500000042,
          "velocity": 0.6299212598425197,
          "duration": 0.5170458854166782
        },
        {
          "name": "G#5",
          "midi": 80,
          "time": 165.27286500000042,
          "velocity": 0.6299212598425197,
          "duration": 0.5170458854166782
        },
        {
          "name": "F5",
          "midi": 77,
          "time": 165.27286500000042,
          "velocity": 0.6299212598425197,
          "duration": 0.5170458854166782
        },
        {
          "name": "A#4",
          "midi": 70,
          "time": 165.81832000000043,
          "velocity": 0.6299212598425197,
          "duration": 1.0352281354166735
        },
        {
          "name": "A#5",
          "midi": 82,
          "time": 165.81832000000043,
          "velocity": 0.6299212598425197,
          "duration": 1.0352281354166735
        },
        {
          "name": "F5",
          "midi": 77,
          "time": 165.81832000000043,
          "velocity": 0.6299212598425197,
          "duration": 0.5170458854166782
        },
        {
          "name": "F5",
          "midi": 77,
          "time": 166.36377500000043,
          "velocity": 0.6299212598425197,
          "duration": 0.5170458854166782
        },
        {
          "name": "A#4",
          "midi": 70,
          "time": 166.90923000000043,
          "velocity": 0.6299212598425197,
          "duration": 0.5170458854166782
        },
        {
          "name": "A#5",
          "midi": 82,
          "time": 166.90923000000043,
          "velocity": 0.6299212598425197,
          "duration": 0.5170458854166782
        },
        {
          "name": "F5",
          "midi": 77,
          "time": 166.90923000000043,
          "velocity": 0.6299212598425197,
          "duration": 0.5170458854166782
        },
        {
          "name": "C5",
          "midi": 72,
          "time": 167.45468500000044,
          "velocity": 0.6299212598425197,
          "duration": 1.0352281354166735
        },
        {
          "name": "C6",
          "midi": 84,
          "time": 167.45468500000044,
          "velocity": 0.6299212598425197,
          "duration": 1.0352281354166735
        },
        {
          "name": "F5",
          "midi": 77,
          "time": 167.45468500000044,
          "velocity": 0.6299212598425197,
          "duration": 0.5170458854166782
        },
        {
          "name": "F5",
          "midi": 77,
          "time": 168.00014000000044,
          "velocity": 0.6299212598425197,
          "duration": 0.5170458854166782
        },
        {
          "name": "C5",
          "midi": 72,
          "time": 168.54559500000045,
          "velocity": 0.6299212598425197,
          "duration": 0.5170458854166782
        },
        {
          "name": "C6",
          "midi": 84,
          "time": 168.54559500000045,
          "velocity": 0.6299212598425197,
          "duration": 0.5170458854166782
        },
        {
          "name": "F5",
          "midi": 77,
          "time": 168.54559500000045,
          "velocity": 0.6299212598425197,
          "duration": 0.5170458854166782
        },
        {
          "name": "C#5",
          "midi": 73,
          "time": 169.09105000000045,
          "velocity": 0.6299212598425197,
          "duration": 1.0352281354166735
        },
        {
          "name": "C#6",
          "midi": 85,
          "time": 169.09105000000045,
          "velocity": 0.6299212598425197,
          "duration": 1.0352281354166735
        },
        {
          "name": "F5",
          "midi": 77,
          "time": 169.09105000000045,
          "velocity": 0.6299212598425197,
          "duration": 0.5170458854166782
        },
        {
          "name": "F5",
          "midi": 77,
          "time": 169.63650500000045,
          "velocity": 0.6299212598425197,
          "duration": 0.5170458854166782
        },
        {
          "name": "C#5",
          "midi": 73,
          "time": 170.18196000000046,
          "velocity": 0.6299212598425197,
          "duration": 0.7761370104166758
        },
        {
          "name": "C#6",
          "midi": 85,
          "time": 170.18196000000046,
          "velocity": 0.6299212598425197,
          "duration": 0.7761370104166758
        },
        {
          "name": "F5",
          "midi": 77,
          "time": 170.18196000000046,
          "velocity": 0.6299212598425197,
          "duration": 0.5170458854166782
        },
        {
          "name": "F5",
          "midi": 77,
          "time": 170.72741500000046,
          "velocity": 0.6299212598425197,
          "duration": 0.5170458854166782
        },
        {
          "name": "A#4",
          "midi": 70,
          "time": 171.00014250000046,
          "velocity": 0.6299212598425197,
          "duration": 0.7761370104166758
        },
        {
          "name": "A#5",
          "midi": 82,
          "time": 171.00014250000046,
          "velocity": 0.6299212598425197,
          "duration": 0.7761370104166758
        },
        {
          "name": "F5",
          "midi": 77,
          "time": 171.27287000000047,
          "velocity": 0.6299212598425197,
          "duration": 0.5170458854166782
        },
        {
          "name": "G#4",
          "midi": 68,
          "time": 171.81832500000047,
          "velocity": 0.6299212598425197,
          "duration": 0.5170458854166782
        },
        {
          "name": "G#5",
          "midi": 80,
          "time": 171.81832500000047,
          "velocity": 0.6299212598425197,
          "duration": 0.5170458854166782
        },
        {
          "name": "F5",
          "midi": 77,
          "time": 171.81832500000047,
          "velocity": 0.6299212598425197,
          "duration": 0.5170458854166782
        },
        {
          "name": "A#4",
          "midi": 70,
          "time": 172.36378000000047,
          "velocity": 0.6299212598425197,
          "duration": 1.0352281354166735
        },
        {
          "name": "A#5",
          "midi": 82,
          "time": 172.36378000000047,
          "velocity": 0.6299212598425197,
          "duration": 1.0352281354166735
        },
        {
          "name": "F5",
          "midi": 77,
          "time": 172.36378000000047,
          "velocity": 0.6299212598425197,
          "duration": 0.5170458854166782
        },
        {
          "name": "F5",
          "midi": 77,
          "time": 172.90923500000048,
          "velocity": 0.6299212598425197,
          "duration": 0.5170458854166782
        },
        {
          "name": "A#4",
          "midi": 70,
          "time": 173.45469000000048,
          "velocity": 0.6299212598425197,
          "duration": 0.5170458854166782
        },
        {
          "name": "A#5",
          "midi": 82,
          "time": 173.45469000000048,
          "velocity": 0.6299212598425197,
          "duration": 0.5170458854166782
        },
        {
          "name": "F5",
          "midi": 77,
          "time": 173.45469000000048,
          "velocity": 0.6299212598425197,
          "duration": 0.5170458854166782
        },
        {
          "name": "C5",
          "midi": 72,
          "time": 174.0001450000005,
          "velocity": 0.6299212598425197,
          "duration": 1.0352281354166735
        },
        {
          "name": "C6",
          "midi": 84,
          "time": 174.0001450000005,
          "velocity": 0.6299212598425197,
          "duration": 1.0352281354166735
        },
        {
          "name": "F5",
          "midi": 77,
          "time": 174.0001450000005,
          "velocity": 0.6299212598425197,
          "duration": 0.5170458854166782
        },
        {
          "name": "F5",
          "midi": 77,
          "time": 174.5456000000005,
          "velocity": 0.6299212598425197,
          "duration": 0.5170458854166782
        },
        {
          "name": "G#4",
          "midi": 68,
          "time": 175.0910550000005,
          "velocity": 0.6299212598425197,
          "duration": 0.5170458854166782
        },
        {
          "name": "G#5",
          "midi": 80,
          "time": 175.0910550000005,
          "velocity": 0.6299212598425197,
          "duration": 0.5170458854166782
        },
        {
          "name": "F5",
          "midi": 77,
          "time": 175.0910550000005,
          "velocity": 0.6299212598425197,
          "duration": 0.5170458854166782
        },
        {
          "name": "C5",
          "midi": 72,
          "time": 175.6365100000005,
          "velocity": 0.6299212598425197,
          "duration": 1.0352281354166735
        },
        {
          "name": "C6",
          "midi": 84,
          "time": 175.6365100000005,
          "velocity": 0.6299212598425197,
          "duration": 1.0352281354166735
        },
        {
          "name": "F5",
          "midi": 77,
          "time": 175.6365100000005,
          "velocity": 0.6299212598425197,
          "duration": 0.5170458854166782
        },
        {
          "name": "F5",
          "midi": 77,
          "time": 176.1819650000005,
          "velocity": 0.6299212598425197,
          "duration": 0.5170458854166782
        },
        {
          "name": "D#4",
          "midi": 63,
          "time": 176.7274200000005,
          "velocity": 0.6299212598425197,
          "duration": 0
        },
        {
          "name": "D#5",
          "midi": 75,
          "time": 176.7274200000005,
          "velocity": 0.6299212598425197,
          "duration": 0.5170458854166782
        },
        {
          "name": "G#4",
          "midi": 68,
          "time": 176.7274200000005,
          "velocity": 0.6299212598425197,
          "duration": 0.5170458854166782
        },
        {
          "name": "G#4",
          "midi": 68,
          "time": 177.2728750000005,
          "velocity": 0.6299212598425197,
          "duration": 0.545455000000004
        },
        {
          "name": "G#5",
          "midi": 80,
          "time": 177.2728750000005,
          "velocity": 0.6299212598425197,
          "duration": 1.0352281354166735
        },
        {
          "name": "G#4",
          "midi": 68,
          "time": 177.81833000000051,
          "velocity": 0.6299212598425197,
          "duration": 0.5170458854166782
        },
        {
          "name": "C#2",
          "midi": 37,
          "time": 178.36378500000052,
          "velocity": 0.6299212598425197,
          "duration": 0.5170458854166782
        },
        {
          "name": "C#3",
          "midi": 49,
          "time": 178.36378500000052,
          "velocity": 0.6299212598425197,
          "duration": 0.5170458854166782
        },
        {
          "name": "F#2",
          "midi": 42,
          "time": 178.90924000000052,
          "velocity": 0.6299212598425197,
          "duration": 0.5170458854166782
        },
        {
          "name": "F#3",
          "midi": 54,
          "time": 178.90924000000052,
          "velocity": 0.6299212598425197,
          "duration": 0.5170458854166782
        },
        {
          "name": "F#2",
          "midi": 42,
          "time": 179.45469500000053,
          "velocity": 0.6299212598425197,
          "duration": 0.5170458854166782
        },
        {
          "name": "F#3",
          "midi": 54,
          "time": 179.45469500000053,
          "velocity": 0.6299212598425197,
          "duration": 0.5170458854166782
        },
        {
          "name": "F2",
          "midi": 41,
          "time": 180.00015000000053,
          "velocity": 0.6299212598425197,
          "duration": 0.5170458854166782
        },
        {
          "name": "F3",
          "midi": 53,
          "time": 180.00015000000053,
          "velocity": 0.6299212598425197,
          "duration": 7.062505885416726
        },
        {
          "name": "A#2",
          "midi": 46,
          "time": 180.54560500000053,
          "velocity": 0.6299212598425197,
          "duration": 0.5170458854166782
        },
        {
          "name": "A#3",
          "midi": 58,
          "time": 180.54560500000053,
          "velocity": 0.6299212598425197,
          "duration": 0.5170458854166782
        },
        {
          "name": "A#2",
          "midi": 46,
          "time": 181.09106000000054,
          "velocity": 0.6299212598425197,
          "duration": 0.5170458854166782
        },
        {
          "name": "A#3",
          "midi": 58,
          "time": 181.09106000000054,
          "velocity": 0.6299212598425197,
          "duration": 0.5170458854166782
        },
        {
          "name": "D#2",
          "midi": 39,
          "time": 181.63651500000054,
          "velocity": 0.6299212598425197,
          "duration": 0.5170458854166782
        },
        {
          "name": "D#3",
          "midi": 51,
          "time": 181.63651500000054,
          "velocity": 0.6299212598425197,
          "duration": 7.60796088541673
        },
        {
          "name": "G#2",
          "midi": 44,
          "time": 182.18197000000055,
          "velocity": 0.6299212598425197,
          "duration": 0.5170458854166782
        },
        {
          "name": "G#3",
          "midi": 56,
          "time": 182.18197000000055,
          "velocity": 0.6299212598425197,
          "duration": 1.0625008854166822
        },
        {
          "name": "G#2",
          "midi": 44,
          "time": 182.72742500000055,
          "velocity": 0.6299212598425197,
          "duration": 0.5170458854166782
        },
        {
          "name": "G#3",
          "midi": 56,
          "time": 182.72742500000055,
          "velocity": 0.6299212598425197,
          "duration": 1.6079558854166862
        },
        {
          "name": "C2",
          "midi": 36,
          "time": 183.27288000000055,
          "velocity": 0.6299212598425197,
          "duration": 0.5170458854166782
        },
        {
          "name": "C3",
          "midi": 48,
          "time": 183.27288000000055,
          "velocity": 0.6299212598425197,
          "duration": 0.5170458854166782
        },
        {
          "name": "G#2",
          "midi": 44,
          "time": 183.81833500000056,
          "velocity": 0.6299212598425197,
          "duration": 0.5170458854166782
        },
        {
          "name": "G#3",
          "midi": 56,
          "time": 183.81833500000056,
          "velocity": 0.6299212598425197,
          "duration": 1.0625008854166822
        },
        {
          "name": "G#2",
          "midi": 44,
          "time": 184.36379000000056,
          "velocity": 0.6299212598425197,
          "duration": 0.5170458854166782
        },
        {
          "name": "G#3",
          "midi": 56,
          "time": 184.36379000000056,
          "velocity": 0.6299212598425197,
          "duration": 0
        },
        {
          "name": "C#2",
          "midi": 37,
          "time": 184.90924500000057,
          "velocity": 0.6299212598425197,
          "duration": 0.5170458854166782
        },
        {
          "name": "C#3",
          "midi": 49,
          "time": 184.90924500000057,
          "velocity": 0.6299212598425197,
          "duration": 0.5170458854166782
        },
        {
          "name": "F#2",
          "midi": 42,
          "time": 185.45470000000057,
          "velocity": 0.6299212598425197,
          "duration": 0.5170458854166782
        },
        {
          "name": "F#3",
          "midi": 54,
          "time": 185.45470000000057,
          "velocity": 0.6299212598425197,
          "duration": 0.5170458854166782
        },
        {
          "name": "F#2",
          "midi": 42,
          "time": 186.00015500000058,
          "velocity": 0.6299212598425197,
          "duration": 0.5170458854166782
        },
        {
          "name": "F#3",
          "midi": 54,
          "time": 186.00015500000058,
          "velocity": 0.6299212598425197,
          "duration": 0.5170458854166782
        },
        {
          "name": "F2",
          "midi": 41,
          "time": 186.54561000000058,
          "velocity": 0.6299212598425197,
          "duration": 0.5170458854166782
        },
        {
          "name": "F3",
          "midi": 53,
          "time": 186.54561000000058,
          "velocity": 0.6299212598425197,
          "duration": 0
        },
        {
          "name": "A#2",
          "midi": 46,
          "time": 187.09106500000058,
          "velocity": 0.6299212598425197,
          "duration": 0.5170458854166782
        },
        {
          "name": "A#3",
          "midi": 58,
          "time": 187.09106500000058,
          "velocity": 0.6299212598425197,
          "duration": 0.5170458854166782
        },
        {
          "name": "A#2",
          "midi": 46,
          "time": 187.6365200000006,
          "velocity": 0.6299212598425197,
          "duration": 0.5170458854166782
        },
        {
          "name": "A#3",
          "midi": 58,
          "time": 187.6365200000006,
          "velocity": 0.6299212598425197,
          "duration": 0.5170458854166782
        },
        {
          "name": "G#1",
          "midi": 32,
          "time": 188.1819750000006,
          "velocity": 0.6299212598425197,
          "duration": 0.5170458854166782
        },
        {
          "name": "G#2",
          "midi": 44,
          "time": 188.1819750000006,
          "velocity": 0.6299212598425197,
          "duration": 0.5170458854166782
        },
        {
          "name": "D#2",
          "midi": 39,
          "time": 188.7274300000006,
          "velocity": 0.6299212598425197,
          "duration": 0.5170458854166782
        },
        {
          "name": "D#3",
          "midi": 51,
          "time": 188.7274300000006,
          "velocity": 0.6299212598425197,
          "duration": 1.0625008854166822
        },
        {
          "name": "D#2",
          "midi": 39,
          "time": 189.2728850000006,
          "velocity": 0.6299212598425197,
          "duration": 0.5170458854166782
        },
        {
          "name": "D#3",
          "midi": 51,
          "time": 189.2728850000006,
          "velocity": 0.6299212598425197,
          "duration": 0
        },
        {
          "name": "A#4",
          "midi": 70,
          "time": 191.45470500000062,
          "velocity": 0.6299212598425197,
          "duration": 0.5170458854166782
        },
        {
          "name": "A#5",
          "midi": 82,
          "time": 191.45470500000062,
          "velocity": 0.6299212598425197,
          "duration": 0.5170458854166782
        },
        {
          "name": "F5",
          "midi": 77,
          "time": 191.45470500000062,
          "velocity": 0.6299212598425197,
          "duration": 0.5170458854166782
        },
        {
          "name": "A#4",
          "midi": 70,
          "time": 192.00016000000062,
          "velocity": 0.6299212598425197,
          "duration": 1.0352281354166735
        },
        {
          "name": "A#5",
          "midi": 82,
          "time": 192.00016000000062,
          "velocity": 0.6299212598425197,
          "duration": 1.0352281354166735
        },
        {
          "name": "F5",
          "midi": 77,
          "time": 192.00016000000062,
          "velocity": 0.6299212598425197,
          "duration": 0.5170458854166782
        },
        {
          "name": "F5",
          "midi": 77,
          "time": 192.54561500000062,
          "velocity": 0.6299212598425197,
          "duration": 0.5170458854166782
        },
        {
          "name": "A#4",
          "midi": 70,
          "time": 193.09107000000063,
          "velocity": 0.6299212598425197,
          "duration": 0.5170458854166782
        },
        {
          "name": "A#5",
          "midi": 82,
          "time": 193.09107000000063,
          "velocity": 0.6299212598425197,
          "duration": 0.5170458854166782
        },
        {
          "name": "F5",
          "midi": 77,
          "time": 193.09107000000063,
          "velocity": 0.6299212598425197,
          "duration": 0.5170458854166782
        },
        {
          "name": "C5",
          "midi": 72,
          "time": 193.63652500000063,
          "velocity": 0.6299212598425197,
          "duration": 1.0352281354166735
        },
        {
          "name": "C6",
          "midi": 84,
          "time": 193.63652500000063,
          "velocity": 0.6299212598425197,
          "duration": 1.0352281354166735
        },
        {
          "name": "F5",
          "midi": 77,
          "time": 193.63652500000063,
          "velocity": 0.6299212598425197,
          "duration": 0.5170458854166782
        },
        {
          "name": "F5",
          "midi": 77,
          "time": 194.18198000000064,
          "velocity": 0.6299212598425197,
          "duration": 0.5170458854166782
        },
        {
          "name": "C5",
          "midi": 72,
          "time": 194.72743500000064,
          "velocity": 0.6299212598425197,
          "duration": 0.5170458854166782
        },
        {
          "name": "C6",
          "midi": 84,
          "time": 194.72743500000064,
          "velocity": 0.6299212598425197,
          "duration": 0.5170458854166782
        },
        {
          "name": "F5",
          "midi": 77,
          "time": 194.72743500000064,
          "velocity": 0.6299212598425197,
          "duration": 0.5170458854166782
        },
        {
          "name": "C#5",
          "midi": 73,
          "time": 195.27289000000064,
          "velocity": 0.6299212598425197,
          "duration": 1.0352281354166735
        },
        {
          "name": "C#6",
          "midi": 85,
          "time": 195.27289000000064,
          "velocity": 0.6299212598425197,
          "duration": 1.0352281354166735
        },
        {
          "name": "F5",
          "midi": 77,
          "time": 195.27289000000064,
          "velocity": 0.6299212598425197,
          "duration": 0.5170458854166782
        },
        {
          "name": "F5",
          "midi": 77,
          "time": 195.81834500000065,
          "velocity": 0.6299212598425197,
          "duration": 0.5170458854166782
        },
        {
          "name": "C#5",
          "midi": 73,
          "time": 196.36380000000065,
          "velocity": 0.6299212598425197,
          "duration": 0.7761370104166758
        },
        {
          "name": "C#6",
          "midi": 85,
          "time": 196.36380000000065,
          "velocity": 0.6299212598425197,
          "duration": 0.7761370104166758
        },
        {
          "name": "F5",
          "midi": 77,
          "time": 196.36380000000065,
          "velocity": 0.6299212598425197,
          "duration": 0.5170458854166782
        },
        {
          "name": "F5",
          "midi": 77,
          "time": 196.90925500000066,
          "velocity": 0.6299212598425197,
          "duration": 0.5170458854166782
        },
        {
          "name": "A#4",
          "midi": 70,
          "time": 197.18198250000066,
          "velocity": 0.6299212598425197,
          "duration": 0.7761370104166758
        },
        {
          "name": "A#5",
          "midi": 82,
          "time": 197.18198250000066,
          "velocity": 0.6299212598425197,
          "duration": 0.7761370104166758
        },
        {
          "name": "F5",
          "midi": 77,
          "time": 197.45471000000066,
          "velocity": 0.6299212598425197,
          "duration": 0.5170458854166782
        },
        {
          "name": "G#4",
          "midi": 68,
          "time": 198.00016500000066,
          "velocity": 0.6299212598425197,
          "duration": 0.5170458854166782
        },
        {
          "name": "G#5",
          "midi": 80,
          "time": 198.00016500000066,
          "velocity": 0.6299212598425197,
          "duration": 0.5170458854166782
        },
        {
          "name": "F5",
          "midi": 77,
          "time": 198.00016500000066,
          "velocity": 0.6299212598425197,
          "duration": 0.5170458854166782
        },
        {
          "name": "A#4",
          "midi": 70,
          "time": 198.54562000000067,
          "velocity": 0.6299212598425197,
          "duration": 1.0352281354166735
        },
        {
          "name": "A#5",
          "midi": 82,
          "time": 198.54562000000067,
          "velocity": 0.6299212598425197,
          "duration": 1.0352281354166735
        },
        {
          "name": "F5",
          "midi": 77,
          "time": 198.54562000000067,
          "velocity": 0.6299212598425197,
          "duration": 0.5170458854166782
        },
        {
          "name": "F5",
          "midi": 77,
          "time": 199.09107500000067,
          "velocity": 0.6299212598425197,
          "duration": 0.5170458854166782
        },
        {
          "name": "A#4",
          "midi": 70,
          "time": 199.63653000000068,
          "velocity": 0.6299212598425197,
          "duration": 0.5170458854166782
        },
        {
          "name": "A#5",
          "midi": 82,
          "time": 199.63653000000068,
          "velocity": 0.6299212598425197,
          "duration": 0.5170458854166782
        },
        {
          "name": "F5",
          "midi": 77,
          "time": 199.63653000000068,
          "velocity": 0.6299212598425197,
          "duration": 0.5170458854166782
        },
        {
          "name": "C5",
          "midi": 72,
          "time": 200.18198500000068,
          "velocity": 0.6299212598425197,
          "duration": 1.0352281354166735
        },
        {
          "name": "C6",
          "midi": 84,
          "time": 200.18198500000068,
          "velocity": 0.6299212598425197,
          "duration": 1.0352281354166735
        },
        {
          "name": "F5",
          "midi": 77,
          "time": 200.18198500000068,
          "velocity": 0.6299212598425197,
          "duration": 0.5170458854166782
        },
        {
          "name": "F5",
          "midi": 77,
          "time": 200.72744000000068,
          "velocity": 0.6299212598425197,
          "duration": 0.5170458854166782
        },
        {
          "name": "C5",
          "midi": 72,
          "time": 201.2728950000007,
          "velocity": 0.6299212598425197,
          "duration": 0.5170458854166782
        },
        {
          "name": "C6",
          "midi": 84,
          "time": 201.2728950000007,
          "velocity": 0.6299212598425197,
          "duration": 0.5170458854166782
        },
        {
          "name": "F5",
          "midi": 77,
          "time": 201.2728950000007,
          "velocity": 0.6299212598425197,
          "duration": 0.5170458854166782
        },
        {
          "name": "F6",
          "midi": 89,
          "time": 201.8183500000007,
          "velocity": 0.6299212598425197,
          "duration": 1.0352281354166735
        },
        {
          "name": "F5",
          "midi": 77,
          "time": 201.8183500000007,
          "velocity": 0.6299212598425197,
          "duration": 0.5170458854166782
        },
        {
          "name": "F5",
          "midi": 77,
          "time": 202.3638050000007,
          "velocity": 0.6299212598425197,
          "duration": 0.5170458854166782
        },
        {
          "name": "C5",
          "midi": 72,
          "time": 202.9092600000007,
          "velocity": 0.6299212598425197,
          "duration": 1.5534103854166688
        },
        {
          "name": "G#5",
          "midi": 80,
          "time": 202.9092600000007,
          "velocity": 0.6299212598425197,
          "duration": 1.5534103854166688
        }
      ],
      "controlChanges": {
        "7": [
          {
            "number": 7,
            "time": 0,
            "value": 0.7874015748031497
          }
        ],
        "10": [
          {
            "number": 10,
            "time": 0,
            "value": 0.5039370078740157
          }
        ],
        "91": [
          {
            "number": 91,
            "time": 0,
            "value": 0
          }
        ],
        "93": [
          {
            "number": 93,
            "time": 0,
            "value": 0
          }
        ],
        "121": [
          {
            "number": 121,
            "time": 0,
            "value": 0
          }
        ]
      },
      "id": 2,
      "name": "Piano",
      "instrumentNumber": 0,
      "instrument": "acoustic grand piano",
      "instrumentFamily": "piano",
      "channelNumber": 6,
      "isPercussion": false
    },
    {
      "startTime": 3.27273,
      "duration": 204.46267038541745,
      "length": 542,
      "notes": [
        {
          "name": "F2",
          "midi": 41,
          "time": 3.27273,
          "velocity": 0.25984251968503935,
          "duration": 1.553410385416667
        },
        {
          "name": "F3",
          "midi": 53,
          "time": 3.27273,
          "velocity": 0.25984251968503935,
          "duration": 0.545455
        },
        {
          "name": "D#2",
          "midi": 39,
          "time": 4.909095000000001,
          "velocity": 0.25984251968503935,
          "duration": 1.553410385416667
        },
        {
          "name": "D#3",
          "midi": 51,
          "time": 4.909095000000001,
          "velocity": 0.25984251968503935,
          "duration": 1.553410385416667
        },
        {
          "name": "D2",
          "midi": 38,
          "time": 6.545460000000001,
          "velocity": 0.25984251968503935,
          "duration": 3.107957135416666
        },
        {
          "name": "D3",
          "midi": 50,
          "time": 6.545460000000001,
          "velocity": 0.25984251968503935,
          "duration": 3.107957135416666
        },
        {
          "name": "F2",
          "midi": 41,
          "time": 9.818190000000001,
          "velocity": 0.25984251968503935,
          "duration": 1.553410385416667
        },
        {
          "name": "F3",
          "midi": 53,
          "time": 9.818190000000001,
          "velocity": 0.25984251968503935,
          "duration": 0.5454550000000005
        },
        {
          "name": "D#2",
          "midi": 39,
          "time": 11.454555000000001,
          "velocity": 0.25984251968503935,
          "duration": 1.553410385416667
        },
        {
          "name": "D#3",
          "midi": 51,
          "time": 11.454555000000001,
          "velocity": 0.25984251968503935,
          "duration": 1.553410385416667
        },
        {
          "name": "D2",
          "midi": 38,
          "time": 13.09092,
          "velocity": 0.25984251968503935,
          "duration": 3.1079571354166653
        },
        {
          "name": "D3",
          "midi": 50,
          "time": 13.09092,
          "velocity": 0.25984251968503935,
          "duration": 3.1079571354166653
        },
        {
          "name": "F2",
          "midi": 41,
          "time": 16.36365,
          "velocity": 0.25984251968503935,
          "duration": 1.5534103854166688
        },
        {
          "name": "F3",
          "midi": 53,
          "time": 16.36365,
          "velocity": 0.25984251968503935,
          "duration": 0.5454550000000005
        },
        {
          "name": "D#2",
          "midi": 39,
          "time": 18.000015,
          "velocity": 0.25984251968503935,
          "duration": 1.5534103854166652
        },
        {
          "name": "D#3",
          "midi": 51,
          "time": 18.000015,
          "velocity": 0.25984251968503935,
          "duration": 1.5534103854166652
        },
        {
          "name": "D2",
          "midi": 38,
          "time": 19.63638,
          "velocity": 0.25984251968503935,
          "duration": 3.1079571354166653
        },
        {
          "name": "D3",
          "midi": 50,
          "time": 19.63638,
          "velocity": 0.25984251968503935,
          "duration": 3.1079571354166653
        },
        {
          "name": "F2",
          "midi": 41,
          "time": 22.90911,
          "velocity": 0.25984251968503935,
          "duration": 1.5534103854166688
        },
        {
          "name": "F3",
          "midi": 53,
          "time": 22.90911,
          "velocity": 0.25984251968503935,
          "duration": 0.5454550000000005
        },
        {
          "name": "D#2",
          "midi": 39,
          "time": 24.545475,
          "velocity": 0.25984251968503935,
          "duration": 1.5534103854166652
        },
        {
          "name": "D#3",
          "midi": 51,
          "time": 24.545475,
          "velocity": 0.25984251968503935,
          "duration": 1.5534103854166652
        },
        {
          "name": "D2",
          "midi": 38,
          "time": 26.181839999999998,
          "velocity": 0.25984251968503935,
          "duration": 1.5534103854166652
        },
        {
          "name": "D3",
          "midi": 50,
          "time": 26.181839999999998,
          "velocity": 0.25984251968503935,
          "duration": 1.5534103854166652
        },
        {
          "name": "C#2",
          "midi": 37,
          "time": 27.818204999999995,
          "velocity": 0.25984251968503935,
          "duration": 1.5534103854166652
        },
        {
          "name": "C#3",
          "midi": 49,
          "time": 27.818204999999995,
          "velocity": 0.25984251968503935,
          "duration": 1.5534103854166652
        },
        {
          "name": "C#2",
          "midi": 37,
          "time": 29.454569999999993,
          "velocity": 0.25984251968503935,
          "duration": 1.5534103854166652
        },
        {
          "name": "C#3",
          "midi": 49,
          "time": 29.454569999999993,
          "velocity": 0.25984251968503935,
          "duration": 1.5534103854166652
        },
        {
          "name": "A#1",
          "midi": 34,
          "time": 31.09093499999999,
          "velocity": 0.25984251968503935,
          "duration": 1.5534103854166652
        },
        {
          "name": "A#2",
          "midi": 46,
          "time": 31.09093499999999,
          "velocity": 0.25984251968503935,
          "duration": 1.5534103854166652
        },
        {
          "name": "C2",
          "midi": 36,
          "time": 32.72729999999999,
          "velocity": 0.25984251968503935,
          "duration": 3.107957135416669
        },
        {
          "name": "C3",
          "midi": 48,
          "time": 32.72729999999999,
          "velocity": 0.25984251968503935,
          "duration": 3.107957135416669
        },
        {
          "name": "C#2",
          "midi": 37,
          "time": 36.000029999999995,
          "velocity": 0.3858267716535433,
          "duration": 1.5534103854166688
        },
        {
          "name": "C#3",
          "midi": 49,
          "time": 36.000029999999995,
          "velocity": 0.3858267716535433,
          "duration": 1.5534103854166688
        },
        {
          "name": "F2",
          "midi": 41,
          "time": 37.636395,
          "velocity": 0.3858267716535433,
          "duration": 1.5534103854166617
        },
        {
          "name": "F3",
          "midi": 53,
          "time": 37.636395,
          "velocity": 0.3858267716535433,
          "duration": 0.5454549999999969
        },
        {
          "name": "D#2",
          "midi": 39,
          "time": 39.27276,
          "velocity": 0.3858267716535433,
          "duration": 3.1079571354166617
        },
        {
          "name": "D#3",
          "midi": 51,
          "time": 39.27276,
          "velocity": 0.3858267716535433,
          "duration": 0.5454549999999969
        },
        {
          "name": "C#2",
          "midi": 37,
          "time": 42.545489999999994,
          "velocity": 0.3858267716535433,
          "duration": 1.5534103854166688
        },
        {
          "name": "C#3",
          "midi": 49,
          "time": 42.545489999999994,
          "velocity": 0.3858267716535433,
          "duration": 1.5534103854166688
        },
        {
          "name": "F2",
          "midi": 41,
          "time": 44.181855,
          "velocity": 0.3858267716535433,
          "duration": 1.5534103854166617
        },
        {
          "name": "F3",
          "midi": 53,
          "time": 44.181855,
          "velocity": 0.3858267716535433,
          "duration": 0.5454549999999969
        },
        {
          "name": "D#2",
          "midi": 39,
          "time": 45.81822,
          "velocity": 0.3858267716535433,
          "duration": 1.5534103854166617
        },
        {
          "name": "D#3",
          "midi": 51,
          "time": 45.81822,
          "velocity": 0.3858267716535433,
          "duration": 0.5454549999999969
        },
        {
          "name": "G#2",
          "midi": 44,
          "time": 47.454584999999994,
          "velocity": 0.3858267716535433,
          "duration": 0.7761370104166687
        },
        {
          "name": "C3",
          "midi": 48,
          "time": 47.454584999999994,
          "velocity": 0.3858267716535433,
          "duration": 0.7761370104166687
        },
        {
          "name": "G#3",
          "midi": 56,
          "time": 47.454584999999994,
          "velocity": 0.3858267716535433,
          "duration": 0.7761370104166687
        },
        {
          "name": "E2",
          "midi": 40,
          "time": 48.27276749999999,
          "velocity": 0.3858267716535433,
          "duration": 0.7761370104166687
        },
        {
          "name": "G2",
          "midi": 43,
          "time": 48.27276749999999,
          "velocity": 0.3858267716535433,
          "duration": 0.7761370104166687
        },
        {
          "name": "C3",
          "midi": 48,
          "time": 48.27276749999999,
          "velocity": 0.3858267716535433,
          "duration": 0.7761370104166687
        },
        {
          "name": "E3",
          "midi": 52,
          "time": 48.27276749999999,
          "velocity": 0.3858267716535433,
          "duration": 0.7761370104166687
        },
        {
          "name": "C#2",
          "midi": 37,
          "time": 49.09094999999999,
          "velocity": 0.3858267716535433,
          "duration": 1.5534103854166688
        },
        {
          "name": "G#2",
          "midi": 44,
          "time": 49.09094999999999,
          "velocity": 0.3858267716535433,
          "duration": 1.5534103854166688
        },
        {
          "name": "C#3",
          "midi": 49,
          "time": 49.09094999999999,
          "velocity": 0.3858267716535433,
          "duration": 1.5534103854166688
        },
        {
          "name": "F2",
          "midi": 41,
          "time": 50.727315,
          "velocity": 0.3858267716535433,
          "duration": 1.5534103854166688
        },
        {
          "name": "C3",
          "midi": 48,
          "time": 50.727315,
          "velocity": 0.3858267716535433,
          "duration": 1.5534103854166688
        },
        {
          "name": "F3",
          "midi": 53,
          "time": 50.727315,
          "velocity": 0.3858267716535433,
          "duration": 1.5534103854166688
        },
        {
          "name": "D#2",
          "midi": 39,
          "time": 52.36368,
          "velocity": 0.3858267716535433,
          "duration": 3.107957135416669
        },
        {
          "name": "A#2",
          "midi": 46,
          "time": 52.36368,
          "velocity": 0.3858267716535433,
          "duration": 3.107957135416669
        },
        {
          "name": "D#3",
          "midi": 51,
          "time": 52.36368,
          "velocity": 0.3858267716535433,
          "duration": 3.107957135416669
        },
        {
          "name": "C#2",
          "midi": 37,
          "time": 55.636410000000005,
          "velocity": 0.3858267716535433,
          "duration": 1.5534103854166688
        },
        {
          "name": "G#2",
          "midi": 44,
          "time": 55.636410000000005,
          "velocity": 0.3858267716535433,
          "duration": 1.5534103854166688
        },
        {
          "name": "C#3",
          "midi": 49,
          "time": 55.636410000000005,
          "velocity": 0.3858267716535433,
          "duration": 1.5534103854166688
        },
        {
          "name": "F2",
          "midi": 41,
          "time": 57.27277500000001,
          "velocity": 0.3858267716535433,
          "duration": 1.5534103854166688
        },
        {
          "name": "C3",
          "midi": 48,
          "time": 57.27277500000001,
          "velocity": 0.3858267716535433,
          "duration": 1.5534103854166688
        },
        {
          "name": "F3",
          "midi": 53,
          "time": 57.27277500000001,
          "velocity": 0.3858267716535433,
          "duration": 1.5534103854166688
        },
        {
          "name": "G#2",
          "midi": 44,
          "time": 58.909140000000015,
          "velocity": 0.3858267716535433,
          "duration": 1.5534103854166688
        },
        {
          "name": "D#3",
          "midi": 51,
          "time": 58.909140000000015,
          "velocity": 0.3858267716535433,
          "duration": 1.5534103854166688
        },
        {
          "name": "G#3",
          "midi": 56,
          "time": 58.909140000000015,
          "velocity": 0.3858267716535433,
          "duration": 1.5534103854166688
        },
        {
          "name": "D#2",
          "midi": 39,
          "time": 60.54550500000002,
          "velocity": 0.3858267716535433,
          "duration": 1.5534103854166688
        },
        {
          "name": "A#2",
          "midi": 46,
          "time": 60.54550500000002,
          "velocity": 0.3858267716535433,
          "duration": 1.5534103854166688
        },
        {
          "name": "D#3",
          "midi": 51,
          "time": 60.54550500000002,
          "velocity": 0.3858267716535433,
          "duration": 1.5534103854166688
        },
        {
          "name": "F2",
          "midi": 41,
          "time": 63.81823500000002,
          "velocity": 0.3858267716535433,
          "duration": 0.5170458854166711
        },
        {
          "name": "F3",
          "midi": 53,
          "time": 63.81823500000002,
          "velocity": 0.3858267716535433,
          "duration": 0.5170458854166711
        },
        {
          "name": "F3",
          "midi": 53,
          "time": 64.36369000000003,
          "velocity": 0.3858267716535433,
          "duration": 0.517045885416664
        },
        {
          "name": "C4",
          "midi": 60,
          "time": 64.36369000000003,
          "velocity": 0.3858267716535433,
          "duration": 0.517045885416664
        },
        {
          "name": "C3",
          "midi": 48,
          "time": 64.63641750000004,
          "velocity": 0.3858267716535433,
          "duration": 0.7761370104166616
        },
        {
          "name": "F3",
          "midi": 53,
          "time": 64.90914500000004,
          "velocity": 0.3858267716535433,
          "duration": 0.517045885416664
        },
        {
          "name": "C4",
          "midi": 60,
          "time": 64.90914500000004,
          "velocity": 0.3858267716535433,
          "duration": 0.517045885416664
        },
        {
          "name": "F2",
          "midi": 41,
          "time": 65.45460000000004,
          "velocity": 0.3858267716535433,
          "duration": 0.517045885416664
        },
        {
          "name": "F3",
          "midi": 53,
          "time": 65.45460000000004,
          "velocity": 0.3858267716535433,
          "duration": 0.517045885416664
        },
        {
          "name": "F3",
          "midi": 53,
          "time": 66.00005500000005,
          "velocity": 0.3858267716535433,
          "duration": 0.517045885416664
        },
        {
          "name": "C4",
          "midi": 60,
          "time": 66.00005500000005,
          "velocity": 0.3858267716535433,
          "duration": 0.517045885416664
        },
        {
          "name": "C3",
          "midi": 48,
          "time": 66.27278250000005,
          "velocity": 0.3858267716535433,
          "duration": 0.7761370104166616
        },
        {
          "name": "F3",
          "midi": 53,
          "time": 66.54551000000005,
          "velocity": 0.3858267716535433,
          "duration": 0.517045885416664
        },
        {
          "name": "C4",
          "midi": 60,
          "time": 66.54551000000005,
          "velocity": 0.3858267716535433,
          "duration": 0.517045885416664
        },
        {
          "name": "D#2",
          "midi": 39,
          "time": 67.09096500000005,
          "velocity": 0.3858267716535433,
          "duration": 0.517045885416664
        },
        {
          "name": "D#3",
          "midi": 51,
          "time": 67.09096500000005,
          "velocity": 0.3858267716535433,
          "duration": 0.517045885416664
        },
        {
          "name": "D#3",
          "midi": 51,
          "time": 67.63642000000006,
          "velocity": 0.3858267716535433,
          "duration": 0.517045885416664
        },
        {
          "name": "A#3",
          "midi": 58,
          "time": 67.63642000000006,
          "velocity": 0.3858267716535433,
          "duration": 0.517045885416664
        },
        {
          "name": "A#2",
          "midi": 46,
          "time": 67.90914750000006,
          "velocity": 0.3858267716535433,
          "duration": 0.7761370104166616
        },
        {
          "name": "D#3",
          "midi": 51,
          "time": 68.18187500000006,
          "velocity": 0.3858267716535433,
          "duration": 0.517045885416664
        },
        {
          "name": "A#3",
          "midi": 58,
          "time": 68.18187500000006,
          "velocity": 0.3858267716535433,
          "duration": 0.517045885416664
        },
        {
          "name": "D#2",
          "midi": 39,
          "time": 68.72733000000007,
          "velocity": 0.3858267716535433,
          "duration": 0.517045885416664
        },
        {
          "name": "D#3",
          "midi": 51,
          "time": 68.72733000000007,
          "velocity": 0.3858267716535433,
          "duration": 0.517045885416664
        },
        {
          "name": "D#3",
          "midi": 51,
          "time": 69.27278500000007,
          "velocity": 0.3858267716535433,
          "duration": 0.517045885416664
        },
        {
          "name": "A#3",
          "midi": 58,
          "time": 69.27278500000007,
          "velocity": 0.3858267716535433,
          "duration": 0.517045885416664
        },
        {
          "name": "A#2",
          "midi": 46,
          "time": 69.54551250000007,
          "velocity": 0.3858267716535433,
          "duration": 0.7761370104166616
        },
        {
          "name": "D#3",
          "midi": 51,
          "time": 69.81824000000007,
          "velocity": 0.3858267716535433,
          "duration": 0.517045885416664
        },
        {
          "name": "A#3",
          "midi": 58,
          "time": 69.81824000000007,
          "velocity": 0.3858267716535433,
          "duration": 0.517045885416664
        },
        {
          "name": "F2",
          "midi": 41,
          "time": 70.36369500000008,
          "velocity": 0.3858267716535433,
          "duration": 1.0352281354166593
        },
        {
          "name": "F3",
          "midi": 53,
          "time": 70.36369500000008,
          "velocity": 0.3858267716535433,
          "duration": 0.5454549999999898
        },
        {
          "name": "C3",
          "midi": 48,
          "time": 71.18187750000007,
          "velocity": 0.3858267716535433,
          "duration": 0.7761370104166616
        },
        {
          "name": "G#2",
          "midi": 44,
          "time": 72.00006000000006,
          "velocity": 0.3858267716535433,
          "duration": 0.517045885416664
        },
        {
          "name": "G#3",
          "midi": 56,
          "time": 72.00006000000006,
          "velocity": 0.3858267716535433,
          "duration": 0.517045885416664
        },
        {
          "name": "F3",
          "midi": 53,
          "time": 72.54551500000007,
          "velocity": 0.3858267716535433,
          "duration": 0.517045885416664
        },
        {
          "name": "C4",
          "midi": 60,
          "time": 72.54551500000007,
          "velocity": 0.3858267716535433,
          "duration": 0.517045885416664
        },
        {
          "name": "C3",
          "midi": 48,
          "time": 72.81824250000007,
          "velocity": 0.3858267716535433,
          "duration": 0.7761370104166616
        },
        {
          "name": "F3",
          "midi": 53,
          "time": 73.09097000000007,
          "velocity": 0.3858267716535433,
          "duration": 0.517045885416664
        },
        {
          "name": "C4",
          "midi": 60,
          "time": 73.09097000000007,
          "velocity": 0.3858267716535433,
          "duration": 0.517045885416664
        },
        {
          "name": "G2",
          "midi": 43,
          "time": 73.63642500000007,
          "velocity": 0.3858267716535433,
          "duration": 0.517045885416664
        },
        {
          "name": "G3",
          "midi": 55,
          "time": 73.63642500000007,
          "velocity": 0.3858267716535433,
          "duration": 0.517045885416664
        },
        {
          "name": "D#3",
          "midi": 51,
          "time": 74.18188000000008,
          "velocity": 0.3858267716535433,
          "duration": 0.517045885416664
        },
        {
          "name": "C4",
          "midi": 60,
          "time": 74.18188000000008,
          "velocity": 0.3858267716535433,
          "duration": 0.517045885416664
        },
        {
          "name": "C3",
          "midi": 48,
          "time": 74.45460750000008,
          "velocity": 0.3858267716535433,
          "duration": 0.7761370104166616
        },
        {
          "name": "D#3",
          "midi": 51,
          "time": 74.72733500000008,
          "velocity": 0.3858267716535433,
          "duration": 0.517045885416664
        },
        {
          "name": "C4",
          "midi": 60,
          "time": 74.72733500000008,
          "velocity": 0.3858267716535433,
          "duration": 0.517045885416664
        },
        {
          "name": "G2",
          "midi": 43,
          "time": 75.27279000000009,
          "velocity": 0.3858267716535433,
          "duration": 0.517045885416664
        },
        {
          "name": "G3",
          "midi": 55,
          "time": 75.27279000000009,
          "velocity": 0.3858267716535433,
          "duration": 0.517045885416664
        },
        {
          "name": "D#3",
          "midi": 51,
          "time": 75.81824500000009,
          "velocity": 0.3858267716535433,
          "duration": 0.517045885416664
        },
        {
          "name": "C4",
          "midi": 60,
          "time": 75.81824500000009,
          "velocity": 0.3858267716535433,
          "duration": 0.517045885416664
        },
        {
          "name": "C3",
          "midi": 48,
          "time": 76.09097250000009,
          "velocity": 0.3858267716535433,
          "duration": 0.7761370104166616
        },
        {
          "name": "D#3",
          "midi": 51,
          "time": 76.3637000000001,
          "velocity": 0.3858267716535433,
          "duration": 0.517045885416664
        },
        {
          "name": "C4",
          "midi": 60,
          "time": 76.3637000000001,
          "velocity": 0.3858267716535433,
          "duration": 0.517045885416664
        },
        {
          "name": "A#1",
          "midi": 34,
          "time": 76.9091550000001,
          "velocity": 0.6299212598425197,
          "duration": 1.5534103854166688
        },
        {
          "name": "A#2",
          "midi": 46,
          "time": 76.9091550000001,
          "velocity": 0.6299212598425197,
          "duration": 0.818182500000006
        },
        {
          "name": "F3",
          "midi": 53,
          "time": 77.4546100000001,
          "velocity": 0.6299212598425197,
          "duration": 0.517045885416664
        },
        {
          "name": "C4",
          "midi": 60,
          "time": 77.4546100000001,
          "velocity": 0.6299212598425197,
          "duration": 0.517045885416664
        },
        {
          "name": "A#2",
          "midi": 46,
          "time": 77.7273375000001,
          "velocity": 0.6299212598425197,
          "duration": 0.7761370104166616
        },
        {
          "name": "F3",
          "midi": 53,
          "time": 78.0000650000001,
          "velocity": 0.6299212598425197,
          "duration": 0.517045885416664
        },
        {
          "name": "C4",
          "midi": 60,
          "time": 78.0000650000001,
          "velocity": 0.6299212598425197,
          "duration": 0.517045885416664
        },
        {
          "name": "G#1",
          "midi": 32,
          "time": 78.54552000000011,
          "velocity": 0.6299212598425197,
          "duration": 1.5534103854166688
        },
        {
          "name": "G#2",
          "midi": 44,
          "time": 78.54552000000011,
          "velocity": 0.6299212598425197,
          "duration": 0.818182500000006
        },
        {
          "name": "F3",
          "midi": 53,
          "time": 79.09097500000011,
          "velocity": 0.6299212598425197,
          "duration": 0.517045885416664
        },
        {
          "name": "G#3",
          "midi": 56,
          "time": 79.09097500000011,
          "velocity": 0.6299212598425197,
          "duration": 0.517045885416664
        },
        {
          "name": "G#2",
          "midi": 44,
          "time": 79.36370250000012,
          "velocity": 0.6299212598425197,
          "duration": 0.7761370104166616
        },
        {
          "name": "F3",
          "midi": 53,
          "time": 79.63643000000012,
          "velocity": 0.6299212598425197,
          "duration": 0.517045885416664
        },
        {
          "name": "G#3",
          "midi": 56,
          "time": 79.63643000000012,
          "velocity": 0.6299212598425197,
          "duration": 0.517045885416664
        },
        {
          "name": "D#1",
          "midi": 27,
          "time": 80.18188500000012,
          "velocity": 0.6299212598425197,
          "duration": 1.5534103854166688
        },
        {
          "name": "D#2",
          "midi": 39,
          "time": 80.18188500000012,
          "velocity": 0.6299212598425197,
          "duration": 1.5534103854166688
        },
        {
          "name": "D#3",
          "midi": 51,
          "time": 80.72734000000013,
          "velocity": 0.6299212598425197,
          "duration": 0.517045885416664
        },
        {
          "name": "G3",
          "midi": 55,
          "time": 80.72734000000013,
          "velocity": 0.6299212598425197,
          "duration": 0.517045885416664
        },
        {
          "name": "G2",
          "midi": 43,
          "time": 81.00006750000013,
          "velocity": 0.6299212598425197,
          "duration": 0.7761370104166616
        },
        {
          "name": "D#3",
          "midi": 51,
          "time": 81.27279500000013,
          "velocity": 0.6299212598425197,
          "duration": 0.517045885416664
        },
        {
          "name": "G3",
          "midi": 55,
          "time": 81.27279500000013,
          "velocity": 0.6299212598425197,
          "duration": 0.517045885416664
        },
        {
          "name": "D#1",
          "midi": 27,
          "time": 81.81825000000013,
          "velocity": 0.6299212598425197,
          "duration": 1.5534103854166688
        },
        {
          "name": "D#2",
          "midi": 39,
          "time": 81.81825000000013,
          "velocity": 0.6299212598425197,
          "duration": 1.5534103854166688
        },
        {
          "name": "D#3",
          "midi": 51,
          "time": 82.36370500000014,
          "velocity": 0.6299212598425197,
          "duration": 0.517045885416664
        },
        {
          "name": "G3",
          "midi": 55,
          "time": 82.36370500000014,
          "velocity": 0.6299212598425197,
          "duration": 0.517045885416664
        },
        {
          "name": "G2",
          "midi": 43,
          "time": 82.63643250000014,
          "velocity": 0.6299212598425197,
          "duration": 0.7761370104166616
        },
        {
          "name": "D#3",
          "midi": 51,
          "time": 82.90916000000014,
          "velocity": 0.6299212598425197,
          "duration": 0.517045885416664
        },
        {
          "name": "G3",
          "midi": 55,
          "time": 82.90916000000014,
          "velocity": 0.6299212598425197,
          "duration": 0.517045885416664
        },
        {
          "name": "A#1",
          "midi": 34,
          "time": 83.45461500000015,
          "velocity": 0.6299212598425197,
          "duration": 1.5534103854166688
        },
        {
          "name": "A#2",
          "midi": 46,
          "time": 83.45461500000015,
          "velocity": 0.6299212598425197,
          "duration": 0.818182500000006
        },
        {
          "name": "F3",
          "midi": 53,
          "time": 84.00007000000015,
          "velocity": 0.6299212598425197,
          "duration": 0.517045885416664
        },
        {
          "name": "C4",
          "midi": 60,
          "time": 84.00007000000015,
          "velocity": 0.6299212598425197,
          "duration": 0.517045885416664
        },
        {
          "name": "A#2",
          "midi": 46,
          "time": 84.27279750000015,
          "velocity": 0.6299212598425197,
          "duration": 0.7761370104166616
        },
        {
          "name": "F3",
          "midi": 53,
          "time": 84.54552500000015,
          "velocity": 0.6299212598425197,
          "duration": 0.517045885416664
        },
        {
          "name": "C4",
          "midi": 60,
          "time": 84.54552500000015,
          "velocity": 0.6299212598425197,
          "duration": 0.517045885416664
        },
        {
          "name": "G#1",
          "midi": 32,
          "time": 85.09098000000016,
          "velocity": 0.6299212598425197,
          "duration": 1.5534103854166688
        },
        {
          "name": "G#2",
          "midi": 44,
          "time": 85.09098000000016,
          "velocity": 0.6299212598425197,
          "duration": 0.818182500000006
        },
        {
          "name": "F3",
          "midi": 53,
          "time": 85.63643500000016,
          "velocity": 0.6299212598425197,
          "duration": 0.517045885416664
        },
        {
          "name": "G#3",
          "midi": 56,
          "time": 85.63643500000016,
          "velocity": 0.6299212598425197,
          "duration": 0.517045885416664
        },
        {
          "name": "G#2",
          "midi": 44,
          "time": 85.90916250000016,
          "velocity": 0.6299212598425197,
          "duration": 0.7761370104166616
        },
        {
          "name": "F3",
          "midi": 53,
          "time": 86.18189000000017,
          "velocity": 0.6299212598425197,
          "duration": 0.517045885416664
        },
        {
          "name": "G#3",
          "midi": 56,
          "time": 86.18189000000017,
          "velocity": 0.6299212598425197,
          "duration": 0.517045885416664
        },
        {
          "name": "D#1",
          "midi": 27,
          "time": 86.72734500000017,
          "velocity": 0.6299212598425197,
          "duration": 1.5534103854166688
        },
        {
          "name": "D#2",
          "midi": 39,
          "time": 86.72734500000017,
          "velocity": 0.6299212598425197,
          "duration": 1.5534103854166688
        },
        {
          "name": "D#3",
          "midi": 51,
          "time": 87.27280000000017,
          "velocity": 0.6299212598425197,
          "duration": 0.517045885416664
        },
        {
          "name": "G3",
          "midi": 55,
          "time": 87.27280000000017,
          "velocity": 0.6299212598425197,
          "duration": 0.517045885416664
        },
        {
          "name": "G2",
          "midi": 43,
          "time": 87.54552750000018,
          "velocity": 0.6299212598425197,
          "duration": 0.7761370104166616
        },
        {
          "name": "D#3",
          "midi": 51,
          "time": 87.81825500000018,
          "velocity": 0.6299212598425197,
          "duration": 0.517045885416664
        },
        {
          "name": "G3",
          "midi": 55,
          "time": 87.81825500000018,
          "velocity": 0.6299212598425197,
          "duration": 0.517045885416664
        },
        {
          "name": "C2",
          "midi": 36,
          "time": 88.36371000000018,
          "velocity": 0.3858267716535433,
          "duration": 1.5534103854166688
        },
        {
          "name": "E2",
          "midi": 40,
          "time": 88.36371000000018,
          "velocity": 0.3858267716535433,
          "duration": 1.5534103854166688
        },
        {
          "name": "G2",
          "midi": 43,
          "time": 88.36371000000018,
          "velocity": 0.3858267716535433,
          "duration": 1.5534103854166688
        },
        {
          "name": "C3",
          "midi": 48,
          "time": 88.36371000000018,
          "velocity": 0.3858267716535433,
          "duration": 1.5534103854166688
        },
        {
          "name": "F2",
          "midi": 41,
          "time": 90.00007500000018,
          "velocity": 0.3858267716535433,
          "duration": 1.5534103854166688
        },
        {
          "name": "F3",
          "midi": 53,
          "time": 90.00007500000018,
          "velocity": 0.3858267716535433,
          "duration": 1.5534103854166688
        },
        {
          "name": "C3",
          "midi": 48,
          "time": 90.81825750000019,
          "velocity": 0.3858267716535433,
          "duration": 0.7761370104166616
        },
        {
          "name": "D#2",
          "midi": 39,
          "time": 91.63644000000018,
          "velocity": 0.3858267716535433,
          "duration": 1.5534103854166688
        },
        {
          "name": "D#3",
          "midi": 51,
          "time": 91.63644000000018,
          "velocity": 0.3858267716535433,
          "duration": 1.5534103854166688
        },
        {
          "name": "A#2",
          "midi": 46,
          "time": 92.45462250000018,
          "velocity": 0.3858267716535433,
          "duration": 0.7761370104166616
        },
        {
          "name": "A#1",
          "midi": 34,
          "time": 93.27280500000018,
          "velocity": 0.3858267716535433,
          "duration": 3.107957135416669
        },
        {
          "name": "A#2",
          "midi": 46,
          "time": 93.27280500000018,
          "velocity": 0.3858267716535433,
          "duration": 1.5534103854166688
        },
        {
          "name": "F2",
          "midi": 41,
          "time": 94.09098750000018,
          "velocity": 0.3858267716535433,
          "duration": 0.7761370104166616
        },
        {
          "name": "A#2",
          "midi": 46,
          "time": 94.90917000000017,
          "velocity": 0.3858267716535433,
          "duration": 1.5534103854166688
        },
        {
          "name": "F2",
          "midi": 41,
          "time": 95.72735250000018,
          "velocity": 0.3858267716535433,
          "duration": 0.7761370104166616
        },
        {
          "name": "F2",
          "midi": 41,
          "time": 96.54553500000017,
          "velocity": 0.3858267716535433,
          "duration": 1.5534103854166688
        },
        {
          "name": "F3",
          "midi": 53,
          "time": 96.54553500000017,
          "velocity": 0.3858267716535433,
          "duration": 1.5534103854166688
        },
        {
          "name": "C3",
          "midi": 48,
          "time": 97.36371750000018,
          "velocity": 0.3858267716535433,
          "duration": 0.7761370104166616
        },
        {
          "name": "D#2",
          "midi": 39,
          "time": 98.18190000000017,
          "velocity": 0.3858267716535433,
          "duration": 1.5534103854166688
        },
        {
          "name": "D#3",
          "midi": 51,
          "time": 98.18190000000017,
          "velocity": 0.3858267716535433,
          "duration": 1.5534103854166688
        },
        {
          "name": "C3",
          "midi": 48,
          "time": 99.00008250000018,
          "velocity": 0.3858267716535433,
          "duration": 0.7761370104166616
        },
        {
          "name": "A#1",
          "midi": 34,
          "time": 99.81826500000017,
          "velocity": 0.3858267716535433,
          "duration": 1.5534103854166688
        },
        {
          "name": "A#2",
          "midi": 46,
          "time": 99.81826500000017,
          "velocity": 0.3858267716535433,
          "duration": 1.5534103854166688
        },
        {
          "name": "F2",
          "midi": 41,
          "time": 100.63644750000017,
          "velocity": 0.3858267716535433,
          "duration": 0.7761370104166616
        },
        {
          "name": "A#1",
          "midi": 34,
          "time": 101.45463000000017,
          "velocity": 0.3858267716535433,
          "duration": 1.5534103854166688
        },
        {
          "name": "A#2",
          "midi": 46,
          "time": 101.45463000000017,
          "velocity": 0.3858267716535433,
          "duration": 1.5534103854166688
        },
        {
          "name": "F2",
          "midi": 41,
          "time": 102.27281250000017,
          "velocity": 0.3858267716535433,
          "duration": 0.7761370104166616
        },
        {
          "name": "F2",
          "midi": 41,
          "time": 103.09099500000016,
          "velocity": 0.3858267716535433,
          "duration": 1.5534103854166688
        },
        {
          "name": "F3",
          "midi": 53,
          "time": 103.09099500000016,
          "velocity": 0.3858267716535433,
          "duration": 1.5534103854166688
        },
        {
          "name": "C3",
          "midi": 48,
          "time": 103.90917750000017,
          "velocity": 0.3858267716535433,
          "duration": 0.7761370104166616
        },
        {
          "name": "D#2",
          "midi": 39,
          "time": 104.72736000000016,
          "velocity": 0.3858267716535433,
          "duration": 1.5534103854166688
        },
        {
          "name": "D#3",
          "midi": 51,
          "time": 104.72736000000016,
          "velocity": 0.3858267716535433,
          "duration": 1.5534103854166688
        },
        {
          "name": "C3",
          "midi": 48,
          "time": 105.54554250000017,
          "velocity": 0.3858267716535433,
          "duration": 0.7761370104166616
        },
        {
          "name": "A#1",
          "midi": 34,
          "time": 106.36372500000016,
          "velocity": 0.3858267716535433,
          "duration": 1.5534103854166688
        },
        {
          "name": "A#2",
          "midi": 46,
          "time": 106.36372500000016,
          "velocity": 0.3858267716535433,
          "duration": 1.5534103854166688
        },
        {
          "name": "F2",
          "midi": 41,
          "time": 107.18190750000016,
          "velocity": 0.3858267716535433,
          "duration": 0.7761370104166616
        },
        {
          "name": "C#2",
          "midi": 37,
          "time": 108.00009000000016,
          "velocity": 0.3858267716535433,
          "duration": 1.5534103854166688
        },
        {
          "name": "C#3",
          "midi": 49,
          "time": 108.00009000000016,
          "velocity": 0.3858267716535433,
          "duration": 0.818182500000006
        },
        {
          "name": "C#3",
          "midi": 49,
          "time": 108.81827250000016,
          "velocity": 0.3858267716535433,
          "duration": 0.7761370104166616
        },
        {
          "name": "F2",
          "midi": 41,
          "time": 109.63645500000015,
          "velocity": 0.3858267716535433,
          "duration": 1.5534103854166688
        },
        {
          "name": "F3",
          "midi": 53,
          "time": 109.63645500000015,
          "velocity": 0.3858267716535433,
          "duration": 1.5534103854166688
        },
        {
          "name": "A#1",
          "midi": 34,
          "time": 111.27282000000015,
          "velocity": 0.3858267716535433,
          "duration": 1.5534103854166688
        },
        {
          "name": "A#2",
          "midi": 46,
          "time": 111.27282000000015,
          "velocity": 0.3858267716535433,
          "duration": 1.5534103854166688
        },
        {
          "name": "C2",
          "midi": 36,
          "time": 112.90918500000015,
          "velocity": 0.3858267716535433,
          "duration": 0.517045885416664
        },
        {
          "name": "C3",
          "midi": 48,
          "time": 112.90918500000015,
          "velocity": 0.3858267716535433,
          "duration": 0.517045885416664
        },
        {
          "name": "G3",
          "midi": 55,
          "time": 113.45464000000015,
          "velocity": 0.3858267716535433,
          "duration": 0.517045885416664
        },
        {
          "name": "C3",
          "midi": 48,
          "time": 113.72736750000016,
          "velocity": 0.3858267716535433,
          "duration": 0.7761370104166758
        },
        {
          "name": "G3",
          "midi": 55,
          "time": 114.00009500000016,
          "velocity": 0.3858267716535433,
          "duration": 0.5170458854166782
        },
        {
          "name": "C#2",
          "midi": 37,
          "time": 114.54555000000018,
          "velocity": 0.3858267716535433,
          "duration": 0.517045885416664
        },
        {
          "name": "C#3",
          "midi": 49,
          "time": 114.54555000000018,
          "velocity": 0.3858267716535433,
          "duration": 0.517045885416664
        },
        {
          "name": "G#3",
          "midi": 56,
          "time": 115.09100500000018,
          "velocity": 0.3858267716535433,
          "duration": 0.517045885416664
        },
        {
          "name": "F3",
          "midi": 53,
          "time": 115.36373250000018,
          "velocity": 0.3858267716535433,
          "duration": 0.7761370104166616
        },
        {
          "name": "G#3",
          "midi": 56,
          "time": 115.63646000000018,
          "velocity": 0.3858267716535433,
          "duration": 0.517045885416664
        },
        {
          "name": "A#1",
          "midi": 34,
          "time": 116.18191500000019,
          "velocity": 0.3858267716535433,
          "duration": 0.517045885416664
        },
        {
          "name": "A#2",
          "midi": 46,
          "time": 116.18191500000019,
          "velocity": 0.3858267716535433,
          "duration": 0.517045885416664
        },
        {
          "name": "F3",
          "midi": 53,
          "time": 116.72737000000019,
          "velocity": 0.3858267716535433,
          "duration": 0.517045885416664
        },
        {
          "name": "A#2",
          "midi": 46,
          "time": 117.0000975000002,
          "velocity": 0.3858267716535433,
          "duration": 0.7761370104166616
        },
        {
          "name": "F3",
          "midi": 53,
          "time": 117.2728250000002,
          "velocity": 0.3858267716535433,
          "duration": 0.517045885416664
        },
        {
          "name": "A#1",
          "midi": 34,
          "time": 117.8182800000002,
          "velocity": 0.3858267716535433,
          "duration": 0.517045885416664
        },
        {
          "name": "A#2",
          "midi": 46,
          "time": 117.8182800000002,
          "velocity": 0.3858267716535433,
          "duration": 0.517045885416664
        },
        {
          "name": "F3",
          "midi": 53,
          "time": 118.3637350000002,
          "velocity": 0.3858267716535433,
          "duration": 0.517045885416664
        },
        {
          "name": "A#2",
          "midi": 46,
          "time": 118.6364625000002,
          "velocity": 0.3858267716535433,
          "duration": 0.7761370104166616
        },
        {
          "name": "F3",
          "midi": 53,
          "time": 118.90919000000021,
          "velocity": 0.3858267716535433,
          "duration": 0.517045885416664
        },
        {
          "name": "C2",
          "midi": 36,
          "time": 119.45464500000021,
          "velocity": 0.3858267716535433,
          "duration": 0.517045885416664
        },
        {
          "name": "C3",
          "midi": 48,
          "time": 119.45464500000021,
          "velocity": 0.3858267716535433,
          "duration": 0.517045885416664
        },
        {
          "name": "G3",
          "midi": 55,
          "time": 120.00010000000022,
          "velocity": 0.3858267716535433,
          "duration": 0.517045885416664
        },
        {
          "name": "C3",
          "midi": 48,
          "time": 120.27282750000022,
          "velocity": 0.3858267716535433,
          "duration": 0.7761370104166616
        },
        {
          "name": "G3",
          "midi": 55,
          "time": 120.54555500000022,
          "velocity": 0.3858267716535433,
          "duration": 0.517045885416664
        },
        {
          "name": "C#2",
          "midi": 37,
          "time": 121.09101000000022,
          "velocity": 0.3858267716535433,
          "duration": 1.5534103854166688
        },
        {
          "name": "C#3",
          "midi": 49,
          "time": 121.09101000000022,
          "velocity": 0.3858267716535433,
          "duration": 0.818182500000006
        },
        {
          "name": "C#3",
          "midi": 49,
          "time": 121.90919250000023,
          "velocity": 0.3858267716535433,
          "duration": 0.7761370104166616
        },
        {
          "name": "F3",
          "midi": 53,
          "time": 121.90919250000023,
          "velocity": 0.3858267716535433,
          "duration": 0.7761370104166616
        },
        {
          "name": "A#1",
          "midi": 34,
          "time": 122.72737500000022,
          "velocity": 0.3858267716535433,
          "duration": 1.5534103854166688
        },
        {
          "name": "A#2",
          "midi": 46,
          "time": 122.72737500000022,
          "velocity": 0.3858267716535433,
          "duration": 0.818182500000006
        },
        {
          "name": "A#2",
          "midi": 46,
          "time": 123.54555750000023,
          "velocity": 0.3858267716535433,
          "duration": 0.7761370104166616
        },
        {
          "name": "F3",
          "midi": 53,
          "time": 123.54555750000023,
          "velocity": 0.3858267716535433,
          "duration": 0.7761370104166616
        },
        {
          "name": "A#1",
          "midi": 34,
          "time": 124.36374000000022,
          "velocity": 0.3858267716535433,
          "duration": 1.5534103854166688
        },
        {
          "name": "A#2",
          "midi": 46,
          "time": 124.36374000000022,
          "velocity": 0.3858267716535433,
          "duration": 0.818182500000006
        },
        {
          "name": "A#2",
          "midi": 46,
          "time": 125.18192250000023,
          "velocity": 0.3858267716535433,
          "duration": 0.7761370104166616
        },
        {
          "name": "F3",
          "midi": 53,
          "time": 125.18192250000023,
          "velocity": 0.3858267716535433,
          "duration": 0.7761370104166616
        },
        {
          "name": "C2",
          "midi": 36,
          "time": 126.00010500000022,
          "velocity": 0.3858267716535433,
          "duration": 0.517045885416664
        },
        {
          "name": "G2",
          "midi": 43,
          "time": 126.00010500000022,
          "velocity": 0.3858267716535433,
          "duration": 0.517045885416664
        },
        {
          "name": "C3",
          "midi": 48,
          "time": 126.00010500000022,
          "velocity": 0.3858267716535433,
          "duration": 0.517045885416664
        },
        {
          "name": "C3",
          "midi": 48,
          "time": 126.54556000000022,
          "velocity": 0.3858267716535433,
          "duration": 0.517045885416664
        },
        {
          "name": "G2",
          "midi": 43,
          "time": 126.81828750000022,
          "velocity": 0.3858267716535433,
          "duration": 0.7761370104166758
        },
        {
          "name": "C3",
          "midi": 48,
          "time": 127.09101500000023,
          "velocity": 0.3858267716535433,
          "duration": 0.5170458854166782
        },
        {
          "name": "C#2",
          "midi": 37,
          "time": 127.63647000000024,
          "velocity": 0.3858267716535433,
          "duration": 0.517045885416664
        },
        {
          "name": "G#2",
          "midi": 44,
          "time": 127.63647000000024,
          "velocity": 0.3858267716535433,
          "duration": 0.517045885416664
        },
        {
          "name": "C#3",
          "midi": 49,
          "time": 127.63647000000024,
          "velocity": 0.3858267716535433,
          "duration": 0.517045885416664
        },
        {
          "name": "C#3",
          "midi": 49,
          "time": 128.18192500000023,
          "velocity": 0.3858267716535433,
          "duration": 0.5170458854166782
        },
        {
          "name": "G#2",
          "midi": 44,
          "time": 128.45465250000024,
          "velocity": 0.3858267716535433,
          "duration": 0.7761370104166758
        },
        {
          "name": "C#3",
          "midi": 49,
          "time": 128.72738000000024,
          "velocity": 0.3858267716535433,
          "duration": 0.5170458854166782
        },
        {
          "name": "D#2",
          "midi": 39,
          "time": 129.27283500000024,
          "velocity": 0.3858267716535433,
          "duration": 0.5170458854166782
        },
        {
          "name": "A#2",
          "midi": 46,
          "time": 129.27283500000024,
          "velocity": 0.3858267716535433,
          "duration": 0.5170458854166782
        },
        {
          "name": "D#3",
          "midi": 51,
          "time": 129.27283500000024,
          "velocity": 0.3858267716535433,
          "duration": 0.5170458854166782
        },
        {
          "name": "D#3",
          "midi": 51,
          "time": 129.81829000000025,
          "velocity": 0.3858267716535433,
          "duration": 0.5170458854166782
        },
        {
          "name": "A#2",
          "midi": 46,
          "time": 130.09101750000025,
          "velocity": 0.3858267716535433,
          "duration": 0.7761370104166758
        },
        {
          "name": "D#3",
          "midi": 51,
          "time": 130.36374500000025,
          "velocity": 0.3858267716535433,
          "duration": 0.5170458854166782
        },
        {
          "name": "F2",
          "midi": 41,
          "time": 130.90920000000025,
          "velocity": 0.3858267716535433,
          "duration": 0.5170458854166782
        },
        {
          "name": "C3",
          "midi": 48,
          "time": 130.90920000000025,
          "velocity": 0.3858267716535433,
          "duration": 0.5170458854166782
        },
        {
          "name": "F3",
          "midi": 53,
          "time": 130.90920000000025,
          "velocity": 0.3858267716535433,
          "duration": 0.5170458854166782
        },
        {
          "name": "F3",
          "midi": 53,
          "time": 131.45465500000026,
          "velocity": 0.3858267716535433,
          "duration": 0.5170458854166782
        },
        {
          "name": "C3",
          "midi": 48,
          "time": 131.72738250000026,
          "velocity": 0.3858267716535433,
          "duration": 0.7761370104166758
        },
        {
          "name": "F3",
          "midi": 53,
          "time": 132.00011000000026,
          "velocity": 0.3858267716535433,
          "duration": 0.5170458854166782
        },
        {
          "name": "A#1",
          "midi": 34,
          "time": 132.54556500000027,
          "velocity": 0.3858267716535433,
          "duration": 0.5170458854166782
        },
        {
          "name": "F2",
          "midi": 41,
          "time": 132.54556500000027,
          "velocity": 0.3858267716535433,
          "duration": 0.5170458854166782
        },
        {
          "name": "A#2",
          "midi": 46,
          "time": 132.54556500000027,
          "velocity": 0.3858267716535433,
          "duration": 0.5170458854166782
        },
        {
          "name": "A#2",
          "midi": 46,
          "time": 133.09102000000027,
          "velocity": 0.3858267716535433,
          "duration": 0.5170458854166782
        },
        {
          "name": "F2",
          "midi": 41,
          "time": 133.36374750000027,
          "velocity": 0.3858267716535433,
          "duration": 0.7761370104166758
        },
        {
          "name": "A#2",
          "midi": 46,
          "time": 133.63647500000027,
          "velocity": 0.3858267716535433,
          "duration": 0.5170458854166782
        },
        {
          "name": "C2",
          "midi": 36,
          "time": 134.18193000000028,
          "velocity": 0.3858267716535433,
          "duration": 0.5170458854166782
        },
        {
          "name": "G2",
          "midi": 43,
          "time": 134.18193000000028,
          "velocity": 0.3858267716535433,
          "duration": 0.5170458854166782
        },
        {
          "name": "C3",
          "midi": 48,
          "time": 134.18193000000028,
          "velocity": 0.3858267716535433,
          "duration": 0.5170458854166782
        },
        {
          "name": "C3",
          "midi": 48,
          "time": 134.72738500000028,
          "velocity": 0.3858267716535433,
          "duration": 0.5170458854166782
        },
        {
          "name": "G2",
          "midi": 43,
          "time": 135.00011250000028,
          "velocity": 0.3858267716535433,
          "duration": 0.7761370104166758
        },
        {
          "name": "C3",
          "midi": 48,
          "time": 135.2728400000003,
          "velocity": 0.3858267716535433,
          "duration": 0.5170458854166782
        },
        {
          "name": "F2",
          "midi": 41,
          "time": 135.8182950000003,
          "velocity": 0.3858267716535433,
          "duration": 0.5170458854166782
        },
        {
          "name": "C3",
          "midi": 48,
          "time": 135.8182950000003,
          "velocity": 0.3858267716535433,
          "duration": 0.5170458854166782
        },
        {
          "name": "F3",
          "midi": 53,
          "time": 135.8182950000003,
          "velocity": 0.3858267716535433,
          "duration": 0.5170458854166782
        },
        {
          "name": "F3",
          "midi": 53,
          "time": 136.3637500000003,
          "velocity": 0.3858267716535433,
          "duration": 0.5170458854166782
        },
        {
          "name": "C3",
          "midi": 48,
          "time": 136.6364775000003,
          "velocity": 0.3858267716535433,
          "duration": 0.7761370104166758
        },
        {
          "name": "F3",
          "midi": 53,
          "time": 136.9092050000003,
          "velocity": 0.3858267716535433,
          "duration": 0.5170458854166782
        },
        {
          "name": "F2",
          "midi": 41,
          "time": 137.4546600000003,
          "velocity": 0.3858267716535433,
          "duration": 0.5170458854166782
        },
        {
          "name": "C#3",
          "midi": 49,
          "time": 137.4546600000003,
          "velocity": 0.3858267716535433,
          "duration": 0.5170458854166782
        },
        {
          "name": "F3",
          "midi": 53,
          "time": 137.4546600000003,
          "velocity": 0.3858267716535433,
          "duration": 0.5170458854166782
        },
        {
          "name": "F3",
          "midi": 53,
          "time": 138.0001150000003,
          "velocity": 0.3858267716535433,
          "duration": 0.5170458854166782
        },
        {
          "name": "A#2",
          "midi": 46,
          "time": 138.2728425000003,
          "velocity": 0.3858267716535433,
          "duration": 0.7761370104166758
        },
        {
          "name": "F3",
          "midi": 53,
          "time": 138.5455700000003,
          "velocity": 0.3858267716535433,
          "duration": 0.5170458854166782
        },
        {
          "name": "C2",
          "midi": 36,
          "time": 139.09102500000031,
          "velocity": 0.3858267716535433,
          "duration": 0.5170458854166782
        },
        {
          "name": "G2",
          "midi": 43,
          "time": 139.09102500000031,
          "velocity": 0.3858267716535433,
          "duration": 0.5170458854166782
        },
        {
          "name": "C3",
          "midi": 48,
          "time": 139.09102500000031,
          "velocity": 0.3858267716535433,
          "duration": 0.5170458854166782
        },
        {
          "name": "C3",
          "midi": 48,
          "time": 139.63648000000032,
          "velocity": 0.3858267716535433,
          "duration": 0.5170458854166782
        },
        {
          "name": "G2",
          "midi": 43,
          "time": 139.90920750000032,
          "velocity": 0.3858267716535433,
          "duration": 0.7761370104166758
        },
        {
          "name": "C3",
          "midi": 48,
          "time": 140.18193500000032,
          "velocity": 0.3858267716535433,
          "duration": 0.5170458854166782
        },
        {
          "name": "C#2",
          "midi": 37,
          "time": 140.72739000000033,
          "velocity": 0.3858267716535433,
          "duration": 0.5170458854166782
        },
        {
          "name": "G#2",
          "midi": 44,
          "time": 140.72739000000033,
          "velocity": 0.3858267716535433,
          "duration": 0.5170458854166782
        },
        {
          "name": "C#3",
          "midi": 49,
          "time": 140.72739000000033,
          "velocity": 0.3858267716535433,
          "duration": 0.5170458854166782
        },
        {
          "name": "C#3",
          "midi": 49,
          "time": 141.27284500000033,
          "velocity": 0.3858267716535433,
          "duration": 0.5170458854166782
        },
        {
          "name": "G#2",
          "midi": 44,
          "time": 141.54557250000033,
          "velocity": 0.3858267716535433,
          "duration": 0.7761370104166758
        },
        {
          "name": "C#3",
          "midi": 49,
          "time": 141.81830000000033,
          "velocity": 0.3858267716535433,
          "duration": 0.5170458854166782
        },
        {
          "name": "D#2",
          "midi": 39,
          "time": 142.36375500000034,
          "velocity": 0.3858267716535433,
          "duration": 0.5170458854166782
        },
        {
          "name": "A#2",
          "midi": 46,
          "time": 142.36375500000034,
          "velocity": 0.3858267716535433,
          "duration": 0.5170458854166782
        },
        {
          "name": "D#3",
          "midi": 51,
          "time": 142.36375500000034,
          "velocity": 0.3858267716535433,
          "duration": 0.5170458854166782
        },
        {
          "name": "D#3",
          "midi": 51,
          "time": 142.90921000000034,
          "velocity": 0.3858267716535433,
          "duration": 0.5170458854166782
        },
        {
          "name": "A#2",
          "midi": 46,
          "time": 143.18193750000034,
          "velocity": 0.3858267716535433,
          "duration": 0.7761370104166758
        },
        {
          "name": "D#3",
          "midi": 51,
          "time": 143.45466500000035,
          "velocity": 0.3858267716535433,
          "duration": 0.5170458854166782
        },
        {
          "name": "F2",
          "midi": 41,
          "time": 144.00012000000035,
          "velocity": 0.3858267716535433,
          "duration": 0.5170458854166782
        },
        {
          "name": "C3",
          "midi": 48,
          "time": 144.00012000000035,
          "velocity": 0.3858267716535433,
          "duration": 0.5170458854166782
        },
        {
          "name": "F3",
          "midi": 53,
          "time": 144.00012000000035,
          "velocity": 0.3858267716535433,
          "duration": 0.5170458854166782
        },
        {
          "name": "F3",
          "midi": 53,
          "time": 144.54557500000035,
          "velocity": 0.3858267716535433,
          "duration": 0.5170458854166782
        },
        {
          "name": "C3",
          "midi": 48,
          "time": 144.81830250000036,
          "velocity": 0.3858267716535433,
          "duration": 0.7761370104166758
        },
        {
          "name": "F3",
          "midi": 53,
          "time": 145.09103000000036,
          "velocity": 0.3858267716535433,
          "duration": 0.5170458854166782
        },
        {
          "name": "A#1",
          "midi": 34,
          "time": 145.63648500000036,
          "velocity": 0.3858267716535433,
          "duration": 0.5170458854166782
        },
        {
          "name": "F2",
          "midi": 41,
          "time": 145.63648500000036,
          "velocity": 0.3858267716535433,
          "duration": 0.5170458854166782
        },
        {
          "name": "A#2",
          "midi": 46,
          "time": 145.63648500000036,
          "velocity": 0.3858267716535433,
          "duration": 0.5170458854166782
        },
        {
          "name": "A#2",
          "midi": 46,
          "time": 146.18194000000037,
          "velocity": 0.3858267716535433,
          "duration": 0.5170458854166782
        },
        {
          "name": "F2",
          "midi": 41,
          "time": 146.45466750000037,
          "velocity": 0.3858267716535433,
          "duration": 0.7761370104166758
        },
        {
          "name": "A#2",
          "midi": 46,
          "time": 146.72739500000037,
          "velocity": 0.3858267716535433,
          "duration": 0.5170458854166782
        },
        {
          "name": "C2",
          "midi": 36,
          "time": 147.27285000000037,
          "velocity": 0.3858267716535433,
          "duration": 0.5170458854166782
        },
        {
          "name": "G2",
          "midi": 43,
          "time": 147.27285000000037,
          "velocity": 0.3858267716535433,
          "duration": 0.5170458854166782
        },
        {
          "name": "C3",
          "midi": 48,
          "time": 147.27285000000037,
          "velocity": 0.3858267716535433,
          "duration": 0.5170458854166782
        },
        {
          "name": "C3",
          "midi": 48,
          "time": 147.81830500000038,
          "velocity": 0.3858267716535433,
          "duration": 0.5170458854166782
        },
        {
          "name": "G2",
          "midi": 43,
          "time": 148.09103250000038,
          "velocity": 0.3858267716535433,
          "duration": 0.7761370104166758
        },
        {
          "name": "C3",
          "midi": 48,
          "time": 148.36376000000038,
          "velocity": 0.3858267716535433,
          "duration": 0.5170458854166782
        },
        {
          "name": "F2",
          "midi": 41,
          "time": 148.9092150000004,
          "velocity": 0.3858267716535433,
          "duration": 0.5170458854166782
        },
        {
          "name": "C3",
          "midi": 48,
          "time": 148.9092150000004,
          "velocity": 0.3858267716535433,
          "duration": 0.5170458854166782
        },
        {
          "name": "F3",
          "midi": 53,
          "time": 148.9092150000004,
          "velocity": 0.3858267716535433,
          "duration": 0.5170458854166782
        },
        {
          "name": "F3",
          "midi": 53,
          "time": 149.4546700000004,
          "velocity": 0.3858267716535433,
          "duration": 0.5170458854166782
        },
        {
          "name": "C3",
          "midi": 48,
          "time": 149.7273975000004,
          "velocity": 0.3858267716535433,
          "duration": 0.7761370104166758
        },
        {
          "name": "F3",
          "midi": 53,
          "time": 150.0001250000004,
          "velocity": 0.3858267716535433,
          "duration": 0.5170458854166782
        },
        {
          "name": "F2",
          "midi": 41,
          "time": 150.5455800000004,
          "velocity": 0.3858267716535433,
          "duration": 0.5170458854166782
        },
        {
          "name": "A2",
          "midi": 45,
          "time": 150.5455800000004,
          "velocity": 0.3858267716535433,
          "duration": 0.5170458854166782
        },
        {
          "name": "C3",
          "midi": 48,
          "time": 150.5455800000004,
          "velocity": 0.3858267716535433,
          "duration": 0.5170458854166782
        },
        {
          "name": "F3",
          "midi": 53,
          "time": 150.5455800000004,
          "velocity": 0.3858267716535433,
          "duration": 0.5170458854166782
        },
        {
          "name": "F3",
          "midi": 53,
          "time": 151.0910350000004,
          "velocity": 0.3858267716535433,
          "duration": 0.5170458854166782
        },
        {
          "name": "A3",
          "midi": 57,
          "time": 151.0910350000004,
          "velocity": 0.3858267716535433,
          "duration": 0.5170458854166782
        },
        {
          "name": "C4",
          "midi": 60,
          "time": 151.0910350000004,
          "velocity": 0.3858267716535433,
          "duration": 0.5170458854166782
        },
        {
          "name": "C3",
          "midi": 48,
          "time": 151.3637625000004,
          "velocity": 0.3858267716535433,
          "duration": 0.7761370104166758
        },
        {
          "name": "F3",
          "midi": 53,
          "time": 151.6364900000004,
          "velocity": 0.3858267716535433,
          "duration": 0.5170458854166782
        },
        {
          "name": "A3",
          "midi": 57,
          "time": 151.6364900000004,
          "velocity": 0.3858267716535433,
          "duration": 0.5170458854166782
        },
        {
          "name": "C4",
          "midi": 60,
          "time": 151.6364900000004,
          "velocity": 0.3858267716535433,
          "duration": 0.5170458854166782
        },
        {
          "name": "F#1",
          "midi": 30,
          "time": 152.1819450000004,
          "velocity": 0.6299212598425197,
          "duration": 0.5170458854166782
        },
        {
          "name": "C#2",
          "midi": 37,
          "time": 152.1819450000004,
          "velocity": 0.6299212598425197,
          "duration": 0.5170458854166782
        },
        {
          "name": "F#2",
          "midi": 42,
          "time": 152.1819450000004,
          "velocity": 0.6299212598425197,
          "duration": 0.5170458854166782
        },
        {
          "name": "F#2",
          "midi": 42,
          "time": 152.72740000000042,
          "velocity": 0.6299212598425197,
          "duration": 1.0352281354166735
        },
        {
          "name": "C#3",
          "midi": 49,
          "time": 152.72740000000042,
          "velocity": 0.6299212598425197,
          "duration": 1.0352281354166735
        },
        {
          "name": "F#3",
          "midi": 54,
          "time": 152.72740000000042,
          "velocity": 0.6299212598425197,
          "duration": 1.0352281354166735
        },
        {
          "name": "A#1",
          "midi": 34,
          "time": 153.81831000000042,
          "velocity": 0.6299212598425197,
          "duration": 0.5170458854166782
        },
        {
          "name": "F2",
          "midi": 41,
          "time": 153.81831000000042,
          "velocity": 0.6299212598425197,
          "duration": 0.5170458854166782
        },
        {
          "name": "A#2",
          "midi": 46,
          "time": 153.81831000000042,
          "velocity": 0.6299212598425197,
          "duration": 0.5170458854166782
        },
        {
          "name": "A#2",
          "midi": 46,
          "time": 154.36376500000043,
          "velocity": 0.6299212598425197,
          "duration": 1.0352281354166735
        },
        {
          "name": "F3",
          "midi": 53,
          "time": 154.36376500000043,
          "velocity": 0.6299212598425197,
          "duration": 1.0352281354166735
        },
        {
          "name": "A#3",
          "midi": 58,
          "time": 154.36376500000043,
          "velocity": 0.6299212598425197,
          "duration": 1.0352281354166735
        },
        {
          "name": "G#1",
          "midi": 32,
          "time": 155.45467500000044,
          "velocity": 0.6299212598425197,
          "duration": 0.5170458854166782
        },
        {
          "name": "D#2",
          "midi": 39,
          "time": 155.45467500000044,
          "velocity": 0.6299212598425197,
          "duration": 0.5170458854166782
        },
        {
          "name": "G#2",
          "midi": 44,
          "time": 155.45467500000044,
          "velocity": 0.6299212598425197,
          "duration": 0.5170458854166782
        },
        {
          "name": "G#2",
          "midi": 44,
          "time": 156.00013000000044,
          "velocity": 0.6299212598425197,
          "duration": 1.0352281354166735
        },
        {
          "name": "D#3",
          "midi": 51,
          "time": 156.00013000000044,
          "velocity": 0.6299212598425197,
          "duration": 1.0352281354166735
        },
        {
          "name": "G#3",
          "midi": 56,
          "time": 156.00013000000044,
          "velocity": 0.6299212598425197,
          "duration": 1.0352281354166735
        },
        {
          "name": "G#1",
          "midi": 32,
          "time": 157.09104000000045,
          "velocity": 0.6299212598425197,
          "duration": 0.5170458854166782
        },
        {
          "name": "F2",
          "midi": 41,
          "time": 157.09104000000045,
          "velocity": 0.6299212598425197,
          "duration": 0.5170458854166782
        },
        {
          "name": "G#2",
          "midi": 44,
          "time": 157.09104000000045,
          "velocity": 0.6299212598425197,
          "duration": 0.5170458854166782
        },
        {
          "name": "G#2",
          "midi": 44,
          "time": 157.63649500000045,
          "velocity": 0.6299212598425197,
          "duration": 1.0352281354166735
        },
        {
          "name": "C3",
          "midi": 48,
          "time": 157.63649500000045,
          "velocity": 0.6299212598425197,
          "duration": 1.0352281354166735
        },
        {
          "name": "G#3",
          "midi": 56,
          "time": 157.63649500000045,
          "velocity": 0.6299212598425197,
          "duration": 1.0352281354166735
        },
        {
          "name": "F#1",
          "midi": 30,
          "time": 158.72740500000046,
          "velocity": 0.6299212598425197,
          "duration": 0.5170458854166782
        },
        {
          "name": "C#2",
          "midi": 37,
          "time": 158.72740500000046,
          "velocity": 0.6299212598425197,
          "duration": 0.5170458854166782
        },
        {
          "name": "F#2",
          "midi": 42,
          "time": 158.72740500000046,
          "velocity": 0.6299212598425197,
          "duration": 0.5170458854166782
        },
        {
          "name": "F#2",
          "midi": 42,
          "time": 159.27286000000046,
          "velocity": 0.6299212598425197,
          "duration": 1.0352281354166735
        },
        {
          "name": "C#3",
          "midi": 49,
          "time": 159.27286000000046,
          "velocity": 0.6299212598425197,
          "duration": 1.0352281354166735
        },
        {
          "name": "F#3",
          "midi": 54,
          "time": 159.27286000000046,
          "velocity": 0.6299212598425197,
          "duration": 1.0352281354166735
        },
        {
          "name": "A#1",
          "midi": 34,
          "time": 160.36377000000047,
          "velocity": 0.6299212598425197,
          "duration": 0.5170458854166782
        },
        {
          "name": "F2",
          "midi": 41,
          "time": 160.36377000000047,
          "velocity": 0.6299212598425197,
          "duration": 0.5170458854166782
        },
        {
          "name": "A#2",
          "midi": 46,
          "time": 160.36377000000047,
          "velocity": 0.6299212598425197,
          "duration": 0.5170458854166782
        },
        {
          "name": "A#2",
          "midi": 46,
          "time": 160.90922500000048,
          "velocity": 0.6299212598425197,
          "duration": 1.0352281354166735
        },
        {
          "name": "F3",
          "midi": 53,
          "time": 160.90922500000048,
          "velocity": 0.6299212598425197,
          "duration": 1.0352281354166735
        },
        {
          "name": "A#3",
          "midi": 58,
          "time": 160.90922500000048,
          "velocity": 0.6299212598425197,
          "duration": 1.0352281354166735
        },
        {
          "name": "G#1",
          "midi": 32,
          "time": 162.00013500000048,
          "velocity": 0.6299212598425197,
          "duration": 0.5170458854166782
        },
        {
          "name": "D#2",
          "midi": 39,
          "time": 162.00013500000048,
          "velocity": 0.6299212598425197,
          "duration": 0.5170458854166782
        },
        {
          "name": "G#2",
          "midi": 44,
          "time": 162.00013500000048,
          "velocity": 0.6299212598425197,
          "duration": 0.5170458854166782
        },
        {
          "name": "G#2",
          "midi": 44,
          "time": 162.5455900000005,
          "velocity": 0.6299212598425197,
          "duration": 1.0352281354166735
        },
        {
          "name": "D#3",
          "midi": 51,
          "time": 162.5455900000005,
          "velocity": 0.6299212598425197,
          "duration": 1.0352281354166735
        },
        {
          "name": "G#3",
          "midi": 56,
          "time": 162.5455900000005,
          "velocity": 0.6299212598425197,
          "duration": 1.0352281354166735
        },
        {
          "name": "C#2",
          "midi": 37,
          "time": 163.6365000000005,
          "velocity": 0.6299212598425197,
          "duration": 0.7761370104166758
        },
        {
          "name": "G#2",
          "midi": 44,
          "time": 163.6365000000005,
          "velocity": 0.6299212598425197,
          "duration": 0.7761370104166758
        },
        {
          "name": "C#3",
          "midi": 49,
          "time": 163.6365000000005,
          "velocity": 0.6299212598425197,
          "duration": 0.7761370104166758
        },
        {
          "name": "F1",
          "midi": 29,
          "time": 164.4546825000005,
          "velocity": 0.6299212598425197,
          "duration": 0.7761370104166758
        },
        {
          "name": "C2",
          "midi": 36,
          "time": 164.4546825000005,
          "velocity": 0.6299212598425197,
          "duration": 0.7761370104166758
        },
        {
          "name": "F2",
          "midi": 41,
          "time": 164.4546825000005,
          "velocity": 0.6299212598425197,
          "duration": 0.7761370104166758
        },
        {
          "name": "F#1",
          "midi": 30,
          "time": 165.2728650000005,
          "velocity": 0.6299212598425197,
          "duration": 0.5170458854166782
        },
        {
          "name": "C#2",
          "midi": 37,
          "time": 165.2728650000005,
          "velocity": 0.6299212598425197,
          "duration": 0.5170458854166782
        },
        {
          "name": "F#2",
          "midi": 42,
          "time": 165.2728650000005,
          "velocity": 0.6299212598425197,
          "duration": 0.5170458854166782
        },
        {
          "name": "F#2",
          "midi": 42,
          "time": 165.8183200000005,
          "velocity": 0.6299212598425197,
          "duration": 1.0352281354166735
        },
        {
          "name": "C#3",
          "midi": 49,
          "time": 165.8183200000005,
          "velocity": 0.6299212598425197,
          "duration": 1.0352281354166735
        },
        {
          "name": "F#3",
          "midi": 54,
          "time": 165.8183200000005,
          "velocity": 0.6299212598425197,
          "duration": 1.0352281354166735
        },
        {
          "name": "A#1",
          "midi": 34,
          "time": 166.90923000000052,
          "velocity": 0.6299212598425197,
          "duration": 0.5170458854166782
        },
        {
          "name": "F2",
          "midi": 41,
          "time": 166.90923000000052,
          "velocity": 0.6299212598425197,
          "duration": 0.5170458854166782
        },
        {
          "name": "A#2",
          "midi": 46,
          "time": 166.90923000000052,
          "velocity": 0.6299212598425197,
          "duration": 0.5170458854166782
        },
        {
          "name": "A#2",
          "midi": 46,
          "time": 167.45468500000052,
          "velocity": 0.6299212598425197,
          "duration": 1.0352281354166735
        },
        {
          "name": "F3",
          "midi": 53,
          "time": 167.45468500000052,
          "velocity": 0.6299212598425197,
          "duration": 1.0352281354166735
        },
        {
          "name": "A#3",
          "midi": 58,
          "time": 167.45468500000052,
          "velocity": 0.6299212598425197,
          "duration": 1.0352281354166735
        },
        {
          "name": "G#1",
          "midi": 32,
          "time": 168.54559500000053,
          "velocity": 0.6299212598425197,
          "duration": 0.5170458854166782
        },
        {
          "name": "D#2",
          "midi": 39,
          "time": 168.54559500000053,
          "velocity": 0.6299212598425197,
          "duration": 0.5170458854166782
        },
        {
          "name": "G#2",
          "midi": 44,
          "time": 168.54559500000053,
          "velocity": 0.6299212598425197,
          "duration": 0.5170458854166782
        },
        {
          "name": "G#2",
          "midi": 44,
          "time": 169.09105000000054,
          "velocity": 0.6299212598425197,
          "duration": 1.0352281354166735
        },
        {
          "name": "D#3",
          "midi": 51,
          "time": 169.09105000000054,
          "velocity": 0.6299212598425197,
          "duration": 1.0352281354166735
        },
        {
          "name": "G#3",
          "midi": 56,
          "time": 169.09105000000054,
          "velocity": 0.6299212598425197,
          "duration": 1.0352281354166735
        },
        {
          "name": "D#1",
          "midi": 27,
          "time": 170.18196000000054,
          "velocity": 0.6299212598425197,
          "duration": 0.5170458854166782
        },
        {
          "name": "A#1",
          "midi": 34,
          "time": 170.18196000000054,
          "velocity": 0.6299212598425197,
          "duration": 0.5170458854166782
        },
        {
          "name": "D#2",
          "midi": 39,
          "time": 170.18196000000054,
          "velocity": 0.6299212598425197,
          "duration": 0.5170458854166782
        },
        {
          "name": "D#2",
          "midi": 39,
          "time": 170.72741500000055,
          "velocity": 0.6299212598425197,
          "duration": 1.0352281354166735
        },
        {
          "name": "A#2",
          "midi": 46,
          "time": 170.72741500000055,
          "velocity": 0.6299212598425197,
          "duration": 1.0352281354166735
        },
        {
          "name": "D#3",
          "midi": 51,
          "time": 170.72741500000055,
          "velocity": 0.6299212598425197,
          "duration": 1.0352281354166735
        },
        {
          "name": "F#1",
          "midi": 30,
          "time": 171.81832500000056,
          "velocity": 0.6299212598425197,
          "duration": 0.5170458854166782
        },
        {
          "name": "C#2",
          "midi": 37,
          "time": 171.81832500000056,
          "velocity": 0.6299212598425197,
          "duration": 0.5170458854166782
        },
        {
          "name": "F#2",
          "midi": 42,
          "time": 171.81832500000056,
          "velocity": 0.6299212598425197,
          "duration": 0.5170458854166782
        },
        {
          "name": "F#2",
          "midi": 42,
          "time": 172.36378000000056,
          "velocity": 0.6299212598425197,
          "duration": 1.0352281354166735
        },
        {
          "name": "C#3",
          "midi": 49,
          "time": 172.36378000000056,
          "velocity": 0.6299212598425197,
          "duration": 1.0352281354166735
        },
        {
          "name": "F#3",
          "midi": 54,
          "time": 172.36378000000056,
          "velocity": 0.6299212598425197,
          "duration": 1.0352281354166735
        },
        {
          "name": "A#1",
          "midi": 34,
          "time": 173.45469000000057,
          "velocity": 0.6299212598425197,
          "duration": 0.5170458854166782
        },
        {
          "name": "F2",
          "midi": 41,
          "time": 173.45469000000057,
          "velocity": 0.6299212598425197,
          "duration": 0.5170458854166782
        },
        {
          "name": "A#2",
          "midi": 46,
          "time": 173.45469000000057,
          "velocity": 0.6299212598425197,
          "duration": 0.5170458854166782
        },
        {
          "name": "A#2",
          "midi": 46,
          "time": 174.00014500000057,
          "velocity": 0.6299212598425197,
          "duration": 1.0352281354166735
        },
        {
          "name": "F3",
          "midi": 53,
          "time": 174.00014500000057,
          "velocity": 0.6299212598425197,
          "duration": 1.0352281354166735
        },
        {
          "name": "A#3",
          "midi": 58,
          "time": 174.00014500000057,
          "velocity": 0.6299212598425197,
          "duration": 1.0352281354166735
        },
        {
          "name": "C#2",
          "midi": 37,
          "time": 175.09105500000058,
          "velocity": 0.6299212598425197,
          "duration": 0.5170458854166782
        },
        {
          "name": "G#2",
          "midi": 44,
          "time": 175.09105500000058,
          "velocity": 0.6299212598425197,
          "duration": 0.5170458854166782
        },
        {
          "name": "C#3",
          "midi": 49,
          "time": 175.09105500000058,
          "velocity": 0.6299212598425197,
          "duration": 0.5170458854166782
        },
        {
          "name": "C#3",
          "midi": 49,
          "time": 175.63651000000058,
          "velocity": 0.6299212598425197,
          "duration": 1.0352281354166735
        },
        {
          "name": "G#3",
          "midi": 56,
          "time": 175.63651000000058,
          "velocity": 0.6299212598425197,
          "duration": 1.0352281354166735
        },
        {
          "name": "C#4",
          "midi": 61,
          "time": 175.63651000000058,
          "velocity": 0.6299212598425197,
          "duration": 1.0352281354166735
        },
        {
          "name": "G#1",
          "midi": 32,
          "time": 176.7274200000006,
          "velocity": 0.6299212598425197,
          "duration": 0.5170458854166782
        },
        {
          "name": "D#2",
          "midi": 39,
          "time": 176.7274200000006,
          "velocity": 0.6299212598425197,
          "duration": 0.5170458854166782
        },
        {
          "name": "G#2",
          "midi": 44,
          "time": 176.7274200000006,
          "velocity": 0.6299212598425197,
          "duration": 0.5170458854166782
        },
        {
          "name": "G#2",
          "midi": 44,
          "time": 177.2728750000006,
          "velocity": 0.6299212598425197,
          "duration": 1.0352281354166735
        },
        {
          "name": "D#3",
          "midi": 51,
          "time": 177.2728750000006,
          "velocity": 0.6299212598425197,
          "duration": 1.0352281354166735
        },
        {
          "name": "G#3",
          "midi": 56,
          "time": 177.2728750000006,
          "velocity": 0.6299212598425197,
          "duration": 1.0352281354166735
        },
        {
          "name": "F#1",
          "midi": 30,
          "time": 178.3637850000006,
          "velocity": 0.6299212598425197,
          "duration": 0.5170458854166782
        },
        {
          "name": "F#2",
          "midi": 42,
          "time": 178.3637850000006,
          "velocity": 0.6299212598425197,
          "duration": 0.5170458854166782
        },
        {
          "name": "C#2",
          "midi": 37,
          "time": 178.9092400000006,
          "velocity": 0.6299212598425197,
          "duration": 0.5170458854166782
        },
        {
          "name": "C#3",
          "midi": 49,
          "time": 178.9092400000006,
          "velocity": 0.6299212598425197,
          "duration": 0.5170458854166782
        },
        {
          "name": "C#2",
          "midi": 37,
          "time": 179.4546950000006,
          "velocity": 0.6299212598425197,
          "duration": 0.5170458854166782
        },
        {
          "name": "C#3",
          "midi": 49,
          "time": 179.4546950000006,
          "velocity": 0.6299212598425197,
          "duration": 0.5170458854166782
        },
        {
          "name": "A#1",
          "midi": 34,
          "time": 180.00015000000062,
          "velocity": 0.6299212598425197,
          "duration": 0.5170458854166782
        },
        {
          "name": "A#2",
          "midi": 46,
          "time": 180.00015000000062,
          "velocity": 0.6299212598425197,
          "duration": 0.5170458854166782
        },
        {
          "name": "F2",
          "midi": 41,
          "time": 180.54560500000062,
          "velocity": 0.6299212598425197,
          "duration": 0.5170458854166782
        },
        {
          "name": "F3",
          "midi": 53,
          "time": 180.54560500000062,
          "velocity": 0.6299212598425197,
          "duration": 0.5170458854166782
        },
        {
          "name": "F2",
          "midi": 41,
          "time": 181.09106000000062,
          "velocity": 0.6299212598425197,
          "duration": 0.5170458854166782
        },
        {
          "name": "F3",
          "midi": 53,
          "time": 181.09106000000062,
          "velocity": 0.6299212598425197,
          "duration": 0.5170458854166782
        },
        {
          "name": "G#1",
          "midi": 32,
          "time": 181.63651500000063,
          "velocity": 0.6299212598425197,
          "duration": 0.5170458854166782
        },
        {
          "name": "G#2",
          "midi": 44,
          "time": 181.63651500000063,
          "velocity": 0.6299212598425197,
          "duration": 0.5170458854166782
        },
        {
          "name": "D#2",
          "midi": 39,
          "time": 182.18197000000063,
          "velocity": 0.6299212598425197,
          "duration": 0.5170458854166782
        },
        {
          "name": "D#3",
          "midi": 51,
          "time": 182.18197000000063,
          "velocity": 0.6299212598425197,
          "duration": 0.5170458854166782
        },
        {
          "name": "D#2",
          "midi": 39,
          "time": 182.72742500000064,
          "velocity": 0.6299212598425197,
          "duration": 0.5170458854166782
        },
        {
          "name": "D#3",
          "midi": 51,
          "time": 182.72742500000064,
          "velocity": 0.6299212598425197,
          "duration": 0.5170458854166782
        },
        {
          "name": "G#1",
          "midi": 32,
          "time": 183.27288000000064,
          "velocity": 0.6299212598425197,
          "duration": 0.5170458854166782
        },
        {
          "name": "G#2",
          "midi": 44,
          "time": 183.27288000000064,
          "velocity": 0.6299212598425197,
          "duration": 0.5170458854166782
        },
        {
          "name": "C2",
          "midi": 36,
          "time": 183.81833500000064,
          "velocity": 0.6299212598425197,
          "duration": 0.5170458854166782
        },
        {
          "name": "C3",
          "midi": 48,
          "time": 183.81833500000064,
          "velocity": 0.6299212598425197,
          "duration": 0.5170458854166782
        },
        {
          "name": "C2",
          "midi": 36,
          "time": 184.36379000000065,
          "velocity": 0.6299212598425197,
          "duration": 0.5170458854166782
        },
        {
          "name": "C3",
          "midi": 48,
          "time": 184.36379000000065,
          "velocity": 0.6299212598425197,
          "duration": 0.5170458854166782
        },
        {
          "name": "F#1",
          "midi": 30,
          "time": 184.90924500000065,
          "velocity": 0.6299212598425197,
          "duration": 0.5170458854166782
        },
        {
          "name": "F#2",
          "midi": 42,
          "time": 184.90924500000065,
          "velocity": 0.6299212598425197,
          "duration": 0.5170458854166782
        },
        {
          "name": "C#2",
          "midi": 37,
          "time": 185.45470000000066,
          "velocity": 0.6299212598425197,
          "duration": 0.5170458854166782
        },
        {
          "name": "C#3",
          "midi": 49,
          "time": 185.45470000000066,
          "velocity": 0.6299212598425197,
          "duration": 0.5170458854166782
        },
        {
          "name": "C#2",
          "midi": 37,
          "time": 186.00015500000066,
          "velocity": 0.6299212598425197,
          "duration": 0.5170458854166782
        },
        {
          "name": "C#3",
          "midi": 49,
          "time": 186.00015500000066,
          "velocity": 0.6299212598425197,
          "duration": 0.5170458854166782
        },
        {
          "name": "A#1",
          "midi": 34,
          "time": 186.54561000000066,
          "velocity": 0.6299212598425197,
          "duration": 0.5170458854166782
        },
        {
          "name": "A#2",
          "midi": 46,
          "time": 186.54561000000066,
          "velocity": 0.6299212598425197,
          "duration": 0.5170458854166782
        },
        {
          "name": "F2",
          "midi": 41,
          "time": 187.09106500000067,
          "velocity": 0.6299212598425197,
          "duration": 0.5170458854166782
        },
        {
          "name": "F3",
          "midi": 53,
          "time": 187.09106500000067,
          "velocity": 0.6299212598425197,
          "duration": 0.5170458854166782
        },
        {
          "name": "F2",
          "midi": 41,
          "time": 187.63652000000067,
          "velocity": 0.6299212598425197,
          "duration": 0.5170458854166782
        },
        {
          "name": "F3",
          "midi": 53,
          "time": 187.63652000000067,
          "velocity": 0.6299212598425197,
          "duration": 0.5170458854166782
        },
        {
          "name": "D#1",
          "midi": 27,
          "time": 188.18197500000068,
          "velocity": 0.6299212598425197,
          "duration": 0.5170458854166782
        },
        {
          "name": "D#2",
          "midi": 39,
          "time": 188.18197500000068,
          "velocity": 0.6299212598425197,
          "duration": 0.5170458854166782
        },
        {
          "name": "G#1",
          "midi": 32,
          "time": 188.72743000000068,
          "velocity": 0.6299212598425197,
          "duration": 0.5170458854166782
        },
        {
          "name": "G#2",
          "midi": 44,
          "time": 188.72743000000068,
          "velocity": 0.6299212598425197,
          "duration": 0.5170458854166782
        },
        {
          "name": "G#1",
          "midi": 32,
          "time": 189.27288500000068,
          "velocity": 0.6299212598425197,
          "duration": 0.5170458854166782
        },
        {
          "name": "G#2",
          "midi": 44,
          "time": 189.27288500000068,
          "velocity": 0.6299212598425197,
          "duration": 0.5170458854166782
        },
        {
          "name": "C#2",
          "midi": 37,
          "time": 189.8183400000007,
          "velocity": 0.6299212598425197,
          "duration": 0.7761370104166758
        },
        {
          "name": "G#2",
          "midi": 44,
          "time": 189.8183400000007,
          "velocity": 0.6299212598425197,
          "duration": 0.7761370104166758
        },
        {
          "name": "C#3",
          "midi": 49,
          "time": 189.8183400000007,
          "velocity": 0.6299212598425197,
          "duration": 0.7761370104166758
        },
        {
          "name": "F1",
          "midi": 29,
          "time": 190.6365225000007,
          "velocity": 0.6299212598425197,
          "duration": 0.7761370104166758
        },
        {
          "name": "F2",
          "midi": 41,
          "time": 190.6365225000007,
          "velocity": 0.6299212598425197,
          "duration": 0.7761370104166758
        },
        {
          "name": "F#1",
          "midi": 30,
          "time": 191.4547050000007,
          "velocity": 0.6299212598425197,
          "duration": 0.7761370104166758
        },
        {
          "name": "C#2",
          "midi": 37,
          "time": 191.4547050000007,
          "velocity": 0.6299212598425197,
          "duration": 0.7761370104166758
        },
        {
          "name": "F#2",
          "midi": 42,
          "time": 191.4547050000007,
          "velocity": 0.6299212598425197,
          "duration": 0.7761370104166758
        },
        {
          "name": "F#2",
          "midi": 42,
          "time": 192.2728875000007,
          "velocity": 0.6299212598425197,
          "duration": 0.7761370104166758
        },
        {
          "name": "C#3",
          "midi": 49,
          "time": 192.2728875000007,
          "velocity": 0.6299212598425197,
          "duration": 0.7761370104166758
        },
        {
          "name": "F#3",
          "midi": 54,
          "time": 192.2728875000007,
          "velocity": 0.6299212598425197,
          "duration": 0.7761370104166758
        },
        {
          "name": "A#1",
          "midi": 34,
          "time": 193.0910700000007,
          "velocity": 0.6299212598425197,
          "duration": 0.7761370104166758
        },
        {
          "name": "F2",
          "midi": 41,
          "time": 193.0910700000007,
          "velocity": 0.6299212598425197,
          "duration": 0.7761370104166758
        },
        {
          "name": "A#2",
          "midi": 46,
          "time": 193.0910700000007,
          "velocity": 0.6299212598425197,
          "duration": 0.7761370104166758
        },
        {
          "name": "A#2",
          "midi": 46,
          "time": 193.90925250000072,
          "velocity": 0.6299212598425197,
          "duration": 0.7761370104166758
        },
        {
          "name": "F3",
          "midi": 53,
          "time": 193.90925250000072,
          "velocity": 0.6299212598425197,
          "duration": 0.7761370104166758
        },
        {
          "name": "A#3",
          "midi": 58,
          "time": 193.90925250000072,
          "velocity": 0.6299212598425197,
          "duration": 0.7761370104166758
        },
        {
          "name": "G#1",
          "midi": 32,
          "time": 194.72743500000072,
          "velocity": 0.6299212598425197,
          "duration": 0.7761370104166758
        },
        {
          "name": "D#2",
          "midi": 39,
          "time": 194.72743500000072,
          "velocity": 0.6299212598425197,
          "duration": 0.7761370104166758
        },
        {
          "name": "G#2",
          "midi": 44,
          "time": 194.72743500000072,
          "velocity": 0.6299212598425197,
          "duration": 0.7761370104166758
        },
        {
          "name": "G#2",
          "midi": 44,
          "time": 195.54561750000073,
          "velocity": 0.6299212598425197,
          "duration": 0.7761370104166758
        },
        {
          "name": "D#3",
          "midi": 51,
          "time": 195.54561750000073,
          "velocity": 0.6299212598425197,
          "duration": 0.7761370104166758
        },
        {
          "name": "G#3",
          "midi": 56,
          "time": 195.54561750000073,
          "velocity": 0.6299212598425197,
          "duration": 0.7761370104166758
        },
        {
          "name": "D#1",
          "midi": 27,
          "time": 196.36380000000074,
          "velocity": 0.6299212598425197,
          "duration": 0.7761370104166758
        },
        {
          "name": "A#1",
          "midi": 34,
          "time": 196.36380000000074,
          "velocity": 0.6299212598425197,
          "duration": 0.7761370104166758
        },
        {
          "name": "D#2",
          "midi": 39,
          "time": 196.36380000000074,
          "velocity": 0.6299212598425197,
          "duration": 0.7761370104166758
        },
        {
          "name": "D#2",
          "midi": 39,
          "time": 197.18198250000074,
          "velocity": 0.6299212598425197,
          "duration": 0.7761370104166758
        },
        {
          "name": "A#2",
          "midi": 46,
          "time": 197.18198250000074,
          "velocity": 0.6299212598425197,
          "duration": 0.7761370104166758
        },
        {
          "name": "D#3",
          "midi": 51,
          "time": 197.18198250000074,
          "velocity": 0.6299212598425197,
          "duration": 0.7761370104166758
        },
        {
          "name": "F#1",
          "midi": 30,
          "time": 198.00016500000075,
          "velocity": 0.6299212598425197,
          "duration": 0.7761370104166758
        },
        {
          "name": "C#2",
          "midi": 37,
          "time": 198.00016500000075,
          "velocity": 0.6299212598425197,
          "duration": 0.7761370104166758
        },
        {
          "name": "F#2",
          "midi": 42,
          "time": 198.00016500000075,
          "velocity": 0.6299212598425197,
          "duration": 0.7761370104166758
        },
        {
          "name": "F#2",
          "midi": 42,
          "time": 198.81834750000075,
          "velocity": 0.6299212598425197,
          "duration": 0.7761370104166758
        },
        {
          "name": "C#3",
          "midi": 49,
          "time": 198.81834750000075,
          "velocity": 0.6299212598425197,
          "duration": 0.7761370104166758
        },
        {
          "name": "F#3",
          "midi": 54,
          "time": 198.81834750000075,
          "velocity": 0.6299212598425197,
          "duration": 0.7761370104166758
        },
        {
          "name": "A#1",
          "midi": 34,
          "time": 199.63653000000076,
          "velocity": 0.6299212598425197,
          "duration": 0.7761370104166758
        },
        {
          "name": "F2",
          "midi": 41,
          "time": 199.63653000000076,
          "velocity": 0.6299212598425197,
          "duration": 0.7761370104166758
        },
        {
          "name": "A#2",
          "midi": 46,
          "time": 199.63653000000076,
          "velocity": 0.6299212598425197,
          "duration": 0.7761370104166758
        },
        {
          "name": "A#2",
          "midi": 46,
          "time": 200.45471250000077,
          "velocity": 0.6299212598425197,
          "duration": 0.7761370104166758
        },
        {
          "name": "F3",
          "midi": 53,
          "time": 200.45471250000077,
          "velocity": 0.6299212598425197,
          "duration": 0.7761370104166758
        },
        {
          "name": "A#3",
          "midi": 58,
          "time": 200.45471250000077,
          "velocity": 0.6299212598425197,
          "duration": 0.7761370104166758
        },
        {
          "name": "C#2",
          "midi": 37,
          "time": 201.27289500000077,
          "velocity": 0.6299212598425197,
          "duration": 0.7761370104166758
        },
        {
          "name": "G#2",
          "midi": 44,
          "time": 201.27289500000077,
          "velocity": 0.6299212598425197,
          "duration": 0.7761370104166758
        },
        {
          "name": "C#3",
          "midi": 49,
          "time": 201.27289500000077,
          "velocity": 0.6299212598425197,
          "duration": 0.7761370104166758
        },
        {
          "name": "C#3",
          "midi": 49,
          "time": 202.09107750000078,
          "velocity": 0.6299212598425197,
          "duration": 0.7761370104166758
        },
        {
          "name": "G#3",
          "midi": 56,
          "time": 202.09107750000078,
          "velocity": 0.6299212598425197,
          "duration": 0.7761370104166758
        },
        {
          "name": "C#4",
          "midi": 61,
          "time": 202.09107750000078,
          "velocity": 0.6299212598425197,
          "duration": 0.7761370104166758
        },
        {
          "name": "G#1",
          "midi": 32,
          "time": 202.90926000000078,
          "velocity": 0.6299212598425197,
          "duration": 1.5534103854166688
        },
        {
          "name": "D#2",
          "midi": 39,
          "time": 202.90926000000078,
          "velocity": 0.6299212598425197,
          "duration": 1.5534103854166688
        },
        {
          "name": "G#2",
          "midi": 44,
          "time": 202.90926000000078,
          "velocity": 0.6299212598425197,
          "duration": 1.5534103854166688
        }
      ],
      "controlChanges": {
        "64": [
          {
            "number": 64,
            "time": 63.82050772916669,
            "value": 1
          },
          {
            "number": 64,
            "time": 67.09210136458339,
            "value": 0
          },
          {
            "number": 64,
            "time": 67.09323772916672,
            "value": 1
          },
          {
            "number": 64,
            "time": 70.36483136458341,
            "value": 0
          },
          {
            "number": 64,
            "time": 70.36596772916674,
            "value": 1
          },
          {
            "number": 64,
            "time": 73.6375613645834,
            "value": 0
          },
          {
            "number": 64,
            "time": 73.63869772916674,
            "value": 1
          },
          {
            "number": 64,
            "time": 76.91029136458343,
            "value": 0
          }
        ]
      },
      "id": 3,
      "name": "Piano",
      "channelNumber": 6,
      "isPercussion": false
    }
  ]
}